<?xml version="1.0" encoding="UTF-8" standalone="no"?>
<svg
   xmlns:dc="http://purl.org/dc/elements/1.1/"
   xmlns:cc="http://creativecommons.org/ns#"
   xmlns:rdf="http://www.w3.org/1999/02/22-rdf-syntax-ns#"
   xmlns:svg="http://www.w3.org/2000/svg"
   xmlns="http://www.w3.org/2000/svg"
   xmlns:sodipodi="http://sodipodi.sourceforge.net/DTD/sodipodi-0.dtd"
   xmlns:inkscape="http://www.inkscape.org/namespaces/inkscape"
   width="100%"
   height="100%"
   viewBox="0 0 100 100"
   version="1.1"
   xml:space="preserve"
   style="fill-rule:evenodd;clip-rule:evenodd;stroke-linejoin:round;stroke-miterlimit:2;"
   id="svg16"
   sodipodi:docname="crystals.svg"
   inkscape:version="1.0.1 (3bc2e813f5, 2020-09-07)"><metadata
   id="metadata22"><rdf:RDF><cc:Work
       rdf:about=""><dc:format>image/svg+xml</dc:format><dc:type
         rdf:resource="http://purl.org/dc/dcmitype/StillImage" /><dc:title></dc:title></cc:Work></rdf:RDF></metadata><defs
   id="defs20" /><sodipodi:namedview
   pagecolor="#ffffff"
   bordercolor="#666666"
   borderopacity="1"
   objecttolerance="10"
   gridtolerance="10"
   guidetolerance="10"
   inkscape:pageopacity="0"
   inkscape:pageshadow="2"
   inkscape:window-width="1735"
   inkscape:window-height="844"
   id="namedview18"
   showgrid="false"
   inkscape:zoom="1.9275"
   inkscape:cx="-155.48449"
   inkscape:cy="-6.2250564"
   inkscape:window-x="0"
   inkscape:window-y="0"
   inkscape:window-maximized="0"
   inkscape:current-layer="svg16" />
    
<g
   id="g8"
   style="image-rendering:optimizeQuality;shape-rendering:geometricPrecision;text-rendering:geometricPrecision"
   transform="matrix(0.09194717,0,0,0.09194717,11.075538,11.075888)"><path
     class="fil0"
     d="m 296.14,88.87 75.84,131.34 H 478.41 L 588.6,110.03 C 513.68,57.73 380.38,52.3 296.14,88.87 Z m 13.44,441.45 -72.95,72.96 c 41.83,73.6 98.4,134.53 163.16,165.93 V 612.82 Z m -95.52,28.93 69.81,-69.81 -18.08,-129.02 H 162.04 c 4.43,68.1 23.46,136.88 52.02,198.83 z M 161.44,313.33 h 113.34 l 55.53,-71.54 -74.96,-129.83 c -65.17,47.09 -90.51,123.94 -93.91,201.37 z m 358.01,-67.56 52.44,67.56 h 113.34 c -2.72,-61.82 -19.47,-124.8 -61.36,-171.97 z m 61.43,114.65 -17.53,125.05 80.95,46.73 c 21.92,-54.47 36.53,-113.18 40.33,-171.78 z m -39.83,166.3 -94.17,86.1 V 769.21 C 519.72,733.9 582.19,661.23 625,575.19 Z M 369.94,267.3 l -59.09,76.11 20.02,142.88 92.47,84.55 92.46,-84.55 20.02,-142.88 -59.09,-76.11 z M 175.83,124.52 c 108.53,-142.13 386.47,-142.13 495,0 37.12,48.62 56.35,109.92 60.76,176.07 C 745.03,501.84 622.84,763.79 423.34,828.74 222.96,763.51 101.75,499.91 115.07,300.59 c 4.42,-66.16 23.64,-127.45 60.76,-176.07 z"
     id="path6" /></g></svg>
