<?xml version="1.0" encoding="UTF-8" standalone="no"?>
<svg
   xmlns:dc="http://purl.org/dc/elements/1.1/"
   xmlns:cc="http://creativecommons.org/ns#"
   xmlns:rdf="http://www.w3.org/1999/02/22-rdf-syntax-ns#"
   xmlns:svg="http://www.w3.org/2000/svg"
   xmlns="http://www.w3.org/2000/svg"
   xmlns:sodipodi="http://sodipodi.sourceforge.net/DTD/sodipodi-0.dtd"
   xmlns:inkscape="http://www.inkscape.org/namespaces/inkscape"
   width="100%"
   height="100%"
   viewBox="0 0 100 100"
   version="1.1"
   xml:space="preserve"
   style="fill-rule:evenodd;clip-rule:evenodd;stroke-linejoin:round;stroke-miterlimit:2;"
   id="svg16"
   sodipodi:docname="living arts.svg"
   inkscape:version="1.0.1 (3bc2e813f5, 2020-09-07)"><metadata
   id="metadata22"><rdf:RDF><cc:Work
       rdf:about=""><dc:format>image/svg+xml</dc:format><dc:type
         rdf:resource="http://purl.org/dc/dcmitype/StillImage" /><dc:title></dc:title></cc:Work></rdf:RDF></metadata><defs
   id="defs20" /><sodipodi:namedview
   pagecolor="#ffffff"
   bordercolor="#666666"
   borderopacity="1"
   objecttolerance="10"
   gridtolerance="10"
   guidetolerance="10"
   inkscape:pageopacity="0"
   inkscape:pageshadow="2"
   inkscape:window-width="1735"
   inkscape:window-height="844"
   id="namedview18"
   showgrid="false"
   inkscape:zoom="1.9275"
   inkscape:cx="-27.752269"
   inkscape:cy="-35.252639"
   inkscape:window-x="0"
   inkscape:window-y="0"
   inkscape:window-maximized="0"
   inkscape:current-layer="svg16" />
    
<path
   d="m 84.565081,61.762489 c -1.559368,-0.08663 -4.851365,1.732629 -5.804311,2.165785 -3.205366,1.645999 -7.623571,4.331575 -10.569041,6.410732 -0.173264,0.173263 -0.433159,0.346526 -0.693055,0.433156 -1.299471,0.866316 -2.685574,1.472737 -4.244941,1.819261 -8.489887,1.905894 -20.87819,2.079156 -20.87819,2.079156 h -0.693051 c -0.519789,0 -1.039579,-0.346526 -1.126209,-0.866313 -0.08664,-0.606423 0.346525,-1.12621 0.952948,-1.212843 l 18.452504,-1.819261 c 1.992526,-0.259893 3.638525,-2.165786 3.37863,-4.418204 -0.259895,-2.252419 -2.165789,-3.811787 -4.244943,-3.638525 l -8.403256,-0.08663 c -1.905893,-1.819261 -3.46526,-3.638521 -4.244942,-6.237465 -0.866313,-2.772208 -0.433158,-5.457785 0.779682,-8.056729 0.259895,-0.51979 0.51979,-1.039579 0.779685,-1.472736 2.079155,-3.811785 5.111256,-6.41073 9.009673,-8.489888 3.032102,-1.645996 5.977575,-3.205363 9.269571,-4.331573 0.173262,-0.08664 0.346527,-0.08664 0.51979,-0.08664 0,0.08664 0.08663,0.173263 0.08663,0.259894 -0.259893,0.173265 -0.433158,0.346528 -0.693052,0.433159 -3.55189,1.992524 -7.017151,4.07168 -10.135883,6.670625 -2.252418,1.819262 -3.985048,4.158311 -5.371153,6.843886 0.866315,0.346527 1.559367,0.779684 2.42568,1.039579 3.551894,1.21284 6.93052,0.779684 10.309148,-0.693052 4.591469,-1.992524 7.970098,-5.371151 10.395779,-9.616097 4.158312,-7.103782 5.284522,-14.727352 3.378629,-22.784081 -0.259894,-0.952946 -0.51979,-1.819261 -0.866315,-2.685575 -0.08663,-0.346527 -0.519788,-0.693053 -0.779684,-0.693053 -0.259894,0 -0.693051,0.346526 -0.866314,0.606421 -2.252419,3.725156 -5.28452,6.497363 -9.442834,7.883465 -1.992523,0.693053 -4.158312,0.866315 -6.237465,1.21284 -2.598946,0.43316 -5.284521,0.866317 -7.623573,1.992525 -3.551891,1.732629 -6.324098,4.158313 -7.623571,7.970097 -1.12621,3.118734 -0.693051,6.237468 0.866316,9.096307 0.519789,0.866316 0.60642,1.559367 0.173263,2.252419 -0.08664,0.173264 -0.173263,0.346525 -0.346525,0.519789 -0.779685,1.12621 -1.386105,2.425682 -1.819264,3.725154 -0.259894,-0.346526 -0.519788,-0.606421 -0.779682,-0.952947 -0.346525,-0.433157 -0.519789,-0.779683 -0.346525,-1.386104 1.299471,-5.544416 -2.945473,-11.002198 -8.663149,-10.742304 -0.952948,0.08664 -1.819263,0.08664 -2.772208,0.08664 -2.252419,0 -4.331576,-0.60642 -6.150836,-1.905894 -1.646,-1.21284 -2.85884,-2.772206 -3.725154,-4.678101 -0.173263,-0.259893 -0.519789,-0.693051 -0.779685,-0.693051 -0.259894,0 -0.693051,0.346526 -0.779683,0.693051 -0.346524,0.693054 -0.60642,1.386106 -0.779683,2.165789 -0.866315,3.118731 -0.606419,6.237467 0.259894,9.3562 1.386106,4.851365 4.07168,8.749781 8.489887,11.348726 2.252419,1.299472 4.6781,2.165787 7.363676,1.905892 1.039577,-0.08663 1.992525,-0.433158 2.945471,-1.039578 -2.858837,-4.59147 -7.017149,-7.710203 -11.002197,-11.002201 2.85884,0.606421 5.457783,1.819262 7.796833,3.551892 3.985049,2.858839 7.103782,6.324099 8.576518,11.175464 v 0 c 0.519788,2.512313 1.472734,4.764731 2.94547,6.757254 h -2.252419 c -1.126209,0 -2.858839,-0.259894 -3.985048,-0.606421 -10.569041,-3.205363 -16.459983,-0.173261 -19.665349,1.212842 -7.062816,2.951599 -9.010592,14.277928 1.039577,20.358399 l 30.927443,1.386105 c 3.465259,0.346526 6.670626,-0.08663 9.702727,-1.73263 L 61.86763,82.727308 85.258132,68.519742 C 86.384341,67.82669 87.250655,66.61385 87.250655,65.227747 87.683814,63.75501 86.8175,61.935749 84.565081,61.762488 Z m -7.796836,-2.425682 c 1.299473,-0.519789 2.598945,-0.519789 3.811785,0.346524 -0.952946,0.346528 -1.81926,0.779685 -2.685576,1.212841 -2.772209,1.472736 -7.623571,4.158312 -10.049252,5.890941 -0.259896,0.173265 -0.519789,0.346528 -0.693052,0.51979 V 65.9208 c -0.08663,-0.606421 -0.173265,-1.126209 -0.346525,-1.645999 2.425681,-1.386103 7.277045,-3.811785 9.96262,-4.937994 z m -9.78936,1.645997 -1.21284,0.693053 c -0.08663,0.08663 -0.173262,0.173263 -0.346525,0.259893 -0.519789,-0.693051 -1.126208,-1.299471 -1.81926,-1.732629 1.645995,-0.866314 5.28452,-2.079156 6.843885,-2.772208 1.299475,-0.519789 2.598947,-0.519789 3.811787,0.346526 -1.905893,0.866314 -5.544416,2.25242 -7.277047,3.205365 z"
   id="path2"
   sodipodi:nodetypes="ccccccscccscccccccccccccccccsccscccccccccsccsccccccccsscscccccccccccccccccccccccc"
   style="stroke-width:0.866315" /></svg>
