<?xml version="1.0" encoding="UTF-8" standalone="no"?>
<svg
   xmlns:dc="http://purl.org/dc/elements/1.1/"
   xmlns:cc="http://creativecommons.org/ns#"
   xmlns:rdf="http://www.w3.org/1999/02/22-rdf-syntax-ns#"
   xmlns:svg="http://www.w3.org/2000/svg"
   xmlns="http://www.w3.org/2000/svg"
   xmlns:sodipodi="http://sodipodi.sourceforge.net/DTD/sodipodi-0.dtd"
   xmlns:inkscape="http://www.inkscape.org/namespaces/inkscape"
   width="100%"
   height="100%"
   viewBox="0 0 100 100"
   version="1.1"
   xml:space="preserve"
   style="fill-rule:evenodd;clip-rule:evenodd;stroke-linejoin:round;stroke-miterlimit:2;"
   id="svg16"
   sodipodi:docname="textiles.svg"
   inkscape:version="1.0.1 (3bc2e813f5, 2020-09-07)"><metadata
   id="metadata22"><rdf:RDF><cc:Work
       rdf:about=""><dc:format>image/svg+xml</dc:format><dc:type
         rdf:resource="http://purl.org/dc/dcmitype/StillImage" /><dc:title></dc:title></cc:Work></rdf:RDF></metadata><defs
   id="defs20" /><sodipodi:namedview
   pagecolor="#ffffff"
   bordercolor="#666666"
   borderopacity="1"
   objecttolerance="10"
   gridtolerance="10"
   guidetolerance="10"
   inkscape:pageopacity="0"
   inkscape:pageshadow="2"
   inkscape:window-width="1735"
   inkscape:window-height="844"
   id="namedview18"
   showgrid="false"
   inkscape:zoom="2.7258966"
   inkscape:cx="-66.924575"
   inkscape:cy="58.202175"
   inkscape:window-x="0"
   inkscape:window-y="0"
   inkscape:window-maximized="0"
   inkscape:current-layer="g8" />
    
<g
   id="g8"
   transform="matrix(0.00124806,0,0,0.00124806,6.3976322,8.7320414)"
   style="image-rendering:optimizeQuality;shape-rendering:geometricPrecision;text-rendering:geometricPrecision"><path
     class="fil0"
     d="m 15390.764,13415.189 c 2.765,-39.457 11.267,-79.172 26.064,-118.041 306.442,-805.092 724.496,-1610.37 1264.667,-2416.205 535.642,-799.077 1190.129,-1595.7084 1973.687,-2390.0285 4077.909,-4134.0099 8205.378,-4727.1756 12506.523,-3145.2216 1230.534,452.5897 2472.883,1085.295 3730.555,1864.5814 2823.695,-1763.545 5569.424,-2782.7722 8281.434,-2695.1805 2728.488,88.1282 5395.396,1291.6085 8036.251,3975.8207 1614.549,1641.0565 2683.964,3282.0825 3290.018,4933.8705 l 4.602,1.558 c 851.834,303.326 1699.365,732.7 2543.76,1299.801 837.945,562.768 1671.31,1260.375 2501.073,2104.223 4093.5,4162.984 4683.354,8306.414 3093.733,12611.48 -444.304,1203.295 -1060.675,2416.773 -1818.892,3645.038 l 0.403,0.63 c 1760.305,2822.456 2777.365,5565.575 2689.113,8273.818 -88.758,2723.711 -1290.329,5384.81 -3969.196,8018.958 -1639.84,1612.475 -3280.37,2680.332 -4932.262,3285.261 l -3.167,9.359 c -303.326,851.834 -732.7,1699.365 -1299.801,2543.76 -562.769,837.945 -1260.376,1671.31 -2104.223,2501.073 -4152.728,4083.43 -8286.449,4680.248 -12580.887,3104.98 -1218.472,-446.956 -2447.408,-1070.777 -3691.573,-1839.993 -2766.232,1709.725 -5459.081,2699.711 -8130.591,2633.664 -2747.123,-67.905 -5445.347,-1246.952 -8142.034,-3898.651 -1706.144,-1677.666 -2813.046,-3366.28 -3415.116,-5075.025 -39.478,-2.755 -79.213,-11.267 -118.103,-26.074 -805.226,-306.483 -1609.875,-725.167 -2415.298,-1265.596 -798.684,-535.91 -1595.295,-1190.397 -2390.936,-1972.758 C 6179.0677,45307.922 5563.0161,41194.766 7131.2674,36901.659 7590.5227,35644.43 8238.9427,34374.511 9041.6103,33087.69 7317.9453,30294.992 6328.6618,27577.483 6419.6172,24881.838 c 91.6468,-2716.086 1273.7889,-5384.645 3896.1118,-8051.471 1677.635,-1706.124 3366.249,-2813.015 5075.035,-3415.178 z m 1974.316,-2076.363 c -397.913,593.598 -725.044,1188.343 -986.261,1784.346 491.717,-117.876 985.229,-195.933 1480.763,-236.133 1116.281,-90.553 2238.784,11.546 3370.542,280.718 115.719,-153.009 237.485,-305.028 365.4,-456.025 187.483,-221.296 391.31,-444.119 611.966,-668.51 2607.413,-2651.6681 5244.512,-3109.0971 7993.977,-2183.1779 2667.723,898.3799 5409.965,3116.8669 8328.474,5882.4379 254.449,241.117 513.014,489.117 823.232,790.884 289.221,281.338 624.017,610.264 1044.466,1026.337 410.491,-316.017 818.981,-619.55 1225.592,-909.431 649.607,-463.114 1294.467,-891.435 1935.22,-1280.65 C 39084.579,11095.655 34889.939,7595.1659 30877.952,6119.5622 26886.273,4651.4289 23047.798,5209.9872 19242.043,9068.0972 18493.815,9826.6026 17871.49,10583.364 17365.08,11338.826 Z M 35662.425,7704.3125 c 1079.311,715.2925 2170.363,1532.7874 3275.335,2431.8685 1480.68,-624.1098 2934.471,-868.0644 4376.902,-604.9798 1472.921,268.6462 2916.528,1061.3458 4342.975,2512.0208 2329.563,2369.103 2933.986,4736.906 2376.883,7178.112 -543.638,2382.228 -2205.538,4802.056 -4443.341,7349.644 -739.664,842.042 -1527.793,1684.455 -2789.995,2974.805 -1269.445,1297.758 -3027.057,3058.703 -5697.05,5728.697 -1428.708,1428.707 373.128,-374.151 -734.134,732.09 -299.436,299.168 -583.962,583.436 -854.238,853.939 1080.734,1078.754 1968.125,1961.687 2718.159,2702.094 227.394,-225.732 443.654,-441.002 660.802,-657.583 274.785,-274.052 268.893,-269.678 919.573,-920.378 643.901,-643.88 695.182,-694.078 870.686,-870.046 288.426,-289.169 574.995,-577.017 859.356,-863.514 260.422,-262.362 521.319,-525.973 783.166,-791.565 256.873,-260.557 513.684,-522.052 770.64,-784.982 347.26,-355.33 691.643,-710.175 1032.909,-1064.937 333.868,-347.065 667.673,-697.287 1001.861,-1051.823 781.711,-829.278 1538.494,-1655.244 2265.105,-2481.974 728.273,-828.608 1406.657,-1635.093 2024.195,-2416.897 562.345,-711.929 1090.66,-1423.146 1579.952,-2135.58 482.069,-701.931 920.513,-1398.764 1309.552,-2091.346 1399.579,-2491.591 2143.37,-4906.889 1953.37,-7280.583 -189.443,-2366.596 -1310.965,-4713.999 -3642.004,-7083.2978 -2479.581,-2520.2963 -4958.356,-3649.4748 -7475.186,-3730.7621 -2425.781,-78.3465 -4912.11,812.0469 -7485.473,2366.9774 z m 3997.758,3029.3165 c 1516.959,1274.624 3060.859,2693.374 4637.231,4203.699 1170.307,-657.809 2327.572,-1178.077 3475.643,-1533.747 -211.596,-260.784 -445.264,-521.805 -702.281,-783.176 -1300.73,-1322.821 -2596.167,-2041.829 -3901.21,-2279.861 -1146.41,-209.089 -2313.828,-50.507 -3509.383,393.085 z m 7921.997,8577.536 c -16.675,-16.592 -31.605,-34.256 -44.854,-52.778 -722.918,309.579 -1456.69,718.213 -2202.731,1208.351 -390.732,256.697 -784.951,535.951 -1182.834,835.17 l 543.69,543.514 h 1.61 l 1532.694,1532.726 v 1.609 l 500.353,500.549 c 867.91,-1159.442 1564.764,-2288.589 2029.096,-3394.314 -186.761,-186.977 -411.172,-439.238 -604.65,-605.073 -140.112,-140.308 -110.508,-110.602 -23.319,-23.216 z m 796.332,-368.774 357.249,355.711 h 0.206 l 0.702,0.702 0.526,-0.526 -0.175,-0.176 h 0.351 c 473.092,473.041 221.625,221.698 -0.176,0.176 l -0.526,0.526 334.693,335.003 c 61.662,-198.369 115.317,-396.056 160.274,-593.042 25.527,-111.86 48.103,-223.576 67.976,-335.178 -305.193,58.195 -612.182,137.573 -921.1,236.804 z m -223.958,938.528 -23.319,-23.216 23.236,23.298 z m 581.413,-582.817 h 1.053 c -195.294,-195.066 -367.134,-366.535 -1.053,0 z m -581.496,582.899 c 226.022,226.507 716.779,718.161 -0.722,0.723 z m 4940.712,3838.557 c 804.133,836.584 1577.28,1658.371 2309.598,2463.67 649.957,714.725 1279.794,1430.1 1886.064,2148.839 114.295,-319.113 208.243,-636.337 280.244,-951.839 494.131,-2165.296 -56.978,-4280.776 -2160.86,-6420.37 -188.319,-191.528 -382.095,-374.925 -581.135,-550.397 -75.251,-66.346 -149.315,-129.917 -222.183,-190.743 -346.064,1157.316 -858.726,2322.887 -1511.728,3500.84 z m 1700.181,3018.276 c -687.805,-756.359 -1398.898,-1514.225 -2128.956,-2276.114 -303.573,505.347 -632.251,1013.923 -983.877,1525.925 -373.335,543.607 -776.025,1094.943 -1205.038,1653.831 518.255,524.178 926.745,940.984 1274.264,1300.194 383.88,396.778 692.365,721.782 988.365,1039.203 430.436,461.567 851.72,925.589 1262.542,1394.678 308.629,352.409 609.376,706.439 901.331,1063.038 847.531,-1108.821 1543.209,-2189.761 2033.718,-3248.724 -4.127,-4.55 -8.193,-9.183 -12.155,-13.95 -658.749,-791.276 -1372.462,-1604.83 -2130.194,-2438.081 z m 7896.15,14597.704 c 78.924,-2422.077 -809.22,-4905.496 -2360.642,-7476.899 -711.444,1076.091 -1526.029,2164.162 -2424.244,3267.287 611.532,1457.268 854.496,2887.833 608.076,4306.263 -258.906,1490.297 -1053.432,2951.29 -2522.453,4395.794 -1360.411,1337.721 -2725.826,2106.008 -4109.649,2412.388 -1369.119,303.13 -2740.694,152.339 -4130.924,-348.365 -944.152,940.984 -1878.026,1865.108 -2810.302,2769.472 2355.824,1269.321 4644.712,1938.697 6895.94,1771.882 2383.135,-176.576 4745.985,-1295.632 7130.06,-3639.93 2515.034,-2473.039 3642.283,-4946.005 3724.138,-7457.892 z m -9086,11641.729 c -568.319,144.249 -1138.228,235.957 -1710.148,278.335 -1063.265,78.779 -2129.75,-13.734 -3202.725,-256.089 -144.198,188.277 -293.338,369.95 -447.534,544.855 -178.65,202.641 -375.904,410.285 -592.309,623.068 -2369.103,2329.564 -4736.916,2933.986 -7178.123,2376.883 -2382.228,-543.638 -4802.045,-2205.527 -7349.633,-4443.341 -501.725,-440.713 -1004.142,-899.442 -1603.272,-1467.535 -564.057,-534.836 -1220.567,-1172.814 -2049.835,-1990.34 -422.491,323.87 -842.836,634.181 -1261.221,929.778 -645.407,455.995 -1286.408,877.114 -1923.685,1259.313 4472.79,4285.523 8631.254,7755.171 12620.942,9218.661 3988.75,1463.139 7837.708,899.494 11719.952,-2917.972 804.535,-791.101 1466.782,-1581.387 1997.821,-2372.095 398.388,-593.197 723.403,-1187.539 979.77,-1783.521 z m -5783.455,-206.376 c -1157.193,-345.765 -2322.878,-858.004 -3501.088,-1510.397 -129.453,124.387 -258.927,248.381 -388.421,371.963 -1441.987,1376.177 -2851.069,2665.433 -4231.342,3827.929 319.856,114.646 637.813,208.883 954.036,281.049 2165.297,494.131 4280.777,-56.978 6420.371,-2160.86 191.528,-188.318 374.924,-382.095 550.397,-581.135 68.276,-77.448 133.621,-153.628 196.047,-228.549 z m -8079.691,-4636.684 c -757.443,-601.71 -1520.819,-1243.629 -2291.314,-1919.485 -835.634,-732.989 -1674.096,-1500.223 -2518.501,-2295.338 -1638.292,1542.745 -3237.487,2966.2 -4806.327,4212.852 785.323,773.632 1415.366,1385.391 1963.049,1904.688 599.965,568.887 1093.683,1019.991 1577.475,1444.959 426.01,374.212 847.676,731.523 1265.297,1069.229 382.065,-308.691 761.581,-628.578 1139.704,-958.391 435.544,-379.907 884.377,-786.261 1344.737,-1214.077 625.854,-581.599 1257.764,-1189.365 2325.88,-2244.437 z m -1749.605,-2538.581 c 789.202,692.263 1568.354,1346.615 2338.075,1955.63 647.027,-642.435 1488.657,-1481.98 2580.524,-2572.95 -176.029,-141.154 -361.397,-292.812 -555.452,-454.272 -301.881,-251.146 -598.686,-505.368 -891.415,-762.509 -842.042,-739.664 -1684.455,-1527.793 -2974.805,-2789.995 -1297.758,-1269.445 -3058.703,-3027.057 -5728.697,-5697.05 -1600.32,-1600.321 -722.546,-722.67 0.196,-0.196 l 0.506,-0.506 -1587.34,-1587.98 c -1228.729,1229.606 -2073.258,2076.24 -2626.059,2633.777 l -83.629,84.382 c 328.502,337.603 665.197,670.192 1004.059,1004.906 257.884,254.716 516.026,509.701 582.105,575.779 965.231,965.242 1894.39,1892.369 2695.407,2680.498 881.231,867.053 1752.814,1712.377 2617.959,2529.397 893.623,843.909 1770.159,1648.125 2628.566,2401.089 z m -3658.927,-2243.602 c -711.134,-677.94 -1432.886,-1379.901 -2164.781,-2100.023 -181.023,-178.114 -358.456,-353.101 -532.927,-525.499 -417.539,410.812 -763.479,747.465 -1070.623,1042.103 -347.611,333.455 -642.125,610.325 -929.035,875.164 -1653.346,1526.184 -3242.884,2860.118 -4795.596,3857.377 -1494.95,960.155 -2957.563,1609.081 -4411.664,1820.347 -28.891,502.902 4.85,1001.201 107.939,1495.467 156.807,751.757 474.578,1500.316 976.696,2248.482 2024.659,-552.181 4092.633,-1661.384 6222.869,-3166.467 2133.176,-1507.157 4325.537,-3409.472 6597.122,-5546.951 z m -3282.63,-3204.778 c -544.989,-540.852 -1066.134,-1061.109 -1583.997,-1578.983 -319.566,-319.566 -448.204,-446.636 -575.666,-572.539 -339.821,-335.674 -677.548,-669.252 -1005.627,-1005.989 -591.876,601.193 -989.707,1013.191 -1377.808,1422.754 -552.707,583.281 -1078.381,1153.571 -1568.344,1708.91 -460.7,522.165 -895.717,1036.747 -1299.574,1543.683 l 1364.971,1365.229 c 2129.286,2129.286 404.249,405.415 -0.784,0.785 l 788.872,788.779 568.629,568.309 c 885.874,-702.766 1790.228,-1495.332 2716.766,-2350.613 296.33,-273.526 588.131,-547.621 916.138,-862.266 306.514,-294.029 648.059,-626.338 1056.424,-1028.059 z m -6938.079,-7041.87 c -1572.626,-1610.01 -3005.213,-3202.354 -4251.349,-4774.712 -344.165,348.2 -628.598,637.874 -879.146,895.243 -306.225,314.562 -561.2,580.371 -813.977,847.129 -978.79,1032.919 -1886.394,2040.941 -2686.172,3027.036 309.093,382.642 629.413,762.705 959.701,1141.385 380.083,435.771 786.643,884.811 1214.645,1345.377 580.814,624.997 1187.683,1256.021 2240.052,2321.443 1248.53,-1566.497 2673.739,-3165.538 4216.246,-4802.901 z m -4760.751,-5430.18 c -314.696,-413.163 -616.02,-824.913 -903.033,-1235.209 -460.071,-657.685 -883.377,-1311.646 -1266.535,-1961.686 -4309.451,4498.162 -7813.6653,8696.135 -9277.6713,12703.89 -1455.1116,3983.395 -874.3794,7808.785 2992.6143,11611.239 759.63,746.949 1516.412,1369.284 2271.636,1876.034 593.393,398.151 1187.673,725.694 1783.387,987.055 -124.665,-520.153 -204.569,-1042.309 -242.437,-1566.745 -78.564,-1088.019 25.032,-2181.888 287.126,-3284.394 -153.041,-115.729 -305.06,-237.495 -456.078,-365.431 -221.295,-187.483 -444.118,-391.31 -668.509,-611.966 -2651.658,-2607.403 -3109.097,-5244.502 -2183.189,-7993.977 898.38,-2667.724 3116.878,-5409.966 5882.449,-8328.475 249.227,-263.012 505.523,-530.121 820.415,-853.588 266.428,-273.681 575.573,-588.326 959.825,-976.747 z m -229.127,-1705.989 c 1491.669,2132.391 3386.349,4314.971 5556.536,6538.287 854.311,-896.212 1733.416,-1796.15 2631.517,-2704.487 -397.789,-404.239 -726.106,-741.006 -1014.099,-1040.07 -344.361,-357.59 -629.661,-659.409 -903.889,-954.501 -1532.736,-1649.332 -2867.362,-3239.654 -3863.084,-4793.419 -958.834,-1496.199 -1605.201,-2961.123 -1816.22,-4415.048 -518.884,-29.603 -1033.074,7.388 -1543.219,118.392 -735.857,160.118 -1468.556,474.836 -2200.719,966.016 555.112,2037.577 1649.827,4135.733 3153.177,6284.83 z M 16759.13,23730.846 c -644.964,-1186.29 -1150.341,-2359.228 -1494.662,-3517.71 -269.771,223.617 -539.583,472.153 -809.57,746.722 -1296.654,1318.652 -2004.208,2622.406 -2240.507,3929.337 -204.054,1128.631 -58.659,2273.071 360.293,3442.181 1268.63,-1503.474 2679.91,-3034.94 4184.446,-4600.53 z m 3806.725,-5024.465 c 55.058,307.34 131.63,616.31 228.281,927.054 l 334.26,-334.693 0.165,0.165 355.598,-356.454 c -307.886,-98.849 -613.946,-178.011 -918.304,-236.072 z m 540.625,1779.054 c 287.89,685.163 665.136,1379.478 1117.013,2084.597 277.242,432.624 582.404,869.035 912.093,1309.635 l 445.429,-445.563 v -1.61 l 840.525,-840.608 c 2344.597,-2344.597 3847.503,-3845.491 5051.788,-5036.125 1088.638,-1076.297 1718.599,-1683.558 2337.199,-2260.41 476.022,-443.912 953.861,-877.392 1436.105,-1298.78 346.941,-303.15 688.455,-593.279 1024.16,-868.529 -1108.47,-850.627 -2189.524,-1551.608 -3247.393,-2048.968 -1447.879,1205.275 -2928.827,2556.554 -4445.322,4004.804 -1586.979,1515.577 -3206.461,3131.334 -4866.699,4796.236 v 1.61 c -1156.357,1156.264 648.801,-651.196 -377.143,375.677 z m 2536.063,4051.319 c 702.735,885.183 1496.064,1787.679 2353.749,2710.617 280.997,302.376 564.213,602.173 894.211,944.842 287.178,298.219 611.202,630.652 1000.273,1026.099 519.999,-523.538 1045.827,-1050.151 1576.433,-1580.757 l 0.805,0.805 c 310.569,-312.983 619.457,-623.408 926.683,-931.026 218.148,-218.428 435.348,-435.328 651.557,-650.567 -601.472,-592.154 -1013.594,-990.098 -1423.27,-1378.312 -585.252,-554.576 -1170.297,-1092.848 -1759.345,-1611.165 -510.981,-449.629 -1009.322,-870.511 -1493.486,-1256.527 l -2205.517,2205.352 -0.805,-0.805 z m 8113.669,8566.878 1587.536,1588.093 0.134,-0.134 c -731.214,-731.719 -2348.033,-2349.498 0.732,-0.733 569.589,569.589 1097.626,1097.481 1588.723,1588.052 271.02,-271.246 556.175,-556.143 856.261,-855.961 637.503,-636.915 -1204.997,1203.821 730.914,-732.091 569.651,-569.65 1097.584,-1097.738 1588.207,-1588.877 l -677.982,-678.291 -0.804,0.804 -909.421,-909.533 -1588.661,-1588.403 -1588.093,1587.546 c 255.779,-255.346 2367.576,-2365.863 0.856,0.857 z m 1587.536,1588.093 c 480.139,480.232 330.824,330.783 0.134,-0.134 z m -582.559,582.559 c 594.734,594.496 1082.87,1082.313 0.506,-0.506 z m 6059.335,4865.791 246.348,241.375 c 1306.013,1277.513 2137.211,2056.387 2939.332,2760.98 299.889,263.425 591.948,513.88 875.297,749.611 194.551,161.862 399.699,328.347 616.547,499.94 l 1361.917,-1361.67 c 3082.621,-3082.62 -1686.808,1689.233 836.326,-834.87 l 528.997,-529.296 c -723.898,-908.378 -1542.828,-1835.959 -2427.598,-2784.753 -262.723,-281.73 -526.241,-560.168 -827.998,-873.482 -285.61,-296.547 -607.416,-626.659 -995.774,-1021.312 -233.729,235.236 -468.893,471.369 -705.315,708.4 -752.366,754.358 -810.654,813.234 -870.686,873.265 l -922.792,920.379 c -215.177,214.62 -429.467,427.949 -654.601,651.433 z m 9582.948,7101.417 c 310.404,96.506 619.126,173.047 926.352,228.105 -58.102,-304.708 -137.398,-611.243 -236.401,-919.676 l -356.672,357.176 0.444,0.444 c 155.723,-155.455 369.662,-369.311 0.176,0.176 z m 1779.394,324.87 c 511.001,23.412 1018.195,-17.242 1522.386,-128.875 740.088,-163.864 1479.535,-481.192 2221.635,-973.311 -569.321,-1996.903 -1678.09,-4039.711 -3169.15,-6142.51 -1517.62,-2140.275 -3430.79,-4341.954 -5575.078,-6619.699 -150.73,157.993 -303.543,317.482 -458.307,478.354 -338.954,352.369 -684.667,708.555 -1036.128,1068.177 -253.385,259.277 -511.6,522.187 -773.859,788.202 -119.196,120.899 -239.507,242.716 -360.829,365.348 397.706,404.094 723.743,738.478 1009.455,1035.138 316.843,328.977 582.414,609.417 837.678,883.14 1514.287,1623.857 2844.382,3195.121 3854.87,4733.191 558.331,849.843 1018.226,1688.882 1356.933,2520.07 28.345,44.316 47.382,92.884 57.06,142.907 242.686,620.509 416.971,1236.705 513.334,1849.868 z m 4449.253,-1622.433 c 260.484,-211.741 521.423,-445.645 782.949,-702.807 1337.453,-1315.134 2057.461,-2625.935 2287.073,-3947.59 195.727,-1126.599 38.456,-2272.741 -393.673,-3445.328 -1270.775,1510.655 -2688.225,3050.397 -4202.935,4626.975 654.466,1168.326 1172.123,2323.506 1526.586,3468.75 z m -248.68,-12843.816 c -312.221,-384.871 -646.594,-779.472 -999.871,-1182.854 -389.947,-445.253 -807.238,-904.375 -1246.424,-1375.32 -303.275,-325.232 -608.891,-647.42 -975.468,-1026.306 -332.898,-344.093 -717.346,-736.62 -1195.195,-1220.278 -620.55,780.648 -1271.787,1554.445 -1949.366,2325.374 -710.763,808.704 -1469.908,1636.888 -2266.921,2482.727 1540.289,1634.918 2964.734,3233.278 4215.235,4802.19 773.487,-785.209 1385.061,-1415.077 1904.245,-1962.698 567.432,-598.511 1017.689,-1091.331 1441.863,-1574.226 375.202,-427.134 733.401,-849.894 1071.902,-1268.609 z m -8160.432,-8562.853 -576.068,-576.296 -0.805,0.805 -1532.695,-1532.726 0.805,-0.804 -618.342,-618.147 c -908.419,723.919 -1836.031,1542.89 -2784.856,2427.69 -301.686,281.338 -600.771,564.698 -944.936,896.874 -277.603,267.944 -585.984,568.814 -949.187,926.228 523.61,520.072 1050.306,1045.983 1580.994,1576.671 62.271,62.271 121.333,121.942 860.615,863.205 238.311,238.94 475.404,477.034 711.104,714.292 l 241.468,-246.452 c 1277.513,-1306.012 2056.387,-2137.21 2760.98,-2939.331 442.044,-503.231 860.511,-1000.406 1250.923,-1492.009 z m -6478.431,-6465.813 c -379.795,-375.574 -690.653,-680.767 -965.366,-948 -301.077,-292.873 -558.342,-539.552 -816.773,-784.446 -1033.745,-979.584 -2042.561,-1887.828 -3029.42,-2688.102 -383.075,310.322 -764.294,632.396 -1144.676,964.768 -459.173,401.225 -932.069,830.692 -1416.749,1282.662 -605.95,565.069 -1217.11,1153.592 -2244.613,2168.723 1567.488,1249.324 3167.613,2675.534 4806.09,4219.207 1640.056,-1538.163 3241.027,-2962.99 4811.507,-4214.812 z m -9574.497,-7350.19 c -76.717,-28.117 -153.309,-55.13 -229.788,-80.885 -2444.643,-823.2622 -4799.919,-405.806 -7145.94,1980.033 -202.95,206.385 -392.837,414.185 -570.053,623.357 -45.349,53.52 -89.645,106.897 -132.94,160.118 1142.592,353.947 2295.286,870.201 3461.208,1522.748 153.03,-147.365 305.699,-293.812 458.006,-439.269 1410.032,-1346.574 2794.577,-2613.893 4159.507,-3766.102 z m 3990.978,47769.395 c -1077.113,-713.064 -2166.256,-1529.393 -3270.506,-2429.289 -1445.196,594.084 -2867.186,824.759 -4283.656,576.295 -1479.988,-259.628 -2939.3,-1039.245 -4394.566,-2470.222 -1398.671,-1375.331 -2185.768,-2765.922 -2481.304,-4182.805 -281.172,-1348.049 -115.812,-2704.559 392.703,-4082.408 -940.303,-943.543 -1863.56,-1876.716 -2766.604,-2807.866 -1297.108,2377.099 -1987.379,4682.074 -1824.546,6937.367 172.521,2389.45 1308.726,4745.253 3704.626,7101.159 2535.072,2492.777 5046.525,3600.535 7584.208,3663.27 2388.821,59.062 4824.002,-802.946 7339.645,-2305.501 z m -3996.055,-3030.503 c -1508.529,-1270.178 -3046.156,-2686.555 -4620.516,-4199.552 -1177.88,652.094 -2343.771,1164.333 -3501.892,1510.191 223.689,269.822 472.256,539.707 746.918,809.787 1327.371,1305.218 2641.051,2013.278 3959.26,2244.52 1121.718,196.759 2257.459,50.446 3416.23,-364.946 z m -8087.512,-8768.476 235.948,235.659 c 684.389,-288.716 1377.869,-666.921 2082.451,-1119.449 432.139,-277.551 868.271,-582.992 1308.83,-912.784 l -1282.488,-1281.858 -0.454,0.454 c 548.818,549.148 1379.882,1380.356 -0.237,0.238 -2364.264,-2364.264 -3880.077,-3882.162 -5076.882,-5093.412 -1088.225,-1101.361 -1705.752,-1743.043 -2290.808,-2372.622 -420.035,-451.98 -830.702,-906.077 -1230.762,-1364.734 -302.077,-346.342 -590.596,-686.721 -863.7,-1020.692 -846.767,1103.239 -1545.303,2179.33 -2042.499,3232.442 1219.969,1471.022 2582.846,2967.737 4042.363,4498.265 1470.104,1541.62 3082.704,3161.504 4752.126,4830.915 1126.753,1126.847 -634.604,-632.21 366.112,367.578 z m -615.133,548.921 -333.961,-333.517 -0.382,0.382 c 173.388,173.759 482.379,482.935 -0.258,0.258 l -355.619,-355.764 c -98.838,307.691 -178.02,613.503 -236.143,917.562 307.185,-55.182 615.907,-131.971 926.363,-228.921 z m -333.961,-333.517 c -152.246,-151.936 -97.766,-97.198 -0.382,0.382 z m -4368.42,-4431.362 c -132.879,-138.336 -265.303,-276.673 -397.243,-415.031 -1368.366,-1434.939 -2650.162,-2837.263 -3806.064,-4210.984 -30.212,81.968 -59.145,163.792 -86.653,245.482 -823.253,2444.632 -405.797,4799.919 1980.043,7145.94 206.385,202.95 414.185,392.837 623.356,570.053 53.501,45.328 106.856,89.614 160.068,132.899 354.586,-1145.038 872.119,-2300.115 1526.493,-3468.359 z M 7241.8585,24907.633 c -81.4007,2412.605 780.1635,4871.456 2295.5234,7411.914 716.3241,-1074.368 1534.3861,-2160.994 2434.3031,-3262.292 -596.632,-1453.492 -824.852,-2885.037 -566.637,-4313.156 265.757,-1469.887 1043.991,-2918.354 2462.989,-4361.424 1358.254,-1381.315 2730.902,-2166.277 4128.623,-2470.438 1364.384,-296.898 2738.559,-133.849 4135.548,381.703 947.711,-947.072 1881.885,-1873.889 2803.058,-2769.802 -2402.452,-1309.955 -4731.706,-1999.761 -7011.195,-1814.858 -2362.096,191.61 -4691.711,1328.94 -7021.481,3698.27 -2465.4749,2507.316 -3576.0702,4991.24 -3660.7315,7500.083 z M 34439.98,22953.149 c -1671.073,-1576.764 -3302.915,-3031.948 -4902.741,-4301.826 -640.299,635.852 -1481.629,1475.17 -2581.638,2574.333 487.455,390.113 971.062,798.499 1452.965,1222.538 576.595,507.359 1171.525,1055.341 1781.922,1633.741 544.185,515.676 1097.182,1053.01 2105.812,2053.086 1166.005,1156.099 2579.389,2567.884 4807.834,4796.318 l 909.42,909.534 v 1.61 l 676.764,677.073 c 1078.64,-1080.62 1961.501,-1967.939 2701.846,-2717.911 -237.722,-239.301 -476.869,-479.469 -717.253,-720.483 -168.858,-169.312 -221.45,-220.841 -860.615,-859.985 -608.034,-608.045 -1210.187,-1209.218 -1805.726,-1800.01 -28.509,-17.324 -55.357,-38.425 -79.822,-63.292 -21.926,-22.298 -40.778,-46.463 -56.596,-71.97 -1171.906,-1161.392 -2317.872,-2281.356 -3432.172,-3332.756 z m 1091.796,-99.385 c 894.861,853.082 1793.457,1730.887 2700.442,2627.647 371.52,-365.658 684.256,-670.852 963.168,-940.055 358.921,-346.415 660.028,-631.859 954.594,-906.552 1623.856,-1514.287 3195.121,-2844.382 4733.191,-3854.87 1533.262,-1007.32 3031.36,-1694.258 4511.627,-1927.131 54.47,-1255.37 -279.336,-2498.38 -1102.598,-3743.742 -2013.196,574.448 -4071.172,1700.088 -6191.749,3211.898 -2121.527,1512.481 -4305.262,3411.526 -6568.675,5532.805 z m 14945.469,15705.213 c 331.33,430.612 648.812,859.047 951.179,1285.469 449.989,634.604 866.589,1264.802 1245.826,1891.069 4269.169,-4456.745 7726.869,-8601.341 9195.012,-12577.42 1476.976,-3999.986 920.1,-7858.767 -2906.725,-11750.545 -791.101,-804.535 -1581.387,-1466.782 -2372.095,-1997.821 -591.329,-397.14 -1183.804,-721.36 -1777.888,-977.345 139.875,549.952 230.489,1101.319 274.775,1654.522 86.674,1082.839 -4.694,2168.681 -251.538,3261.013 185.914,142.619 365.38,290.067 538.231,442.447 202.64,178.65 410.285,375.904 623.068,592.309 2329.564,2369.103 2933.986,4736.916 2376.883,7178.123 -543.638,2382.228 -2205.528,4802.045 -4443.341,7349.633 -439.939,500.827 -897.812,1002.357 -1464.439,1600.021 -534.486,563.748 -1171.989,1219.825 -1988.948,2048.525 z m -1701.893,7144.661 c -309.362,-721.618 -717.397,-1454.039 -1206.617,-2198.697 -256.718,-390.752 -535.992,-785.003 -835.232,-1182.926 l -1290.577,1291.257 0.361,0.361 c 485.836,-485.443 1442.297,-1441.697 0.3,0.3 -2364.264,2364.263 -3882.162,3880.077 -5093.412,5076.882 -1101.361,1088.235 -1743.053,1705.752 -2372.622,2290.808 -451.764,419.829 -905.643,830.31 -1364.094,1230.194 -345.393,301.262 -684.843,589.038 -1017.937,861.492 1107.427,846.572 2187.058,1541.682 3244.731,2032.253 1479.431,-1227.811 2984.937,-2600.057 4524.793,-4069.624 1527.711,-1458.001 3133.779,-3056.897 4788.703,-4711.843 1026.254,-1026.254 -636.595,639.123 411.152,-409.727 z M 34349.675,29344.701 c -1229.617,-1228.729 -2076.24,-2073.258 -2633.777,-2626.059 l -84.114,-83.371 c -217.2,216.209 -434.997,433.717 -653.466,652.465 -307.494,307.886 -616.65,618.579 -927.487,931.831 v 1.61 c -1852.055,1852.044 -3640.488,3649.536 -5265.252,5371.375 -1577.776,1672.063 -3033.878,3304.824 -4304.468,4905.516 642.528,647.131 1482.496,1489.183 2574.457,2582.041 399.059,-498.186 823.19,-999.106 1268.32,-1503.638 509.526,-577.503 1040.111,-1153.612 1587.701,-1731.486 515.676,-544.185 1053.01,-1097.182 2053.086,-2105.812 1156.099,-1166.005 2567.884,-2579.389 4796.318,-4807.834 1388.095,-1388.094 556.825,-556.69 0.227,0.227 l 0.444,0.444 z m -9345.339,13686.426 c -95.031,-95.001 -117.288,-117.206 0,0 z m -582.105,582.114 c -602.225,-601.853 -362.996,-362.315 -0.454,0.454 z M 21128.396,19298.742 c 156.012,-156.322 99.798,-100.355 -0.382,-0.382 z m -0.382,-0.382 c -178.33,177.97 -495.606,495.05 -0.258,-0.258 z m 27608.737,27608.737 c -195.283,195.686 -112.871,113.574 0.444,0.444 z M 33343.779,31514.125 c -34.051,34.019 -30.759,30.759 0,0 z m -582.559,-582.559 c -372.499,372.706 -620.818,621.314 0.444,0.444 z m 12681.706,12681.706 c -371.209,371.509 -246.338,246.865 0.361,0.361 z"
     id="path6"
     style="stroke:#130401;stroke-width:802.045;stroke-miterlimit:2;stroke-dasharray:none;stroke-opacity:1" /></g></svg>
