<?xml version="1.0" encoding="UTF-8" standalone="no"?>
<svg
   xmlns:dc="http://purl.org/dc/elements/1.1/"
   xmlns:cc="http://creativecommons.org/ns#"
   xmlns:rdf="http://www.w3.org/1999/02/22-rdf-syntax-ns#"
   xmlns:svg="http://www.w3.org/2000/svg"
   xmlns="http://www.w3.org/2000/svg"
   xmlns:sodipodi="http://sodipodi.sourceforge.net/DTD/sodipodi-0.dtd"
   xmlns:inkscape="http://www.inkscape.org/namespaces/inkscape"
   width="100%"
   height="100%"
   viewBox="0 0 100 100"
   version="1.1"
   xml:space="preserve"
   style="fill-rule:evenodd;clip-rule:evenodd;stroke-linejoin:round;stroke-miterlimit:2;"
   id="svg16"
   sodipodi:docname="wood.svg"
   inkscape:version="1.0.1 (3bc2e813f5, 2020-09-07)"><metadata
   id="metadata22"><rdf:RDF><cc:Work
       rdf:about=""><dc:format>image/svg+xml</dc:format><dc:type
         rdf:resource="http://purl.org/dc/dcmitype/StillImage" /><dc:title></dc:title></cc:Work></rdf:RDF></metadata><defs
   id="defs20" /><sodipodi:namedview
   pagecolor="#ffffff"
   bordercolor="#666666"
   borderopacity="1"
   objecttolerance="10"
   gridtolerance="10"
   guidetolerance="10"
   inkscape:pageopacity="0"
   inkscape:pageshadow="2"
   inkscape:window-width="1735"
   inkscape:window-height="844"
   id="namedview18"
   showgrid="false"
   inkscape:zoom="1.9275"
   inkscape:cx="-139.31803"
   inkscape:cy="-24.763114"
   inkscape:window-x="0"
   inkscape:window-y="0"
   inkscape:window-maximized="0"
   inkscape:current-layer="svg16" />
    
<path
   id="path909"
   style="fill:#000000;fill-opacity:1;stroke-width:1.4958"
   d="m 76.77349,17.116459 v 3.241557 a 10.470613,10.470613 0 0 1 5.954598,5.815733 H 85.99866 A 13.462217,13.462217 0 0 0 82.626529,20.550767 13.372468,13.372468 0 0 0 76.77349,17.116459 Z" /><path
   d="m 85.461568,24.912164 a 1.4958209,1.4958209 0 1 0 -2.632612,1.421012 15.257178,15.257178 0 1 1 -6.177661,-6.177661 1.4958206,1.4958206 0 1 0 1.421011,-2.632611 18.368446,18.368446 0 0 0 -21.569462,3.156142 v 0 L 44.835589,32.346299 a 1.4958019,1.4958019 0 0 0 2.109081,2.109082 l 4.60707,-4.607069 c 0,0 0,0 0,0.104705 a 18.398363,18.398363 0 0 0 -0.314118,1.944543 c 0,0.164538 0,0.314118 0,0.478656 0,0.523531 0,1.032103 0,1.495802 0,0.224371 0,0.448741 0,0.67311 q 0,0.703027 0.134622,1.406055 c 0,0.22437 0,0.433782 0.08974,0.658152 0.08974,0.553448 0.224371,1.106893 0.373951,1.660341 0,0.104705 0,0.22437 0.07479,0.329075 a 18.203909,18.203909 0 0 0 0.688069,1.914627 c 0,0.179496 0.164538,0.344035 0.239327,0.523531 0.209413,0.463698 0.433783,0.912439 0.673112,1.346222 l 0.358992,0.613278 c 0.254287,0.418824 0.538489,0.822691 0.822691,1.226557 l 0.388909,0.523532 a 16.767939,16.767939 0 0 0 2.991603,2.991603 l 0.538489,0.388909 c 0.403867,0.284203 0.792775,0.568404 1.2116,0.822691 l 0.628236,0.373951 c 0.433783,0.239327 0.867565,0.463698 1.301348,0.658152 l 0.568406,0.254286 a 18.173992,18.173992 0 0 0 1.88471,0.673111 L 64.64,51.013907 c 0.508573,0.134622 1.017145,0.254286 1.495801,0.344035 l 0.732944,0.104706 q 0.643195,0.08974 1.301346,0.134622 h 0.76286 0.37395 c 0.358993,0 0.717985,0 1.062019,0 h 0.568406 a 18.368446,18.368446 0 0 0 1.974457,-0.284202 h 0.104707 l -7.598673,7.598673 v 0 l -6.895647,6.895646 v 0 l -7.47901,7.479009 a 1.5515477,1.5515477 0 1 0 2.079165,2.303535 l 7.0901,-7.0901 h 9.962041 a 4.2480772,4.2480772 0 0 0 1.391096,-8.256826 L 69.321866,59.465188 82.305427,46.481627 A 18.383405,18.383405 0 0 0 85.461568,24.912164 Z M 70.50355,63.07007 a 1.2564736,1.2564736 0 0 1 -0.403868,2.438157 h -6.820855 l 3.679672,-3.694631 z"
   id="path6"
   style="stroke-width:1.4958" /><path
   d="m 69.396656,20.125598 a 13.462217,13.462217 0 1 0 9.5133,3.933959 13.372468,13.372468 0 0 0 -9.5133,-3.933959 z m 7.404219,20.851479 a 10.470613,10.470613 0 1 1 2.991604,-7.40422 10.470613,10.470613 0 0 1 -2.991604,7.40422 z"
   id="path8"
   style="stroke-width:1.4958" /><path
   d="m 75.050786,33.288655 a 5.6391729,5.6391729 0 0 1 -5.983206,5.983207 5.6691187,5.6691187 0 1 1 0.583362,-11.323219 1.4980627,1.4980627 0 0 0 0.164538,-2.991604 8.7504408,8.7504408 0 0 0 -6.56657,2.453115 8.6606927,8.6606927 0 0 0 5.669089,14.778522 h 0.523531 a 8.6307767,8.6307767 0 0 0 8.600861,-9.109432 1.4980632,1.4980632 0 1 0 -2.991605,0.164537 z"
   id="path12"
   style="stroke-width:1.4958" /><path
   d="m 20.214691,81.259021 v 0 0 l 0.688069,0.717983 c 2.876579,2.934374 6.672881,4.792925 10.754815,5.265224 h 0.179497 c 0.685268,0.07871 1.374434,0.11866 2.064206,0.119664 6.694211,0.517793 15.410719,-8.206702 18.776524,-11.389253 1.454634,-1.366206 -0.594614,-3.550077 -2.049248,-2.183871 C 48.173668,76.104447 39.0889,85.33909 35.337248,84.280541 l 4.487405,-4.487406 c 1.200778,-1.402164 -0.706916,-3.309858 -2.10908,-2.109081 l -6.387074,6.387073 C 28.370677,83.593505 25.62445,82.23863 23.445623,80.182043 L 38.762634,64.909906 c 1.111294,-1.388943 -0.697304,-3.210459 -2.094123,-2.10908 L 21.456207,77.998172 C 18.016716,73.135054 17.701843,66.72097 20.648473,61.544352 l 0.508574,5.609257 c 0.06985,0.773126 0.719533,1.36433 1.495801,1.36118 h 0.134622 c 0.827795,-0.07112 1.439006,-0.803232 1.36118,-1.630425 l -0.942356,-9.558173 v 0 l -0.643194,-7.239682 0.493614,0.119665 h 0.164539 c 0.26679,0.04665 0.536912,0.07166 0.807732,0.07479 h 0.299162 0.568404 0.284203 c 0.264899,-0.05369 0.52502,-0.128725 0.777816,-0.22437 l 0.224371,-0.104706 c 0.195726,-0.08734 0.385591,-0.187279 0.568405,-0.299161 l 0.22437,-0.134621 c 0.251038,-0.167832 0.486344,-0.358079 0.703026,-0.568405 l 0.08974,-0.08975 0.553446,1.28639 v 0 l 2.991604,7.254639 c 0.766975,1.846924 3.534208,0.695157 2.767233,-1.151768 v 0 L 48.859296,41.470689 c 0.875542,-1.336517 -0.67296,-2.930565 -2.03429,-2.094122 L 32.914049,53.287523 31.507995,49.84718 46.505819,34.849356 C 47.706596,33.447195 45.798901,31.5395 44.396737,32.740279 L 30.251521,46.855577 28.98009,43.863974 v 0 C 28.854492,43.42161 28.66824,42.99877 28.426643,42.6075 v 0 -0.07479 c -0.178567,-0.269429 -0.384049,-0.520015 -0.613278,-0.747901 -2.82893,-2.842133 -7.684234,-1.375249 -8.466239,2.557821 -0.05746,0.315725 -0.08253,0.636495 -0.07479,0.957313 l 0.07479,0.897482 v 0 l 0.867565,10.784731 c -6.123002,6.934051 -6.123002,17.342813 0,24.276864 z M 22.189149,44.95591 c 0.08365,-0.384909 0.275697,-0.737846 0.553447,-1.017146 0.788738,-0.789408 2.068245,-0.789408 2.856982,0 0.09005,0.09105 0.170269,0.19132 0.239327,0.299161 v 0 c 0.109736,0.175411 0.190544,0.36733 0.239329,0.568404 v 0 c 0.0049,0.08469 0.0049,0.169596 0,0.254287 0.0474,0.09655 0.08741,0.196554 0.119665,0.299159 0.01301,0.134308 0.01301,0.26956 0,0.403868 v 0.104705 c -0.03323,0.09257 -0.07322,0.182554 -0.119665,0.269246 -0.09222,0.221405 -0.224008,0.424156 -0.388909,0.59832 -0.146737,0.134294 -0.313214,0.245277 -0.493614,0.329077 -0.768574,0.4592 -1.744801,0.374834 -2.4232,-0.209414 l -0.08974,-0.104706 c -0.154782,-0.147722 -0.268228,-0.333362 -0.329076,-0.538488 -0.04917,-0.100928 -0.08921,-0.206057 -0.119664,-0.314118 v -0.628237 c -0.01908,-0.09859 -0.02909,-0.198737 -0.02991,-0.299161 z"
   id="path14"
   style="stroke-width:1.4958"
   sodipodi:nodetypes="ccccccccccccccccccccccccccccccccccccccccscccccccccssccccccccsccccsssscccccccccccccc" /><path
   d="M 52.374431,67.318147 64.744712,54.947866 A 1.4966429,1.4966429 0 0 0 62.620674,52.838785 L 50.250393,65.209067 a 1.4958019,1.4958019 0 1 0 2.109079,2.10908 z"
   id="path20"
   style="stroke-width:1.4958" /><path
   d="m 29.099754,81.064566 a 1.4958019,1.4958019 0 0 0 2.109081,0 L 53.750568,58.53779 A 1.501922,1.501922 0 1 0 51.62653,56.413752 L 29.099754,78.940528 a 1.4958019,1.4958019 0 0 0 0,2.124038 z"
   id="path22"
   style="stroke-width:1.4958" /><path
   d="m 45.568533,58.104007 6.267409,-6.267408 a 1.4958019,1.4958019 0 0 0 -2.109081,-2.109082 l -6.267409,6.267411 a 1.4958019,1.4958019 0 1 0 2.109081,2.109079 z"
   id="path24"
   style="stroke-width:1.4958" /><path
   d="m 27.798407,64.311586 -6.656318,6.656317 a 1.4958019,1.4958019 0 1 0 2.064205,2.124039 l 6.656319,-6.656318 a 1.4958019,1.4958019 0 0 0 -2.10908,-2.10908 z"
   id="path26"
   style="stroke-width:1.4958" /></svg>
