<svg height='100px' width='100px' fill="#000000" xmlns="http://www.w3.org/2000/svg" xmlns:xlink="http://www.w3.org/1999/xlink" version="1.1" x="0px" y="0px" viewBox="0 0 12 12" enable-background="new 0 0 12 12" xml:space="preserve">
<g>
  <g>
    <g>
      <path fill="#000000" d="M5.90332,6.5c-0.276367,0-0.5-0.223633-0.5-0.5V3.25c0-0.276367,0.223633-0.5,0.5-0.5 s0.5,0.223633,0.5,0.5V6C6.40332,6.276367,6.179688,6.5,5.90332,6.5z"></path>
    </g>
    <g>
      <circle fill="#000000" cx="5.903644" cy="8.160567" r="0.589286"></circle>
    </g>
  </g>
  <g>
    <path fill="#000000" d="M6,12.000153c-3.308594,0-6-2.691406-6-6s2.691406-6,6-6s6,2.691406,6,6S9.308594,12.000153,6,12.000153z M6,1.000153c-2.756836,0-5,2.243164-5,5s2.243164,5,5,5s5-2.243164,5-5S8.756836,1.000153,6,1.000153z"></path>
  </g>
</g>
</svg>
