<?xml version="1.0" encoding="UTF-8" standalone="no"?>
<!DOCTYPE svg PUBLIC "-//W3C//DTD SVG 1.1//EN" "http://www.w3.org/Graphics/SVG/1.1/DTD/svg11.dtd">
<svg width="100%" height="100%" viewBox="0 0 512 512" version="1.1" xmlns="http://www.w3.org/2000/svg" xmlns:xlink="http://www.w3.org/1999/xlink" xml:space="preserve" xmlns:serif="http://www.serif.com/" style="fill-rule:evenodd;clip-rule:evenodd;stroke-linejoin:round;stroke-miterlimit:2;">
    <g id="Layer-1" serif:id="Layer 1" transform="matrix(1.06707,0,0,1.06707,-17.6611,-17.1551)">
        <path id="path4606" d="M39.242,29.225C33.724,29.225 29.225,33.687 29.225,39.183L29.225,472.817C29.225,478.313 33.724,482.768 39.242,482.768L472.758,482.768C478.276,482.768 482.768,478.313 482.768,472.817L482.768,39.183C482.768,33.687 478.276,29.225 472.758,29.225L39.242,29.225ZM39.242,32.074L472.758,32.074C476.758,32.074 479.926,35.227 479.926,39.183L479.926,472.817C479.926,476.774 476.758,479.926 472.758,479.926L39.242,479.926C35.243,479.926 32.074,476.774 32.074,472.817L32.074,39.183C32.074,35.227 35.243,32.074 39.242,32.074Z" style="fill:rgb(249,204,157);fill-rule:nonzero;"/>
        <path id="path2584" d="M350.947,28.123C350.986,28.123 351.042,27.94 351.072,27.716C351.102,27.492 351.161,27.308 351.205,27.308C351.248,27.308 351.283,27.222 351.283,27.116C351.283,27.01 351.356,26.83 351.446,26.716C351.536,26.602 351.609,26.469 351.609,26.42C351.609,26.371 351.647,26.331 351.693,26.331C351.739,26.331 351.799,26.267 351.826,26.189C351.886,26.017 352.591,25.272 352.693,25.272C352.733,25.272 352.9,25.172 353.063,25.048C353.471,24.741 353.645,24.651 353.973,24.581C354.129,24.547 354.301,24.484 354.356,24.44C354.412,24.395 354.511,24.379 354.578,24.406C354.644,24.432 354.72,24.417 354.746,24.375C354.807,24.278 356.307,24.271 356.366,24.368C356.389,24.406 356.502,24.421 356.615,24.398C356.728,24.375 356.821,24.396 356.821,24.44C356.821,24.485 356.986,24.547 357.188,24.577C357.389,24.607 357.554,24.662 357.554,24.699C357.554,24.737 357.619,24.789 357.697,24.818C357.974,24.92 358.287,25.12 358.287,25.196C358.287,25.239 358.338,25.273 358.401,25.273C358.533,25.273 359.361,26.146 359.541,26.474C359.692,26.751 359.836,27.054 359.916,27.269C360.145,27.879 360.146,27.88 360.459,27.88C360.625,27.88 360.965,27.918 361.214,27.961C361.463,28.006 362.125,28.101 362.685,28.173C363.754,28.309 364.866,28.462 366.228,28.662C366.676,28.727 367.409,28.833 367.857,28.897C368.305,28.961 369.029,29.07 369.465,29.139C369.902,29.208 370.599,29.318 371.013,29.383C371.427,29.448 372.114,29.56 372.54,29.631C372.966,29.703 373.662,29.818 374.087,29.887C374.513,29.956 375.154,30.063 375.513,30.124C375.871,30.186 376.61,30.307 377.154,30.393C377.699,30.48 378.207,30.586 378.283,30.628C378.447,30.72 378.486,30.715 374.291,31.171C373.664,31.239 372.638,31.351 372.011,31.42C371.383,31.488 370.423,31.592 369.875,31.65C369.328,31.708 368.854,31.783 368.821,31.815C368.749,31.887 369.109,32.261 373.558,36.72C377.545,40.716 379.926,42.951 382.802,45.399C383.574,46.056 384.525,46.836 384.877,47.1C385.027,47.212 385.546,47.617 386.032,47.999C386.804,48.607 387.799,49.342 388.94,50.148C392.694,52.798 397.175,55.238 401.249,56.85C403.296,57.659 406.692,58.724 408.172,59.02C408.307,59.046 408.765,59.144 409.19,59.237C410.6,59.544 412.179,59.778 414.199,59.979C415.371,60.096 419.49,60.096 420.633,59.978C424.554,59.576 427.315,58.981 431.058,57.731C432.477,57.258 434.054,56.652 435.293,56.105C435.562,55.987 435.89,55.845 436.023,55.791C436.717,55.507 440.38,53.652 441.727,52.902C445.335,50.894 450.547,47.509 454.535,44.583C454.815,44.377 455.438,43.925 455.919,43.578C456.401,43.232 459.159,41.223 462.048,39.115C467.751,34.954 467.982,34.791 468.393,34.652C469.439,34.297 471.017,35.03 471.783,36.227C472.083,36.697 472.31,37.41 472.31,37.884C472.31,39.032 471.519,40.709 470.287,42.173C470.061,42.442 469.905,42.672 469.94,42.684C470.128,42.752 472.697,40.967 473.659,40.101C474.953,38.936 475.809,37.582 476.095,36.247C476.221,35.664 476.221,35.566 476.103,34.984C475.792,33.475 474.737,32.108 473.371,31.442C472.876,31.201 472.783,31.184 471.946,31.181C471.155,31.179 471.007,31.2 470.683,31.372C470.316,31.566 466.892,33.86 463.923,35.901C459.705,38.8 455.612,41.495 453.127,43.008C449.737,45.073 447.08,46.499 443.608,48.116C441.293,49.194 437.606,50.557 435.458,51.128C435.234,51.188 434.758,51.316 434.4,51.412C433.726,51.594 433.492,51.65 432.526,51.863C424.708,53.584 416.117,53.417 408.011,51.387C407.743,51.319 407.358,51.223 407.156,51.173C405.429,50.745 401.813,49.537 400.437,48.928C400.302,48.869 399.973,48.731 399.704,48.623C398.191,48.012 395.183,46.501 393.596,45.554C389.763,43.268 387.05,41.175 384.101,38.228C381.575,35.705 380.625,34.493 380.007,33.01C379.53,31.866 379.515,30.764 379.962,29.768C380.628,28.286 381.917,27.551 383.548,27.722C385.936,27.973 386.973,28.145 388.424,28.533C388.939,28.671 389.507,28.819 389.686,28.862C389.865,28.906 390.085,28.975 390.175,29.016C390.264,29.057 390.612,29.184 390.948,29.297C393.461,30.145 397.166,31.908 400.722,33.949C401.864,34.604 403,35.254 403.247,35.392C403.493,35.529 403.823,35.723 403.98,35.821C404.517,36.157 407.522,37.871 408.907,38.631C410.335,39.415 413.863,41.155 414.024,41.155C414.047,41.155 414.299,41.26 414.582,41.389C415.145,41.645 416.605,42.195 417.377,42.442C418.458,42.788 418.717,42.864 419.617,43.098C422.573,43.865 425.306,44.013 427.247,43.509C428.165,43.271 429.177,42.759 429.703,42.265C430.109,41.884 430.612,41.217 430.612,41.059C430.612,40.891 428.314,39.531 426.988,38.915C425.93,38.422 424.12,37.753 423.221,37.522C422.985,37.461 422.582,37.355 422.325,37.287C420.235,36.731 417.855,36.479 415.3,36.544C412.976,36.603 412.694,36.668 413.529,36.951C413.764,37.031 414.03,37.13 414.12,37.17C414.583,37.38 418.213,38.521 419.413,38.834C421.28,39.321 421.896,39.473 422.712,39.651C423.227,39.763 423.887,39.907 424.178,39.971C424.662,40.079 425.34,40.214 425.909,40.318C426.032,40.34 426.133,40.401 426.133,40.452C426.133,40.588 425.21,41.188 424.504,41.511C423.335,42.045 422.681,42.173 421.124,42.173C420.01,42.173 419.628,42.143 419.169,42.016C418.602,41.861 417.744,41.522 417.744,41.454C417.744,41.384 419.501,40.871 420.533,40.639C420.746,40.592 420.92,40.523 420.92,40.487C420.92,40.453 420.471,40.419 419.923,40.416C418.944,40.408 418.603,40.375 417.622,40.18C415.256,39.71 412.626,38.283 411.06,36.621C410.532,36.061 410.17,35.622 410.17,35.542C410.17,35.463 410.663,35.323 411.351,35.209C416.4,34.368 421.449,34.835 425.999,36.562C427.092,36.977 427.129,36.994 428.332,37.581C430.275,38.529 431.887,39.582 432.915,40.574C433.653,41.288 433.987,41.776 434.25,42.526C435.047,44.803 433.104,47.336 429.961,48.119C429.423,48.252 426.983,48.314 426.632,48.203C426.543,48.176 426.184,48.103 425.834,48.043C423.982,47.728 419.054,46.039 415.789,44.6C415.543,44.492 415.268,44.371 415.178,44.332C415.089,44.294 414.704,44.118 414.323,43.943C413.943,43.767 413.393,43.517 413.102,43.387C410.5,42.224 406.22,39.854 403.084,37.84C400.614,36.255 398.253,34.879 396.564,34.043C394.798,33.168 394.74,33.141 393.84,32.799C392.99,32.477 392.203,32.232 391.519,32.079C391.183,32.003 390.775,31.907 390.613,31.865C390.451,31.822 389.834,31.747 389.242,31.698C387.533,31.555 386.037,31.732 384.514,32.262L384.066,32.418L384.082,32.856C384.112,33.779 384.647,35.221 385.382,36.36C386.776,38.522 389.052,40.607 392.575,42.951C393.692,43.694 395.384,44.738 395.473,44.738C395.496,44.738 395.666,44.834 395.853,44.952C396.215,45.18 398.676,46.424 399.623,46.856C399.937,47 400.743,47.335 401.415,47.601C402.087,47.867 402.71,48.118 402.8,48.159C403.135,48.313 405.545,49.12 406.424,49.372C406.76,49.468 407.145,49.581 407.279,49.621C407.562,49.706 409.618,50.201 410.455,50.385C412.576,50.851 415.663,51.261 418.175,51.411C420.877,51.572 425.202,51.486 423.35,51.308C422.127,51.191 419.561,50.81 418.274,50.555C416.24,50.153 415.832,50.062 414.12,49.626C412.885,49.312 411.926,49.045 411.474,48.891C411.362,48.853 410.995,48.744 410.659,48.649C410.323,48.554 409.992,48.445 409.923,48.409C409.855,48.371 409.673,48.314 409.519,48.281C409.365,48.247 409.183,48.189 409.114,48.152C409.046,48.114 408.641,47.969 408.216,47.827C407.79,47.685 407.332,47.524 407.198,47.468C407.063,47.413 406.642,47.247 406.261,47.098C404.658,46.473 402.608,45.567 400.99,44.768C396.179,42.393 393.13,39.901 391.584,37.082C391.374,36.698 390.954,35.643 390.79,35.086C390.69,34.748 390.543,33.484 390.596,33.422C390.645,33.365 392.243,33.558 392.822,33.69C393.829,33.92 394.088,33.993 394.818,34.245C397.446,35.153 399.502,36.477 401.507,38.553C402.398,39.476 403.611,41.225 403.463,41.373C403.429,41.407 402.99,41.435 402.489,41.434C401.405,41.432 400.657,41.238 399.814,40.742C399.283,40.429 398.52,39.741 398.347,39.419C398.265,39.264 398.28,39.26 398.698,39.314C398.938,39.344 399.244,39.404 399.379,39.445C399.513,39.487 399.88,39.6 400.193,39.697C400.507,39.794 400.978,39.981 401.24,40.112C401.502,40.243 401.733,40.334 401.753,40.313C401.815,40.251 400.975,39.275 400.283,38.605C399.525,37.871 397.973,36.796 397.07,36.379C396.727,36.221 396.337,36.04 396.203,35.978C395.145,35.484 392.09,34.83 392.09,35.097C392.09,35.127 392.374,35.464 392.721,35.848C395.633,39.076 399.092,41.807 403.125,44.062C404.193,44.659 406.506,45.765 407.686,46.241C408.089,46.404 408.493,46.568 408.582,46.606C409.358,46.935 411.565,47.655 412.939,48.028C414.575,48.471 414.574,48.471 415.057,48.571C415.303,48.622 415.743,48.715 416.034,48.778C418.867,49.386 421.695,49.66 425.156,49.662C429.367,49.664 432.889,49.247 436.783,48.284C437.063,48.215 437.502,48.106 437.76,48.042C438.017,47.978 438.411,47.872 438.635,47.806C438.86,47.74 439.372,47.588 439.776,47.47C440.82,47.164 443.148,46.349 443.848,46.046C443.937,46.007 444.331,45.843 444.721,45.68C445.79,45.236 446.556,44.879 448.083,44.111C451.663,42.312 454.543,40.395 458.338,37.287C462.061,34.238 463.242,33.318 464.82,32.238C469.129,29.291 473.13,27.874 477.159,27.87C480.837,27.866 483.622,29 485.656,31.331C487.116,33.004 487.876,34.872 487.879,36.796C487.881,38.641 487.254,40.076 485.869,41.392C484.852,42.357 483.501,43.15 481.19,44.138C481.034,44.204 480.832,44.291 480.743,44.331C480.653,44.37 480.085,44.611 479.48,44.865C477.238,45.808 475.876,46.608 474.768,47.634C473.817,48.515 473.353,49.2 472.872,50.438C472.726,50.812 472.726,52.179 472.871,52.556C473.285,53.631 473.882,54.338 474.694,54.716C475.192,54.948 476.052,54.991 476.496,54.806C477.229,54.5 477.77,53.649 477.77,52.804C477.77,52.115 477.493,51.69 476.879,51.438C476.5,51.283 476.156,50.954 476.012,50.612C475.645,49.739 476.206,48.417 477.143,47.942C477.516,47.753 477.625,47.736 478.254,47.77C478.813,47.8 479.035,47.852 479.377,48.034C480.516,48.64 481.353,50.045 481.353,51.351C481.353,51.792 481.132,52.918 480.941,53.452C480.885,53.609 480.608,54.193 480.325,54.751C480.043,55.309 479.828,55.782 479.849,55.802C479.916,55.869 481.542,55.232 482.331,54.829C486.343,52.779 489.37,48.776 489.924,44.785C489.954,44.578 490.149,44.516 490.149,44.714C490.149,44.799 490.18,44.903 490.22,44.945C490.259,44.988 490.376,45.353 490.481,45.756C490.646,46.394 490.67,46.673 490.665,47.914C490.661,48.698 490.62,49.504 490.572,49.706C490.353,50.633 490.293,50.841 490.09,51.375C488.741,54.927 485.618,57.892 482.165,58.899C481.831,58.997 481.447,59.111 481.313,59.153C480.959,59.264 479.531,59.43 478.89,59.435C478.587,59.437 478.34,59.461 478.34,59.489C478.34,59.516 478.606,59.792 478.93,60.1C480.306,61.405 481.917,62.181 485.589,63.306C487.863,64.002 489.385,64.604 490.561,65.269C493.106,66.711 494.322,68.694 493.951,70.801C493.737,72.023 493.172,73.005 492.311,73.655C491.837,74.013 491.044,74.3 490.528,74.301C490.274,74.302 490.223,74.328 490.263,74.432C490.29,74.503 490.336,74.659 490.363,74.778C490.389,74.897 490.497,75.251 490.6,75.565C490.703,75.878 490.939,76.63 491.124,77.234C491.309,77.839 491.496,78.42 491.54,78.525C491.605,78.682 491.547,78.867 491.205,79.57C490.529,80.963 489.8,82.065 488.812,83.186C488.36,83.698 486.738,85.211 486.637,85.214C486.61,85.215 486.603,84.254 486.625,83.078C486.668,80.757 486.529,78.675 486.239,77.275C486.192,77.051 486.114,76.666 486.065,76.42C485.931,75.748 485.671,74.62 485.586,74.343C485.545,74.208 485.417,73.787 485.301,73.406C484.987,72.373 484.473,70.967 484.282,70.618C484.239,70.54 484.204,70.433 484.204,70.381C484.204,70.231 482.936,67.674 482.393,66.728C480.103,62.743 476.653,58.926 472.977,56.31C472.648,56.076 472.359,55.904 472.335,55.928C472.313,55.95 472.333,56.751 472.384,57.705C472.506,59.994 472.496,62.013 472.35,64.447C472.191,67.119 472.083,68.59 472.026,68.886C472,69.021 471.927,69.588 471.863,70.148C471.725,71.362 471.562,72.446 471.223,74.424C470.978,75.848 470.25,79.119 469.973,80.041C469.908,80.258 469.894,80.266 469.834,80.123C469.796,80.035 469.72,79.761 469.66,79.515C469.371,78.314 468.895,76.413 468.848,76.273C468.825,76.205 468.704,76.281 468.506,76.488C468.262,76.744 468.105,76.828 467.726,76.906C466.847,77.088 465.988,76.831 465.57,76.264C465.171,75.721 465.048,75.29 465.047,74.425C465.046,73.977 465.084,73.464 465.131,73.284C465.179,73.105 465.276,72.684 465.347,72.348C465.418,72.012 465.51,71.609 465.551,71.452C465.592,71.295 465.703,70.8 465.797,70.352C465.891,69.904 466.001,69.41 466.041,69.253C466.081,69.096 466.227,68.455 466.366,67.828C466.505,67.2 466.652,66.559 466.692,66.402C466.733,66.245 466.827,65.824 466.901,65.466C466.975,65.107 467.066,64.722 467.103,64.61C467.14,64.499 467.193,64.26 467.221,64.081C467.251,63.902 467.306,63.645 467.346,63.511C467.386,63.376 467.472,63.01 467.538,62.697C467.698,61.938 468.15,59.919 468.24,59.561C468.28,59.404 468.427,58.763 468.566,58.136C468.706,57.508 468.853,56.867 468.893,56.71C468.933,56.553 469.023,56.15 469.094,55.814C469.165,55.478 469.255,55.094 469.294,54.959C469.334,54.825 469.389,54.568 469.419,54.389C469.449,54.21 469.505,53.953 469.545,53.819C469.586,53.684 469.679,53.281 469.753,52.923C469.939,52.023 470.104,51.277 470.21,50.864C470.259,50.673 470.279,50.496 470.256,50.472C470.157,50.373 468.261,53.09 467.466,54.471C466.388,56.343 465.351,58.579 464.783,60.253C464.662,60.611 464.53,60.978 464.491,61.068C464.406,61.261 464.049,62.462 463.922,62.982C463.872,63.183 463.778,63.568 463.711,63.837C463.332,65.371 463.06,66.984 462.859,68.886C462.717,70.23 462.673,73.025 462.778,74.058C463.002,76.271 463.118,77.117 463.359,78.293C464.027,81.554 464.628,83.082 465.606,84.005C466.104,84.476 466.546,84.707 467.208,84.844C467.76,84.958 467.885,84.958 468.405,84.852C469.174,84.69 469.619,84.38 469.892,83.818C470.006,83.58 470.309,82.818 470.563,82.123C470.817,81.429 471.059,80.788 471.099,80.698C471.184,80.508 471.561,79.489 471.657,79.191C471.691,79.08 471.949,78.383 472.226,77.644C472.865,75.943 472.919,75.8 473.071,75.404C473.14,75.225 473.494,74.272 473.858,73.287C474.222,72.301 474.555,71.431 474.597,71.353C474.64,71.276 474.674,71.171 474.674,71.121C474.674,71.071 474.725,70.915 474.787,70.774C474.849,70.633 475.019,70.188 475.166,69.784C475.529,68.785 475.772,68.285 476.072,67.922C476.841,66.988 477.884,66.971 478.704,67.879C479.575,68.843 481.379,72.111 482.004,73.857C482.148,74.26 482.296,74.663 482.333,74.753C482.652,75.53 483.121,77.46 483.35,78.947C483.816,81.961 483.758,84.272 483.106,88.68C482.981,89.53 482.792,90.855 482.648,91.897C482.602,92.233 482.534,92.819 482.496,93.2C482.405,94.129 482.448,97.556 482.555,97.965C482.603,98.144 482.704,98.565 482.78,98.901C483.074,100.202 483.54,101.34 484.077,102.072C484.993,103.319 486.726,104.361 487.881,104.357C488.532,104.355 489.288,103.999 489.767,103.469C490.263,102.92 490.487,102.31 490.672,101.011C490.745,100.5 490.845,99.826 490.896,99.512C491.081,98.36 491.491,97.487 492.025,97.107C492.495,96.772 492.511,96.829 492.508,98.838C492.504,101.979 492.092,103.68 490.908,105.471C490.594,105.947 489.716,106.805 489.159,107.181C488.706,107.487 487.619,108.023 487.452,108.023C487.385,108.023 487.296,108.057 487.253,108.096C487.21,108.136 486.781,108.235 486.298,108.316C485.471,108.455 485.376,108.456 484.649,108.331C482.888,108.027 481.554,106.947 480.589,105.045C479.957,103.799 479.502,102.329 479.304,100.898C479.169,99.924 479.122,97.029 479.227,96.133C479.277,95.707 479.354,95.011 479.398,94.586C479.489,93.715 479.583,92.985 479.766,91.735C480.156,89.072 480.266,88.209 480.38,86.93C480.493,85.657 480.438,81.998 480.297,81.432C480.241,81.208 480.164,80.897 480.126,80.74C479.882,79.736 479.625,79.047 479.137,78.093C478.783,77.398 478.172,76.505 478.053,76.505C477.997,76.505 477.89,76.734 477.815,77.014C477.74,77.294 477.641,77.651 477.595,77.808C477.549,77.965 477.469,78.264 477.416,78.473C477.364,78.682 477.293,78.881 477.26,78.914C477.226,78.948 477.199,79.038 477.199,79.115C477.199,79.192 477.146,79.434 477.081,79.651C477.016,79.87 476.851,80.433 476.713,80.903C476.576,81.373 476.431,81.868 476.391,82.002C476.351,82.137 476.202,82.668 476.06,83.183C475.918,83.698 475.768,84.184 475.727,84.261C475.685,84.339 475.651,84.454 475.651,84.517C475.651,84.58 475.597,84.809 475.532,85.027C475.465,85.245 475.298,85.808 475.16,86.278C475.022,86.749 474.878,87.19 474.842,87.258C474.804,87.327 474.749,87.51 474.716,87.666C474.682,87.821 474.631,87.985 474.6,88.03C474.57,88.075 474.496,88.258 474.436,88.437C474.377,88.616 474.246,88.946 474.146,89.17C474.045,89.394 473.935,89.668 473.9,89.779C473.797,90.107 472.969,91.655 472.613,92.183C471.809,93.38 470.863,94.353 469.828,95.052C469.043,95.581 468.791,95.689 467.262,96.146C467.013,96.22 466.426,96.255 465.43,96.254C464.15,96.253 463.881,96.228 463.312,96.067C461.715,95.612 460.491,94.714 459.949,93.602C459.805,93.307 459.688,93.014 459.688,92.95C459.688,92.745 459.291,91.733 459.036,91.288C458.651,90.614 457.781,89.661 456.63,88.653C454.221,86.542 453.271,85.501 451.976,83.55C451.148,82.302 450.159,80.215 449.758,78.867C449.658,78.531 449.546,78.165 449.508,78.053C449.426,77.808 449.226,76.96 449.105,76.342C448.728,74.418 448.729,71.24 449.107,69.542C449.467,67.925 449.669,67.239 450.116,66.118C451.237,63.308 452.834,60.738 455.707,57.121C455.915,56.86 456.925,55.645 457.952,54.42C463.237,48.123 465.146,45.361 466.447,42.135C466.546,41.889 466.659,41.614 466.698,41.524C466.737,41.435 466.88,41.022 467.016,40.607C467.257,39.868 467.323,39.488 467.201,39.543C467.139,39.569 466.759,39.853 460.758,44.334C458.928,45.701 457.197,46.988 456.91,47.194C456.624,47.401 455.803,47.995 455.086,48.514C454.369,49.033 453.673,49.534 453.538,49.628C453.404,49.722 453.059,49.967 452.773,50.171C451.754,50.899 448.55,53.033 447.226,53.864C443.815,56.008 440.423,57.869 437.534,59.18C437.288,59.292 436.878,59.479 436.623,59.596C436.369,59.713 436.142,59.809 436.12,59.809C436.086,59.809 435.454,60.085 434.806,60.383C433.595,60.939 428.999,62.47 427.333,62.872C427.076,62.934 426.636,63.042 426.356,63.113C424.243,63.64 421.681,64.076 419.454,64.287C414.92,64.717 410.129,64.386 406.056,63.361C405.787,63.293 405.347,63.184 405.078,63.118C403.991,62.851 401.293,61.983 400.599,61.677C400.509,61.637 400.235,61.53 399.988,61.438C399.742,61.346 399.467,61.237 399.377,61.197C399.288,61.157 398.848,60.967 398.4,60.775C397.425,60.358 394.977,59.148 394.124,58.661C390.205,56.425 387.399,54.507 383.78,51.591C379.899,48.463 376.319,45.141 370.954,39.687C368.208,36.895 367.595,36.296 366.88,35.708C365.006,34.165 362.572,32.708 360.341,31.794L359.502,31.451L359.01,31.988C358.739,32.283 358.466,32.525 358.403,32.525C358.339,32.525 358.288,32.559 358.288,32.602C358.288,32.678 357.975,32.879 357.697,32.98C357.619,33.011 357.555,33.062 357.555,33.097C357.555,33.131 357.399,33.188 357.209,33.22C357.018,33.25 356.837,33.319 356.805,33.37C356.724,33.496 354.527,33.495 354.371,33.369C354.308,33.318 354.129,33.25 353.974,33.216C353.645,33.146 353.471,33.056 353.064,32.749C352.9,32.626 352.734,32.525 352.694,32.525C352.587,32.525 351.854,31.762 351.854,31.651C351.854,31.598 351.808,31.526 351.752,31.49C351.636,31.416 351.486,31.191 351.356,30.896C351.306,30.784 351.233,30.627 351.192,30.548C351.151,30.468 351.095,30.239 351.067,30.039C351.041,29.838 350.986,29.674 350.947,29.674C350.908,29.674 350.877,29.326 350.877,28.9C350.877,28.475 350.907,28.126 350.948,28.126L350.947,28.123ZM352.517,29.882C353.268,31.914 355.638,32.782 357.567,31.732C358.772,31.077 359.511,29.544 359.284,28.175C358.812,25.323 355.284,24.235 353.291,26.325C352.362,27.298 352.066,28.662 352.517,29.882ZM453.413,71.37C453.609,74.107 453.779,75.381 454.195,77.234C454.389,78.099 454.661,79.011 454.807,79.29C454.848,79.368 454.881,79.47 454.881,79.518C454.881,79.598 455.082,80.09 455.313,80.573C455.577,81.126 456.084,81.975 456.457,82.487C456.942,83.155 457.96,84.238 458.102,84.238C458.386,84.238 458.575,82.871 458.455,81.68C458.411,81.235 458.34,80.807 458.297,80.728C458.255,80.649 458.22,80.527 458.22,80.457C458.22,80.324 457.441,78.309 457.116,77.601C456.561,76.391 456.124,75.226 455.94,74.465C455.663,73.323 455.606,72.934 455.564,71.899C455.488,70.009 455.734,68.391 456.429,66.239C456.557,65.841 456.676,65.524 457.024,64.651C457.26,64.056 458.487,61.721 458.992,60.904C459.599,59.922 459.858,59.543 461.16,57.728C463.289,54.761 464.126,53.088 464.49,51.075C464.608,50.423 464.548,50.262 464.305,50.578C464.147,50.784 463.418,51.64 458.911,56.913C456.059,60.251 455.266,61.352 454.483,63.068C454.091,63.926 454.099,63.902 453.75,65.139C453.39,66.419 453.247,69.054 453.413,71.37L453.413,71.37ZM458.856,72.219C458.886,72.531 458.955,72.797 459.008,72.814C459.061,72.829 459.219,72.742 459.362,72.615C459.741,72.275 459.848,71.755 459.933,69.815C459.973,68.892 460.045,68.038 460.091,67.916C460.137,67.794 460.175,67.598 460.175,67.481C460.175,67.124 460.555,65.591 460.907,64.529C461.126,63.868 461.205,63.658 461.443,63.103C461.501,62.969 461.624,62.682 461.717,62.465C461.985,61.84 461.908,61.271 461.555,61.271C461.362,61.271 461.07,61.707 460.556,62.766C460.038,63.831 459.975,63.984 459.662,64.936C459.411,65.699 459.316,66.047 459.03,67.257C458.987,67.436 458.915,68.003 458.868,68.516C458.822,69.029 458.763,69.469 458.737,69.493C458.687,69.541 458.764,71.291 458.856,72.219L458.856,72.219ZM461.232,82.437C461.275,82.823 461.369,83.652 461.441,84.279C461.619,85.84 462.262,88.991 462.537,89.655C462.575,89.744 462.67,90.01 462.75,90.244C462.94,90.805 463.385,91.375 463.84,91.64L464.207,91.854L466.284,91.854C468.442,91.854 468.85,91.804 469.827,91.424C471.116,90.922 472.182,89.75 472.768,88.189C472.885,87.875 473.011,87.545 473.046,87.456C473.235,86.976 473.521,85.256 473.736,83.302C473.805,82.675 473.895,81.979 473.936,81.755C473.978,81.53 474.035,81.146 474.064,80.899C474.094,80.653 474.148,80.323 474.187,80.166C474.226,80.009 474.319,79.606 474.393,79.27C474.852,77.197 475.907,75.219 477.172,74.058C477.441,73.812 477.864,73.437 478.113,73.225C478.764,72.672 478.948,72.254 478.946,71.33C478.946,70.8 478.901,70.483 478.787,70.189C478.55,69.581 477.795,68.279 477.677,68.276C477.568,68.274 477.188,68.956 476.406,70.556C475.455,72.5 475.162,73.136 475.162,73.247C475.162,73.291 475.127,73.391 475.084,73.469C474.972,73.673 474.818,74.062 474.446,75.076C473.775,76.91 473.447,78.002 472.76,80.696C472.051,83.479 470.563,85.318 468.552,85.898C466.474,86.497 464.007,85.109 462.946,82.743C462.581,81.929 462.257,80.697 462.172,79.8C462.097,79.013 461.94,78.13 461.874,78.13C461.726,78.13 461.388,78.525 461.281,78.823C461.141,79.215 461.112,81.368 461.232,82.438L461.232,82.437ZM468.567,47.224C468.788,47.36 469.46,46.595 469.46,46.208C469.46,46.002 469.448,46.002 469.052,46.204C468.605,46.432 468.306,47.062 468.567,47.224L468.567,47.224ZM471.801,43.92C472.009,43.918 472.229,43.833 472.487,43.656C474.409,42.333 478.3,38.446 480.393,35.76C481.781,33.978 482.053,33.378 481.803,32.643C481.304,31.173 479.912,30.389 477.382,30.154C476.391,30.062 475.89,30.1 475.589,30.291C475.303,30.472 475.366,30.542 475.897,30.636C477.008,30.832 478.028,31.591 478.518,32.585C478.775,33.108 478.785,33.164 478.778,34.067C478.771,34.831 478.736,35.104 478.582,35.535C478.048,37.026 477.604,37.557 472.613,42.661C472,43.288 471.498,43.829 471.497,43.863C471.497,43.897 471.633,43.922 471.801,43.921L471.801,43.92ZM480.19,51.32C480.368,51.286 480.442,50.846 480.27,50.846C480.107,50.846 480.048,50.927 480.048,51.151C480.048,51.294 480.086,51.339 480.19,51.32ZM397.96,30.657C398.034,30.293 398.362,29.973 398.657,29.977C398.784,29.978 399.694,30.017 400.679,30.064C405.191,30.274 407.631,30.344 408.869,30.297C409.606,30.27 411.381,30.208 412.815,30.163C414.248,30.117 415.751,30.044 416.154,30C416.557,29.956 417.382,29.898 417.987,29.871C418.591,29.845 419.15,29.804 419.228,29.782C419.306,29.759 419.966,29.69 420.694,29.625C424.834,29.26 427.302,28.874 428.859,28.349C430.601,27.761 431.291,27.296 433.013,25.549C434.433,24.108 434.903,23.731 435.787,23.322C437.427,22.563 439.65,22.459 441.015,23.077C441.317,23.214 441.688,23.444 441.84,23.587C442.148,23.88 442.416,24.396 442.418,24.703C442.422,25.33 441.951,26.049 441.483,26.13C441.262,26.168 441.202,26.126 440.847,25.668C440.631,25.391 440.365,24.987 440.255,24.771C440.131,24.526 440.002,24.378 439.914,24.379C439.723,24.381 438.652,25.043 437.899,25.626C436.81,26.466 435.541,28.097 435.024,29.319C434.784,29.887 434.79,29.911 435.151,29.824C435.319,29.784 435.713,29.693 436.027,29.621C436.34,29.549 436.817,29.438 437.085,29.373C437.354,29.309 437.803,29.203 438.083,29.139C438.363,29.075 438.831,28.966 439.122,28.898C439.413,28.83 439.88,28.723 440.16,28.659C442.283,28.174 442.879,28.021 443.369,27.837C445.485,27.041 447.285,25.384 449.605,22.097C450.508,20.817 450.842,20.245 451.011,19.688C451.223,18.989 451.178,18.718 450.687,17.743C450.157,16.69 450.109,16.318 450.452,15.91C450.683,15.636 451.043,15.418 451.265,15.418C451.342,15.418 451.701,15.724 452.063,16.098C452.849,16.907 453.47,17.239 455.302,17.827C458.389,18.819 459.09,19.248 459.753,20.554C460.015,21.069 460.125,21.199 460.486,21.415C461.038,21.748 461.846,21.918 463.107,21.967C464.578,22.025 465.226,22.285 465.676,22.997C465.826,23.235 465.876,23.427 465.876,23.761C465.876,24.186 465.857,24.225 465.478,24.605C464.894,25.188 464.788,25.438 464.791,26.21C464.795,27.141 465.074,27.666 466.121,28.716C467.026,29.624 467.03,29.593 466.014,29.756C464.874,29.939 463.657,29.725 461.112,28.897C460.798,28.795 460.267,28.631 459.931,28.532C459.595,28.433 459.21,28.32 459.076,28.28C458.412,28.081 457.674,27.944 456.439,27.79C455.278,27.644 454.795,27.626 453.049,27.662C450.155,27.721 447.549,28.078 444.09,28.89C443.821,28.954 443.363,29.061 443.072,29.129C442.367,29.295 438.63,30.247 437.452,30.562C436.937,30.699 436.076,30.924 435.538,31.062C435.001,31.2 434.506,31.337 434.439,31.367C434.298,31.43 435.945,31.48 442.502,31.609C445.077,31.659 448.101,31.738 449.221,31.784C450.341,31.83 452.98,31.89 455.085,31.918C460.098,31.985 461.179,32.038 461.598,32.242C461.775,32.329 461.976,32.499 462.044,32.62C462.159,32.825 462.153,32.87 461.952,33.279C461.66,33.875 460.992,34.659 460.414,35.085C459.999,35.39 458.831,36.016 458.343,36.194C456.427,36.894 453.931,36.929 450.443,36.307C450.039,36.235 449.435,36.126 449.099,36.066C446.365,35.575 443.818,35.238 441.402,35.047C440.82,35.001 439.894,34.927 439.344,34.883C438.123,34.785 437.371,34.78 437.371,34.871C437.371,34.943 439.145,35.497 440.277,35.779C442.581,36.352 444.463,36.586 448.121,36.754C449.443,36.815 449.88,36.864 450.217,36.991C452.105,37.698 452.644,39.469 451.262,40.42C450.876,40.685 449.576,41.156 449.229,41.156C449.017,41.156 448.933,41.339 449.099,41.441C449.224,41.519 449.196,41.949 449.046,42.239C448.796,42.721 448.572,42.96 448.04,43.312C447.22,43.854 447.337,43.81 443.398,45.065C442.659,45.301 441.742,45.595 441.362,45.718C440.077,46.135 438.799,46.525 438.311,46.651C437.04,46.978 436.107,46.636 435.764,45.717C435.634,45.368 435.625,45.209 435.69,44.439C435.732,43.955 435.768,42.826 435.772,41.93C435.78,40.304 435.719,39.806 435.402,38.916C434.854,37.373 433.795,36.064 432.584,35.431C431.958,35.105 431.42,34.93 430.488,34.75C430.13,34.682 429.58,34.574 429.267,34.512C428.474,34.354 427.438,34.165 426.62,34.028C426.239,33.965 425.836,33.895 425.724,33.873C425.326,33.795 423.8,33.569 423.158,33.493C422.8,33.45 422.442,33.395 422.363,33.371C422.09,33.286 418.671,32.898 416.746,32.733C415.996,32.668 415.354,32.599 415.32,32.578C415.286,32.56 414.672,32.516 413.955,32.485C413.238,32.454 412.414,32.392 412.122,32.348C411.83,32.304 408.86,32.251 405.485,32.23C398.711,32.187 398.764,32.191 398.239,31.667C397.951,31.378 397.872,31.093 397.96,30.66L397.96,30.657ZM461.348,17.748C461.686,17.588 462.367,17.577 462.725,17.725C463.087,17.876 463.514,18.32 463.514,18.545C463.514,18.797 463.214,18.918 462.59,18.918C462.168,18.918 462.016,18.877 461.708,18.682C461.336,18.446 461.071,18.151 461.071,17.972C461.071,17.92 461.196,17.818 461.348,17.746L461.348,17.748ZM463.005,19.95C463.589,19.651 464.248,19.767 464.574,20.224C464.797,20.537 464.778,20.686 464.496,20.832C464.036,21.069 463.426,20.947 462.964,20.525C462.718,20.3 462.734,20.089 463.005,19.95L463.005,19.95ZM463.766,14.813C463.986,14.627 464.079,14.604 464.492,14.628C464.76,14.643 465.058,14.717 465.18,14.797C465.443,14.969 465.591,15.311 465.467,15.461C465.344,15.609 463.918,15.709 463.688,15.586C463.421,15.443 463.458,15.072 463.767,14.813L463.766,14.813ZM466.339,17.828C466.873,17.646 467.267,17.663 467.594,17.884C467.954,18.126 468.071,18.448 467.907,18.742C467.804,18.926 467.721,18.964 467.38,18.987C466.589,19.039 465.958,18.702 465.958,18.229C465.958,17.979 465.988,17.948 466.339,17.828L466.339,17.828ZM466.514,20.602C466.736,20.401 467.456,20.419 467.668,20.628C467.883,20.843 467.874,21.151 467.649,21.366C467.494,21.513 467.399,21.533 467.033,21.497C466.794,21.474 466.547,21.41 466.483,21.357C466.317,21.219 466.337,20.762 466.517,20.6L466.514,20.602ZM491.624,81.001C491.746,80.881 492.171,80.868 492.458,80.978C492.711,81.075 492.863,81.345 492.802,81.591C492.742,81.831 492.244,82.079 492.041,81.971C491.66,81.767 491.418,81.206 491.624,81.003L491.624,81.001ZM493.812,78.782C493.997,78.597 494.047,78.588 494.332,78.697C494.775,78.865 494.925,79.709 494.58,80.091C494.396,80.294 494.285,80.288 494.08,80.065C493.651,79.595 493.538,79.056 493.812,78.782L493.812,78.782ZM493.975,74.791C494.373,74.393 495.23,74.725 495.214,75.272C495.207,75.575 495.097,75.731 494.779,75.896C494.464,76.059 494.35,76.044 494.062,75.802C493.861,75.632 493.812,75.528 493.812,75.272C493.812,75.062 493.867,74.898 493.975,74.791L493.975,74.791ZM496.147,77.859C496.177,77.828 496.34,77.804 496.51,77.804C496.74,77.804 496.893,77.869 497.107,78.057C497.35,78.271 497.395,78.362 497.395,78.65C497.395,79.019 497.216,79.352 497.017,79.352C496.801,79.352 496.421,79.026 496.253,78.697C496.094,78.385 496.041,77.964 496.147,77.859L496.147,77.859Z" style="fill:rgb(249,204,157);fill-rule:nonzero;"/>
        <path id="path4586" d="M350.947,483.41C350.986,483.41 351.042,483.593 351.072,483.817C351.102,484.041 351.161,484.224 351.205,484.224C351.248,484.224 351.283,484.311 351.283,484.417C351.283,484.523 351.356,484.703 351.446,484.817C351.536,484.931 351.609,485.064 351.609,485.113C351.609,485.162 351.647,485.202 351.693,485.202C351.739,485.202 351.799,485.266 351.826,485.344C351.886,485.516 352.591,486.26 352.693,486.26C352.733,486.26 352.9,486.361 353.063,486.484C353.471,486.792 353.645,486.881 353.973,486.952C354.129,486.986 354.301,487.049 354.356,487.093C354.412,487.138 354.511,487.154 354.578,487.127C354.644,487.101 354.72,487.116 354.746,487.157C354.807,487.255 356.307,487.261 356.366,487.165C356.389,487.126 356.502,487.112 356.615,487.135C356.728,487.157 356.821,487.137 356.821,487.092C356.821,487.047 356.986,486.986 357.188,486.956C357.389,486.925 357.554,486.871 357.554,486.834C357.554,486.796 357.619,486.744 357.697,486.715C357.974,486.613 358.287,486.413 358.287,486.336C358.287,486.294 358.338,486.259 358.401,486.259C358.533,486.259 359.361,485.387 359.541,485.058C359.692,484.782 359.836,484.479 359.916,484.264C360.145,483.654 360.146,483.653 360.459,483.653C360.625,483.653 360.965,483.615 361.214,483.571C361.463,483.527 362.125,483.432 362.685,483.36C363.754,483.224 364.866,483.071 366.228,482.871C366.676,482.806 367.409,482.7 367.857,482.636C368.305,482.572 369.029,482.463 369.465,482.394C369.902,482.325 370.599,482.215 371.013,482.15C371.427,482.085 372.114,481.973 372.54,481.902C372.966,481.83 373.662,481.715 374.087,481.646C374.513,481.577 375.154,481.47 375.513,481.409C375.871,481.347 376.61,481.226 377.154,481.139C377.699,481.053 378.207,480.947 378.283,480.905C378.447,480.813 378.486,480.818 374.291,480.362C373.664,480.294 372.638,480.182 372.011,480.113C371.383,480.045 370.423,479.941 369.875,479.883C369.328,479.825 368.854,479.75 368.821,479.718C368.749,479.645 369.109,479.272 373.558,474.813C377.545,470.817 379.926,468.582 382.802,466.134C383.574,465.477 384.525,464.697 384.877,464.433C385.027,464.321 385.546,463.916 386.032,463.534C386.804,462.926 387.799,462.191 388.94,461.385C392.694,458.735 397.175,456.295 401.249,454.683C403.296,453.874 406.692,452.809 408.172,452.513C408.307,452.487 408.765,452.389 409.19,452.296C410.6,451.989 412.179,451.755 414.199,451.554C415.371,451.437 419.49,451.437 420.633,451.554C424.554,451.956 427.315,452.551 431.058,453.801C432.477,454.275 434.054,454.881 435.293,455.428C435.562,455.546 435.89,455.688 436.023,455.742C436.717,456.026 440.38,457.881 441.727,458.631C445.335,460.639 450.547,464.024 454.535,466.95C454.815,467.156 455.438,467.608 455.919,467.954C456.401,468.301 459.159,470.31 462.048,472.418C467.751,476.579 467.982,476.742 468.393,476.881C469.439,477.236 471.017,476.503 471.783,475.305C472.083,474.836 472.31,474.123 472.31,473.649C472.31,472.501 471.519,470.824 470.287,469.36C470.061,469.091 469.905,468.861 469.94,468.848C470.128,468.781 472.697,470.566 473.659,471.432C474.953,472.597 475.809,473.951 476.095,475.286C476.221,475.869 476.221,475.967 476.103,476.548C475.792,478.058 474.737,479.425 473.371,480.091C472.876,480.332 472.783,480.349 471.946,480.352C471.155,480.354 471.007,480.333 470.683,480.161C470.316,479.966 466.892,477.673 463.923,475.632C459.705,472.732 455.612,470.038 453.127,468.525C449.737,466.46 447.08,465.034 443.608,463.417C441.293,462.339 437.606,460.976 435.458,460.405C435.234,460.345 434.758,460.217 434.4,460.121C433.726,459.939 433.492,459.883 432.526,459.67C424.708,457.949 416.117,458.116 408.011,460.146C407.743,460.214 407.358,460.31 407.156,460.359C405.429,460.788 401.813,461.996 400.437,462.605C400.302,462.664 399.973,462.802 399.704,462.91C398.191,463.521 395.183,465.032 393.596,465.979C389.763,468.265 387.05,470.358 384.101,473.305C381.575,475.828 380.625,477.039 380.007,478.522C379.53,479.667 379.515,480.768 379.962,481.765C380.628,483.246 381.917,483.982 383.548,483.811C385.936,483.56 386.973,483.388 388.424,483C388.939,482.862 389.507,482.714 389.686,482.67C389.865,482.627 390.085,482.558 390.175,482.517C390.264,482.476 390.612,482.349 390.948,482.236C393.461,481.388 397.166,479.625 400.722,477.584C401.864,476.929 403,476.279 403.247,476.141C403.493,476.003 403.823,475.81 403.98,475.712C404.517,475.376 407.522,473.661 408.907,472.901C410.335,472.118 413.863,470.378 414.024,470.378C414.047,470.378 414.299,470.272 414.582,470.144C415.145,469.888 416.605,469.338 417.377,469.09C418.458,468.745 418.717,468.669 419.617,468.435C422.573,467.667 425.306,467.52 427.247,468.023C428.165,468.261 429.177,468.774 429.703,469.268C430.109,469.649 430.612,470.316 430.612,470.474C430.612,470.642 428.314,472.001 426.988,472.618C425.93,473.111 424.12,473.78 423.221,474.011C422.985,474.072 422.582,474.177 422.325,474.246C420.235,474.802 417.855,475.054 415.3,474.989C412.976,474.93 412.694,474.865 413.529,474.582C413.764,474.502 414.03,474.403 414.12,474.363C414.583,474.153 418.213,473.012 419.413,472.699C421.28,472.212 421.896,472.06 422.712,471.882C423.227,471.77 423.887,471.626 424.178,471.562C424.662,471.454 425.34,471.319 425.909,471.215C426.032,471.192 426.133,471.132 426.133,471.081C426.133,470.945 425.21,470.345 424.504,470.022C423.335,469.488 422.681,469.36 421.124,469.36C420.01,469.36 419.628,469.39 419.169,469.517C418.602,469.672 417.744,470.011 417.744,470.079C417.744,470.149 419.501,470.662 420.533,470.894C420.746,470.941 420.92,471.01 420.92,471.046C420.92,471.08 420.471,471.114 419.923,471.117C418.944,471.125 418.603,471.158 417.622,471.353C415.256,471.823 412.626,473.25 411.06,474.911C410.532,475.472 410.17,475.911 410.17,475.99C410.17,476.07 410.663,476.21 411.351,476.324C416.4,477.165 421.449,476.698 425.999,474.971C427.092,474.556 427.129,474.539 428.332,473.952C430.275,473.004 431.887,471.951 432.915,470.958C433.653,470.245 433.987,469.757 434.25,469.006C435.047,466.73 433.104,464.197 429.961,463.414C429.423,463.28 426.983,463.219 426.632,463.33C426.543,463.357 426.184,463.43 425.834,463.49C423.982,463.805 419.054,465.494 415.789,466.933C415.543,467.041 415.268,467.162 415.178,467.201C415.089,467.239 414.704,467.415 414.323,467.59C413.943,467.765 413.393,468.016 413.102,468.146C410.5,469.309 406.22,471.679 403.084,473.692C400.614,475.278 398.253,476.653 396.564,477.49C394.798,478.365 394.74,478.392 393.84,478.734C392.99,479.056 392.203,479.301 391.519,479.454C391.183,479.53 390.775,479.626 390.613,479.668C390.451,479.711 389.834,479.786 389.242,479.835C387.533,479.978 386.037,479.801 384.514,479.271L384.066,479.115L384.082,478.677C384.112,477.754 384.647,476.311 385.382,475.172C386.776,473.011 389.052,470.926 392.575,468.581C393.692,467.839 395.384,466.795 395.473,466.795C395.496,466.795 395.666,466.699 395.853,466.581C396.215,466.353 398.676,465.109 399.623,464.676C399.937,464.533 400.743,464.198 401.415,463.932C402.087,463.666 402.71,463.415 402.8,463.374C403.135,463.22 405.545,462.413 406.424,462.161C406.76,462.065 407.145,461.952 407.279,461.912C407.562,461.826 409.618,461.332 410.455,461.148C412.576,460.682 415.663,460.272 418.175,460.122C420.877,459.961 425.202,460.046 423.35,460.224C422.127,460.342 419.561,460.723 418.274,460.978C416.24,461.38 415.832,461.471 414.12,461.907C412.885,462.221 411.926,462.487 411.474,462.641C411.362,462.68 410.995,462.789 410.659,462.884C410.323,462.979 409.992,463.087 409.923,463.124C409.855,463.162 409.673,463.219 409.519,463.252C409.365,463.286 409.183,463.344 409.114,463.381C409.046,463.418 408.641,463.564 408.216,463.706C407.79,463.847 407.332,464.009 407.198,464.064C407.063,464.12 406.642,464.286 406.261,464.435C404.658,465.059 402.608,465.966 400.99,466.765C396.179,469.14 393.13,471.632 391.584,474.451C391.374,474.835 390.954,475.889 390.79,476.447C390.69,476.785 390.543,478.049 390.596,478.111C390.645,478.168 392.243,477.975 392.822,477.843C393.829,477.612 394.088,477.54 394.818,477.288C397.446,476.38 399.502,475.056 401.507,472.98C402.398,472.057 403.611,470.308 403.463,470.16C403.429,470.126 402.99,470.098 402.489,470.099C401.405,470.101 400.657,470.295 399.814,470.791C399.283,471.103 398.52,471.792 398.347,472.114C398.265,472.268 398.28,472.273 398.698,472.219C398.938,472.189 399.244,472.129 399.379,472.088C399.513,472.046 399.88,471.933 400.193,471.836C400.507,471.739 400.978,471.552 401.24,471.421C401.502,471.29 401.733,471.199 401.753,471.22C401.815,471.282 400.975,472.258 400.283,472.928C399.525,473.662 397.973,474.737 397.07,475.154C396.727,475.312 396.337,475.493 396.203,475.555C395.145,476.049 392.09,476.703 392.09,476.436C392.09,476.406 392.374,476.069 392.721,475.684C395.633,472.457 399.092,469.726 403.125,467.471C404.193,466.873 406.506,465.768 407.686,465.292C408.089,465.129 408.493,464.965 408.582,464.927C409.358,464.598 411.565,463.878 412.939,463.505C414.575,463.061 414.574,463.062 415.057,462.962C415.303,462.911 415.743,462.818 416.034,462.755C418.867,462.147 421.695,461.873 425.156,461.871C429.367,461.869 432.889,462.286 436.783,463.249C437.063,463.318 437.502,463.427 437.76,463.491C438.017,463.555 438.411,463.661 438.635,463.727C438.86,463.793 439.372,463.944 439.776,464.063C440.82,464.369 443.148,465.183 443.848,465.487C443.937,465.526 444.331,465.69 444.721,465.853C445.79,466.296 446.556,466.654 448.083,467.422C451.663,469.221 454.543,471.137 458.338,474.246C462.061,477.295 463.242,478.215 464.82,479.295C469.129,482.242 473.13,483.659 477.159,483.663C480.837,483.667 483.622,482.532 485.656,480.202C487.116,478.529 487.876,476.661 487.879,474.737C487.881,472.892 487.254,471.457 485.869,470.141C484.852,469.175 483.501,468.382 481.19,467.395C481.034,467.328 480.832,467.241 480.743,467.202C480.653,467.162 480.085,466.922 479.48,466.668C477.238,465.725 475.876,464.925 474.768,463.898C473.817,463.018 473.353,462.332 472.872,461.095C472.726,460.72 472.726,459.354 472.871,458.977C473.285,457.902 473.882,457.195 474.694,456.817C475.192,456.585 476.052,456.542 476.496,456.727C477.229,457.033 477.77,457.884 477.77,458.729C477.77,459.418 477.493,459.842 476.879,460.095C476.5,460.25 476.156,460.578 476.012,460.921C475.645,461.794 476.206,463.116 477.143,463.591C477.516,463.78 477.625,463.797 478.254,463.763C478.813,463.733 479.035,463.681 479.377,463.499C480.516,462.893 481.353,461.487 481.353,460.182C481.353,459.741 481.132,458.615 480.941,458.081C480.885,457.924 480.608,457.34 480.325,456.782C480.043,456.224 479.828,455.751 479.849,455.731C479.916,455.664 481.542,456.301 482.331,456.704C486.343,458.754 489.37,462.757 489.924,466.748C489.954,466.955 490.149,467.017 490.149,466.819C490.149,466.734 490.18,466.63 490.22,466.588C490.259,466.545 490.376,466.18 490.481,465.777C490.646,465.139 490.67,464.86 490.665,463.619C490.661,462.835 490.62,462.029 490.572,461.827C490.353,460.9 490.293,460.692 490.09,460.158C488.741,456.605 485.618,453.641 482.165,452.634C481.831,452.536 481.447,452.422 481.313,452.38C480.959,452.269 479.531,452.103 478.89,452.098C478.587,452.096 478.34,452.072 478.34,452.044C478.34,452.017 478.606,451.741 478.93,451.433C480.306,450.128 481.917,449.352 485.589,448.227C487.863,447.531 489.385,446.929 490.561,446.264C493.106,444.822 494.322,442.839 493.951,440.732C493.737,439.51 493.172,438.528 492.311,437.878C491.837,437.52 491.044,437.232 490.528,437.231C490.274,437.231 490.223,437.205 490.263,437.101C490.29,437.03 490.336,436.874 490.363,436.755C490.389,436.636 490.497,436.282 490.6,435.968C490.703,435.655 490.939,434.903 491.124,434.299C491.309,433.694 491.496,433.113 491.54,433.008C491.605,432.851 491.547,432.666 491.205,431.963C490.529,430.569 489.8,429.467 488.812,428.347C488.36,427.835 486.738,426.322 486.637,426.319C486.61,426.318 486.603,427.279 486.625,428.455C486.668,430.775 486.529,432.858 486.239,434.258C486.192,434.482 486.114,434.867 486.065,435.113C485.931,435.785 485.671,436.913 485.586,437.19C485.545,437.325 485.417,437.746 485.301,438.127C484.987,439.159 484.473,440.565 484.282,440.915C484.239,440.993 484.204,441.099 484.204,441.152C484.204,441.302 482.936,443.859 482.393,444.805C480.103,448.79 476.653,452.607 472.977,455.223C472.648,455.457 472.359,455.629 472.335,455.605C472.313,455.582 472.333,454.782 472.384,453.828C472.506,451.539 472.496,449.52 472.35,447.086C472.191,444.414 472.083,442.943 472.026,442.647C472,442.512 471.927,441.944 471.863,441.384C471.725,440.171 471.562,439.087 471.223,437.109C470.978,435.685 470.25,432.414 469.973,431.492C469.908,431.275 469.894,431.267 469.834,431.41C469.796,431.498 469.72,431.772 469.66,432.018C469.371,433.219 468.895,435.12 468.848,435.26C468.825,435.328 468.704,435.252 468.506,435.045C468.262,434.789 468.105,434.705 467.726,434.627C466.847,434.445 465.988,434.702 465.57,435.269C465.171,435.812 465.048,436.242 465.047,437.108C465.046,437.556 465.084,438.069 465.131,438.248C465.179,438.428 465.276,438.849 465.347,439.185C465.418,439.521 465.51,439.924 465.551,440.081C465.592,440.238 465.703,440.733 465.797,441.18C465.891,441.628 466.001,442.123 466.041,442.28C466.081,442.437 466.227,443.078 466.366,443.705C466.505,444.332 466.652,444.974 466.692,445.131C466.733,445.287 466.827,445.709 466.901,446.067C466.975,446.426 467.066,446.81 467.103,446.922C467.14,447.034 467.193,447.273 467.221,447.452C467.251,447.631 467.306,447.888 467.346,448.022C467.386,448.156 467.472,448.523 467.538,448.836C467.698,449.595 468.15,451.614 468.24,451.972C468.28,452.129 468.427,452.77 468.566,453.397C468.706,454.024 468.853,454.666 468.893,454.823C468.933,454.979 469.023,455.382 469.094,455.718C469.165,456.054 469.255,456.439 469.294,456.574C469.334,456.708 469.389,456.965 469.419,457.144C469.449,457.323 469.505,457.579 469.545,457.714C469.586,457.848 469.679,458.251 469.753,458.61C469.939,459.51 470.104,460.256 470.21,460.669C470.259,460.86 470.279,461.037 470.256,461.06C470.157,461.159 468.261,458.443 467.466,457.062C466.388,455.19 465.351,452.954 464.783,451.28C464.662,450.921 464.53,450.555 464.491,450.465C464.406,450.272 464.049,449.071 463.922,448.551C463.872,448.35 463.778,447.965 463.711,447.696C463.332,446.162 463.06,444.549 462.859,442.647C462.717,441.303 462.673,438.508 462.778,437.475C463.002,435.262 463.118,434.416 463.359,433.24C464.027,429.979 464.628,428.451 465.606,427.528C466.104,427.057 466.546,426.826 467.208,426.689C467.76,426.575 467.885,426.574 468.405,426.681C469.174,426.843 469.619,427.153 469.892,427.715C470.006,427.953 470.309,428.715 470.563,429.409C470.817,430.104 471.059,430.745 471.099,430.835C471.184,431.024 471.561,432.044 471.657,432.341C471.691,432.453 471.949,433.15 472.226,433.889C472.865,435.59 472.919,435.733 473.071,436.129C473.14,436.308 473.494,437.261 473.858,438.246C474.222,439.232 474.555,440.102 474.597,440.179C474.64,440.257 474.674,440.362 474.674,440.411C474.674,440.461 474.725,440.617 474.787,440.759C474.849,440.9 475.019,441.345 475.166,441.748C475.529,442.748 475.772,443.248 476.072,443.611C476.841,444.544 477.884,444.562 478.704,443.654C479.575,442.69 481.379,439.422 482.004,437.676C482.148,437.273 482.296,436.87 482.333,436.78C482.652,436.002 483.121,434.073 483.35,432.586C483.816,429.572 483.758,427.261 483.106,422.853C482.981,422.003 482.792,420.678 482.648,419.636C482.602,419.3 482.534,418.714 482.496,418.333C482.405,417.404 482.448,413.977 482.555,413.568C482.603,413.389 482.704,412.968 482.78,412.632C483.074,411.331 483.54,410.193 484.077,409.461C484.993,408.214 486.726,407.172 487.881,407.176C488.532,407.178 489.288,407.534 489.767,408.064C490.263,408.613 490.487,409.223 490.672,410.522C490.745,411.033 490.845,411.707 490.896,412.021C491.081,413.173 491.491,414.045 492.025,414.426C492.495,414.761 492.511,414.704 492.508,412.695C492.504,409.554 492.092,407.852 490.908,406.061C490.594,405.586 489.716,404.728 489.159,404.352C488.706,404.046 487.619,403.51 487.452,403.51C487.385,403.51 487.296,403.476 487.253,403.437C487.21,403.396 486.781,403.297 486.298,403.217C485.471,403.078 485.376,403.077 484.649,403.201C482.888,403.506 481.554,404.586 480.589,406.488C479.957,407.734 479.502,409.204 479.304,410.635C479.169,411.608 479.122,414.504 479.227,415.4C479.277,415.825 479.354,416.522 479.398,416.947C479.489,417.818 479.583,418.548 479.766,419.798C480.156,422.461 480.266,423.324 480.38,424.603C480.493,425.876 480.438,429.534 480.297,430.101C480.241,430.325 480.164,430.636 480.126,430.793C479.882,431.797 479.625,432.486 479.137,433.44C478.783,434.134 478.172,435.028 478.053,435.028C477.997,435.028 477.89,434.799 477.815,434.519C477.74,434.239 477.641,433.882 477.595,433.725C477.549,433.568 477.469,433.269 477.416,433.06C477.364,432.851 477.293,432.652 477.26,432.619C477.226,432.585 477.199,432.495 477.199,432.418C477.199,432.34 477.146,432.099 477.081,431.881C477.016,431.663 476.851,431.1 476.713,430.63C476.576,430.16 476.431,429.665 476.391,429.53C476.351,429.396 476.202,428.865 476.06,428.35C475.918,427.834 475.768,427.349 475.727,427.271C475.685,427.194 475.651,427.079 475.651,427.016C475.651,426.953 475.597,426.724 475.532,426.506C475.465,426.288 475.298,425.725 475.16,425.254C475.022,424.784 474.878,424.343 474.842,424.274C474.804,424.206 474.749,424.023 474.716,423.867C474.682,423.712 474.631,423.548 474.6,423.503C474.57,423.458 474.496,423.275 474.436,423.096C474.377,422.917 474.246,422.587 474.146,422.363C474.045,422.139 473.935,421.865 473.9,421.754C473.797,421.426 472.969,419.878 472.613,419.35C471.809,418.153 470.863,417.18 469.828,416.481C469.043,415.952 468.791,415.844 467.262,415.387C467.013,415.312 466.426,415.278 465.43,415.278C464.15,415.28 463.881,415.305 463.312,415.466C461.715,415.921 460.491,416.819 459.949,417.931C459.805,418.225 459.688,418.519 459.688,418.583C459.688,418.788 459.291,419.8 459.036,420.245C458.651,420.919 457.781,421.871 456.63,422.88C454.221,424.99 453.271,426.032 451.976,427.983C451.148,429.23 450.159,431.318 449.758,432.666C449.658,433.002 449.546,433.368 449.508,433.48C449.426,433.725 449.226,434.573 449.105,435.191C448.728,437.115 448.729,440.293 449.107,441.991C449.467,443.607 449.669,444.294 450.116,445.415C451.237,448.225 452.834,450.795 455.707,454.412C455.915,454.673 456.925,455.888 457.952,457.113C463.237,463.41 465.146,466.172 466.447,469.398C466.546,469.644 466.659,469.919 466.698,470.008C466.737,470.098 466.88,470.511 467.016,470.926C467.257,471.664 467.323,472.044 467.201,471.99C467.139,471.964 466.759,471.68 460.758,467.198C458.928,465.832 457.197,464.545 456.91,464.338C456.624,464.132 455.803,463.538 455.086,463.019C454.369,462.5 453.673,461.999 453.538,461.905C453.404,461.811 453.059,461.566 452.773,461.361C451.754,460.634 448.55,458.5 447.226,457.669C443.815,455.525 440.423,453.664 437.534,452.353C437.288,452.241 436.878,452.054 436.623,451.937C436.369,451.82 436.142,451.724 436.12,451.724C436.086,451.724 435.454,451.448 434.806,451.15C433.595,450.594 428.999,449.063 427.333,448.661C427.076,448.599 426.636,448.491 426.356,448.42C424.243,447.892 421.681,447.456 419.454,447.245C414.92,446.816 410.129,447.147 406.056,448.172C405.787,448.239 405.347,448.349 405.078,448.415C403.991,448.682 401.293,449.55 400.599,449.856C400.509,449.895 400.235,450.003 399.988,450.095C399.742,450.187 399.467,450.295 399.377,450.336C399.288,450.376 398.848,450.566 398.4,450.758C397.425,451.174 394.977,452.385 394.124,452.872C390.205,455.108 387.399,457.026 383.78,459.942C379.899,463.069 376.319,466.392 370.954,471.846C368.208,474.638 367.595,475.236 366.88,475.825C365.006,477.368 362.572,478.825 360.341,479.739L359.502,480.082L359.01,479.545C358.739,479.25 358.466,479.008 358.403,479.008C358.339,479.008 358.288,478.974 358.288,478.931C358.288,478.855 357.975,478.654 357.697,478.553C357.619,478.522 357.555,478.471 357.555,478.436C357.555,478.402 357.399,478.345 357.209,478.313C357.018,478.283 356.837,478.214 356.805,478.163C356.724,478.037 354.527,478.037 354.371,478.164C354.308,478.214 354.129,478.283 353.974,478.317C353.645,478.387 353.471,478.476 353.064,478.784C352.9,478.907 352.734,479.008 352.694,479.008C352.587,479.008 351.854,479.771 351.854,479.882C351.854,479.934 351.808,480.007 351.752,480.043C351.636,480.117 351.486,480.342 351.356,480.637C351.306,480.749 351.233,480.905 351.192,480.985C351.151,481.065 351.095,481.294 351.067,481.494C351.041,481.695 350.986,481.859 350.947,481.859C350.908,481.859 350.877,482.207 350.877,482.633C350.877,483.058 350.907,483.406 350.948,483.406L350.947,483.41ZM352.517,481.65C353.268,479.619 355.638,478.751 357.567,479.8C358.772,480.456 359.511,481.989 359.284,483.358C358.812,486.21 355.284,487.298 353.291,485.208C352.362,484.234 352.066,482.871 352.517,481.65ZM453.413,440.163C453.609,437.426 453.779,436.152 454.195,434.299C454.389,433.433 454.661,432.522 454.807,432.243C454.848,432.165 454.881,432.063 454.881,432.015C454.881,431.934 455.082,431.442 455.313,430.959C455.577,430.407 456.084,429.557 456.457,429.046C456.942,428.378 457.96,427.294 458.102,427.294C458.386,427.294 458.575,428.661 458.455,429.853C458.411,430.297 458.34,430.726 458.297,430.805C458.255,430.884 458.22,431.006 458.22,431.076C458.22,431.209 457.441,433.224 457.116,433.932C456.561,435.142 456.124,436.307 455.94,437.068C455.663,438.21 455.606,438.599 455.564,439.634C455.488,441.524 455.734,443.141 456.429,445.294C456.557,445.692 456.676,446.009 457.024,446.882C457.26,447.476 458.487,449.812 458.992,450.629C459.599,451.611 459.858,451.99 461.16,453.805C463.289,456.772 464.126,458.445 464.49,460.458C464.608,461.11 464.548,461.271 464.305,460.954C464.147,460.749 463.418,459.893 458.911,454.619C456.059,451.282 455.266,450.181 454.483,448.465C454.091,447.607 454.099,447.631 453.75,446.393C453.39,445.114 453.247,442.479 453.413,440.163L453.413,440.163ZM458.856,439.314C458.886,439.002 458.955,438.736 459.008,438.719C459.061,438.704 459.219,438.791 459.362,438.918C459.741,439.257 459.848,439.778 459.933,441.718C459.973,442.641 460.045,443.495 460.091,443.617C460.137,443.739 460.175,443.934 460.175,444.052C460.175,444.409 460.555,445.942 460.907,447.004C461.126,447.664 461.205,447.875 461.443,448.43C461.501,448.564 461.624,448.851 461.717,449.068C461.985,449.692 461.908,450.262 461.555,450.262C461.362,450.262 461.07,449.826 460.556,448.767C460.038,447.702 459.975,447.549 459.662,446.597C459.411,445.834 459.316,445.486 459.03,444.276C458.987,444.097 458.915,443.53 458.868,443.017C458.822,442.504 458.763,442.064 458.737,442.04C458.687,441.992 458.764,440.242 458.856,439.314L458.856,439.314ZM461.232,429.095C461.275,428.709 461.369,427.881 461.441,427.254C461.619,425.693 462.262,422.542 462.537,421.878C462.575,421.789 462.67,421.523 462.75,421.289C462.94,420.728 463.385,420.158 463.84,419.893L464.207,419.679L466.284,419.679C468.442,419.679 468.85,419.729 469.827,420.109C471.116,420.611 472.182,421.783 472.768,423.344C472.885,423.658 473.011,423.988 473.046,424.077C473.235,424.557 473.521,426.277 473.736,428.231C473.805,428.858 473.895,429.554 473.936,429.778C473.978,430.002 474.035,430.387 474.064,430.634C474.094,430.88 474.148,431.21 474.187,431.367C474.226,431.523 474.319,431.926 474.393,432.262C474.852,434.336 475.907,436.314 477.172,437.475C477.441,437.721 477.864,438.096 478.113,438.307C478.764,438.861 478.948,439.279 478.946,440.203C478.946,440.733 478.901,441.049 478.787,441.344C478.55,441.952 477.795,443.254 477.677,443.256C477.568,443.258 477.188,442.577 476.406,440.977C475.455,439.033 475.162,438.397 475.162,438.286C475.162,438.242 475.127,438.142 475.084,438.064C474.972,437.86 474.818,437.471 474.446,436.457C473.775,434.623 473.447,433.531 472.76,430.837C472.051,428.053 470.563,426.214 468.552,425.635C466.474,425.036 464.007,426.424 462.946,428.79C462.581,429.604 462.257,430.836 462.172,431.733C462.097,432.52 461.94,433.403 461.874,433.403C461.726,433.403 461.388,433.008 461.281,432.71C461.141,432.318 461.112,430.165 461.232,429.095L461.232,429.095ZM468.567,464.309C468.788,464.173 469.46,464.938 469.46,465.325C469.46,465.531 469.448,465.531 469.052,465.329C468.605,465.101 468.306,464.471 468.567,464.309L468.567,464.309ZM471.801,467.613C472.009,467.615 472.229,467.699 472.487,467.877C474.409,469.2 478.3,473.087 480.393,475.773C481.781,477.555 482.053,478.155 481.803,478.89C481.304,480.36 479.912,481.143 477.382,481.379C476.391,481.471 475.89,481.433 475.589,481.242C475.303,481.061 475.366,480.991 475.897,480.897C477.008,480.701 478.028,479.942 478.518,478.948C478.775,478.425 478.785,478.369 478.778,477.466C478.771,476.702 478.736,476.429 478.582,475.998C478.048,474.507 477.604,473.976 472.613,468.872C472,468.245 471.498,467.704 471.497,467.67C471.497,467.636 471.633,467.611 471.801,467.612L471.801,467.613ZM480.19,460.213C480.368,460.247 480.442,460.687 480.27,460.687C480.107,460.687 480.048,460.606 480.048,460.382C480.048,460.239 480.086,460.194 480.19,460.213ZM397.96,480.875C398.034,481.24 398.362,481.56 398.657,481.556C398.784,481.555 399.694,481.515 400.679,481.469C405.191,481.259 407.631,481.189 408.869,481.236C409.606,481.263 411.381,481.325 412.815,481.37C414.248,481.416 415.751,481.489 416.154,481.533C416.557,481.577 417.382,481.635 417.987,481.662C418.591,481.688 419.15,481.729 419.228,481.751C419.306,481.774 419.966,481.843 420.694,481.908C424.834,482.273 427.302,482.658 428.859,483.184C430.601,483.772 431.291,484.236 433.013,485.984C434.433,487.424 434.903,487.802 435.787,488.211C437.427,488.97 439.65,489.074 441.015,488.456C441.317,488.319 441.688,488.089 441.84,487.946C442.148,487.653 442.416,487.137 442.418,486.83C442.422,486.203 441.951,485.484 441.483,485.403C441.262,485.365 441.202,485.407 440.847,485.865C440.631,486.142 440.365,486.546 440.255,486.762C440.131,487.007 440.002,487.155 439.914,487.154C439.723,487.152 438.652,486.489 437.899,485.907C436.81,485.067 435.541,483.436 435.024,482.213C434.784,481.645 434.79,481.621 435.151,481.708C435.319,481.749 435.713,481.84 436.027,481.912C436.34,481.984 436.817,482.095 437.085,482.16C437.354,482.224 437.803,482.33 438.083,482.394C438.363,482.458 438.831,482.566 439.122,482.634C439.413,482.702 439.88,482.81 440.16,482.874C442.283,483.359 442.879,483.512 443.369,483.696C445.485,484.492 447.285,486.149 449.605,489.436C450.508,490.716 450.842,491.288 451.011,491.845C451.223,492.543 451.178,492.814 450.687,493.79C450.157,494.843 450.109,495.215 450.452,495.623C450.683,495.897 451.043,496.115 451.265,496.115C451.342,496.115 451.701,495.809 452.063,495.435C452.849,494.626 453.47,494.294 455.302,493.706C458.389,492.714 459.09,492.284 459.753,490.979C460.015,490.464 460.125,490.334 460.486,490.117C461.038,489.785 461.846,489.615 463.107,489.566C464.578,489.508 465.226,489.248 465.676,488.536C465.826,488.298 465.876,488.105 465.876,487.772C465.876,487.347 465.857,487.308 465.478,486.928C464.894,486.344 464.788,486.095 464.791,485.323C464.795,484.392 465.074,483.867 466.121,482.817C467.026,481.909 467.03,481.94 466.014,481.777C464.874,481.594 463.657,481.807 461.112,482.636C460.798,482.738 460.267,482.902 459.931,483.001C459.595,483.1 459.21,483.213 459.076,483.253C458.412,483.452 457.674,483.589 456.439,483.743C455.278,483.888 454.795,483.907 453.049,483.871C450.155,483.812 447.549,483.455 444.09,482.642C443.821,482.579 443.363,482.472 443.072,482.404C442.367,482.238 438.63,481.286 437.452,480.971C436.937,480.833 436.076,480.609 435.538,480.471C435.001,480.333 434.506,480.196 434.439,480.166C434.298,480.102 435.945,480.053 442.502,479.924C445.077,479.873 448.101,479.794 449.221,479.749C450.341,479.703 452.98,479.643 455.085,479.615C460.098,479.548 461.179,479.495 461.598,479.291C461.775,479.204 461.976,479.034 462.044,478.913C462.159,478.708 462.153,478.663 461.952,478.254C461.66,477.658 460.992,476.873 460.414,476.448C459.999,476.143 458.831,475.517 458.343,475.339C456.427,474.639 453.931,474.604 450.443,475.226C450.039,475.298 449.435,475.406 449.099,475.466C446.365,475.958 443.818,476.295 441.402,476.486C440.82,476.532 439.894,476.606 439.344,476.65C438.123,476.748 437.371,476.753 437.371,476.661C437.371,476.59 439.145,476.036 440.277,475.754C442.581,475.181 444.463,474.946 448.121,474.778C449.443,474.718 449.88,474.668 450.217,474.542C452.105,473.835 452.644,472.064 451.262,471.113C450.876,470.848 449.576,470.377 449.229,470.377C449.017,470.377 448.933,470.194 449.099,470.092C449.224,470.014 449.196,469.583 449.046,469.294C448.796,468.812 448.572,468.572 448.04,468.221C447.22,467.679 447.337,467.723 443.398,466.468C442.659,466.232 441.742,465.938 441.362,465.815C440.077,465.398 438.799,465.007 438.311,464.882C437.04,464.555 436.107,464.897 435.764,465.816C435.634,466.164 435.625,466.324 435.69,467.094C435.732,467.578 435.768,468.707 435.772,469.603C435.78,471.228 435.719,471.727 435.402,472.616C434.854,474.16 433.795,475.469 432.584,476.102C431.958,476.428 431.42,476.603 430.488,476.782C430.13,476.851 429.58,476.959 429.267,477.021C428.474,477.179 427.438,477.368 426.62,477.505C426.239,477.568 425.836,477.638 425.724,477.659C425.326,477.738 423.8,477.964 423.158,478.04C422.8,478.083 422.442,478.137 422.363,478.162C422.09,478.247 418.671,478.635 416.746,478.8C415.996,478.864 415.354,478.934 415.32,478.954C415.286,478.973 414.672,479.017 413.955,479.048C413.238,479.078 412.414,479.14 412.122,479.185C411.83,479.229 408.86,479.282 405.485,479.303C398.711,479.346 398.764,479.342 398.239,479.866C397.951,480.155 397.872,480.44 397.96,480.872L397.96,480.875ZM461.348,493.785C461.686,493.945 462.367,493.956 462.725,493.808C463.087,493.657 463.514,493.213 463.514,492.988C463.514,492.736 463.214,492.615 462.59,492.615C462.168,492.615 462.016,492.655 461.708,492.851C461.336,493.087 461.071,493.382 461.071,493.56C461.071,493.613 461.196,493.715 461.348,493.787L461.348,493.785ZM463.005,491.583C463.589,491.882 464.248,491.766 464.574,491.309C464.797,490.996 464.778,490.847 464.496,490.701C464.036,490.464 463.426,490.586 462.964,491.008C462.718,491.233 462.734,491.444 463.005,491.583L463.005,491.583ZM463.766,496.72C463.986,496.905 464.079,496.929 464.492,496.905C464.76,496.89 465.058,496.816 465.18,496.736C465.443,496.564 465.591,496.222 465.467,496.072C465.344,495.924 463.918,495.824 463.688,495.946C463.421,496.09 463.458,496.461 463.767,496.72L463.766,496.72ZM466.339,493.705C466.873,493.887 467.267,493.87 467.594,493.649C467.954,493.407 468.071,493.085 467.907,492.791C467.804,492.607 467.721,492.568 467.38,492.546C466.589,492.494 465.958,492.831 465.958,493.304C465.958,493.554 465.988,493.585 466.339,493.705L466.339,493.705ZM466.514,490.931C466.736,491.132 467.456,491.114 467.668,490.905C467.883,490.69 467.874,490.382 467.649,490.167C467.494,490.02 467.399,490 467.033,490.036C466.794,490.059 466.547,490.123 466.483,490.176C466.317,490.314 466.337,490.771 466.517,490.933L466.514,490.931ZM491.624,430.532C491.746,430.652 492.171,430.665 492.458,430.554C492.711,430.458 492.863,430.187 492.802,429.942C492.742,429.702 492.244,429.454 492.041,429.562C491.66,429.766 491.418,430.327 491.624,430.53L491.624,430.532ZM493.812,432.751C493.997,432.936 494.047,432.945 494.332,432.836C494.775,432.668 494.925,431.823 494.58,431.442C494.396,431.238 494.285,431.244 494.08,431.468C493.651,431.938 493.538,432.477 493.812,432.751L493.812,432.751ZM493.975,436.742C494.373,437.14 495.23,436.808 495.214,436.261C495.207,435.958 495.097,435.802 494.779,435.637C494.464,435.474 494.35,435.489 494.062,435.731C493.861,435.9 493.812,436.005 493.812,436.261C493.812,436.471 493.867,436.635 493.975,436.742L493.975,436.742ZM496.147,433.674C496.177,433.704 496.34,433.729 496.51,433.729C496.74,433.729 496.893,433.664 497.107,433.476C497.35,433.262 497.395,433.17 497.395,432.883C497.395,432.514 497.216,432.181 497.017,432.181C496.801,432.181 496.421,432.507 496.253,432.836C496.094,433.148 496.041,433.568 496.147,433.674L496.147,433.674Z" style="fill:rgb(249,204,157);fill-rule:nonzero;"/>
    </g>
</svg>
