<?xml version="1.0" encoding="UTF-8" standalone="no"?>
<!DOCTYPE svg PUBLIC "-//W3C//DTD SVG 1.1//EN" "http://www.w3.org/Graphics/SVG/1.1/DTD/svg11.dtd">
<svg width="100%" height="100%" viewBox="0 0 512 512" version="1.1" xmlns="http://www.w3.org/2000/svg" xmlns:xlink="http://www.w3.org/1999/xlink" xml:space="preserve" xmlns:serif="http://www.serif.com/" style="fill-rule:evenodd;clip-rule:evenodd;stroke-linejoin:round;stroke-miterlimit:2;">
    <g id="Layer-1" serif:id="Layer 1">
        <g id="path4606" transform="matrix(1.06747,0,0,1.06747,-17.7215,-17.0822)">
            <path d="M39.242,29.225C33.724,29.225 29.225,33.687 29.225,39.183L29.225,472.817C29.225,478.313 33.724,482.768 39.242,482.768L472.758,482.768C478.276,482.768 482.768,478.313 482.768,472.817L482.768,39.183C482.768,33.687 478.276,29.225 472.758,29.225L39.242,29.225ZM39.242,32.074L472.758,32.074C476.758,32.074 479.926,35.227 479.926,39.183L479.926,472.817C479.926,476.774 476.758,479.926 472.758,479.926L39.242,479.926C35.243,479.926 32.074,476.774 32.074,472.817L32.074,39.183C32.074,35.227 35.243,32.074 39.242,32.074Z" style="fill:rgb(185,217,203);fill-rule:nonzero;"/>
        </g>
        <g id="path2584" transform="matrix(1.06747,0,0,1.06747,-17.7215,-17.0822)">
            <path d="M350.947,28.123C350.986,28.123 351.042,27.94 351.072,27.716C351.102,27.492 351.161,27.308 351.205,27.308C351.248,27.308 351.283,27.222 351.283,27.116C351.283,27.01 351.356,26.83 351.446,26.716C351.536,26.602 351.609,26.469 351.609,26.42C351.609,26.371 351.647,26.331 351.693,26.331C351.739,26.331 351.799,26.267 351.826,26.189C351.886,26.017 352.591,25.272 352.693,25.272C352.733,25.272 352.9,25.172 353.063,25.048C353.471,24.741 353.645,24.651 353.973,24.581C354.129,24.547 354.301,24.484 354.356,24.44C354.412,24.395 354.511,24.379 354.578,24.406C354.644,24.432 354.72,24.417 354.746,24.375C354.807,24.278 356.307,24.271 356.366,24.368C356.389,24.406 356.502,24.421 356.615,24.398C356.728,24.375 356.821,24.396 356.821,24.44C356.821,24.485 356.986,24.547 357.188,24.577C357.389,24.607 357.554,24.662 357.554,24.699C357.554,24.737 357.619,24.789 357.697,24.818C357.974,24.92 358.287,25.12 358.287,25.196C358.287,25.239 358.338,25.273 358.401,25.273C358.533,25.273 359.361,26.146 359.541,26.474C359.692,26.751 359.836,27.054 359.916,27.269C360.145,27.879 360.146,27.88 360.459,27.88C360.625,27.88 360.965,27.918 361.214,27.961C361.463,28.006 362.125,28.101 362.685,28.173C363.754,28.309 364.866,28.462 366.228,28.662C366.676,28.727 367.409,28.833 367.857,28.897C368.305,28.961 369.029,29.07 369.465,29.139C369.902,29.208 370.599,29.318 371.013,29.383C371.427,29.448 372.114,29.56 372.54,29.631C372.966,29.703 373.662,29.818 374.087,29.887C374.513,29.956 375.154,30.063 375.513,30.124C375.871,30.186 376.61,30.307 377.154,30.393C377.699,30.48 378.207,30.586 378.283,30.628C378.447,30.72 378.486,30.715 374.291,31.171C373.664,31.239 372.638,31.351 372.011,31.42C371.383,31.488 370.423,31.592 369.875,31.65C369.328,31.708 368.854,31.783 368.821,31.815C368.749,31.887 369.109,32.261 373.558,36.72C377.545,40.716 379.926,42.951 382.802,45.399C383.574,46.056 384.525,46.836 384.877,47.1C385.027,47.212 385.546,47.617 386.032,47.999C386.804,48.607 387.799,49.342 388.94,50.148C392.694,52.798 397.175,55.238 401.249,56.85C403.296,57.659 406.692,58.724 408.172,59.02C408.307,59.046 408.765,59.144 409.19,59.237C410.6,59.544 412.179,59.778 414.199,59.979C415.371,60.096 419.49,60.096 420.633,59.978C424.554,59.576 427.315,58.981 431.058,57.731C432.477,57.258 434.054,56.652 435.293,56.105C435.562,55.987 435.89,55.845 436.023,55.791C436.717,55.507 440.38,53.652 441.727,52.902C445.335,50.894 450.547,47.509 454.535,44.583C454.815,44.377 455.438,43.925 455.919,43.578C456.401,43.232 459.159,41.223 462.048,39.115C467.751,34.954 467.982,34.791 468.393,34.652C469.439,34.297 471.017,35.03 471.783,36.227C472.083,36.697 472.31,37.41 472.31,37.884C472.31,39.032 471.519,40.709 470.287,42.173C470.061,42.442 469.905,42.672 469.94,42.684C470.128,42.752 472.697,40.967 473.659,40.101C474.953,38.936 475.809,37.582 476.095,36.247C476.221,35.664 476.221,35.566 476.103,34.984C475.792,33.475 474.737,32.108 473.371,31.442C472.876,31.201 472.783,31.184 471.946,31.181C471.155,31.179 471.007,31.2 470.683,31.372C470.316,31.566 466.892,33.86 463.923,35.901C459.705,38.8 455.612,41.495 453.127,43.008C449.737,45.073 447.08,46.499 443.608,48.116C441.293,49.194 437.606,50.557 435.458,51.128C435.234,51.188 434.758,51.316 434.4,51.412C433.726,51.594 433.492,51.65 432.526,51.863C424.708,53.584 416.117,53.417 408.011,51.387C407.743,51.319 407.358,51.223 407.156,51.173C405.429,50.745 401.813,49.537 400.437,48.928C400.302,48.869 399.973,48.731 399.704,48.623C398.191,48.012 395.183,46.501 393.596,45.554C389.763,43.268 387.05,41.175 384.101,38.228C381.575,35.705 380.625,34.493 380.007,33.01C379.53,31.866 379.515,30.764 379.962,29.768C380.628,28.286 381.917,27.551 383.548,27.722C385.936,27.973 386.973,28.145 388.424,28.533C388.939,28.671 389.507,28.819 389.686,28.862C389.865,28.906 390.085,28.975 390.175,29.016C390.264,29.057 390.612,29.184 390.948,29.297C393.461,30.145 397.166,31.908 400.722,33.949C401.864,34.604 403,35.254 403.247,35.392C403.493,35.529 403.823,35.723 403.98,35.821C404.517,36.157 407.522,37.871 408.907,38.631C410.335,39.415 413.863,41.155 414.024,41.155C414.047,41.155 414.299,41.26 414.582,41.389C415.145,41.645 416.605,42.195 417.377,42.442C418.458,42.788 418.717,42.864 419.617,43.098C422.573,43.865 425.306,44.013 427.247,43.509C428.165,43.271 429.177,42.759 429.703,42.265C430.109,41.884 430.612,41.217 430.612,41.059C430.612,40.891 428.314,39.531 426.988,38.915C425.93,38.422 424.12,37.753 423.221,37.522C422.985,37.461 422.582,37.355 422.325,37.287C420.235,36.731 417.855,36.479 415.3,36.544C412.976,36.603 412.694,36.668 413.529,36.951C413.764,37.031 414.03,37.13 414.12,37.17C414.583,37.38 418.213,38.521 419.413,38.834C421.28,39.321 421.896,39.473 422.712,39.651C423.227,39.763 423.887,39.907 424.178,39.971C424.662,40.079 425.34,40.214 425.909,40.318C426.032,40.34 426.133,40.401 426.133,40.452C426.133,40.588 425.21,41.188 424.504,41.511C423.335,42.045 422.681,42.173 421.124,42.173C420.01,42.173 419.628,42.143 419.169,42.016C418.602,41.861 417.744,41.522 417.744,41.454C417.744,41.384 419.501,40.871 420.533,40.639C420.746,40.592 420.92,40.523 420.92,40.487C420.92,40.453 420.471,40.419 419.923,40.416C418.944,40.408 418.603,40.375 417.622,40.18C415.256,39.71 412.626,38.283 411.06,36.621C410.532,36.061 410.17,35.622 410.17,35.542C410.17,35.463 410.663,35.323 411.351,35.209C416.4,34.368 421.449,34.835 425.999,36.562C427.092,36.977 427.129,36.994 428.332,37.581C430.275,38.529 431.887,39.582 432.915,40.574C433.653,41.288 433.987,41.776 434.25,42.526C435.047,44.803 433.104,47.336 429.961,48.119C429.423,48.252 426.983,48.314 426.632,48.203C426.543,48.176 426.184,48.103 425.834,48.043C423.982,47.728 419.054,46.039 415.789,44.6C415.543,44.492 415.268,44.371 415.178,44.332C415.089,44.294 414.704,44.118 414.323,43.943C413.943,43.767 413.393,43.517 413.102,43.387C410.5,42.224 406.22,39.854 403.084,37.84C400.614,36.255 398.253,34.879 396.564,34.043C394.798,33.168 394.74,33.141 393.84,32.799C392.99,32.477 392.203,32.232 391.519,32.079C391.183,32.003 390.775,31.907 390.613,31.865C390.451,31.822 389.834,31.747 389.242,31.698C387.533,31.555 386.037,31.732 384.514,32.262L384.066,32.418L384.082,32.856C384.112,33.779 384.647,35.221 385.382,36.36C386.776,38.522 389.052,40.607 392.575,42.951C393.692,43.694 395.384,44.738 395.473,44.738C395.496,44.738 395.666,44.834 395.853,44.952C396.215,45.18 398.676,46.424 399.623,46.856C399.937,47 400.743,47.335 401.415,47.601C402.087,47.867 402.71,48.118 402.8,48.159C403.135,48.313 405.545,49.12 406.424,49.372C406.76,49.468 407.145,49.581 407.279,49.621C407.562,49.706 409.618,50.201 410.455,50.385C412.576,50.851 415.663,51.261 418.175,51.411C420.877,51.572 425.202,51.486 423.35,51.308C422.127,51.191 419.561,50.81 418.274,50.555C416.24,50.153 415.832,50.062 414.12,49.626C412.885,49.312 411.926,49.045 411.474,48.891C411.362,48.853 410.995,48.744 410.659,48.649C410.323,48.554 409.992,48.445 409.923,48.409C409.855,48.371 409.673,48.314 409.519,48.281C409.365,48.247 409.183,48.189 409.114,48.152C409.046,48.114 408.641,47.969 408.216,47.827C407.79,47.685 407.332,47.524 407.198,47.468C407.063,47.413 406.642,47.247 406.261,47.098C404.658,46.473 402.608,45.567 400.99,44.768C396.179,42.393 393.13,39.901 391.584,37.082C391.374,36.698 390.954,35.643 390.79,35.086C390.69,34.748 390.543,33.484 390.596,33.422C390.645,33.365 392.243,33.558 392.822,33.69C393.829,33.92 394.088,33.993 394.818,34.245C397.446,35.153 399.502,36.477 401.507,38.553C402.398,39.476 403.611,41.225 403.463,41.373C403.429,41.407 402.99,41.435 402.489,41.434C401.405,41.432 400.657,41.238 399.814,40.742C399.283,40.429 398.52,39.741 398.347,39.419C398.265,39.264 398.28,39.26 398.698,39.314C398.938,39.344 399.244,39.404 399.379,39.445C399.513,39.487 399.88,39.6 400.193,39.697C400.507,39.794 400.978,39.981 401.24,40.112C401.502,40.243 401.733,40.334 401.753,40.313C401.815,40.251 400.975,39.275 400.283,38.605C399.525,37.871 397.973,36.796 397.07,36.379C396.727,36.221 396.337,36.04 396.203,35.978C395.145,35.484 392.09,34.83 392.09,35.097C392.09,35.127 392.374,35.464 392.721,35.848C395.633,39.076 399.092,41.807 403.125,44.062C404.193,44.659 406.506,45.765 407.686,46.241C408.089,46.404 408.493,46.568 408.582,46.606C409.358,46.935 411.565,47.655 412.939,48.028C414.575,48.471 414.574,48.471 415.057,48.571C415.303,48.622 415.743,48.715 416.034,48.778C418.867,49.386 421.695,49.66 425.156,49.662C429.367,49.664 432.889,49.247 436.783,48.284C437.063,48.215 437.502,48.106 437.76,48.042C438.017,47.978 438.411,47.872 438.635,47.806C438.86,47.74 439.372,47.588 439.776,47.47C440.82,47.164 443.148,46.349 443.848,46.046C443.937,46.007 444.331,45.843 444.721,45.68C445.79,45.236 446.556,44.879 448.083,44.111C451.663,42.312 454.543,40.395 458.338,37.287C462.061,34.238 463.242,33.318 464.82,32.238C469.129,29.291 473.13,27.874 477.159,27.87C480.837,27.866 483.622,29 485.656,31.331C487.116,33.004 487.876,34.872 487.879,36.796C487.881,38.641 487.254,40.076 485.869,41.392C484.852,42.357 483.501,43.15 481.19,44.138C481.034,44.204 480.832,44.291 480.743,44.331C480.653,44.37 480.085,44.611 479.48,44.865C477.238,45.808 475.876,46.608 474.768,47.634C473.817,48.515 473.353,49.2 472.872,50.438C472.726,50.812 472.726,52.179 472.871,52.556C473.285,53.631 473.882,54.338 474.694,54.716C475.192,54.948 476.052,54.991 476.496,54.806C477.229,54.5 477.77,53.649 477.77,52.804C477.77,52.115 477.493,51.69 476.879,51.438C476.5,51.283 476.156,50.954 476.012,50.612C475.645,49.739 476.206,48.417 477.143,47.942C477.516,47.753 477.625,47.736 478.254,47.77C478.813,47.8 479.035,47.852 479.377,48.034C480.516,48.64 481.353,50.045 481.353,51.351C481.353,51.792 481.132,52.918 480.941,53.452C480.885,53.609 480.608,54.193 480.325,54.751C480.043,55.309 479.828,55.782 479.849,55.802C479.916,55.869 481.542,55.232 482.331,54.829C486.343,52.779 489.37,48.776 489.924,44.785C489.954,44.578 490.149,44.516 490.149,44.714C490.149,44.799 490.18,44.903 490.22,44.945C490.259,44.988 490.376,45.353 490.481,45.756C490.646,46.394 490.67,46.673 490.665,47.914C490.661,48.698 490.62,49.504 490.572,49.706C490.353,50.633 490.293,50.841 490.09,51.375C488.741,54.927 485.618,57.892 482.165,58.899C481.831,58.997 481.447,59.111 481.313,59.153C480.959,59.264 479.531,59.43 478.89,59.435C478.587,59.437 478.34,59.461 478.34,59.489C478.34,59.516 478.606,59.792 478.93,60.1C480.306,61.405 481.917,62.181 485.589,63.306C487.863,64.002 489.385,64.604 490.561,65.269C493.106,66.711 494.322,68.694 493.951,70.801C493.737,72.023 493.172,73.005 492.311,73.655C491.837,74.013 491.044,74.3 490.528,74.301C490.274,74.302 490.223,74.328 490.263,74.432C490.29,74.503 490.336,74.659 490.363,74.778C490.389,74.897 490.497,75.251 490.6,75.565C490.703,75.878 490.939,76.63 491.124,77.234C491.309,77.839 491.496,78.42 491.54,78.525C491.605,78.682 491.547,78.867 491.205,79.57C490.529,80.963 489.8,82.065 488.812,83.186C488.36,83.698 486.738,85.211 486.637,85.214C486.61,85.215 486.603,84.254 486.625,83.078C486.668,80.757 486.529,78.675 486.239,77.275C486.192,77.051 486.114,76.666 486.065,76.42C485.931,75.748 485.671,74.62 485.586,74.343C485.545,74.208 485.417,73.787 485.301,73.406C484.987,72.373 484.473,70.967 484.282,70.618C484.239,70.54 484.204,70.433 484.204,70.381C484.204,70.231 482.936,67.674 482.393,66.728C480.103,62.743 476.653,58.926 472.977,56.31C472.648,56.076 472.359,55.904 472.335,55.928C472.313,55.95 472.333,56.751 472.384,57.705C472.506,59.994 472.496,62.013 472.35,64.447C472.191,67.119 472.083,68.59 472.026,68.886C472,69.021 471.927,69.588 471.863,70.148C471.725,71.362 471.562,72.446 471.223,74.424C470.978,75.848 470.25,79.119 469.973,80.041C469.908,80.258 469.894,80.266 469.834,80.123C469.796,80.035 469.72,79.761 469.66,79.515C469.371,78.314 468.895,76.413 468.848,76.273C468.825,76.205 468.704,76.281 468.506,76.488C468.262,76.744 468.105,76.828 467.726,76.906C466.847,77.088 465.988,76.831 465.57,76.264C465.171,75.721 465.048,75.29 465.047,74.425C465.046,73.977 465.084,73.464 465.131,73.284C465.179,73.105 465.276,72.684 465.347,72.348C465.418,72.012 465.51,71.609 465.551,71.452C465.592,71.295 465.703,70.8 465.797,70.352C465.891,69.904 466.001,69.41 466.041,69.253C466.081,69.096 466.227,68.455 466.366,67.828C466.505,67.2 466.652,66.559 466.692,66.402C466.733,66.245 466.827,65.824 466.901,65.466C466.975,65.107 467.066,64.722 467.103,64.61C467.14,64.499 467.193,64.26 467.221,64.081C467.251,63.902 467.306,63.645 467.346,63.511C467.386,63.376 467.472,63.01 467.538,62.697C467.698,61.938 468.15,59.919 468.24,59.561C468.28,59.404 468.427,58.763 468.566,58.136C468.706,57.508 468.853,56.867 468.893,56.71C468.933,56.553 469.023,56.15 469.094,55.814C469.165,55.478 469.255,55.094 469.294,54.959C469.334,54.825 469.389,54.568 469.419,54.389C469.449,54.21 469.505,53.953 469.545,53.819C469.586,53.684 469.679,53.281 469.753,52.923C469.939,52.023 470.104,51.277 470.21,50.864C470.259,50.673 470.279,50.496 470.256,50.472C470.157,50.373 468.261,53.09 467.466,54.471C466.388,56.343 465.351,58.579 464.783,60.253C464.662,60.611 464.53,60.978 464.491,61.068C464.406,61.261 464.049,62.462 463.922,62.982C463.872,63.183 463.778,63.568 463.711,63.837C463.332,65.371 463.06,66.984 462.859,68.886C462.717,70.23 462.673,73.025 462.778,74.058C463.002,76.271 463.118,77.117 463.359,78.293C464.027,81.554 464.628,83.082 465.606,84.005C466.104,84.476 466.546,84.707 467.208,84.844C467.76,84.958 467.885,84.958 468.405,84.852C469.174,84.69 469.619,84.38 469.892,83.818C470.006,83.58 470.309,82.818 470.563,82.123C470.817,81.429 471.059,80.788 471.099,80.698C471.184,80.508 471.561,79.489 471.657,79.191C471.691,79.08 471.949,78.383 472.226,77.644C472.865,75.943 472.919,75.8 473.071,75.404C473.14,75.225 473.494,74.272 473.858,73.287C474.222,72.301 474.555,71.431 474.597,71.353C474.64,71.276 474.674,71.171 474.674,71.121C474.674,71.071 474.725,70.915 474.787,70.774C474.849,70.633 475.019,70.188 475.166,69.784C475.529,68.785 475.772,68.285 476.072,67.922C476.841,66.988 477.884,66.971 478.704,67.879C479.575,68.843 481.379,72.111 482.004,73.857C482.148,74.26 482.296,74.663 482.333,74.753C482.652,75.53 483.121,77.46 483.35,78.947C483.816,81.961 483.758,84.272 483.106,88.68C482.981,89.53 482.792,90.855 482.648,91.897C482.602,92.233 482.534,92.819 482.496,93.2C482.405,94.129 482.448,97.556 482.555,97.965C482.603,98.144 482.704,98.565 482.78,98.901C483.074,100.202 483.54,101.34 484.077,102.072C484.993,103.319 486.726,104.361 487.881,104.357C488.532,104.355 489.288,103.999 489.767,103.469C490.263,102.92 490.487,102.31 490.672,101.011C490.745,100.5 490.845,99.826 490.896,99.512C491.081,98.36 491.491,97.487 492.025,97.107C492.495,96.772 492.511,96.829 492.508,98.838C492.504,101.979 492.092,103.68 490.908,105.471C490.594,105.947 489.716,106.805 489.159,107.181C488.706,107.487 487.619,108.023 487.452,108.023C487.385,108.023 487.296,108.057 487.253,108.096C487.21,108.136 486.781,108.235 486.298,108.316C485.471,108.455 485.376,108.456 484.649,108.331C482.888,108.027 481.554,106.947 480.589,105.045C479.957,103.799 479.502,102.329 479.304,100.898C479.169,99.924 479.122,97.029 479.227,96.133C479.277,95.707 479.354,95.011 479.398,94.586C479.489,93.715 479.583,92.985 479.766,91.735C480.156,89.072 480.266,88.209 480.38,86.93C480.493,85.657 480.438,81.998 480.297,81.432C480.241,81.208 480.164,80.897 480.126,80.74C479.882,79.736 479.625,79.047 479.137,78.093C478.783,77.398 478.172,76.505 478.053,76.505C477.997,76.505 477.89,76.734 477.815,77.014C477.74,77.294 477.641,77.651 477.595,77.808C477.549,77.965 477.469,78.264 477.416,78.473C477.364,78.682 477.293,78.881 477.26,78.914C477.226,78.948 477.199,79.038 477.199,79.115C477.199,79.192 477.146,79.434 477.081,79.651C477.016,79.87 476.851,80.433 476.713,80.903C476.576,81.373 476.431,81.868 476.391,82.002C476.351,82.137 476.202,82.668 476.06,83.183C475.918,83.698 475.768,84.184 475.727,84.261C475.685,84.339 475.651,84.454 475.651,84.517C475.651,84.58 475.597,84.809 475.532,85.027C475.465,85.245 475.298,85.808 475.16,86.278C475.022,86.749 474.878,87.19 474.842,87.258C474.804,87.327 474.749,87.51 474.716,87.666C474.682,87.821 474.631,87.985 474.6,88.03C474.57,88.075 474.496,88.258 474.436,88.437C474.377,88.616 474.246,88.946 474.146,89.17C474.045,89.394 473.935,89.668 473.9,89.779C473.797,90.107 472.969,91.655 472.613,92.183C471.809,93.38 470.863,94.353 469.828,95.052C469.043,95.581 468.791,95.689 467.262,96.146C467.013,96.22 466.426,96.255 465.43,96.254C464.15,96.253 463.881,96.228 463.312,96.067C461.715,95.612 460.491,94.714 459.949,93.602C459.805,93.307 459.688,93.014 459.688,92.95C459.688,92.745 459.291,91.733 459.036,91.288C458.651,90.614 457.781,89.661 456.63,88.653C454.221,86.542 453.271,85.501 451.976,83.55C451.148,82.302 450.159,80.215 449.758,78.867C449.658,78.531 449.546,78.165 449.508,78.053C449.426,77.808 449.226,76.96 449.105,76.342C448.728,74.418 448.729,71.24 449.107,69.542C449.467,67.925 449.669,67.239 450.116,66.118C451.237,63.308 452.834,60.738 455.707,57.121C455.915,56.86 456.925,55.645 457.952,54.42C463.237,48.123 465.146,45.361 466.447,42.135C466.546,41.889 466.659,41.614 466.698,41.524C466.737,41.435 466.88,41.022 467.016,40.607C467.257,39.868 467.323,39.488 467.201,39.543C467.139,39.569 466.759,39.853 460.758,44.334C458.928,45.701 457.197,46.988 456.91,47.194C456.624,47.401 455.803,47.995 455.086,48.514C454.369,49.033 453.673,49.534 453.538,49.628C453.404,49.722 453.059,49.967 452.773,50.171C451.754,50.899 448.55,53.033 447.226,53.864C443.815,56.008 440.423,57.869 437.534,59.18C437.288,59.292 436.878,59.479 436.623,59.596C436.369,59.713 436.142,59.809 436.12,59.809C436.086,59.809 435.454,60.085 434.806,60.383C433.595,60.939 428.999,62.47 427.333,62.872C427.076,62.934 426.636,63.042 426.356,63.113C424.243,63.64 421.681,64.076 419.454,64.287C414.92,64.717 410.129,64.386 406.056,63.361C405.787,63.293 405.347,63.184 405.078,63.118C403.991,62.851 401.293,61.983 400.599,61.677C400.509,61.637 400.235,61.53 399.988,61.438C399.742,61.346 399.467,61.237 399.377,61.197C399.288,61.157 398.848,60.967 398.4,60.775C397.425,60.358 394.977,59.148 394.124,58.661C390.205,56.425 387.399,54.507 383.78,51.591C379.899,48.463 376.319,45.141 370.954,39.687C368.208,36.895 367.595,36.296 366.88,35.708C365.006,34.165 362.572,32.708 360.341,31.794L359.502,31.451L359.01,31.988C358.739,32.283 358.466,32.525 358.403,32.525C358.339,32.525 358.288,32.559 358.288,32.602C358.288,32.678 357.975,32.879 357.697,32.98C357.619,33.011 357.555,33.062 357.555,33.097C357.555,33.131 357.399,33.188 357.209,33.22C357.018,33.25 356.837,33.319 356.805,33.37C356.724,33.496 354.527,33.495 354.371,33.369C354.308,33.318 354.129,33.25 353.974,33.216C353.645,33.146 353.471,33.056 353.064,32.749C352.9,32.626 352.734,32.525 352.694,32.525C352.587,32.525 351.854,31.762 351.854,31.651C351.854,31.598 351.808,31.526 351.752,31.49C351.636,31.416 351.486,31.191 351.356,30.896C351.306,30.784 351.233,30.627 351.192,30.548C351.151,30.468 351.095,30.239 351.067,30.039C351.041,29.838 350.986,29.674 350.947,29.674C350.908,29.674 350.877,29.326 350.877,28.9C350.877,28.475 350.907,28.126 350.948,28.126L350.947,28.123ZM352.517,29.882C353.268,31.914 355.638,32.782 357.567,31.732C358.772,31.077 359.511,29.544 359.284,28.175C358.812,25.323 355.284,24.235 353.291,26.325C352.362,27.298 352.066,28.662 352.517,29.882ZM453.413,71.37C453.609,74.107 453.779,75.381 454.195,77.234C454.389,78.099 454.661,79.011 454.807,79.29C454.848,79.368 454.881,79.47 454.881,79.518C454.881,79.598 455.082,80.09 455.313,80.573C455.577,81.126 456.084,81.975 456.457,82.487C456.942,83.155 457.96,84.238 458.102,84.238C458.386,84.238 458.575,82.871 458.455,81.68C458.411,81.235 458.34,80.807 458.297,80.728C458.255,80.649 458.22,80.527 458.22,80.457C458.22,80.324 457.441,78.309 457.116,77.601C456.561,76.391 456.124,75.226 455.94,74.465C455.663,73.323 455.606,72.934 455.564,71.899C455.488,70.009 455.734,68.391 456.429,66.239C456.557,65.841 456.676,65.524 457.024,64.651C457.26,64.056 458.487,61.721 458.992,60.904C459.599,59.922 459.858,59.543 461.16,57.728C463.289,54.761 464.126,53.088 464.49,51.075C464.608,50.423 464.548,50.262 464.305,50.578C464.147,50.784 463.418,51.64 458.911,56.913C456.059,60.251 455.266,61.352 454.483,63.068C454.091,63.926 454.099,63.902 453.75,65.139C453.39,66.419 453.247,69.054 453.413,71.37L453.413,71.37ZM458.856,72.219C458.886,72.531 458.955,72.797 459.008,72.814C459.061,72.829 459.219,72.742 459.362,72.615C459.741,72.275 459.848,71.755 459.933,69.815C459.973,68.892 460.045,68.038 460.091,67.916C460.137,67.794 460.175,67.598 460.175,67.481C460.175,67.124 460.555,65.591 460.907,64.529C461.126,63.868 461.205,63.658 461.443,63.103C461.501,62.969 461.624,62.682 461.717,62.465C461.985,61.84 461.908,61.271 461.555,61.271C461.362,61.271 461.07,61.707 460.556,62.766C460.038,63.831 459.975,63.984 459.662,64.936C459.411,65.699 459.316,66.047 459.03,67.257C458.987,67.436 458.915,68.003 458.868,68.516C458.822,69.029 458.763,69.469 458.737,69.493C458.687,69.541 458.764,71.291 458.856,72.219L458.856,72.219ZM461.232,82.437C461.275,82.823 461.369,83.652 461.441,84.279C461.619,85.84 462.262,88.991 462.537,89.655C462.575,89.744 462.67,90.01 462.75,90.244C462.94,90.805 463.385,91.375 463.84,91.64L464.207,91.854L466.284,91.854C468.442,91.854 468.85,91.804 469.827,91.424C471.116,90.922 472.182,89.75 472.768,88.189C472.885,87.875 473.011,87.545 473.046,87.456C473.235,86.976 473.521,85.256 473.736,83.302C473.805,82.675 473.895,81.979 473.936,81.755C473.978,81.53 474.035,81.146 474.064,80.899C474.094,80.653 474.148,80.323 474.187,80.166C474.226,80.009 474.319,79.606 474.393,79.27C474.852,77.197 475.907,75.219 477.172,74.058C477.441,73.812 477.864,73.437 478.113,73.225C478.764,72.672 478.948,72.254 478.946,71.33C478.946,70.8 478.901,70.483 478.787,70.189C478.55,69.581 477.795,68.279 477.677,68.276C477.568,68.274 477.188,68.956 476.406,70.556C475.455,72.5 475.162,73.136 475.162,73.247C475.162,73.291 475.127,73.391 475.084,73.469C474.972,73.673 474.818,74.062 474.446,75.076C473.775,76.91 473.447,78.002 472.76,80.696C472.051,83.479 470.563,85.318 468.552,85.898C466.474,86.497 464.007,85.109 462.946,82.743C462.581,81.929 462.257,80.697 462.172,79.8C462.097,79.013 461.94,78.13 461.874,78.13C461.726,78.13 461.388,78.525 461.281,78.823C461.141,79.215 461.112,81.368 461.232,82.438L461.232,82.437ZM468.567,47.224C468.788,47.36 469.46,46.595 469.46,46.208C469.46,46.002 469.448,46.002 469.052,46.204C468.605,46.432 468.306,47.062 468.567,47.224L468.567,47.224ZM471.801,43.92C472.009,43.918 472.229,43.833 472.487,43.656C474.409,42.333 478.3,38.446 480.393,35.76C481.781,33.978 482.053,33.378 481.803,32.643C481.304,31.173 479.912,30.389 477.382,30.154C476.391,30.062 475.89,30.1 475.589,30.291C475.303,30.472 475.366,30.542 475.897,30.636C477.008,30.832 478.028,31.591 478.518,32.585C478.775,33.108 478.785,33.164 478.778,34.067C478.771,34.831 478.736,35.104 478.582,35.535C478.048,37.026 477.604,37.557 472.613,42.661C472,43.288 471.498,43.829 471.497,43.863C471.497,43.897 471.633,43.922 471.801,43.921L471.801,43.92ZM480.19,51.32C480.368,51.286 480.442,50.846 480.27,50.846C480.107,50.846 480.048,50.927 480.048,51.151C480.048,51.294 480.086,51.339 480.19,51.32ZM397.96,30.657C398.034,30.293 398.362,29.973 398.657,29.977C398.784,29.978 399.694,30.017 400.679,30.064C405.191,30.274 407.631,30.344 408.869,30.297C409.606,30.27 411.381,30.208 412.815,30.163C414.248,30.117 415.751,30.044 416.154,30C416.557,29.956 417.382,29.898 417.987,29.871C418.591,29.845 419.15,29.804 419.228,29.782C419.306,29.759 419.966,29.69 420.694,29.625C424.834,29.26 427.302,28.874 428.859,28.349C430.601,27.761 431.291,27.296 433.013,25.549C434.433,24.108 434.903,23.731 435.787,23.322C437.427,22.563 439.65,22.459 441.015,23.077C441.317,23.214 441.688,23.444 441.84,23.587C442.148,23.88 442.416,24.396 442.418,24.703C442.422,25.33 441.951,26.049 441.483,26.13C441.262,26.168 441.202,26.126 440.847,25.668C440.631,25.391 440.365,24.987 440.255,24.771C440.131,24.526 440.002,24.378 439.914,24.379C439.723,24.381 438.652,25.043 437.899,25.626C436.81,26.466 435.541,28.097 435.024,29.319C434.784,29.887 434.79,29.911 435.151,29.824C435.319,29.784 435.713,29.693 436.027,29.621C436.34,29.549 436.817,29.438 437.085,29.373C437.354,29.309 437.803,29.203 438.083,29.139C438.363,29.075 438.831,28.966 439.122,28.898C439.413,28.83 439.88,28.723 440.16,28.659C442.283,28.174 442.879,28.021 443.369,27.837C445.485,27.041 447.285,25.384 449.605,22.097C450.508,20.817 450.842,20.245 451.011,19.688C451.223,18.989 451.178,18.718 450.687,17.743C450.157,16.69 450.109,16.318 450.452,15.91C450.683,15.636 451.043,15.418 451.265,15.418C451.342,15.418 451.701,15.724 452.063,16.098C452.849,16.907 453.47,17.239 455.302,17.827C458.389,18.819 459.09,19.248 459.753,20.554C460.015,21.069 460.125,21.199 460.486,21.415C461.038,21.748 461.846,21.918 463.107,21.967C464.578,22.025 465.226,22.285 465.676,22.997C465.826,23.235 465.876,23.427 465.876,23.761C465.876,24.186 465.857,24.225 465.478,24.605C464.894,25.188 464.788,25.438 464.791,26.21C464.795,27.141 465.074,27.666 466.121,28.716C467.026,29.624 467.03,29.593 466.014,29.756C464.874,29.939 463.657,29.725 461.112,28.897C460.798,28.795 460.267,28.631 459.931,28.532C459.595,28.433 459.21,28.32 459.076,28.28C458.412,28.081 457.674,27.944 456.439,27.79C455.278,27.644 454.795,27.626 453.049,27.662C450.155,27.721 447.549,28.078 444.09,28.89C443.821,28.954 443.363,29.061 443.072,29.129C442.367,29.295 438.63,30.247 437.452,30.562C436.937,30.699 436.076,30.924 435.538,31.062C435.001,31.2 434.506,31.337 434.439,31.367C434.298,31.43 435.945,31.48 442.502,31.609C445.077,31.659 448.101,31.738 449.221,31.784C450.341,31.83 452.98,31.89 455.085,31.918C460.098,31.985 461.179,32.038 461.598,32.242C461.775,32.329 461.976,32.499 462.044,32.62C462.159,32.825 462.153,32.87 461.952,33.279C461.66,33.875 460.992,34.659 460.414,35.085C459.999,35.39 458.831,36.016 458.343,36.194C456.427,36.894 453.931,36.929 450.443,36.307C450.039,36.235 449.435,36.126 449.099,36.066C446.365,35.575 443.818,35.238 441.402,35.047C440.82,35.001 439.894,34.927 439.344,34.883C438.123,34.785 437.371,34.78 437.371,34.871C437.371,34.943 439.145,35.497 440.277,35.779C442.581,36.352 444.463,36.586 448.121,36.754C449.443,36.815 449.88,36.864 450.217,36.991C452.105,37.698 452.644,39.469 451.262,40.42C450.876,40.685 449.576,41.156 449.229,41.156C449.017,41.156 448.933,41.339 449.099,41.441C449.224,41.519 449.196,41.949 449.046,42.239C448.796,42.721 448.572,42.96 448.04,43.312C447.22,43.854 447.337,43.81 443.398,45.065C442.659,45.301 441.742,45.595 441.362,45.718C440.077,46.135 438.799,46.525 438.311,46.651C437.04,46.978 436.107,46.636 435.764,45.717C435.634,45.368 435.625,45.209 435.69,44.439C435.732,43.955 435.768,42.826 435.772,41.93C435.78,40.304 435.719,39.806 435.402,38.916C434.854,37.373 433.795,36.064 432.584,35.431C431.958,35.105 431.42,34.93 430.488,34.75C430.13,34.682 429.58,34.574 429.267,34.512C428.474,34.354 427.438,34.165 426.62,34.028C426.239,33.965 425.836,33.895 425.724,33.873C425.326,33.795 423.8,33.569 423.158,33.493C422.8,33.45 422.442,33.395 422.363,33.371C422.09,33.286 418.671,32.898 416.746,32.733C415.996,32.668 415.354,32.599 415.32,32.578C415.286,32.56 414.672,32.516 413.955,32.485C413.238,32.454 412.414,32.392 412.122,32.348C411.83,32.304 408.86,32.251 405.485,32.23C398.711,32.187 398.764,32.191 398.239,31.667C397.951,31.378 397.872,31.093 397.96,30.66L397.96,30.657ZM461.348,17.748C461.686,17.588 462.367,17.577 462.725,17.725C463.087,17.876 463.514,18.32 463.514,18.545C463.514,18.797 463.214,18.918 462.59,18.918C462.168,18.918 462.016,18.877 461.708,18.682C461.336,18.446 461.071,18.151 461.071,17.972C461.071,17.92 461.196,17.818 461.348,17.746L461.348,17.748ZM463.005,19.95C463.589,19.651 464.248,19.767 464.574,20.224C464.797,20.537 464.778,20.686 464.496,20.832C464.036,21.069 463.426,20.947 462.964,20.525C462.718,20.3 462.734,20.089 463.005,19.95L463.005,19.95ZM463.766,14.813C463.986,14.627 464.079,14.604 464.492,14.628C464.76,14.643 465.058,14.717 465.18,14.797C465.443,14.969 465.591,15.311 465.467,15.461C465.344,15.609 463.918,15.709 463.688,15.586C463.421,15.443 463.458,15.072 463.767,14.813L463.766,14.813ZM466.339,17.828C466.873,17.646 467.267,17.663 467.594,17.884C467.954,18.126 468.071,18.448 467.907,18.742C467.804,18.926 467.721,18.964 467.38,18.987C466.589,19.039 465.958,18.702 465.958,18.229C465.958,17.979 465.988,17.948 466.339,17.828L466.339,17.828ZM466.514,20.602C466.736,20.401 467.456,20.419 467.668,20.628C467.883,20.843 467.874,21.151 467.649,21.366C467.494,21.513 467.399,21.533 467.033,21.497C466.794,21.474 466.547,21.41 466.483,21.357C466.317,21.219 466.337,20.762 466.517,20.6L466.514,20.602ZM491.624,81.001C491.746,80.881 492.171,80.868 492.458,80.978C492.711,81.075 492.863,81.345 492.802,81.591C492.742,81.831 492.244,82.079 492.041,81.971C491.66,81.767 491.418,81.206 491.624,81.003L491.624,81.001ZM493.812,78.782C493.997,78.597 494.047,78.588 494.332,78.697C494.775,78.865 494.925,79.709 494.58,80.091C494.396,80.294 494.285,80.288 494.08,80.065C493.651,79.595 493.538,79.056 493.812,78.782L493.812,78.782ZM493.975,74.791C494.373,74.393 495.23,74.725 495.214,75.272C495.207,75.575 495.097,75.731 494.779,75.896C494.464,76.059 494.35,76.044 494.062,75.802C493.861,75.632 493.812,75.528 493.812,75.272C493.812,75.062 493.867,74.898 493.975,74.791L493.975,74.791ZM496.147,77.859C496.177,77.828 496.34,77.804 496.51,77.804C496.74,77.804 496.893,77.869 497.107,78.057C497.35,78.271 497.395,78.362 497.395,78.65C497.395,79.019 497.216,79.352 497.017,79.352C496.801,79.352 496.421,79.026 496.253,78.697C496.094,78.385 496.041,77.964 496.147,77.859L496.147,77.859Z" style="fill:rgb(185,217,203);fill-rule:nonzero;"/>
        </g>
        <g id="path4646" transform="matrix(1.06747,0,0,1.06747,-17.7215,-17.0822)">
            <path d="M95.174,491.771C96.267,491.763 97.372,491.691 97.95,491.555C99.697,491.143 100.929,490.497 102.079,489.393C103.252,488.267 103.86,487.207 104.347,485.424C104.526,484.768 104.549,484.452 104.55,482.793C104.551,481.167 104.524,480.784 104.347,480.014C103.869,477.939 102.929,475.723 101.822,474.056C101.075,472.933 99.733,471.584 98.645,470.861C96.427,469.387 93.764,468.56 90.667,468.383C89.797,468.334 89.633,468.305 89.887,468.245C88.776,467.753 79.52,469.7 79.079,469.838C76.467,470.664 71.932,472.235 70.85,472.688C70.495,472.837 66.22,474.406 65.24,474.746C61.538,476.033 60.789,476.283 58.987,476.829C55.175,477.986 51.787,478.758 48.493,479.223C47.156,479.411 46.641,479.435 43.907,479.432C40.644,479.429 39.872,479.353 37.839,478.837C35.162,478.158 32.68,476.935 30.757,475.351L32.974,478.869C36.788,481.355 42.285,482.514 48.101,482.058C51.367,481.801 54.454,481.161 59.219,479.758C61.021,479.228 63.868,478.229 71.082,475.589C77.476,473.249 79.227,472.656 81.839,471.955C90.251,469.699 96.267,470.258 100.193,473.659C102.467,475.63 103.637,478.568 103.313,481.497C103.223,482.311 102.936,483.548 102.758,483.89C102.717,483.97 102.549,484.304 102.386,484.633C101.952,485.508 101.617,485.976 100.885,486.732C100.113,487.528 99.466,487.991 98.263,488.602C96.608,489.442 95.214,489.743 93.379,489.66C91.723,489.586 90.519,489.203 89.213,488.335C87.818,487.409 87.028,485.826 87.02,483.928C87.013,482.371 87.434,481.283 88.411,480.31C89.109,479.615 89.726,479.284 90.82,479.029C92.151,478.717 93.486,478.887 94.435,479.489C94.676,479.642 94.856,479.785 94.836,479.805C94.817,479.824 94.619,479.798 94.398,479.749C93.161,479.471 91.954,480.34 91.841,481.588C91.782,482.246 91.922,482.748 92.283,483.185C93.101,484.175 94.672,484.223 95.497,483.283C95.927,482.794 96.047,482.405 96.045,481.519C96.043,480.081 95.636,478.967 94.811,478.142C93.344,476.675 90.396,476.283 88.568,477.312C87.906,477.685 87.071,478.506 86.688,479.163C85.982,480.377 85.716,482.016 85.962,483.649C86.298,485.893 87.348,488.014 88.862,489.51C89.982,490.616 91.101,491.263 92.474,491.596C93.001,491.725 94.082,491.78 95.174,491.772L95.174,491.771ZM48.722,485.944C50.297,485.887 51.924,485.706 53.518,485.402C59.269,484.306 63.473,482.986 74.851,478.705C83.243,475.548 86.199,474.652 89.655,474.232C90.996,474.069 93.25,474.091 94.291,474.275C97.531,474.85 99.604,476.52 100.459,479.25C100.855,480.515 100.796,482.5 100.327,483.748C100.212,484.055 100.088,484.389 100.051,484.491C100.014,484.591 100.107,484.489 100.255,484.262C101.083,482.991 101.421,480.824 101.06,479.112C100.243,475.233 97.243,472.913 92.508,472.496L92.505,472.496C90.615,472.33 87.884,472.54 85.404,473.044C81.876,473.761 78.084,474.962 69.885,477.962C60.212,481.501 55.802,482.842 50.667,483.798C48.745,484.156 45.493,484.266 43.403,484.043C41.187,483.806 39.027,483.305 37.091,482.58C34.077,481.451 31.506,479.978 29.961,478.495C29.172,477.738 28.366,477.112 28.366,477.254C28.366,477.405 28.892,478.059 29.632,478.846L33.206,481.737C34.142,482.351 35.705,483.216 36.78,483.682C39.206,484.734 41.438,485.351 44.23,485.741C45.623,485.935 47.146,486.002 48.722,485.944L48.722,485.944ZM43.866,478.097C46.4,478.151 49.117,477.86 51.861,477.23C52.88,476.995 55.252,476.252 55.817,475.989C55.918,475.941 56.268,475.791 56.597,475.657C58.819,474.747 61.498,473.019 62.821,471.641C63.518,470.916 64.212,469.863 64.585,468.966C66.17,465.158 64.713,461.695 61.149,460.802L61.149,460.805C58.03,460.024 54.858,462.245 54.852,465.213C54.85,466.445 55.381,467.41 56.362,467.951C56.963,468.282 57.252,468.275 56.76,467.943C55.803,467.293 55.572,465.971 56.227,464.911C56.535,464.413 57.259,463.803 57.935,463.473C58.525,463.185 58.641,463.16 59.448,463.16C60.197,463.16 60.395,463.194 60.832,463.398C61.988,463.94 62.479,464.692 62.48,465.91C62.482,467.372 61.783,468.941 60.441,470.484C58.819,472.348 54.24,474.766 50.113,475.94C47.054,476.811 44.919,477.121 41.93,477.125C39.213,477.128 37.988,476.962 35.878,476.304C35.012,476.033 34.813,476.018 35.308,476.26C36.443,476.815 37.932,477.295 39.54,477.629C40.893,477.911 42.346,478.067 43.866,478.099L43.866,478.097ZM34.09,475.601C34.12,475.589 33.997,475.479 33.73,475.265C32.23,474.073 30.836,472.113 30.183,470.285C29.708,468.953 29.619,468.47 29.617,467.158C29.609,465.376 29.973,464.231 31.026,462.698C31.576,461.897 31.911,461.238 32.051,460.683C32.192,460.121 31.98,459.503 31.552,459.242C31.193,459.024 30.908,459.022 30.431,459.239C29.305,459.751 28.215,462.084 27.994,464.455C27.594,468.748 29.982,473.445 33.529,475.341C33.873,475.525 34.058,475.613 34.09,475.601L34.09,475.601ZM32.329,472.261L32.279,471.986C32.046,470.7 32.015,470.151 32.125,469.386C32.331,467.96 32.998,466.782 34.121,465.865C34.846,465.272 35.079,464.942 35.079,464.508C35.079,464.148 34.73,463.652 34.34,463.456C33.932,463.251 33.841,463.254 33.36,463.486C32.534,463.886 31.515,465.385 31.308,466.503C31.171,467.242 31.198,468.82 31.362,469.607C31.512,470.333 31.94,471.586 32.185,472.013L32.329,472.261Z" style="fill:rgb(185,217,203);fill-rule:nonzero;"/>
        </g>
        <g id="path844" transform="matrix(1.06747,0,0,1.06747,-17.7215,-17.0822)">
            <path d="M416.798,491.771C415.706,491.763 414.601,491.691 414.023,491.555C412.276,491.143 411.044,490.497 409.894,489.393C408.721,488.267 408.113,487.207 407.626,485.424C407.447,484.768 407.423,484.452 407.422,482.793C407.422,481.167 407.449,480.784 407.626,480.014C408.104,477.939 409.044,475.723 410.151,474.056C410.898,472.933 412.24,471.584 413.327,470.861C415.546,469.387 418.208,468.56 421.306,468.383C422.176,468.334 422.34,468.305 422.086,468.245C423.196,467.753 432.453,469.7 432.893,469.838C435.506,470.664 440.041,472.235 441.123,472.688C441.478,472.837 445.753,474.406 446.733,474.746C450.435,476.033 451.184,476.283 452.986,476.829C456.798,477.986 460.185,478.758 463.48,479.223C464.816,479.411 465.332,479.435 468.066,479.432C471.329,479.429 472.1,479.353 474.133,478.837C476.81,478.158 479.293,476.935 481.216,475.351L478.998,478.869C475.185,481.355 469.688,482.514 463.871,482.058C460.605,481.801 457.519,481.161 452.754,479.758C450.952,479.228 448.105,478.229 440.891,475.589C434.497,473.249 432.746,472.656 430.134,471.955C421.722,469.699 415.706,470.258 411.78,473.659C409.506,475.63 408.335,478.568 408.66,481.497C408.75,482.311 409.036,483.548 409.214,483.89C409.256,483.97 409.424,484.304 409.587,484.633C410.021,485.508 410.355,485.976 411.088,486.732C411.86,487.528 412.507,487.991 413.71,488.602C415.364,489.442 416.759,489.743 418.593,489.66C420.25,489.586 421.454,489.203 422.76,488.335C424.154,487.409 424.944,485.826 424.952,483.928C424.96,482.371 424.539,481.283 423.561,480.31C422.864,479.615 422.246,479.284 421.153,479.029C419.822,478.717 418.487,478.887 417.538,479.489C417.296,479.642 417.117,479.785 417.137,479.805C417.155,479.824 417.354,479.798 417.575,479.749C418.811,479.471 420.019,480.34 420.131,481.588C420.191,482.246 420.051,482.748 419.69,483.185C418.872,484.175 417.301,484.223 416.476,483.283C416.046,482.794 415.926,482.405 415.927,481.519C415.93,480.081 416.337,478.967 417.162,478.142C418.629,476.675 421.577,476.283 423.405,477.312C424.067,477.685 424.902,478.506 425.284,479.163C425.991,480.377 426.256,482.016 426.011,483.649C425.674,485.893 424.625,488.014 423.11,489.51C421.99,490.616 420.872,491.263 419.499,491.596C418.971,491.725 417.89,491.78 416.798,491.772L416.798,491.771ZM463.251,485.944C461.676,485.887 460.049,485.706 458.455,485.402C452.704,484.306 448.499,482.986 437.122,478.705C428.73,475.548 425.774,474.652 422.318,474.232C420.976,474.069 418.723,474.091 417.682,474.275C414.442,474.85 412.368,476.52 411.514,479.25C411.117,480.515 411.177,482.5 411.645,483.748C411.761,484.055 411.884,484.389 411.921,484.491C411.959,484.591 411.866,484.489 411.718,484.262C410.89,482.991 410.552,480.824 410.913,479.112C411.73,475.233 414.73,472.913 419.465,472.496L419.468,472.496C421.358,472.33 424.089,472.54 426.569,473.044C430.097,473.761 433.889,474.962 442.088,477.962C451.761,481.501 456.171,482.842 461.306,483.798C463.228,484.156 466.48,484.266 468.57,484.043C470.786,483.806 472.946,483.305 474.882,482.58C477.896,481.451 480.467,479.978 482.012,478.495C482.801,477.738 483.607,477.112 483.607,477.254C483.607,477.405 483.081,478.059 482.341,478.846L478.767,481.737C477.831,482.351 476.268,483.216 475.193,483.682C472.767,484.734 470.535,485.351 467.743,485.741C466.35,485.935 464.827,486.002 463.251,485.944L463.251,485.944ZM468.106,478.097C465.573,478.151 462.856,477.86 460.112,477.23C459.093,476.995 456.72,476.252 456.156,475.989C456.054,475.941 455.704,475.791 455.376,475.657C453.154,474.747 450.475,473.019 449.151,471.641C448.455,470.916 447.761,469.863 447.388,468.966C445.803,465.158 447.26,461.695 450.824,460.802L450.824,460.805C453.943,460.024 457.115,462.245 457.12,465.213C457.122,466.445 456.592,467.41 455.611,467.951C455.009,468.282 454.721,468.275 455.213,467.943C456.169,467.293 456.401,465.971 455.745,464.911C455.438,464.413 454.713,463.803 454.038,463.473C453.448,463.185 453.332,463.16 452.525,463.16C451.776,463.16 451.578,463.194 451.14,463.398C449.984,463.94 449.494,464.692 449.493,465.91C449.491,467.372 450.19,468.941 451.532,470.484C453.154,472.348 457.733,474.766 461.86,475.94C464.919,476.811 467.053,477.121 470.042,477.125C472.76,477.128 473.985,476.962 476.094,476.304C476.961,476.033 477.159,476.018 476.664,476.26C475.529,476.815 474.041,477.295 472.432,477.629C471.08,477.911 469.627,478.067 468.106,478.099L468.106,478.097ZM477.883,475.601C477.853,475.589 477.976,475.479 478.243,475.265C479.742,474.073 481.137,472.113 481.789,470.285C482.265,468.953 482.353,468.47 482.356,467.158C482.364,465.376 482,464.231 480.947,462.698C480.396,461.897 480.062,461.238 479.922,460.683C479.78,460.121 479.993,459.503 480.42,459.242C480.78,459.024 481.064,459.022 481.542,459.239C482.667,459.751 483.758,462.084 483.979,464.455C484.378,468.748 481.99,473.445 478.444,475.341C478.099,475.525 477.914,475.613 477.883,475.601L477.883,475.601ZM479.644,472.261L479.694,471.986C479.927,470.7 479.958,470.151 479.847,469.386C479.641,467.96 478.974,466.782 477.852,465.865C477.127,465.272 476.893,464.942 476.893,464.508C476.893,464.148 477.242,463.652 477.633,463.456C478.041,463.251 478.131,463.254 478.613,463.486C479.439,463.886 480.458,465.385 480.665,466.503C480.802,467.242 480.774,468.82 480.611,469.607C480.461,470.333 480.033,471.586 479.787,472.013L479.644,472.261Z" style="fill:rgb(185,217,203);fill-rule:nonzero;"/>
        </g>
    </g>
</svg>
