<?xml version="1.0" encoding="UTF-8" standalone="no"?>
<!DOCTYPE svg PUBLIC "-//W3C//DTD SVG 1.1//EN" "http://www.w3.org/Graphics/SVG/1.1/DTD/svg11.dtd">
<svg width="100%" height="100%" viewBox="0 0 512 512" version="1.1" xmlns="http://www.w3.org/2000/svg" xmlns:xlink="http://www.w3.org/1999/xlink" xml:space="preserve" xmlns:serif="http://www.serif.com/" style="fill-rule:evenodd;clip-rule:evenodd;stroke-linecap:square;">
    <g id="Layer-1" serif:id="Layer 1" transform="matrix(1.05506,0,0,1.05506,-14.1024,-13.9284)">
        <path id="path836" d="M39.242,29.225C33.724,29.225 29.225,33.687 29.225,39.183L29.225,472.817C29.225,478.313 33.724,482.768 39.242,482.768L472.758,482.768C478.276,482.768 482.768,478.313 482.768,472.817L482.768,39.183C482.768,33.687 478.276,29.225 472.758,29.225L39.242,29.225ZM39.242,32.074L472.758,32.074C476.758,32.074 479.926,35.227 479.926,39.183L479.926,472.817C479.926,476.774 476.758,479.926 472.758,479.926L39.242,479.926C35.243,479.926 32.074,476.774 32.074,472.817L32.074,39.183C32.074,35.227 35.243,32.074 39.242,32.074Z" style="fill:rgb(229,197,178);fill-rule:nonzero;stroke:rgb(229,197,178);stroke-width:2.09px;"/>
        <path id="path1893" d="M31.739,427.176C31.739,456.058 31.75,479.677 31.761,479.664C31.776,479.649 31.865,479.334 31.965,478.961C32.137,478.313 32.555,477.098 33.02,475.895C33.171,475.503 33.422,475.054 33.862,474.391C36.555,470.327 39.75,464.924 44.095,457.087C44.748,455.909 45.514,454.05 46.188,452.002C46.475,451.131 46.819,449.66 47.015,448.463C47.185,447.426 47.194,447.291 47.19,445.72C47.188,444.811 47.168,444.12 47.139,444.185C47.113,444.25 47.02,444.751 46.931,445.298C46.383,448.686 45.292,452.011 43.724,455.069C41.373,459.654 38.676,462.823 35.339,464.922L34.685,465.334L32.73,465.334L32.767,465.053C32.845,464.475 32.87,454.306 32.801,451.058C32.638,443.269 32.654,440.932 32.894,437.608C33.086,434.937 33.479,432.411 33.981,430.623C34.245,429.684 34.544,429.146 35.307,428.237C36.341,427.003 37.498,426.111 38.292,425.933C38.52,425.881 39.114,425.902 40.764,426.012C41.008,426.031 41.711,426.069 42.328,426.102C42.944,426.136 43.606,426.178 43.799,426.196L44.149,426.23L43.159,425.271C40.985,423.164 39.227,420.701 37.452,417.278C34.817,412.194 33.132,406.96 32.802,402.838C32.719,401.792 31.739,427.176 31.739,427.176ZM43.743,428.915C42.832,429.019 42.433,429.079 42.003,429.178C40.15,429.605 38.491,430.429 37.037,431.645C35.56,432.88 34.623,434.427 34.215,436.305C33.84,438.028 33.942,439.477 34.599,441.766C35.251,444.039 36.365,446.338 37.331,447.405C37.615,447.719 38.259,448.215 38.312,448.162C38.327,448.146 38.297,447.951 38.251,447.724C37.863,445.873 37.818,443.199 38.147,441.531C38.826,438.085 41.065,436.284 44.55,436.381C45.53,436.407 45.895,436.507 46.576,436.929C47.953,437.783 49.276,439.929 49.702,442.003C49.837,442.657 49.878,443.868 49.796,444.746C49.575,447.091 48.905,449.656 47.53,453.417C46.979,454.924 45.667,457.993 44.566,460.349C43.867,461.844 41.585,466.395 41.061,467.339C38.613,471.748 36.901,474.405 34.971,476.793C34.715,477.109 34.517,477.368 34.53,477.368C34.613,477.368 37.864,473.681 39.29,471.97C46.175,463.71 50.597,456.499 52.718,450.074C53.36,448.128 53.694,446.729 53.99,444.746C54.114,443.913 54.127,443.631 54.126,441.59C54.125,439.196 54.086,438.692 53.771,436.986C53.196,433.874 51.88,431.573 49.934,430.277C48.808,429.528 47.597,429.11 46.045,428.937C45.552,428.882 44.15,428.868 43.744,428.914L43.743,428.915ZM70.496,458.765C67.063,458.998 64.84,459.453 61.441,460.617C54.593,462.962 46.652,467.852 39.498,474.13C38.086,475.369 35.101,478.172 35.101,478.259C35.101,478.281 35.533,478.01 36.06,477.65C45.507,471.205 52.866,467.093 58.226,465.265C59.663,464.775 61.535,464.391 62.49,464.39C62.997,464.389 63.622,464.246 64.518,463.924C65.332,463.632 65.897,463.522 66.809,463.479C67.199,463.464 67.809,463.406 68.166,463.358C70.618,463.026 71.434,463.01 72.068,463.285C73.004,463.691 73.84,464.309 74.954,465.42C75.806,466.27 76.228,466.825 76.456,467.4C76.572,467.692 76.582,467.8 76.556,468.519C76.513,469.705 76.273,470.439 75.612,471.398C74.403,473.152 71.638,474.501 68.568,474.834C67.609,474.937 65.487,474.877 64.848,474.728C64.58,474.665 64.361,474.621 64.361,474.628C64.361,474.643 65.826,475.573 66.839,476.202C70.143,478.256 72.356,478.973 75.127,478.886C76.567,478.84 77.497,478.553 78.601,477.815C79.573,477.165 80.379,476.286 81.307,474.861C82.749,472.649 83.397,470.816 83.599,468.378C83.769,466.32 83.34,464.465 82.358,463.011C81.142,461.207 78.813,459.82 75.924,459.177C74.425,458.843 72.028,458.662 70.496,458.765ZM64.391,466.021C60.969,466.429 57.658,467.468 53.654,469.391C50.273,471.016 46.569,473.216 39.164,478.001C38.559,478.391 37.922,478.758 37.748,478.815C37.049,479.046 32.899,480.733 32.805,480.825C32.79,480.84 56.332,480.847 85.116,480.847L137.452,480.847L137.452,478.916L137.166,478.48C137.009,478.241 136.578,477.671 136.207,477.213C135.837,476.755 135.278,476.063 134.965,475.676C133.837,474.281 133.207,473.215 133.157,472.616C133.048,471.295 134.357,470.537 137.141,470.312L137.626,470.273L137.318,470.086C137.148,469.984 136.877,469.798 136.714,469.673C136.114,469.211 136.233,469.226 133.229,469.226L130.55,469.226L130.55,469.448C130.55,470.959 130.01,476.459 129.809,476.996C129.676,477.352 129.114,477.848 128.494,478.158C127.558,478.625 126.476,478.916 124.651,479.193C122.187,479.566 120.943,479.647 116.392,479.732C111.907,479.815 108.266,479.779 107.484,479.644C106.222,479.425 104.334,478.864 102.204,478.074C97.896,476.476 94.348,474.914 92.412,473.762C90.574,472.669 88.513,470.744 86.812,468.533C86.556,468.2 86.34,467.934 86.333,467.943C86.325,467.954 86.348,468.463 86.377,469.079C86.51,471.652 86.25,474.48 85.799,475.373C85.296,476.37 84.312,477.233 82.739,478.057C80.708,479.12 79.158,479.62 77.546,479.73C76.968,479.769 71.757,479.785 62.532,479.774L48.404,479.759L48.112,479.624C47.951,479.55 47.676,479.381 47.501,479.249L47.183,479.008L47.205,478.086C47.228,477.258 47.247,477.121 47.39,476.755C48.256,474.533 52.16,471.574 58.195,468.564C60.522,467.404 63.69,466.16 64.108,466.243C64.204,466.262 64.44,466.216 64.684,466.133L65.097,465.991L64.831,465.995C64.685,465.997 64.486,466.01 64.388,466.021L64.391,466.021Z" style="fill:rgb(229,197,178);fill-rule:nonzero;stroke:rgb(229,197,178);stroke-width:0.95px;stroke-linecap:butt;stroke-linejoin:round;stroke-miterlimit:2;"/>
        <path id="path1504" d="M480.248,427.176C480.248,456.058 480.236,479.677 480.225,479.664C480.21,479.649 480.121,479.334 480.021,478.961C479.849,478.313 479.431,477.098 478.967,475.895C478.815,475.503 478.564,475.054 478.124,474.391C475.431,470.327 472.236,464.924 467.891,457.087C467.238,455.909 466.473,454.05 465.798,452.002C465.511,451.131 465.168,449.66 464.971,448.463C464.801,447.426 464.792,447.291 464.796,445.72C464.798,444.811 464.819,444.12 464.847,444.185C464.874,444.25 464.967,444.751 465.055,445.298C465.603,448.686 466.694,452.011 468.263,455.069C470.613,459.654 473.31,462.823 476.647,464.922L477.302,465.334L479.257,465.334L479.219,465.053C479.142,464.475 479.117,454.306 479.185,451.058C479.348,443.269 479.332,440.932 479.093,437.608C478.901,434.937 478.507,432.411 478.005,430.623C477.741,429.684 477.443,429.146 476.68,428.237C475.645,427.003 474.489,426.111 473.694,425.933C473.466,425.881 472.872,425.902 471.222,426.012C470.979,426.031 470.275,426.069 469.659,426.102C469.042,426.136 468.38,426.178 468.188,426.196L467.838,426.23L468.827,425.271C471.002,423.164 472.76,420.701 474.534,417.278C477.169,412.194 478.855,406.96 479.184,402.838C479.268,401.792 480.248,427.176 480.248,427.176ZM468.243,428.915C469.155,429.019 469.554,429.079 469.983,429.178C471.836,429.605 473.495,430.429 474.95,431.645C476.426,432.88 477.363,434.427 477.772,436.305C478.147,438.028 478.045,439.477 477.388,441.766C476.735,444.039 475.621,446.338 474.655,447.405C474.371,447.719 473.728,448.215 473.674,448.162C473.659,448.146 473.69,447.951 473.736,447.724C474.124,445.873 474.169,443.199 473.84,441.531C473.161,438.085 470.922,436.284 467.437,436.381C466.457,436.407 466.091,436.507 465.41,436.929C464.033,437.783 462.711,439.929 462.284,442.003C462.15,442.657 462.109,443.868 462.191,444.746C462.411,447.091 463.081,449.656 464.456,453.417C465.007,454.924 466.319,457.993 467.421,460.349C468.119,461.844 470.401,466.395 470.926,467.339C473.374,471.748 475.085,474.405 477.016,476.793C477.271,477.109 477.47,477.368 477.456,477.368C477.374,477.368 474.123,473.681 472.697,471.97C465.812,463.71 461.39,456.499 459.269,450.074C458.626,448.128 458.292,446.729 457.996,444.746C457.872,443.913 457.86,443.631 457.861,441.59C457.861,439.196 457.9,438.692 458.216,436.986C458.79,433.874 460.106,431.573 462.052,430.277C463.179,429.528 464.39,429.11 465.942,428.937C466.435,428.882 467.837,428.868 468.243,428.914L468.243,428.915ZM441.49,458.765C444.924,458.998 447.146,459.453 450.545,460.617C457.394,462.962 465.334,467.852 472.489,474.13C473.901,475.369 476.885,478.172 476.885,478.259C476.885,478.281 476.454,478.01 475.927,477.65C466.48,471.205 459.12,467.093 453.761,465.265C452.324,464.775 450.451,464.391 449.496,464.39C448.99,464.389 448.365,464.246 447.469,463.924C446.654,463.632 446.09,463.522 445.177,463.479C444.788,463.464 444.177,463.406 443.82,463.358C441.368,463.026 440.553,463.01 439.919,463.285C438.983,463.691 438.146,464.309 437.032,465.42C436.181,466.27 435.759,466.825 435.53,467.4C435.414,467.692 435.405,467.8 435.43,468.519C435.473,469.705 435.714,470.439 436.374,471.398C437.583,473.152 440.349,474.501 443.418,474.834C444.378,474.937 446.499,474.877 447.139,474.728C447.406,474.665 447.625,474.621 447.625,474.628C447.625,474.643 446.16,475.573 445.148,476.202C441.843,478.256 439.63,478.973 436.859,478.886C435.42,478.84 434.489,478.553 433.386,477.815C432.413,477.165 431.608,476.286 430.679,474.861C429.237,472.649 428.589,470.816 428.388,468.378C428.218,466.32 428.646,464.465 429.628,463.011C430.845,461.207 433.173,459.82 436.063,459.177C437.561,458.843 439.959,458.662 441.49,458.765ZM447.596,466.021C451.018,466.429 454.329,467.468 458.332,469.391C461.713,471.016 465.417,473.216 472.823,478.001C473.427,478.391 474.065,478.758 474.239,478.815C474.938,479.046 479.087,480.733 479.181,480.825C479.196,480.84 455.655,480.847 426.87,480.847L374.535,480.847L374.535,478.916L374.82,478.48C374.978,478.241 375.409,477.671 375.779,477.213C376.149,476.755 376.708,476.063 377.022,475.676C378.15,474.281 378.779,473.215 378.829,472.616C378.939,471.295 377.629,470.537 374.846,470.312L374.36,470.273L374.669,470.086C374.838,469.984 375.11,469.798 375.272,469.673C375.873,469.211 375.753,469.226 378.757,469.226L381.437,469.226L381.437,469.448C381.437,470.959 381.977,476.459 382.177,476.996C382.311,477.352 382.872,477.848 383.493,478.158C384.428,478.625 385.511,478.916 387.335,479.193C389.8,479.566 391.043,479.647 395.595,479.732C400.08,479.815 403.721,479.779 404.502,479.644C405.764,479.425 407.652,478.864 409.782,478.074C414.09,476.476 417.638,474.914 419.575,473.762C421.413,472.669 423.473,470.744 425.174,468.533C425.431,468.2 425.646,467.934 425.654,467.943C425.661,467.954 425.639,468.463 425.61,469.079C425.476,471.652 425.736,474.48 426.187,475.373C426.69,476.37 427.675,477.233 429.248,478.057C431.278,479.12 432.828,479.62 434.441,479.73C435.018,479.769 440.229,479.785 449.454,479.774L463.583,479.759L463.875,479.624C464.035,479.55 464.31,479.381 464.485,479.249L464.804,479.008L464.781,478.086C464.758,477.258 464.739,477.121 464.597,476.755C463.73,474.533 459.826,471.574 453.792,468.564C451.464,467.404 448.296,466.16 447.878,466.243C447.782,466.262 447.547,466.216 447.303,466.133L446.89,465.991L447.156,465.995C447.301,465.997 447.501,466.01 447.598,466.021L447.596,466.021Z" style="fill:rgb(229,197,178);fill-rule:nonzero;stroke:rgb(229,197,178);stroke-width:0.95px;stroke-linecap:butt;stroke-linejoin:round;stroke-miterlimit:2;"/>
        <g id="path1869" transform="matrix(1.01411,0,0,1.01411,-3.60491,-3.47667)">
            <g transform="matrix(0.934626,0,0,0.934626,16.7352,16.4461)">
                <path d="M38.208,74.085C38.23,74.108 40.402,75.842 39.702,76.295L38.195,77.27L38.232,77.569C38.254,77.733 38.345,78.163 38.434,78.524C39.15,81.382 36.053,82.309 35.584,79.412C35.558,79.257 35.521,79.148 35.5,79.168C35.479,79.19 35.531,79.662 35.614,80.217C35.841,81.723 35.895,82.417 35.896,83.749C35.896,85.143 35.83,85.847 35.58,87.092C34.963,90.162 33.401,92.709 31.074,94.44L30.31,95.008L30.259,97.689C30.23,99.165 30.196,100.47 30.181,100.591C30.167,100.711 30.134,101.204 30.108,101.687C29.756,108.265 28.619,116.629 27.219,122.949C26.357,126.84 25.657,129.377 24.457,132.951C23.986,134.353 23.59,135.447 23.577,135.379C23.564,135.313 23.607,134.74 23.673,134.108C24.044,130.556 23.903,126.886 23.315,124.702C22.698,122.409 21.54,121.085 20.155,121.085C19.685,121.085 19.36,121.211 19.094,121.497C18.718,121.898 18.641,122.427 18.881,122.954C19.13,123.504 19.694,123.781 20.289,123.647C20.464,123.609 20.843,123.478 21.135,123.358C21.427,123.237 21.665,123.156 21.665,123.175C21.665,123.288 21.049,124.091 20.756,124.362C20.16,124.911 19.179,125.244 18.454,125.143C16.74,124.903 15.819,123.797 15.819,121.975C15.819,120.8 16.215,119.8 16.982,119.034C17.756,118.262 18.707,117.924 20.093,117.928C22.535,117.936 23.978,119.609 24.767,123.347C24.872,123.847 24.97,124.269 24.985,124.284C25.048,124.347 25.805,121.356 26.342,118.93C27.555,113.442 28.276,108.573 28.682,103.147C28.781,101.832 28.854,95.941 28.774,95.826C28.728,95.761 28.606,95.775 28.275,95.885C27.596,96.111 26.46,96.262 25.82,96.212C23.973,96.065 22.386,94.645 21.878,92.684C21.692,91.962 21.677,90.681 21.847,89.861C22.307,87.64 23.784,85.17 26.028,82.866L26.995,81.875L26.633,80.482C25.472,76.004 23.942,71.999 21.264,66.432C19.936,63.67 19.367,62.41 18.738,60.836C17.377,57.435 16.553,54.295 16.14,50.941C15.955,49.441 15.954,45.925 16.139,44.439C16.377,42.512 16.721,40.865 17.244,39.142C17.589,38.008 18.461,35.669 18.525,35.708C18.552,35.725 18.597,36.09 18.624,36.519C18.652,36.948 18.757,37.788 18.859,38.385C19.531,42.365 21.08,46.339 23.156,49.407L23.674,50.174L23.723,48.275C23.773,46.273 23.944,44.485 24.266,42.613C24.366,42.03 24.969,38.938 25.607,35.744C26.946,29.038 27.832,27.03 27.829,25.918C27.828,24.591 27.593,23.822 26.986,23.164C26.616,22.763 26.139,22.512 25.572,22.421C24.248,22.209 23.192,22.956 23.198,24.101C23.202,24.873 23.6,25.334 24.262,25.334C24.703,25.334 25.029,25.192 25.282,24.892C25.471,24.667 25.484,24.609 25.462,24.132L25.436,23.616L25.714,23.626C26.441,23.649 26.904,24.934 26.503,25.815C25.891,27.164 23.66,27.566 22.234,26.584C20.518,25.404 20.446,22.551 22.089,20.907C22.863,20.134 24.085,19.637 25.217,19.637C26.709,19.636 28.148,20.53 28.823,21.875C29.145,22.517 29.283,23.201 29.325,24.359C29.386,26.069 28.301,29.625 27.509,33.567C26.698,37.607 26.419,40.052 26.361,43.635C26.307,47.053 26.488,49.635 26.996,52.656L27.205,53.902L27.522,54.184C28.132,54.729 29.822,55.786 31.054,56.391C33.06,57.38 39.243,68.076 38.585,71.437C38.4,72.383 38.164,74.041 38.208,74.085ZM26.522,91.336C26.185,91.041 26.009,90.69 25.902,90.101C25.67,88.825 26.294,86.966 27.347,85.798C27.693,85.413 27.707,85.405 27.75,85.578C27.896,86.184 28.402,89.946 28.473,90.98L28.497,91.305L28.094,91.431C27.873,91.501 27.488,91.559 27.238,91.563C26.83,91.567 26.758,91.543 26.522,91.336ZM30.111,89.759C30.088,89.487 30.015,88.616 29.951,87.822C29.887,87.028 29.761,85.768 29.674,85.021L29.513,83.663L29.919,83.316C30.461,82.848 32.387,81.334 32.809,81.044C32.995,80.917 33.169,80.834 33.196,80.862C33.224,80.889 33.244,81.591 33.242,82.421C33.238,83.653 33.207,84.105 33.071,84.876C32.704,86.96 32.018,88.417 30.808,89.685C30.51,89.997 30.242,90.252 30.211,90.252C30.181,90.252 30.136,90.029 30.111,89.759ZM28.681,78.705C27.791,74.249 26.446,69.728 24.661,65.19C23.013,60.996 22.174,58.436 21.479,55.472C21.171,54.157 20.787,52.205 20.79,51.971C20.791,51.907 20.964,52.184 21.176,52.586C21.947,54.049 22.78,55.191 23.982,56.428L24.733,57.201L25.03,58.218C26.026,61.627 27.039,64.077 29.454,68.916C30.878,71.771 31.515,73.238 31.993,74.771C32.289,75.716 32.697,77.289 32.697,77.479C32.697,77.557 32.295,77.877 31.62,78.337C31.027,78.742 30.197,79.33 29.775,79.646C29.354,79.962 29.002,80.216 28.994,80.211C28.986,80.205 28.844,79.528 28.681,78.705ZM34.549,74.905C33.628,71.434 32.692,68.874 29.929,62.269C29.368,60.924 28.913,59.816 28.921,59.809C28.929,59.801 29.412,59.954 29.995,60.15C31.806,60.757 37.525,66.54 36.779,68.989C36.057,71.361 35.627,73.274 35.505,74.653C35.477,74.974 35.444,75.286 35.433,75.347C35.421,75.406 35.41,75.554 35.406,75.675C35.402,75.832 35.344,75.929 35.2,76.015C35.09,76.082 34.97,76.129 34.935,76.121C34.898,76.113 34.726,75.566 34.549,74.905Z" style="fill:rgb(229,197,178);stroke:rgb(229,197,178);stroke-width:0.93px;stroke-linecap:butt;stroke-linejoin:round;stroke-miterlimit:2;"/>
            </g>
            <g transform="matrix(0.934626,0,0,0.934626,16.7352,16.4461)">
                <path d="M81.525,18.692C79.73,19.903 68.802,26.44 69.514,26.154C70.587,25.72 55.613,32.267 49.904,33.016C48.473,33.204 45.388,33.185 43.873,32.98C40.967,32.586 38.793,31.94 36.567,30.808C31.183,28.07 28.466,23.583 28.887,18.124C29.295,12.845 32.067,8.802 36.943,6.379C39.998,4.86 43.434,4.144 47.347,4.213C52.984,4.313 57.643,5.956 61.888,9.34C62.919,10.163 64.709,11.953 65.531,12.985C67.565,15.537 68.999,18.4 69.7,21.315C69.806,21.757 69.917,22.209 69.945,22.32L69.998,22.523L71.423,21.745C73.105,20.827 75.295,19.516 78.364,17.589C81.698,15.495 83.99,14.172 87.79,12.15C94.92,8.355 100.108,6.53 105.604,5.885C106.929,5.729 110.022,5.709 111.207,5.848C115.256,6.324 118.792,7.596 121.404,9.518C121.744,9.766 122.418,10.369 122.902,10.857C125.989,13.958 127.162,18.376 126.144,23.073C125.417,26.431 123.449,28.725 120.363,29.814C118.117,30.607 115.697,30.456 113.545,29.39C111.605,28.428 110.366,27.031 109.814,25.183C109.554,24.309 109.536,23.01 109.772,22.118C110.032,21.138 110.504,20.277 111.168,19.576C112.108,18.583 112.917,18.242 114.194,18.298C114.907,18.33 115.773,18.559 115.773,18.715C115.773,18.747 115.629,18.989 115.452,19.254C114.098,21.273 114.584,23.265 116.673,24.267C117.449,24.64 117.999,24.742 118.938,24.691C121.163,24.568 122.892,23.075 123.527,20.729C123.759,19.872 123.757,18.038 123.523,17.005C123.082,15.061 122.117,13.317 120.68,11.867C118.536,9.703 115.529,8.375 111.792,7.943C109.843,7.717 106.836,7.809 104.595,8.164C99.241,9.01 93.432,11.254 87.643,14.711C86.166,15.593 84.905,16.414 81.525,18.692ZM46.69,27.6C42.934,27.158 40.082,25.965 38.136,24.021C37.293,23.18 36.774,22.447 36.273,21.393C35.175,19.082 35.177,16.92 36.281,14.78C37.558,12.299 40.047,10.42 43.394,9.409C45.408,8.8 46.881,8.605 49.503,8.602C52.273,8.599 53.746,8.768 55.678,9.307C59.084,10.259 62.343,12.421 64.581,15.212C66.253,17.299 67.608,20.005 68.251,22.545C68.352,22.943 68.425,23.277 68.412,23.288C68.355,23.343 66.096,24.332 65.286,24.657C60.955,26.392 56.64,27.373 51.875,27.704C50.601,27.793 47.86,27.737 46.69,27.6Z" style="fill:rgb(229,197,178);stroke:rgb(229,197,178);stroke-width:0.93px;stroke-linecap:butt;stroke-linejoin:round;stroke-miterlimit:2;"/>
            </g>
            <g transform="matrix(0.934626,0,0,0.934626,16.7352,16.4461)">
                <path d="M126.785,20.035C126.785,19.814 126.771,19.723 126.755,19.835C126.738,19.945 126.738,20.126 126.755,20.236C126.771,20.347 126.785,20.256 126.785,20.035Z" style="fill:rgb(229,197,178);stroke:rgb(229,197,178);stroke-width:0.93px;stroke-linecap:butt;stroke-linejoin:round;stroke-miterlimit:2;"/>
            </g>
        </g>
        <g id="path18691" serif:id="path1869" transform="matrix(-1.01411,0,0,1.01411,515.227,-3.35309)">
            <g transform="matrix(0.934626,0,0,0.934626,16.7352,16.4461)">
                <path d="M38.208,74.085C38.23,74.108 40.402,75.842 39.702,76.295L38.195,77.27L38.232,77.569C38.254,77.733 38.345,78.163 38.434,78.524C39.15,81.382 36.053,82.309 35.584,79.412C35.558,79.257 35.521,79.148 35.5,79.168C35.479,79.19 35.531,79.662 35.614,80.217C35.841,81.723 35.895,82.417 35.896,83.749C35.896,85.143 35.83,85.847 35.58,87.092C34.963,90.162 33.401,92.709 31.074,94.44L30.31,95.008L30.259,97.689C30.23,99.165 30.196,100.47 30.181,100.591C30.167,100.711 30.134,101.204 30.108,101.687C29.756,108.265 28.619,116.629 27.219,122.949C26.357,126.84 25.657,129.377 24.457,132.951C23.986,134.353 23.59,135.447 23.577,135.379C23.564,135.313 23.607,134.74 23.673,134.108C24.044,130.556 23.903,126.886 23.315,124.702C22.698,122.409 21.54,121.085 20.155,121.085C19.685,121.085 19.36,121.211 19.094,121.497C18.718,121.898 18.641,122.427 18.881,122.954C19.13,123.504 19.694,123.781 20.289,123.647C20.464,123.609 20.843,123.478 21.135,123.358C21.427,123.237 21.665,123.156 21.665,123.175C21.665,123.288 21.049,124.091 20.756,124.362C20.16,124.911 19.179,125.244 18.454,125.143C16.74,124.903 15.819,123.797 15.819,121.975C15.819,120.8 16.215,119.8 16.982,119.034C17.756,118.262 18.707,117.924 20.093,117.928C22.535,117.936 23.978,119.609 24.767,123.347C24.872,123.847 24.97,124.269 24.985,124.284C25.048,124.347 25.805,121.356 26.342,118.93C27.555,113.442 28.276,108.573 28.682,103.147C28.781,101.832 28.854,95.941 28.774,95.826C28.728,95.761 28.606,95.775 28.275,95.885C27.596,96.111 26.46,96.262 25.82,96.212C23.973,96.065 22.386,94.645 21.878,92.684C21.692,91.962 21.677,90.681 21.847,89.861C22.307,87.64 23.784,85.17 26.028,82.866L26.995,81.875L26.633,80.482C25.472,76.004 23.942,71.999 21.264,66.432C19.936,63.67 19.367,62.41 18.738,60.836C17.377,57.435 16.553,54.295 16.14,50.941C15.955,49.441 15.954,45.925 16.139,44.439C16.377,42.512 16.721,40.865 17.244,39.142C17.589,38.008 18.461,35.669 18.525,35.708C18.552,35.725 18.597,36.09 18.624,36.519C18.652,36.948 18.757,37.788 18.859,38.385C19.531,42.365 21.08,46.339 23.156,49.407L23.674,50.174L23.723,48.275C23.773,46.273 23.944,44.485 24.266,42.613C24.366,42.03 24.969,38.938 25.607,35.744C26.946,29.038 27.832,27.03 27.829,25.918C27.828,24.591 27.593,23.822 26.986,23.164C26.616,22.763 26.139,22.512 25.572,22.421C24.248,22.209 23.192,22.956 23.198,24.101C23.202,24.873 23.6,25.334 24.262,25.334C24.703,25.334 25.029,25.192 25.282,24.892C25.471,24.667 25.484,24.609 25.462,24.132L25.436,23.616L25.714,23.626C26.441,23.649 26.904,24.934 26.503,25.815C25.891,27.164 23.66,27.566 22.234,26.584C20.518,25.404 20.446,22.551 22.089,20.907C22.863,20.134 24.085,19.637 25.217,19.637C26.709,19.636 28.148,20.53 28.823,21.875C29.145,22.517 29.283,23.201 29.325,24.359C29.386,26.069 28.301,29.625 27.509,33.567C26.698,37.607 26.419,40.052 26.361,43.635C26.307,47.053 26.488,49.635 26.996,52.656L27.205,53.902L27.522,54.184C28.132,54.729 29.822,55.786 31.054,56.391C33.06,57.38 39.243,68.076 38.585,71.437C38.4,72.383 38.164,74.041 38.208,74.085ZM26.522,91.336C26.185,91.041 26.009,90.69 25.902,90.101C25.67,88.825 26.294,86.966 27.347,85.798C27.693,85.413 27.707,85.405 27.75,85.578C27.896,86.184 28.402,89.946 28.473,90.98L28.497,91.305L28.094,91.431C27.873,91.501 27.488,91.559 27.238,91.563C26.83,91.567 26.758,91.543 26.522,91.336ZM30.111,89.759C30.088,89.487 30.015,88.616 29.951,87.822C29.887,87.028 29.761,85.768 29.674,85.021L29.513,83.663L29.919,83.316C30.461,82.848 32.387,81.334 32.809,81.044C32.995,80.917 33.169,80.834 33.196,80.862C33.224,80.889 33.244,81.591 33.242,82.421C33.238,83.653 33.207,84.105 33.071,84.876C32.704,86.96 32.018,88.417 30.808,89.685C30.51,89.997 30.242,90.252 30.211,90.252C30.181,90.252 30.136,90.029 30.111,89.759ZM28.681,78.705C27.791,74.249 26.446,69.728 24.661,65.19C23.013,60.996 22.174,58.436 21.479,55.472C21.171,54.157 20.787,52.205 20.79,51.971C20.791,51.907 20.964,52.184 21.176,52.586C21.947,54.049 22.78,55.191 23.982,56.428L24.733,57.201L25.03,58.218C26.026,61.627 27.039,64.077 29.454,68.916C30.878,71.771 31.515,73.238 31.993,74.771C32.289,75.716 32.697,77.289 32.697,77.479C32.697,77.557 32.295,77.877 31.62,78.337C31.027,78.742 30.197,79.33 29.775,79.646C29.354,79.962 29.002,80.216 28.994,80.211C28.986,80.205 28.844,79.528 28.681,78.705ZM34.549,74.905C33.628,71.434 32.692,68.874 29.929,62.269C29.368,60.924 28.913,59.816 28.921,59.809C28.929,59.801 29.412,59.954 29.995,60.15C31.806,60.757 37.525,66.54 36.779,68.989C36.057,71.361 35.627,73.274 35.505,74.653C35.477,74.974 35.444,75.286 35.433,75.347C35.421,75.406 35.41,75.554 35.406,75.675C35.402,75.832 35.344,75.929 35.2,76.015C35.09,76.082 34.97,76.129 34.935,76.121C34.898,76.113 34.726,75.566 34.549,74.905Z" style="fill:rgb(229,197,178);stroke:rgb(229,197,178);stroke-width:0.93px;stroke-linecap:butt;stroke-linejoin:round;stroke-miterlimit:2;"/>
            </g>
            <g transform="matrix(0.934626,0,0,0.934626,16.7352,16.4461)">
                <path d="M81.525,18.692C79.73,19.903 68.802,26.44 69.514,26.154C70.587,25.72 55.613,32.267 49.904,33.016C48.473,33.204 45.388,33.185 43.873,32.98C40.967,32.586 38.793,31.94 36.567,30.808C31.183,28.07 28.466,23.583 28.887,18.124C29.295,12.845 32.067,8.802 36.943,6.379C39.998,4.86 43.434,4.144 47.347,4.213C52.984,4.313 57.643,5.956 61.888,9.34C62.919,10.163 64.709,11.953 65.531,12.985C67.565,15.537 68.999,18.4 69.7,21.315C69.806,21.757 69.917,22.209 69.945,22.32L69.998,22.523L71.423,21.745C73.105,20.827 75.295,19.516 78.364,17.589C81.698,15.495 83.99,14.172 87.79,12.15C94.92,8.355 100.108,6.53 105.604,5.885C106.929,5.729 110.022,5.709 111.207,5.848C115.256,6.324 118.792,7.596 121.404,9.518C121.744,9.766 122.418,10.369 122.902,10.857C125.989,13.958 127.162,18.376 126.144,23.073C125.417,26.431 123.449,28.725 120.363,29.814C118.117,30.607 115.697,30.456 113.545,29.39C111.605,28.428 110.366,27.031 109.814,25.183C109.554,24.309 109.536,23.01 109.772,22.118C110.032,21.138 110.504,20.277 111.168,19.576C112.108,18.583 112.917,18.242 114.194,18.298C114.907,18.33 115.773,18.559 115.773,18.715C115.773,18.747 115.629,18.989 115.452,19.254C114.098,21.273 114.584,23.265 116.673,24.267C117.449,24.64 117.999,24.742 118.938,24.691C121.163,24.568 122.892,23.075 123.527,20.729C123.759,19.872 123.757,18.038 123.523,17.005C123.082,15.061 122.117,13.317 120.68,11.867C118.536,9.703 115.529,8.375 111.792,7.943C109.843,7.717 106.836,7.809 104.595,8.164C99.241,9.01 93.432,11.254 87.643,14.711C86.166,15.593 84.905,16.414 81.525,18.692ZM46.69,27.6C42.934,27.158 40.082,25.965 38.136,24.021C37.293,23.18 36.774,22.447 36.273,21.393C35.175,19.082 35.177,16.92 36.281,14.78C37.558,12.299 40.047,10.42 43.394,9.409C45.408,8.8 46.881,8.605 49.503,8.602C52.273,8.599 53.746,8.768 55.678,9.307C59.084,10.259 62.343,12.421 64.581,15.212C66.253,17.299 67.608,20.005 68.251,22.545C68.352,22.943 68.425,23.277 68.412,23.288C68.355,23.343 66.096,24.332 65.286,24.657C60.955,26.392 56.64,27.373 51.875,27.704C50.601,27.793 47.86,27.737 46.69,27.6Z" style="fill:rgb(229,197,178);stroke:rgb(229,197,178);stroke-width:0.93px;stroke-linecap:butt;stroke-linejoin:round;stroke-miterlimit:2;"/>
            </g>
            <g transform="matrix(0.934626,0,0,0.934626,16.7352,16.4461)">
                <path d="M126.785,20.035C126.785,19.814 126.771,19.723 126.755,19.835C126.738,19.945 126.738,20.126 126.755,20.236C126.771,20.347 126.785,20.256 126.785,20.035Z" style="fill:rgb(229,197,178);stroke:rgb(229,197,178);stroke-width:0.93px;stroke-linecap:butt;stroke-linejoin:round;stroke-miterlimit:2;"/>
            </g>
        </g>
    </g>
</svg>
