<?xml version="1.0" encoding="UTF-8" standalone="no"?>
<!DOCTYPE svg PUBLIC "-//W3C//DTD SVG 1.1//EN" "http://www.w3.org/Graphics/SVG/1.1/DTD/svg11.dtd">
<svg width="100%" height="100%" viewBox="0 0 512 512" version="1.1" xmlns="http://www.w3.org/2000/svg" xmlns:xlink="http://www.w3.org/1999/xlink" xml:space="preserve" xmlns:serif="http://www.serif.com/" style="fill-rule:evenodd;clip-rule:evenodd;stroke-linejoin:round;stroke-miterlimit:2;">
    <g id="Layer-1" serif:id="Layer 1" transform="matrix(1.06995,0,0,1.06995,-17.9058,-17.5965)">
        <path id="path1869" d="M39.593,140.706C40.715,137.365 41.369,134.994 42.175,131.357C43.483,125.451 44.546,117.633 44.875,111.485C44.899,111.034 44.93,110.573 44.943,110.461C44.957,110.348 44.989,109.128 45.016,107.749L45.064,105.243L45.778,104.712C47.953,103.094 49.413,100.714 49.989,97.845C50.223,96.681 50.285,96.023 50.285,94.72C50.284,93.475 50.233,92.827 50.021,91.419C49.943,90.9 49.895,90.459 49.914,90.439C49.934,90.42 49.969,90.522 49.993,90.667C50.431,93.374 51.359,95.376 52.838,96.808C54.073,98.003 55.358,98.545 57.215,98.656C59.389,98.785 61.559,98.007 62.983,96.588C64.609,94.967 65.135,92.786 64.42,90.631C63.368,87.458 59.779,86.602 58.549,89.231C58.167,90.049 58.221,90.907 58.697,91.564C58.903,91.848 59.913,92.71 59.971,92.652C59.991,92.632 59.878,92.362 59.721,92.051C59.475,91.562 59.441,91.439 59.468,91.157C59.528,90.527 60.07,90.011 60.572,90.105C61.077,90.2 61.644,90.856 61.778,91.501C61.986,92.497 61.353,93.744 60.328,94.36C59.562,94.821 58.319,94.976 57.212,94.749C54.979,94.291 53.326,92.508 52.657,89.837C52.573,89.499 52.488,89.097 52.468,88.944L52.433,88.665L53.842,87.753C55.907,86.417 58.473,84.818 60.61,83.538C65.227,80.77 67.637,79.106 70.616,76.627C71.848,75.603 74.382,73.092 75.376,71.911C78.999,67.609 81.627,62.743 83.729,56.444C84.976,52.708 86.246,47.661 86.831,44.117C87.074,42.646 87.313,40.815 87.313,40.428L87.313,40.157L86.34,40.896C85.805,41.302 85.075,41.837 84.718,42.083C83.958,42.609 82.257,43.659 82.222,43.624C82.209,43.611 82.241,43.233 82.295,42.783C82.348,42.334 82.393,41.637 82.394,41.235L82.396,40.504L82.891,40.219C86.427,38.181 89.002,36.565 92.931,33.916C96.09,31.787 97.268,31.02 98.649,30.195C104.059,26.964 109.488,24.867 114.492,24.076C116.587,23.745 119.397,23.659 121.219,23.87C124.712,24.274 127.522,25.515 129.526,27.537C130.869,28.893 131.771,30.523 132.183,32.339C132.402,33.305 132.404,35.019 132.187,35.82C131.593,38.013 129.977,39.408 127.898,39.523C127.02,39.571 126.506,39.475 125.781,39.127C123.828,38.19 123.374,36.328 124.64,34.441C124.805,34.194 124.94,33.968 124.94,33.938C124.94,33.792 124.13,33.578 123.464,33.548C122.27,33.496 121.514,33.814 120.636,34.742C120.015,35.398 119.574,36.202 119.331,37.118C119.11,37.952 119.127,39.166 119.37,39.983C119.886,41.71 121.044,43.016 122.857,43.915C124.869,44.911 127.13,45.052 129.23,44.311C132.114,43.293 133.953,41.149 134.633,38.011C135.584,33.621 134.488,29.492 131.603,26.593C131.15,26.137 130.52,25.574 130.203,25.342C127.761,23.546 124.456,22.357 120.672,21.912C119.565,21.782 116.674,21.801 115.435,21.946C110.299,22.549 105.45,24.255 98.786,27.802C95.234,29.692 93.092,30.928 89.976,32.885C87.108,34.686 85.061,35.912 83.489,36.77L82.157,37.497L82.108,37.307C82.081,37.203 81.978,36.781 81.879,36.368C81.223,33.643 79.883,30.967 77.982,28.582C77.214,27.618 75.541,25.945 74.577,25.176C70.61,22.013 66.255,20.477 60.987,20.384C57.33,20.319 54.118,20.988 51.263,22.408C46.706,24.673 44.115,28.451 43.734,33.385C43.34,38.487 45.88,42.681 50.912,45.24C52.992,46.298 55.024,46.902 57.74,47.27C59.156,47.462 62.039,47.479 63.377,47.304C68.713,46.604 73.94,44.892 79.589,41.993C80.317,41.62 80.924,41.325 80.937,41.338C80.992,41.393 80.807,42.906 80.648,43.708C80.52,44.352 80.444,44.587 80.341,44.667C80.161,44.805 78.141,45.73 77.138,46.135C74.817,47.07 71.596,47.953 68.943,48.382C63.595,49.248 57.992,49.108 52.281,47.967C49.32,47.376 46.117,46.441 44.126,45.587L43.86,45.472L43.907,46.417C44.05,49.273 44.873,52.874 45.973,55.453C48.365,61.062 52.322,64.275 57.846,65.094C58.787,65.233 62.071,65.216 63.053,65.066C66.603,64.527 69.698,63.168 72.597,60.875C73.575,60.102 75.369,58.3 76.193,57.263C78.157,54.792 79.58,52.268 80.719,49.239C81.03,48.41 81.543,46.722 81.715,45.961L81.8,45.586L82.764,44.953C83.294,44.606 84.174,43.987 84.718,43.579C85.263,43.171 85.719,42.846 85.732,42.858C85.768,42.889 85.471,43.772 84.737,45.825C82.553,51.928 79.761,57.925 76.804,62.863C75.288,65.395 73.165,68.408 71.524,70.357C68.456,74.002 64.196,77.779 59.185,81.298C57.376,82.568 52.501,85.744 52.445,85.688C52.404,85.647 52.625,84.097 52.798,83.213C53.413,80.072 54.657,76.36 56.344,72.628C56.632,71.99 56.885,71.413 56.905,71.346C56.939,71.233 56.894,71.228 56.301,71.268C55.474,71.325 53.195,71.194 51.973,71.018C49.677,70.688 47.634,70.075 45.759,69.151C44.608,68.585 43.028,67.597 42.458,67.088L42.162,66.824L41.966,65.66C41.492,62.836 41.322,60.423 41.373,57.229C41.427,53.88 41.688,51.595 42.446,47.819C43.186,44.134 43.373,42.687 43.316,41.089C43.277,40.007 43.148,39.367 42.847,38.767C42.216,37.51 40.871,36.675 39.476,36.676C38.418,36.676 37.276,37.14 36.553,37.863C35.017,39.399 35.085,42.066 36.688,43.169C38.021,44.086 40.106,43.711 40.678,42.45C41.053,41.626 40.62,40.425 39.941,40.404L39.681,40.395L39.705,40.877C39.726,41.323 39.714,41.377 39.537,41.587C39.301,41.868 38.996,42 38.584,42C37.965,42 37.593,41.569 37.589,40.848C37.584,39.778 38.571,39.08 39.808,39.278C40.338,39.363 40.784,39.597 41.13,39.972C41.697,40.587 41.917,41.306 41.918,42.546C41.92,43.585 41.92,43.586 40.668,49.853C40.072,52.839 39.508,55.728 39.415,56.273C39.114,58.023 38.954,59.694 38.907,61.565L38.862,63.34L38.377,62.623C36.437,59.756 34.989,56.042 34.361,52.322C34.266,51.764 34.168,50.979 34.142,50.578C34.116,50.177 34.074,49.836 34.049,49.82C33.989,49.783 33.174,51.969 32.852,53.029C32.363,54.64 32.042,56.179 31.819,57.98C31.646,59.369 31.647,62.655 31.82,64.057C32.206,67.192 32.976,70.126 34.248,73.305C34.836,74.776 35.368,75.954 36.609,78.535C39.112,83.738 40.542,87.481 41.627,91.667L41.965,92.969L41.062,93.895C38.964,96.048 37.584,98.357 37.154,100.433C36.995,101.199 37.009,102.396 37.183,103.071C37.658,104.904 39.141,106.231 40.867,106.368C41.465,106.415 42.527,106.274 43.162,106.063C43.471,105.96 43.585,105.947 43.628,106.008C43.703,106.115 43.635,111.621 43.542,112.85C43.163,117.921 42.489,122.472 41.355,127.601C40.853,129.869 40.146,132.664 40.087,132.605C40.073,132.591 39.981,132.197 39.883,131.729C39.146,128.236 37.797,126.672 35.515,126.665C34.219,126.661 33.33,126.977 32.607,127.698C31.89,128.414 31.52,129.349 31.52,130.447C31.52,132.15 32.381,133.184 33.983,133.408C34.66,133.502 35.577,133.191 36.134,132.678C36.408,132.425 36.984,131.674 36.984,131.569C36.984,131.551 36.761,131.627 36.489,131.74C36.216,131.852 35.861,131.974 35.698,132.01C35.142,132.135 34.615,131.876 34.382,131.362C34.158,130.87 34.23,130.375 34.581,130C34.83,129.733 35.133,129.615 35.573,129.615C36.867,129.615 37.949,130.853 38.526,132.996C39.076,135.037 39.207,138.467 38.861,141.787C38.799,142.378 38.759,142.913 38.771,142.975C38.783,143.038 39.153,142.016 39.593,140.706L39.593,140.706ZM41.523,101.811C41.208,101.535 41.044,101.207 40.944,100.657C40.727,99.464 41.31,97.727 42.294,96.635C42.618,96.275 42.631,96.268 42.671,96.43C42.808,96.996 43.28,100.512 43.347,101.478L43.369,101.782L42.993,101.9C42.786,101.965 42.426,102.02 42.193,102.023C41.811,102.027 41.744,102.005 41.523,101.811L41.523,101.811ZM44.878,100.337C44.856,100.083 44.788,99.269 44.728,98.527C44.668,97.785 44.551,96.607 44.469,95.909L44.319,94.64L44.698,94.315C45.205,93.878 47.005,92.463 47.399,92.192C47.573,92.073 47.736,91.996 47.761,92.022C47.787,92.047 47.806,92.703 47.804,93.479C47.8,94.63 47.771,95.053 47.644,95.773C47.301,97.721 46.66,99.083 45.529,100.268C45.251,100.56 45,100.798 44.971,100.798C44.943,100.798 44.901,100.59 44.878,100.337L44.878,100.337ZM43.541,90.006C42.709,85.841 41.452,81.616 39.784,77.374C38.244,73.455 37.46,71.062 36.81,68.292C36.522,67.063 36.163,65.238 36.166,65.02C36.167,64.96 36.329,65.219 36.527,65.594C37.247,66.962 38.026,68.029 39.149,69.185L39.851,69.908L40.129,70.858C41.06,74.044 42.007,76.334 44.264,80.857C45.595,83.525 46.19,84.896 46.637,86.329C46.913,87.212 47.295,88.682 47.295,88.86C47.295,88.933 46.919,89.232 46.288,89.662C45.734,90.04 44.958,90.59 44.564,90.885C44.17,91.181 43.841,91.418 43.834,91.413C43.826,91.408 43.694,90.775 43.541,90.006ZM49.026,86.454C48.165,83.21 47.29,80.818 44.708,74.644C44.183,73.387 43.758,72.352 43.766,72.345C43.773,72.338 44.224,72.481 44.769,72.664C46.462,73.231 47.967,73.501 49.925,73.589C50.999,73.637 52.741,73.543 53.735,73.383C54.043,73.333 54.303,73.3 54.312,73.308C54.322,73.316 54.009,73.95 53.618,74.717C52.525,76.858 51.807,78.636 51.11,80.925C50.435,83.142 50.033,84.93 49.919,86.219C49.893,86.519 49.862,86.81 49.852,86.867C49.841,86.923 49.83,87.061 49.827,87.174C49.823,87.321 49.769,87.411 49.634,87.492C49.531,87.554 49.419,87.598 49.386,87.591C49.352,87.583 49.191,87.072 49.026,86.454L49.026,86.454ZM59.28,59.508C56.741,59.143 54.419,58.159 52.554,56.656C51.472,55.784 50.418,54.59 49.679,53.402C49.301,52.794 48.497,51.175 48.422,50.87L48.378,50.691L48.934,50.852C50.324,51.255 52.999,51.706 55.422,51.947C56.904,52.094 60.574,52.114 62.046,51.983C68.118,51.441 73.27,50.009 78.453,47.423C79.157,47.071 79.733,46.811 79.733,46.844C79.733,46.949 79.291,47.942 78.88,48.761C77.479,51.552 75.421,54.023 72.937,55.897C70.032,58.089 66.568,59.34 62.558,59.645C61.913,59.694 60.03,59.615 59.28,59.508L59.28,59.508ZM60.373,42.242C56.862,41.829 54.197,40.714 52.378,38.897C51.59,38.111 51.105,37.426 50.637,36.441C49.611,34.281 49.613,32.26 50.644,30.26C51.838,27.941 54.164,26.185 57.292,25.24C59.175,24.671 60.551,24.489 63.002,24.486C65.591,24.483 66.968,24.641 68.773,25.145C71.957,26.034 75.003,28.055 77.094,30.664C78.657,32.614 79.923,35.143 80.524,37.517C80.619,37.889 80.687,38.201 80.675,38.212C80.622,38.263 78.51,39.187 77.753,39.491C73.705,41.113 69.672,42.03 65.219,42.339C64.028,42.422 61.466,42.37 60.373,42.242L60.373,42.242ZM135.232,35.171C135.232,34.965 135.219,34.88 135.204,34.984C135.188,35.087 135.188,35.256 135.204,35.359C135.219,35.463 135.232,35.378 135.232,35.171Z" style="fill:rgb(249,204,157);fill-rule:nonzero;"/>
        <path id="path836" d="M39.242,29.225C33.724,29.225 29.225,33.687 29.225,39.183L29.225,472.817C29.225,478.313 33.724,482.768 39.242,482.768L472.758,482.768C478.276,482.768 482.768,478.313 482.768,472.817L482.768,39.183C482.768,33.687 478.276,29.225 472.758,29.225L39.242,29.225ZM39.242,32.074L472.758,32.074C476.758,32.074 479.926,35.227 479.926,39.183L479.926,472.817C479.926,476.774 476.758,479.926 472.758,479.926L39.242,479.926C35.243,479.926 32.074,476.774 32.074,472.817L32.074,39.183C32.074,35.227 35.243,32.074 39.242,32.074Z" style="fill:rgb(249,204,157);fill-rule:nonzero;"/>
        <path id="path1893" d="M480.424,426.63C480.424,455.512 480.413,479.131 480.401,479.118C480.386,479.103 480.297,478.788 480.197,478.415C480.025,477.767 479.607,476.552 479.143,475.349C478.991,474.956 478.74,474.508 478.3,473.844C475.607,469.78 472.412,464.378 468.067,456.541C467.414,455.362 466.649,453.503 465.974,451.456C465.687,450.585 465.344,449.114 465.147,447.917C464.977,446.88 464.968,446.745 464.972,445.174C464.974,444.265 464.995,443.574 465.023,443.639C465.05,443.704 465.143,444.205 465.231,444.752C465.779,448.14 466.87,451.464 468.439,454.523C470.789,459.108 473.486,462.277 476.823,464.376L477.478,464.788L479.433,464.788L479.395,464.507C479.318,463.928 479.293,453.759 479.361,450.511C479.524,442.723 479.508,440.386 479.269,437.061C479.077,434.39 478.683,431.865 478.181,430.077C477.917,429.137 477.619,428.6 476.856,427.69C475.821,426.457 474.665,425.565 473.87,425.386C473.642,425.335 473.048,425.356 471.398,425.466C471.155,425.485 470.451,425.523 469.835,425.556C469.218,425.59 468.556,425.632 468.364,425.65L468.014,425.684L469.003,424.725C471.178,422.617 472.936,420.155 474.711,416.731C477.345,411.648 479.031,406.414 479.36,402.292C479.444,401.245 479.442,387.53 479.358,386.623C479.235,385.294 478.962,384.278 478.514,383.476C478.284,383.065 477.735,382.509 477.384,382.332C476.609,381.94 474.994,381.754 471.841,381.693C470.232,381.662 469.089,381.565 468.976,381.451C468.949,381.425 468.882,381.136 468.828,380.812C468.673,379.869 468.76,378.28 469.072,376.388C469.247,375.325 469.467,374.204 469.51,374.157C469.533,374.13 469.573,374.21 469.596,374.334C469.723,375.031 470.245,376.971 470.388,377.276C470.595,377.718 470.86,378.026 471.214,378.234C471.434,378.363 471.56,378.393 471.87,378.393C472.224,378.393 472.308,378.367 472.961,378.031C473.702,377.653 474.736,377.063 476.619,375.945C478.205,375.003 479.948,374.117 480.214,374.117L480.424,374.117L480.424,426.63ZM426.004,424.327C427.704,425.321 430.33,426.338 434.801,427.736C439.189,429.107 441.717,430.04 443.525,430.953C445.597,432 447.076,433.1 448.165,434.402C449.277,435.733 449.865,437.004 450.279,438.979C451.082,442.802 452.428,446.4 454.398,449.992C456.605,454.013 459.491,457.974 463.051,461.866C463.832,462.72 464.009,462.951 463.483,462.428C463.27,462.217 455.377,454.24 445.943,444.701C436.508,435.162 428.057,426.621 427.161,425.72C426.266,424.82 425.546,424.084 425.562,424.084C425.577,424.085 425.777,424.194 426.004,424.327L426.004,424.327ZM427.21,428.701C428.786,430.267 432.291,433.737 435,436.412C439.932,441.281 447.426,448.685 452.078,453.284C453.44,454.63 455.657,456.82 457.004,458.15C460.688,461.787 462.449,463.551 461.989,463.144C461.762,462.942 461.165,462.413 460.662,461.966C456.187,457.992 451.903,455.083 448.178,453.489C447.2,453.07 447.079,453.032 440.899,451.217C438.121,450.401 436.123,449.546 434.903,448.652C434.648,448.466 434.146,448.018 433.786,447.657C431.732,445.596 430.031,442.319 428.776,438.005C426.89,431.52 425.505,427.77 424.337,425.986C424.289,425.912 424.272,425.853 424.298,425.853C424.324,425.853 425.635,427.135 427.21,428.701L427.21,428.701ZM468.419,428.369C469.331,428.472 469.73,428.533 470.159,428.632C472.012,429.058 473.671,429.883 475.126,431.099C476.602,432.334 477.539,433.881 477.948,435.759C478.323,437.481 478.221,438.931 477.564,441.22C476.911,443.493 475.798,445.791 474.831,446.859C474.547,447.172 473.904,447.669 473.851,447.615C473.835,447.6 473.866,447.404 473.912,447.178C474.3,445.327 474.345,442.652 474.016,440.984C473.337,437.539 471.098,435.738 467.613,435.835C466.633,435.861 466.267,435.961 465.586,436.383C464.209,437.237 462.887,439.383 462.46,441.456C462.326,442.11 462.285,443.321 462.367,444.199C462.587,446.545 463.257,449.11 464.632,452.871C465.183,454.378 466.495,457.447 467.597,459.803C468.296,461.298 470.577,465.849 471.102,466.793C473.55,471.201 475.261,473.859 477.192,476.247C477.448,476.563 477.646,476.822 477.632,476.822C477.55,476.822 474.299,473.134 472.873,471.424C465.988,463.164 461.566,455.953 459.445,449.528C458.802,447.582 458.468,446.182 458.172,444.199C458.048,443.367 458.036,443.085 458.037,441.043C458.038,438.65 458.076,438.146 458.392,436.439C458.966,433.328 460.282,431.027 462.228,429.731C463.355,428.981 464.566,428.564 466.118,428.391C466.611,428.336 468.013,428.322 468.419,428.368L468.419,428.369ZM441.666,458.219C445.1,458.452 447.322,458.906 450.722,460.071C457.57,462.416 465.51,467.306 472.665,473.584C474.077,474.823 477.061,477.626 477.061,477.712C477.061,477.735 476.63,477.464 476.103,477.104C466.656,470.659 459.296,466.547 453.937,464.719C452.5,464.229 450.628,463.844 449.672,463.843C449.166,463.843 448.541,463.699 447.645,463.378C446.83,463.086 446.266,462.976 445.353,462.933C444.964,462.918 444.353,462.859 443.996,462.811C441.545,462.48 440.729,462.464 440.095,462.739C439.159,463.145 438.322,463.763 437.208,464.874C436.357,465.723 435.935,466.279 435.707,466.854C435.59,467.146 435.581,467.253 435.606,467.973C435.649,469.158 435.89,469.893 436.55,470.851C437.759,472.606 440.525,473.955 443.594,474.287C444.554,474.391 446.675,474.331 447.315,474.182C447.582,474.119 447.801,474.074 447.801,474.081C447.801,474.096 446.336,475.026 445.324,475.656C442.019,477.71 439.806,478.427 437.035,478.339C435.596,478.294 434.665,478.007 433.562,477.269C432.589,476.618 431.784,475.739 430.855,474.315C429.413,472.103 428.765,470.27 428.564,467.832C428.394,465.773 428.823,463.919 429.804,462.464C431.021,460.661 433.349,459.274 436.239,458.631C437.737,458.297 440.135,458.115 441.666,458.219L441.666,458.219ZM447.772,465.475C451.194,465.882 454.505,466.922 458.508,468.845C461.889,470.469 465.593,472.67 472.999,477.455C473.604,477.845 474.241,478.212 474.415,478.269C475.114,478.5 479.264,480.187 479.357,480.278C479.372,480.293 455.831,480.301 427.046,480.301L374.711,480.301L374.711,478.369L374.996,477.934C375.153,477.695 375.585,477.124 375.955,476.666C376.325,476.209 376.884,475.517 377.198,475.129C378.326,473.735 378.955,472.669 379.005,472.069C379.115,470.748 377.805,469.991 375.022,469.766L374.536,469.727L374.845,469.54C375.014,469.437 375.286,469.251 375.448,469.127C376.049,468.665 375.929,468.68 378.934,468.68L381.613,468.68L381.613,468.901C381.613,470.413 382.153,475.912 382.354,476.449C382.487,476.805 383.049,477.302 383.669,477.611C384.605,478.078 385.687,478.37 387.511,478.646C389.976,479.02 391.219,479.101 395.771,479.186C400.256,479.269 403.897,479.233 404.679,479.097C405.94,478.879 407.829,478.317 409.958,477.528C414.266,475.93 417.814,474.368 419.751,473.216C421.589,472.122 423.65,470.198 425.351,467.987C425.607,467.654 425.822,467.388 425.83,467.397C425.837,467.408 425.815,467.916 425.786,468.533C425.653,471.106 425.912,473.934 426.363,474.827C426.867,475.823 427.851,476.686 429.424,477.51C431.454,478.574 433.004,479.074 434.617,479.184C435.195,479.223 440.405,479.239 449.63,479.227L463.759,479.212L464.051,479.078C464.212,479.004 464.486,478.835 464.662,478.702L464.98,478.462L464.957,477.539C464.934,476.712 464.916,476.575 464.773,476.209C463.907,473.987 460.002,471.027 453.968,468.018C451.641,466.857 448.472,465.614 448.054,465.696C447.958,465.715 447.723,465.67 447.479,465.587L447.066,465.445L447.332,465.448C447.478,465.451 447.677,465.464 447.774,465.475L447.772,465.475Z" style="fill:rgb(249,204,157);fill-rule:nonzero;"/>
    </g>
</svg>
