<?xml version="1.0" encoding="UTF-8" standalone="no"?>
<!DOCTYPE svg PUBLIC "-//W3C//DTD SVG 1.1//EN" "http://www.w3.org/Graphics/SVG/1.1/DTD/svg11.dtd">
<svg width="100%" height="100%" viewBox="0 0 512 512" version="1.1" xmlns="http://www.w3.org/2000/svg" xmlns:xlink="http://www.w3.org/1999/xlink" xml:space="preserve" xmlns:serif="http://www.serif.com/" style="fill-rule:evenodd;clip-rule:evenodd;stroke-linecap:square;">
    <g id="Layer-1" serif:id="Layer 1" transform="matrix(1.05506,0,0,1.05506,-14.1024,-13.9284)">
        <path id="path836" d="M39.242,29.225C33.724,29.225 29.225,33.687 29.225,39.183L29.225,472.817C29.225,478.313 33.724,482.768 39.242,482.768L472.758,482.768C478.276,482.768 482.768,478.313 482.768,472.817L482.768,39.183C482.768,33.687 478.276,29.225 472.758,29.225L39.242,29.225ZM39.242,32.074L472.758,32.074C476.758,32.074 479.926,35.227 479.926,39.183L479.926,472.817C479.926,476.774 476.758,479.926 472.758,479.926L39.242,479.926C35.243,479.926 32.074,476.774 32.074,472.817L32.074,39.183C32.074,35.227 35.243,32.074 39.242,32.074Z" style="fill:rgb(249,204,157);fill-rule:nonzero;stroke:rgb(249,204,157);stroke-width:2.09px;"/>
        <path id="path1893" d="M31.739,427.176C31.739,456.058 31.75,479.677 31.761,479.664C31.776,479.649 31.865,479.334 31.965,478.961C32.137,478.313 32.555,477.098 33.02,475.895C33.171,475.503 33.422,475.054 33.862,474.391C36.555,470.327 39.75,464.924 44.095,457.087C44.748,455.909 45.514,454.05 46.188,452.002C46.475,451.131 46.819,449.66 47.015,448.463C47.185,447.426 47.194,447.291 47.19,445.72C47.188,444.811 47.168,444.12 47.139,444.185C47.113,444.25 47.02,444.751 46.931,445.298C46.383,448.686 45.292,452.011 43.724,455.069C41.373,459.654 38.676,462.823 35.339,464.922L34.685,465.334L32.73,465.334L32.767,465.053C32.845,464.475 32.87,454.306 32.801,451.058C32.638,443.269 32.654,440.932 32.894,437.608C33.086,434.937 33.479,432.411 33.981,430.623C34.245,429.684 34.544,429.146 35.307,428.237C36.341,427.003 37.498,426.111 38.292,425.933C38.52,425.881 39.114,425.902 40.764,426.012C41.008,426.031 41.711,426.069 42.328,426.102C42.944,426.136 43.606,426.178 43.799,426.196L44.149,426.23L43.159,425.271C40.985,423.164 39.227,420.701 37.452,417.278C34.817,412.194 33.132,406.96 32.802,402.838C32.719,401.792 31.739,427.176 31.739,427.176ZM86.159,424.873C84.458,425.867 81.832,426.884 77.362,428.282C72.974,429.654 70.446,430.586 68.638,431.499C66.566,432.546 65.086,433.646 63.998,434.948C62.885,436.279 62.298,437.551 61.883,439.525C61.081,443.348 59.735,446.946 57.764,450.538C55.558,454.559 52.671,458.52 49.112,462.412C48.331,463.266 48.153,463.497 48.68,462.974C48.892,462.763 56.785,454.786 66.22,445.247C75.654,435.708 84.106,427.167 85.001,426.267C85.897,425.366 86.617,424.63 86.601,424.631C86.585,424.631 86.385,424.74 86.159,424.873ZM84.952,429.247C83.377,430.813 79.871,434.283 77.162,436.959C72.231,441.828 64.736,449.232 60.085,453.83C58.722,455.177 56.505,457.366 55.159,458.696C51.475,462.333 49.713,464.098 50.174,463.69C50.401,463.489 50.998,462.959 51.501,462.512C55.975,458.538 60.259,455.629 63.984,454.035C64.963,453.616 65.083,453.579 71.263,451.763C74.041,450.947 76.039,450.092 77.259,449.198C77.514,449.012 78.017,448.564 78.376,448.203C80.431,446.143 82.132,442.866 83.387,438.552C85.273,432.066 86.658,428.317 87.825,426.532C87.873,426.459 87.891,426.399 87.865,426.399C87.838,426.399 86.528,427.681 84.953,429.247L84.952,429.247ZM43.743,428.915C42.832,429.019 42.433,429.079 42.003,429.178C40.15,429.605 38.491,430.429 37.037,431.645C35.56,432.88 34.623,434.427 34.215,436.305C33.84,438.028 33.942,439.477 34.599,441.766C35.251,444.039 36.365,446.338 37.331,447.405C37.615,447.719 38.259,448.215 38.312,448.162C38.327,448.146 38.297,447.951 38.251,447.724C37.863,445.873 37.818,443.199 38.147,441.531C38.826,438.085 41.065,436.284 44.55,436.381C45.53,436.407 45.895,436.507 46.576,436.929C47.953,437.783 49.276,439.929 49.702,442.003C49.837,442.657 49.878,443.868 49.796,444.746C49.575,447.091 48.905,449.656 47.53,453.417C46.979,454.924 45.667,457.993 44.566,460.349C43.867,461.844 41.585,466.395 41.061,467.339C38.613,471.748 36.901,474.405 34.971,476.793C34.715,477.109 34.517,477.368 34.53,477.368C34.613,477.368 37.864,473.681 39.29,471.97C46.175,463.71 50.597,456.499 52.718,450.074C53.36,448.128 53.694,446.729 53.99,444.746C54.114,443.913 54.127,443.631 54.126,441.59C54.125,439.196 54.086,438.692 53.771,436.986C53.196,433.874 51.88,431.573 49.934,430.277C48.808,429.528 47.597,429.11 46.045,428.937C45.552,428.882 44.15,428.868 43.744,428.914L43.743,428.915ZM70.496,458.765C67.063,458.998 64.84,459.453 61.441,460.617C54.593,462.962 46.652,467.852 39.498,474.13C38.086,475.369 35.101,478.172 35.101,478.259C35.101,478.281 35.533,478.01 36.06,477.65C45.507,471.205 52.866,467.093 58.226,465.265C59.663,464.775 61.535,464.391 62.49,464.39C62.997,464.389 63.622,464.246 64.518,463.924C65.332,463.632 65.897,463.522 66.809,463.479C67.199,463.464 67.809,463.406 68.166,463.358C70.618,463.026 71.434,463.01 72.068,463.285C73.004,463.691 73.84,464.309 74.954,465.42C75.806,466.27 76.228,466.825 76.456,467.4C76.572,467.692 76.582,467.8 76.556,468.519C76.513,469.705 76.273,470.439 75.612,471.398C74.403,473.152 71.638,474.501 68.568,474.834C67.609,474.937 65.487,474.877 64.848,474.728C64.58,474.665 64.361,474.621 64.361,474.628C64.361,474.643 65.826,475.573 66.839,476.202C70.143,478.256 72.356,478.973 75.127,478.886C76.567,478.84 77.497,478.553 78.601,477.815C79.573,477.165 80.379,476.286 81.307,474.861C82.749,472.649 83.397,470.816 83.599,468.378C83.769,466.32 83.34,464.465 82.358,463.011C81.142,461.207 78.813,459.82 75.924,459.177C74.425,458.843 72.028,458.662 70.496,458.765ZM64.391,466.021C60.969,466.429 57.658,467.468 53.654,469.391C50.273,471.016 46.569,473.216 39.164,478.001C38.559,478.391 37.922,478.758 37.748,478.815C37.049,479.046 32.899,480.733 32.805,480.825C32.79,480.84 56.332,480.847 85.116,480.847L137.452,480.847L137.452,478.916L137.166,478.48C137.009,478.241 136.578,477.671 136.207,477.213C135.837,476.755 135.278,476.063 134.965,475.676C133.837,474.281 133.207,473.215 133.157,472.616C133.048,471.295 134.357,470.537 137.141,470.312L137.626,470.273L137.318,470.086C137.148,469.984 136.877,469.798 136.714,469.673C136.114,469.211 136.233,469.226 133.229,469.226L130.55,469.226L130.55,469.448C130.55,470.959 130.01,476.459 129.809,476.996C129.676,477.352 129.114,477.848 128.494,478.158C127.558,478.625 126.476,478.916 124.651,479.193C122.187,479.566 120.943,479.647 116.392,479.732C111.907,479.815 108.266,479.779 107.484,479.644C106.222,479.425 104.334,478.864 102.204,478.074C97.896,476.476 94.348,474.914 92.412,473.762C90.574,472.669 88.513,470.744 86.812,468.533C86.556,468.2 86.34,467.934 86.333,467.943C86.325,467.954 86.348,468.463 86.377,469.079C86.51,471.652 86.25,474.48 85.799,475.373C85.296,476.37 84.312,477.233 82.739,478.057C80.708,479.12 79.158,479.62 77.546,479.73C76.968,479.769 71.757,479.785 62.532,479.774L48.404,479.759L48.112,479.624C47.951,479.55 47.676,479.381 47.501,479.249L47.183,479.008L47.205,478.086C47.228,477.258 47.247,477.121 47.39,476.755C48.256,474.533 52.16,471.574 58.195,468.564C60.522,467.404 63.69,466.16 64.108,466.243C64.204,466.262 64.44,466.216 64.684,466.133L65.097,465.991L64.831,465.995C64.685,465.997 64.486,466.01 64.388,466.021L64.391,466.021Z" style="fill:rgb(249,204,157);fill-rule:nonzero;"/>
        <path id="path1504" d="M480.248,427.176C480.248,456.058 480.236,479.677 480.225,479.664C480.21,479.649 480.121,479.334 480.021,478.961C479.849,478.313 479.431,477.098 478.967,475.895C478.815,475.503 478.564,475.054 478.124,474.391C475.431,470.327 472.236,464.924 467.891,457.087C467.238,455.909 466.473,454.05 465.798,452.002C465.511,451.131 465.168,449.66 464.971,448.463C464.801,447.426 464.792,447.291 464.796,445.72C464.798,444.811 464.819,444.12 464.847,444.185C464.874,444.25 464.967,444.751 465.055,445.298C465.603,448.686 466.694,452.011 468.263,455.069C470.613,459.654 473.31,462.823 476.647,464.922L477.302,465.334L479.257,465.334L479.219,465.053C479.142,464.475 479.117,454.306 479.185,451.058C479.348,443.269 479.332,440.932 479.093,437.608C478.901,434.937 478.507,432.411 478.005,430.623C477.741,429.684 477.443,429.146 476.68,428.237C475.645,427.003 474.489,426.111 473.694,425.933C473.466,425.881 472.872,425.902 471.222,426.012C470.979,426.031 470.275,426.069 469.659,426.102C469.042,426.136 468.38,426.178 468.188,426.196L467.838,426.23L468.827,425.271C471.002,423.164 472.76,420.701 474.534,417.278C477.169,412.194 478.855,406.96 479.184,402.838C479.268,401.792 480.248,427.176 480.248,427.176ZM425.828,424.873C427.528,425.867 430.154,426.884 434.625,428.282C439.013,429.654 441.54,430.586 443.349,431.499C445.42,432.546 446.9,433.646 447.989,434.948C449.101,436.279 449.689,437.551 450.103,439.525C450.906,443.348 452.252,446.946 454.222,450.538C456.429,454.559 459.315,458.52 462.875,462.412C463.656,463.266 463.833,463.497 463.307,462.974C463.094,462.763 455.201,454.786 445.767,445.247C436.332,435.708 427.881,427.167 426.985,426.267C426.09,425.366 425.37,424.63 425.386,424.631C425.401,424.631 425.601,424.74 425.828,424.873ZM427.034,429.247C428.609,430.813 432.115,434.283 434.824,436.959C439.756,441.828 447.25,449.232 451.902,453.83C453.264,455.177 455.481,457.366 456.828,458.696C460.512,462.333 462.273,464.098 461.813,463.69C461.586,463.489 460.988,462.959 460.486,462.512C456.011,458.538 451.727,455.629 448.002,454.035C447.024,453.616 446.903,453.579 440.723,451.763C437.945,450.947 435.947,450.092 434.727,449.198C434.472,449.012 433.97,448.564 433.61,448.203C431.556,446.143 429.855,442.866 428.6,438.552C426.713,432.066 425.329,428.317 424.161,426.532C424.113,426.459 424.096,426.399 424.122,426.399C424.148,426.399 425.458,427.681 427.034,429.247ZM468.243,428.915C469.155,429.019 469.554,429.079 469.983,429.178C471.836,429.605 473.495,430.429 474.95,431.645C476.426,432.88 477.363,434.427 477.772,436.305C478.147,438.028 478.045,439.477 477.388,441.766C476.735,444.039 475.621,446.338 474.655,447.405C474.371,447.719 473.728,448.215 473.674,448.162C473.659,448.146 473.69,447.951 473.736,447.724C474.124,445.873 474.169,443.199 473.84,441.531C473.161,438.085 470.922,436.284 467.437,436.381C466.457,436.407 466.091,436.507 465.41,436.929C464.033,437.783 462.711,439.929 462.284,442.003C462.15,442.657 462.109,443.868 462.191,444.746C462.411,447.091 463.081,449.656 464.456,453.417C465.007,454.924 466.319,457.993 467.421,460.349C468.119,461.844 470.401,466.395 470.926,467.339C473.374,471.748 475.085,474.405 477.016,476.793C477.271,477.109 477.47,477.368 477.456,477.368C477.374,477.368 474.123,473.681 472.697,471.97C465.812,463.71 461.39,456.499 459.269,450.074C458.626,448.128 458.292,446.729 457.996,444.746C457.872,443.913 457.86,443.631 457.861,441.59C457.861,439.196 457.9,438.692 458.216,436.986C458.79,433.874 460.106,431.573 462.052,430.277C463.179,429.528 464.39,429.11 465.942,428.937C466.435,428.882 467.837,428.868 468.243,428.914L468.243,428.915ZM441.49,458.765C444.924,458.998 447.146,459.453 450.545,460.617C457.394,462.962 465.334,467.852 472.489,474.13C473.901,475.369 476.885,478.172 476.885,478.259C476.885,478.281 476.454,478.01 475.927,477.65C466.48,471.205 459.12,467.093 453.761,465.265C452.324,464.775 450.451,464.391 449.496,464.39C448.99,464.389 448.365,464.246 447.469,463.924C446.654,463.632 446.09,463.522 445.177,463.479C444.788,463.464 444.177,463.406 443.82,463.358C441.368,463.026 440.553,463.01 439.919,463.285C438.983,463.691 438.146,464.309 437.032,465.42C436.181,466.27 435.759,466.825 435.53,467.4C435.414,467.692 435.405,467.8 435.43,468.519C435.473,469.705 435.714,470.439 436.374,471.398C437.583,473.152 440.349,474.501 443.418,474.834C444.378,474.937 446.499,474.877 447.139,474.728C447.406,474.665 447.625,474.621 447.625,474.628C447.625,474.643 446.16,475.573 445.148,476.202C441.843,478.256 439.63,478.973 436.859,478.886C435.42,478.84 434.489,478.553 433.386,477.815C432.413,477.165 431.608,476.286 430.679,474.861C429.237,472.649 428.589,470.816 428.388,468.378C428.218,466.32 428.646,464.465 429.628,463.011C430.845,461.207 433.173,459.82 436.063,459.177C437.561,458.843 439.959,458.662 441.49,458.765ZM447.596,466.021C451.018,466.429 454.329,467.468 458.332,469.391C461.713,471.016 465.417,473.216 472.823,478.001C473.427,478.391 474.065,478.758 474.239,478.815C474.938,479.046 479.087,480.733 479.181,480.825C479.196,480.84 455.655,480.847 426.87,480.847L374.535,480.847L374.535,478.916L374.82,478.48C374.978,478.241 375.409,477.671 375.779,477.213C376.149,476.755 376.708,476.063 377.022,475.676C378.15,474.281 378.779,473.215 378.829,472.616C378.939,471.295 377.629,470.537 374.846,470.312L374.36,470.273L374.669,470.086C374.838,469.984 375.11,469.798 375.272,469.673C375.873,469.211 375.753,469.226 378.757,469.226L381.437,469.226L381.437,469.448C381.437,470.959 381.977,476.459 382.177,476.996C382.311,477.352 382.872,477.848 383.493,478.158C384.428,478.625 385.511,478.916 387.335,479.193C389.8,479.566 391.043,479.647 395.595,479.732C400.08,479.815 403.721,479.779 404.502,479.644C405.764,479.425 407.652,478.864 409.782,478.074C414.09,476.476 417.638,474.914 419.575,473.762C421.413,472.669 423.473,470.744 425.174,468.533C425.431,468.2 425.646,467.934 425.654,467.943C425.661,467.954 425.639,468.463 425.61,469.079C425.476,471.652 425.736,474.48 426.187,475.373C426.69,476.37 427.675,477.233 429.248,478.057C431.278,479.12 432.828,479.62 434.441,479.73C435.018,479.769 440.229,479.785 449.454,479.774L463.583,479.759L463.875,479.624C464.035,479.55 464.31,479.381 464.485,479.249L464.804,479.008L464.781,478.086C464.758,477.258 464.739,477.121 464.597,476.755C463.73,474.533 459.826,471.574 453.792,468.564C451.464,467.404 448.296,466.16 447.878,466.243C447.782,466.262 447.547,466.216 447.303,466.133L446.89,465.991L447.156,465.995C447.301,465.997 447.501,466.01 447.598,466.021L447.596,466.021Z" style="fill:rgb(249,204,157);fill-rule:nonzero;"/>
        <g id="path1869" transform="matrix(1.01411,0,0,1.01411,-3.60491,-3.47667)">
            <path d="M39.593,140.706C40.715,137.365 41.369,134.994 42.175,131.357C43.483,125.451 44.546,117.633 44.875,111.485C44.899,111.034 44.93,110.573 44.943,110.461C44.957,110.348 44.989,109.128 45.016,107.749L45.064,105.243L45.778,104.712C47.953,103.094 49.413,100.714 49.989,97.845C50.223,96.681 50.285,96.023 50.285,94.72C50.284,93.475 50.233,92.827 50.021,91.419C49.943,90.9 49.895,90.459 49.914,90.439C49.934,90.42 49.969,90.522 49.993,90.667C50.431,93.374 51.359,95.376 52.838,96.808C54.073,98.003 55.358,98.545 57.215,98.656C59.389,98.785 61.559,98.007 62.983,96.588C64.609,94.967 65.135,92.786 64.42,90.631C63.368,87.458 59.779,86.602 58.549,89.231C58.167,90.049 58.221,90.907 58.697,91.564C58.903,91.848 59.913,92.71 59.971,92.652C59.991,92.632 59.878,92.362 59.721,92.051C59.475,91.562 59.441,91.439 59.468,91.157C59.528,90.527 60.07,90.011 60.572,90.105C61.077,90.2 61.644,90.856 61.778,91.501C61.986,92.497 61.353,93.744 60.328,94.36C59.562,94.821 58.319,94.976 57.212,94.749C54.979,94.291 53.326,92.508 52.657,89.837C52.573,89.499 52.488,89.097 52.468,88.944L52.433,88.665L53.842,87.753C55.907,86.417 58.473,84.818 60.61,83.538C65.227,80.77 67.637,79.106 70.616,76.627C71.848,75.603 74.382,73.092 75.376,71.911C78.999,67.609 81.627,62.743 83.729,56.444C84.976,52.708 86.246,47.661 86.831,44.117C87.074,42.646 87.313,40.815 87.313,40.428L87.313,40.157L86.34,40.896C85.805,41.302 85.075,41.837 84.718,42.083C83.958,42.609 82.257,43.659 82.222,43.624C82.209,43.611 82.241,43.233 82.295,42.783C82.348,42.334 82.393,41.637 82.394,41.235L82.396,40.504L82.891,40.219C86.427,38.181 89.002,36.565 92.931,33.916C96.09,31.787 97.268,31.02 98.649,30.195C104.059,26.964 109.488,24.867 114.492,24.076C116.587,23.745 119.397,23.659 121.219,23.87C124.712,24.274 127.522,25.515 129.526,27.537C130.869,28.893 131.771,30.523 132.183,32.339C132.402,33.305 132.404,35.019 132.187,35.82C131.593,38.013 129.977,39.408 127.898,39.523C127.02,39.571 126.506,39.475 125.781,39.127C123.828,38.19 123.374,36.328 124.64,34.441C124.805,34.194 124.94,33.968 124.94,33.938C124.94,33.792 124.13,33.578 123.464,33.548C122.27,33.496 121.514,33.814 120.636,34.742C120.015,35.398 119.574,36.202 119.331,37.118C119.11,37.952 119.127,39.166 119.37,39.983C119.886,41.71 121.044,43.016 122.857,43.915C124.869,44.911 127.13,45.052 129.23,44.311C132.114,43.293 133.953,41.149 134.633,38.011C135.584,33.621 134.488,29.492 131.603,26.593C131.15,26.137 130.52,25.574 130.203,25.342C127.761,23.546 124.456,22.357 120.672,21.912C119.565,21.782 116.674,21.801 115.435,21.946C110.299,22.549 105.45,24.255 98.786,27.802C95.234,29.692 93.092,30.928 89.976,32.885C87.108,34.686 85.061,35.912 83.489,36.77L82.157,37.497L82.108,37.307C82.081,37.203 81.978,36.781 81.879,36.368C81.223,33.643 79.883,30.967 77.982,28.582C77.214,27.618 75.541,25.945 74.577,25.176C70.61,22.013 66.255,20.477 60.987,20.384C57.33,20.319 54.118,20.988 51.263,22.408C46.706,24.673 44.115,28.451 43.734,33.385C43.34,38.487 45.88,42.681 50.912,45.24C52.992,46.298 55.024,46.902 57.74,47.27C59.156,47.462 62.039,47.479 63.377,47.304C68.713,46.604 73.94,44.892 79.589,41.993C80.317,41.62 80.924,41.325 80.937,41.338C80.992,41.393 80.807,42.906 80.648,43.708C80.52,44.352 80.444,44.587 80.341,44.667C80.161,44.805 78.141,45.73 77.138,46.135C74.817,47.07 71.596,47.953 68.943,48.382C63.595,49.248 57.992,49.108 52.281,47.967C49.32,47.376 46.117,46.441 44.126,45.587L43.86,45.472L43.907,46.417C44.05,49.273 44.873,52.874 45.973,55.453C48.365,61.062 52.322,64.275 57.846,65.094C58.787,65.233 62.071,65.216 63.053,65.066C66.603,64.527 69.698,63.168 72.597,60.875C73.575,60.102 75.369,58.3 76.193,57.263C78.157,54.792 79.58,52.268 80.719,49.239C81.03,48.41 81.543,46.722 81.715,45.961L81.8,45.586L82.764,44.953C83.294,44.606 84.174,43.987 84.718,43.579C85.263,43.171 85.719,42.846 85.732,42.858C85.768,42.889 85.471,43.772 84.737,45.825C82.553,51.928 79.761,57.925 76.804,62.863C75.288,65.395 73.165,68.408 71.524,70.357C68.456,74.002 64.196,77.779 59.185,81.298C57.376,82.568 52.501,85.744 52.445,85.688C52.404,85.647 52.625,84.097 52.798,83.213C53.413,80.072 54.657,76.36 56.344,72.628C56.632,71.99 56.885,71.413 56.905,71.346C56.939,71.233 56.894,71.228 56.301,71.268C55.474,71.325 53.195,71.194 51.973,71.018C49.677,70.688 47.634,70.075 45.759,69.151C44.608,68.585 43.028,67.597 42.458,67.088L42.162,66.824L41.966,65.66C41.492,62.836 41.322,60.423 41.373,57.229C41.427,53.88 41.688,51.595 42.446,47.819C43.186,44.134 43.373,42.687 43.316,41.089C43.277,40.007 43.148,39.367 42.847,38.767C42.216,37.51 40.871,36.675 39.476,36.676C38.418,36.676 37.276,37.14 36.553,37.863C35.017,39.399 35.085,42.066 36.688,43.169C38.021,44.086 40.106,43.711 40.678,42.45C41.053,41.626 40.62,40.425 39.941,40.404L39.681,40.395L39.705,40.877C39.726,41.323 39.714,41.377 39.537,41.587C39.301,41.868 38.996,42 38.584,42C37.965,42 37.593,41.569 37.589,40.848C37.584,39.778 38.571,39.08 39.808,39.278C40.338,39.363 40.784,39.597 41.13,39.972C41.697,40.587 41.917,41.306 41.918,42.546C41.92,43.585 41.92,43.586 40.668,49.853C40.072,52.839 39.508,55.728 39.415,56.273C39.114,58.023 38.954,59.694 38.907,61.565L38.862,63.34L38.377,62.623C36.437,59.756 34.989,56.042 34.361,52.322C34.266,51.764 34.168,50.979 34.142,50.578C34.116,50.177 34.074,49.836 34.049,49.82C33.989,49.783 33.174,51.969 32.852,53.029C32.363,54.64 32.042,56.179 31.819,57.98C31.646,59.369 31.647,62.655 31.82,64.057C32.206,67.192 32.976,70.126 34.248,73.305C34.836,74.776 35.368,75.954 36.609,78.535C39.112,83.738 40.542,87.481 41.627,91.667L41.965,92.969L41.062,93.895C38.964,96.048 37.584,98.357 37.154,100.433C36.995,101.199 37.009,102.396 37.183,103.071C37.658,104.904 39.141,106.231 40.867,106.368C41.465,106.415 42.527,106.274 43.162,106.063C43.471,105.96 43.585,105.947 43.628,106.008C43.703,106.115 43.635,111.621 43.542,112.85C43.163,117.921 42.489,122.472 41.355,127.601C40.853,129.869 40.146,132.664 40.087,132.605C40.073,132.591 39.981,132.197 39.883,131.729C39.146,128.236 37.797,126.672 35.515,126.665C34.219,126.661 33.33,126.977 32.607,127.698C31.89,128.414 31.52,129.349 31.52,130.447C31.52,132.15 32.381,133.184 33.983,133.408C34.66,133.502 35.577,133.191 36.134,132.678C36.408,132.425 36.984,131.674 36.984,131.569C36.984,131.551 36.761,131.627 36.489,131.74C36.216,131.852 35.861,131.974 35.698,132.01C35.142,132.135 34.615,131.876 34.382,131.362C34.158,130.87 34.23,130.375 34.581,130C34.83,129.733 35.133,129.615 35.573,129.615C36.867,129.615 37.949,130.853 38.526,132.996C39.076,135.037 39.207,138.467 38.861,141.787C38.799,142.378 38.759,142.913 38.771,142.975C38.783,143.038 39.153,142.016 39.593,140.706ZM41.523,101.811C41.208,101.535 41.044,101.207 40.944,100.657C40.727,99.464 41.31,97.727 42.294,96.635C42.618,96.275 42.631,96.268 42.671,96.43C42.808,96.996 43.28,100.512 43.347,101.478L43.369,101.782L42.993,101.9C42.786,101.965 42.426,102.02 42.193,102.023C41.811,102.027 41.744,102.005 41.523,101.811ZM44.878,100.337C44.856,100.083 44.788,99.269 44.728,98.527C44.668,97.785 44.551,96.607 44.469,95.909L44.319,94.64L44.698,94.315C45.205,93.878 47.005,92.463 47.399,92.192C47.573,92.073 47.736,91.996 47.761,92.022C47.787,92.047 47.806,92.703 47.804,93.479C47.8,94.63 47.771,95.053 47.644,95.773C47.301,97.721 46.66,99.083 45.529,100.268C45.251,100.56 45,100.798 44.971,100.798C44.943,100.798 44.901,100.59 44.878,100.337ZM43.541,90.006C42.709,85.841 41.452,81.616 39.784,77.374C38.244,73.455 37.46,71.062 36.81,68.292C36.522,67.063 36.163,65.238 36.166,65.02C36.167,64.96 36.329,65.219 36.527,65.594C37.247,66.962 38.026,68.029 39.149,69.185L39.851,69.908L40.129,70.858C41.06,74.044 42.007,76.334 44.264,80.857C45.595,83.525 46.19,84.896 46.637,86.329C46.913,87.212 47.295,88.682 47.295,88.86C47.295,88.933 46.919,89.232 46.288,89.662C45.734,90.04 44.958,90.59 44.564,90.885C44.17,91.181 43.841,91.418 43.834,91.413C43.826,91.408 43.694,90.775 43.541,90.006ZM49.026,86.454C48.165,83.21 47.29,80.818 44.708,74.644C44.183,73.387 43.758,72.352 43.766,72.345C43.773,72.338 44.224,72.481 44.769,72.664C46.462,73.231 47.967,73.501 49.925,73.589C50.999,73.637 52.741,73.543 53.735,73.383C54.043,73.333 54.303,73.3 54.312,73.308C54.322,73.316 54.009,73.95 53.618,74.717C52.525,76.858 51.807,78.636 51.11,80.925C50.435,83.142 50.033,84.93 49.919,86.219C49.893,86.519 49.862,86.81 49.852,86.867C49.841,86.923 49.83,87.061 49.827,87.174C49.823,87.321 49.769,87.411 49.634,87.492C49.531,87.554 49.419,87.598 49.386,87.591C49.352,87.583 49.191,87.072 49.026,86.454ZM59.28,59.508C56.741,59.143 54.419,58.159 52.554,56.656C51.472,55.784 50.418,54.59 49.679,53.402C49.301,52.794 48.497,51.175 48.422,50.87L48.378,50.691L48.934,50.852C50.324,51.255 52.999,51.706 55.422,51.947C56.904,52.094 60.574,52.114 62.046,51.983C68.118,51.441 73.27,50.009 78.453,47.423C79.157,47.071 79.733,46.811 79.733,46.844C79.733,46.949 79.291,47.942 78.88,48.761C77.479,51.552 75.421,54.023 72.937,55.897C70.032,58.089 66.568,59.34 62.558,59.645C61.913,59.694 60.03,59.615 59.28,59.508ZM60.373,42.242C56.862,41.829 54.197,40.714 52.378,38.897C51.59,38.111 51.105,37.426 50.637,36.441C49.611,34.281 49.613,32.26 50.644,30.26C51.838,27.941 54.164,26.185 57.292,25.24C59.175,24.671 60.551,24.489 63.002,24.486C65.591,24.483 66.968,24.641 68.773,25.145C71.957,26.034 75.003,28.055 77.094,30.664C78.657,32.614 79.923,35.143 80.524,37.517C80.619,37.889 80.687,38.201 80.675,38.212C80.622,38.263 78.51,39.187 77.753,39.491C73.705,41.113 69.672,42.03 65.219,42.339C64.028,42.422 61.466,42.37 60.373,42.242ZM135.232,35.171C135.232,34.965 135.219,34.88 135.204,34.984C135.188,35.087 135.188,35.256 135.204,35.359C135.219,35.463 135.232,35.378 135.232,35.171Z" style="fill:rgb(249,204,157);fill-rule:nonzero;"/>
        </g>
        <g id="path18691" serif:id="path1869" transform="matrix(-1.01411,0,0,1.01411,515.35,-3.47667)">
            <path d="M39.593,140.706C40.715,137.365 41.369,134.994 42.175,131.357C43.483,125.451 44.546,117.633 44.875,111.485C44.899,111.034 44.93,110.573 44.943,110.461C44.957,110.348 44.989,109.128 45.016,107.749L45.064,105.243L45.778,104.712C47.953,103.094 49.413,100.714 49.989,97.845C50.223,96.681 50.285,96.023 50.285,94.72C50.284,93.475 50.233,92.827 50.021,91.419C49.943,90.9 49.895,90.459 49.914,90.439C49.934,90.42 49.969,90.522 49.993,90.667C50.431,93.374 51.359,95.376 52.838,96.808C54.073,98.003 55.358,98.545 57.215,98.656C59.389,98.785 61.559,98.007 62.983,96.588C64.609,94.967 65.135,92.786 64.42,90.631C63.368,87.458 59.779,86.602 58.549,89.231C58.167,90.049 58.221,90.907 58.697,91.564C58.903,91.848 59.913,92.71 59.971,92.652C59.991,92.632 59.878,92.362 59.721,92.051C59.475,91.562 59.441,91.439 59.468,91.157C59.528,90.527 60.07,90.011 60.572,90.105C61.077,90.2 61.644,90.856 61.778,91.501C61.986,92.497 61.353,93.744 60.328,94.36C59.562,94.821 58.319,94.976 57.212,94.749C54.979,94.291 53.326,92.508 52.657,89.837C52.573,89.499 52.488,89.097 52.468,88.944L52.433,88.665L53.842,87.753C55.907,86.417 58.473,84.818 60.61,83.538C65.227,80.77 67.637,79.106 70.616,76.627C71.848,75.603 74.382,73.092 75.376,71.911C78.999,67.609 81.627,62.743 83.729,56.444C84.976,52.708 86.246,47.661 86.831,44.117C87.074,42.646 87.313,40.815 87.313,40.428L87.313,40.157L86.34,40.896C85.805,41.302 85.075,41.837 84.718,42.083C83.958,42.609 82.257,43.659 82.222,43.624C82.209,43.611 82.241,43.233 82.295,42.783C82.348,42.334 82.393,41.637 82.394,41.235L82.396,40.504L82.891,40.219C86.427,38.181 89.002,36.565 92.931,33.916C96.09,31.787 97.268,31.02 98.649,30.195C104.059,26.964 109.488,24.867 114.492,24.076C116.587,23.745 119.397,23.659 121.219,23.87C124.712,24.274 127.522,25.515 129.526,27.537C130.869,28.893 131.771,30.523 132.183,32.339C132.402,33.305 132.404,35.019 132.187,35.82C131.593,38.013 129.977,39.408 127.898,39.523C127.02,39.571 126.506,39.475 125.781,39.127C123.828,38.19 123.374,36.328 124.64,34.441C124.805,34.194 124.94,33.968 124.94,33.938C124.94,33.792 124.13,33.578 123.464,33.548C122.27,33.496 121.514,33.814 120.636,34.742C120.015,35.398 119.574,36.202 119.331,37.118C119.11,37.952 119.127,39.166 119.37,39.983C119.886,41.71 121.044,43.016 122.857,43.915C124.869,44.911 127.13,45.052 129.23,44.311C132.114,43.293 133.953,41.149 134.633,38.011C135.584,33.621 134.488,29.492 131.603,26.593C131.15,26.137 130.52,25.574 130.203,25.342C127.761,23.546 124.456,22.357 120.672,21.912C119.565,21.782 116.674,21.801 115.435,21.946C110.299,22.549 105.45,24.255 98.786,27.802C95.234,29.692 93.092,30.928 89.976,32.885C87.108,34.686 85.061,35.912 83.489,36.77L82.157,37.497L82.108,37.307C82.081,37.203 81.978,36.781 81.879,36.368C81.223,33.643 79.883,30.967 77.982,28.582C77.214,27.618 75.541,25.945 74.577,25.176C70.61,22.013 66.255,20.477 60.987,20.384C57.33,20.319 54.118,20.988 51.263,22.408C46.706,24.673 44.115,28.451 43.734,33.385C43.34,38.487 45.88,42.681 50.912,45.24C52.992,46.298 55.024,46.902 57.74,47.27C59.156,47.462 62.039,47.479 63.377,47.304C68.713,46.604 73.94,44.892 79.589,41.993C80.317,41.62 80.924,41.325 80.937,41.338C80.992,41.393 80.807,42.906 80.648,43.708C80.52,44.352 80.444,44.587 80.341,44.667C80.161,44.805 78.141,45.73 77.138,46.135C74.817,47.07 71.596,47.953 68.943,48.382C63.595,49.248 57.992,49.108 52.281,47.967C49.32,47.376 46.117,46.441 44.126,45.587L43.86,45.472L43.907,46.417C44.05,49.273 44.873,52.874 45.973,55.453C48.365,61.062 52.322,64.275 57.846,65.094C58.787,65.233 62.071,65.216 63.053,65.066C66.603,64.527 69.698,63.168 72.597,60.875C73.575,60.102 75.369,58.3 76.193,57.263C78.157,54.792 79.58,52.268 80.719,49.239C81.03,48.41 81.543,46.722 81.715,45.961L81.8,45.586L82.764,44.953C83.294,44.606 84.174,43.987 84.718,43.579C85.263,43.171 85.719,42.846 85.732,42.858C85.768,42.889 85.471,43.772 84.737,45.825C82.553,51.928 79.761,57.925 76.804,62.863C75.288,65.395 73.165,68.408 71.524,70.357C68.456,74.002 64.196,77.779 59.185,81.298C57.376,82.568 52.501,85.744 52.445,85.688C52.404,85.647 52.625,84.097 52.798,83.213C53.413,80.072 54.657,76.36 56.344,72.628C56.632,71.99 56.885,71.413 56.905,71.346C56.939,71.233 56.894,71.228 56.301,71.268C55.474,71.325 53.195,71.194 51.973,71.018C49.677,70.688 47.634,70.075 45.759,69.151C44.608,68.585 43.028,67.597 42.458,67.088L42.162,66.824L41.966,65.66C41.492,62.836 41.322,60.423 41.373,57.229C41.427,53.88 41.688,51.595 42.446,47.819C43.186,44.134 43.373,42.687 43.316,41.089C43.277,40.007 43.148,39.367 42.847,38.767C42.216,37.51 40.871,36.675 39.476,36.676C38.418,36.676 37.276,37.14 36.553,37.863C35.017,39.399 35.085,42.066 36.688,43.169C38.021,44.086 40.106,43.711 40.678,42.45C41.053,41.626 40.62,40.425 39.941,40.404L39.681,40.395L39.705,40.877C39.726,41.323 39.714,41.377 39.537,41.587C39.301,41.868 38.996,42 38.584,42C37.965,42 37.593,41.569 37.589,40.848C37.584,39.778 38.571,39.08 39.808,39.278C40.338,39.363 40.784,39.597 41.13,39.972C41.697,40.587 41.917,41.306 41.918,42.546C41.92,43.585 41.92,43.586 40.668,49.853C40.072,52.839 39.508,55.728 39.415,56.273C39.114,58.023 38.954,59.694 38.907,61.565L38.862,63.34L38.377,62.623C36.437,59.756 34.989,56.042 34.361,52.322C34.266,51.764 34.168,50.979 34.142,50.578C34.116,50.177 34.074,49.836 34.049,49.82C33.989,49.783 33.174,51.969 32.852,53.029C32.363,54.64 32.042,56.179 31.819,57.98C31.646,59.369 31.647,62.655 31.82,64.057C32.206,67.192 32.976,70.126 34.248,73.305C34.836,74.776 35.368,75.954 36.609,78.535C39.112,83.738 40.542,87.481 41.627,91.667L41.965,92.969L41.062,93.895C38.964,96.048 37.584,98.357 37.154,100.433C36.995,101.199 37.009,102.396 37.183,103.071C37.658,104.904 39.141,106.231 40.867,106.368C41.465,106.415 42.527,106.274 43.162,106.063C43.471,105.96 43.585,105.947 43.628,106.008C43.703,106.115 43.635,111.621 43.542,112.85C43.163,117.921 42.489,122.472 41.355,127.601C40.853,129.869 40.146,132.664 40.087,132.605C40.073,132.591 39.981,132.197 39.883,131.729C39.146,128.236 37.797,126.672 35.515,126.665C34.219,126.661 33.33,126.977 32.607,127.698C31.89,128.414 31.52,129.349 31.52,130.447C31.52,132.15 32.381,133.184 33.983,133.408C34.66,133.502 35.577,133.191 36.134,132.678C36.408,132.425 36.984,131.674 36.984,131.569C36.984,131.551 36.761,131.627 36.489,131.74C36.216,131.852 35.861,131.974 35.698,132.01C35.142,132.135 34.615,131.876 34.382,131.362C34.158,130.87 34.23,130.375 34.581,130C34.83,129.733 35.133,129.615 35.573,129.615C36.867,129.615 37.949,130.853 38.526,132.996C39.076,135.037 39.207,138.467 38.861,141.787C38.799,142.378 38.759,142.913 38.771,142.975C38.783,143.038 39.153,142.016 39.593,140.706ZM41.523,101.811C41.208,101.535 41.044,101.207 40.944,100.657C40.727,99.464 41.31,97.727 42.294,96.635C42.618,96.275 42.631,96.268 42.671,96.43C42.808,96.996 43.28,100.512 43.347,101.478L43.369,101.782L42.993,101.9C42.786,101.965 42.426,102.02 42.193,102.023C41.811,102.027 41.744,102.005 41.523,101.811ZM44.878,100.337C44.856,100.083 44.788,99.269 44.728,98.527C44.668,97.785 44.551,96.607 44.469,95.909L44.319,94.64L44.698,94.315C45.205,93.878 47.005,92.463 47.399,92.192C47.573,92.073 47.736,91.996 47.761,92.022C47.787,92.047 47.806,92.703 47.804,93.479C47.8,94.63 47.771,95.053 47.644,95.773C47.301,97.721 46.66,99.083 45.529,100.268C45.251,100.56 45,100.798 44.971,100.798C44.943,100.798 44.901,100.59 44.878,100.337ZM43.541,90.006C42.709,85.841 41.452,81.616 39.784,77.374C38.244,73.455 37.46,71.062 36.81,68.292C36.522,67.063 36.163,65.238 36.166,65.02C36.167,64.96 36.329,65.219 36.527,65.594C37.247,66.962 38.026,68.029 39.149,69.185L39.851,69.908L40.129,70.858C41.06,74.044 42.007,76.334 44.264,80.857C45.595,83.525 46.19,84.896 46.637,86.329C46.913,87.212 47.295,88.682 47.295,88.86C47.295,88.933 46.919,89.232 46.288,89.662C45.734,90.04 44.958,90.59 44.564,90.885C44.17,91.181 43.841,91.418 43.834,91.413C43.826,91.408 43.694,90.775 43.541,90.006ZM49.026,86.454C48.165,83.21 47.29,80.818 44.708,74.644C44.183,73.387 43.758,72.352 43.766,72.345C43.773,72.338 44.224,72.481 44.769,72.664C46.462,73.231 47.967,73.501 49.925,73.589C50.999,73.637 52.741,73.543 53.735,73.383C54.043,73.333 54.303,73.3 54.312,73.308C54.322,73.316 54.009,73.95 53.618,74.717C52.525,76.858 51.807,78.636 51.11,80.925C50.435,83.142 50.033,84.93 49.919,86.219C49.893,86.519 49.862,86.81 49.852,86.867C49.841,86.923 49.83,87.061 49.827,87.174C49.823,87.321 49.769,87.411 49.634,87.492C49.531,87.554 49.419,87.598 49.386,87.591C49.352,87.583 49.191,87.072 49.026,86.454ZM59.28,59.508C56.741,59.143 54.419,58.159 52.554,56.656C51.472,55.784 50.418,54.59 49.679,53.402C49.301,52.794 48.497,51.175 48.422,50.87L48.378,50.691L48.934,50.852C50.324,51.255 52.999,51.706 55.422,51.947C56.904,52.094 60.574,52.114 62.046,51.983C68.118,51.441 73.27,50.009 78.453,47.423C79.157,47.071 79.733,46.811 79.733,46.844C79.733,46.949 79.291,47.942 78.88,48.761C77.479,51.552 75.421,54.023 72.937,55.897C70.032,58.089 66.568,59.34 62.558,59.645C61.913,59.694 60.03,59.615 59.28,59.508ZM60.373,42.242C56.862,41.829 54.197,40.714 52.378,38.897C51.59,38.111 51.105,37.426 50.637,36.441C49.611,34.281 49.613,32.26 50.644,30.26C51.838,27.941 54.164,26.185 57.292,25.24C59.175,24.671 60.551,24.489 63.002,24.486C65.591,24.483 66.968,24.641 68.773,25.145C71.957,26.034 75.003,28.055 77.094,30.664C78.657,32.614 79.923,35.143 80.524,37.517C80.619,37.889 80.687,38.201 80.675,38.212C80.622,38.263 78.51,39.187 77.753,39.491C73.705,41.113 69.672,42.03 65.219,42.339C64.028,42.422 61.466,42.37 60.373,42.242ZM135.232,35.171C135.232,34.965 135.219,34.88 135.204,34.984C135.188,35.087 135.188,35.256 135.204,35.359C135.219,35.463 135.232,35.378 135.232,35.171Z" style="fill:rgb(249,204,157);fill-rule:nonzero;"/>
        </g>
    </g>
</svg>
