<?xml version="1.0" encoding="UTF-8" standalone="no"?>
<!DOCTYPE svg PUBLIC "-//W3C//DTD SVG 1.1//EN" "http://www.w3.org/Graphics/SVG/1.1/DTD/svg11.dtd">
<svg width="100%" height="100%" viewBox="0 0 64 64" version="1.1" xmlns="http://www.w3.org/2000/svg" xmlns:xlink="http://www.w3.org/1999/xlink" xml:space="preserve" xmlns:serif="http://www.serif.com/" style="fill-rule:evenodd;clip-rule:evenodd;stroke-linejoin:round;stroke-miterlimit:2;">
    <g transform="matrix(0.124186,0,0,0.124186,-11.4922,-2.74997)">
        <path d="M602.89,167.27C585.038,140.161 551.32,180.493 519.585,180.493C472.644,180.493 450.163,175.204 407.185,200.329C318.591,251.899 378.095,249.255 291.485,199.669C249.173,175.208 226.692,180.497 180.415,180.497C166.532,180.497 151.325,174.548 139.423,167.935C131.489,163.306 116.282,154.712 107.689,158.677C99.095,161.982 93.806,168.595 92.482,177.189C90.498,195.701 104.384,238.017 114.298,254.544C144.052,302.81 129.505,341.157 145.372,381.484C150.661,395.367 163.884,401.98 178.431,401.98C216.119,401.98 241.904,372.226 277.603,366.937C333.142,358.343 314.626,337.847 338.431,301.484C344.38,292.89 351.654,288.261 358.927,298.179C386.036,335.202 364.216,358.343 423.06,366.941C456.119,372.23 486.533,401.984 522.232,401.984C542.068,401.984 555.291,388.761 557.275,368.925C563.888,290.249 569.837,300.827 594.298,235.375C600.911,218.184 605.536,202.316 607.521,183.805C608.181,177.856 606.197,172.567 602.892,167.278L602.89,167.27ZM282.89,310.74C236.609,308.756 194.296,324.623 163.88,274.377C160.575,268.428 161.236,265.119 167.185,261.815C220.74,234.045 271.645,240.659 288.835,304.127C289.495,308.756 286.85,310.74 282.886,310.74L282.89,310.74ZM532.15,274.377C502.396,324.623 460.084,308.756 413.8,310.74C409.831,310.74 406.527,308.756 407.851,304.127C425.042,240.654 475.949,234.045 528.841,261.815C535.454,265.119 536.114,268.428 532.146,274.377L532.15,274.377Z"/>
    </g>
</svg>
