<?xml version="1.0" encoding="UTF-8" standalone="no"?>
<!DOCTYPE svg PUBLIC "-//W3C//DTD SVG 1.1//EN" "http://www.w3.org/Graphics/SVG/1.1/DTD/svg11.dtd">
<svg width="100%" height="100%" viewBox="0 0 64 64" version="1.1" xmlns="http://www.w3.org/2000/svg" xmlns:xlink="http://www.w3.org/1999/xlink" xml:space="preserve" xmlns:serif="http://www.serif.com/" style="fill-rule:evenodd;clip-rule:evenodd;stroke-linejoin:round;stroke-miterlimit:2;">
    <g transform="matrix(1,0,0,1,-318,-318)">
        <g transform="matrix(0.114351,0,0,0.114351,309.982,318)">
            <path d="M116.42,492.62L239.95,391.55C260.165,382.566 332.786,429.734 374.71,392.3C361.983,376.577 347.011,372.085 341.769,343.636C444.339,364.597 488.509,349.624 524.439,217.116C496.74,220.112 466.044,217.866 453.318,199.147C534.173,160.963 558.878,192.409 567.868,116.045C568.618,110.803 518.458,115.295 518.458,109.307C519.208,105.565 558.138,81.608 560.384,78.612C570.118,63.639 582.845,27.702 583.591,0.003C458.561,53.905 209.261,366.103 116.431,492.623L116.42,492.62Z"/>
        </g>
        <g transform="matrix(0.114351,0,0,0.114351,309.982,318)">
            <path d="M320.8,487.38C383.687,492.622 404.652,550.267 457.8,545.028C514.698,539.04 537.159,521.071 537.159,521.071L546.143,533.051C546.143,533.051 520.69,553.266 459.299,559.254C397.158,565.242 379.94,506.848 319.299,502.356C255.662,497.864 155.339,598.934 117.159,496.368C172.561,578.72 253.419,482.891 320.799,487.383L320.8,487.38Z" style="fill-rule:nonzero;"/>
        </g>
    </g>
</svg>
