<?xml version="1.0" encoding="UTF-8" standalone="no"?>
<!DOCTYPE svg PUBLIC "-//W3C//DTD SVG 1.1//EN" "http://www.w3.org/Graphics/SVG/1.1/DTD/svg11.dtd">
<svg width="100%" height="100%" viewBox="0 0 64 64" version="1.1" xmlns="http://www.w3.org/2000/svg" xmlns:xlink="http://www.w3.org/1999/xlink" xml:space="preserve" xmlns:serif="http://www.serif.com/" style="fill-rule:evenodd;clip-rule:evenodd;stroke-linejoin:round;stroke-miterlimit:2;">
    <g transform="matrix(1,0,0,1,-318,-318)">
        <g transform="matrix(0.127268,0,0,0.127268,305.385,314.401)">
            <path d="M443.52,279.44C443.52,330.78 401.899,372.397 350.559,372.397C299.219,372.397 257.602,330.78 257.602,279.44C257.602,228.1 299.219,186.479 350.559,186.479C401.899,186.479 443.52,228.1 443.52,279.44" style="fill-rule:nonzero;"/>
        </g>
        <g transform="matrix(0.127268,0,0,0.127268,305.385,314.401)">
            <path d="M357.84,129.36C342.16,141.122 338.801,163.52 350.559,179.2L375.758,160.161C391.438,148.399 394.797,126.001 383.039,110.321L357.84,129.36Z" style="fill-rule:nonzero;"/>
        </g>
        <g transform="matrix(0.127268,0,0,0.127268,305.385,314.401)">
            <path d="M343.28,430.08C358.96,418.318 362.319,395.92 350.561,380.24L325.362,399.279C309.682,411.041 306.323,433.439 318.081,449.119L343.28,430.08Z" style="fill-rule:nonzero;"/>
        </g>
        <g transform="matrix(0.127268,0,0,0.127268,305.385,314.401)">
            <path d="M308.56,188.16L323.681,160.16C333.2,142.801 326.482,121.519 309.122,112L294.001,140C284.482,157.359 291.2,179.199 308.56,188.16Z" style="fill-rule:nonzero;"/>
        </g>
        <g transform="matrix(0.127268,0,0,0.127268,305.385,314.401)">
            <path d="M393.12,371.28L377.999,399.28C368.48,416.639 375.198,437.921 392.558,447.44L407.679,419.44C416.64,402.077 409.921,380.237 393.12,371.28Z" style="fill-rule:nonzero;"/>
        </g>
        <g transform="matrix(0.127268,0,0,0.127268,305.385,314.401)">
            <path d="M273.84,214.48L275.52,183.121C276.641,163.519 261.52,146.723 241.918,145.601L240.238,176.96C239.121,196.558 254.238,213.358 273.84,214.48Z" style="fill-rule:nonzero;"/>
        </g>
        <g transform="matrix(0.127268,0,0,0.127268,305.385,314.401)">
            <path d="M427.84,344.96L426.16,376.319C425.039,395.921 440.16,412.717 459.762,413.839L461.442,382.48C462.001,362.878 447.442,346.078 427.84,344.96Z" style="fill-rule:nonzero;"/>
        </g>
        <g transform="matrix(0.127268,0,0,0.127268,305.385,314.401)">
            <path d="M195.44,204.4L207.202,233.521C214.483,251.443 235.202,260.4 253.124,253.123L241.358,224.002C234.077,205.522 213.92,197.123 195.44,204.4Z" style="fill-rule:nonzero;"/>
        </g>
        <g transform="matrix(0.127268,0,0,0.127268,305.385,314.401)">
            <path d="M505.68,355.04L493.918,325.919C486.637,307.997 465.918,299.04 447.996,306.317L459.758,335.438C467.039,353.922 487.762,362.321 505.68,355.04Z" style="fill-rule:nonzero;"/>
        </g>
        <g transform="matrix(0.127268,0,0,0.127268,305.385,314.401)">
            <path d="M228.48,275.52C214.48,262.079 191.519,262.641 178.64,277.2L201.601,299.04C215.601,312.481 238.562,311.919 251.441,297.36L228.48,275.52Z" style="fill-rule:nonzero;"/>
        </g>
        <g transform="matrix(0.127268,0,0,0.127268,305.385,314.401)">
            <path d="M473.2,283.92C487.2,297.361 510.161,296.799 523.04,282.24L500.079,260.4C486.079,246.959 463.118,247.521 450.239,262.08L473.2,283.92Z" style="fill-rule:nonzero;"/>
        </g>
        <g transform="matrix(0.127268,0,0,0.127268,305.385,314.401)">
            <path d="M193.2,350L223.438,360.078C241.918,366.238 262.079,356.156 268.239,337.68L238.001,327.602C218.962,321.442 199.36,331.52 193.2,350Z" style="fill-rule:nonzero;"/>
        </g>
        <g transform="matrix(0.127268,0,0,0.127268,305.385,314.401)">
            <path d="M507.92,209.44L477.682,199.362C459.202,193.202 439.041,203.284 432.881,221.76L463.119,231.838C482.158,237.998 502.318,227.92 507.92,209.44Z" style="fill-rule:nonzero;"/>
        </g>
        <g transform="matrix(0.127268,0,0,0.127268,305.385,314.401)">
            <path d="M268.8,370.72C249.198,372.958 235.761,390.88 237.999,409.919L269.358,405.997C288.96,403.759 302.397,385.837 300.159,366.798L268.8,370.72Z" style="fill-rule:nonzero;"/>
        </g>
        <g transform="matrix(0.127268,0,0,0.127268,305.385,314.401)">
            <path d="M432.88,188.72C452.482,186.482 465.919,168.56 463.681,149.521L432.322,153.443C412.72,155.681 399.283,173.603 401.521,192.642L432.88,188.72Z" style="fill-rule:nonzero;"/>
        </g>
        <g transform="matrix(0.127268,0,0,0.127268,305.385,314.401)">
            <path d="M372.4,102.48C393.681,83.441 395.361,50.96 376.322,29.679L342.162,60.48C320.881,79.519 319.201,112 338.24,133.281L372.4,102.48Z" style="fill-rule:nonzero;"/>
        </g>
        <g transform="matrix(0.127268,0,0,0.127268,305.385,314.401)">
            <path d="M328.72,456.96C307.439,475.999 305.759,508.48 324.798,529.761L358.958,498.96C380.239,479.921 381.919,447.44 362.88,426.159L328.72,456.96Z" style="fill-rule:nonzero;"/>
        </g>
        <g transform="matrix(0.127268,0,0,0.127268,305.385,314.401)">
            <path d="M277.76,152.32L295.682,109.761C306.881,83.441 294.561,53.202 268.803,41.999L250.881,84.558C239.119,110.32 251.44,141.12 277.76,152.32Z" style="fill-rule:nonzero;"/>
        </g>
        <g transform="matrix(0.127268,0,0,0.127268,305.385,314.401)">
            <path d="M423.92,407.12L405.998,449.679C394.799,475.999 407.119,506.238 432.877,517.441L450.799,474.882C461.998,449.12 449.678,418.32 423.92,407.12Z" style="fill-rule:nonzero;"/>
        </g>
        <g transform="matrix(0.127268,0,0,0.127268,305.385,314.401)">
            <path d="M230.72,194.88L229.04,148.958C227.919,120.399 204.399,97.997 175.841,99.118L177.521,145.04C178.08,173.602 202.162,196.001 230.72,194.88Z" style="fill-rule:nonzero;"/>
        </g>
        <g transform="matrix(0.127268,0,0,0.127268,305.385,314.401)">
            <path d="M470.96,364.56L472.64,410.482C473.761,439.041 497.281,461.443 525.839,460.322L524.159,414.4C523.038,385.841 499.518,363.443 470.96,364.56Z" style="fill-rule:nonzero;"/>
        </g>
        <g transform="matrix(0.127268,0,0,0.127268,305.385,314.401)">
            <path d="M206.08,253.68L185.361,212.801C172.482,187.602 141.681,176.961 115.92,189.84L136.639,230.719C149.522,256.481 180.323,266.559 206.08,253.68Z" style="fill-rule:nonzero;"/>
        </g>
        <g transform="matrix(0.127268,0,0,0.127268,305.385,314.401)">
            <path d="M495.6,305.76L516.319,346.639C529.198,371.838 559.999,382.479 585.76,369.6L565.041,328.721C552.158,302.959 520.799,292.877 495.6,305.76Z" style="fill-rule:nonzero;"/>
        </g>
        <g transform="matrix(0.127268,0,0,0.127268,305.385,314.401)">
            <path d="M208.32,317.52L171.922,288.961C149.524,271.602 117.043,274.961 99.121,297.359L135.519,325.918C158.48,343.84 190.96,339.922 208.32,317.52Z" style="fill-rule:nonzero;"/>
        </g>
        <g transform="matrix(0.127268,0,0,0.127268,305.385,314.401)">
            <path d="M565.6,233.52C543.202,216.161 510.721,219.52 492.799,241.918L529.197,270.477C551.595,287.836 584.076,284.477 601.998,262.079L565.6,233.52Z" style="fill-rule:nonzero;"/>
        </g>
        <g transform="matrix(0.127268,0,0,0.127268,305.385,314.401)">
            <path d="M237.44,374.08L192.639,363.439C164.639,356.72 137.198,374.08 130.479,402.08L175.28,412.721C203.28,418.881 231.28,401.522 237.44,374.08Z" style="fill-rule:nonzero;"/>
        </g>
        <g transform="matrix(0.127268,0,0,0.127268,305.385,314.401)">
            <path d="M463.68,185.36L508.481,196.001C536.481,202.72 563.922,185.36 570.641,157.36L525.84,146.719C497.84,140.559 469.84,157.922 463.68,185.36Z" style="fill-rule:nonzero;"/>
        </g>
        <g transform="matrix(0.127268,0,0,0.127268,305.385,314.401)">
            <path d="M243.04,422.24C215.04,427.842 197.118,455.279 203.278,483.279L248.079,473.76C276.079,468.158 294.001,440.721 287.841,412.721L243.04,422.24Z" style="fill-rule:nonzero;"/>
        </g>
        <g transform="matrix(0.127268,0,0,0.127268,305.385,314.401)">
            <path d="M413.28,146.72L458.081,137.201C486.081,131.599 504.003,104.162 497.843,76.162L453.042,85.681C425.038,91.283 407.12,118.72 413.28,146.72Z" style="fill-rule:nonzero;"/>
        </g>
    </g>
</svg>
