<?xml version="1.0" encoding="UTF-8" standalone="no"?>
<!DOCTYPE svg PUBLIC "-//W3C//DTD SVG 1.1//EN" "http://www.w3.org/Graphics/SVG/1.1/DTD/svg11.dtd">
<svg width="100%" height="100%" viewBox="0 0 64 64" version="1.1" xmlns="http://www.w3.org/2000/svg" xmlns:xlink="http://www.w3.org/1999/xlink" xml:space="preserve" xmlns:serif="http://www.serif.com/" style="fill-rule:evenodd;clip-rule:evenodd;stroke-linejoin:round;stroke-miterlimit:2;">
    <g transform="matrix(1,0,0,1,-318,-318)">
        <g transform="matrix(0.123846,0,0,0.123846,306.653,315.323)">
            <path d="M396.24,158.6C403.424,158.596 408.838,151.959 408.838,143.162L408.838,125.557C408.838,116.76 403.42,110.119 396.24,110.119L371.228,110.119L371.228,71.517C375.861,66.064 378.455,59.005 378.455,51.568C378.455,35.052 365.689,21.615 350.002,21.615C334.311,21.615 321.553,35.053 321.553,51.568C321.553,59.006 324.142,66.064 328.779,71.517L328.779,110.119L303.767,110.119C296.58,110.119 291.165,116.76 291.165,125.557L291.165,143.162C291.165,151.959 296.579,158.596 303.767,158.6L328.572,158.6L321.529,478.66C321.506,479.844 321.709,481.027 322.135,482.137L341.459,532.516C342.814,536.055 346.209,538.387 349.998,538.387C353.787,538.387 357.185,536.055 358.545,532.516L377.869,482.137C378.291,481.027 378.501,479.844 378.47,478.66L371.427,158.6L396.24,158.6Z" style="fill-rule:nonzero;"/>
        </g>
        <g transform="matrix(0.123846,0,0,0.123846,306.653,315.323)">
            <path d="M212.73,202.33C212.73,245.029 214.66,300.283 229.726,348.9C237.984,375.548 249.589,398.138 264.222,416.041C276.976,431.658 292.288,444.049 309.894,453.045L316.296,161.875L219.038,193.629C215.277,194.86 212.73,198.371 212.73,202.332L212.73,202.33Z" style="fill-rule:nonzero;"/>
        </g>
        <g transform="matrix(0.123846,0,0,0.123846,306.653,315.323)">
            <path d="M480.96,193.62L383.702,161.866L390.104,453.036C407.709,444.04 423.018,431.649 435.78,416.032C450.409,398.13 462.014,375.54 470.272,348.891C485.338,300.274 487.268,245.021 487.268,202.321C487.268,198.36 484.721,194.848 480.96,193.618L480.96,193.62Z" style="fill-rule:nonzero;"/>
        </g>
    </g>
</svg>
