<?xml version="1.0" encoding="UTF-8" standalone="no"?>
<!DOCTYPE svg PUBLIC "-//W3C//DTD SVG 1.1//EN" "http://www.w3.org/Graphics/SVG/1.1/DTD/svg11.dtd">
<svg width="100%" height="100%" viewBox="0 0 64 64" version="1.1" xmlns="http://www.w3.org/2000/svg" xmlns:xlink="http://www.w3.org/1999/xlink" xml:space="preserve" xmlns:serif="http://www.serif.com/" style="fill-rule:evenodd;clip-rule:evenodd;stroke-linejoin:round;stroke-miterlimit:2;">
    <g transform="matrix(0.114286,0,0,0.114286,-7.95595,0)">
        <path d="M498.06,176.29C498.06,176.29 524.267,65.18 482.38,0C482.38,0 464.349,38.977 429.739,82.098C407.114,76.161 379.677,72.692 349.997,72.692C320.317,72.692 292.876,76.165 270.364,81.989C235.755,38.981 217.723,0.005 217.723,0.005C175.836,65.189 202.043,176.295 202.043,176.295C155.898,220.983 162.844,278.665 162.844,278.665L186.364,263.77C134.509,434 289.744,418.55 349.994,560C410.252,418.54 565.484,434 513.734,263.76L537.254,278.655C537.258,278.655 544.199,220.975 498.055,176.285L498.06,176.29ZM254.35,208.544C254.35,208.544 292.092,191.856 321.44,229.825C321.44,229.825 278.096,258.61 254.35,208.544ZM378.56,229.825C407.904,191.856 445.65,208.544 445.65,208.544C421.904,258.61 378.56,229.825 378.56,229.825Z" style="fill-rule:nonzero;"/>
    </g>
</svg>
