<?xml version="1.0" encoding="UTF-8" standalone="no"?>
<!DOCTYPE svg PUBLIC "-//W3C//DTD SVG 1.1//EN" "http://www.w3.org/Graphics/SVG/1.1/DTD/svg11.dtd">
<svg width="100%" height="100%" viewBox="0 0 512 512" version="1.1" xmlns="http://www.w3.org/2000/svg" xmlns:xlink="http://www.w3.org/1999/xlink" xml:space="preserve" xmlns:serif="http://www.serif.com/" style="fill-rule:evenodd;clip-rule:evenodd;stroke-linejoin:round;stroke-miterlimit:2;">
    <g id="Artboard1" transform="matrix(0.898054,0,0,0.898054,26.098,26.098)">
        <rect x="0" y="0" width="512" height="512" style="fill:none;"/>
    </g>
    <g transform="matrix(1,0,0,1,545.824,1.13687e-13)">
        <g transform="matrix(-0.976562,0.261668,-0.261668,-0.976562,184.391,371.594)">
            <path d="M611.758,59.59C611.758,50.741 604.574,43.557 595.725,43.557L251.227,43.557C242.379,43.557 235.195,50.741 235.195,59.59L235.195,404.088C235.195,412.937 242.379,420.121 251.227,420.121L595.725,420.121C604.574,420.121 611.758,412.937 611.758,404.088L611.758,59.59Z" style="fill:rgb(184,67,74);"/>
        </g>
        <g transform="matrix(-0.261668,0.976562,-0.976562,-0.261668,47.3912,-96.8851)">
            <path d="M611.758,59.59C611.758,50.741 604.574,43.557 595.725,43.557L251.227,43.557C242.379,43.557 235.195,50.741 235.195,59.59L235.195,404.088C235.195,412.937 242.379,420.121 251.227,420.121L595.725,420.121C604.574,420.121 611.758,412.937 611.758,404.088L611.758,59.59Z" style="fill:rgb(248,118,125);"/>
        </g>
        <g transform="matrix(0.605773,0.605773,-0.605773,0.605773,-405.913,-140.972)">
            <path d="M611.758,80.941C611.758,60.308 595.007,43.557 574.375,43.557L272.578,43.557C251.945,43.557 235.195,60.308 235.195,80.941L235.195,382.738C235.195,403.37 251.945,420.121 272.578,420.121L574.375,420.121C595.007,420.121 611.758,403.37 611.758,382.738L611.758,80.941Z" style="fill:rgb(245,193,197);"/>
        </g>
        <g transform="matrix(0.490635,0.490635,-0.490635,0.490635,-383.848,-65.5215)">
            <path d="M611.758,80.941C611.758,60.308 595.007,43.557 574.375,43.557L272.578,43.557C251.945,43.557 235.195,60.308 235.195,80.941L235.195,382.738C235.195,403.37 251.945,420.121 272.578,420.121L574.375,420.121C595.007,420.121 611.758,403.37 611.758,382.738L611.758,80.941Z" style="fill:rgb(251,228,230);"/>
        </g>
        <g transform="matrix(1.01887,0,0,1.01887,-570.377,-43.5174)">
            <circle cx="191.711" cy="294.018" r="39.553" style="fill:rgb(231,95,103);"/>
        </g>
        <g transform="matrix(1.01887,0,0,1.01887,-399.668,-43.5174)">
            <circle cx="191.711" cy="294.018" r="39.553" style="fill:rgb(231,95,103);"/>
        </g>
    </g>
</svg>
