<?xml version="1.0" encoding="UTF-8" standalone="no"?>
<svg
   xmlns:dc="http://purl.org/dc/elements/1.1/"
   xmlns:cc="http://creativecommons.org/ns#"
   xmlns:rdf="http://www.w3.org/1999/02/22-rdf-syntax-ns#"
   xmlns:svg="http://www.w3.org/2000/svg"
   xmlns="http://www.w3.org/2000/svg"
   xmlns:sodipodi="http://sodipodi.sourceforge.net/DTD/sodipodi-0.dtd"
   xmlns:inkscape="http://www.inkscape.org/namespaces/inkscape"
   width="800"
   height="200"
   viewBox="0 0 211.66666 52.916668"
   version="1.1"
   id="svg7284"
   inkscape:version="1.0.1 (3bc2e813f5, 2020-09-07)"
   sodipodi:docname="banner2.svg"
   inkscape:export-filename="C:\olive\OneDrive\wickFolder\projects\roll-to-hit\public\assets\banner2.png"
   inkscape:export-xdpi="96"
   inkscape:export-ydpi="96">
  <defs
     id="defs7278" />
  <sodipodi:namedview
     id="base"
     pagecolor="#ffffff"
     bordercolor="#666666"
     borderopacity="1.0"
     inkscape:pageopacity="0.0"
     inkscape:pageshadow="2"
     inkscape:zoom="0.96660302"
     inkscape:cx="218.26727"
     inkscape:cy="230.76941"
     inkscape:document-units="mm"
     inkscape:current-layer="layer1"
     inkscape:document-rotation="0"
     showgrid="false"
     units="px"
     inkscape:window-width="1920"
     inkscape:window-height="1057"
     inkscape:window-x="-8"
     inkscape:window-y="-8"
     inkscape:window-maximized="1" />
  <metadata
     id="metadata7281">
    <rdf:RDF>
      <cc:Work
         rdf:about="">
        <dc:format>image/svg+xml</dc:format>
        <dc:type
           rdf:resource="http://purl.org/dc/dcmitype/StillImage" />
        <dc:title></dc:title>
      </cc:Work>
    </rdf:RDF>
  </metadata>
  <g
     inkscape:label="Layer 1"
     inkscape:groupmode="layer"
     id="layer1">
    <g
       id="g5971"
       transform="translate(123.17504,340.89795)">
      <path
         style="fill:#b8434a;fill-opacity:1;stroke-width:0.212068"
         d="m -25.431278,-311.97917 c 0.2482,0.32814 0.3044,1.12406 0.27707,3.92326 -0.0281,2.88455 -0.061,3.22759 -0.18435,1.9211 -0.0826,-0.87478 -0.16253,-2.22846 -0.17778,-3.00817 -0.0342,-1.74598 -0.3292,-2.65933 -0.74708,-2.31252 -0.24142,0.20037 -0.24237,0.36759 -0.005,1.03038 0.15533,0.43515 0.2866,1.38314 0.29171,2.10663 0.005,0.7235 0.12317,1.56535 0.26234,1.87078 0.20634,0.45287 0.19656,0.59107 -0.0531,0.74897 -0.43177,0.27318 -0.89026,0.24708 -0.7125,-0.0406 0.21741,-0.35176 0.11107,-3.35565 -0.14726,-4.15972 -0.24807,-0.77218 -0.41501,-0.82851 -1.10862,-0.37404 -0.78827,0.5165 -2.81299,1.13936 -5.31575,1.63528 -4.14488,0.82131 -9.31792,0.59419 -15.51673,-0.68127 -1.90441,-0.39184 -2.00421,-0.39189 -4.78192,-0.002 -8.7802,1.23196 -15.92676,1.38569 -21.02679,0.45233 -4.89721,-0.89625 -9.32451,-2.23502 -12.98665,-3.92703 -2.40616,-1.11171 -2.64833,-1.0343 -2.64833,0.84656 0,0.76088 0.0717,0.93696 0.38172,0.93696 0.55245,0 0.89068,0.42129 0.89068,1.10941 0,0.66597 -0.47994,0.98082 -0.92813,0.60886 -0.30941,-0.2568 -0.76841,-2.22617 -0.76841,-3.29696 0,-0.9035 0.5315,-1.60233 1.21867,-1.60233 0.30713,0 1.19517,0.38473 1.97342,0.85496 2.88585,1.74366 7.25877,3.15908 12.09783,3.91581 3.05619,0.47792 10.04563,0.64908 13.79439,0.3378 2.91069,-0.24169 6.90209,-0.73734 8.02759,-0.99687 0.35828,-0.0826 -1.38934,-0.59697 -5.39029,-1.58645 -7.02191,-1.73661 -8.96431,-2.1035 -12.21135,-2.30655 l -2.43879,-0.1525 2.14593,-0.0331 c 2.32831,-0.0359 4.3954,0.26523 8.66954,1.26303 1.51629,0.35398 4.61732,1.06495 6.89118,1.57994 l 4.13429,0.93633 3.18206,-0.62286 c 6.83329,-1.33756 12.24684,-1.94159 17.83385,-1.98987 l 3.8526,-0.0333 c 0.91975,0.37972 1.02147,0.62714 1.22396,1.04775 z m -9.66214,0.0193 c -2.99503,0.368 -12.28129,1.73159 -13.24792,1.94533 -0.51688,0.11428 -0.1788,0.23546 1.80258,0.64609 3.44298,0.71354 9.83563,0.89947 12.96052,0.37695 2.62669,-0.43922 4.48711,-0.99714 5.48939,-1.64624 l 0.74224,-0.48068 -2.12068,-0.0674 c -1.16637,-0.0371 -3.96074,0.0951 -6.2097,0.29372 -2.24896,0.19863 -4.13764,0.31253 -4.19707,0.2531 -0.31597,-0.31596 7.87985,-1.24522 10.72488,-1.216 2.44135,0.0251 2.55179,0.0131 2.01464,-0.21769 -0.69451,-0.29844 -5.12242,-0.23565 -7.95888,0.11287 z m -42.89971,0.92127 c 0.0812,0.3104 0.43831,0.45183 1.62368,0.643 1.90992,0.30802 7.38804,0.63369 11.27474,0.67028 2.41673,0.0227 2.81117,0.0667 2.12068,0.23606 -0.49191,0.12068 -2.76377,0.16557 -5.40774,0.10685 -6.18224,-0.13729 -11.22406,-1.00935 -10.70368,-1.85136 0.22035,-0.35652 0.98372,-0.22012 1.09232,0.19517 z"
         id="path5811"
         sodipodi:nodetypes="ccscsccscssssscsssssssssssssscssscssccssssscssssssssssssss" />
      <path
         style="fill:#b8434a;fill-opacity:1;stroke-width:0.212068"
         d="m -9.7855976,-311.97917 c -0.2482004,0.32814 -0.3044104,1.12406 -0.2770704,3.92326 0.0281,2.88455 0.061,3.22759 0.1843504,1.9211 0.0826,-0.87478 0.16253,-2.22846 0.17777,-3.00817 0.0342,-1.74598 0.32921,-2.65933 0.74708,-2.31252 0.24143,0.20037 0.24237,0.36759 0.005,1.03038 -0.15532,0.43515 -0.28659,1.38314 -0.29171,2.10663 -0.005,0.7235 -0.12317,1.56535 -0.26233,1.87078 -0.20634,0.45287 -0.19656,0.59107 0.0531,0.74897 0.43176,0.27318 0.89026,0.24708 0.7125,-0.0406 -0.21741,-0.35176 -0.11107,-3.35565 0.14725,-4.15972 0.24807,-0.77218 0.41502,-0.82851 1.10862,-0.37404 0.78828,0.5165 2.81299,1.13936 5.31575,1.63528 4.14489,0.82131 9.31792,0.59419 15.5167206,-0.68127 1.90442,-0.39184 2.00422,-0.39189 4.78193,-0.002 8.78019,1.23196 15.92675,1.38569 21.02679,0.45233 4.89721,-0.89625 9.32451,-2.23502 12.98665,-3.92703 2.40616,-1.11171 2.64833,-1.0343 2.64833,0.84656 0,0.76088 -0.0717,0.93696 -0.38172,0.93696 -0.55245,0 -0.89069,0.42129 -0.89069,1.10941 0,0.66597 0.47995,0.98082 0.92814,0.60886 0.30941,-0.2568 0.76841,-2.22617 0.76841,-3.29696 0,-0.9035 -0.5315,-1.60233 -1.21867,-1.60233 -0.30713,0 -1.19517,0.38473 -1.97343,0.85496 -2.88584,1.74366 -7.25877,3.15908 -12.09782,3.91581 -3.0562,0.47792 -10.04563,0.64908 -13.79439,0.3378 -2.9107,-0.24169 -6.9021,-0.73734 -8.0276,-0.99687 -0.35828,-0.0826 1.38935,-0.59697 5.39029,-1.58645 7.02191,-1.73661 8.96432,-2.1035 12.21136,-2.30655 l 2.43878,-0.1525 -2.14592,-0.0331 c -2.32832,-0.0359 -4.39541,0.26523 -8.66955,1.26303 -1.51629,0.35398 -4.61731,1.06495 -6.89117,1.57994 l -4.1343,0.93633 -3.18205,-0.62286 c -6.8333006,-1.33756 -12.24683062,-1.94159 -17.8338506,-1.98987 l -3.8526,-0.0333 c -0.47928,0.34324 -0.85589,0.53591 -1.22395,1.04775 z m 9.66213998,0.0193 c 2.99502002,0.368 12.28128062,1.73159 13.24791062,1.94533 0.51688,0.11428 0.1788,0.23546 -1.80258,0.64609 -3.4429886,0.71354 -9.8356206,0.89947 -12.9605106,0.37695 -2.6267,-0.43922 -4.48711,-0.99714 -5.4894,-1.64624 l -0.74224,-0.48068 2.12068,-0.0674 c 1.16638,-0.0371 3.96074,0.0951 6.20969998,0.29372 2.24896002,0.19863 4.13765002,0.31253 4.19708002,0.2531 0.31596,-0.31596 -7.87985,-1.24522 -10.72488,-1.216 -2.44135,0.0251 -2.55179,0.0131 -2.01465,-0.21769 0.69451,-0.29844 5.12243,-0.23565 7.95888998,0.11287 z m 42.89970062,0.92127 c -0.0812,0.3104 -0.43831,0.45183 -1.62368,0.643 -1.90992,0.30802 -7.38805,0.63369 -11.27474,0.67028 -2.41674,0.0227 -2.81118,0.0667 -2.12068,0.23606 0.4919,0.12068 2.76376,0.16557 5.40773,0.10685 6.18225,-0.13729 11.22407,-1.00935 10.70368,-1.85136 -0.22034,-0.35652 -0.98371,-0.22012 -1.09231,0.19517 z"
         id="path5813"
         sodipodi:nodetypes="ccscsccscssssscsssssssssssssscssscssccssssscssssssssssssss" />
    </g>
    <circle
       style="fill:#ffffff;fill-opacity:1;stroke:#b8434a;stroke-width:1.45688;stroke-linecap:square;stroke-linejoin:miter;stroke-miterlimit:4;stroke-dasharray:none;stroke-opacity:1;paint-order:stroke markers fill"
       id="circle5799"
       cx="105.37975"
       cy="38.484097"
       r="11.805074" />
    <circle
       style="fill:#ffffff;fill-opacity:1;stroke:#b8434a;stroke-width:0.905629;stroke-linecap:square;stroke-linejoin:miter;stroke-miterlimit:4;stroke-dasharray:none;stroke-opacity:1;paint-order:stroke markers fill"
       id="circle5809"
       cx="105.37975"
       cy="38.484097"
       r="10.903706" />
    <g
       id="g5831"
       transform="matrix(0.67107401,0,0,0.67107401,162.53439,-44.484243)"
       style="stroke-width:0.924961">
      <path
         id="path5815"
         style="fill:#b8434a;fill-opacity:1;stroke:none;stroke-width:1.40707;stroke-linecap:round;stroke-linejoin:round;stroke-miterlimit:4;stroke-dasharray:none;stroke-opacity:1;paint-order:fill markers stroke"
         d="m -91.921025,110.59236 c -0.569847,-0.0348 -1.101435,0.33301 -1.255188,0.90681 l -0.872653,3.25609 -3.256654,0.87265 c -0.655776,0.17571 -1.042105,0.84532 -0.866392,1.50111 l 1.380418,5.15166 -0.06831,0.0683 c -0.712667,0.71266 -0.712667,1.86032 0,2.57299 l 0.06831,0.0683 -1.380418,5.15168 c -0.175713,0.65577 0.210616,1.32538 0.866392,1.5011 l 3.256654,0.87266 0.872653,3.25607 c 0.175715,0.65579 0.844757,1.04212 1.500535,0.8664 l 5.152242,-1.38042 0.06831,0.0683 c 0.712671,0.71268 1.859752,0.71268 2.572423,0 l 0.06831,-0.0683 5.152247,1.38042 c 0.655778,0.17572 1.325385,-0.21062 1.501102,-0.8664 l 0.872653,-3.25607 3.256086,-0.87266 c 0.655774,-0.17572 1.042104,-0.84533 0.866389,-1.5011 l -1.380421,-5.15168 0.06831,-0.0683 c 0.712669,-0.71267 0.712669,-1.86033 0,-2.57299 l -0.06831,-0.0683 1.380421,-5.15166 c 0.175715,-0.65579 -0.210615,-1.3254 -0.866389,-1.50111 l -3.256086,-0.87265 -0.872653,-3.25609 c -0.175717,-0.65578 -0.845324,-1.04268 -1.501102,-0.86696 l -5.152815,1.38042 -0.06774,-0.0677 c -0.712671,-0.71266 -1.859753,-0.71266 -2.572424,0 l -0.06774,0.0677 -5.152814,-1.38042 c -0.08198,-0.0219 -0.16394,-0.0349 -0.245346,-0.0399 z" />
      <g
         id="g5829"
         transform="matrix(0.2024356,0,0,0.2024356,-102.76755,106.03658)"
         style="stroke-width:0.924961">
        <rect
           transform="rotate(-105)"
           ry="5.4955029"
           y="12.700087"
           x="-155.24458"
           height="97.543823"
           width="97.543823"
           id="rect5817"
           style="fill:#b8434a;fill-opacity:1;stroke:none;stroke-width:6.30988;stroke-linecap:round;stroke-linejoin:round;stroke-miterlimit:4;stroke-dasharray:none;stroke-opacity:1;paint-order:fill markers stroke"
           inkscape:export-filename="C:\Users\wik\Desktop\witchdice_logo.png"
           inkscape:export-xdpi="111.15"
           inkscape:export-ydpi="111.15" />
        <rect
           style="fill:#f8767d;fill-opacity:1;stroke:none;stroke-width:6.30988;stroke-linecap:round;stroke-linejoin:round;stroke-miterlimit:4;stroke-dasharray:none;stroke-opacity:1;paint-order:fill markers stroke"
           id="rect5819"
           width="97.543823"
           height="97.543823"
           x="-110.24386"
           y="57.700665"
           ry="5.4955029"
           transform="rotate(-75)"
           inkscape:export-filename="C:\Users\wik\Desktop\witchdice_logo.png"
           inkscape:export-xdpi="111.15"
           inkscape:export-ydpi="111.15" />
        <rect
           transform="rotate(-135)"
           ry="8.158288"
           y="-41.149876"
           x="-164.09387"
           height="82.300034"
           width="82.300034"
           id="rect5821"
           style="fill:#f5c1c5;fill-opacity:1;stroke:none;stroke-width:7.50685;stroke-linecap:round;stroke-linejoin:round;stroke-miterlimit:4;stroke-dasharray:none;stroke-opacity:1;paint-order:fill markers stroke"
           inkscape:export-filename="C:\Users\wik\Desktop\witchdice_logo.png"
           inkscape:export-xdpi="111.15"
           inkscape:export-ydpi="111.15" />
        <rect
           style="fill:#fbe4e6;fill-opacity:1;stroke:none;stroke-width:6.08671;stroke-linecap:round;stroke-linejoin:round;stroke-miterlimit:4;stroke-dasharray:none;stroke-opacity:1;paint-order:fill markers stroke"
           id="rect5823"
           width="66.730537"
           height="66.730537"
           x="-156.30908"
           y="-33.365082"
           ry="6.6149063"
           transform="rotate(-135)"
           inkscape:export-filename="C:\Users\wik\Desktop\witchdice_logo.png"
           inkscape:export-xdpi="111.15"
           inkscape:export-ydpi="111.15" />
        <ellipse
           ry="10.318123"
           rx="10.318125"
           transform="rotate(90)"
           style="fill:#e75f67;fill-opacity:1;stroke:none;stroke-width:5.9999;stroke-linecap:round;stroke-linejoin:round;stroke-miterlimit:4;stroke-dasharray:none;stroke-opacity:1;paint-order:fill markers stroke"
           id="ellipse5825"
           cx="86.934448"
           cy="-108.59637"
           inkscape:export-filename="C:\Users\wik\Desktop\witchdice_logo.png"
           inkscape:export-xdpi="111.15"
           inkscape:export-ydpi="111.15" />
        <ellipse
           ry="10.318123"
           rx="10.318125"
           transform="rotate(90)"
           cy="-65.272682"
           cx="86.934448"
           id="ellipse5827"
           style="fill:#e75f67;fill-opacity:1;stroke:none;stroke-width:5.9999;stroke-linecap:round;stroke-linejoin:round;stroke-miterlimit:4;stroke-dasharray:none;stroke-opacity:1;paint-order:fill markers stroke"
           inkscape:export-filename="C:\Users\wik\Desktop\witchdice_logo.png"
           inkscape:export-xdpi="111.15"
           inkscape:export-ydpi="111.15" />
      </g>
    </g>
    <g
       id="g5841"
       transform="rotate(180,123.59045,-134.3909)">
      <path
         style="fill:#f5bdc1;fill-opacity:1;stroke:none;stroke-width:0.253648px;stroke-linecap:butt;stroke-linejoin:miter;stroke-opacity:1"
         d="m 105.74201,-296.2866 1.10042,-1.70064 1.13376,-0.56688 1.93406,0.8003 0.93368,1.30049 -0.26676,1.43388 -3.7014,-0.53354 z"
         id="path5833" />
      <g
         style="clip-rule:evenodd;fill:#b8434a;fill-opacity:1;fill-rule:evenodd;stroke-linejoin:round;stroke-miterlimit:2"
         id="g5839"
         transform="matrix(-0.08650302,-0.02654826,0.02654826,-0.08650302,111.299,-290.11628)">
        <g
           transform="matrix(0.859538,0,0,0.859538,6.95803,7.29169)"
           id="g5837"
           style="fill:#b8434a;fill-opacity:1">
          <path
             d="m 50,4.1 c -20.1,0 -43.1,20 -36.4,42.5 2,6.7 3.8,16.1 6.3,21.6 -9.4,13.6 7.8,14.2 7.8,14.2 l -0.3,9.2 c 0,0.9 11.8,3.4 15.8,3.6 3.5,0.1 10.4,0.1 13.9,0 4,-0.2 15.8,-2.7 15.8,-3.6 l -0.3,-9.2 c 0,0 16,1 7.8,-14.2 C 82.9,62.6 84.8,53 86.7,46.6 92.9,24.1 70.1,4.1 50,4.1 Z M 37.1,67.7 c -6.7,1.8 -13.2,-0.8 -14.5,-5.8 -1.3,-5 -3.3,-13.2 9.7,-12.3 6.9,0.5 13.2,0.8 14.5,5.8 1.4,5 -3,10.5 -9.7,12.3 z m 18.4,10.9 c -2.2,1.1 -4.8,-0.9 -4.8,-0.9 0,0 -3.9,1.7 -5.2,0.8 -2.9,-1.9 1.2,-15.6 5.2,-15.5 3.9,0 8.3,13.7 4.8,15.6 z M 78.4,61.9 c -1.3,5 -7.8,7.6 -14.5,5.8 -6.7,-1.8 -11,-7.3 -9.7,-12.3 1.3,-5 7.6,-5.3 14.5,-5.8 13,-0.9 11,7.3 9.7,12.3 z"
             style="fill:#b8434a;fill-opacity:1;fill-rule:nonzero"
             id="path5835" />
        </g>
      </g>
    </g>
    <g
       id="g5851"
       transform="rotate(180,115.75376,-134.8467)">
      <path
         style="fill:#f5bdc1;fill-opacity:1;stroke:none;stroke-width:0.189983px;stroke-linecap:butt;stroke-linejoin:miter;stroke-opacity:1"
         d="m 98.526991,-296.6123 0.721275,-1.33478 0.813094,-0.4902 1.49136,0.48341 0.77392,0.91593 -0.11456,1.08639 -2.795235,-0.1799 z"
         id="path5843" />
      <g
         style="clip-rule:evenodd;fill:#b8434a;fill-opacity:1;fill-rule:evenodd;stroke-linejoin:round;stroke-miterlimit:2"
         id="g5849"
         transform="matrix(-0.0681982,-0.01014951,0.01014951,-0.0681982,103.40429,-292.3646)">
        <g
           transform="matrix(0.859538,0,0,0.859538,6.95803,7.29169)"
           id="g5847"
           style="fill:#b8434a;fill-opacity:1">
          <path
             d="m 50,4.1 c -20.1,0 -43.1,20 -36.4,42.5 2,6.7 3.8,16.1 6.3,21.6 -9.4,13.6 7.8,14.2 7.8,14.2 l -0.3,9.2 c 0,0.9 11.8,3.4 15.8,3.6 3.5,0.1 10.4,0.1 13.9,0 4,-0.2 15.8,-2.7 15.8,-3.6 l -0.3,-9.2 c 0,0 16,1 7.8,-14.2 C 82.9,62.6 84.8,53 86.7,46.6 92.9,24.1 70.1,4.1 50,4.1 Z M 37.1,67.7 c -6.7,1.8 -13.2,-0.8 -14.5,-5.8 -1.3,-5 -3.3,-13.2 9.7,-12.3 6.9,0.5 13.2,0.8 14.5,5.8 1.4,5 -3,10.5 -9.7,12.3 z m 18.4,10.9 c -2.2,1.1 -4.8,-0.9 -4.8,-0.9 0,0 -3.9,1.7 -5.2,0.8 -2.9,-1.9 1.2,-15.6 5.2,-15.5 3.9,0 8.3,13.7 4.8,15.6 z M 78.4,61.9 c -1.3,5 -7.8,7.6 -14.5,5.8 -6.7,-1.8 -11,-7.3 -9.7,-12.3 1.3,-5 7.6,-5.3 14.5,-5.8 13,-0.9 11,7.3 9.7,12.3 z"
             style="fill:#b8434a;fill-opacity:1;fill-rule:nonzero"
             id="path5845" />
        </g>
      </g>
    </g>
    <g
       id="g5861"
       transform="rotate(180,109.04582,-134.77524)">
      <path
         style="fill:#f5bdc1;fill-opacity:1;stroke:none;stroke-width:0.131035px;stroke-linecap:butt;stroke-linejoin:miter;stroke-opacity:1"
         d="m 92.349261,-296.46281 0.497477,-0.92063 0.560805,-0.3381 1.028619,0.33342 0.533788,0.63174 -0.07901,0.7493 -1.927931,-0.12408 z"
         id="path5853" />
      <g
         style="clip-rule:evenodd;fill:#b8434a;fill-opacity:1;fill-rule:evenodd;stroke-linejoin:round;stroke-miterlimit:2"
         id="g5859"
         transform="matrix(-0.04841535,-0.003059,0.003059,-0.04841535,96.011433,-293.65158)">
        <g
           transform="matrix(0.859538,0,0,0.859538,6.95803,7.29169)"
           id="g5857"
           style="fill:#b8434a;fill-opacity:1">
          <path
             d="m 50,4.1 c -20.1,0 -43.1,20 -36.4,42.5 2,6.7 3.8,16.1 6.3,21.6 -9.4,13.6 7.8,14.2 7.8,14.2 l -0.3,9.2 c 0,0.9 11.8,3.4 15.8,3.6 3.5,0.1 10.4,0.1 13.9,0 4,-0.2 15.8,-2.7 15.8,-3.6 l -0.3,-9.2 c 0,0 16,1 7.8,-14.2 C 82.9,62.6 84.8,53 86.7,46.6 92.9,24.1 70.1,4.1 50,4.1 Z M 37.1,67.7 c -6.7,1.8 -13.2,-0.8 -14.5,-5.8 -1.3,-5 -3.3,-13.2 9.7,-12.3 6.9,0.5 13.2,0.8 14.5,5.8 1.4,5 -3,10.5 -9.7,12.3 z m 18.4,10.9 c -2.2,1.1 -4.8,-0.9 -4.8,-0.9 0,0 -3.9,1.7 -5.2,0.8 -2.9,-1.9 1.2,-15.6 5.2,-15.5 3.9,0 8.3,13.7 4.8,15.6 z M 78.4,61.9 c -1.3,5 -7.8,7.6 -14.5,5.8 -6.7,-1.8 -11,-7.3 -9.7,-12.3 1.3,-5 7.6,-5.3 14.5,-5.8 13,-0.9 11,7.3 9.7,12.3 z"
             style="fill:#b8434a;fill-opacity:1;fill-rule:nonzero"
             id="path5855" />
        </g>
      </g>
    </g>
    <g
       id="g5871"
       transform="rotate(180,103.93219,-134.36642)">
      <path
         style="fill:#f5bdc1;fill-opacity:1;stroke:none;stroke-width:0.0968553px;stroke-linecap:butt;stroke-linejoin:miter;stroke-opacity:1"
         d="m 87.605812,-295.96731 0.367713,-0.68049 0.414522,-0.24991 0.76031,0.24645 0.394553,0.46695 -0.0584,0.55385 -1.425041,-0.0917 z"
         id="path5863" />
      <g
         style="clip-rule:evenodd;fill:#b8434a;fill-opacity:1;fill-rule:evenodd;stroke-linejoin:round;stroke-miterlimit:2"
         id="g5869"
         transform="matrix(-0.03431729,-9.63578e-4,9.63578e-4,-0.03431729,90.278054,-294.05715)">
        <g
           transform="matrix(0.859538,0,0,0.859538,6.95803,7.29169)"
           id="g5867"
           style="fill:#b8434a;fill-opacity:1">
          <path
             d="m 50,4.1 c -20.1,0 -43.1,20 -36.4,42.5 2,6.7 3.8,16.1 6.3,21.6 -9.4,13.6 7.8,14.2 7.8,14.2 l -0.3,9.2 c 0,0.9 11.8,3.4 15.8,3.6 3.5,0.1 10.4,0.1 13.9,0 4,-0.2 15.8,-2.7 15.8,-3.6 l -0.3,-9.2 c 0,0 16,1 7.8,-14.2 C 82.9,62.6 84.8,53 86.7,46.6 92.9,24.1 70.1,4.1 50,4.1 Z M 37.1,67.7 c -6.7,1.8 -13.2,-0.8 -14.5,-5.8 -1.3,-5 -3.3,-13.2 9.7,-12.3 6.9,0.5 13.2,0.8 14.5,5.8 1.4,5 -3,10.5 -9.7,12.3 z m 18.4,10.9 c -2.2,1.1 -4.8,-0.9 -4.8,-0.9 0,0 -3.9,1.7 -5.2,0.8 -2.9,-1.9 1.2,-15.6 5.2,-15.5 3.9,0 8.3,13.7 4.8,15.6 z M 78.4,61.9 c -1.3,5 -7.8,7.6 -14.5,5.8 -6.7,-1.8 -11,-7.3 -9.7,-12.3 1.3,-5 7.6,-5.3 14.5,-5.8 13,-0.9 11,7.3 9.7,12.3 z"
             style="fill:#b8434a;fill-opacity:1;fill-rule:nonzero"
             id="path5865" />
        </g>
      </g>
    </g>
    <g
       id="g5881"
       transform="rotate(180,56.99583,-134.3909)">
      <path
         style="fill:#f5bdc1;fill-opacity:1;stroke:none;stroke-width:0.253648px;stroke-linecap:butt;stroke-linejoin:miter;stroke-opacity:1"
         d="m 44.182597,-296.2866 -1.100416,-1.70064 -1.13376,-0.56688 -1.934065,0.8003 -0.933682,1.30049 0.266766,1.43388 3.701396,-0.53354 z"
         id="path5873" />
      <g
         style="clip-rule:evenodd;fill:#b8434a;fill-opacity:1;fill-rule:evenodd;stroke-linejoin:round;stroke-miterlimit:2"
         id="g5879"
         transform="matrix(0.08650302,-0.02654826,-0.02654826,-0.08650302,38.625606,-290.11628)">
        <g
           transform="matrix(0.859538,0,0,0.859538,6.95803,7.29169)"
           id="g5877"
           style="fill:#b8434a;fill-opacity:1">
          <path
             d="m 50,4.1 c -20.1,0 -43.1,20 -36.4,42.5 2,6.7 3.8,16.1 6.3,21.6 -9.4,13.6 7.8,14.2 7.8,14.2 l -0.3,9.2 c 0,0.9 11.8,3.4 15.8,3.6 3.5,0.1 10.4,0.1 13.9,0 4,-0.2 15.8,-2.7 15.8,-3.6 l -0.3,-9.2 c 0,0 16,1 7.8,-14.2 C 82.9,62.6 84.8,53 86.7,46.6 92.9,24.1 70.1,4.1 50,4.1 Z M 37.1,67.7 c -6.7,1.8 -13.2,-0.8 -14.5,-5.8 -1.3,-5 -3.3,-13.2 9.7,-12.3 6.9,0.5 13.2,0.8 14.5,5.8 1.4,5 -3,10.5 -9.7,12.3 z m 18.4,10.9 c -2.2,1.1 -4.8,-0.9 -4.8,-0.9 0,0 -3.9,1.7 -5.2,0.8 -2.9,-1.9 1.2,-15.6 5.2,-15.5 3.9,0 8.3,13.7 4.8,15.6 z M 78.4,61.9 c -1.3,5 -7.8,7.6 -14.5,5.8 -6.7,-1.8 -11,-7.3 -9.7,-12.3 1.3,-5 7.6,-5.3 14.5,-5.8 13,-0.9 11,7.3 9.7,12.3 z"
             style="fill:#b8434a;fill-opacity:1;fill-rule:nonzero"
             id="path5875" />
        </g>
      </g>
    </g>
    <g
       id="g5891"
       transform="rotate(180,64.83252,-134.8467)">
      <path
         style="fill:#f5bdc1;fill-opacity:1;stroke:none;stroke-width:0.189983px;stroke-linecap:butt;stroke-linejoin:miter;stroke-opacity:1"
         d="m 51.397617,-296.6123 -0.721275,-1.33478 -0.813091,-0.4902 -1.49136,0.48341 -0.77392,0.91593 0.114554,1.08639 2.795238,-0.1799 z"
         id="path5883" />
      <g
         style="clip-rule:evenodd;fill:#b8434a;fill-opacity:1;fill-rule:evenodd;stroke-linejoin:round;stroke-miterlimit:2"
         id="g5889"
         transform="matrix(0.0681982,-0.01014951,-0.01014951,-0.0681982,46.520317,-292.3646)">
        <g
           transform="matrix(0.859538,0,0,0.859538,6.95803,7.29169)"
           id="g5887"
           style="fill:#b8434a;fill-opacity:1">
          <path
             d="m 50,4.1 c -20.1,0 -43.1,20 -36.4,42.5 2,6.7 3.8,16.1 6.3,21.6 -9.4,13.6 7.8,14.2 7.8,14.2 l -0.3,9.2 c 0,0.9 11.8,3.4 15.8,3.6 3.5,0.1 10.4,0.1 13.9,0 4,-0.2 15.8,-2.7 15.8,-3.6 l -0.3,-9.2 c 0,0 16,1 7.8,-14.2 C 82.9,62.6 84.8,53 86.7,46.6 92.9,24.1 70.1,4.1 50,4.1 Z M 37.1,67.7 c -6.7,1.8 -13.2,-0.8 -14.5,-5.8 -1.3,-5 -3.3,-13.2 9.7,-12.3 6.9,0.5 13.2,0.8 14.5,5.8 1.4,5 -3,10.5 -9.7,12.3 z m 18.4,10.9 c -2.2,1.1 -4.8,-0.9 -4.8,-0.9 0,0 -3.9,1.7 -5.2,0.8 -2.9,-1.9 1.2,-15.6 5.2,-15.5 3.9,0 8.3,13.7 4.8,15.6 z M 78.4,61.9 c -1.3,5 -7.8,7.6 -14.5,5.8 -6.7,-1.8 -11,-7.3 -9.7,-12.3 1.3,-5 7.6,-5.3 14.5,-5.8 13,-0.9 11,7.3 9.7,12.3 z"
             style="fill:#b8434a;fill-opacity:1;fill-rule:nonzero"
             id="path5885" />
        </g>
      </g>
    </g>
    <g
       id="g5901"
       transform="rotate(180,71.540455,-134.77524)">
      <path
         style="fill:#f5bdc1;fill-opacity:1;stroke:none;stroke-width:0.131035px;stroke-linecap:butt;stroke-linejoin:miter;stroke-opacity:1"
         d="m 57.575347,-296.46281 -0.497477,-0.92063 -0.560805,-0.3381 -1.028619,0.33342 -0.533788,0.63174 0.07901,0.7493 1.927931,-0.12408 z"
         id="path5893" />
      <g
         style="clip-rule:evenodd;fill:#b8434a;fill-opacity:1;fill-rule:evenodd;stroke-linejoin:round;stroke-miterlimit:2"
         id="g5899"
         transform="matrix(0.04841535,-0.003059,-0.003059,-0.04841535,53.913175,-293.65158)">
        <g
           transform="matrix(0.859538,0,0,0.859538,6.95803,7.29169)"
           id="g5897"
           style="fill:#b8434a;fill-opacity:1">
          <path
             d="m 50,4.1 c -20.1,0 -43.1,20 -36.4,42.5 2,6.7 3.8,16.1 6.3,21.6 -9.4,13.6 7.8,14.2 7.8,14.2 l -0.3,9.2 c 0,0.9 11.8,3.4 15.8,3.6 3.5,0.1 10.4,0.1 13.9,0 4,-0.2 15.8,-2.7 15.8,-3.6 l -0.3,-9.2 c 0,0 16,1 7.8,-14.2 C 82.9,62.6 84.8,53 86.7,46.6 92.9,24.1 70.1,4.1 50,4.1 Z M 37.1,67.7 c -6.7,1.8 -13.2,-0.8 -14.5,-5.8 -1.3,-5 -3.3,-13.2 9.7,-12.3 6.9,0.5 13.2,0.8 14.5,5.8 1.4,5 -3,10.5 -9.7,12.3 z m 18.4,10.9 c -2.2,1.1 -4.8,-0.9 -4.8,-0.9 0,0 -3.9,1.7 -5.2,0.8 -2.9,-1.9 1.2,-15.6 5.2,-15.5 3.9,0 8.3,13.7 4.8,15.6 z M 78.4,61.9 c -1.3,5 -7.8,7.6 -14.5,5.8 -6.7,-1.8 -11,-7.3 -9.7,-12.3 1.3,-5 7.6,-5.3 14.5,-5.8 13,-0.9 11,7.3 9.7,12.3 z"
             style="fill:#b8434a;fill-opacity:1;fill-rule:nonzero"
             id="path5895" />
        </g>
      </g>
    </g>
    <g
       id="g5911"
       transform="rotate(180,76.654086,-134.36642)">
      <path
         style="fill:#f5bdc1;fill-opacity:1;stroke:none;stroke-width:0.0968553px;stroke-linecap:butt;stroke-linejoin:miter;stroke-opacity:1"
         d="m 62.318796,-295.96731 -0.367713,-0.68049 -0.414522,-0.24991 -0.76031,0.24645 -0.394553,0.46695 0.0584,0.55385 1.425041,-0.0917 z"
         id="path5903" />
      <g
         style="clip-rule:evenodd;fill:#b8434a;fill-opacity:1;fill-rule:evenodd;stroke-linejoin:round;stroke-miterlimit:2"
         id="g5909"
         transform="matrix(0.03431729,-9.63578e-4,-9.63578e-4,-0.03431729,59.646554,-294.05715)">
        <g
           transform="matrix(0.859538,0,0,0.859538,6.95803,7.29169)"
           id="g5907"
           style="fill:#b8434a;fill-opacity:1">
          <path
             d="m 50,4.1 c -20.1,0 -43.1,20 -36.4,42.5 2,6.7 3.8,16.1 6.3,21.6 -9.4,13.6 7.8,14.2 7.8,14.2 l -0.3,9.2 c 0,0.9 11.8,3.4 15.8,3.6 3.5,0.1 10.4,0.1 13.9,0 4,-0.2 15.8,-2.7 15.8,-3.6 l -0.3,-9.2 c 0,0 16,1 7.8,-14.2 C 82.9,62.6 84.8,53 86.7,46.6 92.9,24.1 70.1,4.1 50,4.1 Z M 37.1,67.7 c -6.7,1.8 -13.2,-0.8 -14.5,-5.8 -1.3,-5 -3.3,-13.2 9.7,-12.3 6.9,0.5 13.2,0.8 14.5,5.8 1.4,5 -3,10.5 -9.7,12.3 z m 18.4,10.9 c -2.2,1.1 -4.8,-0.9 -4.8,-0.9 0,0 -3.9,1.7 -5.2,0.8 -2.9,-1.9 1.2,-15.6 5.2,-15.5 3.9,0 8.3,13.7 4.8,15.6 z M 78.4,61.9 c -1.3,5 -7.8,7.6 -14.5,5.8 -6.7,-1.8 -11,-7.3 -9.7,-12.3 1.3,-5 7.6,-5.3 14.5,-5.8 13,-0.9 11,7.3 9.7,12.3 z"
             style="fill:#b8434a;fill-opacity:1;fill-rule:nonzero"
             id="path5905" />
        </g>
      </g>
    </g>
    <g
       id="g5919"
       transform="matrix(-0.6646785,0.66473216,-0.66473216,-0.6646785,91.094604,-4.5425061)">
      <path
         id="path5913"
         style="fill:#f5bdc1;fill-opacity:1;stroke:none;stroke-width:3.14344;stroke-linecap:round;stroke-linejoin:round;stroke-miterlimit:4;stroke-dasharray:none;stroke-opacity:1;paint-order:fill markers stroke"
         d="m 57.168059,9.2630005 c -0.173498,-0.00859 -0.318447,0.048213 -0.423746,0.1116211 -0.286229,0.1720998 -0.48731,0.5216665 -0.48731,0.8495604 0,0.315215 0.117981,0.934938 0.342617,1.511019 l 0.05064,0.121439 c 0.150363,0.106884 0.295376,0.219179 0.429432,0.336931 0.139491,-0.05615 0.28965,-0.08682 0.449067,-0.08682 0.313404,0 0.597813,0.119315 0.813388,0.316777 0.44746,-0.66666 0.690398,-1.750079 0.690398,-2.199349 0,-0.3206499 -0.20288,-0.6663476 -0.494543,-0.8402587 -0.170289,-0.1014532 -0.442362,-0.1901812 -0.757576,-0.021704 -0.08515,0.045284 -0.18668,0.045284 -0.27182,0 -0.12228,-0.065205 -0.236448,-0.094064 -0.340548,-0.099219 z m 3.092318,2.3461095 c -0.09307,0.0029 -0.184799,0.01727 -0.271301,0.04444 -0.202896,0.0634 -0.502079,0.208495 -0.797367,0.382406 -0.137679,0.335141 -0.309989,0.653819 -0.514697,0.907438 0.03804,0.115942 0.05839,0.241381 0.05839,0.370003 0,0.346013 -0.1469,0.657487 -0.382405,0.878499 0.757237,0.222822 1.960255,0.146772 2.500106,-0.0217 0.342387,-0.106884 0.631888,-0.411595 0.70435,-0.73949 0.05435,-0.248187 -0.01984,-0.46531 -0.222726,-0.65009 -0.07609,-0.06703 -0.110363,-0.172178 -0.09043,-0.271818 0.0616,-0.307968 -0.0817,-0.51425 -0.21394,-0.632002 -0.199728,-0.179343 -0.49077,-0.276345 -0.769979,-0.267685 z m -5.463749,0.0016 c -0.279464,-0.0087 -0.569736,0.08834 -0.769462,0.267684 -0.132246,0.119563 -0.275539,0.324553 -0.213939,0.63252 0.01992,0.09964 -0.01434,0.202461 -0.09043,0.271301 -0.43512,0.529435 -0.14134,1.179927 0.481637,1.388029 0.195652,0.05978 0.510808,0.112357 0.842328,0.139526 h 0.0021 c 0.380431,-0.306156 0.838498,-0.6087 1.291394,-0.798917 -0.0109,-0.0634 -0.01603,-0.130374 -0.01603,-0.197404 0,-0.289852 0.103336,-0.558029 0.275437,-0.766362 -0.54891,-0.452892 -1.21415,-0.791778 -1.531173,-0.891418 -0.08696,-0.02717 -0.178666,-0.04207 -0.27182,-0.04496 z m 2.732132,1.075904 c -0.346009,0 -0.626835,0.280824 -0.626835,0.626835 0,0.346012 0.280826,0.626835 0.626835,0.626835 0.346012,0 0.626838,-0.280823 0.626838,-0.626835 -3e-6,-0.346011 -0.280826,-0.626835 -0.626838,-0.626835 z m -0.960146,1.356506 c -0.717386,0.302532 -1.51986,0.973231 -1.809711,1.355473 -0.197455,0.260868 -0.244893,0.653482 -0.116271,0.956014 0.07427,0.175724 0.237403,0.393445 0.590661,0.435115 0.09782,0.01268 0.183391,0.07246 0.226862,0.161231 0.150357,0.306161 0.405358,0.393234 0.593762,0.411344 0.353256,0.03442 0.746387,-0.138046 0.95653,-0.417028 0.123184,-0.164854 0.273671,-0.439797 0.404108,-0.744141 -0.219196,-0.567023 -0.380425,-1.22645 -0.329694,-1.7663 -0.206521,-0.08152 -0.383998,-0.217797 -0.516247,-0.391708 z m 1.090371,0.474907 c -0.05797,0.775354 0.456809,1.992463 0.786517,2.427242 0.211952,0.278982 0.605086,0.451438 0.956529,0.417028 0.188405,-0.01812 0.443918,-0.103376 0.594281,-0.411344 0.04348,-0.08877 0.128521,-0.15037 0.226343,-0.161231 0.353256,-0.04167 0.51639,-0.259391 0.590661,-0.435115 0.128622,-0.302532 0.08119,-0.695146 -0.116274,-0.956014 v -5.29e-4 c -0.108693,-0.143114 -0.295235,-0.331199 -0.516247,-0.521416 -0.224634,0.0217 -0.46007,0.03411 -0.688329,0.03411 -0.03804,0 -0.07617,-0.0016 -0.114205,-0.0016 -0.525357,-0.0091 -1.237395,-0.08685 -1.719276,-0.39119 z"
         sodipodi:nodetypes="sscccscscccsssccsccccscsssscccccsccssscsscccccccccccccccccccsccccc" />
      <path
         style="fill:#f8767d;fill-opacity:1;stroke:none;stroke-width:3.14344;stroke-linecap:round;stroke-linejoin:round;stroke-miterlimit:4;stroke-dasharray:none;stroke-opacity:1;paint-order:fill markers stroke"
         d="m 57.545464,12.669869 c -0.346008,0 -0.626834,0.280824 -0.626834,0.626835 0,0.346012 0.280826,0.626836 0.626834,0.626836 0.346012,0 0.626838,-0.280824 0.626838,-0.626836 -3e-6,-0.346011 -0.280826,-0.626835 -0.626838,-0.626835 z"
         id="path5915" />
      <path
         d="m 61.852727,12.439923 c 0.0308,-0.387678 -0.114124,-0.744558 -0.416663,-1.016294 -0.416662,-0.374997 -1.061582,-0.514489 -1.601433,-0.346012 -0.108695,0.03441 -0.230069,0.08151 -0.362315,0.143115 0.105068,-0.407604 0.157607,-0.778978 0.157607,-1.021729 0,-0.5307915 -0.304345,-1.0561493 -0.775354,-1.3387546 -0.373185,-0.2228238 -0.800716,-0.2572439 -1.192017,-0.099637 -0.398547,-0.1630417 -0.82789,-0.130433 -1.199263,0.09239 -0.467387,0.2807953 -0.768108,0.8097741 -0.768108,1.3460006 0,0.333331 0.08333,0.762673 0.193839,1.152162 -0.237317,-0.124995 -0.456518,-0.219201 -0.630429,-0.273548 -0.541661,-0.168477 -1.184771,-0.0308 -1.601433,0.346012 -0.302533,0.273547 -0.447459,0.628616 -0.416662,1.016294 -0.27536,0.306155 -0.376808,0.688399 -0.289852,1.09057 0.115938,0.53079 0.557965,0.999987 1.097815,1.168464 0.124994,0.03804 0.280793,0.07427 0.454706,0.103254 -0.07427,0.07971 -0.139493,0.153984 -0.190216,0.222824 -0.32065,0.425721 -0.394924,1.041656 -0.186592,1.534404 0.166664,0.393111 0.492748,0.663037 0.903975,0.757239 0.217389,0.34782 0.561589,0.559777 0.983687,0.599631 0.0471,0.0054 0.09601,0.0073 0.144925,0.0073 0.507241,0 1.027163,-0.249997 1.329697,-0.650355 0.08152,-0.108696 0.168477,-0.248186 0.255432,-0.407605 0.08877,0.164853 0.175723,0.304345 0.255432,0.407605 0.302534,0.400358 0.822455,0.650355 1.329696,0.650355 0.04891,0 0.09601,-0.0017 0.144927,-0.0073 0.422097,-0.04167 0.766297,-0.251809 0.983686,-0.599631 0.411227,-0.0942 0.737311,-0.364128 0.903976,-0.757239 0.210142,-0.492748 0.135868,-1.108683 -0.186592,-1.534404 -0.06703,-0.08877 -0.153984,-0.186592 -0.255432,-0.289852 0.04347,-0.01086 0.08333,-0.02174 0.12138,-0.03441 0.541662,-0.168476 0.981875,-0.639486 1.097814,-1.168464 0.09238,-0.403983 -0.01086,-0.784414 -0.286227,-1.092382 z m -5.235454,-0.728255 c -0.224635,-0.576081 -0.342388,-1.195639 -0.342388,-1.510854 0,-0.3278945 0.201085,-0.6775294 0.487314,-0.8496292 0.168476,-0.1014524 0.438402,-0.186592 0.764485,-0.012711 0.08514,0.045284 0.186592,0.045284 0.271737,0 0.315214,-0.1684771 0.586949,-0.079711 0.757237,0.021742 0.291665,0.1739111 0.494561,0.5199217 0.494561,0.8405722 0,0.44927 -0.242751,1.532593 -0.690211,2.199253 -0.215576,-0.197462 -0.499994,-0.317027 -0.813396,-0.317027 -0.159419,0 -0.30978,0.0308 -0.449271,0.08695 -0.134057,-0.117752 -0.278983,-0.23007 -0.429345,-0.336954 z m 0.929339,0.951078 c 0.346011,0 0.626804,0.280794 0.626804,0.626805 0,0.346012 -0.280793,0.626806 -0.626804,0.626806 -0.346011,0 -0.626805,-0.280794 -0.626805,-0.626806 0,-0.346011 0.280794,-0.626805 0.626805,-0.626805 z m -4.028945,0.744558 c -0.05434,-0.248186 0.02174,-0.465575 0.222823,-0.648543 0.07608,-0.06884 0.11051,-0.172101 0.09058,-0.271739 -0.0616,-0.307967 0.08152,-0.512675 0.213766,-0.632238 0.266303,-0.239129 0.693835,-0.331519 1.041657,-0.222825 0.317025,0.09964 0.981874,0.438403 1.530782,0.891295 -0.172101,0.208332 -0.275361,0.476445 -0.275361,0.766297 0,0.06703 0.0054,0.134057 0.0163,0.197461 -0.452894,0.190217 -0.911223,0.492749 -1.291654,0.798906 0,0 -0.0017,0 -0.0017,0 -0.331519,-0.02717 -0.646732,-0.07971 -0.842383,-0.139491 -0.344198,-0.106881 -0.634051,-0.411228 -0.704702,-0.739123 z m 3.510834,3.514456 c -0.210143,0.278982 -0.603254,0.451082 -0.956512,0.416662 -0.188403,-0.01811 -0.443837,-0.105067 -0.594197,-0.411228 -0.04347,-0.08877 -0.128623,-0.148549 -0.226446,-0.16123 -0.353258,-0.04167 -0.516301,-0.259055 -0.590575,-0.434779 -0.128623,-0.302531 -0.08152,-0.695643 0.115938,-0.956511 0.289851,-0.382242 1.092379,-1.052525 1.809764,-1.355057 0.132251,0.173911 0.309778,0.309778 0.516298,0.3913 -0.05073,0.53985 0.110509,1.199263 0.329707,1.766285 -0.130437,0.304344 -0.280795,0.579705 -0.403981,0.744558 z m 3.686556,-1.547086 c 0.197462,0.260868 0.244563,0.65398 0.115939,0.956511 -0.07427,0.175724 -0.237317,0.393113 -0.590574,0.434779 -0.09782,0.01086 -0.182969,0.07246 -0.226447,0.16123 -0.150361,0.307968 -0.405793,0.393112 -0.594198,0.411228 -0.351445,0.03441 -0.744556,-0.13768 -0.95651,-0.416662 -0.329707,-0.434778 -0.844195,-1.652157 -0.786225,-2.427511 0.481879,0.304344 1.193829,0.382242 1.719185,0.391301 0.03804,0 0.07608,0.0017 0.114124,0.0017 0.228259,0 0.463764,-0.01271 0.688399,-0.03441 0.221012,0.190216 0.407604,0.378619 0.516299,0.521733 z m 0.860498,-1.96737 c -0.07246,0.327895 -0.362315,0.63224 -0.704703,0.739123 -0.539849,0.168476 -1.742735,0.244562 -2.499974,0.02174 0.235505,-0.221012 0.382242,-0.532603 0.382242,-0.878616 0,-0.128622 -0.01993,-0.253619 -0.05797,-0.369561 0.204708,-0.253619 0.376808,-0.572457 0.514488,-0.907598 0.295287,-0.173911 0.594197,-0.318838 0.797093,-0.382242 0.346011,-0.108696 0.775354,-0.0163 1.041657,0.222823 0.132238,0.117752 0.275358,0.324272 0.213765,0.63224 -0.01993,0.09964 0.01449,0.204707 0.09058,0.271736 0.202895,0.18478 0.277171,0.402169 0.222823,0.650356 z"
         id="path5917"
         style="fill:#b8434a;fill-opacity:1;stroke:#b8434a;stroke-width:0.1;stroke-miterlimit:4;stroke-dasharray:none;stroke-opacity:1" />
    </g>
    <g
       id="g5927"
       transform="matrix(-0.53361709,0.53366016,-0.53366016,-0.53361709,71.858893,-0.88196814)">
      <path
         id="path5921"
         style="fill:#f5bdc1;fill-opacity:1;stroke:none;stroke-width:3.14344;stroke-linecap:round;stroke-linejoin:round;stroke-miterlimit:4;stroke-dasharray:none;stroke-opacity:1;paint-order:fill markers stroke"
         d="m 57.168059,9.2630005 c -0.173498,-0.00859 -0.318447,0.048213 -0.423746,0.1116211 -0.286229,0.1720998 -0.48731,0.5216665 -0.48731,0.8495604 0,0.315215 0.117981,0.934938 0.342617,1.511019 l 0.05064,0.121439 c 0.150363,0.106884 0.295376,0.219179 0.429432,0.336931 0.139491,-0.05615 0.28965,-0.08682 0.449067,-0.08682 0.313404,0 0.597813,0.119315 0.813388,0.316777 0.44746,-0.66666 0.690398,-1.750079 0.690398,-2.199349 0,-0.3206499 -0.20288,-0.6663476 -0.494543,-0.8402587 -0.170289,-0.1014532 -0.442362,-0.1901812 -0.757576,-0.021704 -0.08515,0.045284 -0.18668,0.045284 -0.27182,0 -0.12228,-0.065205 -0.236448,-0.094064 -0.340548,-0.099219 z m 3.092318,2.3461095 c -0.09307,0.0029 -0.184799,0.01727 -0.271301,0.04444 -0.202896,0.0634 -0.502079,0.208495 -0.797367,0.382406 -0.137679,0.335141 -0.309989,0.653819 -0.514697,0.907438 0.03804,0.115942 0.05839,0.241381 0.05839,0.370003 0,0.346013 -0.1469,0.657487 -0.382405,0.878499 0.757237,0.222822 1.960255,0.146772 2.500106,-0.0217 0.342387,-0.106884 0.631888,-0.411595 0.70435,-0.73949 0.05435,-0.248187 -0.01984,-0.46531 -0.222726,-0.65009 -0.07609,-0.06703 -0.110363,-0.172178 -0.09043,-0.271818 0.0616,-0.307968 -0.0817,-0.51425 -0.21394,-0.632002 -0.199728,-0.179343 -0.49077,-0.276345 -0.769979,-0.267685 z m -5.463749,0.0016 c -0.279464,-0.0087 -0.569736,0.08834 -0.769462,0.267684 -0.132246,0.119563 -0.275539,0.324553 -0.213939,0.63252 0.01992,0.09964 -0.01434,0.202461 -0.09043,0.271301 -0.43512,0.529435 -0.14134,1.179927 0.481637,1.388029 0.195652,0.05978 0.510808,0.112357 0.842328,0.139526 h 0.0021 c 0.380431,-0.306156 0.838498,-0.6087 1.291394,-0.798917 -0.0109,-0.0634 -0.01603,-0.130374 -0.01603,-0.197404 0,-0.289852 0.103336,-0.558029 0.275437,-0.766362 -0.54891,-0.452892 -1.21415,-0.791778 -1.531173,-0.891418 -0.08696,-0.02717 -0.178666,-0.04207 -0.27182,-0.04496 z m 2.732132,1.075904 c -0.346009,0 -0.626835,0.280824 -0.626835,0.626835 0,0.346012 0.280826,0.626835 0.626835,0.626835 0.346012,0 0.626838,-0.280823 0.626838,-0.626835 -3e-6,-0.346011 -0.280826,-0.626835 -0.626838,-0.626835 z m -0.960146,1.356506 c -0.717386,0.302532 -1.51986,0.973231 -1.809711,1.355473 -0.197455,0.260868 -0.244893,0.653482 -0.116271,0.956014 0.07427,0.175724 0.237403,0.393445 0.590661,0.435115 0.09782,0.01268 0.183391,0.07246 0.226862,0.161231 0.150357,0.306161 0.405358,0.393234 0.593762,0.411344 0.353256,0.03442 0.746387,-0.138046 0.95653,-0.417028 0.123184,-0.164854 0.273671,-0.439797 0.404108,-0.744141 -0.219196,-0.567023 -0.380425,-1.22645 -0.329694,-1.7663 -0.206521,-0.08152 -0.383998,-0.217797 -0.516247,-0.391708 z m 1.090371,0.474907 c -0.05797,0.775354 0.456809,1.992463 0.786517,2.427242 0.211952,0.278982 0.605086,0.451438 0.956529,0.417028 0.188405,-0.01812 0.443918,-0.103376 0.594281,-0.411344 0.04348,-0.08877 0.128521,-0.15037 0.226343,-0.161231 0.353256,-0.04167 0.51639,-0.259391 0.590661,-0.435115 0.128622,-0.302532 0.08119,-0.695146 -0.116274,-0.956014 v -5.29e-4 c -0.108693,-0.143114 -0.295235,-0.331199 -0.516247,-0.521416 -0.224634,0.0217 -0.46007,0.03411 -0.688329,0.03411 -0.03804,0 -0.07617,-0.0016 -0.114205,-0.0016 -0.525357,-0.0091 -1.237395,-0.08685 -1.719276,-0.39119 z"
         sodipodi:nodetypes="sscccscscccsssccsccccscsssscccccsccssscsscccccccccccccccccccsccccc" />
      <path
         style="fill:#f8767d;fill-opacity:1;stroke:none;stroke-width:3.14344;stroke-linecap:round;stroke-linejoin:round;stroke-miterlimit:4;stroke-dasharray:none;stroke-opacity:1;paint-order:fill markers stroke"
         d="m 57.545464,12.669869 c -0.346008,0 -0.626834,0.280824 -0.626834,0.626835 0,0.346012 0.280826,0.626836 0.626834,0.626836 0.346012,0 0.626838,-0.280824 0.626838,-0.626836 -3e-6,-0.346011 -0.280826,-0.626835 -0.626838,-0.626835 z"
         id="path5923" />
      <path
         d="m 61.852727,12.439923 c 0.0308,-0.387678 -0.114124,-0.744558 -0.416663,-1.016294 -0.416662,-0.374997 -1.061582,-0.514489 -1.601433,-0.346012 -0.108695,0.03441 -0.230069,0.08151 -0.362315,0.143115 0.105068,-0.407604 0.157607,-0.778978 0.157607,-1.021729 0,-0.5307915 -0.304345,-1.0561493 -0.775354,-1.3387546 -0.373185,-0.2228238 -0.800716,-0.2572439 -1.192017,-0.099637 -0.398547,-0.1630417 -0.82789,-0.130433 -1.199263,0.09239 -0.467387,0.2807953 -0.768108,0.8097741 -0.768108,1.3460006 0,0.333331 0.08333,0.762673 0.193839,1.152162 -0.237317,-0.124995 -0.456518,-0.219201 -0.630429,-0.273548 -0.541661,-0.168477 -1.184771,-0.0308 -1.601433,0.346012 -0.302533,0.273547 -0.447459,0.628616 -0.416662,1.016294 -0.27536,0.306155 -0.376808,0.688399 -0.289852,1.09057 0.115938,0.53079 0.557965,0.999987 1.097815,1.168464 0.124994,0.03804 0.280793,0.07427 0.454706,0.103254 -0.07427,0.07971 -0.139493,0.153984 -0.190216,0.222824 -0.32065,0.425721 -0.394924,1.041656 -0.186592,1.534404 0.166664,0.393111 0.492748,0.663037 0.903975,0.757239 0.217389,0.34782 0.561589,0.559777 0.983687,0.599631 0.0471,0.0054 0.09601,0.0073 0.144925,0.0073 0.507241,0 1.027163,-0.249997 1.329697,-0.650355 0.08152,-0.108696 0.168477,-0.248186 0.255432,-0.407605 0.08877,0.164853 0.175723,0.304345 0.255432,0.407605 0.302534,0.400358 0.822455,0.650355 1.329696,0.650355 0.04891,0 0.09601,-0.0017 0.144927,-0.0073 0.422097,-0.04167 0.766297,-0.251809 0.983686,-0.599631 0.411227,-0.0942 0.737311,-0.364128 0.903976,-0.757239 0.210142,-0.492748 0.135868,-1.108683 -0.186592,-1.534404 -0.06703,-0.08877 -0.153984,-0.186592 -0.255432,-0.289852 0.04347,-0.01086 0.08333,-0.02174 0.12138,-0.03441 0.541662,-0.168476 0.981875,-0.639486 1.097814,-1.168464 0.09238,-0.403983 -0.01086,-0.784414 -0.286227,-1.092382 z m -5.235454,-0.728255 c -0.224635,-0.576081 -0.342388,-1.195639 -0.342388,-1.510854 0,-0.3278945 0.201085,-0.6775294 0.487314,-0.8496292 0.168476,-0.1014524 0.438402,-0.186592 0.764485,-0.012711 0.08514,0.045284 0.186592,0.045284 0.271737,0 0.315214,-0.1684771 0.586949,-0.079711 0.757237,0.021742 0.291665,0.1739111 0.494561,0.5199217 0.494561,0.8405722 0,0.44927 -0.242751,1.532593 -0.690211,2.199253 -0.215576,-0.197462 -0.499994,-0.317027 -0.813396,-0.317027 -0.159419,0 -0.30978,0.0308 -0.449271,0.08695 -0.134057,-0.117752 -0.278983,-0.23007 -0.429345,-0.336954 z m 0.929339,0.951078 c 0.346011,0 0.626804,0.280794 0.626804,0.626805 0,0.346012 -0.280793,0.626806 -0.626804,0.626806 -0.346011,0 -0.626805,-0.280794 -0.626805,-0.626806 0,-0.346011 0.280794,-0.626805 0.626805,-0.626805 z m -4.028945,0.744558 c -0.05434,-0.248186 0.02174,-0.465575 0.222823,-0.648543 0.07608,-0.06884 0.11051,-0.172101 0.09058,-0.271739 -0.0616,-0.307967 0.08152,-0.512675 0.213766,-0.632238 0.266303,-0.239129 0.693835,-0.331519 1.041657,-0.222825 0.317025,0.09964 0.981874,0.438403 1.530782,0.891295 -0.172101,0.208332 -0.275361,0.476445 -0.275361,0.766297 0,0.06703 0.0054,0.134057 0.0163,0.197461 -0.452894,0.190217 -0.911223,0.492749 -1.291654,0.798906 0,0 -0.0017,0 -0.0017,0 -0.331519,-0.02717 -0.646732,-0.07971 -0.842383,-0.139491 -0.344198,-0.106881 -0.634051,-0.411228 -0.704702,-0.739123 z m 3.510834,3.514456 c -0.210143,0.278982 -0.603254,0.451082 -0.956512,0.416662 -0.188403,-0.01811 -0.443837,-0.105067 -0.594197,-0.411228 -0.04347,-0.08877 -0.128623,-0.148549 -0.226446,-0.16123 -0.353258,-0.04167 -0.516301,-0.259055 -0.590575,-0.434779 -0.128623,-0.302531 -0.08152,-0.695643 0.115938,-0.956511 0.289851,-0.382242 1.092379,-1.052525 1.809764,-1.355057 0.132251,0.173911 0.309778,0.309778 0.516298,0.3913 -0.05073,0.53985 0.110509,1.199263 0.329707,1.766285 -0.130437,0.304344 -0.280795,0.579705 -0.403981,0.744558 z m 3.686556,-1.547086 c 0.197462,0.260868 0.244563,0.65398 0.115939,0.956511 -0.07427,0.175724 -0.237317,0.393113 -0.590574,0.434779 -0.09782,0.01086 -0.182969,0.07246 -0.226447,0.16123 -0.150361,0.307968 -0.405793,0.393112 -0.594198,0.411228 -0.351445,0.03441 -0.744556,-0.13768 -0.95651,-0.416662 -0.329707,-0.434778 -0.844195,-1.652157 -0.786225,-2.427511 0.481879,0.304344 1.193829,0.382242 1.719185,0.391301 0.03804,0 0.07608,0.0017 0.114124,0.0017 0.228259,0 0.463764,-0.01271 0.688399,-0.03441 0.221012,0.190216 0.407604,0.378619 0.516299,0.521733 z m 0.860498,-1.96737 c -0.07246,0.327895 -0.362315,0.63224 -0.704703,0.739123 -0.539849,0.168476 -1.742735,0.244562 -2.499974,0.02174 0.235505,-0.221012 0.382242,-0.532603 0.382242,-0.878616 0,-0.128622 -0.01993,-0.253619 -0.05797,-0.369561 0.204708,-0.253619 0.376808,-0.572457 0.514488,-0.907598 0.295287,-0.173911 0.594197,-0.318838 0.797093,-0.382242 0.346011,-0.108696 0.775354,-0.0163 1.041657,0.222823 0.132238,0.117752 0.275358,0.324272 0.213765,0.63224 -0.01993,0.09964 0.01449,0.204707 0.09058,0.271736 0.202895,0.18478 0.277171,0.402169 0.222823,0.650356 z"
         id="path5925"
         style="fill:#b8434a;fill-opacity:1;stroke:#b8434a;stroke-width:0.1;stroke-miterlimit:4;stroke-dasharray:none;stroke-opacity:1" />
    </g>
    <g
       id="g5935"
       transform="matrix(-0.36222908,0.36225832,-0.36225832,-0.36222908,54.234934,11.150382)">
      <path
         id="path5929"
         style="fill:#f5bdc1;fill-opacity:1;stroke:none;stroke-width:3.14344;stroke-linecap:round;stroke-linejoin:round;stroke-miterlimit:4;stroke-dasharray:none;stroke-opacity:1;paint-order:fill markers stroke"
         d="m 57.168059,9.2630005 c -0.173498,-0.00859 -0.318447,0.048213 -0.423746,0.1116211 -0.286229,0.1720998 -0.48731,0.5216665 -0.48731,0.8495604 0,0.315215 0.117981,0.934938 0.342617,1.511019 l 0.05064,0.121439 c 0.150363,0.106884 0.295376,0.219179 0.429432,0.336931 0.139491,-0.05615 0.28965,-0.08682 0.449067,-0.08682 0.313404,0 0.597813,0.119315 0.813388,0.316777 0.44746,-0.66666 0.690398,-1.750079 0.690398,-2.199349 0,-0.3206499 -0.20288,-0.6663476 -0.494543,-0.8402587 -0.170289,-0.1014532 -0.442362,-0.1901812 -0.757576,-0.021704 -0.08515,0.045284 -0.18668,0.045284 -0.27182,0 -0.12228,-0.065205 -0.236448,-0.094064 -0.340548,-0.099219 z m 3.092318,2.3461095 c -0.09307,0.0029 -0.184799,0.01727 -0.271301,0.04444 -0.202896,0.0634 -0.502079,0.208495 -0.797367,0.382406 -0.137679,0.335141 -0.309989,0.653819 -0.514697,0.907438 0.03804,0.115942 0.05839,0.241381 0.05839,0.370003 0,0.346013 -0.1469,0.657487 -0.382405,0.878499 0.757237,0.222822 1.960255,0.146772 2.500106,-0.0217 0.342387,-0.106884 0.631888,-0.411595 0.70435,-0.73949 0.05435,-0.248187 -0.01984,-0.46531 -0.222726,-0.65009 -0.07609,-0.06703 -0.110363,-0.172178 -0.09043,-0.271818 0.0616,-0.307968 -0.0817,-0.51425 -0.21394,-0.632002 -0.199728,-0.179343 -0.49077,-0.276345 -0.769979,-0.267685 z m -5.463749,0.0016 c -0.279464,-0.0087 -0.569736,0.08834 -0.769462,0.267684 -0.132246,0.119563 -0.275539,0.324553 -0.213939,0.63252 0.01992,0.09964 -0.01434,0.202461 -0.09043,0.271301 -0.43512,0.529435 -0.14134,1.179927 0.481637,1.388029 0.195652,0.05978 0.510808,0.112357 0.842328,0.139526 h 0.0021 c 0.380431,-0.306156 0.838498,-0.6087 1.291394,-0.798917 -0.0109,-0.0634 -0.01603,-0.130374 -0.01603,-0.197404 0,-0.289852 0.103336,-0.558029 0.275437,-0.766362 -0.54891,-0.452892 -1.21415,-0.791778 -1.531173,-0.891418 -0.08696,-0.02717 -0.178666,-0.04207 -0.27182,-0.04496 z m 2.732132,1.075904 c -0.346009,0 -0.626835,0.280824 -0.626835,0.626835 0,0.346012 0.280826,0.626835 0.626835,0.626835 0.346012,0 0.626838,-0.280823 0.626838,-0.626835 -3e-6,-0.346011 -0.280826,-0.626835 -0.626838,-0.626835 z m -0.960146,1.356506 c -0.717386,0.302532 -1.51986,0.973231 -1.809711,1.355473 -0.197455,0.260868 -0.244893,0.653482 -0.116271,0.956014 0.07427,0.175724 0.237403,0.393445 0.590661,0.435115 0.09782,0.01268 0.183391,0.07246 0.226862,0.161231 0.150357,0.306161 0.405358,0.393234 0.593762,0.411344 0.353256,0.03442 0.746387,-0.138046 0.95653,-0.417028 0.123184,-0.164854 0.273671,-0.439797 0.404108,-0.744141 -0.219196,-0.567023 -0.380425,-1.22645 -0.329694,-1.7663 -0.206521,-0.08152 -0.383998,-0.217797 -0.516247,-0.391708 z m 1.090371,0.474907 c -0.05797,0.775354 0.456809,1.992463 0.786517,2.427242 0.211952,0.278982 0.605086,0.451438 0.956529,0.417028 0.188405,-0.01812 0.443918,-0.103376 0.594281,-0.411344 0.04348,-0.08877 0.128521,-0.15037 0.226343,-0.161231 0.353256,-0.04167 0.51639,-0.259391 0.590661,-0.435115 0.128622,-0.302532 0.08119,-0.695146 -0.116274,-0.956014 v -5.29e-4 c -0.108693,-0.143114 -0.295235,-0.331199 -0.516247,-0.521416 -0.224634,0.0217 -0.46007,0.03411 -0.688329,0.03411 -0.03804,0 -0.07617,-0.0016 -0.114205,-0.0016 -0.525357,-0.0091 -1.237395,-0.08685 -1.719276,-0.39119 z"
         sodipodi:nodetypes="sscccscscccsssccsccccscsssscccccsccssscsscccccccccccccccccccsccccc" />
      <path
         style="fill:#f8767d;fill-opacity:1;stroke:none;stroke-width:3.14344;stroke-linecap:round;stroke-linejoin:round;stroke-miterlimit:4;stroke-dasharray:none;stroke-opacity:1;paint-order:fill markers stroke"
         d="m 57.545464,12.669869 c -0.346008,0 -0.626834,0.280824 -0.626834,0.626835 0,0.346012 0.280826,0.626836 0.626834,0.626836 0.346012,0 0.626838,-0.280824 0.626838,-0.626836 -3e-6,-0.346011 -0.280826,-0.626835 -0.626838,-0.626835 z"
         id="path5931" />
      <path
         d="m 61.852727,12.439923 c 0.0308,-0.387678 -0.114124,-0.744558 -0.416663,-1.016294 -0.416662,-0.374997 -1.061582,-0.514489 -1.601433,-0.346012 -0.108695,0.03441 -0.230069,0.08151 -0.362315,0.143115 0.105068,-0.407604 0.157607,-0.778978 0.157607,-1.021729 0,-0.5307915 -0.304345,-1.0561493 -0.775354,-1.3387546 -0.373185,-0.2228238 -0.800716,-0.2572439 -1.192017,-0.099637 -0.398547,-0.1630417 -0.82789,-0.130433 -1.199263,0.09239 -0.467387,0.2807953 -0.768108,0.8097741 -0.768108,1.3460006 0,0.333331 0.08333,0.762673 0.193839,1.152162 -0.237317,-0.124995 -0.456518,-0.219201 -0.630429,-0.273548 -0.541661,-0.168477 -1.184771,-0.0308 -1.601433,0.346012 -0.302533,0.273547 -0.447459,0.628616 -0.416662,1.016294 -0.27536,0.306155 -0.376808,0.688399 -0.289852,1.09057 0.115938,0.53079 0.557965,0.999987 1.097815,1.168464 0.124994,0.03804 0.280793,0.07427 0.454706,0.103254 -0.07427,0.07971 -0.139493,0.153984 -0.190216,0.222824 -0.32065,0.425721 -0.394924,1.041656 -0.186592,1.534404 0.166664,0.393111 0.492748,0.663037 0.903975,0.757239 0.217389,0.34782 0.561589,0.559777 0.983687,0.599631 0.0471,0.0054 0.09601,0.0073 0.144925,0.0073 0.507241,0 1.027163,-0.249997 1.329697,-0.650355 0.08152,-0.108696 0.168477,-0.248186 0.255432,-0.407605 0.08877,0.164853 0.175723,0.304345 0.255432,0.407605 0.302534,0.400358 0.822455,0.650355 1.329696,0.650355 0.04891,0 0.09601,-0.0017 0.144927,-0.0073 0.422097,-0.04167 0.766297,-0.251809 0.983686,-0.599631 0.411227,-0.0942 0.737311,-0.364128 0.903976,-0.757239 0.210142,-0.492748 0.135868,-1.108683 -0.186592,-1.534404 -0.06703,-0.08877 -0.153984,-0.186592 -0.255432,-0.289852 0.04347,-0.01086 0.08333,-0.02174 0.12138,-0.03441 0.541662,-0.168476 0.981875,-0.639486 1.097814,-1.168464 0.09238,-0.403983 -0.01086,-0.784414 -0.286227,-1.092382 z m -5.235454,-0.728255 c -0.224635,-0.576081 -0.342388,-1.195639 -0.342388,-1.510854 0,-0.3278945 0.201085,-0.6775294 0.487314,-0.8496292 0.168476,-0.1014524 0.438402,-0.186592 0.764485,-0.012711 0.08514,0.045284 0.186592,0.045284 0.271737,0 0.315214,-0.1684771 0.586949,-0.079711 0.757237,0.021742 0.291665,0.1739111 0.494561,0.5199217 0.494561,0.8405722 0,0.44927 -0.242751,1.532593 -0.690211,2.199253 -0.215576,-0.197462 -0.499994,-0.317027 -0.813396,-0.317027 -0.159419,0 -0.30978,0.0308 -0.449271,0.08695 -0.134057,-0.117752 -0.278983,-0.23007 -0.429345,-0.336954 z m 0.929339,0.951078 c 0.346011,0 0.626804,0.280794 0.626804,0.626805 0,0.346012 -0.280793,0.626806 -0.626804,0.626806 -0.346011,0 -0.626805,-0.280794 -0.626805,-0.626806 0,-0.346011 0.280794,-0.626805 0.626805,-0.626805 z m -4.028945,0.744558 c -0.05434,-0.248186 0.02174,-0.465575 0.222823,-0.648543 0.07608,-0.06884 0.11051,-0.172101 0.09058,-0.271739 -0.0616,-0.307967 0.08152,-0.512675 0.213766,-0.632238 0.266303,-0.239129 0.693835,-0.331519 1.041657,-0.222825 0.317025,0.09964 0.981874,0.438403 1.530782,0.891295 -0.172101,0.208332 -0.275361,0.476445 -0.275361,0.766297 0,0.06703 0.0054,0.134057 0.0163,0.197461 -0.452894,0.190217 -0.911223,0.492749 -1.291654,0.798906 0,0 -0.0017,0 -0.0017,0 -0.331519,-0.02717 -0.646732,-0.07971 -0.842383,-0.139491 -0.344198,-0.106881 -0.634051,-0.411228 -0.704702,-0.739123 z m 3.510834,3.514456 c -0.210143,0.278982 -0.603254,0.451082 -0.956512,0.416662 -0.188403,-0.01811 -0.443837,-0.105067 -0.594197,-0.411228 -0.04347,-0.08877 -0.128623,-0.148549 -0.226446,-0.16123 -0.353258,-0.04167 -0.516301,-0.259055 -0.590575,-0.434779 -0.128623,-0.302531 -0.08152,-0.695643 0.115938,-0.956511 0.289851,-0.382242 1.092379,-1.052525 1.809764,-1.355057 0.132251,0.173911 0.309778,0.309778 0.516298,0.3913 -0.05073,0.53985 0.110509,1.199263 0.329707,1.766285 -0.130437,0.304344 -0.280795,0.579705 -0.403981,0.744558 z m 3.686556,-1.547086 c 0.197462,0.260868 0.244563,0.65398 0.115939,0.956511 -0.07427,0.175724 -0.237317,0.393113 -0.590574,0.434779 -0.09782,0.01086 -0.182969,0.07246 -0.226447,0.16123 -0.150361,0.307968 -0.405793,0.393112 -0.594198,0.411228 -0.351445,0.03441 -0.744556,-0.13768 -0.95651,-0.416662 -0.329707,-0.434778 -0.844195,-1.652157 -0.786225,-2.427511 0.481879,0.304344 1.193829,0.382242 1.719185,0.391301 0.03804,0 0.07608,0.0017 0.114124,0.0017 0.228259,0 0.463764,-0.01271 0.688399,-0.03441 0.221012,0.190216 0.407604,0.378619 0.516299,0.521733 z m 0.860498,-1.96737 c -0.07246,0.327895 -0.362315,0.63224 -0.704703,0.739123 -0.539849,0.168476 -1.742735,0.244562 -2.499974,0.02174 0.235505,-0.221012 0.382242,-0.532603 0.382242,-0.878616 0,-0.128622 -0.01993,-0.253619 -0.05797,-0.369561 0.204708,-0.253619 0.376808,-0.572457 0.514488,-0.907598 0.295287,-0.173911 0.594197,-0.318838 0.797093,-0.382242 0.346011,-0.108696 0.775354,-0.0163 1.041657,0.222823 0.132238,0.117752 0.275358,0.324272 0.213765,0.63224 -0.01993,0.09964 0.01449,0.204707 0.09058,0.271736 0.202895,0.18478 0.277171,0.402169 0.222823,0.650356 z"
         id="path5933"
         style="fill:#b8434a;fill-opacity:1;stroke:#b8434a;stroke-width:0.1;stroke-miterlimit:4;stroke-dasharray:none;stroke-opacity:1" />
    </g>
    <g
       id="g5943"
       transform="matrix(0.6646785,0.66473216,0.66473216,-0.6646785,120.57206,-4.5425061)">
      <path
         id="path5937"
         style="fill:#f5bdc1;fill-opacity:1;stroke:none;stroke-width:3.14344;stroke-linecap:round;stroke-linejoin:round;stroke-miterlimit:4;stroke-dasharray:none;stroke-opacity:1;paint-order:fill markers stroke"
         d="m 57.168059,9.2630005 c -0.173498,-0.00859 -0.318447,0.048213 -0.423746,0.1116211 -0.286229,0.1720998 -0.48731,0.5216665 -0.48731,0.8495604 0,0.315215 0.117981,0.934938 0.342617,1.511019 l 0.05064,0.121439 c 0.150363,0.106884 0.295376,0.219179 0.429432,0.336931 0.139491,-0.05615 0.28965,-0.08682 0.449067,-0.08682 0.313404,0 0.597813,0.119315 0.813388,0.316777 0.44746,-0.66666 0.690398,-1.750079 0.690398,-2.199349 0,-0.3206499 -0.20288,-0.6663476 -0.494543,-0.8402587 -0.170289,-0.1014532 -0.442362,-0.1901812 -0.757576,-0.021704 -0.08515,0.045284 -0.18668,0.045284 -0.27182,0 -0.12228,-0.065205 -0.236448,-0.094064 -0.340548,-0.099219 z m 3.092318,2.3461095 c -0.09307,0.0029 -0.184799,0.01727 -0.271301,0.04444 -0.202896,0.0634 -0.502079,0.208495 -0.797367,0.382406 -0.137679,0.335141 -0.309989,0.653819 -0.514697,0.907438 0.03804,0.115942 0.05839,0.241381 0.05839,0.370003 0,0.346013 -0.1469,0.657487 -0.382405,0.878499 0.757237,0.222822 1.960255,0.146772 2.500106,-0.0217 0.342387,-0.106884 0.631888,-0.411595 0.70435,-0.73949 0.05435,-0.248187 -0.01984,-0.46531 -0.222726,-0.65009 -0.07609,-0.06703 -0.110363,-0.172178 -0.09043,-0.271818 0.0616,-0.307968 -0.0817,-0.51425 -0.21394,-0.632002 -0.199728,-0.179343 -0.49077,-0.276345 -0.769979,-0.267685 z m -5.463749,0.0016 c -0.279464,-0.0087 -0.569736,0.08834 -0.769462,0.267684 -0.132246,0.119563 -0.275539,0.324553 -0.213939,0.63252 0.01992,0.09964 -0.01434,0.202461 -0.09043,0.271301 -0.43512,0.529435 -0.14134,1.179927 0.481637,1.388029 0.195652,0.05978 0.510808,0.112357 0.842328,0.139526 h 0.0021 c 0.380431,-0.306156 0.838498,-0.6087 1.291394,-0.798917 -0.0109,-0.0634 -0.01603,-0.130374 -0.01603,-0.197404 0,-0.289852 0.103336,-0.558029 0.275437,-0.766362 -0.54891,-0.452892 -1.21415,-0.791778 -1.531173,-0.891418 -0.08696,-0.02717 -0.178666,-0.04207 -0.27182,-0.04496 z m 2.732132,1.075904 c -0.346009,0 -0.626835,0.280824 -0.626835,0.626835 0,0.346012 0.280826,0.626835 0.626835,0.626835 0.346012,0 0.626838,-0.280823 0.626838,-0.626835 -3e-6,-0.346011 -0.280826,-0.626835 -0.626838,-0.626835 z m -0.960146,1.356506 c -0.717386,0.302532 -1.51986,0.973231 -1.809711,1.355473 -0.197455,0.260868 -0.244893,0.653482 -0.116271,0.956014 0.07427,0.175724 0.237403,0.393445 0.590661,0.435115 0.09782,0.01268 0.183391,0.07246 0.226862,0.161231 0.150357,0.306161 0.405358,0.393234 0.593762,0.411344 0.353256,0.03442 0.746387,-0.138046 0.95653,-0.417028 0.123184,-0.164854 0.273671,-0.439797 0.404108,-0.744141 -0.219196,-0.567023 -0.380425,-1.22645 -0.329694,-1.7663 -0.206521,-0.08152 -0.383998,-0.217797 -0.516247,-0.391708 z m 1.090371,0.474907 c -0.05797,0.775354 0.456809,1.992463 0.786517,2.427242 0.211952,0.278982 0.605086,0.451438 0.956529,0.417028 0.188405,-0.01812 0.443918,-0.103376 0.594281,-0.411344 0.04348,-0.08877 0.128521,-0.15037 0.226343,-0.161231 0.353256,-0.04167 0.51639,-0.259391 0.590661,-0.435115 0.128622,-0.302532 0.08119,-0.695146 -0.116274,-0.956014 v -5.29e-4 c -0.108693,-0.143114 -0.295235,-0.331199 -0.516247,-0.521416 -0.224634,0.0217 -0.46007,0.03411 -0.688329,0.03411 -0.03804,0 -0.07617,-0.0016 -0.114205,-0.0016 -0.525357,-0.0091 -1.237395,-0.08685 -1.719276,-0.39119 z"
         sodipodi:nodetypes="sscccscscccsssccsccccscsssscccccsccssscsscccccccccccccccccccsccccc" />
      <path
         style="fill:#f8767d;fill-opacity:1;stroke:none;stroke-width:3.14344;stroke-linecap:round;stroke-linejoin:round;stroke-miterlimit:4;stroke-dasharray:none;stroke-opacity:1;paint-order:fill markers stroke"
         d="m 57.545464,12.669869 c -0.346008,0 -0.626834,0.280824 -0.626834,0.626835 0,0.346012 0.280826,0.626836 0.626834,0.626836 0.346012,0 0.626838,-0.280824 0.626838,-0.626836 -3e-6,-0.346011 -0.280826,-0.626835 -0.626838,-0.626835 z"
         id="path5939" />
      <path
         d="m 61.852727,12.439923 c 0.0308,-0.387678 -0.114124,-0.744558 -0.416663,-1.016294 -0.416662,-0.374997 -1.061582,-0.514489 -1.601433,-0.346012 -0.108695,0.03441 -0.230069,0.08151 -0.362315,0.143115 0.105068,-0.407604 0.157607,-0.778978 0.157607,-1.021729 0,-0.5307915 -0.304345,-1.0561493 -0.775354,-1.3387546 -0.373185,-0.2228238 -0.800716,-0.2572439 -1.192017,-0.099637 -0.398547,-0.1630417 -0.82789,-0.130433 -1.199263,0.09239 -0.467387,0.2807953 -0.768108,0.8097741 -0.768108,1.3460006 0,0.333331 0.08333,0.762673 0.193839,1.152162 -0.237317,-0.124995 -0.456518,-0.219201 -0.630429,-0.273548 -0.541661,-0.168477 -1.184771,-0.0308 -1.601433,0.346012 -0.302533,0.273547 -0.447459,0.628616 -0.416662,1.016294 -0.27536,0.306155 -0.376808,0.688399 -0.289852,1.09057 0.115938,0.53079 0.557965,0.999987 1.097815,1.168464 0.124994,0.03804 0.280793,0.07427 0.454706,0.103254 -0.07427,0.07971 -0.139493,0.153984 -0.190216,0.222824 -0.32065,0.425721 -0.394924,1.041656 -0.186592,1.534404 0.166664,0.393111 0.492748,0.663037 0.903975,0.757239 0.217389,0.34782 0.561589,0.559777 0.983687,0.599631 0.0471,0.0054 0.09601,0.0073 0.144925,0.0073 0.507241,0 1.027163,-0.249997 1.329697,-0.650355 0.08152,-0.108696 0.168477,-0.248186 0.255432,-0.407605 0.08877,0.164853 0.175723,0.304345 0.255432,0.407605 0.302534,0.400358 0.822455,0.650355 1.329696,0.650355 0.04891,0 0.09601,-0.0017 0.144927,-0.0073 0.422097,-0.04167 0.766297,-0.251809 0.983686,-0.599631 0.411227,-0.0942 0.737311,-0.364128 0.903976,-0.757239 0.210142,-0.492748 0.135868,-1.108683 -0.186592,-1.534404 -0.06703,-0.08877 -0.153984,-0.186592 -0.255432,-0.289852 0.04347,-0.01086 0.08333,-0.02174 0.12138,-0.03441 0.541662,-0.168476 0.981875,-0.639486 1.097814,-1.168464 0.09238,-0.403983 -0.01086,-0.784414 -0.286227,-1.092382 z m -5.235454,-0.728255 c -0.224635,-0.576081 -0.342388,-1.195639 -0.342388,-1.510854 0,-0.3278945 0.201085,-0.6775294 0.487314,-0.8496292 0.168476,-0.1014524 0.438402,-0.186592 0.764485,-0.012711 0.08514,0.045284 0.186592,0.045284 0.271737,0 0.315214,-0.1684771 0.586949,-0.079711 0.757237,0.021742 0.291665,0.1739111 0.494561,0.5199217 0.494561,0.8405722 0,0.44927 -0.242751,1.532593 -0.690211,2.199253 -0.215576,-0.197462 -0.499994,-0.317027 -0.813396,-0.317027 -0.159419,0 -0.30978,0.0308 -0.449271,0.08695 -0.134057,-0.117752 -0.278983,-0.23007 -0.429345,-0.336954 z m 0.929339,0.951078 c 0.346011,0 0.626804,0.280794 0.626804,0.626805 0,0.346012 -0.280793,0.626806 -0.626804,0.626806 -0.346011,0 -0.626805,-0.280794 -0.626805,-0.626806 0,-0.346011 0.280794,-0.626805 0.626805,-0.626805 z m -4.028945,0.744558 c -0.05434,-0.248186 0.02174,-0.465575 0.222823,-0.648543 0.07608,-0.06884 0.11051,-0.172101 0.09058,-0.271739 -0.0616,-0.307967 0.08152,-0.512675 0.213766,-0.632238 0.266303,-0.239129 0.693835,-0.331519 1.041657,-0.222825 0.317025,0.09964 0.981874,0.438403 1.530782,0.891295 -0.172101,0.208332 -0.275361,0.476445 -0.275361,0.766297 0,0.06703 0.0054,0.134057 0.0163,0.197461 -0.452894,0.190217 -0.911223,0.492749 -1.291654,0.798906 0,0 -0.0017,0 -0.0017,0 -0.331519,-0.02717 -0.646732,-0.07971 -0.842383,-0.139491 -0.344198,-0.106881 -0.634051,-0.411228 -0.704702,-0.739123 z m 3.510834,3.514456 c -0.210143,0.278982 -0.603254,0.451082 -0.956512,0.416662 -0.188403,-0.01811 -0.443837,-0.105067 -0.594197,-0.411228 -0.04347,-0.08877 -0.128623,-0.148549 -0.226446,-0.16123 -0.353258,-0.04167 -0.516301,-0.259055 -0.590575,-0.434779 -0.128623,-0.302531 -0.08152,-0.695643 0.115938,-0.956511 0.289851,-0.382242 1.092379,-1.052525 1.809764,-1.355057 0.132251,0.173911 0.309778,0.309778 0.516298,0.3913 -0.05073,0.53985 0.110509,1.199263 0.329707,1.766285 -0.130437,0.304344 -0.280795,0.579705 -0.403981,0.744558 z m 3.686556,-1.547086 c 0.197462,0.260868 0.244563,0.65398 0.115939,0.956511 -0.07427,0.175724 -0.237317,0.393113 -0.590574,0.434779 -0.09782,0.01086 -0.182969,0.07246 -0.226447,0.16123 -0.150361,0.307968 -0.405793,0.393112 -0.594198,0.411228 -0.351445,0.03441 -0.744556,-0.13768 -0.95651,-0.416662 -0.329707,-0.434778 -0.844195,-1.652157 -0.786225,-2.427511 0.481879,0.304344 1.193829,0.382242 1.719185,0.391301 0.03804,0 0.07608,0.0017 0.114124,0.0017 0.228259,0 0.463764,-0.01271 0.688399,-0.03441 0.221012,0.190216 0.407604,0.378619 0.516299,0.521733 z m 0.860498,-1.96737 c -0.07246,0.327895 -0.362315,0.63224 -0.704703,0.739123 -0.539849,0.168476 -1.742735,0.244562 -2.499974,0.02174 0.235505,-0.221012 0.382242,-0.532603 0.382242,-0.878616 0,-0.128622 -0.01993,-0.253619 -0.05797,-0.369561 0.204708,-0.253619 0.376808,-0.572457 0.514488,-0.907598 0.295287,-0.173911 0.594197,-0.318838 0.797093,-0.382242 0.346011,-0.108696 0.775354,-0.0163 1.041657,0.222823 0.132238,0.117752 0.275358,0.324272 0.213765,0.63224 -0.01993,0.09964 0.01449,0.204707 0.09058,0.271736 0.202895,0.18478 0.277171,0.402169 0.222823,0.650356 z"
         id="path5941"
         style="fill:#b8434a;fill-opacity:1;stroke:#b8434a;stroke-width:0.1;stroke-miterlimit:4;stroke-dasharray:none;stroke-opacity:1" />
    </g>
    <g
       id="g5951"
       transform="matrix(0.53361709,0.53366016,0.53366016,-0.53361709,139.80777,-0.88196814)">
      <path
         id="path5945"
         style="fill:#f5bdc1;fill-opacity:1;stroke:none;stroke-width:3.14344;stroke-linecap:round;stroke-linejoin:round;stroke-miterlimit:4;stroke-dasharray:none;stroke-opacity:1;paint-order:fill markers stroke"
         d="m 57.168059,9.2630005 c -0.173498,-0.00859 -0.318447,0.048213 -0.423746,0.1116211 -0.286229,0.1720998 -0.48731,0.5216665 -0.48731,0.8495604 0,0.315215 0.117981,0.934938 0.342617,1.511019 l 0.05064,0.121439 c 0.150363,0.106884 0.295376,0.219179 0.429432,0.336931 0.139491,-0.05615 0.28965,-0.08682 0.449067,-0.08682 0.313404,0 0.597813,0.119315 0.813388,0.316777 0.44746,-0.66666 0.690398,-1.750079 0.690398,-2.199349 0,-0.3206499 -0.20288,-0.6663476 -0.494543,-0.8402587 -0.170289,-0.1014532 -0.442362,-0.1901812 -0.757576,-0.021704 -0.08515,0.045284 -0.18668,0.045284 -0.27182,0 -0.12228,-0.065205 -0.236448,-0.094064 -0.340548,-0.099219 z m 3.092318,2.3461095 c -0.09307,0.0029 -0.184799,0.01727 -0.271301,0.04444 -0.202896,0.0634 -0.502079,0.208495 -0.797367,0.382406 -0.137679,0.335141 -0.309989,0.653819 -0.514697,0.907438 0.03804,0.115942 0.05839,0.241381 0.05839,0.370003 0,0.346013 -0.1469,0.657487 -0.382405,0.878499 0.757237,0.222822 1.960255,0.146772 2.500106,-0.0217 0.342387,-0.106884 0.631888,-0.411595 0.70435,-0.73949 0.05435,-0.248187 -0.01984,-0.46531 -0.222726,-0.65009 -0.07609,-0.06703 -0.110363,-0.172178 -0.09043,-0.271818 0.0616,-0.307968 -0.0817,-0.51425 -0.21394,-0.632002 -0.199728,-0.179343 -0.49077,-0.276345 -0.769979,-0.267685 z m -5.463749,0.0016 c -0.279464,-0.0087 -0.569736,0.08834 -0.769462,0.267684 -0.132246,0.119563 -0.275539,0.324553 -0.213939,0.63252 0.01992,0.09964 -0.01434,0.202461 -0.09043,0.271301 -0.43512,0.529435 -0.14134,1.179927 0.481637,1.388029 0.195652,0.05978 0.510808,0.112357 0.842328,0.139526 h 0.0021 c 0.380431,-0.306156 0.838498,-0.6087 1.291394,-0.798917 -0.0109,-0.0634 -0.01603,-0.130374 -0.01603,-0.197404 0,-0.289852 0.103336,-0.558029 0.275437,-0.766362 -0.54891,-0.452892 -1.21415,-0.791778 -1.531173,-0.891418 -0.08696,-0.02717 -0.178666,-0.04207 -0.27182,-0.04496 z m 2.732132,1.075904 c -0.346009,0 -0.626835,0.280824 -0.626835,0.626835 0,0.346012 0.280826,0.626835 0.626835,0.626835 0.346012,0 0.626838,-0.280823 0.626838,-0.626835 -3e-6,-0.346011 -0.280826,-0.626835 -0.626838,-0.626835 z m -0.960146,1.356506 c -0.717386,0.302532 -1.51986,0.973231 -1.809711,1.355473 -0.197455,0.260868 -0.244893,0.653482 -0.116271,0.956014 0.07427,0.175724 0.237403,0.393445 0.590661,0.435115 0.09782,0.01268 0.183391,0.07246 0.226862,0.161231 0.150357,0.306161 0.405358,0.393234 0.593762,0.411344 0.353256,0.03442 0.746387,-0.138046 0.95653,-0.417028 0.123184,-0.164854 0.273671,-0.439797 0.404108,-0.744141 -0.219196,-0.567023 -0.380425,-1.22645 -0.329694,-1.7663 -0.206521,-0.08152 -0.383998,-0.217797 -0.516247,-0.391708 z m 1.090371,0.474907 c -0.05797,0.775354 0.456809,1.992463 0.786517,2.427242 0.211952,0.278982 0.605086,0.451438 0.956529,0.417028 0.188405,-0.01812 0.443918,-0.103376 0.594281,-0.411344 0.04348,-0.08877 0.128521,-0.15037 0.226343,-0.161231 0.353256,-0.04167 0.51639,-0.259391 0.590661,-0.435115 0.128622,-0.302532 0.08119,-0.695146 -0.116274,-0.956014 v -5.29e-4 c -0.108693,-0.143114 -0.295235,-0.331199 -0.516247,-0.521416 -0.224634,0.0217 -0.46007,0.03411 -0.688329,0.03411 -0.03804,0 -0.07617,-0.0016 -0.114205,-0.0016 -0.525357,-0.0091 -1.237395,-0.08685 -1.719276,-0.39119 z"
         sodipodi:nodetypes="sscccscscccsssccsccccscsssscccccsccssscsscccccccccccccccccccsccccc" />
      <path
         style="fill:#f8767d;fill-opacity:1;stroke:none;stroke-width:3.14344;stroke-linecap:round;stroke-linejoin:round;stroke-miterlimit:4;stroke-dasharray:none;stroke-opacity:1;paint-order:fill markers stroke"
         d="m 57.545464,12.669869 c -0.346008,0 -0.626834,0.280824 -0.626834,0.626835 0,0.346012 0.280826,0.626836 0.626834,0.626836 0.346012,0 0.626838,-0.280824 0.626838,-0.626836 -3e-6,-0.346011 -0.280826,-0.626835 -0.626838,-0.626835 z"
         id="path5947" />
      <path
         d="m 61.852727,12.439923 c 0.0308,-0.387678 -0.114124,-0.744558 -0.416663,-1.016294 -0.416662,-0.374997 -1.061582,-0.514489 -1.601433,-0.346012 -0.108695,0.03441 -0.230069,0.08151 -0.362315,0.143115 0.105068,-0.407604 0.157607,-0.778978 0.157607,-1.021729 0,-0.5307915 -0.304345,-1.0561493 -0.775354,-1.3387546 -0.373185,-0.2228238 -0.800716,-0.2572439 -1.192017,-0.099637 -0.398547,-0.1630417 -0.82789,-0.130433 -1.199263,0.09239 -0.467387,0.2807953 -0.768108,0.8097741 -0.768108,1.3460006 0,0.333331 0.08333,0.762673 0.193839,1.152162 -0.237317,-0.124995 -0.456518,-0.219201 -0.630429,-0.273548 -0.541661,-0.168477 -1.184771,-0.0308 -1.601433,0.346012 -0.302533,0.273547 -0.447459,0.628616 -0.416662,1.016294 -0.27536,0.306155 -0.376808,0.688399 -0.289852,1.09057 0.115938,0.53079 0.557965,0.999987 1.097815,1.168464 0.124994,0.03804 0.280793,0.07427 0.454706,0.103254 -0.07427,0.07971 -0.139493,0.153984 -0.190216,0.222824 -0.32065,0.425721 -0.394924,1.041656 -0.186592,1.534404 0.166664,0.393111 0.492748,0.663037 0.903975,0.757239 0.217389,0.34782 0.561589,0.559777 0.983687,0.599631 0.0471,0.0054 0.09601,0.0073 0.144925,0.0073 0.507241,0 1.027163,-0.249997 1.329697,-0.650355 0.08152,-0.108696 0.168477,-0.248186 0.255432,-0.407605 0.08877,0.164853 0.175723,0.304345 0.255432,0.407605 0.302534,0.400358 0.822455,0.650355 1.329696,0.650355 0.04891,0 0.09601,-0.0017 0.144927,-0.0073 0.422097,-0.04167 0.766297,-0.251809 0.983686,-0.599631 0.411227,-0.0942 0.737311,-0.364128 0.903976,-0.757239 0.210142,-0.492748 0.135868,-1.108683 -0.186592,-1.534404 -0.06703,-0.08877 -0.153984,-0.186592 -0.255432,-0.289852 0.04347,-0.01086 0.08333,-0.02174 0.12138,-0.03441 0.541662,-0.168476 0.981875,-0.639486 1.097814,-1.168464 0.09238,-0.403983 -0.01086,-0.784414 -0.286227,-1.092382 z m -5.235454,-0.728255 c -0.224635,-0.576081 -0.342388,-1.195639 -0.342388,-1.510854 0,-0.3278945 0.201085,-0.6775294 0.487314,-0.8496292 0.168476,-0.1014524 0.438402,-0.186592 0.764485,-0.012711 0.08514,0.045284 0.186592,0.045284 0.271737,0 0.315214,-0.1684771 0.586949,-0.079711 0.757237,0.021742 0.291665,0.1739111 0.494561,0.5199217 0.494561,0.8405722 0,0.44927 -0.242751,1.532593 -0.690211,2.199253 -0.215576,-0.197462 -0.499994,-0.317027 -0.813396,-0.317027 -0.159419,0 -0.30978,0.0308 -0.449271,0.08695 -0.134057,-0.117752 -0.278983,-0.23007 -0.429345,-0.336954 z m 0.929339,0.951078 c 0.346011,0 0.626804,0.280794 0.626804,0.626805 0,0.346012 -0.280793,0.626806 -0.626804,0.626806 -0.346011,0 -0.626805,-0.280794 -0.626805,-0.626806 0,-0.346011 0.280794,-0.626805 0.626805,-0.626805 z m -4.028945,0.744558 c -0.05434,-0.248186 0.02174,-0.465575 0.222823,-0.648543 0.07608,-0.06884 0.11051,-0.172101 0.09058,-0.271739 -0.0616,-0.307967 0.08152,-0.512675 0.213766,-0.632238 0.266303,-0.239129 0.693835,-0.331519 1.041657,-0.222825 0.317025,0.09964 0.981874,0.438403 1.530782,0.891295 -0.172101,0.208332 -0.275361,0.476445 -0.275361,0.766297 0,0.06703 0.0054,0.134057 0.0163,0.197461 -0.452894,0.190217 -0.911223,0.492749 -1.291654,0.798906 0,0 -0.0017,0 -0.0017,0 -0.331519,-0.02717 -0.646732,-0.07971 -0.842383,-0.139491 -0.344198,-0.106881 -0.634051,-0.411228 -0.704702,-0.739123 z m 3.510834,3.514456 c -0.210143,0.278982 -0.603254,0.451082 -0.956512,0.416662 -0.188403,-0.01811 -0.443837,-0.105067 -0.594197,-0.411228 -0.04347,-0.08877 -0.128623,-0.148549 -0.226446,-0.16123 -0.353258,-0.04167 -0.516301,-0.259055 -0.590575,-0.434779 -0.128623,-0.302531 -0.08152,-0.695643 0.115938,-0.956511 0.289851,-0.382242 1.092379,-1.052525 1.809764,-1.355057 0.132251,0.173911 0.309778,0.309778 0.516298,0.3913 -0.05073,0.53985 0.110509,1.199263 0.329707,1.766285 -0.130437,0.304344 -0.280795,0.579705 -0.403981,0.744558 z m 3.686556,-1.547086 c 0.197462,0.260868 0.244563,0.65398 0.115939,0.956511 -0.07427,0.175724 -0.237317,0.393113 -0.590574,0.434779 -0.09782,0.01086 -0.182969,0.07246 -0.226447,0.16123 -0.150361,0.307968 -0.405793,0.393112 -0.594198,0.411228 -0.351445,0.03441 -0.744556,-0.13768 -0.95651,-0.416662 -0.329707,-0.434778 -0.844195,-1.652157 -0.786225,-2.427511 0.481879,0.304344 1.193829,0.382242 1.719185,0.391301 0.03804,0 0.07608,0.0017 0.114124,0.0017 0.228259,0 0.463764,-0.01271 0.688399,-0.03441 0.221012,0.190216 0.407604,0.378619 0.516299,0.521733 z m 0.860498,-1.96737 c -0.07246,0.327895 -0.362315,0.63224 -0.704703,0.739123 -0.539849,0.168476 -1.742735,0.244562 -2.499974,0.02174 0.235505,-0.221012 0.382242,-0.532603 0.382242,-0.878616 0,-0.128622 -0.01993,-0.253619 -0.05797,-0.369561 0.204708,-0.253619 0.376808,-0.572457 0.514488,-0.907598 0.295287,-0.173911 0.594197,-0.318838 0.797093,-0.382242 0.346011,-0.108696 0.775354,-0.0163 1.041657,0.222823 0.132238,0.117752 0.275358,0.324272 0.213765,0.63224 -0.01993,0.09964 0.01449,0.204707 0.09058,0.271736 0.202895,0.18478 0.277171,0.402169 0.222823,0.650356 z"
         id="path5949"
         style="fill:#b8434a;fill-opacity:1;stroke:#b8434a;stroke-width:0.1;stroke-miterlimit:4;stroke-dasharray:none;stroke-opacity:1" />
    </g>
    <g
       id="g5959"
       transform="matrix(0.36222908,0.36225832,0.36225832,-0.36222908,157.43173,11.150382)">
      <path
         id="path5953"
         style="fill:#f5bdc1;fill-opacity:1;stroke:none;stroke-width:3.14344;stroke-linecap:round;stroke-linejoin:round;stroke-miterlimit:4;stroke-dasharray:none;stroke-opacity:1;paint-order:fill markers stroke"
         d="m 57.168059,9.2630005 c -0.173498,-0.00859 -0.318447,0.048213 -0.423746,0.1116211 -0.286229,0.1720998 -0.48731,0.5216665 -0.48731,0.8495604 0,0.315215 0.117981,0.934938 0.342617,1.511019 l 0.05064,0.121439 c 0.150363,0.106884 0.295376,0.219179 0.429432,0.336931 0.139491,-0.05615 0.28965,-0.08682 0.449067,-0.08682 0.313404,0 0.597813,0.119315 0.813388,0.316777 0.44746,-0.66666 0.690398,-1.750079 0.690398,-2.199349 0,-0.3206499 -0.20288,-0.6663476 -0.494543,-0.8402587 -0.170289,-0.1014532 -0.442362,-0.1901812 -0.757576,-0.021704 -0.08515,0.045284 -0.18668,0.045284 -0.27182,0 -0.12228,-0.065205 -0.236448,-0.094064 -0.340548,-0.099219 z m 3.092318,2.3461095 c -0.09307,0.0029 -0.184799,0.01727 -0.271301,0.04444 -0.202896,0.0634 -0.502079,0.208495 -0.797367,0.382406 -0.137679,0.335141 -0.309989,0.653819 -0.514697,0.907438 0.03804,0.115942 0.05839,0.241381 0.05839,0.370003 0,0.346013 -0.1469,0.657487 -0.382405,0.878499 0.757237,0.222822 1.960255,0.146772 2.500106,-0.0217 0.342387,-0.106884 0.631888,-0.411595 0.70435,-0.73949 0.05435,-0.248187 -0.01984,-0.46531 -0.222726,-0.65009 -0.07609,-0.06703 -0.110363,-0.172178 -0.09043,-0.271818 0.0616,-0.307968 -0.0817,-0.51425 -0.21394,-0.632002 -0.199728,-0.179343 -0.49077,-0.276345 -0.769979,-0.267685 z m -5.463749,0.0016 c -0.279464,-0.0087 -0.569736,0.08834 -0.769462,0.267684 -0.132246,0.119563 -0.275539,0.324553 -0.213939,0.63252 0.01992,0.09964 -0.01434,0.202461 -0.09043,0.271301 -0.43512,0.529435 -0.14134,1.179927 0.481637,1.388029 0.195652,0.05978 0.510808,0.112357 0.842328,0.139526 h 0.0021 c 0.380431,-0.306156 0.838498,-0.6087 1.291394,-0.798917 -0.0109,-0.0634 -0.01603,-0.130374 -0.01603,-0.197404 0,-0.289852 0.103336,-0.558029 0.275437,-0.766362 -0.54891,-0.452892 -1.21415,-0.791778 -1.531173,-0.891418 -0.08696,-0.02717 -0.178666,-0.04207 -0.27182,-0.04496 z m 2.732132,1.075904 c -0.346009,0 -0.626835,0.280824 -0.626835,0.626835 0,0.346012 0.280826,0.626835 0.626835,0.626835 0.346012,0 0.626838,-0.280823 0.626838,-0.626835 -3e-6,-0.346011 -0.280826,-0.626835 -0.626838,-0.626835 z m -0.960146,1.356506 c -0.717386,0.302532 -1.51986,0.973231 -1.809711,1.355473 -0.197455,0.260868 -0.244893,0.653482 -0.116271,0.956014 0.07427,0.175724 0.237403,0.393445 0.590661,0.435115 0.09782,0.01268 0.183391,0.07246 0.226862,0.161231 0.150357,0.306161 0.405358,0.393234 0.593762,0.411344 0.353256,0.03442 0.746387,-0.138046 0.95653,-0.417028 0.123184,-0.164854 0.273671,-0.439797 0.404108,-0.744141 -0.219196,-0.567023 -0.380425,-1.22645 -0.329694,-1.7663 -0.206521,-0.08152 -0.383998,-0.217797 -0.516247,-0.391708 z m 1.090371,0.474907 c -0.05797,0.775354 0.456809,1.992463 0.786517,2.427242 0.211952,0.278982 0.605086,0.451438 0.956529,0.417028 0.188405,-0.01812 0.443918,-0.103376 0.594281,-0.411344 0.04348,-0.08877 0.128521,-0.15037 0.226343,-0.161231 0.353256,-0.04167 0.51639,-0.259391 0.590661,-0.435115 0.128622,-0.302532 0.08119,-0.695146 -0.116274,-0.956014 v -5.29e-4 c -0.108693,-0.143114 -0.295235,-0.331199 -0.516247,-0.521416 -0.224634,0.0217 -0.46007,0.03411 -0.688329,0.03411 -0.03804,0 -0.07617,-0.0016 -0.114205,-0.0016 -0.525357,-0.0091 -1.237395,-0.08685 -1.719276,-0.39119 z"
         sodipodi:nodetypes="sscccscscccsssccsccccscsssscccccsccssscsscccccccccccccccccccsccccc" />
      <path
         style="fill:#f8767d;fill-opacity:1;stroke:none;stroke-width:3.14344;stroke-linecap:round;stroke-linejoin:round;stroke-miterlimit:4;stroke-dasharray:none;stroke-opacity:1;paint-order:fill markers stroke"
         d="m 57.545464,12.669869 c -0.346008,0 -0.626834,0.280824 -0.626834,0.626835 0,0.346012 0.280826,0.626836 0.626834,0.626836 0.346012,0 0.626838,-0.280824 0.626838,-0.626836 -3e-6,-0.346011 -0.280826,-0.626835 -0.626838,-0.626835 z"
         id="path5955" />
      <path
         d="m 61.852727,12.439923 c 0.0308,-0.387678 -0.114124,-0.744558 -0.416663,-1.016294 -0.416662,-0.374997 -1.061582,-0.514489 -1.601433,-0.346012 -0.108695,0.03441 -0.230069,0.08151 -0.362315,0.143115 0.105068,-0.407604 0.157607,-0.778978 0.157607,-1.021729 0,-0.5307915 -0.304345,-1.0561493 -0.775354,-1.3387546 -0.373185,-0.2228238 -0.800716,-0.2572439 -1.192017,-0.099637 -0.398547,-0.1630417 -0.82789,-0.130433 -1.199263,0.09239 -0.467387,0.2807953 -0.768108,0.8097741 -0.768108,1.3460006 0,0.333331 0.08333,0.762673 0.193839,1.152162 -0.237317,-0.124995 -0.456518,-0.219201 -0.630429,-0.273548 -0.541661,-0.168477 -1.184771,-0.0308 -1.601433,0.346012 -0.302533,0.273547 -0.447459,0.628616 -0.416662,1.016294 -0.27536,0.306155 -0.376808,0.688399 -0.289852,1.09057 0.115938,0.53079 0.557965,0.999987 1.097815,1.168464 0.124994,0.03804 0.280793,0.07427 0.454706,0.103254 -0.07427,0.07971 -0.139493,0.153984 -0.190216,0.222824 -0.32065,0.425721 -0.394924,1.041656 -0.186592,1.534404 0.166664,0.393111 0.492748,0.663037 0.903975,0.757239 0.217389,0.34782 0.561589,0.559777 0.983687,0.599631 0.0471,0.0054 0.09601,0.0073 0.144925,0.0073 0.507241,0 1.027163,-0.249997 1.329697,-0.650355 0.08152,-0.108696 0.168477,-0.248186 0.255432,-0.407605 0.08877,0.164853 0.175723,0.304345 0.255432,0.407605 0.302534,0.400358 0.822455,0.650355 1.329696,0.650355 0.04891,0 0.09601,-0.0017 0.144927,-0.0073 0.422097,-0.04167 0.766297,-0.251809 0.983686,-0.599631 0.411227,-0.0942 0.737311,-0.364128 0.903976,-0.757239 0.210142,-0.492748 0.135868,-1.108683 -0.186592,-1.534404 -0.06703,-0.08877 -0.153984,-0.186592 -0.255432,-0.289852 0.04347,-0.01086 0.08333,-0.02174 0.12138,-0.03441 0.541662,-0.168476 0.981875,-0.639486 1.097814,-1.168464 0.09238,-0.403983 -0.01086,-0.784414 -0.286227,-1.092382 z m -5.235454,-0.728255 c -0.224635,-0.576081 -0.342388,-1.195639 -0.342388,-1.510854 0,-0.3278945 0.201085,-0.6775294 0.487314,-0.8496292 0.168476,-0.1014524 0.438402,-0.186592 0.764485,-0.012711 0.08514,0.045284 0.186592,0.045284 0.271737,0 0.315214,-0.1684771 0.586949,-0.079711 0.757237,0.021742 0.291665,0.1739111 0.494561,0.5199217 0.494561,0.8405722 0,0.44927 -0.242751,1.532593 -0.690211,2.199253 -0.215576,-0.197462 -0.499994,-0.317027 -0.813396,-0.317027 -0.159419,0 -0.30978,0.0308 -0.449271,0.08695 -0.134057,-0.117752 -0.278983,-0.23007 -0.429345,-0.336954 z m 0.929339,0.951078 c 0.346011,0 0.626804,0.280794 0.626804,0.626805 0,0.346012 -0.280793,0.626806 -0.626804,0.626806 -0.346011,0 -0.626805,-0.280794 -0.626805,-0.626806 0,-0.346011 0.280794,-0.626805 0.626805,-0.626805 z m -4.028945,0.744558 c -0.05434,-0.248186 0.02174,-0.465575 0.222823,-0.648543 0.07608,-0.06884 0.11051,-0.172101 0.09058,-0.271739 -0.0616,-0.307967 0.08152,-0.512675 0.213766,-0.632238 0.266303,-0.239129 0.693835,-0.331519 1.041657,-0.222825 0.317025,0.09964 0.981874,0.438403 1.530782,0.891295 -0.172101,0.208332 -0.275361,0.476445 -0.275361,0.766297 0,0.06703 0.0054,0.134057 0.0163,0.197461 -0.452894,0.190217 -0.911223,0.492749 -1.291654,0.798906 0,0 -0.0017,0 -0.0017,0 -0.331519,-0.02717 -0.646732,-0.07971 -0.842383,-0.139491 -0.344198,-0.106881 -0.634051,-0.411228 -0.704702,-0.739123 z m 3.510834,3.514456 c -0.210143,0.278982 -0.603254,0.451082 -0.956512,0.416662 -0.188403,-0.01811 -0.443837,-0.105067 -0.594197,-0.411228 -0.04347,-0.08877 -0.128623,-0.148549 -0.226446,-0.16123 -0.353258,-0.04167 -0.516301,-0.259055 -0.590575,-0.434779 -0.128623,-0.302531 -0.08152,-0.695643 0.115938,-0.956511 0.289851,-0.382242 1.092379,-1.052525 1.809764,-1.355057 0.132251,0.173911 0.309778,0.309778 0.516298,0.3913 -0.05073,0.53985 0.110509,1.199263 0.329707,1.766285 -0.130437,0.304344 -0.280795,0.579705 -0.403981,0.744558 z m 3.686556,-1.547086 c 0.197462,0.260868 0.244563,0.65398 0.115939,0.956511 -0.07427,0.175724 -0.237317,0.393113 -0.590574,0.434779 -0.09782,0.01086 -0.182969,0.07246 -0.226447,0.16123 -0.150361,0.307968 -0.405793,0.393112 -0.594198,0.411228 -0.351445,0.03441 -0.744556,-0.13768 -0.95651,-0.416662 -0.329707,-0.434778 -0.844195,-1.652157 -0.786225,-2.427511 0.481879,0.304344 1.193829,0.382242 1.719185,0.391301 0.03804,0 0.07608,0.0017 0.114124,0.0017 0.228259,0 0.463764,-0.01271 0.688399,-0.03441 0.221012,0.190216 0.407604,0.378619 0.516299,0.521733 z m 0.860498,-1.96737 c -0.07246,0.327895 -0.362315,0.63224 -0.704703,0.739123 -0.539849,0.168476 -1.742735,0.244562 -2.499974,0.02174 0.235505,-0.221012 0.382242,-0.532603 0.382242,-0.878616 0,-0.128622 -0.01993,-0.253619 -0.05797,-0.369561 0.204708,-0.253619 0.376808,-0.572457 0.514488,-0.907598 0.295287,-0.173911 0.594197,-0.318838 0.797093,-0.382242 0.346011,-0.108696 0.775354,-0.0163 1.041657,0.222823 0.132238,0.117752 0.275358,0.324272 0.213765,0.63224 -0.01993,0.09964 0.01449,0.204707 0.09058,0.271736 0.202895,0.18478 0.277171,0.402169 0.222823,0.650356 z"
         id="path5957"
         style="fill:#b8434a;fill-opacity:1;stroke:#b8434a;stroke-width:0.1;stroke-miterlimit:4;stroke-dasharray:none;stroke-opacity:1" />
    </g>
    <g
       aria-label="WITCH"
       id="text5963"
       style="font-style:normal;font-variant:normal;font-weight:normal;font-stretch:normal;font-size:17.2295px;line-height:1.25;font-family:'Poor Richard';-inkscape-font-specification:'Poor Richard';letter-spacing:1.32292px;word-spacing:0px;fill:#b8434a;fill-opacity:1;stroke:none;stroke-width:0.43074">
      <path
         d="m 61.957391,15.53697 0.100954,0.185083 q 0.05048,0 0.109367,-0.201908 l 2.22099,-7.1929801 q 0.09254,-0.2944495 0.09254,-0.479532 0,-0.4542935 -0.538421,-0.4542935 -0.243973,0 -0.420642,-0.1261926 -0.168257,-0.1261926 -0.168257,-0.3028623 0,-0.210321 0.185082,-0.3281008 0.185083,-0.1261927 0.454294,-0.1261927 0.126192,0 0.462706,0.067303 0.336514,0.05889 0.689853,0.05889 0.227147,0 0.698266,-0.05889 0.479532,-0.067303 0.715091,-0.067303 0.572074,0 0.572074,0.4122293 0,0.2187339 -0.185083,0.3281008 -0.17667,0.109367 -0.353339,0.109367 -0.386991,0 -0.757156,0.2944494 -0.361752,0.2860366 -0.513183,0.7739815 -1.808761,6.09931 -3.13799,10.246841 l -0.100954,0.35334 q -0.07572,0.26921 -0.29445,0.26921 -0.11778,0 -0.218734,-0.100954 -0.100954,-0.100954 -0.227146,-0.487944 l -2.69211,-8.126806 q -0.09254,-0.277623 -0.134605,-0.277623 -0.04207,0 -0.126193,0.277623 l -2.389247,8.126806 q -0.11778,0.395403 -0.210321,0.479532 -0.09254,0.09254 -0.210321,0.09254 -0.17667,0 -0.243972,-0.11778 -0.05889,-0.109367 -0.185083,-0.487945 L 51.744201,8.3692291 Q 51.584357,7.9065228 51.374036,7.679376 51.172128,7.4438165 50.801963,7.3849266 50.431798,7.3260367 50.322431,7.2503211 50.213064,7.1661927 50.213064,6.939046 q 0,-0.429055 0.597312,-0.429055 0.201908,0 0.555247,0.075716 0.361752,0.067303 0.824459,0.067303 0.353339,0 0.765568,-0.075716 0.41223,-0.084128 0.546835,-0.084128 0.302862,0 0.504771,0.1261926 0.201908,0.1261926 0.201908,0.3449265 0,0.4038164 -0.588899,0.4290549 -0.454294,0.016826 -0.454294,0.3028623 0,0.1346055 0.134606,0.5047705 0.62255,1.6573298 2.422898,7.2518698 0.0673,0.193495 0.109367,0.193495 0.04206,0 0.09254,-0.17667 l 2.540679,-8.5053825 q 0.07572,-0.2776238 0.134605,-0.3617522 0.05889,-0.092541 0.185083,-0.092541 0.193495,0 0.311275,0.3617522 z"
         style="font-style:normal;font-variant:normal;font-weight:normal;font-stretch:normal;font-family:'Poor Richard';-inkscape-font-specification:'Poor Richard';text-align:end;baseline-shift:baseline;text-anchor:end;fill:#b8434a;fill-opacity:1;stroke-width:0.43074"
         id="path8842" />
      <path
         d="m 69.758198,8.268275 q 0,-0.4879449 -0.193495,-0.6646145 Q 69.37962,7.418578 69.076758,7.3344495 68.782309,7.2419083 68.664529,7.1577799 68.555162,7.0736514 68.555162,6.8549176 q 0,-0.1261927 0.109367,-0.2103211 0.11778,-0.084128 0.269211,-0.084128 0.260798,0 0.790807,0.092541 0.530009,0.084128 0.807633,0.084128 0.252385,0 0.74033,-0.075716 0.496357,-0.084128 0.74033,-0.084128 0.420642,0 0.420642,0.3449265 0,0.210321 -0.109367,0.2860366 -0.109367,0.075716 -0.445881,0.1430183 -0.336513,0.05889 -0.487944,0.3533394 -0.151432,0.2860366 -0.151432,0.8412841 v 8.7325293 q 0,0.243973 0.109367,0.437468 0.11778,0.185083 0.504771,0.29445 0.395403,0.100954 0.479532,0.218734 0.08413,0.109366 0.08413,0.260798 0,0.302862 -0.521596,0.302862 -0.23556,0 -0.689853,-0.08413 -0.454293,-0.08413 -0.689853,-0.08413 -0.218734,0 -0.673027,0.0673 -0.445881,0.0673 -0.673028,0.0673 -0.630963,0 -0.630963,-0.395404 0,-0.109367 0.0673,-0.193495 0.0673,-0.08413 0.471119,-0.151431 0.412229,-0.07572 0.546835,-0.361753 0.134605,-0.294449 0.134605,-0.656201 z"
         style="font-style:normal;font-variant:normal;font-weight:normal;font-stretch:normal;font-family:'Poor Richard';-inkscape-font-specification:'Poor Richard';text-align:end;baseline-shift:baseline;text-anchor:end;fill:#b8434a;fill-opacity:1;stroke-width:0.43074"
         id="path8844" />
      <path
         d="m 81.243831,6.4763397 q 0.286036,0 0.462706,0.5973117 0.17667,0.5973118 0.17667,1.1104951 0,0.5131834 -0.328101,0.5131834 -0.11778,0 -0.218734,-0.075716 -0.09254,-0.075716 -0.269211,-0.530009 Q 80.898904,7.628899 80.553978,7.469055 80.217464,7.3007982 79.813648,7.3007982 q -0.572074,0 -0.832872,0.2692109 -0.252385,0.2607981 -0.252385,0.8581099 v 8.934438 q 0,0.201908 0.11778,0.361752 0.126193,0.151431 0.513183,0.269211 0.386991,0.109367 0.471119,0.193495 0.08413,0.08413 0.08413,0.193496 0,0.437467 -0.462706,0.437467 -0.252386,0 -0.740331,-0.08413 -0.487944,-0.07572 -0.723504,-0.07572 -0.218734,0 -0.639376,0.0673 -0.420642,0.0673 -0.639376,0.0673 -0.260798,0 -0.44588,-0.11778 -0.185083,-0.11778 -0.185083,-0.328101 0,-0.100954 0.0673,-0.176669 0.0673,-0.08413 0.44588,-0.193496 0.378578,-0.117779 0.504771,-0.353339 0.134605,-0.23556 0.134605,-0.530009 V 8.0831924 q 0,-0.8160456 -1.102082,-0.8160456 -0.715092,0 -1.017954,0.319688 -0.185082,0.1850825 -0.269211,0.5720732 -0.08413,0.3785779 -0.176669,0.4542935 -0.08413,0.067303 -0.210321,0.067303 -0.134606,0 -0.260799,-0.067303 -0.117779,-0.075716 -0.117779,-0.1850825 0,-0.9169998 0.159844,-1.4301831 0.159844,-0.5215962 0.462706,-0.5215962 z"
         style="font-style:normal;font-variant:normal;font-weight:normal;font-stretch:normal;font-family:'Poor Richard';-inkscape-font-specification:'Poor Richard';text-align:end;baseline-shift:baseline;text-anchor:end;fill:#b8434a;fill-opacity:1;stroke-width:0.43074"
         id="path8846" />
      <path
         d="m 94.285839,16.100631 q 0.126193,0 0.218734,0.100954 0.09254,0.09254 0.09254,0.168257 0,0.294449 -0.681441,0.942238 -0.673027,0.639376 -1.766696,1.102082 -1.09367,0.454294 -2.313532,0.454294 -1.968605,0 -3.424026,-0.85811 -1.447009,-0.85811 -2.220991,-2.389247 -0.773981,-1.531138 -0.773981,-3.180055 0,-1.648917 0.757156,-3.0875125 0.757156,-1.4470087 2.153687,-2.2546415 1.396532,-0.8076328 3.238944,-0.8076328 1.177798,0 2.170513,0.3112751 1.001129,0.3028623 1.573202,0.7403301 0.580486,0.4374677 0.580486,0.6646145 0,0.3533393 -0.01683,0.6393759 -0.01682,0.2860367 -0.01682,0.3449266 0,0.1009541 0.05889,0.3112751 0.05889,0.2019082 0.05889,0.3785779 0,0.2776237 -0.344926,0.2776237 -0.109367,0 -0.218734,-0.1009541 Q 93.301537,9.7573479 93.091216,9.2946417 92.645335,8.3103392 92.132152,7.8644586 91.231978,7.0820643 89.616712,7.0820643 q -2.077972,0 -3.238944,1.5143115 -1.152559,1.5058982 -1.152559,3.8951462 0,2.599568 1.253513,4.113879 1.253514,1.505899 3.381963,1.505899 0.546834,0 1.716219,-0.361752 1.177798,-0.370165 2.321945,-1.421771 0.252385,-0.227146 0.38699,-0.227146 z"
         style="font-style:normal;font-variant:normal;font-weight:normal;font-stretch:normal;font-family:'Poor Richard';-inkscape-font-specification:'Poor Richard';text-align:end;baseline-shift:baseline;text-anchor:end;fill:#b8434a;fill-opacity:1;stroke-width:0.43074"
         id="path8848" />
      <path
         d="m 106.21735,17.160649 q 0,0.286036 0.14302,0.513183 0.14302,0.227147 0.57207,0.344927 0.42906,0.117779 0.51319,0.210321 0.0841,0.09254 0.0841,0.227146 0,0.11778 -0.17667,0.227147 -0.17667,0.109367 -0.44588,0.109367 -0.21032,0 -0.69826,-0.07572 -0.47953,-0.07571 -0.64779,-0.07571 -0.25239,0 -0.69827,0.0673 -0.43746,0.0673 -0.62255,0.0673 -0.60572,0 -0.60572,-0.361752 0,-0.210321 0.10095,-0.277624 0.10937,-0.0673 0.39541,-0.109367 0.28603,-0.05048 0.47111,-0.218734 0.18509,-0.176669 0.18509,-0.748742 V 12.01199 q 0,-0.269211 -0.16826,-0.420643 -0.15984,-0.151431 -0.74033,-0.151431 h -3.68482 q -0.471123,0 -0.605729,-0.100954 -0.126192,-0.100954 -0.126192,-0.302862 0,-0.201908 0.168256,-0.29445 0.17667,-0.09254 0.630965,-0.09254 h 3.97927 q 0.3281,0 0.42064,-0.100954 0.0925,-0.109367 0.0925,-0.403816 0,-1.8592383 -0.0505,-2.2462291 -0.0421,-0.3954035 -0.69827,-0.5720732 -0.34492,-0.1009541 -0.42905,-0.210321 Q 103.5,7.0063487 103.5,6.8549176 q 0,-0.1009541 0.1262,-0.1934954 0.12619,-0.1009541 0.30286,-0.1009541 0.3281,0 0.79922,0.075716 0.47112,0.067303 0.74874,0.067303 0.28604,0 0.69827,-0.05889 0.42064,-0.067303 0.79922,-0.067303 0.40381,0 0.40381,0.3281008 0,0.2103211 -0.10095,0.2776238 -0.10096,0.067303 -0.38699,0.1177798 -0.28604,0.050477 -0.47953,0.2439724 -0.1935,0.1850825 -0.1935,0.7908071 z m -7.184566,0 q 0,0.260798 0.134605,0.471119 0.143018,0.210321 0.572073,0.353339 0.429058,0.134606 0.513188,0.23556 0.0925,0.100954 0.0925,0.235559 0,0.11778 -0.17667,0.227147 -0.176672,0.109367 -0.445883,0.109367 -0.210321,0 -0.698266,-0.07572 -0.479532,-0.07571 -0.647789,-0.07571 -0.252385,0 -0.698266,0.0673 -0.437468,0.0673 -0.62255,0.0673 -0.605725,0 -0.605725,-0.361752 0,-0.210321 0.100954,-0.277624 0.100954,-0.0673 0.378578,-0.109367 0.277624,-0.05048 0.454294,-0.218734 0.185082,-0.176669 0.185082,-0.748742 V 8.2009722 q 0,-0.2860366 -0.126192,-0.5131833 -0.126193,-0.2355596 -0.546835,-0.3449265 -0.412229,-0.1177798 -0.496358,-0.2271467 -0.08413,-0.109367 -0.08413,-0.2607981 0,-0.1009541 0.126192,-0.1934954 0.126193,-0.1009541 0.302863,-0.1009541 0.328101,0 0.79922,0.075716 0.471119,0.067303 0.748743,0.067303 0.286036,0 0.698265,-0.05889 0.420643,-0.067303 0.79922,-0.067303 0.403821,0 0.403821,0.3281008 0,0.2103211 -0.10937,0.2860366 -0.100955,0.067303 -0.386992,0.1346055 -0.286036,0.05889 -0.479532,0.2523852 -0.185082,0.1850826 -0.185082,0.7571558 z"
         style="font-style:normal;font-variant:normal;font-weight:normal;font-stretch:normal;font-family:'Poor Richard';-inkscape-font-specification:'Poor Richard';text-align:end;baseline-shift:baseline;text-anchor:end;fill:#b8434a;fill-opacity:1;stroke-width:0.43074"
         id="path8850" />
    </g>
    <g
       aria-label="DICE "
       id="text5967"
       style="font-style:normal;font-variant:normal;font-weight:normal;font-stretch:normal;font-size:17.2295px;line-height:1.25;font-family:'Poor Richard';-inkscape-font-specification:'Poor Richard';letter-spacing:1.32292px;word-spacing:0px;fill:#b8434a;fill-opacity:1;stroke:none;stroke-width:0.43074">
      <path
         d="m 120.51519,6.7077039 q 1.26192,0 2.83512,0.7319173 1.58162,0.7235044 2.55751,2.1705131 0.97589,1.4470087 0.97589,3.3735497 0,2.624806 -1.61527,4.315788 -1.61526,1.690981 -4.18959,1.690981 l -4.77009,-0.03365 q -0.19349,0 -0.3281,-0.100954 -0.1346,-0.09254 -0.1346,-0.260798 0,-0.143018 0.0925,-0.235559 0.0925,-0.09254 0.50477,-0.134606 0.41223,-0.05048 0.5216,-0.176669 0.11778,-0.134606 0.11778,-0.328101 V 8.1547127 q 0,-0.3785779 -0.1262,-0.5468347 -0.11778,-0.1682568 -0.26079,-0.1934954 -0.13461,-0.033651 -0.53001,-0.033651 -0.24398,0 -0.3281,-0.075716 -0.0841,-0.084128 -0.0841,-0.2523852 0,-0.3449266 0.55524,-0.3449266 z m -2.00226,10.5497031 q 0,0.487945 0.44588,0.748743 0.44588,0.260798 1.6405,0.260798 1.29558,0 1.9602,-0.336513 1.12732,-0.580486 1.82558,-1.842413 0.70668,-1.261926 0.70668,-2.557503 0,-1.118908 -0.19349,-2.103211 -0.18509,-0.992715 -0.68144,-1.7835223 -0.48795,-0.79922 -1.48066,-1.5058987 -0.99272,-0.7066787 -2.64164,-0.7066787 -1.58161,0 -1.58161,0.689853 z"
         style="font-style:normal;font-variant:normal;font-weight:normal;font-stretch:normal;font-family:'Poor Richard';-inkscape-font-specification:'Poor Richard';fill:#b8434a;fill-opacity:1;stroke-width:0.43074"
         id="path8853" />
      <path
         d="m 129.88078,8.4828135 q 0,-0.4879448 -0.19349,-0.6646145 -0.18509,-0.1850825 -0.48795,-0.2692109 -0.29445,-0.092541 -0.41223,-0.1766697 -0.10936,-0.084128 -0.10936,-0.3028623 0,-0.1261926 0.10936,-0.210321 0.11778,-0.084128 0.26921,-0.084128 0.2608,0 0.79081,0.092541 0.53001,0.084129 0.80763,0.084129 0.25239,0 0.74033,-0.075716 0.49636,-0.084128 0.74033,-0.084128 0.42065,0 0.42065,0.3449265 0,0.210321 -0.10937,0.2860366 -0.10937,0.075716 -0.44588,0.1430183 -0.33652,0.05889 -0.48795,0.3533393 -0.15143,0.2860367 -0.15143,0.8412842 v 8.7325297 q 0,0.243972 0.10937,0.437468 0.11778,0.185082 0.50477,0.294449 0.3954,0.100954 0.47953,0.218734 0.0841,0.109367 0.0841,0.260798 0,0.302863 -0.5216,0.302863 -0.23556,0 -0.68985,-0.08413 -0.45429,-0.08413 -0.68985,-0.08413 -0.21874,0 -0.67303,0.0673 -0.44588,0.0673 -0.67303,0.0673 -0.63096,0 -0.63096,-0.395403 0,-0.109367 0.0673,-0.193496 0.0673,-0.08413 0.47112,-0.151431 0.41223,-0.07571 0.54684,-0.361752 0.1346,-0.29445 0.1346,-0.656202 z"
         style="font-style:normal;font-variant:normal;font-weight:normal;font-stretch:normal;font-family:'Poor Richard';-inkscape-font-specification:'Poor Richard';fill:#b8434a;fill-opacity:1;stroke-width:0.43074"
         id="path8855" />
      <path
         d="m 145.27839,16.315169 q 0.12619,0 0.21873,0.100954 0.0925,0.09254 0.0925,0.168257 0,0.29445 -0.68144,0.942238 -0.67303,0.639376 -1.7667,1.102083 -1.09367,0.454293 -2.31353,0.454293 -1.9686,0 -3.42402,-0.85811 -1.44701,-0.85811 -2.22099,-2.389247 -0.77399,-1.531137 -0.77399,-3.180054 0,-1.648917 0.75716,-3.0875129 0.75716,-1.4470088 2.15369,-2.2546416 1.39653,-0.8076328 3.23894,-0.8076328 1.1778,0 2.17051,0.3112752 1.00113,0.3028623 1.57321,0.7403301 0.58048,0.4374677 0.58048,0.6646144 0,0.3533394 -0.0168,0.639376 -0.0168,0.2860366 -0.0168,0.3449265 0,0.1009541 0.0589,0.3112752 0.0589,0.2019082 0.0589,0.3785778 0,0.2776241 -0.34493,0.2776241 -0.10936,0 -0.21873,-0.100954 -0.10937,-0.1009545 -0.31969,-0.5636608 -0.44588,-0.9843025 -0.95906,-1.4301831 -0.90018,-0.7823942 -2.51544,-0.7823942 -2.07797,0 -3.23895,1.5143115 -1.15255,1.5058986 -1.15255,3.8951456 0,2.599568 1.25351,4.11388 1.25351,1.505898 3.38196,1.505898 0.54684,0 1.71622,-0.361752 1.1778,-0.370165 2.32195,-1.42177 0.25238,-0.227147 0.38699,-0.227147 z"
         style="font-style:normal;font-variant:normal;font-weight:normal;font-stretch:normal;font-family:'Poor Richard';-inkscape-font-specification:'Poor Richard';fill:#b8434a;fill-opacity:1;stroke-width:0.43074"
         id="path8857" />
      <path
         d="m 153.96254,18.250123 q 0.42906,0 0.64779,-0.227147 0.22715,-0.227147 0.22715,-0.580486 0,-0.319688 0.14302,-0.504771 0.14301,-0.193495 0.33651,-0.193495 0.19349,0 0.31969,0.17667 0.1346,0.176669 0.1346,0.471119 0,0.294449 0.0252,0.639376 0.0252,0.336514 0.0252,0.462706 0,0.344927 -0.10095,0.445881 -0.0926,0.109367 -0.49636,0.109367 h -6.80599 q -0.71509,0 -0.9843,-0.109367 -0.2608,-0.109367 -0.2608,-0.328101 0,-0.344927 0.47953,-0.344927 0.61414,0 0.79922,-0.193495 0.18508,-0.201908 0.18508,-0.630963 V 9.7447398 q 0,-1.2451006 -0.0421,-1.648917 -0.0421,-0.4038164 -0.21032,-0.5131833 -0.16826,-0.1177798 -0.67303,-0.1177798 -0.30286,0 -0.47112,-0.1093669 -0.15984,-0.1177798 -0.15984,-0.2944495 0,-0.159844 0.14302,-0.2776238 0.14301,-0.1261926 0.36175,-0.1261926 h 6.47789 q 0.38699,0 0.50477,0.159844 0.11778,0.159844 0.16825,0.4711191 0.0589,0.3112752 0.0589,1.0263667 0,0.3281008 -0.27762,0.3281008 -0.15984,0 -0.28604,-0.092541 -0.11778,-0.1009541 -0.26921,-0.4879448 -0.14302,-0.3954036 -0.30286,-0.5047705 -0.15143,-0.109367 -0.35334,-0.109367 h -2.30512 q -0.58048,0 -0.73192,0.1682568 -0.15143,0.159844 -0.15143,0.4879449 v 1.7751096 q 0,0.6225507 0.16826,0.8244587 0.16826,0.193495 0.68144,0.193495 h 2.23782 q 0.27762,0 0.42064,-0.218734 0.14302,-0.227146 0.14302,-0.50477 0,-0.143019 0.11778,-0.2355598 0.11778,-0.1009541 0.27762,-0.1009541 0.16826,0 0.27762,0.1093669 0.10937,0.109367 0.10937,0.311275 0,0.17667 -0.0589,0.513183 -0.0505,0.328101 -0.0505,0.538422 0,0.319688 0.0673,0.673028 0.0757,0.353339 0.0757,0.429055 0,0.193495 -0.12619,0.319688 -0.12619,0.126192 -0.29445,0.126192 -0.17667,0 -0.29445,-0.151431 -0.11778,-0.159844 -0.11778,-0.429055 0,-0.319688 -0.16826,-0.454293 -0.16825,-0.134606 -0.55524,-0.134606 h -2.22099 q -0.30287,0 -0.49636,0.126193 -0.1935,0.11778 -0.1935,0.353339 v 5.375806 q 0,0.420642 0.21032,0.56366 0.21874,0.143019 0.74033,0.143019 z"
         style="font-style:normal;font-variant:normal;font-weight:normal;font-stretch:normal;font-family:'Poor Richard';-inkscape-font-specification:'Poor Richard';fill:#b8434a;fill-opacity:1;stroke-width:0.43074"
         id="path8859" />
    </g>
  </g>
</svg>
