<?xml version="1.0" encoding="UTF-8" standalone="no"?>
<svg
   xmlns:dc="http://purl.org/dc/elements/1.1/"
   xmlns:cc="http://creativecommons.org/ns#"
   xmlns:rdf="http://www.w3.org/1999/02/22-rdf-syntax-ns#"
   xmlns:svg="http://www.w3.org/2000/svg"
   xmlns="http://www.w3.org/2000/svg"
   xmlns:sodipodi="http://sodipodi.sourceforge.net/DTD/sodipodi-0.dtd"
   xmlns:inkscape="http://www.inkscape.org/namespaces/inkscape"
   width="512"
   height="512"
   viewBox="0 0 135.46667 135.46667"
   version="1.1"
   id="svg4950"
   inkscape:version="1.0.1 (3bc2e813f5, 2020-09-07)"
   sodipodi:docname="border_nouveau_character.svg">
  <defs
     id="defs4944" />
  <sodipodi:namedview
     id="base"
     pagecolor="#ffffff"
     bordercolor="#666666"
     borderopacity="1.0"
     inkscape:pageopacity="0.0"
     inkscape:pageshadow="2"
     inkscape:zoom="0.69081585"
     inkscape:cx="276.28192"
     inkscape:cy="302.44962"
     inkscape:document-units="mm"
     inkscape:current-layer="layer1"
     inkscape:document-rotation="0"
     showgrid="false"
     inkscape:snap-global="false"
     units="px"
     inkscape:window-width="1048"
     inkscape:window-height="1041"
     inkscape:window-x="856"
     inkscape:window-y="0"
     inkscape:window-maximized="0" />
  <metadata
     id="metadata4947">
    <rdf:RDF>
      <cc:Work
         rdf:about="">
        <dc:format>image/svg+xml</dc:format>
        <dc:type
           rdf:resource="http://purl.org/dc/dcmitype/StillImage" />
        <dc:title></dc:title>
      </cc:Work>
    </rdf:RDF>
  </metadata>
  <g
     inkscape:label="Layer 1"
     inkscape:groupmode="layer"
     id="layer1">
    <path
       style="color:#000000;font-style:normal;font-variant:normal;font-weight:normal;font-stretch:normal;font-size:medium;line-height:normal;font-family:sans-serif;font-variant-ligatures:normal;font-variant-position:normal;font-variant-caps:normal;font-variant-numeric:normal;font-variant-alternates:normal;font-variant-east-asian:normal;font-feature-settings:normal;font-variation-settings:normal;text-indent:0;text-align:start;text-decoration:none;text-decoration-line:none;text-decoration-style:solid;text-decoration-color:#000000;letter-spacing:normal;word-spacing:normal;text-transform:none;writing-mode:lr-tb;direction:ltr;text-orientation:mixed;dominant-baseline:auto;baseline-shift:baseline;text-anchor:start;white-space:normal;shape-padding:0;shape-margin:0;inline-size:0;clip-rule:nonzero;display:inline;overflow:visible;visibility:visible;isolation:auto;mix-blend-mode:normal;color-interpolation:sRGB;color-interpolation-filters:linearRGB;solid-color:#000000;solid-opacity:1;vector-effect:none;fill:#f7ab7d;fill-opacity:1;fill-rule:nonzero;stroke:none;stroke-width:0.753818;stroke-linecap:square;stroke-linejoin:miter;stroke-miterlimit:4;stroke-dasharray:none;stroke-dashoffset:0;stroke-opacity:1;paint-order:stroke markers fill;color-rendering:auto;image-rendering:auto;shape-rendering:auto;text-rendering:auto;enable-background:accumulate;stop-color:#000000"
       d="m 10.382812,7.7324219 c -1.4599485,0 -2.6503901,1.1806461 -2.6503901,2.6347661 V 125.09961 c 0,1.45412 1.1904419,2.63281 2.6503901,2.63281 H 125.08398 c 1.45995,0 2.64844,-1.17869 2.64844,-2.63281 V 10.367188 c 0,-1.4541204 -1.18849,-2.6347661 -2.64844,-2.6347661 z m 0,0.7539062 H 125.08398 c 1.05814,0 1.89649,0.8341001 1.89649,1.8808599 V 125.09961 c 0,1.04676 -0.83835,1.88086 -1.89649,1.88086 H 10.382812 c -1.0581374,0 -1.8964839,-0.8341 -1.8964839,-1.88086 V 10.367188 c 0,-1.0467602 0.8383468,-1.8808599 1.8964839,-1.8808599 z"
       id="path4606" />
    <path
       style="fill:#f7ab7d;fill-opacity:1;stroke-width:0.021549"
       d="m 92.854666,7.4408396 c 0.0103,0 0.0252,-0.0485 0.0331,-0.10774 0.008,-0.0593 0.0236,-0.10775 0.0351,-0.10775 0.0114,0 0.0208,-0.0229 0.0208,-0.051 0,-0.028 0.0194,-0.0756 0.0431,-0.10575 0.0237,-0.0301 0.0431,-0.0654 0.0431,-0.0783 0,-0.013 0.01,-0.0235 0.0222,-0.0235 0.0122,0 0.0281,-0.017 0.0353,-0.0377 0.0158,-0.0455 0.20223,-0.24242 0.22942,-0.24242 0.0106,0 0.0546,-0.0267 0.0978,-0.0593 0.10785,-0.0814 0.15388,-0.10503 0.24084,-0.12366 0.0411,-0.009 0.0867,-0.0257 0.10138,-0.0374 0.0147,-0.0118 0.041,-0.016 0.0586,-0.009 0.0176,0.007 0.0377,0.003 0.0446,-0.008 0.0159,-0.0257 0.41282,-0.0275 0.42861,-0.002 0.006,0.0102 0.036,0.014 0.0659,0.008 0.0299,-0.006 0.0544,-5.4e-4 0.0544,0.0112 0,0.0119 0.0436,0.0282 0.097,0.0362 0.0533,0.008 0.097,0.0225 0.097,0.0322 0,0.01 0.017,0.0239 0.0377,0.0315 0.0733,0.0269 0.15623,0.08 0.15623,0.10012 0,0.0112 0.0135,0.0204 0.03,0.0204 0.035,0 0.25416,0.23084 0.30174,0.31776 0.04,0.0731 0.0779,0.15326 0.0992,0.21019 0.0606,0.16133 0.0608,0.16162 0.14369,0.16162 0.044,0 0.13389,0.01 0.1998,0.0216 0.0659,0.0119 0.24102,0.037 0.38917,0.0559 0.2828,0.036 0.57715,0.0766 0.93739,0.12938 0.11851,0.0173 0.31246,0.0454 0.43097,0.0623 0.11853,0.0169 0.31004,0.0457 0.4256,0.064 0.11556,0.0183 0.2998,0.0473 0.40943,0.0645 0.10963,0.0172 0.29145,0.0468 0.40405,0.0657 0.11258,0.019 0.29683,0.0494 0.40943,0.0677 0.11259,0.0183 0.28229,0.0466 0.37711,0.0628 0.0948,0.0163 0.29026,0.0483 0.43433,0.0712 0.14407,0.0229 0.278434,0.0509 0.298594,0.0621 0.0435,0.0244 0.0538,0.023 -1.056164,0.1436 -0.16593,0.018 -0.43745,0.0476 -0.60337,0.0658 -0.16593,0.0182 -0.42015,0.0456 -0.56493,0.061 -0.14477,0.0154 -0.27032,0.0351 -0.27899,0.0437 -0.0191,0.0191 0.0763,0.11791 1.25335,1.29769 1.05487,1.0573094 1.684744,1.6486994 2.445814,2.2964294 0.20422,0.17381 0.45591,0.38009 0.54907,0.45001 0.0395,0.0296 0.17693,0.13667 0.30546,0.23788 0.20431,0.16087 0.46749,0.3553 0.76948,0.56848 0.99335,0.70125 2.17894,1.34673 3.25683,1.77317 0.54156,0.21425 1.44005,0.49592 1.83167,0.57421 0.0356,0.007 0.15676,0.0329 0.26936,0.0575 0.37309,0.0812 0.79072,0.14305 1.32526,0.19635 0.31014,0.0309 1.4,0.0308 1.70237,-2.2e-4 1.03747,-0.10636 1.76783,-0.26378 2.75828,-0.59451 0.37529,-0.12532 0.79269,-0.28559 1.12055,-0.43026 0.0711,-0.0314 0.15794,-0.0688 0.19296,-0.0831 0.18357,-0.0751 1.15293,-0.56603 1.50929,-0.76437 0.9546,-0.53128 2.33365,-1.42708 3.38873,-2.20125 0.0741,-0.0544 0.23894,-0.17391 0.36633,-0.26566 0.1274,-0.0918 0.85709,-0.62323 1.62154,-1.18105 1.50876,-1.1009404 1.56989,-1.1439404 1.67865,-1.1808404 0.27684,-0.0939 0.69426,0.10008 0.897,0.41691 0.0795,0.12421 0.13953,0.3128 0.13953,0.4383404 0,0.30359 -0.20931,0.74738 -0.53519,1.13473 -0.0598,0.0711 -0.10117,0.13202 -0.0919,0.13535 0.0498,0.0178 0.72945,-0.45435 0.98401,-0.68353 0.34243,-0.30828 0.56886,-0.6664804 0.64459,-1.0197604 0.0331,-0.15432 0.0332,-0.18014 0.002,-0.334 -0.0824,-0.39934 -0.3614,-0.76109 -0.72285,-0.93732 -0.13092,-0.0638 -0.15555,-0.0683 -0.37711,-0.0691 -0.20914,-5.29e-4 -0.24845,0.005 -0.33401,0.0506 -0.0973,0.0515 -1.00312,0.6584 -1.78857,1.19826 -1.1162,0.7672104 -2.19902,1.4800404 -2.85664,1.8805404 -0.89688,0.54623 -1.59992,0.92346 -2.51858,1.35142 -0.61234,0.28527 -1.58799,0.6459 -2.15616,0.797001 -0.0593,0.0158 -0.18532,0.0496 -0.28013,0.0751 -0.1783,0.0481 -0.24008,0.0629 -0.49563,0.11919 -2.06865,0.455459 -4.34165,0.411319 -6.48626,-0.12595 -0.0711,-0.0178 -0.17293,-0.0432 -0.22626,-0.0564 -0.45697,-0.11332 -1.41363,-0.43298 -1.77779,-0.59404 -0.0356,-0.0157 -0.12283,-0.0521 -0.19394,-0.0808 -0.40034,-0.161701 -1.19606,-0.561511 -1.61617,-0.812051 -1.01393,-0.60469 -1.73186,-1.1586 -2.51221,-1.93825 -0.66812,-0.6675204 -0.91962,-0.9880904 -1.08311,-1.3805004 -0.12614,-0.30277 -0.13013,-0.59422 -0.0118,-0.85786 0.17603,-0.39201 0.51708,-0.58663 0.9486,-0.54133 0.63202,0.0663 0.9064,0.11198 1.29011,0.21463 0.1363,0.0365 0.28661,0.0756 0.33401,0.0871 0.0474,0.0114 0.10559,0.0297 0.1293,0.0406 0.0237,0.0109 0.11582,0.0444 0.20471,0.0744 0.66483,0.2243 1.64501,0.69082 2.58588,1.23076 0.30222,0.17343 0.60283,0.34521 0.66802,0.38172 0.0652,0.0365 0.15246,0.0876 0.19394,0.11357 0.14221,0.089 0.93737,0.5425504 1.30371,0.7436504 0.37774,0.20734 1.31125,0.6677 1.35396,0.6677 0.006,0 0.0727,0.0279 0.14758,0.0619 0.14886,0.0677 0.5351,0.21328 0.73956,0.27872 0.28584,0.0915 0.35456,0.11161 0.5926,0.17341 0.78219,0.2031 1.5051,0.2421 2.01871,0.10892 0.24297,-0.063 0.51075,-0.19867 0.64986,-0.32923 0.10751,-0.10089 0.24055,-0.27743 0.24055,-0.31919 0,-0.0444 -0.60802,-0.40411 -0.95893,-0.56733 -0.27999,-0.13023 -0.75875,-0.3072304 -0.99674,-0.3685004 -0.0623,-0.016 -0.16895,-0.044 -0.23704,-0.0621 -0.55303,-0.14719 -1.18276,-0.21381 -1.85851,-0.19663 -0.61511,0.0157 -0.68962,0.0328 -0.46869,0.10779 0.0622,0.0211 0.13253,0.0472 0.15623,0.0579 0.12259,0.0555 1.08313,0.3573004 1.40068,0.4401504 0.49391,0.12888 0.65689,0.16925 0.87274,0.21618 0.1363,0.0296 0.31085,0.0678 0.38788,0.0848 0.12814,0.0284 0.30732,0.0642 0.45792,0.0917 0.0326,0.006 0.0593,0.0219 0.0593,0.0355 0,0.036 -0.24422,0.19473 -0.43098,0.280081 -0.30915,0.141279 -0.48237,0.175219 -0.89428,0.175219 -0.29471,0 -0.39583,-0.008 -0.51718,-0.0414 -0.15021,-0.0412 -0.37711,-0.13081 -0.37711,-0.14885 0,-0.0185 0.46492,-0.15419 0.73805,-0.21548 0.0563,-0.0126 0.10237,-0.0307 0.10237,-0.0403 0,-0.009 -0.1188,-0.018 -0.26398,-0.0189 -0.25897,-0.002 -0.34927,-0.0108 -0.60876,-0.0624 -0.62591,-0.12439 -1.32186,-0.50179 -1.73607,-0.9414504 -0.13968,-0.14825 -0.23567,-0.26453 -0.23567,-0.2855 0,-0.0211 0.13056,-0.058 0.31246,-0.0883 1.33592,-0.22235 2.672,-0.0989 3.87565,0.35814 0.28915,0.109791 0.29902,0.1141 0.61744,0.269461 0.5141,0.2508404 0.9406,0.5294694 1.21242,0.7920694 0.19531,0.188681 0.28373,0.317961 0.35324,0.516471 0.21088,0.60222 -0.30314,1.27243 -1.1348,1.47962 -0.14237,0.0354 -0.78777,0.0517 -0.88081,0.0222 -0.0234,-0.007 -0.11845,-0.0264 -0.21119,-0.0422 -0.48983,-0.0833 -1.79379,-0.53026 -2.65752,-0.91092 -0.0652,-0.0287 -0.13792,-0.0606 -0.16162,-0.0709 -0.0237,-0.0102 -0.12552,-0.0566 -0.22627,-0.10306 -0.10074,-0.0464 -0.2462,-0.11261 -0.32323,-0.14705 -0.68835,-0.30774 -1.82075,-0.93471 -2.65053,-1.46751 -0.65345,-0.4195804 -1.2781,-0.7834404 -1.72507,-1.0048704 -0.46711,-0.23139 -0.48263,-0.23848 -0.72074,-0.32893 -0.22474,-0.0854 -0.43314,-0.15009 -0.61414,-0.19072 -0.0889,-0.0199 -0.19672,-0.0454 -0.23962,-0.0566 -0.0429,-0.0112 -0.20616,-0.0311 -0.3628,-0.0442 -0.45222,-0.0378 -0.84802,0.009 -1.2508,0.1494 l -0.11852,0.0412 0.004,0.11598 c 0.008,0.24404 0.14963,0.62579 0.34402,0.92714 0.36888,0.5718904 0.97101,1.1235804 1.90327,1.7438704 0.29542,0.19656 0.74326,0.4726 0.76672,0.4726 0.006,0 0.051,0.0255 0.10039,0.0566 0.0958,0.0604 0.74714,0.3895 0.99766,0.50398 0.083,0.0379 0.2963,0.12653 0.47409,0.19693 0.17777,0.0704 0.34262,0.13692 0.36633,0.14781 0.0888,0.0407 0.7263,0.25409 0.95893,0.32084 0.0889,0.0255 0.19071,0.0552 0.22626,0.0659 0.0748,0.0226 0.61875,0.15339 0.84041,0.20207 0.56116,0.12324 1.37788,0.2318 2.0425,0.2715 0.7149,0.0427 1.85909,0.02 1.3693,-0.0271 -0.32361,-0.0312 -1.00256,-0.13189 -1.34309,-0.19926 -0.53812,-0.10645 -0.64618,-0.13063 -1.099,-0.24587 -0.32676,-0.0831 -0.58067,-0.15363 -0.70034,-0.19437 -0.0296,-0.0101 -0.1266,-0.039 -0.21549,-0.0642 -0.0889,-0.0252 -0.17649,-0.0538 -0.19465,-0.0635 -0.0182,-0.01 -0.0663,-0.025 -0.10704,-0.0339 -0.0407,-0.009 -0.0889,-0.0242 -0.10704,-0.034 -0.0181,-0.01 -0.12515,-0.0484 -0.23774,-0.086 -0.1126,-0.0375 -0.23381,-0.0802 -0.26936,-0.0949 -0.0356,-0.0146 -0.14708,-0.0587 -0.24782,-0.098 -0.42402,-0.16527 -0.96665,-0.4051 -1.39467,-0.61642 -1.27288,-0.62844 -2.07963,-1.28774 -2.48862,-2.0337604 -0.0556,-0.10147 -0.16666,-0.38051 -0.21007,-0.52794 -0.0264,-0.0896 -0.0653,-0.42395 -0.0513,-0.44038 0.0128,-0.0151 0.43581,0.0359 0.58901,0.071 0.26625,0.0609 0.3348,0.08 0.52795,0.1467 0.69551,0.24026 1.2395,0.59061 1.76979,1.1398304 0.23577,0.24418 0.55671,0.70704 0.51747,0.74628 -0.009,0.009 -0.12507,0.0163 -0.25764,0.016 -0.28682,-5.29e-4 -0.48472,-0.0519 -0.70777,-0.18312 -0.14036,-0.0826 -0.34239,-0.2648 -0.38795,-0.34993 -0.0219,-0.0409 -0.0179,-0.0421 0.0927,-0.0279 0.0636,0.008 0.14464,0.0238 0.1802,0.0348 0.0356,0.011 0.13252,0.0409 0.21549,0.0666 0.083,0.0257 0.20758,0.0751 0.27693,0.10977 0.0694,0.0347 0.13046,0.0587 0.1358,0.0533 0.0164,-0.0164 -0.20591,-0.27474 -0.38902,-0.45207 -0.20054,-0.19419 -0.61117,-0.4786304 -0.85004,-0.5888204 -0.0907,-0.0418 -0.19402,-0.0897 -0.22957,-0.10624 -0.27975,-0.13055 -1.08823,-0.30363 -1.08823,-0.23297 0,0.008 0.0752,0.097 0.16701,0.1988 0.77045,0.8539704 1.68574,1.5765704 2.75266,2.1731704 0.28269,0.15807 0.8948,0.45047 1.20696,0.57656 0.10668,0.0431 0.21334,0.0865 0.23704,0.0966 0.20536,0.0869 0.78925,0.2774 1.15287,0.37609 0.43273,0.11744 0.43241,0.11736 0.56028,0.14383 0.0652,0.0135 0.18155,0.0381 0.25859,0.0546 0.74941,0.16087 1.49771,0.23342 2.41349,0.23401 1.1141,5.56e-4 2.04596,-0.10973 3.07612,-0.36463 0.0741,-0.0183 0.19044,-0.0471 0.25859,-0.064 0.0681,-0.0169 0.17239,-0.045 0.23165,-0.0625 0.0593,-0.0175 0.19502,-0.0575 0.30169,-0.0888 0.27631,-0.0811 0.89227,-0.29652 1.07745,-0.37683 0.0237,-0.0103 0.12769,-0.0538 0.23109,-0.0968 0.28265,-0.11737 0.48555,-0.21205 0.88946,-0.41508 0.94717,-0.47609 1.70912,-0.98314 2.7132,-1.8055304 0.98501,-0.80676 1.29748,-1.05014 1.71512,-1.33585 1.13996,-0.77987 2.19878,-1.15475 3.26467,-1.15587 0.97314,-0.001 1.71013,0.29917 2.24817,0.91573 0.38641,0.44279 0.58738,0.93685 0.58821,1.44605 5.3e-4,0.4880304 -0.16529,0.8676804 -0.53196,1.2160004 -0.26891,0.25542 -0.62641,0.46524 -1.23774,0.72643 -0.0414,0.0177 -0.0948,0.0407 -0.11852,0.0512 -0.0237,0.0104 -0.174,0.074 -0.33401,0.1413 -0.59312,0.2494 -0.95354,0.46122 -1.24675,0.7327 -0.25158,0.23292 -0.37428,0.41435 -0.50169,0.74184 -0.0385,0.099 -0.0387,0.46054 -2.7e-4,0.56028 0.1096,0.284461 0.26751,0.471631 0.48226,0.571611 0.13184,0.0614 0.35952,0.0727 0.47681,0.0237 0.19391,-0.081 0.33713,-0.30599 0.33713,-0.52958 0,-0.182391 -0.0733,-0.294681 -0.23583,-0.361481 -0.10002,-0.0411 -0.1911,-0.127959 -0.22924,-0.21865 -0.0971,-0.23081 0.0512,-0.58073 0.29933,-0.70646 0.0986,-0.05 0.12729,-0.0544 0.29375,-0.0454 0.14799,0.008 0.20673,0.0218 0.29713,0.0699 0.30139,0.16031 0.52302,0.53216 0.52302,0.87756 0,0.11662 -0.0585,0.414651 -0.10906,0.555861 -0.0149,0.0415 -0.0882,0.19615 -0.16299,0.3437 -0.0748,0.14756 -0.13153,0.27272 -0.1261,0.27814 0.0178,0.0178 0.44795,-0.15077 0.65674,-0.25745 1.06169,-0.54245 1.86233,-1.601521 2.00909,-2.657571 0.008,-0.0548 0.0596,-0.071 0.0596,-0.0186 0,0.0223 0.008,0.0498 0.0187,0.0611 0.0103,0.0113 0.0413,0.10775 0.069,0.21441 0.0437,0.16888 0.0501,0.24268 0.0487,0.57105 -10e-4,0.20741 -0.0119,0.42074 -0.0245,0.47408 -0.0581,0.24539 -0.074,0.30044 -0.12766,0.44175 -0.35694,0.939831 -1.18319,1.72422 -2.09684,1.990661 -0.0884,0.0258 -0.1899,0.056 -0.22546,0.0672 -0.0935,0.0294 -0.47146,0.0733 -0.64108,0.0745 -0.08,5.55e-4 -0.14546,0.007 -0.14546,0.0144 0,0.007 0.0703,0.0801 0.15623,0.16164 0.364,0.34535 0.79019,0.55054 1.76163,0.84815 0.60172,0.18434 1.00457,0.34344 1.31559,0.51957 0.67342,0.38135 0.99505,0.90615 0.89705,1.46364 -0.0568,0.32333 -0.2061,0.58306 -0.43388,0.75505 -0.1254,0.0947 -0.3354,0.17079 -0.47196,0.17106 -0.0671,1.2e-4 -0.0806,0.007 -0.0699,0.0345 0.007,0.0189 0.0191,0.0601 0.0263,0.0916 0.007,0.0315 0.0355,0.12514 0.0628,0.2081 0.0273,0.083 0.0897,0.28176 0.13861,0.44176 0.0489,0.16 0.0984,0.31365 0.10995,0.34144 0.0173,0.0416 0.002,0.0905 -0.0886,0.27661 -0.1787,0.36862 -0.37169,0.66022 -0.63315,0.95666 -0.11942,0.1354 -0.54868,0.53569 -0.57545,0.53662 -0.007,2.6e-4 -0.009,-0.25408 -0.003,-0.56519 0.0113,-0.61395 -0.0254,-1.1649 -0.10238,-1.53537 -0.0123,-0.0593 -0.033,-0.16108 -0.046,-0.22627 -0.0354,-0.17765 -0.10424,-0.47626 -0.12665,-0.5495 -0.0109,-0.0356 -0.0448,-0.14707 -0.0754,-0.24781 -0.083,-0.27329 -0.219,-0.64528 -0.26968,-0.73776 -0.0113,-0.0206 -0.0205,-0.0488 -0.0205,-0.0627 0,-0.0397 -0.33547,-0.71632 -0.47925,-0.96659 -0.60577,-1.05438 -1.51857,-2.06429 -2.49126,-2.75629 -0.0871,-0.062 -0.16351,-0.1075 -0.16982,-0.1012 -0.006,0.006 -5.3e-4,0.21787 0.0129,0.47016 0.0322,0.60569 0.0295,1.13992 -0.009,1.78396 -0.0422,0.7069 -0.0706,1.09618 -0.0857,1.17442 -0.007,0.0356 -0.0263,0.18586 -0.0432,0.33401 -0.0366,0.3211 -0.0796,0.60797 -0.16943,1.13133 -0.0647,0.37658 -0.25722,1.24213 -0.33062,1.48606 -0.0173,0.0574 -0.021,0.0596 -0.0367,0.0216 -0.01,-0.0232 -0.0303,-0.0956 -0.046,-0.16079 -0.0766,-0.31784 -0.20256,-0.820711 -0.21491,-0.857721 -0.006,-0.0181 -0.0382,0.002 -0.0904,0.0568 -0.0648,0.0679 -0.10611,0.09 -0.20639,0.110721 -0.23261,0.048 -0.45995,-0.0198 -0.57054,-0.170011 -0.10561,-0.143489 -0.13806,-0.25748 -0.13851,-0.48657 -2.3e-4,-0.11853 0.01,-0.25428 0.0224,-0.301689 0.0126,-0.0474 0.0383,-0.158931 0.057,-0.247821 0.0188,-0.0889 0.0431,-0.195549 0.054,-0.237029 0.011,-0.0415 0.0403,-0.172401 0.0652,-0.290911 0.0249,-0.11853 0.0539,-0.24943 0.0645,-0.29092 0.0106,-0.0414 0.0493,-0.211179 0.086,-0.377109 0.0367,-0.165921 0.0756,-0.33562 0.0863,-0.3771 0.0108,-0.0415 0.0356,-0.153001 0.0552,-0.247811 0.0196,-0.0948 0.0436,-0.196639 0.0534,-0.22627 0.01,-0.0296 0.0239,-0.0927 0.0314,-0.14007 0.008,-0.0474 0.0224,-0.11529 0.0329,-0.15084 0.0106,-0.0356 0.0335,-0.13253 0.051,-0.21549 0.0423,-0.20075 0.16187,-0.73494 0.18571,-0.82964 0.0105,-0.0415 0.0493,-0.211179 0.0862,-0.377109 0.037,-0.165921 0.0759,-0.33562 0.0865,-0.377101 0.0106,-0.0415 0.0345,-0.14815 0.0533,-0.23704 0.0187,-0.0889 0.0425,-0.19072 0.0529,-0.22627 0.0104,-0.0356 0.0251,-0.10344 0.0329,-0.15084 0.008,-0.0474 0.0229,-0.11529 0.0335,-0.15085 0.0107,-0.0356 0.0354,-0.14222 0.055,-0.23704 0.0491,-0.23812 0.0929,-0.43554 0.12082,-0.54473 0.0129,-0.0507 0.0184,-0.0974 0.0121,-0.10367 -0.0262,-0.0262 -0.52781,0.69266 -0.73801,1.057841 -0.28522,0.4955 -0.55973,1.087069 -0.70998,1.529979 -0.0321,0.0948 -0.067,0.19178 -0.0773,0.215491 -0.0224,0.0511 -0.11683,0.36894 -0.1505,0.506399 -0.0131,0.0533 -0.0382,0.15515 -0.0557,0.22626 -0.10033,0.40593 -0.17236,0.8326 -0.22555,1.33604 -0.0375,0.35555 -0.0491,1.095121 -0.0215,1.368371 0.0594,0.585479 0.0901,0.809349 0.15383,1.120539 0.17667,0.86268 0.33568,1.266921 0.59446,1.51131 0.1319,0.124581 0.24872,0.185741 0.42383,0.22191 0.14615,0.0302 0.17915,0.0303 0.3167,0.002 0.20362,-0.0428 0.3214,-0.12472 0.39341,-0.27354 0.0304,-0.0628 0.11036,-0.26456 0.17768,-0.44826 0.0673,-0.18371 0.13109,-0.35341 0.14172,-0.37711 0.0225,-0.0502 0.12243,-0.32 0.14763,-0.39866 0.009,-0.0296 0.0773,-0.21387 0.15074,-0.40943 0.16894,-0.45003 0.18321,-0.48787 0.22343,-0.5926 0.0182,-0.0474 0.11192,-0.29953 0.20825,-0.56028 0.0963,-0.26073 0.18435,-0.49091 0.19559,-0.51149 0.0112,-0.0206 0.0204,-0.0482 0.0204,-0.0614 0,-0.0132 0.0134,-0.0545 0.0298,-0.0919 0.0164,-0.0373 0.0615,-0.15517 0.10024,-0.26184 0.0961,-0.26448 0.16039,-0.39666 0.23963,-0.49279 0.20358,-0.24698 0.47958,-0.25151 0.69646,-0.0114 0.23055,0.25518 0.70772,1.11966 0.87306,1.58168 0.0382,0.10667 0.0774,0.21334 0.0871,0.23704 0.0846,0.20577 0.20848,0.71632 0.26922,1.10978 0.12312,0.79742 0.10779,1.40877 -0.0646,2.5751 -0.0332,0.22496 -0.0831,0.57549 -0.12109,0.85119 -0.0123,0.0889 -0.0303,0.24404 -0.0403,0.34478 -0.0241,0.2457 -0.0128,1.15256 0.0157,1.26062 0.0125,0.0474 0.0392,0.15892 0.0593,0.24782 0.0779,0.34405 0.20116,0.64533 0.3433,0.83896 0.24224,0.32999 0.70097,0.60557 1.0064,0.60458 0.17217,-5.29e-4 0.37225,-0.0948 0.49894,-0.23505 0.13126,-0.14528 0.1907,-0.30665 0.23957,-0.65031 0.0192,-0.13515 0.0458,-0.31361 0.0592,-0.39657 0.0491,-0.3048 0.15749,-0.53567 0.29877,-0.63628 0.1244,-0.0886 0.12856,-0.0737 0.12772,0.45783 -0.001,0.83107 -0.10988,1.28134 -0.42314,1.75522 -0.0831,0.12569 -0.31563,0.35292 -0.46288,0.45229 -0.11985,0.0809 -0.40747,0.22282 -0.45155,0.22282 -0.0177,0 -0.0414,0.009 -0.0527,0.0193 -0.0113,0.0107 -0.12497,0.0369 -0.25269,0.0583 -0.21878,0.0367 -0.24405,0.0369 -0.43643,0.004 -0.46582,-0.0806 -0.81867,-0.366231 -1.074,-0.86953 -0.16722,-0.329631 -0.28779,-0.71858 -0.34016,-1.09736 -0.0356,-0.25748 -0.048,-1.02348 -0.0203,-1.260621 0.0131,-0.11259 0.0335,-0.296839 0.0452,-0.409429 0.0241,-0.23028 0.049,-0.42355 0.0974,-0.754221 0.10308,-0.704539 0.13225,-0.93288 0.1624,-1.27138 0.03,-0.336719 0.0154,-1.30473 -0.0219,-1.454569 -0.0147,-0.0593 -0.0351,-0.141681 -0.0452,-0.18316 -0.0646,-0.265661 -0.13271,-0.44802 -0.26161,-0.70035 -0.0939,-0.183751 -0.25533,-0.420201 -0.28695,-0.420201 -0.0147,0 -0.0431,0.0606 -0.063,0.134681 -0.0199,0.0741 -0.0461,0.16862 -0.0581,0.210109 -0.0121,0.0415 -0.0333,0.120681 -0.0473,0.17599 -0.0139,0.0553 -0.0326,0.10785 -0.0415,0.116731 -0.009,0.009 -0.0161,0.0328 -0.0161,0.0532 0,0.0204 -0.014,0.0842 -0.0312,0.141859 -0.0171,0.0577 -0.0609,0.206651 -0.0972,0.331101 -0.0363,0.124439 -0.0747,0.255359 -0.0853,0.290909 -0.0106,0.0356 -0.0501,0.176171 -0.0876,0.31246 -0.0376,0.1363 -0.0773,0.26466 -0.0882,0.28523 -0.0109,0.0206 -0.0199,0.051 -0.0199,0.0676 0,0.0166 -0.0143,0.0773 -0.0317,0.134981 -0.0175,0.0576 -0.0617,0.206649 -0.0983,0.33109 -0.0366,0.12445 -0.0745,0.241129 -0.0841,0.259299 -0.01,0.0182 -0.0247,0.0666 -0.0335,0.10775 -0.009,0.0411 -0.0225,0.0844 -0.0306,0.0963 -0.008,0.0119 -0.0275,0.0603 -0.0433,0.10775 -0.0158,0.0474 -0.0504,0.13467 -0.0769,0.193939 -0.0266,0.0593 -0.0558,0.131781 -0.065,0.16115 -0.0272,0.0868 -0.24641,0.49633 -0.34045,0.636161 -0.21285,0.31651 -0.46301,0.574109 -0.73697,0.7589 -0.20767,0.140079 -0.27441,0.168549 -0.67878,0.289539 -0.0659,0.0197 -0.22127,0.0289 -0.48486,0.0287 -0.33855,-2.91e-4 -0.4098,-0.007 -0.56027,-0.0495 -0.42254,-0.12055 -0.74656,-0.35804 -0.88987,-0.652229 -0.038,-0.078 -0.0691,-0.155591 -0.0691,-0.172481 0,-0.0543 -0.1049,-0.322 -0.17235,-0.439889 -0.10205,-0.17833 -0.33218,-0.43029 -0.63676,-0.697151 -0.63732,-0.558389 -0.88856,-0.833849 -1.23128,-1.35012 -0.21914,-0.33009 -0.48076,-0.882489 -0.58682,-1.23903 -0.0264,-0.0889 -0.0562,-0.18585 -0.0662,-0.215489 -0.0218,-0.0647 -0.0747,-0.289061 -0.10667,-0.452521 -0.0997,-0.50919 -0.0995,-1.35007 5.3e-4,-1.79935 0.0952,-0.427629 0.14877,-0.609299 0.26703,-0.905789 0.29651,-0.74354 0.71906,-1.423471 1.47936,-2.380501 0.0549,-0.069 0.32217,-0.39062 0.59402,-0.7146 1.39816,-1.66617 1.90336,-2.39681 2.24744,-3.25035 0.0263,-0.0652 0.0562,-0.13791 0.0665,-0.16162 0.0103,-0.0237 0.0481,-0.13294 0.084,-0.24274 0.0638,-0.19544 0.0813,-0.29597 0.049,-0.28161 -0.0163,0.007 -0.11687,0.082 -1.70475,1.2678 -0.48407,0.36148 -0.94217,0.70201 -1.018,0.75672 -0.0758,0.0547 -0.29303,0.2118 -0.48267,0.34908 -0.18963,0.13727 -0.37387,0.26996 -0.40943,0.29485 -0.0356,0.0249 -0.12669,0.0896 -0.20252,0.14375 -0.26959,0.19253 -1.11743,0.757001 -1.46753,0.97703 -0.90247,0.56718 -1.80013,1.05951 -2.56433,1.406401 -0.0652,0.0296 -0.17366,0.0791 -0.24105,0.110139 -0.0674,0.031 -0.12732,0.0563 -0.13318,0.0563 -0.009,0 -0.17611,0.073 -0.34766,0.15183 -0.32046,0.147241 -1.53637,0.552321 -1.97712,0.65868 -0.0682,0.0164 -0.18452,0.045 -0.25859,0.0636 -0.55912,0.139671 -1.23688,0.25503 -1.82628,0.31086 -1.19959,0.11362 -2.46704,0.026 -3.54481,-0.245089 -0.0711,-0.0179 -0.18748,-0.0468 -0.25859,-0.0643 -0.28768,-0.0707 -1.00168,-0.30042 -1.1852,-0.381269 -0.0237,-0.0105 -0.0964,-0.0389 -0.16162,-0.0633 -0.0652,-0.0244 -0.13791,-0.053 -0.16161,-0.0637 -0.0237,-0.0107 -0.14007,-0.0609 -0.25859,-0.11162 -0.25789,-0.110251 -0.90555,-0.430491 -1.13142,-0.559391 -1.03671,-0.59158 -1.77929,-1.09914 -2.73673,-1.870591 -1.02701,-0.82752 -1.974214,-1.70663 -3.393634,-3.14967 -0.72658,-0.7386904 -0.8887,-0.8970304 -1.07778,-1.0527204 -0.49598,-0.40837 -1.13992,-0.793729 -1.73031,-1.03549 l -0.22189,-0.0909 -0.13019,0.14209 c -0.0716,0.0781 -0.14389,0.14208 -0.16062,0.14208 -0.0168,0 -0.0304,0.009 -0.0304,0.0204 0,0.0201 -0.0829,0.0733 -0.15623,0.10013 -0.0207,0.008 -0.0377,0.0215 -0.0377,0.0309 0,0.009 -0.0412,0.024 -0.0916,0.0325 -0.0504,0.008 -0.0985,0.0262 -0.10695,0.0396 -0.0212,0.0334 -0.60248,0.0333 -0.64393,-1.5e-4 -0.0166,-0.0134 -0.0639,-0.0316 -0.10498,-0.0404 -0.087,-0.0186 -0.133,-0.0423 -0.24085,-0.12366 -0.0432,-0.0326 -0.0872,-0.0593 -0.0978,-0.0593 -0.0283,0 -0.22235,-0.20189 -0.22235,-0.23132 0,-0.0138 -0.0121,-0.0329 -0.0269,-0.0424 -0.0308,-0.0197 -0.0704,-0.0792 -0.10484,-0.1573 -0.0131,-0.0296 -0.0326,-0.071 -0.0434,-0.0921 -0.0108,-0.021 -0.0257,-0.0816 -0.0329,-0.13468 -0.007,-0.0531 -0.0216,-0.0965 -0.0319,-0.0965 -0.0102,0 -0.0186,-0.0921 -0.0186,-0.20472 0,-0.11259 0.008,-0.20471 0.0188,-0.20471 z m 0.41541,0.46557 c 0.19867,0.537529 0.8258,0.767249 1.33619,0.489459 0.31871,-0.173469 0.51442,-0.57893 0.45437,-0.941349 -0.12502,-0.754441 -1.05828,-1.04237 -1.58584,-0.48928 -0.24556,0.257449 -0.32405,0.618319 -0.20472,0.94117 z M 119.96558,18.883359 c 0.0519,0.72409 0.0969,1.061261 0.2069,1.55154 0.0514,0.2289 0.12314,0.470031 0.16186,0.54382 0.0108,0.0206 0.0196,0.0478 0.0196,0.0604 0,0.0213 0.0533,0.15147 0.11427,0.27925 0.0698,0.14618 0.20413,0.37097 0.30259,0.506399 0.12851,0.17673 0.39779,0.463301 0.43535,0.463301 0.0752,0 0.12513,-0.36168 0.0935,-0.67701 -0.0118,-0.11753 -0.0306,-0.230831 -0.0418,-0.251781 -0.0112,-0.021 -0.0204,-0.0532 -0.0204,-0.0717 0,-0.0351 -0.20616,-0.56841 -0.29207,-0.75564 -0.14696,-0.32028 -0.2626,-0.628481 -0.31133,-0.829781 -0.0731,-0.302129 -0.0882,-0.404949 -0.0993,-0.6788 -0.0203,-0.50024 0.045,-0.928109 0.22874,-1.497649 0.0339,-0.105201 0.0654,-0.18914 0.15733,-0.420211 0.0626,-0.15724 0.3873,-0.77528 0.52079,-0.991249 0.16071,-0.26001 0.22908,-0.360161 0.57368,-0.840421 0.5633,-0.785039 0.78479,-1.22755 0.8811,-1.760319 0.0312,-0.172351 0.0152,-0.2151 -0.0491,-0.131321 -0.0417,0.0543 -0.23462,0.280941 -1.42704,1.67616 -0.75476,0.883121 -0.96432,1.17436 -1.17172,1.628471 -0.10366,0.226959 -0.10142,0.22064 -0.19371,0.547979 -0.0954,0.33849 -0.13318,1.03568 -0.0893,1.648491 z m 1.44012,0.22458 c 0.008,0.0825 0.0262,0.15286 0.0402,0.15745 0.0139,0.004 0.0559,-0.0191 0.0935,-0.0527 0.1005,-0.0898 0.12863,-0.227609 0.15121,-0.740839 0.0107,-0.244101 0.0296,-0.470181 0.0418,-0.50242 0.0122,-0.0322 0.0223,-0.084 0.0223,-0.115081 0,-0.0944 0.10059,-0.500089 0.1937,-0.78113 0.0579,-0.17468 0.0788,-0.23033 0.14182,-0.37715 0.0153,-0.0356 0.0478,-0.111539 0.0724,-0.168789 0.0709,-0.165351 0.0504,-0.316021 -0.0428,-0.316021 -0.0511,0 -0.12827,0.115361 -0.26446,0.395491 -0.13704,0.281889 -0.15371,0.322359 -0.23649,0.574209 -0.0663,0.20178 -0.0914,0.29388 -0.16728,0.61415 -0.0112,0.0474 -0.0304,0.197271 -0.0427,0.33303 -0.0122,0.13576 -0.0278,0.252131 -0.0347,0.25859 -0.0133,0.0126 0.007,0.475551 0.0315,0.72118 z m 0.62849,2.70365 c 0.0115,0.10209 0.0364,0.321371 0.0554,0.48729 0.0472,0.41289 0.21716,1.24661 0.29003,1.422241 0.01,0.0237 0.0351,0.0939 0.0562,0.156 0.0504,0.14844 0.16822,0.29925 0.28857,0.36934 l 0.097,0.0565 h 0.5495 c 0.57096,0 0.67905,-0.0131 0.93738,-0.11366 0.34111,-0.13277 0.62317,-0.44307 0.77814,-0.85604 0.0311,-0.083 0.0643,-0.170241 0.0736,-0.19395 0.0501,-0.126891 0.12576,-0.5821 0.18258,-1.09899 0.0183,-0.16593 0.0421,-0.350171 0.0531,-0.40943 0.0109,-0.0593 0.0261,-0.161081 0.0337,-0.22627 0.008,-0.0652 0.0223,-0.152461 0.0326,-0.193941 0.0104,-0.0415 0.0349,-0.14815 0.0546,-0.23704 0.1214,-0.54865 0.40046,-1.072059 0.73529,-1.37914 0.0711,-0.0652 0.18307,-0.16431 0.24888,-0.220269 0.17231,-0.14653 0.22093,-0.25712 0.22049,-0.501621 -2.5e-4,-0.140069 -0.012,-0.22387 -0.0422,-0.301689 -0.0626,-0.16106 -0.2625,-0.50551 -0.29373,-0.506131 -0.0287,-5.29e-4 -0.12923,0.179841 -0.33619,0.60311 -0.25155,0.514461 -0.32931,0.68258 -0.32931,0.71199 0,0.0117 -0.009,0.0381 -0.0205,0.0587 -0.0296,0.054 -0.0705,0.156981 -0.16874,0.42531 -0.17773,0.48523 -0.26436,0.77401 -0.44605,1.48688 -0.1877,0.73649 -0.58133,1.223041 -1.1135,1.376361 -0.54988,0.15842 -1.20241,-0.20881 -1.48314,-0.83468 -0.0967,-0.215531 -0.18245,-0.541481 -0.20493,-0.77872 -0.0197,-0.20822 -0.0614,-0.44176 -0.0787,-0.44176 -0.0392,0 -0.12873,0.10449 -0.15692,0.18317 -0.0372,0.103739 -0.0449,0.673479 -0.013,0.956489 z m 1.94096,-9.31693 c 0.0583,0.036 0.2361,-0.16652 0.2361,-0.268869 0,-0.0544 -0.003,-0.0544 -0.10797,-10e-4 -0.11815,0.0603 -0.19734,0.22704 -0.12813,0.26982 z m 0.85564,-0.874069 c 0.0549,-5.3e-4 0.1131,-0.023 0.18143,-0.07 0.50844,-0.35003 1.5381,-1.378381 2.09183,-2.0891714 0.36721,-0.47136 0.43902,-0.63011 0.37299,-0.82457 -0.1321,-0.38906 -0.50019,-0.596299 -1.16978,-0.65862 -0.2621,-0.0244 -0.3948,-0.0143 -0.47444,0.0363 -0.0755,0.0478 -0.0588,0.0664 0.0817,0.0912 0.29378,0.0518 0.56378,0.2526 0.69332,0.51575 0.0681,0.13843 0.0707,0.153221 0.0689,0.39211 -0.002,0.202001 -0.0112,0.27433 -0.052,0.38831 -0.14113,0.39456 -0.25876,0.53504 -1.5791,1.8855404 -0.16223,0.16592 -0.29511,0.308961 -0.29532,0.317851 -1.9e-4,0.009 0.036,0.0158 0.0804,0.0154 z m 2.21955,1.957719 c 0.0469,-0.009 0.0666,-0.1253 0.0212,-0.1253 -0.0433,0 -0.0589,0.0215 -0.0589,0.0806 0,0.0378 0.0102,0.0499 0.0377,0.0447 z M 105.29357,8.1114586 c 0.0197,-0.0965 0.10639,-0.181219 0.18431,-0.180139 0.0336,4.49e-4 0.27449,0.0108 0.53523,0.023 1.19365,0.0557 1.83937,0.0741 2.16674,0.0617 0.19497,-0.007 0.6648,-0.0234 1.04406,-0.0354 0.37927,-0.0121 0.77685,-0.0315 0.88351,-0.0431 0.10667,-0.0116 0.32486,-0.027 0.48486,-0.0341 0.16,-0.007 0.30779,-0.0178 0.32843,-0.0236 0.0206,-0.006 0.19518,-0.0244 0.38788,-0.0415 1.09537,-0.0966 1.74833,-0.198641 2.16048,-0.337691 0.4609,-0.1555 0.64329,-0.278449 1.099,-0.740779 0.37571,-0.381171 0.49997,-0.480941 0.73379,-0.589171 0.43412,-0.20094 1.02227,-0.22852 1.38339,-0.0649 0.08,0.0363 0.17816,0.097 0.21813,0.1349 0.0816,0.0775 0.15247,0.21418 0.153,0.295251 10e-4,0.165999 -0.12348,0.356259 -0.24721,0.37759 -0.0586,0.0101 -0.0744,-10e-4 -0.16846,-0.122161 -0.0571,-0.0733 -0.12756,-0.18018 -0.1566,-0.23747 -0.0328,-0.0648 -0.0669,-0.104 -0.0901,-0.10373 -0.0505,5.51e-4 -0.33392,0.17592 -0.53336,0.32993 -0.28797,0.2224 -0.62365,0.653831 -0.76045,0.97735 -0.0636,0.150291 -0.062,0.156631 0.0335,0.13361 0.0444,-0.0107 0.14868,-0.0349 0.23165,-0.0539 0.083,-0.019 0.20902,-0.0484 0.28013,-0.0655 0.0711,-0.0171 0.18993,-0.045 0.26405,-0.062 0.0741,-0.017 0.19775,-0.0456 0.27475,-0.0636 0.077,-0.018 0.20061,-0.0465 0.27468,-0.0634 0.56169,-0.1283 0.71939,-0.16869 0.84896,-0.21743 0.55995,-0.21062 1.03628,-0.64907 1.65007,-1.51883 0.239,-0.3386697 0.32735,-0.4899997 0.372,-0.6371897 0.0561,-0.1849 0.0441,-0.25662 -0.0858,-0.51471 -0.14027,-0.27857 -0.15288,-0.37704 -0.0621,-0.48495 0.061,-0.0725 0.15637,-0.13017 0.21519,-0.13017 0.0202,0 0.11522,0.0809 0.21117,0.17981 0.20774,0.21413 0.37207,0.30189 0.8568,0.45761 0.81677,0.26239 1.00231,0.37604 1.17779,0.72143 0.0692,0.13616 0.0984,0.1705597 0.19386,0.2279597 0.14612,0.0879 0.35988,0.13287 0.69349,0.14594 0.38923,0.0152 0.56053,0.084 0.67961,0.27259 0.0397,0.0629 0.0531,0.1138 0.0531,0.20198 0,0.11243 -0.005,0.12282 -0.1055,0.22342 -0.15433,0.15433 -0.18254,0.22026 -0.18166,0.4245 0.001,0.2465 0.0748,0.3854 0.35197,0.66324 0.23952,0.24008 0.24037,0.231881 -0.0284,0.27502 -0.30151,0.0484 -0.62366,-0.008 -1.29698,-0.22718 -0.083,-0.027 -0.22357,-0.0705 -0.31246,-0.0966 -0.0889,-0.0261 -0.19071,-0.0562 -0.22627,-0.0668 -0.17553,-0.0525 -0.37086,-0.0888 -0.69756,-0.12964 -0.30724,-0.0384 -0.43517,-0.0433 -0.89706,-0.0338 -0.76566,0.0157 -1.45504,0.1102 -2.3704,0.32509 -0.0711,0.0167 -0.19232,0.0451 -0.26936,0.0632 -0.1864,0.0437 -1.1752,0.2958 -1.48688,0.37901 -0.1363,0.0364 -0.36418,0.0959 -0.5064,0.13232 -0.14223,0.0364 -0.27314,0.0727 -0.29091,0.0807 -0.0372,0.0168 0.39863,0.0298 2.13335,0.064 0.68148,0.0134 1.48149,0.0343 1.77779,0.0464 0.2963,0.0121 0.99449,0.028 1.55153,0.0354 1.32631,0.0176 1.61234,0.0318 1.72319,0.0858 0.047,0.0229 0.10014,0.0678 0.11808,0.0999 0.0304,0.0543 0.0287,0.0662 -0.0243,0.17438 -0.0774,0.15779 -0.25409,0.365261 -0.40689,0.47774 -0.10985,0.0809 -0.41884,0.24636 -0.54814,0.29357 -0.50687,0.18508 -1.16729,0.19448 -2.09025,0.0298 -0.10667,-0.019 -0.26667,-0.0477 -0.35556,-0.0636 -0.72341,-0.129969 -1.39708,-0.219209 -2.03638,-0.26976 -0.15407,-0.0122 -0.39911,-0.0317 -0.54452,-0.0434 -0.32318,-0.0259 -0.52216,-0.0272 -0.52216,-0.003 0,0.0189 0.4695,0.16546 0.76888,0.24 0.60981,0.15182 1.10754,0.21374 2.07559,0.2582 0.34982,0.0161 0.46522,0.0291 0.55449,0.0625 0.49941,0.18711 0.64215,0.6557014 0.27641,0.9073404 -0.10198,0.0702 -0.44607,0.194811 -0.53777,0.194811 -0.0561,0 -0.0783,0.0484 -0.0345,0.0754 0.0332,0.0205 0.0256,0.13445 -0.0141,0.21117 -0.066,0.12753 -0.12522,0.190779 -0.26603,0.28384 -0.21686,0.14333 -0.18591,0.13164 -1.2283,0.46387 -0.19555,0.0623 -0.43798,0.140049 -0.53872,0.17271 -0.33991,0.1102 -0.67804,0.2136 -0.80722,0.24683 -0.33626,0.0865 -0.58309,-0.004 -0.6738,-0.24724 -0.0344,-0.0921 -0.0368,-0.13421 -0.0195,-0.33804 0.0109,-0.12808 0.0206,-0.426801 0.0217,-0.66384 0.002,-0.43009 -0.0142,-0.56202 -0.0979,-0.79732 -0.14517,-0.4082904 -0.42527,-0.7546204 -0.74576,-0.9221104 -0.16543,-0.0864 -0.30788,-0.132741 -0.55441,-0.18015 -0.0948,-0.0182 -0.24027,-0.0467 -0.32323,-0.0632 -0.2096,-0.0418 -0.48378,-0.0918 -0.70034,-0.12784 -0.10075,-0.0168 -0.20741,-0.0352 -0.23705,-0.041 -0.10513,-0.0207 -0.50894,-0.0806 -0.67879,-0.10075 -0.0948,-0.0112 -0.1895,-0.0257 -0.21041,-0.0322 -0.0722,-0.0224 -0.97683,-0.12524 -1.48628,-0.16887 -0.19836,-0.017 -0.36806,-0.0354 -0.37711,-0.0408 -0.009,-0.005 -0.1716,-0.0166 -0.36124,-0.0248 -0.18963,-0.008 -0.40781,-0.0244 -0.48485,-0.0361 -0.0774,-0.0117 -0.8633,-0.0258 -1.75624,-0.0314 -1.7922,-0.0113 -1.77825,-0.0102 -1.917,-0.14897 -0.0764,-0.0764 -0.0973,-0.1517 -0.0739,-0.26619 z m 16.77142,-3.4156595 c 0.0894,-0.0424 0.2696,-0.0452 0.36443,-0.006 0.0956,0.0399 0.20875,0.1574499 0.20875,0.2167699 0,0.0667 -0.0794,0.0988 -0.2446,0.0988 -0.11172,0 -0.15171,-0.0107 -0.23323,-0.0624 -0.0984,-0.0624 -0.16864,-0.14059 -0.16864,-0.1877499 0,-0.0138 0.033,-0.0408 0.0733,-0.0599 z m 0.4385,0.5825099 c 0.15455,-0.079 0.32885,-0.0484 0.4151,0.0727 0.0589,0.0827 0.0538,0.12215 -0.0208,0.16068 -0.12168,0.0629 -0.28286,0.0306 -0.40511,-0.0811 -0.0651,-0.0595 -0.0611,-0.1154601 0.0108,-0.1522 z m 0.20137,-1.35914 c 0.0582,-0.049 0.0826,-0.0552 0.19194,-0.0488 0.071,0.004 0.14987,0.0235 0.18209,0.0446 0.0697,0.0456 0.10876,0.13614 0.0759,0.17574 -0.0324,0.0391 -0.40985,0.0657 -0.47055,0.0332 -0.0708,-0.0379 -0.0609,-0.13609 0.0207,-0.20471 z m 0.6806,0.79774 c 0.14123,-0.0481 0.24561,-0.0435 0.33208,0.0148 0.0953,0.0642 0.12633,0.14933 0.0829,0.22707 -0.0272,0.0486 -0.0493,0.0589 -0.13935,0.0648 -0.20946,0.0137 -0.37642,-0.0753 -0.37642,-0.20046 0,-0.0663 0.008,-0.0745 0.10082,-0.1061799 z m 0.0463,0.7339901 c 0.0587,-0.0532 0.24944,-0.0485 0.30538,0.007 0.0569,0.0569 0.0546,0.1382205 -0.005,0.1951305 -0.041,0.0389 -0.0662,0.0442 -0.16311,0.0346 -0.063,-0.006 -0.1285,-0.0229 -0.14546,-0.037 -0.0439,-0.0364 -0.0386,-0.1574205 0.009,-0.2001405 z m 6.64367,15.9806409 c 0.0324,-0.0319 0.14492,-0.0352 0.22068,-0.006 0.0671,0.0255 0.10728,0.0971 0.091,0.1621 -0.0159,0.0635 -0.14766,0.12917 -0.20138,0.10041 -0.10076,-0.0539 -0.16468,-0.20238 -0.11027,-0.25608 z m 0.57895,-0.587211 c 0.049,-0.049 0.0622,-0.0512 0.13763,-0.0225 0.11725,0.0446 0.15695,0.26795 0.0656,0.36893 -0.0487,0.0538 -0.078,0.0522 -0.13228,-0.007 -0.11357,-0.12421 -0.1434,-0.26692 -0.0709,-0.339389 z m 0.0431,-1.0559 c 0.10537,-0.10537 0.33213,-0.0174 0.32802,0.12719 -0.002,0.0803 -0.0311,0.121611 -0.11528,0.165141 -0.0833,0.0431 -0.1135,0.0391 -0.18954,-0.0249 -0.0532,-0.0448 -0.0663,-0.0724 -0.0663,-0.14007 0,-0.0556 0.0147,-0.099 0.0431,-0.12738 z m 0.57464,0.81168 c 0.008,-0.008 0.0512,-0.0144 0.0962,-0.0144 0.0608,0 0.10142,0.0172 0.15803,0.0669 0.0643,0.0565 0.0762,0.0808 0.0762,0.15682 0,0.0977 -0.0475,0.18574 -0.10025,0.18574 -0.057,0 -0.15749,-0.0863 -0.20192,-0.17335 -0.0421,-0.0824 -0.0562,-0.19374 -0.0282,-0.22172 z"
       id="path2584" />
    <path
       style="fill:#f7ab7d;fill-opacity:1;stroke-width:0.021549"
       d="m 92.854666,127.90223 c 0.0103,0 0.0252,0.0485 0.0331,0.10774 0.008,0.0593 0.0236,0.10775 0.0351,0.10775 0.0114,0 0.0208,0.0229 0.0208,0.051 0,0.028 0.0194,0.0756 0.0431,0.10575 0.0237,0.0301 0.0431,0.0654 0.0431,0.0783 0,0.013 0.01,0.0235 0.0222,0.0235 0.0122,0 0.0281,0.017 0.0353,0.0377 0.0158,0.0455 0.20223,0.24242 0.22942,0.24242 0.0106,0 0.0546,0.0267 0.0978,0.0593 0.10785,0.0814 0.15388,0.10503 0.24084,0.12366 0.0411,0.009 0.0867,0.0257 0.10138,0.0374 0.0147,0.0118 0.041,0.016 0.0586,0.009 0.0176,-0.007 0.0377,-0.003 0.0446,0.008 0.0159,0.0257 0.41282,0.0275 0.42861,0.002 0.006,-0.0102 0.036,-0.014 0.0659,-0.008 0.0299,0.006 0.0544,5.4e-4 0.0544,-0.0112 0,-0.0119 0.0436,-0.0282 0.097,-0.0362 0.0533,-0.008 0.097,-0.0225 0.097,-0.0322 0,-0.01 0.017,-0.0239 0.0377,-0.0315 0.0733,-0.0269 0.15623,-0.08 0.15623,-0.10012 0,-0.0112 0.0135,-0.0204 0.03,-0.0204 0.035,0 0.25416,-0.23084 0.30174,-0.31776 0.04,-0.0731 0.0779,-0.15326 0.0992,-0.21019 0.0606,-0.16133 0.0608,-0.16162 0.14369,-0.16162 0.044,0 0.13389,-0.01 0.1998,-0.0216 0.0659,-0.0119 0.24102,-0.037 0.38917,-0.0559 0.2828,-0.036 0.57715,-0.0766 0.93739,-0.12938 0.11851,-0.0173 0.31246,-0.0454 0.43097,-0.0623 0.11853,-0.0169 0.31004,-0.0457 0.4256,-0.064 0.11556,-0.0183 0.2998,-0.0473 0.40943,-0.0645 0.10963,-0.0172 0.29145,-0.0468 0.40405,-0.0657 0.11258,-0.019 0.29683,-0.0494 0.40943,-0.0677 0.11259,-0.0183 0.28229,-0.0466 0.37711,-0.0628 0.0948,-0.0163 0.29026,-0.0483 0.43433,-0.0712 0.14407,-0.0229 0.278434,-0.0509 0.298594,-0.0621 0.0435,-0.0244 0.0538,-0.023 -1.056164,-0.1436 -0.16593,-0.018 -0.43745,-0.0476 -0.60337,-0.0658 -0.16593,-0.0182 -0.42015,-0.0456 -0.56493,-0.061 -0.14477,-0.0154 -0.27032,-0.0351 -0.27899,-0.0437 -0.0191,-0.0191 0.0763,-0.11791 1.25335,-1.29769 1.05487,-1.05731 1.684744,-1.6487 2.445814,-2.29643 0.20422,-0.17381 0.45591,-0.38009 0.54907,-0.45001 0.0395,-0.0296 0.17693,-0.13667 0.30546,-0.23788 0.20431,-0.16087 0.46749,-0.3553 0.76948,-0.56848 0.99335,-0.70125 2.17894,-1.34673 3.25683,-1.77317 0.54156,-0.21425 1.44005,-0.49592 1.83167,-0.57421 0.0356,-0.007 0.15676,-0.0329 0.26936,-0.0575 0.37309,-0.0812 0.79072,-0.14305 1.32526,-0.19635 0.31014,-0.0309 1.4,-0.0308 1.70237,2.2e-4 1.03747,0.10636 1.76783,0.26378 2.75828,0.59451 0.37529,0.12532 0.79269,0.28559 1.12055,0.43026 0.0711,0.0314 0.15794,0.0688 0.19296,0.0831 0.18357,0.0751 1.15293,0.56603 1.50929,0.76437 0.9546,0.53128 2.33365,1.42708 3.38873,2.20125 0.0741,0.0544 0.23894,0.17391 0.36633,0.26566 0.1274,0.0918 0.85709,0.62323 1.62154,1.18105 1.50876,1.10094 1.56989,1.14394 1.67865,1.18084 0.27684,0.0939 0.69426,-0.10008 0.897,-0.41691 0.0795,-0.12421 0.13953,-0.3128 0.13953,-0.43834 0,-0.30359 -0.20931,-0.74738 -0.53519,-1.13473 -0.0598,-0.0711 -0.10117,-0.13202 -0.0919,-0.13535 0.0498,-0.0178 0.72945,0.45435 0.98401,0.68353 0.34243,0.30828 0.56886,0.66648 0.64459,1.01976 0.0331,0.15432 0.0332,0.18014 0.002,0.334 -0.0824,0.39934 -0.3614,0.76109 -0.72285,0.93732 -0.13092,0.0638 -0.15555,0.0683 -0.37711,0.0691 -0.20914,5.3e-4 -0.24845,-0.005 -0.33401,-0.0506 -0.0973,-0.0515 -1.00312,-0.6584 -1.78857,-1.19826 -1.1162,-0.76721 -2.19902,-1.48004 -2.85664,-1.88054 -0.89688,-0.54623 -1.59992,-0.92346 -2.51858,-1.35142 -0.61234,-0.28527 -1.58799,-0.6459 -2.15616,-0.797 -0.0593,-0.0158 -0.18532,-0.0496 -0.28013,-0.0751 -0.1783,-0.0481 -0.24008,-0.0629 -0.49563,-0.11919 -2.06865,-0.45546 -4.34165,-0.41132 -6.48626,0.12595 -0.0711,0.0178 -0.17293,0.0432 -0.22626,0.0564 -0.45697,0.11332 -1.41363,0.43298 -1.77779,0.59404 -0.0356,0.0157 -0.12283,0.0521 -0.19394,0.0808 -0.40034,0.1617 -1.19606,0.56151 -1.61617,0.81205 -1.01393,0.60469 -1.73186,1.1586 -2.51221,1.93825 -0.66812,0.66752 -0.91962,0.98809 -1.08311,1.3805 -0.12614,0.30277 -0.13013,0.59422 -0.0118,0.85786 0.17603,0.39201 0.51708,0.58663 0.9486,0.54133 0.63202,-0.0663 0.9064,-0.11198 1.29011,-0.21463 0.1363,-0.0365 0.28661,-0.0756 0.33401,-0.0871 0.0474,-0.0114 0.10559,-0.0297 0.1293,-0.0406 0.0237,-0.0109 0.11582,-0.0444 0.20471,-0.0744 0.66483,-0.2243 1.64501,-0.69082 2.58588,-1.23076 0.30222,-0.17343 0.60283,-0.34521 0.66802,-0.38172 0.0652,-0.0365 0.15246,-0.0876 0.19394,-0.11357 0.14221,-0.089 0.93737,-0.54255 1.30371,-0.74365 0.37774,-0.20734 1.31125,-0.6677 1.35396,-0.6677 0.006,0 0.0727,-0.0279 0.14758,-0.0619 0.14886,-0.0677 0.5351,-0.21328 0.73956,-0.27872 0.28584,-0.0915 0.35456,-0.11161 0.5926,-0.17341 0.78219,-0.2031 1.5051,-0.2421 2.01871,-0.10892 0.24297,0.063 0.51075,0.19867 0.64986,0.32923 0.10751,0.10089 0.24055,0.27743 0.24055,0.31919 0,0.0444 -0.60802,0.40411 -0.95893,0.56733 -0.27999,0.13023 -0.75875,0.30723 -0.99674,0.3685 -0.0623,0.016 -0.16895,0.044 -0.23704,0.0621 -0.55303,0.14719 -1.18276,0.21381 -1.85851,0.19663 -0.61511,-0.0157 -0.68962,-0.0328 -0.46869,-0.10779 0.0622,-0.0211 0.13253,-0.0472 0.15623,-0.0579 0.12259,-0.0555 1.08313,-0.3573 1.40068,-0.44015 0.49391,-0.12888 0.65689,-0.16925 0.87274,-0.21618 0.1363,-0.0296 0.31085,-0.0678 0.38788,-0.0848 0.12814,-0.0284 0.30732,-0.0642 0.45792,-0.0917 0.0326,-0.006 0.0593,-0.0219 0.0593,-0.0355 0,-0.036 -0.24422,-0.19473 -0.43098,-0.28008 -0.30915,-0.14128 -0.48237,-0.17522 -0.89428,-0.17522 -0.29471,0 -0.39583,0.008 -0.51718,0.0414 -0.15021,0.0412 -0.37711,0.13081 -0.37711,0.14885 0,0.0185 0.46492,0.15419 0.73805,0.21548 0.0563,0.0126 0.10237,0.0307 0.10237,0.0403 0,0.009 -0.1188,0.018 -0.26398,0.0189 -0.25897,0.002 -0.34927,0.0108 -0.60876,0.0624 -0.62591,0.12439 -1.32186,0.50179 -1.73607,0.94145 -0.13968,0.14825 -0.23567,0.26453 -0.23567,0.2855 0,0.0211 0.13056,0.058 0.31246,0.0883 1.33592,0.22235 2.672,0.0989 3.87565,-0.35814 0.28915,-0.10979 0.29902,-0.1141 0.61744,-0.26946 0.5141,-0.25084 0.9406,-0.52947 1.21242,-0.79207 0.19531,-0.18868 0.28373,-0.31796 0.35324,-0.51647 0.21088,-0.60222 -0.30314,-1.27243 -1.1348,-1.47962 -0.14237,-0.0354 -0.78777,-0.0517 -0.88081,-0.0222 -0.0234,0.007 -0.11845,0.0264 -0.21119,0.0422 -0.48983,0.0833 -1.79379,0.53026 -2.65752,0.91092 -0.0652,0.0287 -0.13792,0.0606 -0.16162,0.0709 -0.0237,0.0102 -0.12552,0.0566 -0.22627,0.10306 -0.10074,0.0464 -0.2462,0.11261 -0.32323,0.14705 -0.68835,0.30774 -1.82075,0.93471 -2.65053,1.46751 -0.65345,0.41958 -1.2781,0.78344 -1.72507,1.00487 -0.46711,0.23139 -0.48263,0.23848 -0.72074,0.32893 -0.22474,0.0854 -0.43314,0.15009 -0.61414,0.19072 -0.0889,0.0199 -0.19672,0.0454 -0.23962,0.0566 -0.0429,0.0112 -0.20616,0.0311 -0.3628,0.0442 -0.45222,0.0378 -0.84802,-0.009 -1.2508,-0.1494 l -0.11852,-0.0412 0.004,-0.11598 c 0.008,-0.24404 0.14963,-0.62579 0.34402,-0.92714 0.36888,-0.57189 0.97101,-1.12358 1.90327,-1.74387 0.29542,-0.19656 0.74326,-0.4726 0.76672,-0.4726 0.006,0 0.051,-0.0255 0.10039,-0.0566 0.0958,-0.0604 0.74714,-0.3895 0.99766,-0.50398 0.083,-0.0379 0.2963,-0.12653 0.47409,-0.19693 0.17777,-0.0704 0.34262,-0.13692 0.36633,-0.14781 0.0888,-0.0407 0.7263,-0.25409 0.95893,-0.32084 0.0889,-0.0255 0.19071,-0.0552 0.22626,-0.0659 0.0748,-0.0226 0.61875,-0.15339 0.84041,-0.20207 0.56116,-0.12324 1.37788,-0.2318 2.0425,-0.2715 0.7149,-0.0427 1.85909,-0.02 1.3693,0.0271 -0.32361,0.0312 -1.00256,0.13189 -1.34309,0.19926 -0.53812,0.10645 -0.64618,0.13063 -1.099,0.24587 -0.32676,0.0831 -0.58067,0.15363 -0.70034,0.19437 -0.0296,0.0101 -0.1266,0.039 -0.21549,0.0642 -0.0889,0.0252 -0.17649,0.0538 -0.19465,0.0635 -0.0182,0.01 -0.0663,0.025 -0.10704,0.0339 -0.0407,0.009 -0.0889,0.0242 -0.10704,0.034 -0.0181,0.01 -0.12515,0.0484 -0.23774,0.086 -0.1126,0.0375 -0.23381,0.0802 -0.26936,0.0949 -0.0356,0.0146 -0.14708,0.0587 -0.24782,0.098 -0.42402,0.16527 -0.96665,0.4051 -1.39467,0.61642 -1.27288,0.62844 -2.07963,1.28774 -2.48862,2.03376 -0.0556,0.10147 -0.16666,0.38051 -0.21007,0.52794 -0.0264,0.0896 -0.0653,0.42395 -0.0513,0.44038 0.0128,0.0151 0.43581,-0.0359 0.58901,-0.071 0.26625,-0.0609 0.3348,-0.08 0.52795,-0.1467 0.69551,-0.24026 1.2395,-0.59061 1.76979,-1.13983 0.23577,-0.24418 0.55671,-0.70704 0.51747,-0.74628 -0.009,-0.009 -0.12507,-0.0163 -0.25764,-0.016 -0.28682,5.3e-4 -0.48472,0.0519 -0.70777,0.18312 -0.14036,0.0826 -0.34239,0.2648 -0.38795,0.34993 -0.0219,0.0409 -0.0179,0.0421 0.0927,0.0279 0.0636,-0.008 0.14464,-0.0238 0.1802,-0.0348 0.0356,-0.011 0.13252,-0.0409 0.21549,-0.0666 0.083,-0.0257 0.20758,-0.0751 0.27693,-0.10977 0.0694,-0.0347 0.13046,-0.0587 0.1358,-0.0533 0.0164,0.0164 -0.20591,0.27474 -0.38902,0.45207 -0.20054,0.19419 -0.61117,0.47863 -0.85004,0.58882 -0.0907,0.0418 -0.19402,0.0897 -0.22957,0.10624 -0.27975,0.13055 -1.08823,0.30363 -1.08823,0.23297 0,-0.008 0.0752,-0.097 0.16701,-0.1988 0.77045,-0.85397 1.68574,-1.57657 2.75266,-2.17317 0.28269,-0.15807 0.8948,-0.45047 1.20696,-0.57656 0.10668,-0.0431 0.21334,-0.0865 0.23704,-0.0966 0.20536,-0.0869 0.78925,-0.2774 1.15287,-0.37609 0.43273,-0.11744 0.43241,-0.11736 0.56028,-0.14383 0.0652,-0.0135 0.18155,-0.0381 0.25859,-0.0546 0.74941,-0.16087 1.49771,-0.23342 2.41349,-0.23401 1.1141,-5.6e-4 2.04596,0.10973 3.07612,0.36463 0.0741,0.0183 0.19044,0.0471 0.25859,0.064 0.0681,0.0169 0.17239,0.045 0.23165,0.0625 0.0593,0.0175 0.19502,0.0575 0.30169,0.0888 0.27631,0.0811 0.89227,0.29652 1.07745,0.37683 0.0237,0.0103 0.12769,0.0538 0.23109,0.0968 0.28265,0.11737 0.48555,0.21205 0.88946,0.41508 0.94717,0.47609 1.70912,0.98314 2.7132,1.80553 0.98501,0.80676 1.29748,1.05014 1.71512,1.33585 1.13996,0.77987 2.19878,1.15475 3.26467,1.15587 0.97314,10e-4 1.71013,-0.29917 2.24817,-0.91573 0.38641,-0.44279 0.58738,-0.93685 0.58821,-1.44605 5.3e-4,-0.48803 -0.16529,-0.86768 -0.53196,-1.216 -0.26891,-0.25542 -0.62641,-0.46524 -1.23774,-0.72643 -0.0414,-0.0177 -0.0948,-0.0407 -0.11852,-0.0512 -0.0237,-0.0104 -0.174,-0.074 -0.33401,-0.1413 -0.59312,-0.2494 -0.95354,-0.46122 -1.24675,-0.7327 -0.25158,-0.23292 -0.37428,-0.41435 -0.50169,-0.74184 -0.0385,-0.099 -0.0387,-0.46054 -2.7e-4,-0.56028 0.1096,-0.28446 0.26751,-0.47163 0.48226,-0.57161 0.13184,-0.0614 0.35952,-0.0727 0.47681,-0.0237 0.19391,0.081 0.33713,0.30599 0.33713,0.52958 0,0.18239 -0.0733,0.29468 -0.23583,0.36148 -0.10002,0.0411 -0.1911,0.12796 -0.22924,0.21865 -0.0971,0.23081 0.0512,0.58073 0.29933,0.70646 0.0986,0.05 0.12729,0.0544 0.29375,0.0454 0.14799,-0.008 0.20673,-0.0218 0.29713,-0.0699 0.30139,-0.16031 0.52302,-0.53216 0.52302,-0.87756 0,-0.11662 -0.0585,-0.41465 -0.10906,-0.55586 -0.0149,-0.0415 -0.0882,-0.19615 -0.16299,-0.3437 -0.0748,-0.14756 -0.13153,-0.27272 -0.1261,-0.27814 0.0178,-0.0178 0.44795,0.15077 0.65674,0.25745 1.06169,0.54245 1.86233,1.60152 2.00909,2.65757 0.008,0.0548 0.0596,0.071 0.0596,0.0186 0,-0.0223 0.008,-0.0498 0.0187,-0.0611 0.0103,-0.0113 0.0413,-0.10775 0.069,-0.21441 0.0437,-0.16888 0.0501,-0.24268 0.0487,-0.57105 -10e-4,-0.20741 -0.0119,-0.42074 -0.0245,-0.47408 -0.0581,-0.24539 -0.074,-0.30044 -0.12766,-0.44175 -0.35694,-0.93983 -1.18319,-1.72422 -2.09684,-1.99066 -0.0884,-0.0258 -0.1899,-0.056 -0.22546,-0.0672 -0.0935,-0.0294 -0.47146,-0.0733 -0.64108,-0.0745 -0.08,-5.6e-4 -0.14546,-0.007 -0.14546,-0.0144 0,-0.007 0.0703,-0.0801 0.15623,-0.16164 0.364,-0.34535 0.79019,-0.55054 1.76163,-0.84815 0.60172,-0.18434 1.00457,-0.34344 1.31559,-0.51957 0.67342,-0.38135 0.99505,-0.90615 0.89705,-1.46364 -0.0568,-0.32333 -0.2061,-0.58306 -0.43388,-0.75505 -0.1254,-0.0947 -0.3354,-0.17079 -0.47196,-0.17106 -0.0671,-1.2e-4 -0.0806,-0.007 -0.0699,-0.0345 0.007,-0.0189 0.0191,-0.0601 0.0263,-0.0916 0.007,-0.0315 0.0355,-0.12514 0.0628,-0.2081 0.0273,-0.083 0.0897,-0.28176 0.13861,-0.44176 0.0489,-0.16 0.0984,-0.31365 0.10995,-0.34144 0.0173,-0.0416 0.002,-0.0905 -0.0886,-0.27661 -0.1787,-0.36862 -0.37169,-0.66022 -0.63315,-0.95666 -0.11942,-0.1354 -0.54868,-0.53569 -0.57545,-0.53662 -0.007,-2.6e-4 -0.009,0.25408 -0.003,0.56519 0.0113,0.61395 -0.0254,1.1649 -0.10238,1.53537 -0.0123,0.0593 -0.033,0.16108 -0.046,0.22627 -0.0354,0.17765 -0.10424,0.47626 -0.12665,0.5495 -0.0109,0.0356 -0.0448,0.14707 -0.0754,0.24781 -0.083,0.27329 -0.219,0.64528 -0.26968,0.73776 -0.0113,0.0206 -0.0205,0.0488 -0.0205,0.0627 0,0.0397 -0.33547,0.71632 -0.47925,0.96659 -0.60577,1.05438 -1.51857,2.06429 -2.49126,2.75629 -0.0871,0.062 -0.16351,0.1075 -0.16982,0.1012 -0.006,-0.006 -5.3e-4,-0.21787 0.0129,-0.47016 0.0322,-0.60569 0.0295,-1.13992 -0.009,-1.78396 -0.0422,-0.7069 -0.0706,-1.09618 -0.0857,-1.17442 -0.007,-0.0356 -0.0263,-0.18586 -0.0432,-0.33401 -0.0366,-0.3211 -0.0796,-0.60797 -0.16943,-1.13133 -0.0647,-0.37658 -0.25722,-1.24213 -0.33062,-1.48606 -0.0173,-0.0574 -0.021,-0.0596 -0.0367,-0.0216 -0.01,0.0232 -0.0303,0.0956 -0.046,0.16079 -0.0766,0.31784 -0.20256,0.82071 -0.21491,0.85772 -0.006,0.0181 -0.0382,-0.002 -0.0904,-0.0568 -0.0648,-0.0679 -0.10611,-0.09 -0.20639,-0.11072 -0.23261,-0.048 -0.45995,0.0198 -0.57054,0.17001 -0.10561,0.14349 -0.13806,0.25748 -0.13851,0.48657 -2.3e-4,0.11853 0.01,0.25428 0.0224,0.30169 0.0126,0.0474 0.0383,0.15893 0.057,0.24782 0.0188,0.0889 0.0431,0.19555 0.054,0.23703 0.011,0.0415 0.0403,0.1724 0.0652,0.29091 0.0249,0.11853 0.0539,0.24943 0.0645,0.29092 0.0106,0.0414 0.0493,0.21118 0.086,0.37711 0.0367,0.16592 0.0756,0.33562 0.0863,0.3771 0.0108,0.0415 0.0356,0.153 0.0552,0.24781 0.0196,0.0948 0.0436,0.19664 0.0534,0.22627 0.01,0.0296 0.0239,0.0927 0.0314,0.14007 0.008,0.0474 0.0224,0.11529 0.0329,0.15084 0.0106,0.0356 0.0335,0.13253 0.051,0.21549 0.0423,0.20075 0.16187,0.73494 0.18571,0.82964 0.0105,0.0415 0.0493,0.21118 0.0862,0.37711 0.037,0.16592 0.0759,0.33562 0.0865,0.3771 0.0106,0.0415 0.0345,0.14815 0.0533,0.23704 0.0187,0.0889 0.0425,0.19072 0.0529,0.22627 0.0104,0.0356 0.0251,0.10344 0.0329,0.15084 0.008,0.0474 0.0229,0.11529 0.0335,0.15085 0.0107,0.0356 0.0354,0.14222 0.055,0.23704 0.0491,0.23812 0.0929,0.43554 0.12082,0.54473 0.0129,0.0507 0.0184,0.0974 0.0121,0.10367 -0.0262,0.0262 -0.52781,-0.69266 -0.73801,-1.05784 -0.28522,-0.4955 -0.55973,-1.08707 -0.70998,-1.52998 -0.0321,-0.0948 -0.067,-0.19178 -0.0773,-0.21549 -0.0224,-0.0511 -0.11683,-0.36894 -0.1505,-0.5064 -0.0131,-0.0533 -0.0382,-0.15515 -0.0557,-0.22626 -0.10033,-0.40593 -0.17236,-0.8326 -0.22555,-1.33604 -0.0375,-0.35555 -0.0491,-1.09512 -0.0215,-1.36837 0.0594,-0.58548 0.0901,-0.80935 0.15383,-1.12054 0.17667,-0.86268 0.33568,-1.26692 0.59446,-1.51131 0.1319,-0.12458 0.24872,-0.18574 0.42383,-0.22191 0.14615,-0.0302 0.17915,-0.0303 0.3167,-0.002 0.20362,0.0428 0.3214,0.12472 0.39341,0.27354 0.0304,0.0628 0.11036,0.26456 0.17768,0.44826 0.0673,0.18371 0.13109,0.35341 0.14172,0.37711 0.0225,0.0502 0.12243,0.32 0.14763,0.39866 0.009,0.0296 0.0773,0.21387 0.15074,0.40943 0.16894,0.45003 0.18321,0.48787 0.22343,0.5926 0.0182,0.0474 0.11192,0.29953 0.20825,0.56028 0.0963,0.26073 0.18435,0.49091 0.19559,0.51149 0.0112,0.0206 0.0204,0.0482 0.0204,0.0614 0,0.0132 0.0134,0.0545 0.0298,0.0919 0.0164,0.0373 0.0615,0.15517 0.10024,0.26184 0.0961,0.26448 0.16039,0.39666 0.23963,0.49279 0.20358,0.24698 0.47958,0.25151 0.69646,0.0114 0.23055,-0.25518 0.70772,-1.11966 0.87306,-1.58168 0.0382,-0.10667 0.0774,-0.21334 0.0871,-0.23704 0.0846,-0.20577 0.20848,-0.71632 0.26922,-1.10978 0.12312,-0.79742 0.10779,-1.40877 -0.0646,-2.5751 -0.0332,-0.22496 -0.0831,-0.57549 -0.12109,-0.85119 -0.0123,-0.0889 -0.0303,-0.24404 -0.0403,-0.34478 -0.0241,-0.2457 -0.0128,-1.15256 0.0157,-1.26062 0.0125,-0.0474 0.0392,-0.15892 0.0593,-0.24782 0.0779,-0.34405 0.20116,-0.64533 0.3433,-0.83896 0.24224,-0.32999 0.70097,-0.60557 1.0064,-0.60458 0.17217,5.3e-4 0.37225,0.0948 0.49894,0.23505 0.13126,0.14528 0.1907,0.30665 0.23957,0.65031 0.0192,0.13515 0.0458,0.31361 0.0592,0.39657 0.0491,0.3048 0.15749,0.53567 0.29877,0.63628 0.1244,0.0886 0.12856,0.0737 0.12772,-0.45783 -0.001,-0.83107 -0.10988,-1.28134 -0.42314,-1.75522 -0.0831,-0.12569 -0.31563,-0.35292 -0.46288,-0.45229 -0.11985,-0.0809 -0.40747,-0.22282 -0.45155,-0.22282 -0.0177,0 -0.0414,-0.009 -0.0527,-0.0193 -0.0113,-0.0107 -0.12497,-0.0369 -0.25269,-0.0583 -0.21878,-0.0367 -0.24405,-0.0369 -0.43643,-0.004 -0.46582,0.0806 -0.81867,0.36623 -1.074,0.86953 -0.16722,0.32963 -0.28779,0.71858 -0.34016,1.09736 -0.0356,0.25748 -0.048,1.02348 -0.0203,1.26062 0.0131,0.11259 0.0335,0.29684 0.0452,0.40943 0.0241,0.23028 0.049,0.42355 0.0974,0.75422 0.10308,0.70454 0.13225,0.93288 0.1624,1.27138 0.03,0.33672 0.0154,1.30473 -0.0219,1.45457 -0.0147,0.0593 -0.0351,0.14168 -0.0452,0.18316 -0.0646,0.26566 -0.13271,0.44802 -0.26161,0.70035 -0.0939,0.18375 -0.25533,0.4202 -0.28695,0.4202 -0.0147,0 -0.0431,-0.0606 -0.063,-0.13468 -0.0199,-0.0741 -0.0461,-0.16862 -0.0581,-0.21011 -0.0121,-0.0415 -0.0333,-0.12068 -0.0473,-0.17599 -0.0139,-0.0553 -0.0326,-0.10785 -0.0415,-0.11673 -0.009,-0.009 -0.0161,-0.0328 -0.0161,-0.0532 0,-0.0204 -0.014,-0.0842 -0.0312,-0.14186 -0.0171,-0.0577 -0.0609,-0.20665 -0.0972,-0.3311 -0.0363,-0.12444 -0.0747,-0.25536 -0.0853,-0.29091 -0.0106,-0.0356 -0.0501,-0.17617 -0.0876,-0.31246 -0.0376,-0.1363 -0.0773,-0.26466 -0.0882,-0.28523 -0.0109,-0.0206 -0.0199,-0.051 -0.0199,-0.0676 0,-0.0166 -0.0143,-0.0773 -0.0317,-0.13498 -0.0175,-0.0576 -0.0617,-0.20665 -0.0983,-0.33109 -0.0366,-0.12445 -0.0745,-0.24113 -0.0841,-0.2593 -0.01,-0.0182 -0.0247,-0.0666 -0.0335,-0.10775 -0.009,-0.0411 -0.0225,-0.0844 -0.0306,-0.0963 -0.008,-0.0119 -0.0275,-0.0603 -0.0433,-0.10775 -0.0158,-0.0474 -0.0504,-0.13467 -0.0769,-0.19394 -0.0266,-0.0593 -0.0558,-0.13178 -0.065,-0.16115 -0.0272,-0.0868 -0.24641,-0.49633 -0.34045,-0.63616 -0.21285,-0.31651 -0.46301,-0.57411 -0.73697,-0.7589 -0.20767,-0.14008 -0.27441,-0.16855 -0.67878,-0.28954 -0.0659,-0.0197 -0.22127,-0.0289 -0.48486,-0.0287 -0.33855,2.9e-4 -0.4098,0.007 -0.56027,0.0495 -0.42254,0.12055 -0.74656,0.35804 -0.88987,0.65223 -0.038,0.078 -0.0691,0.15559 -0.0691,0.17248 0,0.0543 -0.1049,0.322 -0.17235,0.43989 -0.10205,0.17833 -0.33218,0.43029 -0.63676,0.69715 -0.63732,0.55839 -0.88856,0.83385 -1.23128,1.35012 -0.21914,0.33009 -0.48076,0.88249 -0.58682,1.23903 -0.0264,0.0889 -0.0562,0.18585 -0.0662,0.21549 -0.0218,0.0647 -0.0747,0.28906 -0.10667,0.45252 -0.0997,0.50919 -0.0995,1.35007 5.3e-4,1.79935 0.0952,0.42763 0.14877,0.6093 0.26703,0.90579 0.29651,0.74354 0.71906,1.42347 1.47936,2.3805 0.0549,0.069 0.32217,0.39062 0.59402,0.7146 1.39816,1.66617 1.90336,2.39681 2.24744,3.25035 0.0263,0.0652 0.0562,0.13791 0.0665,0.16162 0.0103,0.0237 0.0481,0.13294 0.084,0.24274 0.0638,0.19544 0.0813,0.29597 0.049,0.28161 -0.0163,-0.007 -0.11687,-0.082 -1.70475,-1.2678 -0.48407,-0.36148 -0.94217,-0.70201 -1.018,-0.75672 -0.0758,-0.0547 -0.29303,-0.2118 -0.48267,-0.34908 -0.18963,-0.13727 -0.37387,-0.26996 -0.40943,-0.29485 -0.0356,-0.0249 -0.12669,-0.0896 -0.20252,-0.14375 -0.26959,-0.19253 -1.11743,-0.757 -1.46753,-0.97703 -0.90247,-0.56718 -1.80013,-1.05951 -2.56433,-1.4064 -0.0652,-0.0296 -0.17366,-0.0791 -0.24105,-0.11014 -0.0674,-0.031 -0.12732,-0.0563 -0.13318,-0.0563 -0.009,0 -0.17611,-0.073 -0.34766,-0.15183 -0.32046,-0.14724 -1.53637,-0.55232 -1.97712,-0.65868 -0.0682,-0.0164 -0.18452,-0.045 -0.25859,-0.0636 -0.55912,-0.13967 -1.23688,-0.25503 -1.82628,-0.31086 -1.19959,-0.11362 -2.46704,-0.026 -3.54481,0.24509 -0.0711,0.0179 -0.18748,0.0468 -0.25859,0.0643 -0.28768,0.0707 -1.00168,0.30042 -1.1852,0.38127 -0.0237,0.0105 -0.0964,0.0389 -0.16162,0.0633 -0.0652,0.0244 -0.13791,0.053 -0.16161,0.0637 -0.0237,0.0107 -0.14007,0.0609 -0.25859,0.11162 -0.25789,0.11025 -0.90555,0.43049 -1.13142,0.55939 -1.03671,0.59158 -1.77929,1.09914 -2.73673,1.87059 -1.02701,0.82752 -1.974214,1.70663 -3.393634,3.14967 -0.72658,0.73869 -0.8887,0.89703 -1.07778,1.05272 -0.49598,0.40837 -1.13992,0.79373 -1.73031,1.03549 l -0.22189,0.0909 -0.13019,-0.14209 c -0.0716,-0.0781 -0.14389,-0.14208 -0.16062,-0.14208 -0.0168,0 -0.0304,-0.009 -0.0304,-0.0204 0,-0.0201 -0.0829,-0.0733 -0.15623,-0.10013 -0.0207,-0.008 -0.0377,-0.0215 -0.0377,-0.0309 0,-0.009 -0.0412,-0.024 -0.0916,-0.0325 -0.0504,-0.008 -0.0985,-0.0262 -0.10695,-0.0396 -0.0212,-0.0334 -0.60248,-0.0333 -0.64393,1.5e-4 -0.0166,0.0134 -0.0639,0.0316 -0.10498,0.0404 -0.087,0.0186 -0.133,0.0423 -0.24085,0.12366 -0.0432,0.0326 -0.0872,0.0593 -0.0978,0.0593 -0.0283,0 -0.22235,0.20189 -0.22235,0.23132 0,0.0138 -0.0121,0.0329 -0.0269,0.0424 -0.0308,0.0197 -0.0704,0.0792 -0.10484,0.1573 -0.0131,0.0296 -0.0326,0.071 -0.0434,0.0921 -0.0108,0.021 -0.0257,0.0816 -0.0329,0.13468 -0.007,0.0531 -0.0216,0.0965 -0.0319,0.0965 -0.0102,0 -0.0186,0.0921 -0.0186,0.20472 0,0.11259 0.008,0.20471 0.0188,0.20471 z m 0.41541,-0.46557 c 0.19867,-0.53753 0.8258,-0.76725 1.33619,-0.48946 0.31871,0.17347 0.51442,0.57893 0.45437,0.94135 -0.12502,0.75444 -1.05828,1.04237 -1.58584,0.48928 -0.24556,-0.25745 -0.32405,-0.61832 -0.20472,-0.94117 z m 26.695504,-10.97695 c 0.0519,-0.72409 0.0969,-1.06126 0.2069,-1.55154 0.0514,-0.2289 0.12314,-0.47003 0.16186,-0.54382 0.0108,-0.0206 0.0196,-0.0478 0.0196,-0.0604 0,-0.0213 0.0533,-0.15147 0.11427,-0.27925 0.0698,-0.14618 0.20413,-0.37097 0.30259,-0.5064 0.12851,-0.17673 0.39779,-0.4633 0.43535,-0.4633 0.0752,0 0.12513,0.36168 0.0935,0.67701 -0.0118,0.11753 -0.0306,0.23083 -0.0418,0.25178 -0.0112,0.021 -0.0204,0.0532 -0.0204,0.0717 0,0.0351 -0.20616,0.56841 -0.29207,0.75564 -0.14696,0.32028 -0.2626,0.62848 -0.31133,0.82978 -0.0731,0.30213 -0.0882,0.40495 -0.0993,0.6788 -0.0203,0.50024 0.045,0.92811 0.22874,1.49765 0.0339,0.1052 0.0654,0.18914 0.15733,0.42021 0.0626,0.15724 0.3873,0.77528 0.52079,0.99125 0.16071,0.26001 0.22908,0.36016 0.57368,0.84042 0.5633,0.78504 0.78479,1.22755 0.8811,1.76032 0.0312,0.17235 0.0152,0.2151 -0.0491,0.13132 -0.0417,-0.0543 -0.23462,-0.28094 -1.42704,-1.67616 -0.75476,-0.88312 -0.96432,-1.17436 -1.17172,-1.62847 -0.10366,-0.22696 -0.10142,-0.22064 -0.19371,-0.54798 -0.0954,-0.33849 -0.13318,-1.03568 -0.0893,-1.64849 z m 1.44012,-0.22458 c 0.008,-0.0825 0.0262,-0.15286 0.0402,-0.15745 0.0139,-0.004 0.0559,0.0191 0.0935,0.0527 0.1005,0.0898 0.12863,0.22761 0.15121,0.74084 0.0107,0.2441 0.0296,0.47018 0.0418,0.50242 0.0122,0.0322 0.0223,0.084 0.0223,0.11508 0,0.0944 0.10059,0.50009 0.1937,0.78113 0.0579,0.17468 0.0788,0.23033 0.14182,0.37715 0.0153,0.0356 0.0478,0.11154 0.0724,0.16879 0.0709,0.16535 0.0504,0.31602 -0.0428,0.31602 -0.0511,0 -0.12827,-0.11536 -0.26446,-0.39549 -0.13704,-0.28189 -0.15371,-0.32236 -0.23649,-0.57421 -0.0663,-0.20178 -0.0914,-0.29388 -0.16728,-0.61415 -0.0112,-0.0474 -0.0304,-0.19727 -0.0427,-0.33303 -0.0122,-0.13576 -0.0278,-0.25213 -0.0347,-0.25859 -0.0133,-0.0126 0.007,-0.47555 0.0315,-0.72118 z m 0.62849,-2.70365 c 0.0115,-0.10209 0.0364,-0.32137 0.0554,-0.48729 0.0472,-0.41289 0.21716,-1.24661 0.29003,-1.42224 0.01,-0.0237 0.0351,-0.0939 0.0562,-0.156 0.0504,-0.14844 0.16822,-0.29925 0.28857,-0.36934 l 0.097,-0.0565 h 0.5495 c 0.57096,0 0.67905,0.0131 0.93738,0.11366 0.34111,0.13277 0.62317,0.44307 0.77814,0.85604 0.0311,0.083 0.0643,0.17024 0.0736,0.19395 0.0501,0.12689 0.12576,0.5821 0.18258,1.09899 0.0183,0.16593 0.0421,0.35017 0.0531,0.40943 0.0109,0.0593 0.0261,0.16108 0.0337,0.22627 0.008,0.0652 0.0223,0.15246 0.0326,0.19394 0.0104,0.0415 0.0349,0.14815 0.0546,0.23704 0.1214,0.54865 0.40046,1.07206 0.73529,1.37914 0.0711,0.0652 0.18307,0.16431 0.24888,0.22027 0.17231,0.14653 0.22093,0.25712 0.22049,0.50162 -2.5e-4,0.14007 -0.012,0.22387 -0.0422,0.30169 -0.0626,0.16106 -0.2625,0.50551 -0.29373,0.50613 -0.0287,5.3e-4 -0.12923,-0.17984 -0.33619,-0.60311 -0.25155,-0.51446 -0.32931,-0.68258 -0.32931,-0.71199 0,-0.0117 -0.009,-0.0381 -0.0205,-0.0587 -0.0296,-0.054 -0.0705,-0.15698 -0.16874,-0.42531 -0.17773,-0.48523 -0.26436,-0.77401 -0.44605,-1.48688 -0.1877,-0.73649 -0.58133,-1.22304 -1.1135,-1.37636 -0.54988,-0.15842 -1.20241,0.20881 -1.48314,0.83468 -0.0967,0.21553 -0.18245,0.54148 -0.20493,0.77872 -0.0197,0.20822 -0.0614,0.44176 -0.0787,0.44176 -0.0392,0 -0.12873,-0.10449 -0.15692,-0.18317 -0.0372,-0.10374 -0.0449,-0.67348 -0.013,-0.95649 z m 1.94096,9.31693 c 0.0583,-0.036 0.2361,0.16652 0.2361,0.26887 0,0.0544 -0.003,0.0544 -0.10797,0.001 -0.11815,-0.0603 -0.19734,-0.22704 -0.12813,-0.26982 z m 0.85564,0.87407 c 0.0549,5.3e-4 0.1131,0.023 0.18143,0.07 0.50844,0.35003 1.5381,1.37838 2.09183,2.08917 0.36721,0.47136 0.43902,0.63011 0.37299,0.82457 -0.1321,0.38906 -0.50019,0.5963 -1.16978,0.65862 -0.2621,0.0244 -0.3948,0.0143 -0.47444,-0.0363 -0.0755,-0.0478 -0.0588,-0.0664 0.0817,-0.0912 0.29378,-0.0518 0.56378,-0.2526 0.69332,-0.51575 0.0681,-0.13843 0.0707,-0.15322 0.0689,-0.39211 -0.002,-0.202 -0.0112,-0.27433 -0.052,-0.38831 -0.14113,-0.39456 -0.25876,-0.53504 -1.5791,-1.88554 -0.16223,-0.16592 -0.29511,-0.30896 -0.29532,-0.31785 -1.9e-4,-0.009 0.036,-0.0158 0.0804,-0.0154 z m 2.21955,-1.95772 c 0.0469,0.009 0.0666,0.1253 0.0212,0.1253 -0.0433,0 -0.0589,-0.0215 -0.0589,-0.0806 0,-0.0378 0.0102,-0.0499 0.0377,-0.0447 z m -21.75677,5.46685 c 0.0197,0.0965 0.10639,0.18122 0.18431,0.18014 0.0336,-4.5e-4 0.27449,-0.0108 0.53523,-0.023 1.19365,-0.0557 1.83937,-0.0741 2.16674,-0.0617 0.19497,0.007 0.6648,0.0234 1.04406,0.0354 0.37927,0.0121 0.77685,0.0315 0.88351,0.0431 0.10667,0.0116 0.32486,0.027 0.48486,0.0341 0.16,0.007 0.30779,0.0178 0.32843,0.0236 0.0206,0.006 0.19518,0.0244 0.38788,0.0415 1.09537,0.0966 1.74833,0.19864 2.16048,0.33769 0.4609,0.1555 0.64329,0.27845 1.099,0.74078 0.37571,0.38117 0.49997,0.48094 0.73379,0.58917 0.43412,0.20094 1.02227,0.22852 1.38339,0.0649 0.08,-0.0363 0.17816,-0.097 0.21813,-0.1349 0.0816,-0.0775 0.15247,-0.21418 0.153,-0.29525 10e-4,-0.166 -0.12348,-0.35626 -0.24721,-0.37759 -0.0586,-0.0101 -0.0744,0.001 -0.16846,0.12216 -0.0571,0.0733 -0.12756,0.18018 -0.1566,0.23747 -0.0328,0.0648 -0.0669,0.104 -0.0901,0.10373 -0.0505,-5.5e-4 -0.33392,-0.17592 -0.53336,-0.32993 -0.28797,-0.2224 -0.62365,-0.65383 -0.76045,-0.97735 -0.0636,-0.15029 -0.062,-0.15663 0.0335,-0.13361 0.0444,0.0107 0.14868,0.0349 0.23165,0.0539 0.083,0.019 0.20902,0.0484 0.28013,0.0655 0.0711,0.0171 0.18993,0.045 0.26405,0.062 0.0741,0.017 0.19775,0.0456 0.27475,0.0636 0.077,0.018 0.20061,0.0465 0.27468,0.0634 0.56169,0.1283 0.71939,0.16869 0.84896,0.21743 0.55995,0.21062 1.03628,0.64907 1.65007,1.51883 0.239,0.33867 0.32735,0.49 0.372,0.63719 0.0561,0.1849 0.0441,0.25662 -0.0858,0.51471 -0.14027,0.27857 -0.15288,0.37704 -0.0621,0.48495 0.061,0.0725 0.15637,0.13017 0.21519,0.13017 0.0202,0 0.11522,-0.0809 0.21117,-0.17981 0.20774,-0.21413 0.37207,-0.30189 0.8568,-0.45761 0.81677,-0.26239 1.00231,-0.37604 1.17779,-0.72143 0.0692,-0.13616 0.0984,-0.17056 0.19386,-0.22796 0.14612,-0.0879 0.35988,-0.13287 0.69349,-0.14594 0.38923,-0.0152 0.56053,-0.084 0.67961,-0.27259 0.0397,-0.0629 0.0531,-0.1138 0.0531,-0.20198 0,-0.11243 -0.005,-0.12282 -0.1055,-0.22342 -0.15433,-0.15433 -0.18254,-0.22026 -0.18166,-0.4245 0.001,-0.2465 0.0748,-0.3854 0.35197,-0.66324 0.23952,-0.24008 0.24037,-0.23188 -0.0284,-0.27502 -0.30151,-0.0484 -0.62366,0.008 -1.29698,0.22718 -0.083,0.027 -0.22357,0.0705 -0.31246,0.0966 -0.0889,0.0261 -0.19071,0.0562 -0.22627,0.0668 -0.17553,0.0525 -0.37086,0.0888 -0.69756,0.12964 -0.30724,0.0384 -0.43517,0.0433 -0.89706,0.0338 -0.76566,-0.0157 -1.45504,-0.1102 -2.3704,-0.32509 -0.0711,-0.0167 -0.19232,-0.0451 -0.26936,-0.0632 -0.1864,-0.0437 -1.1752,-0.2958 -1.48688,-0.37901 -0.1363,-0.0364 -0.36418,-0.0959 -0.5064,-0.13232 -0.14223,-0.0364 -0.27314,-0.0727 -0.29091,-0.0807 -0.0372,-0.0168 0.39863,-0.0298 2.13335,-0.064 0.68148,-0.0134 1.48149,-0.0343 1.77779,-0.0464 0.2963,-0.0121 0.99449,-0.028 1.55153,-0.0354 1.32631,-0.0176 1.61234,-0.0318 1.72319,-0.0858 0.047,-0.0229 0.10014,-0.0678 0.11808,-0.0999 0.0304,-0.0543 0.0287,-0.0662 -0.0243,-0.17438 -0.0774,-0.15779 -0.25409,-0.36526 -0.40689,-0.47774 -0.10985,-0.0809 -0.41884,-0.24636 -0.54814,-0.29357 -0.50687,-0.18508 -1.16729,-0.19448 -2.09025,-0.0298 -0.10667,0.019 -0.26667,0.0477 -0.35556,0.0636 -0.72341,0.12997 -1.39708,0.21921 -2.03638,0.26976 -0.15407,0.0122 -0.39911,0.0317 -0.54452,0.0434 -0.32318,0.0259 -0.52216,0.0272 -0.52216,0.003 0,-0.0189 0.4695,-0.16546 0.76888,-0.24 0.60981,-0.15182 1.10754,-0.21374 2.07559,-0.2582 0.34982,-0.0161 0.46522,-0.0291 0.55449,-0.0625 0.49941,-0.18711 0.64215,-0.6557 0.27641,-0.90734 -0.10198,-0.0702 -0.44607,-0.19481 -0.53777,-0.19481 -0.0561,0 -0.0783,-0.0484 -0.0345,-0.0754 0.0332,-0.0205 0.0256,-0.13445 -0.0141,-0.21117 -0.066,-0.12753 -0.12522,-0.19078 -0.26603,-0.28384 -0.21686,-0.14333 -0.18591,-0.13164 -1.2283,-0.46387 -0.19555,-0.0623 -0.43798,-0.14005 -0.53872,-0.17271 -0.33991,-0.1102 -0.67804,-0.2136 -0.80722,-0.24683 -0.33626,-0.0865 -0.58309,0.004 -0.6738,0.24724 -0.0344,0.0921 -0.0368,0.13421 -0.0195,0.33804 0.0109,0.12808 0.0206,0.4268 0.0217,0.66384 0.002,0.43009 -0.0142,0.56202 -0.0979,0.79732 -0.14517,0.40829 -0.42527,0.75462 -0.74576,0.92211 -0.16543,0.0864 -0.30788,0.13274 -0.55441,0.18015 -0.0948,0.0182 -0.24027,0.0467 -0.32323,0.0632 -0.2096,0.0418 -0.48378,0.0918 -0.70034,0.12784 -0.10075,0.0168 -0.20741,0.0352 -0.23705,0.041 -0.10513,0.0207 -0.50894,0.0806 -0.67879,0.10075 -0.0948,0.0112 -0.1895,0.0257 -0.21041,0.0322 -0.0722,0.0224 -0.97683,0.12524 -1.48628,0.16887 -0.19836,0.017 -0.36806,0.0354 -0.37711,0.0408 -0.009,0.005 -0.1716,0.0166 -0.36124,0.0248 -0.18963,0.008 -0.40781,0.0244 -0.48485,0.0361 -0.0774,0.0117 -0.8633,0.0258 -1.75624,0.0314 -1.7922,0.0113 -1.77825,0.0102 -1.917,0.14897 -0.0764,0.0764 -0.0973,0.1517 -0.0739,0.26619 z m 16.77142,3.41566 c 0.0894,0.0424 0.2696,0.0452 0.36443,0.006 0.0956,-0.0399 0.20875,-0.15745 0.20875,-0.21677 0,-0.0667 -0.0794,-0.0988 -0.2446,-0.0988 -0.11172,0 -0.15171,0.0107 -0.23323,0.0624 -0.0984,0.0624 -0.16864,0.14059 -0.16864,0.18775 0,0.0138 0.033,0.0408 0.0733,0.0599 z m 0.4385,-0.58251 c 0.15455,0.079 0.32885,0.0484 0.4151,-0.0727 0.0589,-0.0827 0.0538,-0.12215 -0.0208,-0.16068 -0.12168,-0.0629 -0.28286,-0.0306 -0.40511,0.0811 -0.0651,0.0595 -0.0611,0.11546 0.0108,0.1522 z m 0.20137,1.35914 c 0.0582,0.049 0.0826,0.0552 0.19194,0.0488 0.071,-0.004 0.14987,-0.0235 0.18209,-0.0446 0.0697,-0.0456 0.10876,-0.13614 0.0759,-0.17574 -0.0324,-0.0391 -0.40985,-0.0657 -0.47055,-0.0332 -0.0708,0.0379 -0.0609,0.13609 0.0207,0.20471 z m 0.6806,-0.79774 c 0.14123,0.0481 0.24561,0.0435 0.33208,-0.0148 0.0953,-0.0642 0.12633,-0.14933 0.0829,-0.22707 -0.0272,-0.0486 -0.0493,-0.0589 -0.13935,-0.0648 -0.20946,-0.0137 -0.37642,0.0753 -0.37642,0.20046 0,0.0663 0.008,0.0745 0.10082,0.10618 z m 0.0463,-0.73399 c 0.0587,0.0532 0.24944,0.0485 0.30538,-0.007 0.0569,-0.0569 0.0546,-0.13822 -0.005,-0.19513 -0.041,-0.0389 -0.0662,-0.0442 -0.16311,-0.0346 -0.063,0.006 -0.1285,0.0229 -0.14546,0.037 -0.0439,0.0364 -0.0386,0.15742 0.009,0.20014 z m 6.64367,-15.98064 c 0.0324,0.0319 0.14492,0.0352 0.22068,0.006 0.0671,-0.0255 0.10728,-0.0971 0.091,-0.1621 -0.0159,-0.0635 -0.14766,-0.12917 -0.20138,-0.10041 -0.10076,0.0539 -0.16468,0.20238 -0.11027,0.25608 z m 0.57895,0.58721 c 0.049,0.049 0.0622,0.0512 0.13763,0.0225 0.11725,-0.0446 0.15695,-0.26795 0.0656,-0.36893 -0.0487,-0.0538 -0.078,-0.0522 -0.13228,0.007 -0.11357,0.12421 -0.1434,0.26692 -0.0709,0.33939 z m 0.0431,1.0559 c 0.10537,0.10537 0.33213,0.0174 0.32802,-0.12719 -0.002,-0.0803 -0.0311,-0.12161 -0.11528,-0.16514 -0.0833,-0.0431 -0.1135,-0.0391 -0.18954,0.0249 -0.0532,0.0448 -0.0663,0.0724 -0.0663,0.14007 0,0.0556 0.0147,0.099 0.0431,0.12738 z m 0.57464,-0.81168 c 0.008,0.008 0.0512,0.0144 0.0962,0.0144 0.0608,0 0.10142,-0.0172 0.15803,-0.0669 0.0643,-0.0565 0.0762,-0.0808 0.0762,-0.15682 0,-0.0977 -0.0475,-0.18574 -0.10025,-0.18574 -0.057,0 -0.15749,0.0863 -0.20192,0.17335 -0.0421,0.0824 -0.0562,0.19374 -0.0282,0.22172 z"
       id="path4586" />
  </g>
</svg>
