<?xml version="1.0" encoding="UTF-8" standalone="no"?>
<svg
   xmlns:dc="http://purl.org/dc/elements/1.1/"
   xmlns:cc="http://creativecommons.org/ns#"
   xmlns:rdf="http://www.w3.org/1999/02/22-rdf-syntax-ns#"
   xmlns:svg="http://www.w3.org/2000/svg"
   xmlns="http://www.w3.org/2000/svg"
   xmlns:sodipodi="http://sodipodi.sourceforge.net/DTD/sodipodi-0.dtd"
   xmlns:inkscape="http://www.inkscape.org/namespaces/inkscape"
   width="350"
   height="350"
   viewBox="0 0 92.604169 92.604169"
   version="1.1"
   id="svg4950"
   inkscape:version="1.0.1 (3bc2e813f5, 2020-09-07)"
   sodipodi:docname="border_nouveau_initiative_roll.svg">
  <defs
     id="defs4944" />
  <sodipodi:namedview
     id="base"
     pagecolor="#ffffff"
     bordercolor="#666666"
     borderopacity="1.0"
     inkscape:pageopacity="0.0"
     inkscape:pageshadow="2"
     inkscape:zoom="1.9539223"
     inkscape:cx="126.38663"
     inkscape:cy="174.17458"
     inkscape:document-units="mm"
     inkscape:current-layer="layer1"
     inkscape:document-rotation="0"
     showgrid="false"
     inkscape:snap-global="false"
     units="px"
     inkscape:window-width="1243"
     inkscape:window-height="1041"
     inkscape:window-x="661"
     inkscape:window-y="0"
     inkscape:window-maximized="0" />
  <metadata
     id="metadata4947">
    <rdf:RDF>
      <cc:Work
         rdf:about="">
        <dc:format>image/svg+xml</dc:format>
        <dc:type
           rdf:resource="http://purl.org/dc/dcmitype/StillImage" />
        <dc:title></dc:title>
      </cc:Work>
    </rdf:RDF>
  </metadata>
  <g
     inkscape:label="Layer 1"
     inkscape:groupmode="layer"
     id="layer1">
    <path
       style="color:#000000;font-style:normal;font-variant:normal;font-weight:normal;font-stretch:normal;font-size:medium;line-height:normal;font-family:sans-serif;font-variant-ligatures:normal;font-variant-position:normal;font-variant-caps:normal;font-variant-numeric:normal;font-variant-alternates:normal;font-variant-east-asian:normal;font-feature-settings:normal;font-variation-settings:normal;text-indent:0;text-align:start;text-decoration:none;text-decoration-line:none;text-decoration-style:solid;text-decoration-color:#000000;letter-spacing:normal;word-spacing:normal;text-transform:none;writing-mode:lr-tb;direction:ltr;text-orientation:mixed;dominant-baseline:auto;baseline-shift:baseline;text-anchor:start;white-space:normal;shape-padding:0;shape-margin:0;inline-size:0;clip-rule:nonzero;display:inline;overflow:visible;visibility:visible;opacity:1;isolation:auto;mix-blend-mode:normal;color-interpolation:sRGB;color-interpolation-filters:linearRGB;solid-color:#000000;solid-opacity:1;vector-effect:none;fill:#f9cc9d;fill-opacity:1;fill-rule:nonzero;stroke:none;stroke-width:0.8272;stroke-linecap:square;stroke-linejoin:miter;stroke-miterlimit:4;stroke-dasharray:none;stroke-dashoffset:0;stroke-opacity:1;paint-order:stroke markers fill;color-rendering:auto;image-rendering:auto;shape-rendering:auto;text-rendering:auto;enable-background:accumulate;stop-color:#000000;stop-opacity:1"
       d="m 10.264245,8.4233986 c -1.0115958,-1e-7 -1.8408465,0.8224198 -1.8408464,1.8316534 v 72.094063 c -1e-7,1.009233 0.8292505,1.831653 1.8408464,1.831653 h 72.075677 c 1.011596,0 1.840846,-0.82242 1.840846,-1.831653 V 10.255052 c 0,-1.0092337 -0.82925,-1.8316534 -1.840846,-1.8316534 z m 0,0.8273466 h 72.075677 c 0.570668,0 1.013499,0.4420883 1.013499,1.0043068 v 72.094063 c 0,0.562217 -0.442831,1.004306 -1.013499,1.004306 H 10.264245 c -0.5706695,0 -1.0135,-0.442089 -1.0134998,-1.004306 V 10.255052 c 0,-0.5622186 0.4428302,-1.004307 1.0134998,-1.0043068 z"
       id="path836" />
    <path
       id="path4646"
       style="fill:#f9cc9d;fill-opacity:1;stroke-width:0.0243305"
       d="m 25.957917,87.857598 c 0.28898,-0.0021 0.58142,-0.02118 0.73434,-0.0572 0.46227,-0.108851 0.78824,-0.279889 1.09238,-0.571886 0.31035,-0.297943 0.47123,-0.578571 0.60008,-1.050115 0.0474,-0.1737 0.0536,-0.257276 0.0539,-0.696214 2e-4,-0.430153 -0.007,-0.531524 -0.0539,-0.735165 -0.12646,-0.549235 -0.3751,-1.13555 -0.66803,-1.576416 -0.19756,-0.297327 -0.55263,-0.654177 -0.84043,-0.8454 -0.58699,-0.390034 -1.29143,-0.608944 -2.11101,-0.655596 -0.23013,-0.01308 -0.2735,-0.02075 -0.20638,-0.03647 -0.29377,-0.130196 -2.742844,0.384979 -2.85944,0.421284 -0.69124,0.218739 -1.89116,0.634193 -2.17731,0.754228 -0.094,0.03945 -1.22508,0.454413 -1.48442,0.544532 -0.97951,0.3404 -1.17759,0.406466 -1.65433,0.551168 -1.00868,0.306143 -1.90493,0.510366 -2.77655,0.633223 -0.35368,0.04983 -0.49018,0.0563 -1.21341,0.05551 -0.86347,-9.79e-4 -1.06748,-0.02092 -1.60542,-0.157476 -0.70827,-0.179818 -1.36506,-0.50327 -1.87397,-0.922476 l 0.58677,0.930826 c 1.00897,0.657678 2.46336,0.964576 4.00238,0.84374 0.86413,-0.06785 1.68071,-0.237155 2.94149,-0.608356 0.47676,-0.140364 1.23005,-0.404616 3.13874,-1.103164 1.69182,-0.619168 2.15502,-0.776058 2.84618,-0.96143 2.22566,-0.596937 3.81742,-0.448987 4.85606,0.450879 0.60174,0.521323 0.91138,1.298663 0.82552,2.073714 -0.0238,0.215329 -0.0996,0.542552 -0.1467,0.633215 -0.0109,0.02105 -0.0555,0.109446 -0.0986,0.196431 -0.1147,0.231568 -0.20325,0.355445 -0.39702,0.555314 -0.20424,0.210667 -0.37554,0.333239 -0.69373,0.494804 -0.43783,0.22232 -0.80677,0.301973 -1.29212,0.280143 -0.43823,-0.01971 -0.75684,-0.121144 -1.10233,-0.35059 -0.36906,-0.245093 -0.5781,-0.664063 -0.58018,-1.166153 -0.002,-0.411805 0.10936,-0.699763 0.36799,-0.957291 0.18467,-0.183882 0.348,-0.271287 0.63737,-0.338988 0.35214,-0.0824 0.70527,-0.03746 0.95646,0.121822 0.0638,0.04048 0.11138,0.07841 0.1061,0.08372 -0.005,0.0051 -0.0575,-0.0016 -0.11603,-0.01494 -0.32711,-0.07348 -0.64667,0.156341 -0.67632,0.486521 -0.0158,0.174211 0.0212,0.306963 0.11686,0.422699 0.2163,0.261862 0.63201,0.274398 0.85038,0.02568 0.11363,-0.129395 0.14551,-0.232165 0.14502,-0.466625 -7.2e-4,-0.380356 -0.10834,-0.675263 -0.32655,-0.893474 -0.38825,-0.388254 -1.16817,-0.491949 -1.65183,-0.219638 -0.17514,0.09861 -0.39602,0.315854 -0.49731,0.489837 -0.1869,0.321123 -0.25713,0.754756 -0.19228,1.186871 0.0891,0.593611 0.36669,1.154792 0.76749,1.550726 0.29631,0.292724 0.59232,0.463766 0.95563,0.551997 0.13951,0.03388 0.42546,0.04853 0.71445,0.04641 z m -12.2906,-1.541612 c 0.41679,-0.01529 0.84726,-0.06299 1.26893,-0.143386 1.52171,-0.290055 2.63409,-0.639466 5.64428,-1.772022 2.22044,-0.835416 3.00266,-1.072261 3.917,-1.183554 0.35495,-0.04315 0.95121,-0.03725 1.22666,0.01154 0.85724,0.15206 1.40581,0.593879 1.63196,1.316174 0.10481,0.334762 0.0891,0.860027 -0.0349,1.190186 -0.0305,0.08127 -0.0632,0.169667 -0.073,0.196428 -0.01,0.02675 0.0146,-2.74e-4 0.0539,-0.06049 0.21897,-0.336358 0.30843,-0.909545 0.213,-1.362584 -0.21618,-1.026387 -1.00993,-1.640131 -2.26269,-1.75047 h -7.15e-4 c -0.50028,-0.04386 -1.222759,0.01172 -1.878939,0.145033 -0.93334,0.189749 -1.93666,0.507542 -4.10598,1.301245 -2.55935,0.936411 -3.726151,1.291052 -5.084821,1.544095 -0.50847,0.09469 -1.36902,0.123707 -1.92204,0.06466 -0.58611,-0.06258 -1.15786,-0.195177 -1.670079,-0.387057 -0.797461,-0.298735 -1.477611,-0.688452 -1.886401,-1.080787 -0.20866,-0.200256 -0.42187,-0.365855 -0.42187,-0.32821 0,0.03968 0.13914,0.212917 0.33485,0.421038 l 0.945655,0.765001 c 0.24772,0.162435 0.66117,0.391328 0.94567,0.514698 0.64173,0.27825 1.23224,0.441471 1.97095,0.544534 0.36858,0.05143 0.77175,0.06914 1.18853,0.05387 z m -1.28467,-2.076196 c 0.67039,0.01409 1.38924,-0.06268 2.11516,-0.229583 0.26973,-0.06202 0.89741,-0.258782 1.04679,-0.328217 0.0268,-0.01256 0.11942,-0.05226 0.20638,-0.08787 0.58793,-0.240691 1.29676,-0.69795 1.64687,-1.062546 0.18423,-0.191856 0.36783,-0.470476 0.46662,-0.707813 0.41939,-1.007396 0.0339,-1.923816 -0.90921,-2.159916 v 7.9e-4 c -0.82524,-0.2066 -1.66441,0.3808 -1.66593,1.166154 -6.09e-4,0.32594 0.13992,0.581281 0.39949,0.72439 0.15909,0.08766 0.23535,0.08591 0.10527,-0.0024 -0.25313,-0.172011 -0.31428,-0.521754 -0.1409,-0.8023 0.0814,-0.131688 0.273,-0.2931 0.45169,-0.380429 0.15609,-0.07621 0.18692,-0.08289 0.40033,-0.08289 0.19815,0 0.25069,0.0087 0.36634,0.06299 0.30586,0.14347 0.43557,0.342405 0.43597,0.664717 4.76e-4,0.386682 -0.18454,0.801888 -0.53957,1.210078 -0.42909,0.493332 -1.64064,1.133071 -2.73262,1.443806 -0.80936,0.230308 -1.3741,0.312224 -2.16489,0.313293 -0.71896,9.79e-4 -1.04308,-0.04286 -1.60128,-0.217146 -0.22927,-0.0716 -0.28179,-0.07557 -0.15085,-0.01155 0.30035,0.146714 0.69425,0.273745 1.11976,0.362197 0.35774,0.07436 0.74236,0.115896 1.14458,0.124335 z m -2.58675,-0.66057 c 0.008,-0.0032 -0.0245,-0.03231 -0.0953,-0.0887 -0.39667,-0.315391 -0.76555,-0.83406 -0.93822,-1.317827 -0.1258,-0.352382 -0.14926,-0.480059 -0.15001,-0.827165 -0.002,-0.471621 0.0942,-0.774571 0.37297,-1.180243 0.1456,-0.21186 0.2341,-0.38614 0.27103,-0.53293 0.0375,-0.14874 -0.0187,-0.31231 -0.13178,-0.38126 -0.0951,-0.0579 -0.17039,-0.0582 -0.29672,-7.9e-4 -0.29779,0.13527 -0.58644,0.75264 -0.6448199,1.379988 -0.10571,1.135872 0.5261299,2.378606 1.4645299,2.880156 0.0911,0.04872 0.14004,0.07196 0.14835,0.0688 z m -0.4658,-0.883527 -0.0133,-0.07292 c -0.0617,-0.340223 -0.0699,-0.485388 -0.0406,-0.687922 0.0545,-0.37729 0.23098,-0.68893 0.52795,-0.931599 0.19191,-0.156782 0.25363,-0.244216 0.25363,-0.358877 0,-0.09544 -0.0924,-0.226632 -0.19561,-0.278486 -0.10801,-0.0543 -0.13194,-0.05344 -0.25941,0.0083 -0.21844,0.105744 -0.48803,0.502274 -0.54288,0.798156 -0.0363,0.195703 -0.029,0.613166 0.0142,0.821364 0.0397,0.192016 0.15294,0.523651 0.21797,0.636536 z"
       sodipodi:nodetypes="ccscccsssccscssccccssssscccsssscsssccccscsscsssccccsccscccccccsssssscccscccsccscccsccscscssssscsccccccscccscccccccsccsccc" />
    <path
       id="path844"
       style="fill:#f9cc9d;fill-opacity:1;stroke-width:0.0243305"
       d="m 66.805932,87.857598 c -0.28898,-0.0021 -0.58142,-0.02118 -0.73434,-0.0572 -0.46227,-0.108851 -0.78824,-0.279889 -1.09238,-0.571886 -0.31035,-0.297943 -0.47123,-0.578571 -0.60008,-1.050115 -0.0474,-0.1737 -0.0536,-0.257276 -0.0539,-0.696214 -2e-4,-0.430153 0.007,-0.531524 0.0539,-0.735165 0.12646,-0.549235 0.3751,-1.13555 0.66803,-1.576416 0.19756,-0.297327 0.55263,-0.654177 0.84043,-0.8454 0.58699,-0.390034 1.29143,-0.608944 2.11101,-0.655596 0.23013,-0.01308 0.2735,-0.02075 0.20638,-0.03647 0.29377,-0.130196 2.742844,0.384979 2.85944,0.421284 0.69124,0.218739 1.89116,0.634193 2.17731,0.754228 0.094,0.03945 1.22508,0.454413 1.48442,0.544532 0.97951,0.3404 1.17759,0.406466 1.65433,0.551168 1.00868,0.306143 1.90493,0.510366 2.77655,0.633223 0.35368,0.04983 0.49018,0.0563 1.21341,0.05551 0.86347,-9.79e-4 1.06748,-0.02092 1.60542,-0.157476 0.70827,-0.179818 1.36506,-0.50327 1.87397,-0.922476 l -0.58677,0.930826 c -1.00897,0.657678 -2.46336,0.964576 -4.00238,0.84374 -0.86413,-0.06785 -1.68071,-0.237155 -2.94149,-0.608356 -0.47676,-0.140364 -1.23005,-0.404616 -3.13874,-1.103164 -1.69182,-0.619168 -2.15502,-0.776058 -2.84618,-0.96143 -2.22566,-0.596937 -3.81742,-0.448987 -4.85606,0.450879 -0.60174,0.521323 -0.91138,1.298663 -0.82552,2.073714 0.0238,0.215329 0.0996,0.542552 0.1467,0.633215 0.0109,0.02105 0.0555,0.109446 0.0986,0.196431 0.1147,0.231568 0.20325,0.355445 0.39702,0.555314 0.20424,0.210667 0.37554,0.333239 0.69373,0.494804 0.43783,0.22232 0.80677,0.301973 1.29212,0.280143 0.43823,-0.01971 0.75684,-0.121144 1.10233,-0.35059 0.36906,-0.245093 0.5781,-0.664063 0.58018,-1.166153 0.002,-0.411805 -0.10936,-0.699763 -0.36799,-0.957291 -0.18467,-0.183882 -0.348,-0.271287 -0.63737,-0.338988 -0.35214,-0.0824 -0.70527,-0.03746 -0.95646,0.121822 -0.0638,0.04048 -0.11138,0.07841 -0.1061,0.08372 0.005,0.0051 0.0575,-0.0016 0.11603,-0.01494 0.32711,-0.07348 0.64667,0.156341 0.67632,0.486521 0.0158,0.174211 -0.0212,0.306963 -0.11686,0.422699 -0.2163,0.261862 -0.63201,0.274398 -0.85038,0.02568 -0.11363,-0.129395 -0.14551,-0.232165 -0.14502,-0.466625 7.2e-4,-0.380356 0.10834,-0.675263 0.32655,-0.893474 0.38825,-0.388254 1.16817,-0.491949 1.65183,-0.219638 0.17514,0.09861 0.39602,0.315854 0.49731,0.489837 0.1869,0.321123 0.25713,0.754756 0.19228,1.186871 -0.0891,0.593611 -0.36669,1.154792 -0.76749,1.550726 -0.29631,0.292724 -0.59232,0.463766 -0.95563,0.551997 -0.13951,0.03388 -0.42546,0.04853 -0.71445,0.04641 z m 12.2906,-1.541612 c -0.41679,-0.01529 -0.84726,-0.06299 -1.26893,-0.143386 -1.52171,-0.290055 -2.63409,-0.639466 -5.64428,-1.772022 -2.22044,-0.835416 -3.00266,-1.072261 -3.917,-1.183554 -0.35495,-0.04315 -0.95121,-0.03725 -1.22666,0.01154 -0.85724,0.15206 -1.40581,0.593879 -1.63196,1.316174 -0.10481,0.334762 -0.0891,0.860027 0.0349,1.190186 0.0305,0.08127 0.0632,0.169667 0.073,0.196428 0.01,0.02675 -0.0146,-2.74e-4 -0.0539,-0.06049 -0.21897,-0.336358 -0.30843,-0.909545 -0.213,-1.362584 0.21618,-1.026387 1.00993,-1.640131 2.26269,-1.75047 h 7.15e-4 c 0.50028,-0.04386 1.222759,0.01172 1.878939,0.145033 0.93334,0.189749 1.93666,0.507542 4.10598,1.301245 2.55935,0.936411 3.726151,1.291052 5.084821,1.544095 0.50847,0.09469 1.36902,0.123707 1.92204,0.06466 0.58611,-0.06258 1.15786,-0.195177 1.670079,-0.387057 0.797461,-0.298735 1.477611,-0.688452 1.886401,-1.080787 0.20866,-0.200256 0.42187,-0.365855 0.42187,-0.32821 0,0.03968 -0.13914,0.212917 -0.33485,0.421038 l -0.945655,0.765001 c -0.24772,0.162435 -0.66117,0.391328 -0.94567,0.514698 -0.64173,0.27825 -1.23224,0.441471 -1.97095,0.544534 -0.36858,0.05143 -0.77175,0.06914 -1.18853,0.05387 z m 1.28467,-2.076196 c -0.67039,0.01409 -1.38924,-0.06268 -2.11516,-0.229583 -0.26973,-0.06202 -0.89741,-0.258782 -1.04679,-0.328217 -0.0268,-0.01256 -0.11942,-0.05226 -0.20638,-0.08787 -0.58793,-0.240691 -1.29676,-0.69795 -1.64687,-1.062546 -0.18423,-0.191856 -0.36783,-0.470476 -0.46662,-0.707813 -0.41939,-1.007396 -0.0339,-1.923816 0.90921,-2.159916 v 7.9e-4 c 0.82524,-0.2066 1.66441,0.3808 1.66593,1.166154 6.09e-4,0.32594 -0.13992,0.581281 -0.39949,0.72439 -0.15909,0.08766 -0.23535,0.08591 -0.10527,-0.0024 0.25313,-0.172011 0.31428,-0.521754 0.1409,-0.8023 -0.0814,-0.131688 -0.273,-0.2931 -0.45169,-0.380429 -0.15609,-0.07621 -0.18692,-0.08289 -0.40033,-0.08289 -0.19815,0 -0.25069,0.0087 -0.36634,0.06299 -0.30586,0.14347 -0.43557,0.342405 -0.43597,0.664717 -4.76e-4,0.386682 0.18454,0.801888 0.53957,1.210078 0.42909,0.493332 1.64064,1.133071 2.73262,1.443806 0.80936,0.230308 1.3741,0.312224 2.16489,0.313293 0.71896,9.79e-4 1.04308,-0.04286 1.60128,-0.217146 0.22927,-0.0716 0.28179,-0.07557 0.15085,-0.01155 -0.30035,0.146714 -0.69425,0.273745 -1.11976,0.362197 -0.35774,0.07436 -0.74236,0.115896 -1.14458,0.124335 z m 2.58675,-0.66057 c -0.008,-0.0032 0.0245,-0.03231 0.0953,-0.0887 0.39667,-0.315391 0.76555,-0.83406 0.93822,-1.317827 0.1258,-0.352382 0.14926,-0.480059 0.15001,-0.827165 0.002,-0.471621 -0.0942,-0.774571 -0.37297,-1.180243 -0.1456,-0.21186 -0.2341,-0.38614 -0.27103,-0.53293 -0.0375,-0.14874 0.0187,-0.31231 0.13178,-0.38126 0.0951,-0.0579 0.17039,-0.0582 0.29672,-7.9e-4 0.29779,0.13527 0.58644,0.75264 0.64482,1.379988 0.10571,1.135872 -0.52613,2.378606 -1.46453,2.880156 -0.0911,0.04872 -0.14004,0.07196 -0.14835,0.0688 z m 0.4658,-0.883527 0.0133,-0.07292 c 0.0617,-0.340223 0.0699,-0.485388 0.0406,-0.687922 -0.0545,-0.37729 -0.23098,-0.68893 -0.52795,-0.931599 -0.19191,-0.156782 -0.25363,-0.244216 -0.25363,-0.358877 0,-0.09544 0.0924,-0.226632 0.19561,-0.278486 0.10801,-0.0543 0.13194,-0.05344 0.25941,0.0083 0.21844,0.105744 0.48803,0.502274 0.54288,0.798156 0.0363,0.195703 0.029,0.613166 -0.0142,0.821364 -0.0397,0.192016 -0.15294,0.523651 -0.21797,0.636536 z"
       sodipodi:nodetypes="ccscccsssccscssccccssssscccsssscsssccccscsscsssccccsccscccccccsssssscccscccsccscccsccscscssssscsccccccscccscccccccsccsccc" />
    <path
       id="path3282"
       style="fill:#f9cc9d;fill-opacity:1;stroke-width:0.0188798"
       d="m 7.058764,9.8965504 0.283432,0.01905 c 0.031325,0.0021 0.3680933,0.01246 0.7492057,0.01977 l 0.6935644,0.01318 0.146474,0.1977386 c 0.44733,0.601446 1.1050889,1.005148 1.8982879,1.164467 0.321798,0.06464 0.503895,0.08141 0.864195,0.0813 0.344204,-1.89e-4 0.523519,-0.01404 0.912533,-0.07251 0.143627,-0.02161 0.265592,-0.03544 0.270987,-0.03003 0.0053,0.0053 -0.02282,0.0155 -0.06297,0.02198 0.187632,0.302905 0.06095,0.474944 1.375812,0.678253 0.01134,-0.01134 0.43977,0.04958 0.684028,0.0974 0.868274,0.170006 1.894032,0.513506 2.925809,0.979907 0.176514,0.0798 0.336738,0.149735 0.355203,0.155263 0.03121,0.0094 0.0326,-0.003 0.02124,-0.16698 -0.01573,-0.228771 0.02039,-0.858288 0.06892,-1.195957 0.09121,-0.634758 0.261079,-1.19964 0.516319,-1.718139 0.156667,-0.3182496 0.429788,-0.7549676 0.570516,-0.9125296 l 0.07327,-0.08203 0.321511,-0.0542 c 0.780754,-0.131178 1.447327,-0.178268 2.330391,-0.164052 0.925783,0.0149 1.558259,0.08707 2.602099,0.296611 l -0.564348,-0.49132 C 23.26973,8.5689204 22.471318,8.4131644 22.320702,8.3873044 21.836792,8.3042464 21.37469,8.2597264 20.857417,8.2466878 l -0.490686,-0.012477 0.198472,-0.134026 C 21.357849,7.5638391 22.384797,7.1635676 23.413389,6.989913 23.567635,6.963865 23.784372,6.936299 23.895283,6.929132 24.006107,6.921912 24.100402,6.910506 24.104735,6.9035 24.114335,6.886989 23.510793,6.6614296 23.217837,6.572468 22.772482,6.4372222 22.347006,6.348525 21.849046,6.2868436 c -0.384225,-0.047592 -1.293103,-0.046998 -1.680798,7.327e-4 -0.866563,0.1067162 -1.67705,0.3193089 -2.555953,0.6708496 -0.406798,0.162712 -0.733012,0.3101258 -1.446424,0.6532736 -1.438545,0.6919349 -2.473009,1.0870889 -3.630354,1.3871069 l -0.359599,0.09301 -0.256327,-0.249006 C 11.324364,8.2627336 10.6861,7.8807174 10.112112,7.7618326 9.9003666,7.7179778 9.5693311,7.7215774 9.3826661,7.7699028 8.8760531,7.9010097 8.5086811,8.3114334 8.470879,8.7886274 c -0.012742,0.165191 0.02644,0.458703 0.084843,0.634233 0.028352,0.08526 0.031643,0.116949 0.014654,0.128896 -0.029626,0.02077 -1.5518131,0.0021 -1.8917254,-0.02345 z M 19.903849,7.4885139 c 0.01657,2.273e-4 -0.05447,0.045649 -0.158185,0.1003348 -0.378086,0.1990884 -0.673421,0.414543 -0.993083,0.7250457 l -0.199949,0.194079 -0.262917,0.07616 c -0.880654,0.257332 -1.513491,0.519192 -2.76397,1.143228 -0.737419,0.3680066 -1.117025,0.5326016 -1.513067,0.6562026 -0.24426,0.07623 -0.650072,0.182281 -0.699406,0.18236 -0.01995,0 -0.103001,-0.10461 -0.221907,-0.279033 -0.104483,-0.153158 -0.25679,-0.3670106 -0.338363,-0.4760406 -0.08166,-0.109019 -0.14711,-0.2001 -0.145739,-0.202132 0.0011,-0.0021 0.176332,-0.03883 0.388885,-0.0813 1.151428,-0.230092 2.319954,-0.577437 3.492672,-1.0385 1.083448,-0.4259632 1.744839,-0.6421836 2.510568,-0.8217177 0.339817,-0.079671 0.844062,-0.1795171 0.904461,-0.1786995 z m -9.722185,1.3087425 c 0.317114,-0.0057 0.717839,0.147884 0.982104,0.385959 0.09939,0.08955 0.101196,0.09309 0.05638,0.103997 -0.156476,0.03804 -1.128333,0.16803 -1.3951679,0.186755 l -0.08421,0.0058 -0.03291,-0.103997 c -0.01794,-0.05711 -0.03302,-0.156636 -0.03377,-0.221176 -0.001,-0.105559 0.0053,-0.123525 0.05851,-0.184555 0.07656,-0.08713 0.1673915,-0.132781 0.3193219,-0.16039 0.0412,-0.0075 0.08431,-0.01162 0.129675,-0.01246 z m 7.697196,0.792422 c 0.0011,0.002 -0.03738,0.12704 -0.08792,0.277568 -0.156868,0.4681446 -0.232037,0.8840996 -0.256322,1.4251906 -0.01274,0.297027 0.01274,0.779027 0.05714,1.053877 0.01422,0.08514 0.02356,0.156325 0.02124,0.158924 -0.0011,0.0024 -0.177618,-0.08369 -0.389616,-0.19188 -0.59202,-0.302142 -1.083641,-0.500143 -1.716668,-0.69282 -0.612737,-0.186509 -1.106821,-0.29805 -1.463277,-0.329566 -0.08292,-0.0073 -0.163866,-0.01539 -0.179423,-0.01831 -0.01561,-0.003 -0.0531,-0.0065 -0.08422,-0.0073 -0.04077,-0.0011 -0.06553,-0.01543 -0.08792,-0.05273 -0.01709,-0.02853 -0.02994,-0.05959 -0.02782,-0.06885 0.0011,-0.0093 0.14334,-0.05421 0.314183,-0.0996 0.896847,-0.238262 1.558163,-0.480021 3.264914,-1.1937576 0.347599,-0.145366 0.633664,-0.262741 0.635693,-0.260726 z m -6.163625,0.153064 0.09015,0.104737 c 0.120745,0.140206 0.511659,0.6380406 0.586626,0.7470166 0.03302,0.04795 0.05416,0.09329 0.04693,0.10034 -0.0074,0.0072 -0.188204,0.01234 -0.402807,0.01177 -0.318165,-8.8e-4 -0.435395,-0.0095 -0.634229,-0.04467 -0.538692,-0.09487 -0.915068,-0.271614 -1.242833,-0.58443 -0.08049,-0.07679 -0.146473,-0.1465776 -0.146473,-0.1545276 0,-0.008 0.05745,-0.01944 0.127413,-0.02562 h 7.3e-4 c 0.07019,-0.006 0.295123,-0.0251 0.500201,-0.04176 0.205109,-0.01668 0.530643,-0.04832 0.723583,-0.07105 z"
       sodipodi:nodetypes="cscccscscccssscsssccsccscccsccsscsscccsccscccsccccssccccssssscscccccccccsccccssscccccsssccccccssccscc" />
    <path
       id="path847"
       style="fill:#f9cc9d;fill-opacity:1;stroke-width:0.0214461"
       d="m 86.601033,10.219782 -0.321958,0.02164 c -0.03558,0.0024 -0.41813,0.01416 -0.851049,0.02246 l -0.787843,0.01497 -0.166383,0.224618 c -0.508137,0.683202 -1.255307,1.14178 -2.156328,1.322756 -0.365539,0.07342 -0.57239,0.09247 -0.981667,0.09235 -0.39099,-2.15e-4 -0.594682,-0.01594 -1.036574,-0.08236 -0.163151,-0.02455 -0.301695,-0.04025 -0.307823,-0.03411 -0.006,0.0061 0.02593,0.0176 0.07153,0.02496 -0.213136,0.34408 -0.06923,0.539505 -1.562828,0.77045 -0.0129,-0.01288 -0.499549,0.05632 -0.777012,0.110646 -0.986298,0.193116 -2.15149,0.583309 -3.32352,1.113109 -0.200507,0.09065 -0.382511,0.170088 -0.403487,0.176368 -0.03546,0.01061 -0.03703,-0.0034 -0.02413,-0.189678 0.01786,-0.259869 -0.02316,-0.974957 -0.07828,-1.358527 -0.103614,-0.721042 -0.29657,-1.36271 -0.586504,-1.951689 -0.177963,-0.361511 -0.48821,-0.8575937 -0.648069,-1.0365738 l -0.08323,-0.093179 -0.365214,-0.061564 c -0.886886,-0.1490163 -1.644068,-0.2025079 -2.647169,-0.186358 -1.051628,0.016923 -1.770078,0.098897 -2.95581,0.3369297 l 0.641071,-0.5581168 c 0.937714,-0.1871966 1.844657,-0.3641247 2.015746,-0.3934994 0.54969,-0.094349 1.074604,-0.1449203 1.662194,-0.1597313 L 71.484123,8.3314794 71.258672,8.179235 C 70.358238,7.5699803 69.191696,7.1152989 68.023284,6.918039 67.848071,6.888451 67.601873,6.857138 67.475886,6.848996 67.349994,6.840796 67.242883,6.827839 67.237963,6.819879 67.227103,6.801123 67.91264,6.5449035 68.245419,6.4438492 68.751311,6.29022 69.234624,6.1894659 69.800273,6.1194 c 0.436453,-0.054062 1.468877,-0.053387 1.909273,8.323e-4 0.984358,0.1212222 1.905015,0.3627134 2.903389,0.7620399 0.462096,0.18483 0.832653,0.3522821 1.643041,0.7420748 1.63409,0.7859914 2.809171,1.2348603 4.123835,1.5756598 l 0.40848,0.1056509 0.291172,-0.2828537 c 0.676136,-0.6589264 1.40116,-1.092871 2.053173,-1.2279161 0.240529,-0.049816 0.616562,-0.045727 0.8286,0.00917 0.575479,0.1489286 0.992789,0.6151425 1.03573,1.1572025 0.01447,0.1876457 -0.03003,0.5210559 -0.09637,0.7204459 -0.0322,0.09685 -0.03594,0.132846 -0.01664,0.146417 0.03366,0.0236 1.762756,0.0023 2.148873,-0.02664 z M 72.009885,7.4844158 c -0.01882,2.581e-4 0.06188,0.051854 0.179687,0.113974 0.429481,0.2261509 0.764962,0.4708929 1.128077,0.8236033 l 0.227127,0.22046 0.298656,0.086509 c 1.000364,0.2923123 1.719224,0.589767 3.139684,1.2986299 0.837659,0.418031 1.268865,0.605 1.718742,0.745403 0.277463,0.08659 0.738437,0.207059 0.794477,0.207148 0.02267,0 0.117001,-0.118824 0.252071,-0.316962 0.118692,-0.173978 0.291696,-0.416901 0.384357,-0.540751 0.09276,-0.1238457 0.167108,-0.2273007 0.165552,-0.2296087 -0.0012,-0.0024 -0.200303,-0.0441 -0.441749,-0.09235 C 78.548622,9.5391043 77.221256,9.1445436 75.889127,8.6208078 74.658403,8.1369422 73.907108,7.8913305 73.037292,7.6873918 72.651282,7.5968905 72.078493,7.4834725 72.009885,7.4844014 Z m 11.043744,1.4866429 c -0.36022,-0.0064 -0.815416,0.167987 -1.115604,0.4384235 -0.1129,0.1017311 -0.11495,0.1057481 -0.06405,0.1181351 0.177746,0.04321 1.281711,0.19087 1.584817,0.212141 l 0.09566,0.0066 0.03739,-0.118136 c 0.02039,-0.06488 0.03751,-0.1779279 0.03836,-0.2512409 0.0012,-0.1199085 -0.006,-0.1403163 -0.06646,-0.2096427 -0.08697,-0.098981 -0.190145,-0.15083 -0.362728,-0.1821925 -0.0468,-0.00856 -0.09577,-0.013196 -0.147302,-0.014161 z m -8.743493,0.9001386 c -0.0012,0.0023 0.04246,0.1443077 0.09987,0.3152987 0.178193,0.531781 0.26358,1.004278 0.291166,1.61892 0.01447,0.337402 -0.01447,0.884923 -0.0649,1.197134 -0.01616,0.09672 -0.02677,0.177574 -0.02413,0.180527 0.0012,0.0028 0.20176,-0.09506 0.442579,-0.217963 0.672494,-0.343213 1.230941,-0.568129 1.950019,-0.786998 0.696027,-0.211861 1.257272,-0.338564 1.662182,-0.374364 0.0942,-0.0083 0.186142,-0.01748 0.203813,-0.0208 0.01773,-0.0034 0.06031,-0.0074 0.09566,-0.0083 0.04632,-0.0012 0.07443,-0.01753 0.09987,-0.0599 0.01941,-0.03241 0.03401,-0.06769 0.0316,-0.07821 -0.0012,-0.01054 -0.162825,-0.06158 -0.356891,-0.113142 -1.018757,-0.27065 -1.769969,-0.545273 -3.708721,-1.35603 -0.394851,-0.165125 -0.719802,-0.2984557 -0.722105,-0.2961667 z m 7.00146,0.1738707 -0.102412,0.118968 c -0.137157,0.159265 -0.581207,0.724771 -0.666366,0.848561 -0.03751,0.05446 -0.06151,0.105966 -0.05331,0.113974 0.0084,0.0081 0.213787,0.01401 0.457561,0.01337 0.361414,-10e-4 0.494579,-0.01073 0.72044,-0.05074 0.611919,-0.107761 1.039457,-0.308536 1.411775,-0.663873 0.09143,-0.08723 0.166384,-0.166503 0.166384,-0.175535 0,-0.0091 -0.06526,-0.02208 -0.144733,-0.02911 h -8.29e-4 c -0.07973,-0.0069 -0.33524,-0.02851 -0.568193,-0.04743 -0.23299,-0.01894 -0.602776,-0.05488 -0.821943,-0.08071 z"
       sodipodi:nodetypes="cscccscscccssscsssccsccscccsccsscsscccsccscccsccccssccccssssscscccccccccsccccssscccccsssccccccssccscc" />
  </g>
</svg>
