<?xml version="1.0" encoding="UTF-8" standalone="no"?>
<svg
   xmlns:dc="http://purl.org/dc/elements/1.1/"
   xmlns:cc="http://creativecommons.org/ns#"
   xmlns:rdf="http://www.w3.org/1999/02/22-rdf-syntax-ns#"
   xmlns:svg="http://www.w3.org/2000/svg"
   xmlns="http://www.w3.org/2000/svg"
   xmlns:sodipodi="http://sodipodi.sourceforge.net/DTD/sodipodi-0.dtd"
   xmlns:inkscape="http://www.inkscape.org/namespaces/inkscape"
   width="512"
   height="512"
   viewBox="0 0 135.46667 135.46667"
   version="1.1"
   id="svg4950"
   inkscape:version="1.0.1 (3bc2e813f5, 2020-09-07)"
   sodipodi:docname="border_nouveau_initiative_list.svg">
  <defs
     id="defs4944" />
  <sodipodi:namedview
     id="base"
     pagecolor="#ffffff"
     bordercolor="#666666"
     borderopacity="1.0"
     inkscape:pageopacity="0.0"
     inkscape:pageshadow="2"
     inkscape:zoom="0.97696114"
     inkscape:cx="228.04346"
     inkscape:cy="377.50093"
     inkscape:document-units="mm"
     inkscape:current-layer="layer1"
     inkscape:document-rotation="0"
     showgrid="false"
     inkscape:snap-global="false"
     units="px"
     inkscape:window-width="1102"
     inkscape:window-height="1041"
     inkscape:window-x="802"
     inkscape:window-y="0"
     inkscape:window-maximized="1" />
  <metadata
     id="metadata4947">
    <rdf:RDF>
      <cc:Work
         rdf:about="">
        <dc:format>image/svg+xml</dc:format>
        <dc:type
           rdf:resource="http://purl.org/dc/dcmitype/StillImage" />
        <dc:title></dc:title>
      </cc:Work>
    </rdf:RDF>
  </metadata>
  <g
     inkscape:label="Layer 1"
     inkscape:groupmode="layer"
     id="layer1">
    <path
       style="color:#000000;font-style:normal;font-variant:normal;font-weight:normal;font-stretch:normal;font-size:medium;line-height:normal;font-family:sans-serif;font-variant-ligatures:normal;font-variant-position:normal;font-variant-caps:normal;font-variant-numeric:normal;font-variant-alternates:normal;font-variant-east-asian:normal;font-feature-settings:normal;font-variation-settings:normal;text-indent:0;text-align:start;text-decoration:none;text-decoration-line:none;text-decoration-style:solid;text-decoration-color:#000000;letter-spacing:normal;word-spacing:normal;text-transform:none;writing-mode:lr-tb;direction:ltr;text-orientation:mixed;dominant-baseline:auto;baseline-shift:baseline;text-anchor:start;white-space:normal;shape-padding:0;shape-margin:0;inline-size:0;clip-rule:nonzero;display:inline;overflow:visible;visibility:visible;isolation:auto;mix-blend-mode:normal;color-interpolation:sRGB;color-interpolation-filters:linearRGB;solid-color:#000000;solid-opacity:1;vector-effect:none;fill:#f9cc9d;fill-opacity:1;fill-rule:nonzero;stroke:#f9cc9d;stroke-width:0.554;stroke-linecap:square;stroke-linejoin:miter;stroke-miterlimit:4;stroke-dasharray:none;stroke-dashoffset:0;stroke-opacity:1;paint-order:stroke markers fill;color-rendering:auto;image-rendering:auto;shape-rendering:auto;text-rendering:auto;enable-background:accumulate;stop-color:#000000;stop-opacity:1;opacity:1"
       d="M 10.382812 7.7324219 C 8.9228635 7.7324219 7.7324219 8.913068 7.7324219 10.367188 L 7.7324219 125.09961 C 7.7324219 126.55373 8.9228638 127.73242 10.382812 127.73242 L 125.08398 127.73242 C 126.54393 127.73242 127.73242 126.55373 127.73242 125.09961 L 127.73242 10.367188 C 127.73242 8.9130676 126.54393 7.7324219 125.08398 7.7324219 L 10.382812 7.7324219 z M 10.382812 8.4863281 L 125.08398 8.4863281 C 126.14212 8.4863281 126.98047 9.3204282 126.98047 10.367188 L 126.98047 125.09961 C 126.98047 126.14637 126.14212 126.98047 125.08398 126.98047 L 10.382812 126.98047 C 9.3246746 126.98047 8.4863281 126.14637 8.4863281 125.09961 L 8.4863281 10.367188 C 8.4863281 9.3204278 9.3246749 8.4863281 10.382812 8.4863281 z "
       id="path836" />
    <path
       id="path3322"
       style="fill:#f9cc9d;fill-opacity:1;stroke-width:0.0239786"
       d="M 30.825233,7.8623233 C 31.864674,9.0727415 31.70826,11.508616 29.858934,11.790466 28.278315,12.052511 26.607729,10.23781 27.503976,8.7507704 28.2906,7.6065093 30.490365,8.5656271 29.871591,9.9415313 29.229647,11.075407 27.433324,9.533777 28.559663,8.8300577 c 1.450701,-0.4433614 -1.775911,0.014406 -0.801612,1.2760753 0.310581,1.347765 2.678069,1.786448 3.126684,0.19479 C 31.403994,8.1759598 28.91466,6.3184817 26.9276,6.6816689 25.867584,6.888594 25.190839,7.5690262 25.10374,8.6995473 24.909498,10.285125 24.811733,8.929321 25.422012,8.347863 26.302577,7.7351067 27.63876,7.1343737 28.764129,7.6600206 c -0.660967,0.3178947 -2.145064,0.2808199 -2.94697,1.05894 -0.721369,0.5878236 -0.249724,1.3134864 -0.748294,2.2080234 -0.393638,0.834008 2.128094,2.102331 2.64216,3.459134 0.872752,2.30352 -0.127889,4.997472 0.531948,7.370765 0.146376,0.526492 0.352162,1.207969 0.742904,1.461394 0.93084,0.620573 1.516903,0.891617 2.607321,0.618133 1.094539,-0.414049 2.03629,-1.658921 1.313165,-2.792587 -0.412699,-1.13532 -2.349083,-1.592039 -2.72226,-0.197311 -0.545085,0.912072 1.661891,2.091569 1.263902,0.775822 -0.348715,-1.051405 1.283529,-0.823122 0.998798,0.08377 -0.216786,1.316209 -2.460563,1.30099 -2.842358,0.128238 -0.567328,-1.036019 0.423119,-2.721102 1.489348,-2.517828 2.173772,-0.816114 3.63957,3.41789 1.917117,4.757882 -1.298106,1.430302 -3.28211,0.816074 -4.663189,-0.104408 -0.879889,-0.164513 -1.0973,-1.400609 -1.338942,-2.234677 -0.632195,-2.182121 0.494091,-4.639363 -0.164816,-6.813568 -0.452252,-1.492304 -3.267522,-2.412627 -2.502032,-3.952642 -1.470699,0.122458 -1.073056,1.951333 -1.3897,2.967729 -0.22601,2.129141 -1.275452,3.442599 -2.330239,4.918732 -0.689794,0.965336 -1.484719,1.960388 -2.549472,2.483829 -1.713684,0.842457 -3.85771,2.112617 -5.671478,0.807699 -1.170928,-0.480009 -2.06985,-2.085797 -1.404003,-3.107832 -0.665056,-0.05047 -1.7443888,-2.678543 -1.5142231,-1.391569 0.3822382,1.350186 0.3630728,3.223501 -1.1551513,3.77269 0.024139,0.217174 -1.7043822,0.687189 -2.3541218,-0.596784 -0.7829357,-1.547185 0.2144072,-2.760265 0.5071408,-2.56999 0.968237,-0.404524 2.388983,0.746793 1.693938,1.684202 C 8.0201833,19.663694 7.5120505,18.086621 7.59056,19.141215 5.3975208,19.065674 6.8142137,21.683744 8.3183131,20.871935 9.1995847,20.5165 9.3182408,19.360386 9.1368117,18.454398 8.8744374,17.5041 9.1191544,15.689995 8.0834415,16.851207 7.5507613,15.084235 8.1691452,12.976317 9.5264036,11.753124 11.171406,9.7857302 14.06682,8.7782918 16.524933,9.6766478 c 1.283679,0.4446662 2.207418,1.1287432 3.131463,2.0930692 0.341361,0.671164 0.835579,0.971537 0.358789,-0.05267 -0.397506,-1.278637 -0.891111,-2.7897668 -0.295599,-3.9789736 0.391148,-0.7811079 1.341582,-1.3068158 2.209029,-1.410085 1.110668,-0.1322246 2.358878,1.4338538 3.173233,1.0909629 1.729572,-1.8138989 4.018837,-1.7312403 5.568019,0.2850399 l 0.0855,0.087148 z M 29.294966,8.8261795 C 28.597595,9.3203818 29.023855,10.770149 29.590714,9.3268703 29.42873,9.2173681 29.473389,8.8903117 29.294966,8.8261795 Z M 23.883767,7.6503522 C 22.962976,6.5064204 20.937009,6.823523 20.48134,8.2712605 c -0.595406,1.8591755 0.372811,3.7411325 0.878589,5.5003605 0.354195,0.967311 0.106948,1.088838 0.31465,2.013368 0.345063,-1.820786 0.65082,-2.744974 1.164882,-4.54497 -1.518258,-0.19389 -2.629354,-2.3671201 -1.270982,-3.4056626 1.395024,-1.2684069 2.060773,2.1535655 2.601503,0.5770683 0.30997,-0.2149479 -0.110365,-0.6411398 -0.286215,-0.7610725 z m 0.540488,1.4777862 c -0.479398,0.6965941 -1.06949,2.2734116 0.0073,0.6310839 0.06502,-0.051293 0.271741,-1.0264758 -0.0073,-0.6310839 z M 22.824792,8.2427406 C 21.177674,7.4473022 21.045914,10.276181 22.502569,10.556369 23.364626,10.945646 23.607334,9.3896532 22.405837,9.9072586 20.871327,9.0459157 22.67478,8.0014955 23.154442,8.5737754 L 22.824687,8.2427641 Z m 0.423869,0.6511144 c -0.54048,0.3475764 -1.655782,-0.098611 -0.439825,0.7434798 0.381112,0.075757 0.684438,-0.581291 0.439825,-0.7434798 z m 1.188544,1.841435 c 0.04078,0.02433 0.05002,-0.09758 0,0 z m -7.384186,-0.207283 c -2.470655,-1.242721 -5.785653,-0.363492 -7.065657,2.167495 -1.1355019,1.849934 -0.5041093,4.591049 1.280945,5.908317 1.373838,1.193142 4.026014,1.263994 4.763942,-0.681011 0.194781,-0.918383 -0.786001,-1.921961 -1.649504,-1.348495 -0.582408,0.916859 1.501946,-0.139796 0.959023,1.353278 -0.905755,1.080289 -2.380181,-0.802776 -1.399499,-1.653827 1.059639,-0.959474 2.760492,0.253871 2.613581,1.542636 0.576989,-1.292704 0.07527,-2.971479 -0.962578,-3.825385 -0.476784,0.10636 -0.875306,1.937108 -1.831696,0.711625 -0.638299,-0.802388 0.584958,-1.433835 -0.169669,-2.254986 -0.281229,0.258958 -0.553906,1.53958 -0.826511,2.169562 -0.319431,1.498506 -2.567649,1.784835 -3.0976357,0.230643 -0.8000538,-1.70747 2.0975507,-2.188028 2.0936777,-0.412235 -0.304121,1.421756 -1.8558995,0.549359 -0.901337,-0.477076 0.550633,-0.878985 -1.9427192,0.349134 -0.429314,1.169816 1.469422,1.001638 2.032514,-1.178875 2.261382,-2.260122 0.461656,-1.313902 1.39526,-2.428985 2.868735,-2.535378 0.448674,-0.09835 1.325978,0.177128 1.492115,0.195143 z m 0.127776,0.734714 c -0.993787,-0.640476 -2.851421,-0.448031 -3.091651,0.891247 0.421859,-1.10368 2.262217,-0.575225 2.228796,0.560987 -0.681919,1.14597 0.44984,1.732475 0.713324,2.884184 0.613127,1.567685 -0.133076,3.506858 -1.774857,4.133108 -0.79183,0.452799 -1.998367,0.102547 -2.639574,0.207792 0.03696,1.097987 -1.986048,0.110621 -0.60205,1.1888 1.536297,1.35208 3.416731,0.549405 5.157602,-0.668412 0.673019,-1.185095 2.207902,-1.707726 2.895432,-2.52821 0.76616,-2.289697 0.09577,-3.458839 -1.715805,-4.81873 -0.721735,-0.276791 -2.544511,-1.379932 -1.138824,-1.775465 0.107916,0.08077 0.06589,-0.156688 -0.03239,-0.07531 z m -1.898834,0.665035 c -0.499803,0.09081 -1.080656,1.09317 -0.222382,1.325645 0.910526,0.471894 1.33525,-0.831505 0.222382,-1.325645 z m -1.282941,0.435365 c 0.01058,0.220824 0.04815,-0.180663 0,0 z m 5.901043,6.02121 c 0.04078,0.02434 0.05002,-0.09756 0,0 z m -5.567048,-4.682677 c -1.343967,0.645097 1.117242,1.698091 0.140591,0.18708 l -0.03374,-0.06763 -0.106794,-0.119473 z m 0.504707,3.516284 c -0.604286,-0.289899 0.591975,1.159221 0,0 z m -2.890393,2.368052 c -1.124894,-0.433162 0.989909,1.478558 0,0 z M 7.188484,18.563658 c -0.4001749,-0.06649 0.6894671,0.263544 0,0 z"
       sodipodi:nodetypes="cccccccccccccaaccccccccccaaccaaccccsccccccccccaaccccccccccccccccccccccccccccccccccccccccccccccccsccccccccccsscccccccscccscccccc" />
    <path
       style="fill:#f9cc9d;fill-opacity:1;stroke-width:0.0156082"
       d="m 8.3975172,113.02368 c 0,7.64165 0.003,13.89099 0.006,13.88741 0.004,-0.004 0.0275,-0.0873 0.0539,-0.186 0.0456,-0.1714 0.15618,-0.49283 0.27908,-0.8112 0.04,-0.10379 0.10648,-0.2224 0.22287,-0.39801 0.7125907,-1.07527 1.5579408,-2.50474 2.7074808,-4.5783 0.17282,-0.31174 0.37529,-0.80364 0.55379,-1.34542 0.0759,-0.23035 0.16686,-0.61953 0.21883,-0.9363 0.045,-0.27435 0.0473,-0.31 0.0463,-0.72577 -5.55e-4,-0.2405 -0.006,-0.42322 -0.0135,-0.40605 -0.007,0.0172 -0.0316,0.14963 -0.055,0.29435 -0.14501,0.89656 -0.43373,1.77613 -0.84865,2.58537 -0.62193,1.21299 -1.33558,2.0516 -2.2184701,2.60694 l -0.173132,0.10889 h -0.2586397 -0.25865 l 0.01,-0.0742 c 0.0205,-0.15313 0.0271,-2.84368 0.009,-3.70306 -0.0432,-2.06073 -0.039,-2.67904 0.0244,-3.55867 0.0508,-0.70666 0.15493,-1.37493 0.28775,-1.84791 0.0698,-0.24864 0.1487797,-0.39084 0.3506407,-0.63144 0.27379,-0.32632 0.57971,-0.56242 0.7899401,-0.60966 0.0604,-0.0136 0.21754,-0.008 0.65412,0.0211 0.0644,0.005 0.2505,0.0151 0.41361,0.0238 0.16311,0.009 0.33824,0.02 0.38918,0.0249 l 0.0926,0.009 -0.26175,-0.2537 c -0.57538,-0.55769 -1.04051,-1.20918 -1.5100401,-2.11506 -0.697161,-1.34504 -1.1431007,-2.72989 -1.2302707,-3.82046 -0.0221,-0.27688 -0.0216,-3.90576 5.7e-4,-4.14563 0.0325,-0.35157 0.10472,-0.62062 0.22338,-0.83281 0.0607,-0.10863 0.2060297,-0.25565 0.2990697,-0.30266 0.205051,-0.10358 0.632321,-0.15286 1.4664811,-0.16911 0.42571,-0.008 0.72804,-0.0337 0.7581,-0.0638 0.007,-0.007 0.0248,-0.0834 0.039,-0.16918 0.0411,-0.24945 0.018,-0.6699 -0.0644,-1.170473 -0.0464,-0.28137 -0.1046,-0.57781 -0.11604,-0.59038 -0.006,-0.007 -0.0167,0.014 -0.0226,0.0468 -0.0337,0.18447 -0.17184,0.69767 -0.20961,0.77841 -0.0547,0.117033 -0.12501,0.198443 -0.21869,0.253423 -0.0582,0.0342 -0.0914,0.0423 -0.17345,0.0423 -0.0936,0 -0.11601,-0.007 -0.28876,-0.0958 -0.19592,-0.10022 -0.4695501,-0.256343 -0.9677101,-0.552113 -0.4196007,-0.24912 -0.8808107,-0.48367 -0.9510907,-0.48367 h -0.0556 z m 14.3985908,-0.60935 c -0.44988,0.26295 -1.14467,0.53218 -2.32753,0.90193 -1.161,0.36291 -1.82975,0.60957 -2.30812,0.85129 -0.54821,0.27703 -0.93967,0.56799 -1.22768,0.9125 -0.29444,0.35222 -0.44985,0.68856 -0.55952,1.21095 -0.21233,1.01145 -0.56843,1.96355 -1.08982,2.91382 -0.58376,1.06395 -1.34744,2.112 -2.2893,3.14177 -0.20658,0.22585 -0.25353,0.28697 -0.11424,0.14868 0.0562,-0.0558 2.14452,-2.16643 4.64072,-4.69028 2.49619,-2.52384 4.7324,-4.78373 4.96934,-5.02194 0.23694,-0.23822 0.42734,-0.43301 0.4231,-0.43286 -0.004,1.6e-4 -0.0569,0.029 -0.11695,0.0642 z m -0.31915,1.15729 c -0.4168,0.41441 -1.3443,1.33255 -2.06111,2.04032 -1.30478,1.28833 -3.28771,3.2473 -4.51847,4.4639 -0.36049,0.35634 -0.94697,0.93571 -1.30329,1.2875 -0.97473,0.96232 -1.44077,1.42919 -1.31899,1.32134 0.0601,-0.0533 0.21812,-0.19347 0.35118,-0.31166 1.18387,-1.05155 2.31727,-1.82122 3.30288,-2.2429 0.25893,-0.11079 0.2908,-0.12074 1.92587,-0.60115 0.73506,-0.21596 1.26365,-0.44205 1.58654,-0.67857 0.0674,-0.0493 0.20038,-0.16783 0.29547,-0.26323 0.54354,-0.54522 0.99363,-1.41226 1.32565,-2.55371 0.49912,-1.71594 0.86552,-2.70803 1.17447,-3.18018 0.0126,-0.0194 0.0173,-0.0351 0.0104,-0.0351 -0.007,0 -0.35369,0.33905 -0.77049,0.75345 z m -10.90317,-0.0879 c -0.24118,0.0275 -0.34678,0.0435 -0.46044,0.0696 -0.49026,0.11289 -0.92922,0.33097 -1.3140401,0.65281 -0.39068,0.32675 -0.638591,0.73608 -0.746701,1.23288 -0.0992,0.45578 -0.0722,0.83926 0.10166,1.44503 0.172581,0.60132 0.467301,1.20946 0.722951,1.49183 0.0751,0.083 0.2453801,0.21433 0.2595001,0.20021 0.004,-0.004 -0.004,-0.0558 -0.0162,-0.11575 -0.10264,-0.48964 -0.11454,-1.19732 -0.0275,-1.63869 0.17966,-0.91169 0.77198,-1.38808 1.69407,-1.3625 0.25927,0.007 0.356,0.0334 0.53618,0.14505 0.36438,0.22589 0.71431,0.79376 0.82716,1.34231 0.0356,0.17304 0.0464,0.49347 0.0247,0.72578 -0.0583,0.6206 -0.23564,1.29919 -0.59943,2.29441 -0.14573,0.39872 -0.49296,1.21066 -0.78429,1.83397 -0.18493,0.39568 -0.78863,1.59965 -0.92741,1.84958 -0.64767,1.16632 -1.1006001,1.86941 -1.6112911,2.50121 -0.0677,0.0837 -0.1201,0.15218 -0.11655,0.15218 0.0218,0 0.8820111,-0.9756 1.2592011,-1.42815 1.821681,-2.18556 2.991681,-4.09337 3.552861,-5.79328 0.16997,-0.51488 0.25841,-0.88524 0.33666,-1.40992 0.0328,-0.22035 0.0361,-0.29481 0.0359,-0.83504 -2.1e-4,-0.63326 -0.0105,-0.76669 -0.0939,-1.21813 -0.15205,-0.82331 -0.50028,-1.43213 -1.01516,-1.7749 -0.29796,-0.19836 -0.61838,-0.30878 -1.0291,-0.3546 -0.13042,-0.0146 -0.50133,-0.0182 -0.60872,-0.006 z m 7.07834,7.89796 c -0.90842,0.0616 -1.49652,0.18185 -2.39587,0.48988 -1.81198,0.6206 -3.9128,1.91436 -5.80583,3.57547 -0.37353,0.32777 -1.1632411,1.06928 -1.1632411,1.09225 0,0.006 0.114141,-0.0658 0.253631,-0.161 2.4995201,-1.70526 4.4466801,-2.79324 5.8647901,-3.27694 0.3801,-0.12965 0.87553,-0.23135 1.12824,-0.23159 0.13406,-1.2e-4 0.2994,-0.0381 0.53649,-0.12317 0.21546,-0.0773 0.36485,-0.10633 0.60627,-0.11774 0.10301,-0.004 0.26455,-0.0194 0.35899,-0.0321 0.64875,-0.0878 0.86456,-0.0919 1.03227,-0.0192 0.24776,0.10734 0.46903,0.27101 0.7638,0.56496 0.2253,0.22466 0.33687,0.37172 0.39731,0.5237 0.0308,0.0773 0.0333,0.10581 0.0265,0.29624 -0.0113,0.31359 -0.075,0.50787 -0.24977,0.76152 -0.31988,0.46424 -1.05155,0.82115 -1.86365,0.90908 -0.25394,0.0275 -0.81523,0.0116 -0.98437,-0.0279 -0.0708,-0.0166 -0.12875,-0.0284 -0.12875,-0.0266 0,0.004 0.38761,0.25004 0.65553,0.41662 0.87423,0.54353 1.45982,0.73312 2.19296,0.71002 0.3808,-0.012 0.62704,-0.0879 0.91907,-0.28327 0.25724,-0.17209 0.47035,-0.4047 0.71608,-0.7816 0.38155,-0.58526 0.55291,-1.07014 0.6062,-1.71533 0.045,-0.54457 -0.0684,-1.0352 -0.32812,-1.42011 -0.32192,-0.47708 -0.93794,-0.84408 -1.70251,-1.01431 -0.39641,-0.0883 -1.03079,-0.13636 -1.43596,-0.10888 z m -1.61546,1.91984 c -0.90536,0.10776 -1.78135,0.38272 -2.8407,0.89164 -0.89447,0.42973 -1.87453,1.01202 -3.83392,2.27789 -0.15998,0.10334 -0.32854,0.20033 -0.3746001,0.21552 -0.18497,0.061 -1.2829207,0.50734 -1.3076807,0.53161 -0.004,0.004 6.2246908,0.006 13.8405908,0.006 h 13.847099 v -0.25553 -0.25554 l -0.0756,-0.11516 c -0.0416,-0.0634 -0.1557,-0.21427 -0.25363,-0.33542 -0.0979,-0.12112 -0.245919,-0.30415 -0.328858,-0.40671 -0.298392,-0.36895 -0.464982,-0.65103 -0.478121,-0.80961 -0.029,-0.34953 0.317439,-0.54987 1.053928,-0.60948 l 0.128453,-0.0103 -0.0816,-0.0494 c -0.0449,-0.0272 -0.116743,-0.0764 -0.159671,-0.10942 -0.158912,-0.12217 -0.127281,-0.11811 -0.922182,-0.11811 h -0.708879 l -1e-5,0.0585 c 0,0.39995 -0.14285,1.855 -0.19599,1.9971 -0.0352,0.0942 -0.18387,0.22551 -0.34796,0.30743 -0.24761,0.1236 -0.53393,0.20072 -1.01668,0.27386 -0.65214,0.0988 -0.98107,0.12027 -2.18533,0.14265 -1.18669,0.0221 -2.15,0.0125 -2.35685,-0.0233 -0.33388,-0.0579 -0.83343,-0.20641 -1.39693,-0.41536 -1.13983,-0.42264 -2.07858,-0.83598 -2.59097,-1.14083 -0.48625,-0.28929 -1.0315,-0.79847 -1.48157,-1.38357 -0.0678,-0.0881 -0.12481,-0.15831 -0.12681,-0.15608 -0.002,0.003 0.004,0.1375 0.0117,0.3006 0.0352,0.68088 -0.0335,1.42904 -0.15283,1.66532 -0.13315,0.26364 -0.39361,0.49202 -0.80972,0.71 -0.5373,0.28146 -0.94734,0.41359 -1.37403,0.44279 -0.15286,0.0104 -1.53154,0.0145 -3.97229,0.0115 l -3.73817,-0.004 -0.0773,-0.0356 c -0.0425,-0.0196 -0.11524,-0.0643 -0.16158,-0.0993 l -0.0842,-0.0636 0.006,-0.24412 c 0.006,-0.21902 0.011,-0.25522 0.0487,-0.35203 0.22925,-0.58791 1.26223,-1.37095 2.85884,-2.16713 0.61579,-0.30708 1.45403,-0.63618 1.56464,-0.61429 0.0254,0.005 0.0877,-0.007 0.15226,-0.029 l 0.10926,-0.0375 -0.0703,9e-4 c -0.0386,5.8e-4 -0.0913,0.004 -0.11706,0.007 z"
       id="path1893" />
    <path
       style="fill:#f9cc9d;fill-opacity:1;stroke-width:0.0156082"
       d="m 127.06557,113.02368 c 0,7.64165 -0.003,13.89099 -0.006,13.88741 -0.004,-0.004 -0.0275,-0.0873 -0.0539,-0.186 -0.0456,-0.1714 -0.15618,-0.49283 -0.27908,-0.8112 -0.04,-0.10379 -0.10648,-0.2224 -0.22287,-0.39801 -0.71259,-1.07527 -1.55794,-2.50474 -2.70748,-4.5783 -0.17282,-0.31174 -0.37529,-0.80364 -0.55379,-1.34542 -0.0759,-0.23035 -0.16686,-0.61953 -0.21883,-0.9363 -0.045,-0.27435 -0.0473,-0.31 -0.0463,-0.72577 5.5e-4,-0.2405 0.006,-0.42322 0.0135,-0.40605 0.007,0.0172 0.0316,0.14963 0.055,0.29435 0.14501,0.89656 0.43373,1.77613 0.84865,2.58537 0.62193,1.21299 1.33558,2.0516 2.21847,2.60694 l 0.17313,0.10889 h 0.25864 0.25865 l -0.01,-0.0742 c -0.0205,-0.15313 -0.0271,-2.84368 -0.009,-3.70306 0.0432,-2.06073 0.039,-2.67904 -0.0244,-3.55867 -0.0508,-0.70666 -0.15493,-1.37493 -0.28775,-1.84791 -0.0698,-0.24864 -0.14878,-0.39084 -0.35064,-0.63144 -0.27379,-0.32632 -0.57971,-0.56242 -0.78994,-0.60966 -0.0604,-0.0136 -0.21754,-0.008 -0.65412,0.0211 -0.0644,0.005 -0.2505,0.0151 -0.41361,0.0238 -0.16311,0.009 -0.33824,0.02 -0.38918,0.0249 l -0.0926,0.009 0.26175,-0.2537 c 0.57538,-0.55769 1.04051,-1.20918 1.51004,-2.11506 0.69716,-1.34504 1.1431,-2.72989 1.23027,-3.82046 0.0221,-0.27688 0.0216,-3.90576 -5.7e-4,-4.14563 -0.0325,-0.35157 -0.10472,-0.62062 -0.22338,-0.83281 -0.0607,-0.10863 -0.20603,-0.25565 -0.29907,-0.30266 -0.20505,-0.10358 -0.63232,-0.15286 -1.46648,-0.16911 -0.42571,-0.008 -0.72804,-0.0337 -0.7581,-0.0638 -0.007,-0.007 -0.0248,-0.0834 -0.039,-0.16918 -0.0411,-0.24945 -0.018,-0.6699 0.0644,-1.170473 0.0464,-0.28137 0.1046,-0.57781 0.11604,-0.59038 0.006,-0.007 0.0167,0.014 0.0226,0.0468 0.0337,0.18447 0.17184,0.69767 0.20961,0.77841 0.0547,0.117033 0.12501,0.198443 0.21869,0.253423 0.0582,0.0342 0.0914,0.0423 0.17345,0.0423 0.0936,0 0.11601,-0.007 0.28876,-0.0958 0.19592,-0.10022 0.46955,-0.256343 0.96771,-0.552113 0.4196,-0.24912 0.88081,-0.48367 0.95109,-0.48367 h 0.0556 z m -14.39859,-0.60935 c 0.44988,0.26295 1.14467,0.53218 2.32753,0.90193 1.161,0.36291 1.82975,0.60957 2.30812,0.85129 0.54821,0.27703 0.93967,0.56799 1.22768,0.9125 0.29444,0.35222 0.44985,0.68856 0.55952,1.21095 0.21233,1.01145 0.56843,1.96355 1.08982,2.91382 0.58376,1.06395 1.34744,2.112 2.2893,3.14177 0.20658,0.22585 0.25353,0.28697 0.11424,0.14868 -0.0562,-0.0558 -2.14452,-2.16643 -4.64072,-4.69028 -2.49619,-2.52384 -4.7324,-4.78373 -4.96934,-5.02194 -0.23694,-0.23822 -0.42734,-0.43301 -0.4231,-0.43286 0.004,1.6e-4 0.0569,0.029 0.11695,0.0642 z m 0.31915,1.15729 c 0.4168,0.41441 1.3443,1.33255 2.06111,2.04032 1.30478,1.28833 3.28771,3.2473 4.51847,4.4639 0.36049,0.35634 0.94697,0.93571 1.30329,1.2875 0.97473,0.96232 1.44077,1.42919 1.31899,1.32134 -0.0601,-0.0533 -0.21812,-0.19347 -0.35118,-0.31166 -1.18387,-1.05155 -2.31727,-1.82122 -3.30288,-2.2429 -0.25893,-0.11079 -0.2908,-0.12074 -1.92587,-0.60115 -0.73506,-0.21596 -1.26365,-0.44205 -1.58654,-0.67857 -0.0674,-0.0493 -0.20038,-0.16783 -0.29547,-0.26323 -0.54354,-0.54522 -0.99363,-1.41226 -1.32565,-2.55371 -0.49912,-1.71594 -0.86552,-2.70803 -1.17447,-3.18018 -0.0126,-0.0194 -0.0173,-0.0351 -0.0104,-0.0351 0.007,0 0.35369,0.33905 0.77049,0.75345 z m 10.90317,-0.0879 c 0.24118,0.0275 0.34678,0.0435 0.46044,0.0696 0.49026,0.11289 0.92922,0.33097 1.31404,0.65281 0.39068,0.32675 0.63859,0.73608 0.7467,1.23288 0.0992,0.45578 0.0722,0.83926 -0.10166,1.44503 -0.17258,0.60132 -0.4673,1.20946 -0.72295,1.49183 -0.0751,0.083 -0.24538,0.21433 -0.2595,0.20021 -0.004,-0.004 0.004,-0.0558 0.0162,-0.11575 0.10264,-0.48964 0.11454,-1.19732 0.0275,-1.63869 -0.17966,-0.91169 -0.77198,-1.38808 -1.69407,-1.3625 -0.25927,0.007 -0.356,0.0334 -0.53618,0.14505 -0.36438,0.22589 -0.71431,0.79376 -0.82716,1.34231 -0.0356,0.17304 -0.0464,0.49347 -0.0247,0.72578 0.0583,0.6206 0.23564,1.29919 0.59943,2.29441 0.14573,0.39872 0.49296,1.21066 0.78429,1.83397 0.18493,0.39568 0.78863,1.59965 0.92741,1.84958 0.64767,1.16632 1.1006,1.86941 1.61129,2.50121 0.0677,0.0837 0.1201,0.15218 0.11655,0.15218 -0.0218,0 -0.88201,-0.9756 -1.2592,-1.42815 -1.82168,-2.18556 -2.99168,-4.09337 -3.55286,-5.79328 -0.16997,-0.51488 -0.25841,-0.88524 -0.33666,-1.40992 -0.0328,-0.22035 -0.0361,-0.29481 -0.0359,-0.83504 2.1e-4,-0.63326 0.0105,-0.76669 0.0939,-1.21813 0.15205,-0.82331 0.50028,-1.43213 1.01516,-1.7749 0.29796,-0.19836 0.61838,-0.30878 1.0291,-0.3546 0.13042,-0.0146 0.50133,-0.0182 0.60872,-0.006 z m -7.07834,7.89796 c 0.90842,0.0616 1.49652,0.18185 2.39587,0.48988 1.81198,0.6206 3.9128,1.91436 5.80583,3.57547 0.37353,0.32777 1.16324,1.06928 1.16324,1.09225 0,0.006 -0.11414,-0.0658 -0.25363,-0.161 -2.49952,-1.70526 -4.44668,-2.79324 -5.86479,-3.27694 -0.3801,-0.12965 -0.87553,-0.23135 -1.12824,-0.23159 -0.13406,-1.2e-4 -0.2994,-0.0381 -0.53649,-0.12317 -0.21546,-0.0773 -0.36485,-0.10633 -0.60627,-0.11774 -0.10301,-0.004 -0.26455,-0.0194 -0.35899,-0.0321 -0.64875,-0.0878 -0.86456,-0.0919 -1.03227,-0.0192 -0.24776,0.10734 -0.46903,0.27101 -0.7638,0.56496 -0.2253,0.22466 -0.33687,0.37172 -0.39731,0.5237 -0.0308,0.0773 -0.0333,0.10581 -0.0265,0.29624 0.0113,0.31359 0.075,0.50787 0.24977,0.76152 0.31988,0.46424 1.05155,0.82115 1.86365,0.90908 0.25394,0.0275 0.81523,0.0116 0.98437,-0.0279 0.0708,-0.0166 0.12875,-0.0284 0.12875,-0.0266 0,0.004 -0.38761,0.25004 -0.65553,0.41662 -0.87423,0.54353 -1.45982,0.73312 -2.19296,0.71002 -0.3808,-0.012 -0.62704,-0.0879 -0.91907,-0.28327 -0.25724,-0.17209 -0.47035,-0.4047 -0.71608,-0.7816 -0.38155,-0.58526 -0.55291,-1.07014 -0.6062,-1.71533 -0.045,-0.54457 0.0684,-1.0352 0.32812,-1.42011 0.32192,-0.47708 0.93794,-0.84408 1.70251,-1.01431 0.39641,-0.0883 1.03079,-0.13636 1.43596,-0.10888 z m 1.61546,1.91984 c 0.90536,0.10776 1.78135,0.38272 2.8407,0.89164 0.89447,0.42973 1.87453,1.01202 3.83392,2.27789 0.15998,0.10334 0.32854,0.20033 0.3746,0.21552 0.18497,0.061 1.28292,0.50734 1.30768,0.53161 0.004,0.004 -6.22469,0.006 -13.84059,0.006 H 99.095633 v -0.25553 -0.25554 l 0.0756,-0.11516 c 0.0416,-0.0634 0.1557,-0.21427 0.25363,-0.33542 0.0979,-0.12112 0.24592,-0.30415 0.32886,-0.40671 0.298387,-0.36895 0.464977,-0.65103 0.478117,-0.80961 0.029,-0.34953 -0.317437,-0.54987 -1.053927,-0.60948 l -0.12845,-0.0103 0.0816,-0.0494 c 0.0449,-0.0272 0.11674,-0.0764 0.15967,-0.10942 0.15891,-0.12217 0.12728,-0.11811 0.922177,-0.11811 h 0.70888 l 1e-5,0.0585 c 0,0.39995 0.14285,1.855 0.19599,1.9971 0.0352,0.0942 0.18387,0.22551 0.34796,0.30743 0.24761,0.1236 0.53393,0.20072 1.01668,0.27386 0.65214,0.0988 0.98107,0.12027 2.18533,0.14265 1.18669,0.0221 2.15,0.0125 2.35685,-0.0233 0.33388,-0.0579 0.83343,-0.20641 1.39693,-0.41536 1.13983,-0.42264 2.07858,-0.83598 2.59097,-1.14083 0.48625,-0.28929 1.0315,-0.79847 1.48157,-1.38357 0.0678,-0.0881 0.12481,-0.15831 0.12681,-0.15608 0.002,0.003 -0.004,0.1375 -0.0117,0.3006 -0.0352,0.68088 0.0335,1.42904 0.15283,1.66532 0.13315,0.26364 0.39361,0.49202 0.80972,0.71 0.5373,0.28146 0.94734,0.41359 1.37403,0.44279 0.15286,0.0104 1.53154,0.0145 3.97229,0.0115 l 3.73817,-0.004 0.0773,-0.0356 c 0.0425,-0.0196 0.11524,-0.0643 0.16158,-0.0993 l 0.0842,-0.0636 -0.006,-0.24412 c -0.006,-0.21902 -0.011,-0.25522 -0.0487,-0.35203 -0.22925,-0.58791 -1.26223,-1.37095 -2.85884,-2.16713 -0.61579,-0.30708 -1.45403,-0.63618 -1.56464,-0.61429 -0.0254,0.005 -0.0877,-0.007 -0.15226,-0.029 l -0.10926,-0.0375 0.0703,9e-4 c 0.0386,5.8e-4 0.0913,0.004 0.11706,0.007 z"
       id="path1504" />
    <path
       id="path1526"
       style="fill:#f9cc9d;fill-opacity:1;stroke-width:0.0239786"
       d="m 104.70137,7.8623233 c -1.03944,1.2104182 -0.88303,3.6462927 0.9663,3.9281427 1.58062,0.262045 3.2512,-1.552656 2.35495,-3.0396956 -0.78662,-1.1442611 -2.98638,-0.1851433 -2.36761,1.1907609 0.64194,1.1338757 2.43827,-0.4077543 1.31193,-1.1114736 -1.4507,-0.4433614 1.77591,0.014406 0.80161,1.2760753 -0.31058,1.347765 -2.67807,1.786448 -3.12668,0.19479 -0.51926,-2.1249632 1.97007,-3.9824413 3.95713,-3.6192541 1.06002,0.2069251 1.73676,0.8873573 1.82386,2.0178784 0.19424,1.5855777 0.29201,0.2297737 -0.31827,-0.3516843 -0.88057,-0.6127563 -2.21675,-1.2134893 -3.34212,-0.6878424 0.66097,0.3178947 2.14507,0.2808199 2.94697,1.05894 0.72137,0.5878236 0.24973,1.3134864 0.7483,2.2080234 0.39363,0.834008 -2.1281,2.102331 -2.64216,3.459134 -0.87276,2.30352 0.12788,4.997472 -0.53195,7.370765 -0.14638,0.526492 -0.35216,1.207969 -0.74291,1.461394 -0.93084,0.620573 -1.5169,0.891617 -2.60732,0.618133 -1.09454,-0.414049 -2.03629,-1.658921 -1.31316,-2.792587 0.4127,-1.13532 2.34908,-1.592039 2.72226,-0.197311 0.54508,0.912072 -1.66189,2.091569 -1.2639,0.775822 0.34871,-1.051405 -1.28353,-0.823122 -0.9988,0.08377 0.21678,1.316209 2.46056,1.30099 2.84236,0.128238 0.56732,-1.036019 -0.42312,-2.721102 -1.48935,-2.517828 -2.17377,-0.816114 -3.63957,3.41789 -1.91712,4.757882 1.29811,1.430302 3.28211,0.816074 4.66319,-0.104408 0.87989,-0.164513 1.0973,-1.400609 1.33894,-2.234677 0.6322,-2.182121 -0.49409,-4.639363 0.16482,-6.813568 0.45225,-1.492304 3.26752,-2.412627 2.50203,-3.952642 1.4707,0.122458 1.07306,1.951333 1.3897,2.967729 0.22601,2.129141 1.27545,3.442599 2.33024,4.918732 0.68979,0.965336 1.48472,1.960388 2.54947,2.483829 1.71368,0.842457 3.85771,2.112617 5.67148,0.807699 1.17093,-0.480009 2.06985,-2.085797 1.404,-3.107832 0.66506,-0.05047 1.74439,-2.678543 1.51423,-1.391569 -0.38224,1.350186 -0.36308,3.223501 1.15515,3.77269 -0.0241,0.217174 1.70438,0.687189 2.35412,-0.596784 0.78293,-1.547185 -0.21441,-2.760265 -0.50714,-2.56999 -0.96824,-0.404524 -2.38898,0.746793 -1.69394,1.684202 0.15444,-0.274113 0.66257,-1.851186 0.58406,-0.796592 2.19304,-0.07554 0.77635,2.542529 -0.72775,1.73072 -0.88127,-0.355435 -0.99993,-1.511549 -0.8185,-2.417537 0.26237,-0.950298 0.0177,-2.764403 1.05337,-1.603191 0.53268,-1.766972 -0.0857,-3.87489 -1.44296,-5.098083 -1.64501,-1.9673938 -4.54042,-2.9748322 -6.99853,-2.0764762 -1.28368,0.4446662 -2.20742,1.1287432 -3.13147,2.0930692 -0.34136,0.671164 -0.83557,0.971537 -0.35878,-0.05267 0.3975,-1.278637 0.89111,-2.7897668 0.29559,-3.9789736 -0.39114,-0.7811079 -1.34158,-1.3068158 -2.20902,-1.410085 -1.11067,-0.1322246 -2.35888,1.4338538 -3.17324,1.0909629 -1.72957,-1.8138989 -4.01883,-1.7312403 -5.56802,0.2850399 l -0.0855,0.087148 z m 1.53026,0.9638562 c 0.69738,0.4942023 0.27112,1.9439695 -0.29574,0.5006908 0.16198,-0.1095022 0.11732,-0.4365586 0.29574,-0.5006908 z m 5.4112,-1.1758273 c 0.92079,-1.1439318 2.94676,-0.8268292 3.40243,0.6209083 0.59541,1.8591755 -0.37281,3.7411325 -0.87859,5.5003605 -0.35419,0.967311 -0.10695,1.088838 -0.31465,2.013368 -0.34506,-1.820786 -0.65082,-2.744974 -1.16488,-4.54497 1.51826,-0.19389 2.62935,-2.3671201 1.27098,-3.4056626 -1.39502,-1.2684069 -2.06077,2.1535655 -2.6015,0.5770683 -0.30997,-0.2149479 0.11036,-0.6411398 0.28621,-0.7610725 z m -0.54048,1.4777862 c 0.47939,0.6965941 1.06949,2.2734116 -0.007,0.6310839 -0.065,-0.051293 -0.27175,-1.0264758 0.007,-0.6310839 z m 1.59946,-0.8853978 c 1.64712,-0.7954384 1.77888,2.0334404 0.32222,2.3136284 -0.86206,0.389277 -1.10476,-1.1667158 0.0967,-0.6491104 1.53451,-0.8613429 -0.26894,-1.9057631 -0.7486,-1.3334832 l 0.32975,-0.3310113 z m -0.42387,0.6511144 c 0.54048,0.3475764 1.65578,-0.098611 0.43982,0.7434798 -0.38111,0.075757 -0.68443,-0.581291 -0.43982,-0.7434798 z m -1.18854,1.841435 c -0.0408,0.02433 -0.05,-0.09758 0,0 z m 7.38418,-0.207283 c 2.47066,-1.242721 5.78565,-0.363492 7.06566,2.167495 1.1355,1.849934 0.50411,4.591049 -1.28095,5.908317 -1.37383,1.193142 -4.02601,1.263994 -4.76394,-0.681011 -0.19478,-0.918383 0.786,-1.921961 1.64951,-1.348495 0.5824,0.916859 -1.50195,-0.139796 -0.95903,1.353278 0.90576,1.080289 2.38018,-0.802776 1.3995,-1.653827 -1.05964,-0.959474 -2.76049,0.253871 -2.61358,1.542636 -0.57699,-1.292704 -0.0753,-2.971479 0.96258,-3.825385 0.47678,0.10636 0.8753,1.937108 1.83169,0.711625 0.6383,-0.802388 -0.58495,-1.433835 0.16967,-2.254986 0.28123,0.258958 0.55391,1.53958 0.82651,2.169562 0.31944,1.498506 2.56765,1.784835 3.09764,0.230643 0.80006,-1.70747 -2.09755,-2.188028 -2.09368,-0.412235 0.30412,1.421756 1.8559,0.549359 0.90134,-0.477076 -0.55063,-0.878985 1.94272,0.349134 0.42931,1.169816 -1.46942,1.001638 -2.03251,-1.178875 -2.26138,-2.260122 -0.46165,-1.313902 -1.39526,-2.428985 -2.86873,-2.535378 -0.44868,-0.09835 -1.32598,0.177128 -1.49212,0.195143 z m -0.12777,0.734714 c 0.99378,-0.640476 2.85142,-0.448031 3.09165,0.891247 -0.42186,-1.10368 -2.26222,-0.575225 -2.2288,0.560987 0.68192,1.14597 -0.44984,1.732475 -0.71332,2.884184 -0.61313,1.567685 0.13307,3.506858 1.77485,4.133108 0.79183,0.452799 1.99837,0.102547 2.63958,0.207792 -0.037,1.097987 1.98605,0.110621 0.60205,1.1888 -1.5363,1.35208 -3.41673,0.549405 -5.1576,-0.668412 -0.67302,-1.185095 -2.20791,-1.707726 -2.89544,-2.52821 -0.76616,-2.289697 -0.0958,-3.458839 1.71581,-4.81873 0.72173,-0.276791 2.54451,-1.379932 1.13882,-1.775465 -0.10791,0.08077 -0.0659,-0.156688 0.0324,-0.07531 z m 1.89883,0.665035 c 0.4998,0.09081 1.08066,1.09317 0.22238,1.325645 -0.91052,0.471894 -1.33525,-0.831505 -0.22238,-1.325645 z m 1.28294,0.435365 c -0.0106,0.220824 -0.0481,-0.180663 0,0 z m -5.90104,6.02121 c -0.0408,0.02434 -0.05,-0.09756 0,0 z m 5.56705,-4.682677 c 1.34396,0.645097 -1.11725,1.698091 -0.1406,0.18708 l 0.0337,-0.06763 0.1068,-0.119473 z m -0.50471,3.516284 c 0.60428,-0.289899 -0.59198,1.159221 0,0 z m 2.89039,2.368052 c 1.1249,-0.433162 -0.98991,1.478558 0,0 z m 4.75885,-1.022332 c 0.40017,-0.06649 -0.68947,0.263544 0,0 z"
       sodipodi:nodetypes="cccccccccccccaaccccccccccaaccaaccccsccccccccccaaccccccccccccccccccccccccccccccccccccccccccccccccsccccccccccsscccccccscccscccccc" />
  </g>
</svg>
