<?xml version="1.0" encoding="UTF-8" standalone="no"?>
<svg
   xmlns:dc="http://purl.org/dc/elements/1.1/"
   xmlns:cc="http://creativecommons.org/ns#"
   xmlns:rdf="http://www.w3.org/1999/02/22-rdf-syntax-ns#"
   xmlns:svg="http://www.w3.org/2000/svg"
   xmlns="http://www.w3.org/2000/svg"
   xmlns:sodipodi="http://sodipodi.sourceforge.net/DTD/sodipodi-0.dtd"
   xmlns:inkscape="http://www.inkscape.org/namespaces/inkscape"
   width="512"
   height="512"
   viewBox="0 0 135.46667 135.46667"
   version="1.1"
   id="svg4950"
   inkscape:version="1.0.1 (3bc2e813f5, 2020-09-07)"
   sodipodi:docname="border_nouveau.svg">
  <defs
     id="defs4944" />
  <sodipodi:namedview
     id="base"
     pagecolor="#ffffff"
     bordercolor="#666666"
     borderopacity="1.0"
     inkscape:pageopacity="0.0"
     inkscape:pageshadow="2"
     inkscape:zoom="3.9078446"
     inkscape:cx="81.489548"
     inkscape:cy="170.69291"
     inkscape:document-units="mm"
     inkscape:current-layer="layer1"
     inkscape:document-rotation="0"
     showgrid="false"
     inkscape:snap-global="false"
     units="px"
     inkscape:window-width="1468"
     inkscape:window-height="1048"
     inkscape:window-x="443"
     inkscape:window-y="0"
     inkscape:window-maximized="0" />
  <metadata
     id="metadata4947">
    <rdf:RDF>
      <cc:Work
         rdf:about="">
        <dc:format>image/svg+xml</dc:format>
        <dc:type
           rdf:resource="http://purl.org/dc/dcmitype/StillImage" />
        <dc:title />
      </cc:Work>
    </rdf:RDF>
  </metadata>
  <g
     inkscape:label="Layer 1"
     inkscape:groupmode="layer"
     id="layer1">
    <path
       id="path5527"
       style="fill:#e18670;fill-opacity:1;stroke-width:0.999999"
       d="m 40.978516,15.791016 c -6.974062,-0.30908 -15.242663,6.480847 -20.025391,16.677734 -2.197531,4.685186 -2.591699,6.888979 -2.541016,14.203125 0.05055,7.294923 0.468052,9.444317 2.654297,13.658203 l 2.59375,5.001953 -2.154297,3.341797 c -1.185002,1.837924 -2.266797,3.904297 -2.404297,4.591797 -0.385306,1.92655 1.738956,1.479331 2.375,-0.5 2.691172,-8.374753 3.331032,-8.553526 5.962891,-1.662109 l 1.744141,4.568359 -3.416016,2.917969 c -1.878667,1.605649 -3.907509,2.920575 -4.509766,2.921875 -0.602255,0.0013 -1.926115,0.921088 -2.941406,2.042969 -1.839299,2.032402 -1.836597,2.033933 1.09375,0.505859 4.904406,-2.557478 5.428151,-2.015709 3.345703,3.464844 -1.047159,2.755899 -1.904297,6.580899 -1.904297,8.5 0,3.612975 -1.330893,4.674899 -2.392578,1.908203 -1.057304,-2.755291 -0.659423,-6.223388 0.892578,-7.775391 1.714511,-1.714511 1.916073,-2.642578 0.572266,-2.642578 -3.969562,0 -5.592428,9.477895 -2.203125,12.867185 1.161324,1.16133 2.135506,4.09403 2.574219,7.75 0.388188,3.23493 0.927508,7.00783 1.199219,8.38281 0.47707,2.4143 0.440147,2.43318 -1.074219,0.5586 -0.862469,-1.06762 -1.56836,-1.46083 -1.56836,-0.87305 0,0.58777 0.705139,1.65436 1.566407,2.36914 3.800228,3.15391 4.770731,7.10809 4.517578,18.41211 -0.135084,6.03208 -0.669418,11.75852 -1.1875,12.72656 -0.762762,1.42522 -0.620039,1.63661 0.753906,1.10938 1.306794,-0.50147 1.545136,-0.25476 1.035156,1.07422 -0.364184,0.94903 -0.25649,1.47498 0.240235,1.16797 0.496724,-0.307 1.091008,0.004 1.320312,0.6914 0.416466,1.2494 0.217499,-2.88366 -0.841797,-17.48633 -0.549411,-7.5738 -0.03416,-8.98142 2.396485,-6.55078 l 4.201174,4.80274 c 0.668594,0.003 6.220727,10.67817 6.083984,11.69726 -0.05907,0.44021 -0.664348,0.86143 -1.345703,0.93555 -2.922656,0.31767 -3.090882,0.60426 -0.738281,1.25977 2.103995,0.58622 2.447655,1.20413 2.173828,3.90039 -0.178953,1.76205 0.107937,3.20507 0.636718,3.20507 1.397587,0 4.189454,6.34631 4.189454,9.52344 0,2.30557 0.229164,2.53126 1.5,1.47656 0.825002,-0.68467 1.5,-1.91514 1.5,-2.73242 0,-1.10395 0.672102,-1.31682 2.61914,-0.82812 2.413641,0.60579 2.5717,0.45723 1.982422,-1.89063 -0.457039,-1.82098 -0.241724,-2.54882 0.75586,-2.54883 0.768135,0 1.925962,-0.63727 2.572265,-1.41601 0.93617,-1.12802 0.775503,-1.54249 -0.789062,-2.03906 -1.080129,-0.34283 -3.197862,-2.24209 -4.707032,-4.22071 -2.392607,-3.13687 -2.582465,-3.86824 -1.472656,-5.71093 1.051427,-1.74575 1.043533,-1.89588 -0.04492,-0.86329 -1.731655,1.64279 -4.916015,1.60299 -4.916015,-0.0605 0,-0.71988 -0.68219,-2.18238 -1.515625,-3.25 -1.439392,-1.84384 -1.48506,-1.80162 -0.892579,0.81054 0.342993,1.5125 0.358545,2.75 0.0332,2.75 -0.574557,0 -5.625,-9.39773 -5.625,-10.46679 0,-0.29328 1.549547,-0.5332 3.443359,-0.53321 4.101921,0 6.607632,-2.90254 6.453125,-7.47265 l -0.0957,-2.87305 c 0.741778,0.18451 1.532479,0.70384 2.287109,1.5918 1.731946,2.03794 1.852461,2.06354 1.257813,0.2539 -0.361459,-1.09999 -1.149833,-2.64701 -1.751953,-3.4375 -0.89023,-1.16869 -0.731141,-1.30086 0.849609,-0.70703 1.791836,0.67313 1.821594,0.59025 0.386719,-1.0625 -2.375263,-2.73592 -2.965746,-7.6562 -1.21875,-10.15039 1.686259,-2.40747 0.949794,-4.57279 -1.265625,-3.72265 -0.797919,0.3062 -1.182524,0.12023 -0.853516,-0.41211 0.329004,-0.53233 0.09186,-1.91331 -0.527344,-3.07032 -1.034471,-1.93291 -1.267778,-1.976 -2.875,-0.52148 -0.962037,0.87063 -2.500729,1.58399 -3.419921,1.58398 -1.116012,0 -1.671876,0.83061 -1.671876,2.5 0,1.37501 -0.449999,2.5 -1,2.5 -1.929474,1e-5 -0.974421,2.78576 1.513672,4.41602 1.91779,1.25659 2.467589,2.40976 2.322266,4.86524 -0.104746,1.76995 -0.668064,3.84448 -1.253906,4.61132 -0.862594,1.12908 -0.639965,1.25989 1.175781,0.6836 1.944522,-0.61717 2.260796,-0.33792 2.378906,2.10547 0.107558,2.2252 0.225051,2.36263 0.558594,0.65234 0.406938,-2.08673 1.640113,-3.01901 3.066406,-2.6875 l -0.734375,3.0957 c -1.060437,4.46692 -2.783811,6.25782 -6.02539,6.25781 -3.894355,0 -4.768999,-1.57043 -5.158204,-9.26367 -0.261591,-5.17083 -0.04366,-6.64878 0.929688,-6.27343 0.963379,0.37147 1.024191,0.0267 0.25,-1.41993 -1.951344,-3.64612 -1.226024,-9.74858 1.478516,-12.45312 2.039259,-2.03926 2.498676,-3.475396 2.49414,-7.794923 -0.0031,-2.9125 -0.411623,-6.869922 -0.90625,-8.794922 -0.49463,-1.924997 -1.185361,-6.596378 -1.535156,-10.378906 -0.600457,-6.493059 -0.525204,-6.847938 1.328125,-6.363281 1.287066,0.336573 2.807867,-0.394722 4.417969,-2.123047 3.840793,-4.122815 4.972486,-7.036277 4.318359,-11.126953 -0.528045,-3.302223 -0.04576,-4.508387 4.257813,-10.617188 4.150802,-5.891947 5.570982,-7.141599 9.787109,-8.611328 2.712242,-0.945483 7.737806,-3.532982 11.167969,-5.75 l 6.236328,-4.029297 h 18.839844 18.837891 l 4.20312,4.558594 c 2.31199,2.508211 4.92611,6.220711 5.8086,8.25 1.11829,2.571575 1.72222,3.173011 1.99023,1.982422 0.40628,-1.804955 -2.55201,-8.758354 -5.33594,-12.542969 l -1.65429,-2.25 -2.76563,-2.986328 -5.24609,-2.931641 c -10.63093,-5.941512 -28.779165,-6.061592 -41.152345,-0.271484 -5.243624,2.45379 -8.176455,3.191406 -12.705078,3.191406 -4.402023,0 -5.888672,-0.357081 -5.888672,-1.412109 0,-2.171399 -5.657998,-6.434267 -9.496093,-7.154297 -0.452007,-0.0848 -0.912016,-0.137598 -1.376953,-0.158203 z M 41.730469,18.375 c 0.446047,-0.0033 0.902938,0.0058 1.371093,0.02539 2.547746,0.106684 6.752404,3.137041 6.75,4.865234 -5.69e-4,0.412498 -3.324415,0.818476 -7.384765,0.902344 -8.57435,0.177078 -11.363562,1.349399 -12.181641,5.125 -0.324283,1.496621 -1.094575,3.761762 -1.71289,5.033203 -0.849502,1.746842 -0.821656,2.795114 0.111328,4.289062 1.009553,1.616523 0.954361,2.256577 -0.298828,3.509766 -1.870651,1.870673 -1.959377,3.289817 -0.246094,3.947266 0.822629,0.31567 1.34726,2.647804 1.453125,6.466796 0.09109,3.286115 -0.03819,5.976563 -0.287109,5.976563 -0.248913,0 -0.453126,-1.313805 -0.453126,-2.917969 0,-1.604167 -0.5625,-3.103143 -1.25,-3.332031 -2.17246,-0.723228 -1.664283,-20.380331 0.660157,-25.542969 2.549058,-5.66151 6.778041,-8.298682 13.46875,-8.347655 z m 54.546875,2.548828 c 0.739063,-0.01348 1.387006,0.01643 1.904297,0.09766 4.821609,0.757066 10.670779,2.643464 10.671879,3.44336 10e-4,0.765721 -26.100099,0.692813 -26.576176,-0.07422 -0.732761,-1.18059 8.826557,-3.372429 14,-3.466797 z m -19.259766,1.705078 c 0.2038,0.02438 0.36245,0.07925 0.457031,0.173828 0.212425,0.212425 -0.724349,0.89312 -2.082031,1.511719 -1.357686,0.618595 -2.707212,0.74012 -2.998047,0.269531 -0.454202,-0.73491 3.196451,-2.125709 4.623047,-1.955078 z m -41.166016,4.884766 c 2.694729,0 3,0.319566 3,3.132812 0,2.261496 0.937361,4.015352 3.373047,6.3125 3.014344,2.842893 3.227092,3.382395 2,5.060547 -0.847559,1.159106 -1.373047,1.375234 -1.373047,0.564453 10e-7,-0.986022 -0.33366,-1.035896 -1.341796,-0.199218 -1.043059,0.865663 -1.601467,0.546289 -2.5,-1.425782 -0.636325,-1.39658 -1.158204,-3.868067 -1.158204,-5.492187 10e-7,-3.379639 -0.598437,-3.62404 -3.169921,-1.296875 -1.743776,1.578093 -1.830078,1.461943 -1.830079,-2.5 0,-3.949984 0.148015,-4.15625 3,-4.15625 z m 19.001954,0 h 3.191406 l -4.845703,4.460937 c -2.665712,2.453163 -5.108844,4.478079 -5.429688,4.5 -1.132607,0.07709 -1.917968,-1.317208 -1.917969,-3.410156 0,-2.659714 4.687581,-5.550781 9.001954,-5.550781 z m -10.376954,0.002 c 2.487523,0 2.569148,0.129539 1.121094,1.75 -0.860092,0.962498 -1.716643,2.838028 -1.904297,4.169922 l -0.341797,2.421875 -1.382812,-2.603516 c -1.829548,-3.445311 -0.826433,-5.738281 2.507812,-5.738281 z m 23.777344,0.193359 c 0.143914,-0.0185 0.27046,-0.01818 0.375,0.002 1.171442,0.225595 0.05216,1.351747 -3.53125,3.55664 -2.885253,1.775316 -5.246108,2.895696 -5.246094,2.488281 5.7e-5,-1.382081 6.243639,-5.769329 8.402344,-6.046875 z m -12.457031,4.914063 c 0.153985,0.04894 -0.313405,0.579058 -1.349609,1.746094 -2.116335,2.383541 -2.595704,2.602282 -2.595704,1.18164 10e-7,-0.530645 1.012501,-1.497105 2.25,-2.146484 0.83922,-0.440386 1.363572,-0.714856 1.591797,-0.773438 0.04755,-0.0122 0.08152,-0.0148 0.103516,-0.0078 z m -32.666016,2.392578 0.722657,7.529297 c 0.3975,4.141168 1.040098,8.528691 1.427734,9.75 0.387802,1.221819 0.282189,2.220703 -0.236328,2.220703 -1.370071,0 -2.212949,-5.285909 -2.052734,-12.875 z m 25.769532,4.433594 c 0.05382,-0.01141 0.101138,-0.01027 0.140625,0.0039 0.526488,0.188979 -0.224353,2.618212 -2.267578,6.390625 -1.689204,3.118779 -3.236279,5.669922 -3.4375,5.669922 -1.455602,0 -1.355563,-2.484488 0.167968,-4.167969 1.016379,-1.123086 1.71044,-2.237469 1.542969,-2.476562 -0.167471,-0.23909 0.584778,-1.652916 1.669922,-3.142579 1.079594,-1.482053 1.806856,-2.197493 2.183594,-2.277343 z m -28.814453,0.564453 0.902343,5.443359 c 0.94749,5.713225 0.708611,8.703217 -0.453125,5.675781 C 20.159214,50.153137 19.90446,47.25111 19.96875,44.683594 Z m 13.710937,7.728516 c 0.09416,-0.009 0.195005,0.0065 0.304687,0.04492 0.713095,0.250001 1.115566,1.649869 0.935547,3.259766 -0.275229,2.461168 -0.115407,2.654674 1.25,1.521484 0.861067,-0.71464 1.555064,-0.905622 1.542969,-0.425781 -0.04029,1.580977 -3.538867,5.476762 -4.265625,4.75 -0.391438,-0.391442 -0.712891,-2.697786 -0.712891,-5.126953 0,-2.71284 0.286172,-3.960184 0.945313,-4.023437 z m 7.699219,3.101562 c 0.292974,0.037 0.590076,0.238731 0.845703,0.652344 0.752844,1.218126 -3.528733,15.207502 -4.974609,16.253906 -2.882665,2.086231 -4.689549,0.351675 -3.345704,-3.210938 0.761356,-2.018395 1.106324,-2.203188 1.867188,-1 0.677352,1.07113 0.936305,0.468785 0.947266,-2.193359 0.01994,-4.776752 0.857696,-6.829406 2.52539,-6.189453 0.93289,0.357986 1.186903,-0.08478 0.830078,-1.449219 -0.418229,-1.599313 0.425764,-2.974275 1.304688,-2.863281 z m -20.064453,5.128906 c 0.334574,0.01171 0.856871,0.740058 1.330078,1.931641 0.630939,1.588781 0.945038,3.088164 0.699219,3.333984 -0.735633,0.735632 -2.774969,-3.737318 -2.292969,-5.029297 0.06128,-0.164251 0.152147,-0.240232 0.263672,-0.236328 z m 22.513671,0.542969 c 1.269574,0 1.130564,1.524414 -0.492187,5.408203 -1.15708,2.769286 -3.601562,5.707411 -3.601563,4.328125 0,-1.691452 3.382577,-9.736328 4.09375,-9.736328 z m -18.917968,0.08984 c 0.135615,0.01483 0.518531,0.461471 1.242187,1.349609 0.8699,1.067622 1.582031,2.305119 1.582031,2.75 0,0.444862 -0.449999,0.810547 -1,0.810547 -0.549999,0 -0.999999,-0.414905 -1,-0.919922 0,-0.505017 -0.262132,-1.742514 -0.582031,-2.75 -0.26612,-0.83811 -0.377803,-1.255063 -0.242187,-1.240234 z m 8.382812,2.910156 c 0.242559,0 0.441406,0.449999 0.441406,1 0,0.550001 -0.476134,1 -1.058593,1 -0.582452,0 -0.781336,-0.449999 -0.441407,-1 0.33992,-0.550001 0.816062,-1 1.058594,-1 z m -5.753906,3.042969 c 0.745863,0.07166 2.155215,2.009446 2.179688,3.207031 0.0084,0.41249 -0.385796,0.75 -0.876954,0.75 -1.109068,0 -2.363922,-3.077483 -1.576172,-3.865234 0.07344,-0.07344 0.166886,-0.102034 0.273438,-0.0918 z m 18.923828,5.335937 c -0.20845,-0.06611 -0.35237,0.905513 -0.664062,3.111328 -0.639564,4.526121 -3.510072,5.986394 -5.748047,2.925782 -1.028361,-1.406363 -1.316407,-1.473705 -1.316407,-0.308594 0,0.820123 0.541172,2.031406 1.201172,2.691406 3.74637,3.746374 8.86528,-0.83284 7.240235,-6.476562 -0.349576,-1.214065 -0.550763,-1.891941 -0.712891,-1.94336 z m -14.125,4.763672 c 0.306018,0.05464 0.891826,1.026374 1.402344,2.369141 0.583461,1.53459 0.927174,3.191148 0.763672,3.68164 -0.163499,0.490492 -0.845625,-0.560905 -1.515625,-2.335937 -0.670008,-1.775036 -1.013726,-3.431587 -0.763672,-3.681641 0.03126,-0.03126 0.06956,-0.04101 0.113281,-0.0332 z m -5.191406,8.970703 c 0.02768,0.0039 0.05423,0.01712 0.07617,0.03906 0.781243,0.781243 -0.704863,7.847656 -1.650391,7.847656 v -0.002 c -0.495761,0 -1.309228,1.012499 -1.806641,2.25 -0.826797,2.056936 -0.907441,2.080326 -0.945312,0.251953 -0.04501,-2.173322 3.468135,-10.506503 4.326172,-10.386719 z m 5.472656,1.779297 c 0.189055,-0.0558 0.467945,0.233818 0.871094,0.785156 0.690066,0.943741 0.97612,2.640681 0.636719,3.769532 -1.158051,3.851746 -1.892579,3.457827 -1.892579,-1.015625 0,-2.392902 0.06967,-3.44606 0.384766,-3.539063 z m -3.367187,0.285156 c 0.05826,0.04269 0.122176,0.232181 0.189453,0.582032 0.239357,1.24391 0.230749,3.043911 -0.01953,4 -0.250301,0.956088 -0.446507,-0.05977 -0.435546,-2.259766 0.0069,-1.375002 0.08962,-2.197561 0.208984,-2.316406 0.0179,-0.01783 0.03722,-0.02009 0.05664,-0.0059 z m 6.726562,6.822266 c 0.4161,0 0.75586,1.953993 0.755859,4.34375 10e-7,3.075016 -0.584574,4.875313 -2,6.156242 -1.94164,1.75717 -1.999999,1.74607 -2,-0.36132 0,-2.938363 2.30418,-10.138672 3.244141,-10.138672 z m -10.025391,1.445313 c 0.483691,0.07875 0.781251,1.557528 0.78125,3.99414 0,2.50746 -0.148686,4.560539 -0.332031,4.560539 -1.803912,1e-5 -2.388476,-7.43666 -0.667969,-8.499992 0.07635,-0.04719 0.149653,-0.06594 0.21875,-0.05469 z m 3.292969,0.40039 c 0.05466,0.03145 0.114853,0.163672 0.177735,0.404297 0.251527,0.962502 0.251527,2.537498 0,3.5 -0.251528,0.962498 -0.457032,0.175 -0.457032,-1.75 0,-1.443745 0.115304,-2.248631 0.279297,-2.154297 z m -7.126953,2.279297 c 0.229597,-0.09694 0.534594,0.864642 0.835938,2.917969 0.245722,1.674213 0.07158,3.275353 -0.386719,3.558593 -0.458302,0.28324 -0.833984,-1.08551 -0.833985,-3.042968 10e-7,-2.180563 0.15517,-3.336655 0.384766,-3.433594 z m 6.980469,6.220702 c 0.09095,0.0138 0.198652,0.16766 0.318359,0.46679 0.28887,0.72188 0.254171,1.58372 -0.07813,1.91602 -0.332311,0.33229 -0.568817,-0.25834 -0.52539,-1.3125 0.02999,-0.72809 0.133581,-1.09326 0.285156,-1.07031 z m -5.964844,2.03515 c 2.301982,0.33786 4.599609,2.73263 4.599609,4.79297 0,1.06183 -1.066521,3.50203 -2.371093,5.42188 -2.290488,3.37075 -2.393026,3.41218 -2.986328,1.19726 -0.337901,-1.26152 -0.621348,-4.39124 -0.628907,-6.95507 -0.01005,-3.43067 0.357032,-4.60814 1.386719,-4.45704 z m 6.066406,3.08008 c 0.06029,0.0225 0.125959,0.1172 0.195313,0.28906 0.277417,0.6875 0.277417,1.81252 0,2.5 -0.277425,0.6875 -0.503906,0.12501 -0.503906,-1.25 0,-1.03123 0.127723,-1.60644 0.308593,-1.53906 z m -2.804687,8.97656 c 0.02993,-0.005 0.0554,0.002 0.07813,0.0195 0.109097,0.0865 0.139051,0.44075 0.121094,1.04296 -0.0328,1.1 -0.402795,3.12502 -0.822266,4.5 -0.632587,2.07359 -0.885248,2.21498 -1.476563,0.83204 -0.398134,-0.93114 -0.03511,-2.91803 0.822266,-4.5 0.674158,-1.2439 1.067829,-1.85727 1.277344,-1.89454 z m 1.798828,2.39258 c 0.34756,0.0788 0.648298,1.45926 1.035156,4.46485 0.802927,6.23812 0.539518,7.3403 -1.3125,5.48828 -1.330223,-1.33021 -1.456702,-6.2548 -0.238281,-9.28321 0.189677,-0.47143 0.357643,-0.70573 0.515625,-0.66992 z m 20.134766,36.15625 c 0.576124,-0.0257 1.418489,0.60911 1.820312,1.65625 h 0.002 c 0.346772,0.90372 0.476187,1.79531 0.289063,1.98242 -0.475922,0.47592 -2.707032,-1.85329 -2.707032,-2.82617 0,-0.54416 0.250029,-0.79706 0.595704,-0.8125 z m -3.230469,4.35938 c 0.09094,0.0138 0.198652,0.16766 0.318359,0.46679 0.28887,0.72188 0.254171,1.58372 -0.07813,1.91602 -0.332273,0.33229 -0.568817,-0.25834 -0.52539,-1.3125 0.02999,-0.72809 0.133581,-1.09326 0.285156,-1.07031 z m 433.713883,218.17688 -0.043,0.13171 -2.74023,-4.85937 c -3.09634,-4.67229 -2.86906,-7.00434 -0.32813,-6.0293 0.75179,0.28849 1.66219,0.0445 2.02539,-0.54297 0.39999,-0.64717 -0.30997,-1.06836 -1.80273,-1.06836 -2.31239,0 -2.42903,-0.25459 -1.90625,-4.15234 0.3693,-2.75309 0.20495,-3.93701 -0.48633,-3.50977 -1.43421,0.88642 -4.30221,-3.75061 -4.55469,-7.36523 -0.2333,-3.33891 -1.87578,-3.44943 -2.67968,-0.17969 -0.39931,1.62421 -0.89205,1.91401 -2.02735,1.19141 -2.46311,-1.56768 -3.26125,-1.12823 -2.75586,1.51562 0.36681,1.91872 0.059,2.5 -1.32421,2.5 -3.4255,0 -2.95517,1.91202 1.58593,6.45313 4.07592,4.07595 4.4366,4.7961 3.4043,6.80273 -0.95278,1.85189 -0.92326,2.02561 0.16797,0.99414 2.21117,-2.09011 3.63106,-1.42749 5.35547,2.5 l 1.64648,3.75 -0.51562,-3.25 c -0.97459,-4.78416 0.67533,-3.95148 3.71679,2.25 l 2.69727,5.5 h -3.41797 c -4.46672,0.94594 -6.55287,2.20639 -6.5918,7.32031 -0.0281,3.68894 -0.18857,3.97465 -1.36132,2.42969 -1.92904,-2.54097 -2.70808,-2.14483 -1.58594,0.80664 0.64135,1.69115 0.63402,2.34896 -0.0254,1.94141 -0.54834,-0.33887 -0.99805,-0.12513 -0.99805,0.47461 0,0.5997 0.67501,1.34929 1.5,1.66601 1.87189,0.71827 2.0593,8.39416 0.25,10.22852 -1.00112,1.01507 -0.92961,1.5028 0.35547,2.45312 0.88248,0.65258 1.92432,2.19822 2.31641,3.4336 0.81082,2.55466 2.10681,2.89326 3.27929,0.85742 0.43983,-0.76365 1.69884,-1.55529 2.79883,-1.75977 1.15899,-0.21539 2.13512,-1.3134 2.32031,-2.61132 0.17575,-1.2319 0.73826,-2.24024 1.25,-2.24024 1.617,0 1.01056,2.97163 -1.22265,5.99219 -1.5909,2.15183 -1.96851,3.30626 -1.73828,7.91406 -0.20414,0.79513 -0.0889,1.58146 0.11718,1.9961 0.0393,0.57688 0.0768,1.13166 0.12696,1.80078 0.71709,9.57052 1.27972,14.29388 2.20703,18.54687 0.50377,2.31058 0.26673,2.75 -1.48047,2.75 -1.53509,0 -2.08008,-0.63687 -2.08008,-2.42969 0,-4.41819 -5.32721,-7.39442 -7.73242,-4.32031 -1.71795,2.19572 -2.09478,5.60376 -0.8125,7.35742 1.07554,1.47062 1.18623,1.30068 0.81055,-1.25976 -0.51825,-3.5311 1.68413,-5.81648 4.6875,-4.86328 3.02112,0.9589 2.58617,5.13691 -0.95313,9.16797 -2.51475,2.86416 -3,4.26199 -3,8.64257 0,4.5368 -0.59656,6.11414 -4.52148,11.96485 -2.48659,3.70662 -5.07411,6.74622 -5.75,6.75 -1.91335,0.0152 -11.4882,4.68548 -16.39649,7.99804 l -4.43164,2.99219 H 416.9131 397.54201 l -3.69727,-4.25 c -2.0336,-2.33748 -4.53446,-6.05001 -5.55664,-8.25 l -1.85742,-4 -0.0234,3.14844 c -0.0141,1.95783 1.35564,5.02763 3.41016,8.25 l 3.4336,5.10156 5.10351,4.46289 c 2.23045,2.68755 12.27313,5.74345 20.03125,6.09571 9.93948,0.45104 18.22473,-1.06961 25.2793,-4.63672 4.41188,-2.23087 7.13377,-2.91551 11.5,-2.90039 5.46085,0.0206 5.78868,0.16794 7.2207,3.25 1.00071,2.15372 2.66508,3.63734 5,4.45507 v -0.002 c 11.36107,3.97886 23.85045,-6.89493 26.94531,-23.46094 1.11031,-5.94315 -0.41945,-16.70662 -2.99414,-21.07031 l -1.99609,-3.38476 2.02148,-3.27149 c 2.49381,-3.14264 2.6559,-6.53711 1.14258,-6.53711 -0.48469,0 -1.39242,2.02498 -2.01562,4.5 -0.62325,2.47499 -1.48743,4.5 -1.91993,4.5 -0.43249,0 -1.79758,-2.08361 -3.03515,-4.63086 l -2.25,-4.63281 2.30078,-2.49609 c 1.47916,-1.14021 3.73254,-3.10774 5.48242,-3.85352 1.74988,-0.74578 3.45413,-1.79717 3.78711,-2.33594 0.33298,-0.53877 -0.98624,-0.31478 -2.93164,0.49805 -1.94536,0.81279 -3.53711,1.34372 -3.53711,1.17969 0,-0.16392 0.89997,-2.85857 2,-5.98828 1.09999,-3.12968 2,-7.0511 2,-8.71485 0,-3.22643 1.38719,-4.06344 2.39258,-1.44336 1.19063,3.10269 0.57321,6.371 -1.58203,8.37891 -1.7799,1.65819 -1.88375,2.03906 -0.55664,2.03906 2.20271,0 4.74609,-3.82949 4.74609,-7.14648 0,-1.48543 -1.06186,-3.97264 -2.35937,-5.52735 -1.84732,-2.21344 -2.46925,-4.40117 -2.86719,-10.08789 -0.45052,-6.43801 -0.33578,-7.11908 1.02148,-6 1.344,1.10809 1.3864,0.98675 0.33399,-0.98828 -0.65938,-1.23749 -1.54973,-2.25 -1.97852,-2.25 -0.42875,0 -1.53795,-1.58954 -2.46484,-3.5332 -1.84294,-3.86472 -2.23433,-15.6801 -0.76953,-23.25586 0.45619,-2.3593 0.59306,-4.054 0.30468,-3.76563 -0.28826,0.28827 -1.11546,-0.25698 -1.83984,-1.21093 -1.22925,-1.61859 -1.32139,-1.60094 -1.36523,0.26562 -0.0391,1.66042 -0.21085,1.74532 -1.01563,0.5 -1.33527,-2.06615 -1.21708,-1.18491 0.4707,3.5 0.79257,2.19999 1.4617,7.27326 1.48438,11.27344 l 0.0449,7.27344 -2.5,-1.63868 -2.5,-1.63867 -0.002,-4.40124 z m -11.93554,-23.98548 c 0.11953,-0.005 0.25117,0.0322 0.38867,0.11719 0.54999,0.33989 1,1.04106 1,1.5586 0,0.51753 -0.45001,0.9414 -1,0.9414 -0.55,0 -1,-0.70117 -1,-1.55859 0,-0.6431 0.25274,-1.04269 0.61133,-1.0586 z m -2.92188,3.82227 c 0.18778,0.0387 0.30038,1.32565 0.0977,1.93359 -0.33872,1.01643 -0.57308,1.01551 -1.20313,-0.004 -0.83403,-1.34952 0.3063,-0.61509 1.01953,-1.86328 h 0.002 c 0.0292,-0.051 0.0571,-0.0719 0.084,-0.0664 z m 11.18555,24.13672 c 0.49075,0.0174 1.00281,0.0905 1.52929,0.22266 l 2.61329,0.65624 -0.13868,10.39063 c -0.0763,5.71412 -0.22664,10.38867 -0.33398,10.38867 -0.10741,0 -1.14561,-1.01251 -2.30664,-2.25 -2.33669,-2.49052 -3.61886,-7.39627 -2.16797,-8.29297 0.51197,-0.31642 0.92969,-1.05379 0.92969,-1.63867 0,-0.67064 -0.5541,-0.60337 -1.5,0.18164 -1.28228,1.06409 -1.5,0.76181 -1.5,-2.07812 0,-3.45502 -1.40232,-3.10038 -2.28711,0.57812 -0.27315,1.13635 -0.52995,0.39103 -0.5957,-1.72656 -0.12326,-3.95964 2.32253,-6.55353 5.75781,-6.43164 z m 6.92969,2.61719 c 1.09864,-0.17111 4.2032,4.16949 4.07812,5.90234 h -0.002 c -0.0651,0.90157 -0.44022,2.98868 -0.83594,4.63867 l -0.7207,3 -0.75977,-3 c -0.53854,-1.61454 -1.15304,-4.54929 -1.63476,-6.44336 -0.48152,-1.89407 -0.62369,-3.69423 -0.31641,-4 0.0539,-0.0536 0.11816,-0.0863 0.19141,-0.0976 z m 5.47265,7.28515 c 0.2187,-2.7e-4 0.46618,0.34128 0.80859,0.95117 0.68323,1.2169 0.37885,2.62703 -1.07812,5 l -2.0293,3.30469 0.59766,-3.5 c 0.88152,-4.09969 1.22004,-5.75525 1.70117,-5.75586 z m -5.74414,3.48828 c 0.18848,0.0613 0.39865,0.74922 0.60156,2.01758 0.28574,1.78749 0.35707,3.25 0.16016,3.25 -0.76524,0 -1.44455,-2.97266 -1.07227,-4.6914 0.0917,-0.42346 0.19746,-0.61295 0.31055,-0.57618 z m 7.82813,2.58985 c 0.28222,0.0396 0.45304,0.64267 0.75195,1.71484 0.37772,1.35492 0.7323,4.60037 0.78711,7.21289 0.10378,4.94472 -0.7165,5.67001 -4.15039,3.66992 -2.39014,-1.39211 -2.19763,-5.46078 0.46289,-9.76562 1.23862,-2.00412 1.78557,-2.88299 2.14844,-2.83203 z m -7.99219,5.08008 c 0.15011,-0.0375 0.355,0.17081 0.63086,0.59765 0.53314,0.825 0.97681,2.28751 0.98437,3.25 0.008,0.9625 -0.43438,1.75 -0.98437,1.75 -0.55,0 -0.99194,-1.46247 -0.98438,-3.25 0.007,-1.54138 0.10334,-2.28515 0.35352,-2.34765 z m 1.01953,7.97656 c 0.35859,0.007 0.61133,0.38516 0.61133,1.0039 0,0.825 -0.45001,1.77741 -1,2.11719 -0.55,0.33993 -1,-0.0578 -1,-0.88281 0,-0.825 0.45,-1.77741 1,-2.11719 0.1375,-0.085 0.26914,-0.12339 0.38867,-0.12109 z m -4.15234,1.62109 c 0.624,0 3.32265,4.58789 0.50781,4.58789 -1.26164,0 -2.11529,0.33813 -2.69336,0.82422 0.18717,-3.53461 0.93223,-5.41211 2.18555,-5.41211 z m 12.33984,1.24219 c 0.4475,0 0.42026,1.85323 0.23242,3.41601 l -0.3418,2.8418 -0.64453,-3 c -0.64456,-2.99656 -0.78224,-3.25781 0.75391,-3.25781 z m -4.54492,0.75781 c 1.51963,0 2.2736,2.65314 1.55859,5.50196 -0.97379,3.87986 -2.58984,2.94299 -2.58984,-1.50196 0,-2.19999 0.46402,-4 1.03125,-4 z m -2.47461,2.26953 c 0.38273,-0.034 0.44336,0.70857 0.44336,2.51563 0,3.43585 -1.3687,4.30191 -2.42969,1.53711 -0.36416,-0.94904 0.0232,-2.34544 0.89258,-3.21485 0.51831,-0.51837 0.86411,-0.8175 1.09375,-0.83789 z m 6.6914,4.23047 -0.73437,2.5 c -0.40445,1.37503 -2.23828,7.71932 -2.23828,5.75 0,-4.50663 -2.27539,4.07719 -2.27539,-0.0762 0,-2.30683 0.80478,-4.06837 2.625,-5.75 z m -8.24804,2.5 c 1.14134,0 1.01562,0.75346 1.01562,7 0,7.43388 -2.01562,7.16965 -2.01562,-0.30078 0,-3.80001 0.43284,-6.69922 1,-6.69922 z m -3.92383,3.67774 c 0.0376,-0.005 0.17778,0.13476 0.60742,0.13476 0.77749,0 0.25214,1.5838 -0.0801,1.91602 -0.3321,0.33229 -0.56885,-0.25835 -0.52539,-1.3125 0.024,-0.58248 -0.0396,-0.73286 -0.002,-0.73828 z m 0.002,9 c 0.0376,-0.005 0.17585,0.13476 0.60547,0.13476 0.77749,0 0.2541,1.5838 -0.0781,1.91602 -0.33245,0.33229 -0.56886,-0.25835 -0.52539,-1.3125 0.024,-0.58248 -0.0396,-0.73286 -0.002,-0.73828 z m -1.3789,10.32226 c 2.40071,0 2.73665,0.70681 1.66406,3.50196 -0.5099,1.32872 -0.81183,1.39604 -1.48633,0.33203 -0.55317,-0.8727 -0.84804,-0.10385 -0.85937,2.22461 -0.0138,3.20507 -3.10157,8.89008 -3.10157,6.4414 0,-0.55616 -0.47648,0.35001 -0.875,2 -0.5743,2.37763 -0.87857,2.65188 -1.46289,1.32031 -0.42342,-0.96495 0.23326,-4.6895 1.54102,-8.75 1.94993,-6.05431 2.60777,-7.07031 4.58008,-7.07031 z m 6.29687,1 c 0.58658,0 1.33398,0.69424 1.66016,1.54297 h -0.002 c 0.93026,2.42427 -0.36806,2.86235 -1.60937,0.54297 -0.77386,-1.4462 -0.78841,-2.08594 -0.0488,-2.08594 z m -10.27148,0.33399 c 0.12185,-0.023 0.18737,0.0285 0.18359,0.16601 -0.0164,0.55 -1.08929,3.25002 -2.38477,6 -2.30104,4.88478 -2.35819,4.92725 -2.43945,1.80664 -0.0537,-2.05946 0.79328,-4.191 2.38477,-6 1.0182,-1.15733 1.89031,-1.90379 2.25586,-1.97265 z m 12.6914,4.86132 c 0.54669,0.0881 1.48362,1.30851 1.8711,2.78907 h -0.002 c 0.2897,1.10857 0.16819,2.01562 -0.27148,2.01562 -0.82927,0 -2.01367,-2.43515 -2.01367,-4.14062 0,-0.50935 0.16752,-0.70409 0.41601,-0.66407 z m 3.82618,0.24219 c 0.2185,-0.0643 0.61987,0.44655 1.25781,1.5625 0.78603,1.37503 1.44594,2.8375 1.46484,3.25 0.0195,0.4125 -0.36627,0.75 -0.85742,0.75 -1.05691,0 -2.12216,-2.48324 -2.07227,-4.83203 0.009,-0.4468 0.0759,-0.69188 0.20704,-0.73047 z m -7.39454,1.5625 c 1.26596,0 2.29451,4.40115 1.5586,6.66992 -0.4577,1.41098 -0.36565,1.51181 0.40039,0.43555 1.5191,-2.1343 3.5521,9.20957 2.85156,15.91211 -1.00955,9.65866 -6.87264,12.45199 -10.9707,17.91602 h -0.002 c -0.99352,1.32472 -3.57329,1.05834 -4.5,1.05078 -3.87609,-0.0339 -9.64334,-4.85666 -7.89648,-6.60352 0.39386,-0.3939 1.78443,-0.14591 3.08984,0.55274 1.77309,0.94896 2.8933,0.99126 4.43164,0.16796 1.13258,-0.60612 3.18284,-1.10156 4.55469,-1.10156 3.3298,0 5.63672,-2.48595 5.63672,-6.07226 0,-2.025 0.49653,-2.92774 1.60938,-2.92774 1.27332,0 1.51461,-0.78337 1.1582,-3.75 -0.27576,-2.29497 0.11465,-4.623 1.00586,-6 0.96174,-1.48584 1.07811,-2.29223 0.3418,-2.375 -0.61327,-0.0688 -1.67774,-0.18121 -2.36524,-0.25 -1.48543,-0.14853 -2.37986,-13.625 -0.9043,-13.625 z m -3.41406,3.63672 c 0.1093,0.88399 0.48233,2.81332 0.34766,4.50977 -0.25353,3.19237 -0.56592,3.88662 -1.16992,2.60351 -0.45317,-0.96249 -0.53995,-2.48785 -0.19336,-3.39062 0.52667,-1.3725 0.38074,-1.4357 -0.89258,-0.37891 -0.83762,0.69506 -1.52344,0.84621 -1.52344,0.33399 0,-1.25385 2.80416,-2.78349 3.43164,-3.67774 z m 8.89649,1.54297 c 0.12791,0.0319 0.31139,0.16339 0.55273,0.38672 0.20765,0.19216 -0.0154,1.28122 -0.24805,2.61719 -0.0847,-0.46179 -0.17041,-0.91303 -0.24218,-1.1836 -0.30834,-1.16258 -0.37477,-1.74129 -0.17188,-1.81836 0.0304,-0.0116 0.0667,-0.0126 0.10938,-0.002 z m 4.65234,3.17187 c 0.43645,0.11934 0.87936,2.20428 0.93359,6.14844 0.0302,2.19999 -0.38088,4.67501 -0.91406,5.5 -0.30382,0.47004 -0.52322,0.31435 -0.67383,-0.4414 -0.54317,1.80289 -1.40984,3.4414 -1.5332,3.4414 -0.27674,0 -0.78131,-3.03748 -1.12109,-6.75 -0.0514,-0.56152 -0.11706,-1.13417 -0.17774,-1.70508 0.31404,0.17172 0.69781,0.27149 1.17188,0.27149 0.64122,0 1.10274,0.16978 1.43164,0.45312 -0.002,-0.4408 -0.0154,-0.7663 -0.0117,-1.26953 0.0287,-3.9215 0.45807,-5.76777 0.89453,-5.64844 z m -0.88281,6.91797 c 0.011,2.04695 0.0788,3.5376 0.22851,4.28907 0.50198,-1.66617 0.72552,-3.46718 -0.22851,-4.28907 z m -21.97266,-6.28515 c 0.28524,0.003 0.54276,0.28298 0.93359,0.67382 0.70096,0.70096 0.53841,1.43187 -0.51562,2.30665 -0.84832,0.70401 -1.54297,1.82062 -1.54297,2.48242 0,0.66175 -1.04151,2.18302 -2.31445,3.3789 -3.69449,3.47078 -3.85992,2.55744 -0.55469,-3.07617 2.60487,-4.43988 3.36661,-5.77283 3.99414,-5.76562 z m 0.61719,7.32226 c 0.1421,0.033 0.21806,0.22197 0.22656,0.56641 0.0236,1.01843 0.36876,1.09074 1.3418,0.2832 1.01722,-0.84423 1.59103,-0.31439 2.55859,2.36133 1.69773,4.69504 0.30754,7.18774 -2.16601,3.88281 -0.98816,-1.32034 -2.45071,-2.40039 -3.25,-2.40039 -1.84755,0 -1.84243,-1.10205 0.0156,-3.55859 0.61413,-0.81196 1.03661,-1.18973 1.27344,-1.13477 z m -4.61719,6.69336 c 0.40656,0 1.05302,0.98612 1.43555,2.19141 0.52554,1.65585 0.0397,2.75559 -1.98828,4.5 -1.72358,1.48252 -3.96657,2.30859 -6.26758,2.30859 h -3.58203 l 4.83203,-4.5 c 2.65772,-2.47498 5.16378,-4.5 5.57031,-4.5 z m -4.70117,0.0312 c 0.50838,-0.0173 -0.13206,1.09376 -1.42383,2.46875 -1.29173,1.37499 -2.51585,2.5 -2.7207,2.5 -0.83078,0 3.28949,-4.93851 4.14453,-4.96875 z m 7.72265,1.08008 c 0.12045,-0.0967 0.48569,0.21919 1.16797,0.88867 1.4919,1.464 2.04431,3.22293 1.80469,5.75 -0.066,0.69589 -1.449,1.25 -3.11914,1.25 h -3 l 2.05078,-2.05078 c 1.41914,-1.41834 1.8479,-2.72953 1.39258,-4.25 -0.29388,-0.98139 -0.41731,-1.49116 -0.29688,-1.58789 z m 20.32032,0.34961 c 0.0603,0.0225 0.12596,0.11719 0.19531,0.28906 0.27742,0.6875 0.27742,1.81251 0,2.5 -0.27727,0.6875 -0.50391,0.12499 -0.50391,-1.25 0,-1.03133 0.12772,-1.60647 0.3086,-1.53906 z m -34.9668,0.24805 -3.44726,3.64453 c -1.70865,2.16635 -4.37043,3.63634 -5.5,3.625 -1.93966,-0.021 -1.91778,-0.12776 0.38085,-1.89453 1.33868,-1.02898 3.81365,-2.6592 5.5,-3.62305 z m 25.14648,0.49414 c 0.43845,-0.0966 0.38344,0.71418 0.1836,2.81836 -0.25852,2.72141 -0.81935,3.54862 -2.58008,3.79882 -1.86297,0.26457 -2.25,-0.1524 -2.25,-2.41796 0,-1.50494 0.30022,-2.43416 0.66797,-2.06641 0.36786,0.36786 1.52876,-0.10913 2.58008,-1.06055 0.69399,-0.628 1.13538,-1.0143 1.39843,-1.07226 z m -51.58789,9.46875 c 1.08264,0.004 0.50391,0.40223 0.50391,1.99804 0,4.87578 -14.13472,2.69239 -19.5625,0.73633 -2.47502,-0.89197 -4.68698,-1.79824 -4.91602,-2.01367 -0.22914,-0.21543 5.84587,-0.37619 13.5,-0.35352 6.64857,0.0191 9.39198,-0.37101 10.47461,-0.36718 z m 11.88282,0.36328 c 0.99919,0.0227 0.66103,0.54884 -0.94141,1.46484 v -0.002 c -3.27201,1.87204 -5.0445,1.85094 -2.55859,-0.0293 1.0676,-0.80749 2.64261,-1.45249 3.5,-1.43359 z"
       transform="scale(0.26458333)"
       sodipodi:nodetypes="ssscccsscccssssssssssssscsssssssccscsssssssssssssssscsssccsscssssssssssssssssccsscsssssssssscccccscccccsssssssscssccsssscsssscssssssssscssssssssscscsssscccsscsssssssssccssscsssscsssccscccscsccssssssscscssssssssssssssssssssssssssssssssssssssssssccsssscsssscccssssssssssssssssssssssscsssccssccssssssssssssssssssccssssscssccssssssssssssscscccccsccsscssssssssccsssssccsssscccccccccscccscsccscccssscccssssssssssssssssssccssccccccssssssscsccssccsssssscccscccscccscsscccsssssssssssssscscssssssssscsssccssssssssssccssccssssssssssssssssssssssssccssscsssssccssssssssssssscccssssssssssscsscsscsscsssssscsscscsscccsscsssssccsssssssssccscsccssssccsssscsscscsccsssssscsssscscccscccccsccsscsssscsssccsccsss" />
  </g>
</svg>
