<?xml version="1.0" encoding="UTF-8" standalone="no"?>
<svg
   xmlns:dc="http://purl.org/dc/elements/1.1/"
   xmlns:cc="http://creativecommons.org/ns#"
   xmlns:rdf="http://www.w3.org/1999/02/22-rdf-syntax-ns#"
   xmlns:svg="http://www.w3.org/2000/svg"
   xmlns="http://www.w3.org/2000/svg"
   xmlns:sodipodi="http://sodipodi.sourceforge.net/DTD/sodipodi-0.dtd"
   xmlns:inkscape="http://www.inkscape.org/namespaces/inkscape"
   width="512"
   height="512"
   viewBox="0 0 135.46667 135.46667"
   version="1.1"
   id="svg4950"
   inkscape:version="1.0.1 (3bc2e813f5, 2020-09-07)"
   sodipodi:docname="border_nouveau_dicebag.svg">
  <defs
     id="defs4944" />
  <sodipodi:namedview
     id="base"
     pagecolor="#ffffff"
     bordercolor="#666666"
     borderopacity="1.0"
     inkscape:pageopacity="0.0"
     inkscape:pageshadow="2"
     inkscape:zoom="0.97696114"
     inkscape:cx="258.90555"
     inkscape:cy="338.16648"
     inkscape:document-units="mm"
     inkscape:current-layer="layer1"
     inkscape:document-rotation="0"
     showgrid="false"
     inkscape:snap-global="false"
     units="px"
     inkscape:window-width="1302"
     inkscape:window-height="1041"
     inkscape:window-x="602"
     inkscape:window-y="0"
     inkscape:window-maximized="0" />
  <metadata
     id="metadata4947">
    <rdf:RDF>
      <cc:Work
         rdf:about="">
        <dc:format>image/svg+xml</dc:format>
        <dc:type
           rdf:resource="http://purl.org/dc/dcmitype/StillImage" />
        <dc:title />
      </cc:Work>
    </rdf:RDF>
  </metadata>
  <g
     inkscape:label="Layer 1"
     inkscape:groupmode="layer"
     id="layer1">
    <path
       style="fill:#f9cc9d;fill-opacity:1;stroke-width:0.0180683"
       d="m 10.475742,37.228474 c 0.296676,-0.883884 0.469919,-1.511215 0.683083,-2.473527 0.346158,-1.562698 0.627218,-3.631306 0.714382,-5.257866 0.0064,-0.119252 0.01452,-0.241213 0.01807,-0.271026 0.0035,-0.02981 0.01218,-0.35263 0.01917,-0.717373 l 0.01272,-0.663168 0.188917,-0.140511 c 0.575599,-0.428114 0.961783,-1.057841 1.114256,-1.816953 0.06185,-0.307961 0.07831,-0.481901 0.07821,-0.826731 -1.8e-4,-0.329393 -0.01382,-0.500966 -0.06984,-0.873265 -0.02068,-0.137451 -0.03337,-0.254146 -0.0282,-0.259319 0.0052,-0.0052 0.01448,0.02192 0.02068,0.0602 0.115914,0.716213 0.361457,1.24608 0.75294,1.624804 0.32676,0.316111 0.666584,0.459575 1.157981,0.48887 0.5752,0.03429 1.149309,-0.171503 1.526099,-0.547041 0.430247,-0.428811 0.569499,-1.005854 0.380377,-1.576213 -0.278362,-0.839488 -1.22795,-1.065817 -1.553444,-0.370255 -0.101191,0.21624 -0.08681,0.443371 0.03909,0.617162 0.05452,0.07526 0.321695,0.303339 0.337188,0.287845 0.0051,-0.0051 -0.02476,-0.07662 -0.06622,-0.159075 -0.06499,-0.129262 -0.07423,-0.161823 -0.06708,-0.236315 0.01603,-0.166847 0.159365,-0.303403 0.292289,-0.278467 0.133551,0.02506 0.283526,0.198642 0.319064,0.369299 0.05489,0.263607 -0.112412,0.593451 -0.383758,0.756587 -0.202663,0.121843 -0.531513,0.162836 -0.82447,0.102776 -0.590589,-0.121085 -1.028079,-0.592871 -1.205002,-1.299468 -0.02239,-0.08944 -0.0449,-0.195814 -0.05,-0.236388 l -0.0093,-0.07377 0.372791,-0.241294 c 0.546271,-0.353575 1.225348,-0.776556 1.790572,-1.115304 1.221675,-0.732175 1.859237,-1.172464 2.647584,-1.828379 0.325844,-0.271105 0.996222,-0.935314 1.259374,-1.247783 0.958597,-1.138244 1.653963,-2.425823 2.210165,-4.092463 0.329863,-0.988424 0.665883,-2.323834 0.820623,-3.261325 0.06425,-0.389285 0.127531,-0.873684 0.127531,-0.976294 v -0.0715 l -0.257473,0.195471 c -0.141609,0.107509 -0.334714,0.248868 -0.429121,0.314133 -0.201169,0.139068 -0.65128,0.416908 -0.66049,0.407699 -0.0035,-0.0035 0.0052,-0.103628 0.01934,-0.222512 0.01413,-0.118884 0.02595,-0.303198 0.02626,-0.409589 l 5.66e-4,-0.193437 0.130995,-0.07548 c 0.935516,-0.539079 1.616699,-0.9667035 2.65642,-1.6676206 0.835731,-0.5634017 1.147452,-0.7662584 1.512831,-0.9844927 1.431498,-0.8550135 2.867738,-1.409689 4.191839,-1.6188866 0.554244,-0.087567 1.297706,-0.1103788 1.779725,-0.054612 0.924343,0.1069449 1.667772,0.4351177 2.197837,0.9701945 0.355527,0.3588876 0.594125,0.7900226 0.703126,1.2705267 0.058,0.2556898 0.05858,0.709128 0.0011,0.9211006 -0.157106,0.5801291 -0.584836,0.9493241 -1.13498,0.9796561 -0.232315,0.01281 -0.368224,-0.01258 -0.560114,-0.104648 -0.516652,-0.247878 -0.636649,-0.7407366 -0.301891,-1.2399452 0.04376,-0.065258 0.07956,-0.1251268 0.07956,-0.1330327 0,-0.038778 -0.214315,-0.095382 -0.390643,-0.1031662 -0.315935,-0.013941 -0.515854,0.070438 -0.748097,0.3157867 -0.164309,0.1735816 -0.281187,0.3863322 -0.345358,0.6286489 -0.05846,0.2207445 -0.05405,0.5418795 0.01041,0.7579765 0.136318,0.457011 0.442822,0.802644 0.922607,1.040396 0.532148,0.2637 1.13036,0.300892 1.68602,0.104829 0.763183,-0.269289 1.249618,-0.836481 1.429524,-1.666844 C 35.873296,8.8955415 35.58341,7.8030568 34.82,7.0360044 34.700109,6.915542 34.533435,6.7665653 34.449612,6.7049437 33.803378,6.2298706 32.928931,5.9152212 31.927911,5.7975726 31.634844,5.7631236 30.869969,5.7681056 30.542086,5.8065926 29.183394,5.96608 27.900304,6.4173405 26.137029,7.3558386 25.197292,7.8560119 24.630614,8.1829997 23.806221,8.7007744 23.04724,9.1774661 22.505707,9.5018147 22.089735,9.7288576 L 21.737404,9.921164 21.724464,9.87094 C 21.717364,9.8433129 21.690044,9.7315179 21.663784,9.6224877 21.490135,8.9014517 21.135739,8.1932541 20.632769,7.5621899 20.429657,7.3073513 19.986868,6.8645345 19.731824,6.6611913 18.682149,5.824298 17.529855,5.4179682 16.136237,5.393287 c -0.967692,-0.01714 -1.817416,0.1596708 -2.573,0.5353791 -1.205586,0.5994675 -1.891143,1.59907 -1.991967,2.9044636 -0.104258,1.3498373 0.567686,2.4596213 1.899166,3.1366663 0.550309,0.279828 1.08811,0.439714 1.80673,0.537136 0.374561,0.05077 1.137293,0.05532 1.49146,0.0089 1.411607,-0.185071 2.794693,-0.638149 4.289223,-1.405092 0.192686,-0.09888 0.353263,-0.176858 0.356837,-0.173282 0.01436,0.01437 -0.03463,0.414821 -0.07669,0.626867 -0.03379,0.170346 -0.05375,0.232723 -0.0812,0.253809 -0.0475,0.03648 -0.581897,0.281364 -0.84741,0.388315 -0.61418,0.247394 -1.466304,0.48112 -2.168193,0.59471 -1.415092,0.229017 -2.897587,0.192089 -4.408602,-0.109825 -0.783373,-0.15652 -1.630773,-0.403894 -2.157464,-0.629806 l -0.07058,-0.03027 0.0125,0.24986 c 0.03782,0.75575 0.255653,1.708403 0.54671,2.390948 0.632829,1.48403 1.679695,2.334025 3.141389,2.550633 0.248804,0.03687 1.117755,0.03234 1.377682,-0.0072 0.939165,-0.142797 1.758084,-0.502425 2.525066,-1.10889 0.258807,-0.204642 0.733513,-0.681497 0.95145,-0.955755 0.519634,-0.653922 0.896276,-1.321691 1.197451,-2.123023 0.08247,-0.219431 0.218224,-0.665852 0.263729,-0.867277 l 0.02245,-0.09938 0.255023,-0.167263 c 0.140263,-0.092 0.372919,-0.255647 0.517014,-0.36367 0.144094,-0.108023 0.264862,-0.193851 0.268372,-0.190731 0.0093,0.0083 -0.06918,0.241958 -0.263459,0.784903 -0.577877,1.614924 -1.316596,3.201588 -2.098846,4.508037 -0.40115,0.669964 -0.962809,1.467211 -1.396954,1.982904 -0.811918,0.96443 -1.938803,1.963586 -3.264803,2.89475 -0.478467,0.335994 -1.768522,1.17622 -1.783278,1.161463 -0.01083,-0.01083 0.04777,-0.421001 0.09354,-0.654772 0.162703,-0.830951 0.491683,-1.813147 0.938042,-2.800582 0.07637,-0.16894 0.143177,-0.321625 0.148468,-0.339303 0.0089,-0.02977 -0.0029,-0.03129 -0.159754,-0.02048 -0.218942,0.01508 -0.821904,-0.0198 -1.145063,-0.06622 -0.60748,-0.08725 -1.148,-0.249612 -1.644216,-0.493886 -0.304575,-0.149932 -0.722605,-0.411209 -0.873397,-0.54589 l -0.0784,-0.07002 -0.05171,-0.307797 c -0.125541,-0.74721 -0.170422,-1.385679 -0.156815,-2.230796 0.01426,-0.885999 0.08316,-1.490626 0.283706,-2.489614 0.195761,-0.975162 0.245232,-1.357947 0.230161,-1.780861 -0.0102,-0.286206 -0.04438,-0.455505 -0.124058,-0.614325 -0.166841,-0.3325826 -0.52271,-0.5533291 -0.89177,-0.5531714 -0.280032,1.277e-4 -0.5821175,0.1228023 -0.7734063,0.3140924 -0.4064112,0.406412 -0.3884583,1.112113 0.035711,1.403953 0.3526813,0.242651 0.9042413,0.143178 1.0557423,-0.190394 0.09904,-0.21806 -0.01541,-0.53573 -0.195027,-0.541353 l -0.06882,-0.0023 0.0062,0.127621 c 0.0057,0.117861 0.0024,0.132215 -0.04432,0.187656 -0.06257,0.07435 -0.143207,0.109327 -0.252103,0.109327 -0.163732,0 -0.2623208,-0.114104 -0.2632335,-0.304654 -0.00132,-0.283078 0.2597175,-0.467835 0.5871155,-0.4155 0.140133,0.0224 0.25823,0.08444 0.349752,0.183725 0.149959,0.162687 0.20819,0.352832 0.208546,0.680974 3.11e-4,0.274952 2.71e-4,0.275156 -0.330747,1.933308 -0.157713,0.790034 -0.306998,1.554379 -0.331746,1.698544 -0.0795,0.463106 -0.121935,0.905123 -0.134417,1.400163 l -0.01185,0.469805 -0.128365,-0.189716 C 9.6405138,15.810529 9.257452,14.827881 9.0912598,13.843486 9.0663348,13.695859 9.0403318,13.488234 9.0334708,13.3821 c -0.0069,-0.106133 -0.017969,-0.196364 -0.024683,-0.200512 -0.015797,-0.0098 -0.2315229,0.568558 -0.3166606,0.848921 -0.1294323,0.42622 -0.2144306,0.833389 -0.2734614,1.30995 -0.04555,0.367695 -0.045374,1.237052 3.111e-4,1.608076 0.1021287,0.829353 0.3059136,1.605573 0.6423467,2.446712 0.1557197,0.389324 0.2964683,0.701007 0.6248693,1.383762 0.6621991,1.37672 1.0406221,2.367031 1.3277461,3.474628 l 0.08927,0.344386 -0.238892,0.245137 c -0.555146,0.569654 -0.920242,1.180397 -1.0340179,1.729726 -0.041969,0.202627 -0.038425,0.519418 0.00781,0.698063 0.1254731,0.48484 0.5179449,0.836098 0.9746319,0.872284 0.15809,0.01253 0.4393,-0.02486 0.607287,-0.08077 0.0816,-0.02716 0.111706,-0.03068 0.123143,-0.01442 0.01989,0.02829 0.0018,1.484981 -0.0226,1.810275 -0.10025,1.341672 -0.278821,2.545811 -0.578768,3.902749 -0.132649,0.600095 -0.319942,1.339508 -0.335387,1.324064 -0.0037,-0.0037 -0.028,-0.107918 -0.0541,-0.231713 -0.194933,-0.92426 -0.551914,-1.338226 -1.1555277,-1.339989 -0.3430588,-0.0011 -0.5783545,0.08259 -0.7695046,0.273369 -0.1896532,0.189285 -0.2874896,0.436839 -0.2874896,0.727428 0,0.450443 0.2275592,0.72398 0.6515837,0.783242 0.1789731,0.02501 0.4217426,-0.05741 0.5690515,-0.193191 0.072632,-0.06695 0.2248268,-0.265453 0.2248268,-0.293235 0,-0.0049 -0.058948,0.01533 -0.1309951,0.04507 -0.072045,0.02974 -0.1661159,0.06196 -0.2090407,0.07161 -0.147157,0.03306 -0.2867309,-0.03562 -0.3484325,-0.171477 -0.059175,-0.130289 -0.040018,-0.261319 0.052711,-0.360494 0.066028,-0.07062 0.1461922,-0.101668 0.2625061,-0.101668 0.3424519,0 0.6285611,0.327517 0.7813051,0.894381 0.145534,0.540108 0.180105,1.447702 0.0886,2.326057 -0.01629,0.156384 -0.02697,0.297851 -0.02374,0.314367 0.0032,0.01652 0.101128,-0.253727 0.217534,-0.600537 z m 0.510647,-10.290862 c -0.08339,-0.07322 -0.126946,-0.159931 -0.153365,-0.305336 -0.0574,-0.315874 0.09679,-0.775334 0.357182,-1.064355 0.08571,-0.09514 0.08929,-0.09708 0.09972,-0.0542 0.0364,0.149752 0.161169,1.080206 0.179091,1.335574 l 0.0056,0.08052 -0.09938,0.0313 c -0.05466,0.01723 -0.149908,0.0318 -0.211673,0.03241 -0.101018,0.0011 -0.11882,-0.0046 -0.177229,-0.05591 z m 0.887692,-0.390179 c -0.0059,-0.06708 -0.02385,-0.282546 -0.0398,-0.478821 -0.01595,-0.196272 -0.04682,-0.507937 -0.06858,-0.692587 l -0.03957,-0.335728 0.100124,-0.08624 c 0.134186,-0.115581 0.610547,-0.489779 0.714841,-0.561535 0.04589,-0.03158 0.08898,-0.05188 0.09573,-0.04512 0.0068,0.0068 0.0118,0.180325 0.01121,0.385693 -8.8e-4,0.304501 -0.0086,0.41645 -0.04216,0.606739 -0.09079,0.515546 -0.260319,0.875862 -0.55969,1.189533 -0.0735,0.07701 -0.139873,0.140027 -0.147483,0.140027 -0.0076,0 -0.01869,-0.05488 -0.02462,-0.121961 z M 11.520164,23.814084 C 11.299961,22.712142 10.967539,21.594299 10.526291,20.471978 10.118633,19.435087 9.9112439,18.80172 9.7394254,18.068895 c -0.076251,-0.32522 -0.1713547,-0.80789 -0.1705719,-0.865699 2.165e-4,-0.01578 0.043202,0.05263 0.095527,0.152003 0.1905323,0.361838 0.3967105,0.644149 0.6938685,0.950078 l 0.18573,0.191212 0.07348,0.251461 c 0.246273,0.842808 0.496881,1.448776 1.094101,2.64551 0.352192,0.705736 0.509616,1.068697 0.627906,1.447714 0.07296,0.233772 0.174008,0.622534 0.174082,0.669742 0,0.01915 -0.09953,0.09845 -0.266459,0.212252 -0.146578,0.09993 -0.351879,0.245553 -0.456223,0.323616 -0.104345,0.07806 -0.191307,0.140862 -0.193252,0.139556 -0.002,-0.0014 -0.0368,-0.168822 -0.07745,-0.372256 z m 1.451429,-0.939873 c -0.228024,-0.858305 -0.459412,-1.49112 -1.142477,-3.124525 -0.139117,-0.332667 -0.251361,-0.606429 -0.249432,-0.608358 0.0019,-0.002 0.121378,0.03599 0.265442,0.08428 0.448026,0.150148 0.846259,0.221638 1.364097,0.244883 0.284263,0.01275 0.745162,-0.01219 1.008201,-0.05457 0.08149,-0.01313 0.150204,-0.02209 0.152692,-0.01994 0.0025,0.0023 -0.0802,0.169948 -0.183744,0.372835 -0.289157,0.566573 -0.479124,1.036874 -0.663522,1.642686 -0.178494,0.586419 -0.284916,1.059507 -0.315078,1.400642 -0.007,0.07932 -0.01503,0.156408 -0.01782,0.171313 -0.0028,0.01491 -0.0057,0.05149 -0.0065,0.08131 -0.001,0.03897 -0.01537,0.0626 -0.05107,0.08407 -0.02731,0.01644 -0.05689,0.02826 -0.06574,0.02625 -0.0088,-0.002 -0.05162,-0.137385 -0.09506,-0.300892 z m 2.712984,-7.129484 c -0.671966,-0.09643 -1.286232,-0.356873 -1.779725,-0.754593 -0.286124,-0.230595 -0.565156,-0.546399 -0.760597,-0.860828 -0.09992,-0.160763 -0.31263,-0.589248 -0.332608,-0.670024 l -0.01172,-0.04738 0.147074,0.0426 c 0.368002,0.106588 1.075618,0.226021 1.716717,0.289753 0.392083,0.03898 1.363034,0.04424 1.752622,0.0095 1.606605,-0.143266 2.96957,-0.522094 4.340903,-1.206533 0.186329,-0.093 0.33878,-0.161845 0.33878,-0.152992 0,0.02769 -0.116948,0.290409 -0.225726,0.507092 -0.370729,0.738473 -0.915197,1.392273 -1.572393,1.888132 -0.76858,0.579901 -1.685032,0.910837 -2.746052,0.991618 -0.170828,0.01301 -0.668792,-0.0079 -0.867277,-0.03635 z M 15.97367,11.17649 C 15.044689,11.067219 14.339622,10.772275 13.858353,10.291604 13.649976,10.083486 13.521466,9.9021888 13.397697,9.6417276 13.12613,9.0702421 13.126696,8.5354368 13.399458,8.0061924 c 0.31612,-0.6134517 0.931317,-1.0779635 1.758938,-1.3281179 0.498382,-0.1506394 0.862418,-0.1986811 1.510929,-0.1994053 0.684955,-8.805e-4 1.04932,0.040803 1.526769,0.1741723 0.842521,0.2353448 1.648564,0.7699829 2.201818,1.4604345 0.413406,0.515922 0.748301,1.1850015 0.907518,1.8131105 0.02491,0.098287 0.04288,0.1810285 0.03992,0.1838745 -0.01402,0.01349 -0.572828,0.257992 -0.77328,0.338341 -1.070955,0.42928 -2.137952,0.671762 -3.316173,0.753618 -0.315071,0.0219 -0.993005,0.0083 -1.282203,-0.02574 z M 35.78012,9.3057814 c 0,-0.054656 -0.0034,-0.077017 -0.0075,-0.049688 -0.0041,0.027324 -0.0041,0.072045 0,0.099376 0.0041,0.027324 0.0075,0.00499 0.0075,-0.049688 z"
       id="path1869" />
    <path
       style="color:#000000;font-style:normal;font-variant:normal;font-weight:normal;font-stretch:normal;font-size:medium;line-height:normal;font-family:sans-serif;font-variant-ligatures:normal;font-variant-position:normal;font-variant-caps:normal;font-variant-numeric:normal;font-variant-alternates:normal;font-variant-east-asian:normal;font-feature-settings:normal;font-variation-settings:normal;text-indent:0;text-align:start;text-decoration:none;text-decoration-line:none;text-decoration-style:solid;text-decoration-color:#000000;letter-spacing:normal;word-spacing:normal;text-transform:none;writing-mode:lr-tb;direction:ltr;text-orientation:mixed;dominant-baseline:auto;baseline-shift:baseline;text-anchor:start;white-space:normal;shape-padding:0;shape-margin:0;inline-size:0;clip-rule:nonzero;display:inline;overflow:visible;visibility:visible;isolation:auto;mix-blend-mode:normal;color-interpolation:sRGB;color-interpolation-filters:linearRGB;solid-color:#000000;solid-opacity:1;vector-effect:none;fill:#f9cc9d;fill-opacity:1;fill-rule:nonzero;stroke:none;stroke-width:0.753818;stroke-linecap:square;stroke-linejoin:miter;stroke-miterlimit:4;stroke-dasharray:none;stroke-dashoffset:0;stroke-opacity:1;paint-order:stroke markers fill;color-rendering:auto;image-rendering:auto;shape-rendering:auto;text-rendering:auto;enable-background:accumulate;stop-color:#000000;stop-opacity:1;opacity:1"
       d="M 10.382812 7.7324219 C 8.9228635 7.7324219 7.7324219 8.913068 7.7324219 10.367188 L 7.7324219 125.09961 C 7.7324219 126.55373 8.9228638 127.73242 10.382812 127.73242 L 125.08398 127.73242 C 126.54393 127.73242 127.73242 126.55373 127.73242 125.09961 L 127.73242 10.367188 C 127.73242 8.9130676 126.54393 7.7324219 125.08398 7.7324219 L 10.382812 7.7324219 z M 10.382812 8.4863281 L 125.08398 8.4863281 C 126.14212 8.4863281 126.98047 9.3204282 126.98047 10.367188 L 126.98047 125.09961 C 126.98047 126.14637 126.14212 126.98047 125.08398 126.98047 L 10.382812 126.98047 C 9.3246746 126.98047 8.4863281 126.14637 8.4863281 125.09961 L 8.4863281 10.367188 C 8.4863281 9.3204278 9.3246749 8.4863281 10.382812 8.4863281 z "
       id="path836" />
    <path
       style="fill:#f9cc9d;fill-opacity:1;stroke-width:0.0156082"
       d="m 127.11215,112.87914 c 0,7.64165 -0.003,13.89099 -0.006,13.88741 -0.004,-0.004 -0.0275,-0.0873 -0.0539,-0.186 -0.0456,-0.1714 -0.15618,-0.49283 -0.27908,-0.8112 -0.04,-0.10379 -0.10648,-0.2224 -0.22287,-0.39801 -0.71259,-1.07527 -1.55794,-2.50474 -2.70748,-4.5783 -0.17282,-0.31174 -0.37529,-0.80364 -0.55379,-1.34542 -0.0759,-0.23035 -0.16686,-0.61953 -0.21883,-0.9363 -0.045,-0.27435 -0.0473,-0.31 -0.0463,-0.72577 5.6e-4,-0.2405 0.006,-0.42322 0.0135,-0.40605 0.007,0.0172 0.0316,0.14963 0.055,0.29435 0.14501,0.89656 0.43373,1.77613 0.84865,2.58537 0.62193,1.21299 1.33558,2.0516 2.21847,2.60694 l 0.17313,0.10889 h 0.25864 0.25865 l -0.01,-0.0742 c -0.0205,-0.15313 -0.0271,-2.84368 -0.009,-3.70306 0.0432,-2.06073 0.039,-2.67904 -0.0244,-3.55867 -0.0508,-0.70666 -0.15493,-1.37493 -0.28775,-1.84791 -0.0698,-0.24864 -0.14878,-0.39084 -0.35064,-0.63144 -0.27379,-0.32632 -0.57971,-0.56242 -0.78994,-0.60966 -0.0604,-0.0136 -0.21754,-0.008 -0.65412,0.0211 -0.0644,0.005 -0.2505,0.0151 -0.41361,0.0238 -0.16311,0.009 -0.33824,0.02 -0.38918,0.0249 l -0.0926,0.009 0.26175,-0.2537 c 0.57538,-0.55769 1.04051,-1.20918 1.51004,-2.11506 0.69716,-1.34504 1.1431,-2.72989 1.23027,-3.82046 0.0221,-0.27688 0.0216,-3.90576 -5.7e-4,-4.14563 -0.0325,-0.35157 -0.10472,-0.62062 -0.22338,-0.83281 -0.0607,-0.10863 -0.20603,-0.25565 -0.29907,-0.30266 -0.20505,-0.10358 -0.63232,-0.15286 -1.46648,-0.16911 -0.42571,-0.008 -0.72804,-0.0337 -0.7581,-0.0638 -0.007,-0.007 -0.0248,-0.0834 -0.039,-0.16918 -0.0411,-0.24945 -0.018,-0.6699 0.0644,-1.170471 0.0464,-0.281371 0.1046,-0.577812 0.11604,-0.590376 0.006,-0.0071 0.0167,0.01399 0.0226,0.04682 0.0337,0.184472 0.17184,0.697673 0.20961,0.778414 0.0547,0.117023 0.12501,0.198433 0.21869,0.253413 0.0582,0.0342 0.0914,0.0423 0.17345,0.0423 0.0936,0 0.11601,-0.007 0.28876,-0.0958 0.19592,-0.100215 0.46955,-0.256334 0.96771,-0.552105 0.4196,-0.249125 0.88081,-0.483669 0.95109,-0.483669 h 0.0556 z m -14.39859,-0.60935 c 0.44988,0.26295 1.14467,0.53218 2.32753,0.90193 1.161,0.36291 1.82975,0.60957 2.30812,0.85129 0.54821,0.27703 0.93967,0.56799 1.22768,0.9125 0.29444,0.35222 0.44985,0.68856 0.55952,1.21095 0.21233,1.01145 0.56843,1.96355 1.08982,2.91382 0.58376,1.06395 1.34744,2.112 2.2893,3.14177 0.20658,0.22585 0.25353,0.28697 0.11424,0.14868 -0.0562,-0.0558 -2.14452,-2.16643 -4.64072,-4.69028 -2.49619,-2.52384 -4.7324,-4.78373 -4.96934,-5.02194 -0.23694,-0.23822 -0.42734,-0.43301 -0.4231,-0.43286 0.004,1.6e-4 0.0569,0.029 0.11695,0.0642 z m 0.31915,1.15729 c 0.4168,0.41441 1.3443,1.33255 2.06111,2.04032 1.30478,1.28833 3.28771,3.2473 4.51847,4.4639 0.36049,0.35634 0.94697,0.93571 1.30329,1.2875 0.97473,0.96232 1.44077,1.42919 1.31899,1.32134 -0.0601,-0.0533 -0.21812,-0.19347 -0.35118,-0.31166 -1.18387,-1.05155 -2.31727,-1.82122 -3.30288,-2.2429 -0.25893,-0.11079 -0.2908,-0.12074 -1.92587,-0.60115 -0.73506,-0.21596 -1.26365,-0.44205 -1.58654,-0.67857 -0.0674,-0.0493 -0.20038,-0.16783 -0.29547,-0.26323 -0.54354,-0.54522 -0.99363,-1.41226 -1.32565,-2.55371 -0.49912,-1.71594 -0.86552,-2.70803 -1.17447,-3.18018 -0.0126,-0.0194 -0.0173,-0.0351 -0.0104,-0.0351 0.007,0 0.35369,0.33905 0.77049,0.75345 z m 10.90317,-0.0879 c 0.24118,0.0275 0.34678,0.0435 0.46044,0.0696 0.49026,0.11289 0.92922,0.33097 1.31404,0.65281 0.39068,0.32675 0.63859,0.73608 0.7467,1.23288 0.0992,0.45578 0.0722,0.83926 -0.10166,1.44503 -0.17258,0.60132 -0.4673,1.20946 -0.72295,1.49183 -0.0751,0.083 -0.24538,0.21433 -0.2595,0.20021 -0.004,-0.004 0.004,-0.0558 0.0162,-0.11575 0.10264,-0.48964 0.11454,-1.19732 0.0275,-1.63869 -0.17966,-0.91169 -0.77198,-1.38808 -1.69407,-1.3625 -0.25927,0.007 -0.356,0.0334 -0.53618,0.14505 -0.36438,0.22589 -0.71431,0.79376 -0.82716,1.34231 -0.0356,0.17304 -0.0464,0.49347 -0.0247,0.72578 0.0583,0.6206 0.23564,1.29919 0.59943,2.29441 0.14573,0.39872 0.49296,1.21066 0.78429,1.83397 0.18493,0.39568 0.78863,1.59965 0.92741,1.84958 0.64767,1.16632 1.1006,1.86941 1.61129,2.50121 0.0677,0.0837 0.1201,0.15218 0.11655,0.15218 -0.0218,0 -0.88201,-0.9756 -1.2592,-1.42815 -1.82168,-2.18556 -2.99168,-4.09337 -3.55286,-5.79328 -0.16997,-0.51488 -0.25841,-0.88524 -0.33666,-1.40992 -0.0328,-0.22035 -0.0361,-0.29481 -0.0359,-0.83504 2.1e-4,-0.63326 0.0105,-0.76669 0.0939,-1.21813 0.15205,-0.82331 0.50028,-1.43213 1.01516,-1.7749 0.29796,-0.19836 0.61838,-0.30878 1.0291,-0.3546 0.13042,-0.0146 0.50133,-0.0182 0.60872,-0.006 z m -7.07834,7.89796 c 0.90842,0.0616 1.49652,0.18185 2.39587,0.48988 1.81198,0.6206 3.9128,1.91436 5.80583,3.57547 0.37353,0.32777 1.16324,1.06928 1.16324,1.09225 0,0.006 -0.11414,-0.0658 -0.25363,-0.161 -2.49952,-1.70526 -4.44668,-2.79324 -5.86479,-3.27694 -0.3801,-0.12965 -0.87553,-0.23135 -1.12824,-0.23159 -0.13406,-1.2e-4 -0.2994,-0.0381 -0.53649,-0.12317 -0.21546,-0.0773 -0.36485,-0.10633 -0.60627,-0.11774 -0.10301,-0.004 -0.26455,-0.0194 -0.35899,-0.0321 -0.64875,-0.0878 -0.86456,-0.0919 -1.03227,-0.0192 -0.24776,0.10734 -0.46903,0.27101 -0.7638,0.56496 -0.2253,0.22466 -0.33687,0.37172 -0.39731,0.5237 -0.0308,0.0773 -0.0333,0.10581 -0.0265,0.29624 0.0113,0.31359 0.075,0.50787 0.24977,0.76152 0.31988,0.46424 1.05155,0.82115 1.86365,0.90908 0.25394,0.0275 0.81523,0.0116 0.98437,-0.0279 0.0708,-0.0166 0.12875,-0.0284 0.12875,-0.0266 0,0.004 -0.38761,0.25004 -0.65553,0.41662 -0.87423,0.54353 -1.45982,0.73312 -2.19296,0.71002 -0.3808,-0.012 -0.62704,-0.0879 -0.91907,-0.28327 -0.25724,-0.17209 -0.47035,-0.4047 -0.71608,-0.7816 -0.38155,-0.58526 -0.55291,-1.07014 -0.6062,-1.71533 -0.045,-0.54457 0.0684,-1.0352 0.32812,-1.42011 0.32192,-0.47708 0.93794,-0.84408 1.70251,-1.01431 0.39641,-0.0883 1.03079,-0.13636 1.43596,-0.10888 z m 1.61546,1.91984 c 0.90536,0.10776 1.78135,0.38272 2.8407,0.89164 0.89447,0.42973 1.87453,1.01202 3.83392,2.27789 0.15998,0.10334 0.32854,0.20033 0.3746,0.21552 0.18497,0.061 1.28292,0.50734 1.30768,0.53161 0.004,0.004 -6.22469,0.006 -13.84059,0.006 H 99.142212 v -0.25553 -0.25554 l 0.07559,-0.11516 c 0.04155,-0.0634 0.155701,-0.21427 0.25363,-0.33542 0.09793,-0.12112 0.24592,-0.30415 0.32886,-0.40671 0.298388,-0.36895 0.464978,-0.65103 0.478118,-0.80961 0.029,-0.34953 -0.317445,-0.54987 -1.05393,-0.60948 l -0.128451,-0.0103 0.08163,-0.0494 c 0.04492,-0.0272 0.116745,-0.0764 0.159668,-0.10942 0.158914,-0.12217 0.12728,-0.11811 0.922183,-0.11811 h 0.70888 l 1e-5,0.0585 c 0,0.39995 0.14285,1.855 0.19599,1.9971 0.0352,0.0942 0.18387,0.22551 0.34796,0.30743 0.24761,0.1236 0.53393,0.20072 1.01668,0.27386 0.65214,0.0988 0.98107,0.12027 2.18533,0.14265 1.18669,0.0221 2.15,0.0125 2.35685,-0.0233 0.33388,-0.0579 0.83343,-0.20641 1.39693,-0.41536 1.13983,-0.42264 2.07858,-0.83598 2.59097,-1.14083 0.48625,-0.28929 1.0315,-0.79847 1.48157,-1.38357 0.0678,-0.0881 0.12481,-0.15831 0.12681,-0.15608 0.002,0.003 -0.004,0.1375 -0.0117,0.3006 -0.0352,0.68088 0.0335,1.42904 0.15283,1.66532 0.13315,0.26364 0.39361,0.49202 0.80972,0.71 0.5373,0.28146 0.94734,0.41359 1.37403,0.44279 0.15286,0.0104 1.53154,0.0145 3.97229,0.0115 l 3.73817,-0.004 0.0773,-0.0356 c 0.0425,-0.0196 0.11524,-0.0643 0.16158,-0.0993 l 0.0842,-0.0636 -0.006,-0.24412 c -0.006,-0.21902 -0.011,-0.25522 -0.0487,-0.35203 -0.22925,-0.58791 -1.26223,-1.37095 -2.85884,-2.16713 -0.61579,-0.30708 -1.45403,-0.63618 -1.56464,-0.61429 -0.0254,0.005 -0.0877,-0.007 -0.15226,-0.029 l -0.10926,-0.0375 0.0703,9e-4 c 0.0386,5.8e-4 0.0913,0.004 0.11706,0.007 z"
       id="path1893" />
  </g>
</svg>
