<?xml version="1.0" encoding="UTF-8" standalone="no"?>
<svg
   xmlns:dc="http://purl.org/dc/elements/1.1/"
   xmlns:cc="http://creativecommons.org/ns#"
   xmlns:rdf="http://www.w3.org/1999/02/22-rdf-syntax-ns#"
   xmlns:svg="http://www.w3.org/2000/svg"
   xmlns="http://www.w3.org/2000/svg"
   xmlns:sodipodi="http://sodipodi.sourceforge.net/DTD/sodipodi-0.dtd"
   xmlns:inkscape="http://www.inkscape.org/namespaces/inkscape"
   width="512"
   height="512"
   viewBox="0 0 135.46667 135.46667"
   version="1.1"
   id="svg4950"
   inkscape:version="1.0.1 (3bc2e813f5, 2020-09-07)"
   sodipodi:docname="border_nouveau_2.svg">
  <defs
     id="defs4944" />
  <sodipodi:namedview
     id="base"
     pagecolor="#ffffff"
     bordercolor="#666666"
     borderopacity="1.0"
     inkscape:pageopacity="0.0"
     inkscape:pageshadow="2"
     inkscape:zoom="3.9078446"
     inkscape:cx="94.293866"
     inkscape:cy="405.8857"
     inkscape:document-units="mm"
     inkscape:current-layer="layer1"
     inkscape:document-rotation="0"
     showgrid="false"
     inkscape:snap-global="false"
     units="px"
     inkscape:window-width="1302"
     inkscape:window-height="1048"
     inkscape:window-x="609"
     inkscape:window-y="0"
     inkscape:window-maximized="0" />
  <metadata
     id="metadata4947">
    <rdf:RDF>
      <cc:Work
         rdf:about="">
        <dc:format>image/svg+xml</dc:format>
        <dc:type
           rdf:resource="http://purl.org/dc/dcmitype/StillImage" />
        <dc:title></dc:title>
      </cc:Work>
    </rdf:RDF>
  </metadata>
  <g
     inkscape:label="Layer 1"
     inkscape:groupmode="layer"
     id="layer1">
    <rect
       style="fill:none;fill-opacity:1;stroke:#f99298;stroke-width:0.753818;stroke-linecap:square;stroke-opacity:1;paint-order:stroke markers fill"
       id="rect1877"
       width="119.24618"
       height="119.24619"
       x="8.1102448"
       y="8.1102371"
       ry="2.2571106"
       rx="2.2726412" />
    <path
       style="fill:#f99298;fill-opacity:1;stroke-width:0.0156082"
       d="m 8.0867669,113.08226 c 0,7.64165 0.003,13.89099 0.006,13.88741 0.004,-0.004 0.0275,-0.0873 0.0539,-0.186 0.0456,-0.1714 0.15618,-0.49283 0.27908,-0.8112 0.04,-0.10379 0.10648,-0.2224 0.22287,-0.39801 0.7125908,-1.07527 1.5579411,-2.50474 2.7074811,-4.5783 0.17282,-0.31174 0.37529,-0.80364 0.55379,-1.34542 0.0759,-0.23035 0.16686,-0.61953 0.21883,-0.9363 0.045,-0.27435 0.0473,-0.31 0.0463,-0.72577 -5.6e-4,-0.2405 -0.006,-0.42322 -0.0135,-0.40605 -0.007,0.0172 -0.0316,0.14963 -0.055,0.29435 -0.14501,0.89656 -0.43373,1.77613 -0.84865,2.58537 -0.62193,1.21299 -1.3355803,2.0516 -2.2184701,2.60694 l -0.173131,0.10889 h -0.25864 -0.25865 l 0.01,-0.0742 c 0.0205,-0.15313 0.0271,-2.84368 0.009,-3.70306 -0.0432,-2.06073 -0.039,-2.67904 0.0244,-3.55867 0.0508,-0.70666 0.15493,-1.37493 0.28775,-1.84791 0.0698,-0.24864 0.14878,-0.39084 0.350641,-0.63144 0.2737898,-0.32632 0.5797098,-0.56242 0.7899398,-0.60966 0.0604,-0.0136 0.2175403,-0.008 0.6541203,0.0211 0.0644,0.005 0.2505,0.0151 0.41361,0.0238 0.16311,0.009 0.33824,0.02 0.38918,0.0249 l 0.0926,0.009 -0.26175,-0.2537 c -0.57538,-0.55769 -1.04051,-1.20918 -1.5100403,-2.11506 -0.6971608,-1.34504 -1.1431008,-2.72989 -1.2302708,-3.82046 -0.0221,-0.27688 -0.0216,-3.90576 5.7e-4,-4.14563 0.0325,-0.35157 0.10472,-0.62062 0.22338,-0.83281 0.0607,-0.10863 0.20603,-0.25565 0.29907,-0.30266 0.205051,-0.10358 0.6323208,-0.15286 1.4664811,-0.16911 0.42571,-0.008 0.72804,-0.0337 0.7581,-0.0638 0.007,-0.007 0.0248,-0.0834 0.039,-0.16918 0.0411,-0.24945 0.018,-0.6699 -0.0644,-1.170474 -0.0464,-0.281371 -0.1046,-0.577812 -0.11604,-0.590376 -0.006,-0.0071 -0.0167,0.01399 -0.0226,0.04682 -0.0337,0.184472 -0.17184,0.697673 -0.20961,0.77841 -0.0547,0.11703 -0.12501,0.19844 -0.21869,0.25342 -0.0582,0.0342 -0.0914,0.0423 -0.17345,0.0423 -0.0936,0 -0.11601,-0.007 -0.28876,-0.0958 C 9.8652877,100.1237 9.5916577,99.967583 9.0934979,99.671812 8.6738969,99.422687 8.2126869,99.188143 8.1424069,99.188143 h -0.0556 z m 14.3985911,-0.60935 c -0.44988,0.26295 -1.14467,0.53218 -2.32753,0.90193 -1.161,0.36291 -1.82975,0.60957 -2.30812,0.85129 -0.54821,0.27703 -0.93967,0.56799 -1.22768,0.9125 -0.29444,0.35222 -0.44985,0.68856 -0.55952,1.21095 -0.21233,1.01145 -0.56843,1.96355 -1.08982,2.91382 -0.58376,1.06395 -1.34744,2.112 -2.2893,3.14177 -0.20658,0.22585 -0.25353,0.28697 -0.11424,0.14868 0.0562,-0.0558 2.14452,-2.16643 4.64072,-4.69028 2.49619,-2.52384 4.7324,-4.78373 4.96934,-5.02194 0.23694,-0.23822 0.42734,-0.43301 0.4231,-0.43286 -0.004,1.6e-4 -0.0569,0.029 -0.11695,0.0642 z m -0.31915,1.15729 c -0.4168,0.41441 -1.3443,1.33255 -2.06111,2.04032 -1.30478,1.28833 -3.28771,3.2473 -4.51847,4.4639 -0.36049,0.35634 -0.94697,0.93571 -1.30329,1.2875 -0.97473,0.96232 -1.44077,1.42919 -1.31899,1.32134 0.0601,-0.0533 0.21812,-0.19347 0.35118,-0.31166 1.18387,-1.05155 2.31727,-1.82122 3.30288,-2.2429 0.25893,-0.11079 0.2908,-0.12074 1.92587,-0.60115 0.73506,-0.21596 1.26365,-0.44205 1.58654,-0.67857 0.0674,-0.0493 0.20038,-0.16783 0.29547,-0.26323 0.54354,-0.54522 0.99363,-1.41226 1.32565,-2.55371 0.49912,-1.71594 0.86552,-2.70803 1.17447,-3.18018 0.0126,-0.0194 0.0173,-0.0351 0.0104,-0.0351 -0.007,0 -0.35369,0.33905 -0.77049,0.75345 z m -10.90317,-0.0879 c -0.24118,0.0275 -0.34678,0.0435 -0.46044,0.0696 -0.49026,0.11289 -0.9292203,0.33097 -1.3140403,0.65281 -0.3906798,0.32675 -0.6385908,0.73608 -0.7467008,1.23288 -0.0992,0.45578 -0.0722,0.83926 0.10166,1.44503 0.172581,0.60132 0.4673008,1.20946 0.7229508,1.49183 0.0751,0.083 0.24538,0.21433 0.2595,0.20021 0.004,-0.004 -0.004,-0.0558 -0.0162,-0.11575 -0.10264,-0.48964 -0.11454,-1.19732 -0.0275,-1.63869 0.17966,-0.91169 0.7719803,-1.38808 1.6940703,-1.3625 0.25927,0.007 0.356,0.0334 0.53618,0.14505 0.36438,0.22589 0.71431,0.79376 0.82716,1.34231 0.0356,0.17304 0.0464,0.49347 0.0247,0.72578 -0.0583,0.6206 -0.23564,1.29919 -0.59943,2.29441 -0.14573,0.39872 -0.49296,1.21066 -0.78429,1.83397 -0.18493,0.39568 -0.78863,1.59965 -0.92741,1.84958 -0.6476703,1.16632 -1.1006003,1.86941 -1.6112911,2.50121 -0.0677,0.0837 -0.1201,0.15218 -0.11655,0.15218 0.0218,0 0.8820108,-0.9756 1.2592011,-1.42815 1.82168,-2.18556 2.99168,-4.09337 3.55286,-5.79328 0.16997,-0.51488 0.25841,-0.88524 0.33666,-1.40992 0.0328,-0.22035 0.0361,-0.29481 0.0359,-0.83504 -2.1e-4,-0.63326 -0.0105,-0.76669 -0.0939,-1.21813 -0.15205,-0.82331 -0.50028,-1.43213 -1.01516,-1.7749 -0.29796,-0.19836 -0.61838,-0.30878 -1.0291,-0.3546 -0.13042,-0.0146 -0.50133,-0.0182 -0.60872,-0.006 z m 7.07834,7.89796 c -0.90842,0.0616 -1.49652,0.18185 -2.39587,0.48988 -1.81198,0.6206 -3.9128,1.91436 -5.80583,3.57547 -0.3735303,0.32777 -1.1632411,1.06928 -1.1632411,1.09225 0,0.006 0.114141,-0.0658 0.2536308,-0.161 2.4995203,-1.70526 4.4466803,-2.79324 5.8647903,-3.27694 0.3801,-0.12965 0.87553,-0.23135 1.12824,-0.23159 0.13406,-1.2e-4 0.2994,-0.0381 0.53649,-0.12317 0.21546,-0.0773 0.36485,-0.10633 0.60627,-0.11774 0.10301,-0.004 0.26455,-0.0194 0.35899,-0.0321 0.64875,-0.0878 0.86456,-0.0919 1.03227,-0.0192 0.24776,0.10734 0.46903,0.27101 0.7638,0.56496 0.2253,0.22466 0.33687,0.37172 0.39731,0.5237 0.0308,0.0773 0.0333,0.10581 0.0265,0.29624 -0.0113,0.31359 -0.075,0.50787 -0.24977,0.76152 -0.31988,0.46424 -1.05155,0.82115 -1.86365,0.90908 -0.25394,0.0275 -0.81523,0.0116 -0.98437,-0.0279 -0.0708,-0.0166 -0.12875,-0.0284 -0.12875,-0.0266 0,0.004 0.38761,0.25004 0.65553,0.41662 0.87423,0.54353 1.45982,0.73312 2.19296,0.71002 0.3808,-0.012 0.62704,-0.0879 0.91907,-0.28327 0.25724,-0.17209 0.47035,-0.4047 0.71608,-0.7816 0.38155,-0.58526 0.55291,-1.07014 0.6062,-1.71533 0.045,-0.54457 -0.0684,-1.0352 -0.32812,-1.42011 -0.32192,-0.47708 -0.93794,-0.84408 -1.70251,-1.01431 -0.39641,-0.0883 -1.03079,-0.13636 -1.43596,-0.10888 z m -1.61546,1.91984 c -0.90536,0.10776 -1.78135,0.38272 -2.8407,0.89164 -0.89447,0.42973 -1.87453,1.01202 -3.83392,2.27789 -0.1599803,0.10334 -0.3285403,0.20033 -0.3746003,0.21552 -0.18497,0.061 -1.2829208,0.50734 -1.3076808,0.53161 -0.004,0.004 6.2246911,0.006 13.8405911,0.006 h 13.8471 v -0.25553 -0.25554 l -0.0756,-0.11516 c -0.0416,-0.0634 -0.1557,-0.21427 -0.25363,-0.33542 -0.0979,-0.12112 -0.24592,-0.30415 -0.32886,-0.40671 -0.29839,-0.36895 -0.46498,-0.65103 -0.47812,-0.80961 -0.029,-0.34953 0.31744,-0.54987 1.05393,-0.60948 l 0.12845,-0.0103 -0.0816,-0.0494 c -0.0449,-0.0272 -0.11674,-0.0764 -0.15967,-0.10942 -0.15891,-0.12217 -0.12728,-0.11811 -0.92218,-0.11811 h -0.70888 l -10e-6,0.0585 c 0,0.39995 -0.14285,1.855 -0.19599,1.9971 -0.0352,0.0942 -0.18387,0.22551 -0.34796,0.30743 -0.24761,0.1236 -0.53393,0.20072 -1.01668,0.27386 -0.65214,0.0988 -0.98107,0.12027 -2.18533,0.14265 -1.18669,0.0221 -2.15,0.0125 -2.35685,-0.0233 -0.33388,-0.0579 -0.83343,-0.20641 -1.39693,-0.41536 -1.13983,-0.42264 -2.07858,-0.83598 -2.59097,-1.14083 -0.48625,-0.28929 -1.0315,-0.79847 -1.48157,-1.38357 -0.0678,-0.0881 -0.12481,-0.15831 -0.12681,-0.15608 -0.002,0.003 0.004,0.1375 0.0117,0.3006 0.0352,0.68088 -0.0335,1.42904 -0.15283,1.66532 -0.13315,0.26364 -0.39361,0.49202 -0.80972,0.71 -0.5373,0.28146 -0.94734,0.41359 -1.37403,0.44279 -0.15286,0.0104 -1.53154,0.0145 -3.97229,0.0115 l -3.73817,-0.004 -0.0773,-0.0356 c -0.0425,-0.0196 -0.11524,-0.0643 -0.16158,-0.0993 l -0.0842,-0.0636 0.006,-0.24412 c 0.006,-0.21902 0.011,-0.25522 0.0487,-0.35203 0.22925,-0.58791 1.26223,-1.37095 2.85884,-2.16713 0.61579,-0.30708 1.45403,-0.63618 1.56464,-0.61429 0.0254,0.005 0.0877,-0.007 0.15226,-0.029 l 0.10926,-0.0375 -0.0703,9e-4 c -0.0386,5.8e-4 -0.0913,0.004 -0.11706,0.007 z"
       id="path1893" />
    <path
       style="fill:#f99298;fill-opacity:1;stroke-width:0.0138182"
       d="m 121.21742,8.6440787 c 0,0.00665 -0.0188,0.015855 -0.0418,0.020459 -0.0892,0.01784 -0.43162,0.15491 -0.64909,0.2598254 -0.1254,0.060498 -0.31506,0.1400667 -0.42146,0.1768189 -0.42361,0.1463261 -1.02614,0.4356631 -1.30436,0.6263639 -0.0334,0.022895 -0.077,0.041033 -0.0967,0.040301 -0.0198,-7.489e-4 -0.17649,-0.017168 -0.34821,-0.036529 -0.28242,-0.031842 -0.80257,-0.075606 -1.14559,-0.096386 -0.37941,-0.022983 -1.19533,-0.037611 -1.65127,-0.029603 -1.69371,0.029749 -3.06034,0.1955988 -4.61423,0.5599681 -0.43327,0.101597 -1.22018,0.338263 -1.57631,0.474082 -0.70855,0.270224 -1.11287,0.456763 -1.6029,0.739526 -0.60038,0.34643 -1.08351,0.738765 -1.7377,1.411134 l -0.23152,0.237949 -0.13466,-0.07222 c -0.70319,-0.377114 -1.02105,-0.597121 -1.22852,-0.850313 l -0.051,-0.06215 0.20621,-0.207868 c 0.3805,-0.383554 0.75068,-0.704168 1.29484,-1.121456 0.48028,-0.368299 0.7106,-0.571995 0.88944,-0.7865917 0.21924,-0.2630953 0.30722,-0.4594708 0.29167,-0.6509961 -0.0238,-0.294395 -0.31288,-0.4884886 -0.88101,-0.5917563 -0.21295,-0.038708 -0.58344,-0.041736 -0.77382,-0.00634 -0.56619,0.105295 -1.04504,0.4431242 -1.38423,0.9765937 -0.13761,0.2164329 -0.27737,0.5273444 -0.3438,0.7648264 -0.13158,0.470378 -0.10115,0.957536 0.0849,1.360359 0.0295,0.06389 0.0494,0.123227 0.044,0.131858 -0.005,0.0086 -0.057,0.08098 -0.11486,0.160782 -0.56735,0.78237 -1.04258,1.696311 -1.33285,2.563269 -0.16057,0.47957 -0.30533,1.053394 -0.41484,1.644362 -0.0197,0.1064 -0.0445,0.236982 -0.0551,0.290182 -0.0304,0.152553 -0.12748,0.845001 -0.15789,1.126181 -0.0741,0.6853 -0.0898,0.981866 -0.0899,1.699634 -9e-5,0.723214 0.0169,1.014741 0.0898,1.539076 0.15381,1.106983 0.49587,1.947407 1.00654,2.472991 0.32829,0.337861 0.71558,0.536627 1.25879,0.646036 0.23237,0.0468 0.5824,0.04686 0.78764,1.24e-4 0.33902,-0.07719 0.57414,-0.203184 0.81292,-0.435635 0.14803,-0.144101 0.23237,-0.253338 0.33161,-0.429512 0.1893,-0.336025 0.2739,-0.680185 0.2613,-1.062886 -0.008,-0.246874 -0.0356,-0.367023 -0.12729,-0.557628 -0.2249,-0.467322 -0.63517,-0.795293 -1.1749,-0.939231 -0.12476,-0.03327 -0.16235,-0.03691 -0.38692,-0.03746 -0.2857,-7.04e-4 -0.36565,0.0145 -0.55885,0.106267 -0.0938,0.04456 -0.13887,0.0776 -0.22992,0.168657 -0.094,0.094 -0.12388,0.13539 -0.17579,0.24358 -0.10294,0.214491 -0.13622,0.418656 -0.10013,0.614275 0.0527,0.285908 0.20571,0.484501 0.43994,0.571193 0.044,0.01627 0.0844,0.0296 0.0898,0.02961 0.005,2e-6 0.01,-0.08861 0.01,-0.196909 0,-0.176275 0.003,-0.204152 0.0318,-0.266002 0.0638,-0.138622 0.16338,-0.208602 0.3162,-0.2222 0.25907,-0.02305 0.539,0.118109 0.64913,0.327341 0.0356,0.06759 0.0392,0.08746 0.0392,0.214331 10e-6,0.138244 -6.4e-4,0.141232 -0.062,0.262545 -0.12344,0.244247 -0.35133,0.420264 -0.59798,0.461867 -0.45396,0.07657 -1.02358,-0.222455 -1.36011,-0.71399 -0.37511,-0.547886 -0.65366,-1.438063 -0.79073,-2.526977 -0.0603,-0.479226 -0.0754,-0.74872 -0.0756,-1.35418 -2.4e-4,-0.589013 0.009,-0.782871 0.0614,-1.229816 0.0624,-0.536926 0.14414,-0.964857 0.2638,-1.381817 0.1208,-0.42089 0.35757,-1.087432 0.4822,-1.357485 0.0148,-0.03222 0.027,-0.06155 0.027,-0.06518 0,-0.01701 0.2293,-0.490807 0.31794,-0.656969 0.23076,-0.432538 0.51097,-0.859269 0.81146,-1.235741 l 0.0309,-0.03866 0.15783,0.15843 c 0.20541,0.206167 0.34212,0.320992 0.67864,0.570009 0.35687,0.264076 0.47672,0.355043 0.47672,0.361816 0,0.003 -0.0486,0.06589 -0.10814,0.139721 -0.28267,0.350877 -0.60324,0.815554 -0.79328,1.149876 -0.33373,0.587139 -0.53472,1.113675 -0.6277,1.644361 -0.0362,0.206609 -0.036,0.676454 2.7e-4,0.8421 0.0804,0.366782 0.20708,0.60298 0.45658,0.851392 0.23935,0.23832 0.55592,0.421446 0.8618,0.498532 0.0435,0.01098 0.16315,0.02346 0.26574,0.02773 0.1563,0.0065 0.20896,0.0031 0.32473,-0.02093 0.52649,-0.109332 1.01506,-0.536719 1.4,-1.224686 0.23983,-0.428613 0.39464,-0.873978 0.44667,-1.285043 0.0224,-0.177238 0.0222,-0.597546 -2.8e-4,-0.766908 -0.0727,-0.545823 -0.26302,-0.992959 -0.58516,-1.374907 -0.16846,-0.199753 -0.37661,-0.36726 -0.67823,-0.545818 -0.0963,-0.057 -0.17514,-0.109151 -0.17521,-0.115893 -2.9e-4,-0.02421 0.49415,-0.503636 0.67003,-0.649682 0.46693,-0.387718 0.91076,-0.683255 1.49419,-0.994957 1.22043,-0.652019 2.62956,-1.078376 4.52362,-1.368706 1.32663,-0.203351 2.87833,-0.2936498 4.1623,-0.24222 0.5059,0.02026 1.19016,0.06892 1.20675,0.0858 0.002,0.0021 -0.0506,0.04872 -0.11703,0.103568 -0.2916,0.240704 -0.57268,0.536729 -0.82502,0.868878 l -0.1165,0.153331 -0.2449,0.0094 c -1.64007,0.06266 -3.15633,0.515602 -4.13288,1.234593 -0.72063,0.530571 -1.2376,1.219413 -1.43057,1.906165 -0.0727,0.258786 -0.0838,0.341395 -0.0838,0.626492 0,0.28718 0.0128,0.380964 0.0846,0.621319 0.14442,0.483192 0.55423,0.893092 1.06303,1.063301 0.12055,0.04032 0.36679,0.100601 0.37549,0.09191 0.002,-0.0024 -0.0423,-0.04739 -0.0993,-0.09992 -0.21865,-0.201466 -0.35007,-0.495739 -0.39447,-0.883257 -0.0385,-0.336586 0.0165,-0.839373 0.12589,-1.149282 0.20079,-0.568989 0.72896,-1.178739 1.44195,-1.66468 0.61413,-0.418556 1.33761,-0.731098 2.14873,-0.928245 0.23604,-0.05737 0.70057,-0.141358 0.71301,-0.128914 0.005,0.0048 -0.0257,0.08207 -0.0675,0.171769 -0.18546,0.396838 -0.29548,0.762034 -0.37798,1.254732 -0.0365,0.218262 -0.0366,0.844872 -1.4e-4,1.063999 0.1206,0.724212 0.37921,1.253948 0.82007,1.67987 0.38679,0.373697 0.81777,0.57888 1.21677,0.579295 l 0.10019,1.38e-4 1.4e-4,0.100182 c 4.1e-4,0.582844 0.46198,1.257334 1.12832,1.649497 0.32803,0.193056 0.67235,0.310995 1.13084,0.387351 0.21912,0.0365 0.84574,0.03642 1.064,-1.38e-4 0.4927,-0.08251 0.85789,-0.192524 1.25474,-0.377989 0.0897,-0.04192 0.16699,-0.07232 0.17176,-0.06755 0.0124,0.01245 -0.0715,0.476975 -0.12891,0.713012 -0.19715,0.811119 -0.5097,1.534598 -0.92825,2.148724 -0.48594,0.712996 -1.09569,1.241169 -1.66467,1.441967 -0.30991,0.109367 -0.81271,0.164436 -1.14929,0.125877 -0.38753,-0.0444 -0.68179,-0.175815 -0.88326,-0.394458 -0.0526,-0.05702 -0.0975,-0.101695 -0.0999,-0.09928 -0.009,0.0087 0.0516,0.254938 0.0919,0.375478 0.17021,0.508814 0.58011,0.918614 1.0633,1.063041 0.24035,0.07184 0.33413,0.08461 0.62132,0.08461 0.2851,0 0.3677,-0.01104 0.62649,-0.08376 0.77215,-0.216961 1.55025,-0.84821 2.07847,-1.686208 0.4493,-0.712782 0.75635,-1.567963 0.92713,-2.582182 0.0717,-0.425789 0.11941,-0.883127 0.13515,-1.295069 l 0.009,-0.244889 0.15333,-0.11649 c 0.33216,-0.252344 0.62818,-0.533429 0.86888,-0.825028 0.0549,-0.06644 0.10146,-0.119113 0.10357,-0.117037 0.0169,0.01659 0.0655,0.700861 0.0858,1.206759 0.08,1.997458 -0.16759,4.348866 -0.65046,6.177343 -0.42919,1.624984 -1.06956,2.935864 -1.95546,4.002729 -0.14604,0.175885 -0.62546,0.670324 -0.64967,0.670036 -0.006,-8.2e-5 -0.0589,-0.07892 -0.1159,-0.17521 -0.17856,-0.301624 -0.34606,-0.509771 -0.54582,-0.67824 -0.38195,-0.322131 -0.82908,-0.512429 -1.37491,-0.58515 -0.16936,-0.02257 -0.58967,-0.02272 -0.76691,-2.86e-4 -0.41106,0.05204 -0.85642,0.206837 -1.28503,0.446666 -0.68798,0.38495 -1.11536,0.873518 -1.22469,1.400002 -0.0241,0.115772 -0.0274,0.168434 -0.0209,0.324727 0.005,0.1026 0.0167,0.222184 0.0277,0.265743 0.0771,0.305882 0.26021,0.622449 0.49853,0.86181 0.24842,0.249497 0.48461,0.376162 0.85139,0.456574 0.16565,0.03631 0.63549,0.03647 0.8421,2.71e-4 0.8674,-0.151959 1.82091,-0.636862 2.79424,-1.42098 0.0738,-0.05948 0.13671,-0.108146 0.13973,-0.108146 0.006,0 0.0977,0.119857 0.36181,0.476727 0.24902,0.33652 0.36384,0.473226 0.57001,0.67863 l 0.15842,0.157842 -0.0387,0.03086 c -0.37646,0.300491 -0.80319,0.580706 -1.23574,0.811458 -0.16616,0.08864 -0.63996,0.317941 -0.65697,0.317941 -0.004,0 -0.0329,0.01216 -0.0651,0.02703 -0.27006,0.124629 -0.9366,0.361391 -1.35749,0.482191 -0.51686,0.148347 -1.11645,0.249688 -1.824,0.30829 -0.31974,0.02648 -1.30346,0.02225 -1.64435,-0.0071 -0.81751,-0.07033 -1.46879,-0.193271 -2.0575,-0.3884 -0.69541,-0.230492 -1.16781,-0.52799 -1.41767,-0.892791 -0.21606,-0.315455 -0.30999,-0.64418 -0.26327,-0.921247 0.0416,-0.246651 0.21762,-0.474541 0.46188,-0.597979 0.12131,-0.06131 0.1243,-0.06202 0.26254,-0.06201 0.12687,10e-6 0.14674,0.0037 0.21433,0.03922 0.20923,0.110129 0.3504,0.390055 0.32734,0.649126 -0.0136,0.152821 -0.0836,0.252406 -0.2222,0.316206 -0.0619,0.02847 -0.0897,0.0318 -0.266,0.0318 -0.1083,0 -0.1969,0.0044 -0.1969,0.0098 0,0.0054 0.0133,0.04583 0.0297,0.08982 0.0867,0.234229 0.28528,0.387187 0.57119,0.439938 0.19561,0.03609 0.39979,0.0028 0.61427,-0.10012 0.1082,-0.05192 0.14959,-0.08179 0.24358,-0.175793 0.0911,-0.09105 0.1241,-0.136102 0.16865,-0.229919 0.0918,-0.193209 0.10698,-0.27316 0.10628,-0.558859 -4.2e-4,-0.224566 -0.005,-0.26215 -0.0375,-0.386909 -0.14393,-0.539739 -0.4719,-0.950003 -0.93923,-1.174904 -0.19061,-0.09173 -0.31075,-0.119154 -0.55762,-0.127285 -0.38271,-0.01261 -0.72686,0.072 -1.0629,0.261292 -0.17617,0.09924 -0.2854,0.183577 -0.4295,0.331603 -0.23246,0.238784 -0.35845,0.473899 -0.43564,0.81293 -0.0467,0.20524 -0.0466,0.55527 1.2e-4,0.787635 0.0398,0.197632 0.10858,0.427364 0.17284,0.577457 0.38177,0.891504 1.39586,1.472475 2.9462,1.687876 0.52433,0.07285 0.81586,0.08985 1.53908,0.08976 0.71776,-9.1e-5 1.01433,-0.01578 1.69963,-0.08991 0.28118,-0.03041 0.97363,-0.1275 1.12618,-0.157895 0.0532,-0.0106 0.18378,-0.0354 0.29018,-0.05512 0.59097,-0.109506 1.16479,-0.254269 1.64437,-0.414837 0.86695,-0.290272 1.78088,-0.765503 2.56325,-1.332848 0.0798,-0.05786 0.15216,-0.109559 0.16079,-0.11487 0.009,-0.0053 0.0679,0.01449 0.13186,0.04401 0.40282,0.186106 0.88998,0.216528 1.36036,0.08495 0.23749,-0.06643 0.54839,-0.20619 0.76483,-0.343804 0.53346,-0.339195 0.8713,-0.818035 0.97659,-1.384231 0.0354,-0.19038 0.0324,-0.560872 -0.006,-0.773817 -0.0634,-0.348569 -0.1661,-0.603442 -0.29687,-0.736434 -0.32114,-0.326597 -0.80733,-0.106116 -1.42588,0.646616 -0.0625,0.076 -0.20042,0.251462 -0.3066,0.389915 -0.41728,0.544159 -0.7379,0.914342 -1.12145,1.29484 l -0.20787,0.206212 -0.0622,-0.05093 c -0.2532,-0.207472 -0.4732,-0.525334 -0.85031,-1.22852 l -0.0722,-0.134664 0.23795,-0.231517 c 0.67236,-0.654199 1.0647,-1.137328 1.41114,-1.737698 0.28275,-0.490032 0.46929,-0.894352 0.73952,-1.602907 0.0999,-0.261816 0.2704,-0.808414 0.40346,-1.293035 0.0611,-0.222458 0.20553,-0.863052 0.25684,-1.138962 0.24158,-1.299161 0.34963,-2.385838 0.37375,-3.758541 0.008,-0.455936 -0.006,-1.271861 -0.0297,-1.651272 -0.0208,-0.343021 -0.0646,-0.863165 -0.0964,-1.145587 -0.0194,-0.171726 -0.0358,-0.328425 -0.0365,-0.34822 -6.4e-4,-0.0198 0.0174,-0.06333 0.0403,-0.09673 0.1907,-0.278227 0.48004,-0.880759 0.62637,-1.304371 0.0367,-0.1064 0.11631,-0.296054 0.17681,-0.421454 0.10491,-0.217472 0.24199,-0.559898 0.25982,-0.649093 0.005,-0.023 0.0138,-0.04181 0.0205,-0.04181 0.0229,0 0.0121,-0.02578 -0.0143,-0.03413 -0.0249,-0.0079 -0.0259,-0.02101 -0.0188,-0.253113 0.0249,-0.805563 -0.208,-1.821949 -0.57628,-2.515944 -0.3328,-0.627149 -0.93535,-1.276407 -1.57125,-1.6930524 -0.72422,-0.4745142 -1.86856,-0.7800858 -2.81249,-0.751016 -0.2321,0.00715 -0.24519,0.00621 -0.25311,-0.018781 -0.008,-0.026309 -0.0341,-0.037063 -0.0341,-0.01423 z m -15.40694,0.9499742 c 0.0529,0.052893 -0.10009,0.2394481 -0.63885,0.7790241 -0.46053,0.46122 -0.65791,0.670808 -0.87009,0.923848 -0.0615,0.07328 -0.11712,0.135314 -0.12373,0.137847 -0.0203,0.0078 -0.0133,-0.305557 0.009,-0.425414 0.12831,-0.676358 0.74017,-1.3330512 1.32584,-1.4229756 0.106,-0.016275 0.27791,-0.011838 0.29742,0.00767 z m 16.4172,0.6446011 c 0.21517,0.180617 0.35927,0.318173 0.54564,0.520873 0.10108,0.109946 0.18212,0.201582 0.18007,0.203632 -0.002,0.0021 -0.0803,-0.03401 -0.17381,-0.08013 -0.31119,-0.153437 -0.65183,-0.295887 -1.08648,-0.45436 -0.0596,-0.02173 -0.23964,-0.204915 -0.21588,-0.219667 0.01,-0.0061 0.10317,-0.02198 0.20728,-0.03518 0.1041,-0.01321 0.19861,-0.02591 0.21,-0.02823 0.0114,-0.0023 0.0643,-0.0048 0.11745,-0.0055 l 0.0967,-0.0013 0.119,0.09988 z m 0.87591,-0.05833 c 0.38292,0.05502 0.69926,0.150449 0.99929,0.301464 0.27989,0.140886 0.34716,0.190137 0.42008,0.307614 0.27102,0.436632 0.4303,0.961329 0.47558,1.566585 l 0.009,0.124363 -0.18649,-0.180698 c -0.29555,-0.286403 -0.59994,-0.536028 -0.97797,-0.80203 -0.0937,-0.06597 -0.13326,-0.105484 -0.19923,-0.199234 -0.266,-0.378023 -0.51563,-0.682409 -0.80203,-0.977982 l -0.1807,-0.186485 0.12437,0.0093 c 0.0684,0.0051 0.21142,0.02181 0.31781,0.0371 z m -2.356,0.331006 c 0.0874,0.02274 0.26734,0.074 0.39985,0.113911 l 0.24093,0.07256 0.11587,0.145091 c 0.21354,0.267416 0.47443,0.680219 0.64524,1.020986 0.0516,0.102882 0.0598,0.128041 0.0398,0.121619 -0.0139,-0.0045 -0.1683,-0.05693 -0.34309,-0.116608 -0.65274,-0.222861 -1.27783,-0.37478 -2.00709,-0.487794 -0.1083,-0.01678 -0.19691,-0.03486 -0.19691,-0.04017 0,-0.0427 0.55497,-0.636807 0.71165,-0.761829 0.0714,-0.05695 0.17019,-0.106985 0.21417,-0.108438 0.0114,-3.73e-4 0.0922,0.01792 0.17963,0.04067 z m 1.52636,0.521015 c 0.38134,0.162694 1.10425,0.550509 1.1946,0.640862 0.0588,0.05873 0.24634,0.384981 0.41632,0.724014 0.15737,0.313861 0.29799,0.625197 0.28723,0.635947 -0.003,0.003 -0.0675,-0.03823 -0.14319,-0.09171 -0.25805,-0.182239 -0.61161,-0.391141 -0.95986,-0.567128 l -0.20036,-0.101253 -0.0415,-0.08258 c -0.24164,-0.481368 -0.42857,-0.796382 -0.70986,-1.196288 -0.0104,-0.01482 -0.0138,-0.02695 -0.007,-0.02695 0.006,0 0.0802,0.02929 0.16405,0.06508 z m -2.56272,0.917667 c 0.99625,0.136587 1.69869,0.30653 2.67584,0.647374 0.1269,0.04426 0.10846,0.01113 0.26943,0.484055 0.26637,0.782586 0.47287,1.74447 0.58496,2.724681 l 0.009,0.0785 -0.10106,0.05657 c -0.5799,0.324613 -1.16966,0.498053 -1.6936,0.49806 -0.2287,2e-6 -0.27762,0.01246 -0.16582,0.0422 0.0323,0.0086 0.17377,0.04876 0.31436,0.08926 0.45793,0.131887 0.92069,0.209687 1.27127,0.213724 l 0.10364,0.0012 -0.0329,0.02733 c -0.0647,0.05397 -0.33461,0.208753 -0.51535,0.295633 -0.32213,0.154851 -0.64075,0.258017 -0.99255,0.321393 -0.17775,0.03202 -0.23702,0.03616 -0.52509,0.0367 -0.29947,5.85e-4 -0.33763,-0.0022 -0.49055,-0.03537 -0.26904,-0.05838 -0.44918,-0.141264 -0.67878,-0.312331 -0.25722,-0.19164 -0.46726,-0.483852 -0.50945,-0.708733 -0.009,-0.04841 -0.006,-0.05291 0.13472,-0.193373 0.13273,-0.132542 0.34396,-0.415785 0.32455,-0.435201 -0.004,-0.0039 -0.0452,0.01145 -0.092,0.03408 -0.10905,0.05282 -0.23869,0.0957 -0.32468,0.10737 l -0.0678,0.0092 0.009,-0.06782 c 0.0117,-0.08599 0.0545,-0.215627 0.10738,-0.324678 0.0226,-0.04671 0.0379,-0.0881 0.034,-0.09199 -0.0194,-0.01942 -0.30266,0.191807 -0.4352,0.324543 -0.14046,0.140664 -0.14497,0.143807 -0.19337,0.134726 -0.22488,-0.04219 -0.5171,-0.252237 -0.70874,-0.509452 -0.17106,-0.229602 -0.25395,-0.409737 -0.31232,-0.678781 -0.0332,-0.152921 -0.0359,-0.191073 -0.0354,-0.490544 4.2e-4,-0.288072 0.005,-0.347345 0.0368,-0.525091 0.0634,-0.351813 0.16655,-0.67042 0.3214,-0.992556 0.0869,-0.180736 0.24166,-0.450565 0.29563,-0.515353 l 0.0273,-0.03281 0.002,0.103636 c 0.005,0.350579 0.0818,0.813341 0.21372,1.271271 0.0405,0.1406 0.0807,0.282064 0.0893,0.314364 0.0297,0.11179 0.0422,0.06288 0.0422,-0.165818 0,-0.523935 0.17344,-1.113705 0.49806,-1.693601 l 0.0566,-0.101057 0.0785,0.009 c 0.0431,0.0049 0.21219,0.02731 0.37558,0.04971 z m 4.85026,0.592198 c 0.10265,0.102777 0.24458,0.255268 0.31541,0.338867 l 0.12877,0.152 -0.009,0.152 c -0.009,0.165409 -0.0516,0.470346 -0.0674,0.486115 -0.015,0.01494 -0.19898,-0.174102 -0.21664,-0.222526 -0.15853,-0.434836 -0.30091,-0.775286 -0.45454,-1.086864 -0.0463,-0.09375 -0.0841,-0.172911 -0.0841,-0.175919 0,-0.01364 0.21755,0.186656 0.387,0.356327 z m -0.99498,0.604681 c 0.21447,0.120917 0.55533,0.34927 0.73235,0.490634 l 0.1451,0.115864 0.0726,0.240934 c 0.0399,0.132515 0.0919,0.315553 0.11561,0.406753 l 0.043,0.165818 -0.0249,0.07341 c -0.0307,0.09049 -0.12951,0.207962 -0.38049,0.452199 -0.17468,0.169995 -0.44784,0.407114 -0.46898,0.407114 -0.005,0 -0.0234,-0.08861 -0.0402,-0.196909 -0.113,-0.729258 -0.26493,-1.354348 -0.48779,-2.007089 -0.0596,-0.1748 -0.11216,-0.32919 -0.11661,-0.343091 -0.009,-0.02901 0.13686,0.04023 0.41025,0.194359 z m -17.54076,0.794882 c 0.1926,0.198017 0.26179,0.282746 0.35077,0.429498 0.13482,0.222394 0.18251,0.420077 0.15461,0.64096 -0.02,0.158709 -0.0974,0.399474 -0.16507,0.513888 -0.20869,0.352776 -0.53391,0.502879 -0.83918,0.387308 -0.0996,-0.03769 -0.23369,-0.164348 -0.28027,-0.264639 -0.12518,-0.269566 -0.0274,-0.791396 0.25177,-1.344439 0.13283,-0.263068 0.30871,-0.545818 0.33952,-0.545818 0.005,0 0.0898,0.08246 0.18785,0.183242 z m 14.3704,14.67244 c 0.25763,0.04704 0.53877,0.228559 0.86239,0.556823 0.12916,0.13101 0.13057,0.133168 0.10364,0.158214 -0.0593,0.0552 -0.31493,0.208185 -0.52477,0.314132 -0.55304,0.279233 -1.07487,0.376954 -1.34444,0.251769 -0.10029,-0.04657 -0.22694,-0.180712 -0.26463,-0.280273 -0.1142,-0.301615 0.0316,-0.624282 0.37653,-0.833152 0.0963,-0.0583 0.31483,-0.136447 0.45009,-0.160931 0.1317,-0.02384 0.23568,-0.02584 0.34119,-0.0066 z m 5.16194,0.741573 c 0.0188,0.04803 0.006,0.253179 -0.0237,0.375841 -0.012,0.04979 -0.0521,0.152705 -0.089,0.228705 -0.23303,0.479689 -0.77867,0.892842 -1.31302,0.994208 -0.11986,0.02274 -0.43318,0.02967 -0.42542,0.0094 0.002,-0.0066 0.0646,-0.06229 0.13785,-0.123734 0.25282,-0.211985 0.46248,-0.409423 0.92193,-0.868139 0.42755,-0.426872 0.59503,-0.578293 0.69974,-0.632614 0.0581,-0.03014 0.0746,-0.02721 0.0916,0.01632 z"
       id="path1927" />
  </g>
</svg>
