<?xml version="1.0" encoding="UTF-8" standalone="no"?>
<svg
   xmlns:dc="http://purl.org/dc/elements/1.1/"
   xmlns:cc="http://creativecommons.org/ns#"
   xmlns:rdf="http://www.w3.org/1999/02/22-rdf-syntax-ns#"
   xmlns:svg="http://www.w3.org/2000/svg"
   xmlns="http://www.w3.org/2000/svg"
   xmlns:sodipodi="http://sodipodi.sourceforge.net/DTD/sodipodi-0.dtd"
   xmlns:inkscape="http://www.inkscape.org/namespaces/inkscape"
   width="150"
   height="150"
   viewBox="0 0 39.687501 39.687501"
   version="1.1"
   id="svg4950"
   inkscape:version="1.0.1 (3bc2e813f5, 2020-09-07)"
   sodipodi:docname="border_nouveau_4.svg">
  <defs
     id="defs4944" />
  <sodipodi:namedview
     id="base"
     pagecolor="#ffffff"
     bordercolor="#666666"
     borderopacity="1.0"
     inkscape:pageopacity="0.0"
     inkscape:pageshadow="2"
     inkscape:zoom="3.9078446"
     inkscape:cx="105.96695"
     inkscape:cy="84.839115"
     inkscape:document-units="mm"
     inkscape:current-layer="layer1"
     inkscape:document-rotation="0"
     showgrid="false"
     inkscape:snap-global="false"
     units="px"
     inkscape:window-width="1302"
     inkscape:window-height="1048"
     inkscape:window-x="609"
     inkscape:window-y="0"
     inkscape:window-maximized="0" />
  <metadata
     id="metadata4947">
    <rdf:RDF>
      <cc:Work
         rdf:about="">
        <dc:format>image/svg+xml</dc:format>
        <dc:type
           rdf:resource="http://purl.org/dc/dcmitype/StillImage" />
        <dc:title></dc:title>
      </cc:Work>
    </rdf:RDF>
  </metadata>
  <g
     inkscape:label="Layer 1"
     inkscape:groupmode="layer"
     id="layer1">
    <rect
       style="fill:none;fill-opacity:1;stroke:#f99298;stroke-width:0.55;stroke-linecap:square;stroke-miterlimit:4;stroke-dasharray:none;stroke-opacity:1;paint-order:stroke markers fill"
       id="rect1877-6"
       width="28.051228"
       height="28.051229"
       x="5.8181362"
       y="5.8181353"
       ry="0.53095812"
       rx="0.53461146" />
    <path
       id="path3282"
       style="fill:#f99298;fill-opacity:1;stroke-width:0.00721931"
       d="m 32.708946,5.5296835 -0.0073,0.1083801 c -8.12e-4,0.011978 -0.0048,0.1407537 -0.0076,0.2864854 l -0.005,0.265209 -0.07561,0.056009 c -0.229984,0.1710524 -0.384353,0.4225697 -0.445275,0.7258773 -0.02471,0.1230504 -0.03113,0.1926822 -0.03109,0.3304555 7.2e-5,0.1316178 0.0054,0.2001857 0.02772,0.3489383 0.0083,0.054921 0.01355,0.1015587 0.01148,0.1036214 -0.0021,0.00203 -0.0059,-0.00873 -0.0084,-0.024078 -0.115827,0.071747 -0.181612,0.023307 -0.259354,0.5260895 0.0043,0.00434 -0.01896,0.1681614 -0.03725,0.2615628 -0.06501,0.3320146 -0.196358,0.7242491 -0.374703,1.1187862 -0.03051,0.0675 -0.05726,0.128763 -0.05937,0.135824 -0.0036,0.01194 0.0011,0.01246 0.06385,0.0081 0.08748,-0.006 0.328196,0.0078 0.457316,0.02635 0.242723,0.03488 0.458725,0.09983 0.656991,0.197433 0.121694,0.05991 0.288689,0.164344 0.348938,0.218157 l 0.03137,0.02802 0.02072,0.12294 c 0.05016,0.298549 0.06817,0.553436 0.06273,0.891107 -0.0057,0.354006 -0.03329,0.595855 -0.11342,0.995004 -0.07822,0.389632 -0.09788,0.542336 -0.09186,0.711317 0.0041,0.114353 0.01773,0.182145 0.04957,0.245605 0.06666,0.132885 0.208759,0.22102 0.35622,0.220955 0.111888,-4.9e-5 0.232461,-0.04899 0.308892,-0.125462 0.162383,-0.16238 0.155196,-0.444329 -0.01429,-0.560928 -0.140916,-0.09695 -0.361217,-0.05711 -0.421751,0.07617 -0.03957,0.08712 0.0061,0.213947 0.07785,0.216196 l 0.02773,4.06e-4 -0.0026,-0.05099 c -0.0023,-0.04709 -0.001,-0.05289 0.01765,-0.07505 0.025,-0.02976 0.05731,-0.04368 0.100817,-0.04368 0.06542,0 0.104653,0.04568 0.105018,0.121825 5.28e-4,0.113094 -0.103586,0.186981 -0.234399,0.166066 -0.05599,-0.0089 -0.103176,-0.03399 -0.139744,-0.07365 -0.05992,-0.065 -0.08331,-0.140818 -0.08345,-0.271925 -1.3e-4,-0.109862 -7.5e-5,-0.11013 0.132182,-0.772649 0.06302,-0.315659 0.122574,-0.62096 0.132463,-0.678553 0.03176,-0.18504 0.04878,-0.361741 0.05377,-0.559539 l 0.0048,-0.187631 0.05125,0.07589 c 0.205091,0.303096 0.358148,0.695786 0.424551,1.089104 0.01,0.05898 0.0205,0.141858 0.02324,0.184269 0.0028,0.04238 0.0071,0.07844 0.0098,0.08009 0.0063,0.0037 0.09256,-0.227114 0.126582,-0.339136 0.05171,-0.170297 0.08563,-0.332993 0.109218,-0.523406 0.0182,-0.146921 0.01797,-0.494463 -2.8e-4,-0.642711 C 34.048158,10.211175 33.966865,9.9012566 33.832441,9.565178 33.770222,9.409643 33.713853,9.2849038 33.582639,9.0121059 33.318053,8.4620276 33.166952,8.0664636 33.05223,7.6239128 L 33.01667,7.4864075 33.11188,7.3883915 C 33.333693,7.1607859 33.47977,6.9167235 33.52523,6.6972387 33.542,6.6162707 33.54062,6.4896874 33.52213,6.4183097 33.472,6.2245881 33.315057,6.0841105 33.132585,6.0696555 c -0.06317,-0.00487 -0.175401,0.01011 -0.242521,0.032443 -0.0326,0.010841 -0.04472,0.0121 -0.04929,0.0056 -0.0079,-0.011329 -7.72e-4,-0.5933906 0.009,-0.723368 z m 0.920797,4.9117695 c -8.7e-5,0.0063 -0.01746,-0.02083 -0.03837,-0.06049 -0.07612,-0.144574 -0.158512,-0.257506 -0.277244,-0.37974 l -0.07421,-0.07646 -0.02912,-0.1005356 C 33.112395,9.487483 33.012264,9.2454956 32.773642,8.7673309 32.632922,8.4853526 32.569983,8.3401974 32.52272,8.1887567 32.49357,8.0953557 32.45302,7.9401792 32.45299,7.9213146 c 0,-0.00763 0.04,-0.039386 0.106698,-0.084854 0.05857,-0.039954 0.14034,-0.098193 0.182031,-0.1293846 0.04169,-0.031225 0.07652,-0.056253 0.07729,-0.055729 8.12e-4,3.975e-4 0.01484,0.067427 0.03109,0.148704 0.08798,0.4402892 0.220804,0.8871157 0.397107,1.335546 0.162882,0.414295 0.245561,0.667201 0.314213,0.960004 0.03046,0.129941 0.06864,0.322757 0.06833,0.345853 z M 33.129299,6.7238343 c 0.0022,0.1212597 -0.05655,0.274491 -0.147585,0.3755421 -0.03425,0.038005 -0.0356,0.038696 -0.03977,0.021561 -0.01454,-0.059834 -0.06425,-0.4314578 -0.07141,-0.5334916 l -0.0022,-0.032199 0.03977,-0.012587 c 0.02184,-0.00686 0.0599,-0.012628 0.08457,-0.012912 0.04037,-3.975e-4 0.04723,0.00203 0.07057,0.022373 0.03332,0.029275 0.05077,0.064008 0.06133,0.1221042 0.0029,0.015754 0.0044,0.03224 0.0048,0.049586 z m -0.30301,2.9432927 c -7.72e-4,4.06e-4 -0.04858,-0.01429 -0.106138,-0.03362 -0.179012,-0.05998 -0.338067,-0.08873 -0.544972,-0.09801 -0.113578,-0.0049 -0.297888,0.0049 -0.402987,0.02184 -0.03256,0.0054 -0.05978,0.009 -0.06077,0.0081 -9.75e-4,-4.06e-4 0.032,-0.06792 0.07337,-0.148984 0.115534,-0.2263792 0.191247,-0.4143675 0.264924,-0.6564281 0.07132,-0.2343012 0.11397,-0.4232315 0.126022,-0.559535 0.0028,-0.031712 0.0059,-0.06266 0.007,-0.068609 0.0011,-0.00597 0.0025,-0.020302 0.0028,-0.032199 3.98e-4,-0.015592 0.0059,-0.025053 0.02016,-0.03362 0.01091,-0.00654 0.02279,-0.01145 0.02633,-0.010638 0.0035,4.061e-4 0.02073,0.054811 0.03809,0.1201391 0.09111,0.3429412 0.183554,0.5958187 0.456476,1.248455 0.05559,0.132917 0.100468,0.242304 0.0997,0.243079 z m -0.05853,-2.3568779 -0.04005,0.034473 c -0.05361,0.046171 -0.243977,0.1956502 -0.285648,0.2243166 -0.01833,0.012628 -0.03567,0.020708 -0.03837,0.017947 -0.0027,-0.00284 -0.0047,-0.071967 -0.0045,-0.1540271 3.44e-4,-0.1216617 0.0036,-0.1664885 0.01708,-0.2425194 0.03627,-0.2059881 0.103861,-0.3499089 0.223477,-0.4752412 0.02936,-0.030778 0.05605,-0.056009 0.05909,-0.056009 0.003,0 0.0074,0.021967 0.0098,0.048721 v 2.794e-4 c 0.0023,0.026839 0.0096,0.1128506 0.01597,0.1912691 0.0064,0.078431 0.01847,0.2029102 0.02717,0.2766877 z"
       sodipodi:nodetypes="cscccscscccssscsssccsscsscssccccsccsssscccsccsscsscccsccscccsccccssccccssssscscccccccccsccccssscccccsssccccccssccscc" />
    <path
       id="path3394"
       style="fill:#f99298;fill-opacity:1;stroke-width:0.00721931"
       d="m 32.708946,34.145824 -0.0073,-0.10838 c -8.12e-4,-0.01198 -0.0048,-0.140754 -0.0076,-0.286486 l -0.005,-0.265209 -0.07561,-0.05601 c -0.229984,-0.171052 -0.384353,-0.422569 -0.445275,-0.725877 -0.02471,-0.12305 -0.03113,-0.192682 -0.03109,-0.330456 7.2e-5,-0.131617 0.0054,-0.200185 0.02772,-0.348938 0.0083,-0.05492 0.01355,-0.101559 0.01148,-0.103621 -0.0021,-0.002 -0.0059,0.0087 -0.0084,0.02408 -0.115827,-0.07175 -0.181612,-0.02331 -0.259354,-0.52609 0.0043,-0.0043 -0.01896,-0.168161 -0.03725,-0.261563 -0.06501,-0.332014 -0.196358,-0.724249 -0.374703,-1.118786 -0.03051,-0.0675 -0.05726,-0.128763 -0.05937,-0.135824 -0.0036,-0.01194 0.0011,-0.01246 0.06385,-0.0081 0.08748,0.006 0.328196,-0.0078 0.457316,-0.02635 0.242723,-0.03488 0.458725,-0.09983 0.656991,-0.197433 0.121694,-0.05991 0.288689,-0.164344 0.348938,-0.218157 l 0.03137,-0.02802 0.02072,-0.12294 c 0.05016,-0.298549 0.06817,-0.553436 0.06273,-0.891107 -0.0057,-0.354006 -0.03329,-0.595855 -0.11342,-0.995004 -0.07822,-0.389632 -0.09788,-0.542336 -0.09186,-0.711317 0.0041,-0.114353 0.01773,-0.182145 0.04957,-0.245605 0.06666,-0.132885 0.208759,-0.22102 0.35622,-0.220955 0.111888,4.9e-5 0.232461,0.04899 0.308892,0.125462 0.162383,0.16238 0.155196,0.444329 -0.01429,0.560928 -0.140916,0.09695 -0.361217,0.05711 -0.421751,-0.07617 -0.03957,-0.08712 0.0061,-0.213947 0.07785,-0.216196 l 0.02773,-4.06e-4 -0.0026,0.05099 c -0.0023,0.04709 -0.001,0.05289 0.01765,0.07505 0.025,0.02976 0.05731,0.04368 0.100817,0.04368 0.06542,0 0.104653,-0.04568 0.105018,-0.121825 5.28e-4,-0.113094 -0.103586,-0.186981 -0.234399,-0.166066 -0.05599,0.0089 -0.103176,0.03399 -0.139744,0.07365 -0.05992,0.065 -0.08331,0.140818 -0.08345,0.271925 -1.3e-4,0.109862 -7.5e-5,0.11013 0.132182,0.772649 0.06302,0.315659 0.122574,0.62096 0.132463,0.678553 0.03176,0.18504 0.04878,0.361741 0.05377,0.559539 l 0.0048,0.187631 0.05125,-0.07589 c 0.205091,-0.303096 0.358148,-0.695786 0.424551,-1.089104 0.01,-0.05898 0.0205,-0.141858 0.02324,-0.184269 0.0028,-0.04238 0.0071,-0.07844 0.0098,-0.08009 0.0063,-0.0037 0.09256,0.227114 0.126582,0.339136 0.05171,0.170297 0.08563,0.332993 0.109218,0.523406 0.0182,0.146921 0.01797,0.494463 -2.8e-4,0.642711 -0.04076,0.331363 -0.122053,0.641281 -0.256477,0.97736 -0.06222,0.155535 -0.118588,0.280274 -0.249802,0.553072 -0.264586,0.550079 -0.415687,0.945643 -0.530409,1.388193 l -0.03556,0.137506 0.09521,0.09802 c 0.221813,0.227605 0.36789,0.471668 0.41335,0.691153 0.01677,0.08097 0.01539,0.207551 -0.0031,0.278929 -0.05013,0.193721 -0.207073,0.334199 -0.389545,0.348654 -0.06317,0.0049 -0.175401,-0.01011 -0.242521,-0.03244 -0.0326,-0.01084 -0.04472,-0.0121 -0.04929,-0.0056 -0.0079,0.01133 -7.72e-4,0.59339 0.009,0.723368 z m 0.920797,-4.91177 c -8.7e-5,-0.0063 -0.01746,0.02083 -0.03837,0.06049 -0.07612,0.144574 -0.158512,0.257506 -0.277244,0.37974 l -0.07421,0.07646 -0.02912,0.100536 c -0.0984,0.336744 -0.198535,0.578732 -0.437157,1.056896 -0.14072,0.281979 -0.203659,0.427134 -0.250922,0.578575 -0.02915,0.0934 -0.0697,0.248577 -0.06973,0.267442 0,0.0076 0.04,0.03939 0.106698,0.08485 0.05857,0.03995 0.14034,0.09819 0.182031,0.129384 0.04169,0.03122 0.07652,0.05625 0.07729,0.05573 8.12e-4,-3.97e-4 0.01484,-0.06743 0.03109,-0.148704 0.08798,-0.440289 0.220804,-0.887115 0.397107,-1.335546 0.162882,-0.414295 0.245561,-0.667201 0.314213,-0.960004 0.03046,-0.129941 0.06864,-0.322757 0.06833,-0.345853 z m -0.500444,3.717619 c 0.0022,-0.12126 -0.05655,-0.274491 -0.147585,-0.375542 -0.03425,-0.03801 -0.0356,-0.0387 -0.03977,-0.02156 -0.01454,0.05983 -0.06425,0.431458 -0.07141,0.533491 l -0.0022,0.0322 0.03977,0.01259 c 0.02184,0.0069 0.0599,0.01263 0.08457,0.01291 0.04037,3.98e-4 0.04723,-0.002 0.07057,-0.02237 0.03332,-0.02928 0.05077,-0.06401 0.06133,-0.122104 0.0029,-0.01575 0.0044,-0.03224 0.0048,-0.04959 z m -0.30301,-2.943293 c -7.72e-4,-4.06e-4 -0.04858,0.01429 -0.106138,0.03362 -0.179012,0.05998 -0.338067,0.08873 -0.544972,0.09801 -0.113578,0.0049 -0.297888,-0.0049 -0.402987,-0.02184 -0.03256,-0.0054 -0.05978,-0.009 -0.06077,-0.0081 -9.75e-4,4.06e-4 0.032,0.06792 0.07337,0.148984 0.115534,0.226379 0.191247,0.414368 0.264924,0.656428 0.07132,0.234302 0.11397,0.423232 0.126022,0.559535 0.0028,0.03171 0.0059,0.06266 0.007,0.06861 0.0011,0.006 0.0025,0.0203 0.0028,0.0322 3.98e-4,0.01559 0.0059,0.02505 0.02016,0.03362 0.01091,0.0065 0.02279,0.01145 0.02633,0.01064 0.0035,-4.06e-4 0.02073,-0.05481 0.03809,-0.120139 0.09111,-0.342941 0.183554,-0.595818 0.456476,-1.248455 0.05559,-0.132917 0.100468,-0.242304 0.0997,-0.243079 z m -0.05853,2.356878 -0.04005,-0.03447 c -0.05361,-0.04617 -0.243977,-0.19565 -0.285648,-0.224316 -0.01833,-0.01263 -0.03567,-0.02071 -0.03837,-0.01795 -0.0027,0.0028 -0.0047,0.07197 -0.0045,0.154027 3.44e-4,0.121661 0.0036,0.166488 0.01708,0.242519 0.03627,0.205988 0.103861,0.349909 0.223477,0.475241 0.02936,0.03078 0.05605,0.05601 0.05909,0.05601 0.003,0 0.0074,-0.02197 0.0098,-0.04872 v -2.79e-4 c 0.0023,-0.02684 0.0096,-0.112851 0.01597,-0.191269 0.0064,-0.07843 0.01847,-0.20291 0.02717,-0.276688 z"
       sodipodi:nodetypes="cscccscscccssscsssccsscsscssccccsccsssscccsccsscsscccsccscccsccccssccccssssscscccccccccsccccssscccccsssccccccssccscc" />
    <path
       id="path3396"
       style="fill:#f99298;fill-opacity:1;stroke-width:0.00721931"
       d="m 6.9665082,5.5296835 0.0073,0.1083801 c 8.12e-4,0.011978 0.0048,0.1407537 0.0076,0.2864854 l 0.005,0.265209 0.07561,0.056009 c 0.2299844,0.1710524 0.3843534,0.4225697 0.4452754,0.7258773 0.02471,0.1230504 0.03113,0.1926822 0.03109,0.3304555 -7.2e-5,0.1316178 -0.0054,0.2001857 -0.02772,0.3489383 -0.0083,0.054921 -0.01355,0.1015587 -0.01148,0.1036214 0.0021,0.00203 0.0059,-0.00873 0.0084,-0.024078 0.115827,0.071747 0.181612,0.023307 0.259354,0.5260895 -0.0043,0.00434 0.01896,0.1681614 0.03725,0.2615628 0.06501,0.3320146 0.196358,0.7242491 0.374703,1.1187862 0.03051,0.0675 0.05726,0.128763 0.05937,0.135824 0.0036,0.01194 -0.0011,0.01246 -0.06385,0.0081 -0.08748,-0.006 -0.328196,0.0078 -0.457316,0.02635 -0.242723,0.03488 -0.458725,0.09983 -0.6569914,0.197433 -0.121694,0.05991 -0.288689,0.164344 -0.348938,0.218157 l -0.03137,0.02802 -0.02072,0.12294 c -0.05016,0.298549 -0.06817,0.553436 -0.06273,0.891107 0.0057,0.354006 0.03329,0.595855 0.11342,0.995004 0.07822,0.389632 0.09788,0.542336 0.09186,0.711317 -0.0041,0.114353 -0.01773,0.182145 -0.04957,0.245605 -0.06666,0.132885 -0.208759,0.22102 -0.35622,0.220955 -0.111888,-4.9e-5 -0.232461,-0.04899 -0.308892,-0.125462 -0.162383,-0.16238 -0.155196,-0.444329 0.01429,-0.560928 0.140916,-0.09695 0.361217,-0.05711 0.421751,0.07617 0.03957,0.08712 -0.0061,0.213947 -0.07785,0.216196 l -0.02773,4.06e-4 0.0026,-0.05099 c 0.0023,-0.04709 10e-4,-0.05289 -0.01765,-0.07505 -0.025,-0.02976 -0.05731,-0.04368 -0.100817,-0.04368 -0.06542,0 -0.104653,0.04568 -0.105018,0.121825 -5.28e-4,0.113094 0.103586,0.186981 0.234399,0.166066 0.05599,-0.0089 0.103176,-0.03399 0.139744,-0.07365 0.05992,-0.065 0.08331,-0.140818 0.08345,-0.271925 1.3e-4,-0.109862 7.5e-5,-0.11013 -0.132182,-0.772649 -0.06302,-0.315659 -0.122574,-0.62096 -0.132463,-0.678553 -0.03176,-0.18504 -0.04878,-0.361741 -0.05377,-0.559539 l -0.0048,-0.187631 -0.05125,0.07589 c -0.205091,0.303096 -0.358148,0.695786 -0.424551,1.089104 -0.01,0.05898 -0.0205,0.141858 -0.02324,0.184269 -0.0028,0.04238 -0.0071,0.07844 -0.0098,0.08009 -0.0063,0.0037 -0.09256,-0.227114 -0.126582,-0.339136 -0.05171,-0.170297 -0.08563,-0.332993 -0.109218,-0.523406 -0.0182,-0.146921 -0.01797,-0.494463 2.8e-4,-0.642711 0.04076,-0.331363 0.122053,-0.6412814 0.256477,-0.97736 0.062219,-0.155535 0.118588,-0.2802742 0.249802,-0.5530721 0.264586,-0.5500783 0.415687,-0.9456423 0.530409,-1.3881931 l 0.03556,-0.1375053 -0.09521,-0.098016 c -0.221813,-0.2276056 -0.36789,-0.471668 -0.41335,-0.6911528 -0.01677,-0.080968 -0.01539,-0.2075513 0.0031,-0.278929 0.05013,-0.1937216 0.207073,-0.3341992 0.389545,-0.3486542 0.06317,-0.00487 0.175401,0.01011 0.242521,0.032443 0.0326,0.010841 0.04472,0.0121 0.04929,0.0056 0.0079,-0.011329 7.72e-4,-0.5933906 -0.009,-0.723368 z m -0.920797,4.9117695 c 8.7e-5,0.0063 0.01746,-0.02083 0.03837,-0.06049 0.07612,-0.144574 0.158512,-0.257506 0.277244,-0.37974 l 0.07421,-0.07646 0.02912,-0.1005356 c 0.098404,-0.3367444 0.198535,-0.5787318 0.437157,-1.0568965 0.14072,-0.2819783 0.203659,-0.4271335 0.250922,-0.5785742 0.02915,-0.093401 0.0697,-0.2485775 0.06973,-0.2674421 0,-0.00763 -0.04,-0.039386 -0.106698,-0.084854 -0.05857,-0.039954 -0.14034,-0.098193 -0.182031,-0.1293846 -0.04169,-0.031225 -0.07652,-0.056253 -0.07729,-0.055729 -8.12e-4,3.975e-4 -0.01484,0.067427 -0.03109,0.148704 -0.08798,0.4402892 -0.220804,0.8871157 -0.397107,1.335546 -0.162882,0.414295 -0.245561,0.667201 -0.314213,0.960004 -0.03046,0.129941 -0.06864,0.322757 -0.06833,0.345853 z m 0.500444,-3.7176187 c -0.0022,0.1212597 0.05655,0.274491 0.147585,0.3755421 0.03425,0.038005 0.0356,0.038696 0.03977,0.021561 0.01454,-0.059834 0.06425,-0.4314578 0.07141,-0.5334916 l 0.0022,-0.032199 -0.03977,-0.012587 c -0.02184,-0.00686 -0.0599,-0.012628 -0.08457,-0.012912 -0.04037,-3.975e-4 -0.04723,0.00203 -0.07057,0.022373 -0.03332,0.029275 -0.05077,0.064008 -0.06133,0.1221042 -0.0029,0.015754 -0.0044,0.03224 -0.0048,0.049586 z m 0.30301,2.9432927 c 7.72e-4,4.06e-4 0.04858,-0.01429 0.106138,-0.03362 0.179012,-0.05998 0.3380674,-0.08873 0.5449724,-0.09801 0.113578,-0.0049 0.297888,0.0049 0.402987,0.02184 0.03256,0.0054 0.05978,0.009 0.06077,0.0081 9.75e-4,-4.06e-4 -0.032,-0.06792 -0.07337,-0.148984 -0.115534,-0.2263792 -0.191247,-0.4143675 -0.264924,-0.6564281 -0.07132,-0.2343012 -0.11397,-0.4232315 -0.126022,-0.559535 -0.0028,-0.031712 -0.0059,-0.06266 -0.007,-0.068609 -0.0011,-0.00597 -0.0025,-0.020302 -0.0028,-0.032199 -3.98e-4,-0.015592 -0.0059,-0.025053 -0.02016,-0.03362 -0.01091,-0.00654 -0.02279,-0.01145 -0.02633,-0.010638 -0.0035,4.061e-4 -0.02073,0.054811 -0.03809,0.1201391 -0.09111,0.3429412 -0.1835544,0.5958187 -0.4564764,1.248455 -0.05559,0.132917 -0.100468,0.242304 -0.0997,0.243079 z m 0.05853,-2.3568779 0.04005,0.034473 c 0.05361,0.046171 0.243977,0.1956502 0.2856484,0.2243166 0.01833,0.012628 0.03567,0.020708 0.03837,0.017947 0.0027,-0.00284 0.0047,-0.071967 0.0045,-0.1540271 -3.44e-4,-0.1216617 -0.0036,-0.1664885 -0.01708,-0.2425194 C 7.2229132,6.9844511 7.1553222,6.8405303 7.0357062,6.715198 7.0063462,6.68442 6.9796562,6.659189 6.9766162,6.659189 c -0.003,0 -0.0074,0.021967 -0.0098,0.048721 v 2.794e-4 c -0.0023,0.026839 -0.0096,0.1128506 -0.01597,0.1912691 -0.0064,0.078431 -0.01847,0.2029102 -0.02717,0.2766877 z"
       sodipodi:nodetypes="cscccscscccssscsssccsscsscssccccsccsssscccsccsscsscccsccscccsccccssccccssssscscccccccccsccccssscccccsssccccccssccscc" />
    <path
       id="path3398"
       style="fill:#f99298;fill-opacity:1;stroke-width:0.00721931"
       d="m 6.9665082,34.145824 0.0073,-0.10838 c 8.12e-4,-0.01198 0.0048,-0.140754 0.0076,-0.286486 l 0.005,-0.265209 0.07561,-0.05601 c 0.2299844,-0.171052 0.3843534,-0.422569 0.4452754,-0.725877 0.02471,-0.12305 0.03113,-0.192682 0.03109,-0.330456 -7.2e-5,-0.131617 -0.0054,-0.200185 -0.02772,-0.348938 -0.0083,-0.05492 -0.01355,-0.101559 -0.01148,-0.103621 0.0021,-0.002 0.0059,0.0087 0.0084,0.02408 0.115827,-0.07175 0.181612,-0.02331 0.259354,-0.52609 -0.0043,-0.0043 0.01896,-0.168161 0.03725,-0.261563 0.06501,-0.332014 0.196358,-0.724249 0.374703,-1.118786 0.03051,-0.0675 0.05726,-0.128763 0.05937,-0.135824 0.0036,-0.01194 -0.0011,-0.01246 -0.06385,-0.0081 -0.08748,0.006 -0.328196,-0.0078 -0.457316,-0.02635 -0.242723,-0.03488 -0.458725,-0.09983 -0.6569914,-0.197433 -0.121694,-0.05991 -0.288689,-0.164344 -0.348938,-0.218157 l -0.03137,-0.02802 -0.02072,-0.12294 c -0.05016,-0.298549 -0.06817,-0.553436 -0.06273,-0.891107 0.0057,-0.354006 0.03329,-0.595855 0.11342,-0.995004 0.07822,-0.389632 0.09788,-0.542336 0.09186,-0.711317 -0.0041,-0.114353 -0.01773,-0.182145 -0.04957,-0.245605 -0.06666,-0.132885 -0.208759,-0.22102 -0.35622,-0.220955 -0.111888,4.9e-5 -0.232461,0.04899 -0.308892,0.125462 -0.162383,0.16238 -0.155196,0.444329 0.01429,0.560928 0.140916,0.09695 0.361217,0.05711 0.421751,-0.07617 0.03957,-0.08712 -0.0061,-0.213947 -0.07785,-0.216196 l -0.02773,-4.06e-4 0.0026,0.05099 c 0.0023,0.04709 10e-4,0.05289 -0.01765,0.07505 -0.025,0.02976 -0.05731,0.04368 -0.100817,0.04368 -0.06542,0 -0.104653,-0.04568 -0.105018,-0.121825 -5.28e-4,-0.113094 0.103586,-0.186981 0.234399,-0.166066 0.05599,0.0089 0.103176,0.03399 0.139744,0.07365 0.05992,0.065 0.08331,0.140818 0.08345,0.271925 1.3e-4,0.109862 7.5e-5,0.11013 -0.132182,0.772649 -0.06302,0.315659 -0.122574,0.62096 -0.132463,0.678553 -0.03176,0.18504 -0.04878,0.361741 -0.05377,0.559539 l -0.0048,0.187631 -0.05125,-0.07589 c -0.205091,-0.303096 -0.358148,-0.695786 -0.424551,-1.089104 -0.01,-0.05898 -0.0205,-0.141858 -0.02324,-0.184269 -0.0028,-0.04238 -0.0071,-0.07844 -0.0098,-0.08009 -0.0063,-0.0037 -0.09256,0.227114 -0.126582,0.339136 -0.05171,0.170297 -0.08563,0.332993 -0.109218,0.523406 -0.0182,0.146921 -0.01797,0.494463 2.8e-4,0.642711 0.04076,0.331363 0.122053,0.641281 0.256477,0.97736 0.06222,0.155535 0.118588,0.280274 0.249802,0.553072 0.264586,0.550079 0.415687,0.945643 0.530409,1.388193 l 0.03556,0.137506 -0.09521,0.09802 c -0.221813,0.227605 -0.36789,0.471668 -0.41335,0.691153 -0.01677,0.08097 -0.01539,0.207551 0.0031,0.278929 0.05013,0.193721 0.207073,0.334199 0.389545,0.348654 0.06317,0.0049 0.175401,-0.01011 0.242521,-0.03244 0.0326,-0.01084 0.04472,-0.0121 0.04929,-0.0056 0.0079,0.01133 7.72e-4,0.59339 -0.009,0.723368 z m -0.920797,-4.91177 c 8.7e-5,-0.0063 0.01746,0.02083 0.03837,0.06049 0.07612,0.144574 0.158512,0.257506 0.277244,0.37974 l 0.07421,0.07646 0.02912,0.100536 c 0.0984,0.336744 0.198535,0.578732 0.437157,1.056896 0.14072,0.281979 0.203659,0.427134 0.250922,0.578575 0.02915,0.0934 0.0697,0.248577 0.06973,0.267442 0,0.0076 -0.04,0.03939 -0.106698,0.08485 -0.05857,0.03995 -0.14034,0.09819 -0.182031,0.129384 -0.04169,0.03122 -0.07652,0.05625 -0.07729,0.05573 -8.12e-4,-3.97e-4 -0.01484,-0.06743 -0.03109,-0.148704 -0.08798,-0.440289 -0.220804,-0.887115 -0.397107,-1.335546 -0.162882,-0.414295 -0.245561,-0.667201 -0.314213,-0.960004 -0.03046,-0.129941 -0.06864,-0.322757 -0.06833,-0.345853 z m 0.500444,3.717619 c -0.0022,-0.12126 0.05655,-0.274491 0.147585,-0.375542 0.03425,-0.03801 0.0356,-0.0387 0.03977,-0.02156 0.01454,0.05983 0.06425,0.431458 0.07141,0.533491 l 0.0022,0.0322 -0.03977,0.01259 c -0.02184,0.0069 -0.0599,0.01263 -0.08457,0.01291 -0.04037,3.98e-4 -0.04723,-0.002 -0.07057,-0.02237 -0.03332,-0.02928 -0.05077,-0.06401 -0.06133,-0.122104 -0.0029,-0.01575 -0.0044,-0.03224 -0.0048,-0.04959 z m 0.30301,-2.943293 c 7.72e-4,-4.06e-4 0.04858,0.01429 0.106138,0.03362 0.179012,0.05998 0.3380674,0.08873 0.5449724,0.09801 0.113578,0.0049 0.297888,-0.0049 0.402987,-0.02184 0.03256,-0.0054 0.05978,-0.009 0.06077,-0.0081 9.75e-4,4.06e-4 -0.032,0.06792 -0.07337,0.148984 -0.115534,0.226379 -0.191247,0.414368 -0.264924,0.656428 -0.07132,0.234302 -0.11397,0.423232 -0.126022,0.559535 -0.0028,0.03171 -0.0059,0.06266 -0.007,0.06861 -0.0011,0.006 -0.0025,0.0203 -0.0028,0.0322 -3.98e-4,0.01559 -0.0059,0.02505 -0.02016,0.03362 -0.01091,0.0065 -0.02279,0.01145 -0.02633,0.01064 -0.0035,-4.06e-4 -0.02073,-0.05481 -0.03809,-0.120139 -0.09111,-0.342941 -0.1835544,-0.595818 -0.4564764,-1.248455 -0.05559,-0.132917 -0.100468,-0.242304 -0.0997,-0.243079 z m 0.05853,2.356878 0.04005,-0.03447 c 0.05361,-0.04617 0.243977,-0.19565 0.2856484,-0.224316 0.01833,-0.01263 0.03567,-0.02071 0.03837,-0.01795 0.0027,0.0028 0.0047,0.07197 0.0045,0.154027 -3.44e-4,0.121661 -0.0036,0.166488 -0.01708,0.242519 -0.03627,0.205988 -0.1038614,0.349909 -0.2234774,0.475241 -0.02936,0.03078 -0.05605,0.05601 -0.05909,0.05601 -0.003,0 -0.0074,-0.02197 -0.0098,-0.04872 v -2.79e-4 c -0.0023,-0.02684 -0.0096,-0.112851 -0.01597,-0.191269 -0.0064,-0.07843 -0.01847,-0.20291 -0.02717,-0.276688 z"
       sodipodi:nodetypes="cscccscscccssscsssccsscsscssccccsccsssscccsccsscsscccsccscccsccccssccccssssscscccccccccsccccssscccccsssccccccssccscc" />
  </g>
</svg>
