<?xml version="1.0" encoding="UTF-8" standalone="no"?>
<svg
   xmlns:dc="http://purl.org/dc/elements/1.1/"
   xmlns:cc="http://creativecommons.org/ns#"
   xmlns:rdf="http://www.w3.org/1999/02/22-rdf-syntax-ns#"
   xmlns:svg="http://www.w3.org/2000/svg"
   xmlns="http://www.w3.org/2000/svg"
   xmlns:sodipodi="http://sodipodi.sourceforge.net/DTD/sodipodi-0.dtd"
   xmlns:inkscape="http://www.inkscape.org/namespaces/inkscape"
   width="512"
   height="512"
   viewBox="0 0 135.46667 135.46667"
   version="1.1"
   id="svg4950"
   inkscape:version="1.0.1 (3bc2e813f5, 2020-09-07)"
   sodipodi:docname="border_nouveau.svg">
  <defs
     id="defs4944" />
  <sodipodi:namedview
     id="base"
     pagecolor="#ffffff"
     bordercolor="#666666"
     borderopacity="1.0"
     inkscape:pageopacity="0.0"
     inkscape:pageshadow="2"
     inkscape:zoom="1.3816317"
     inkscape:cx="364.67981"
     inkscape:cy="416.48517"
     inkscape:document-units="mm"
     inkscape:current-layer="layer1"
     inkscape:document-rotation="0"
     showgrid="false"
     inkscape:snap-global="false"
     units="px"
     inkscape:window-width="1920"
     inkscape:window-height="1057"
     inkscape:window-x="-8"
     inkscape:window-y="-8"
     inkscape:window-maximized="1" />
  <metadata
     id="metadata4947">
    <rdf:RDF>
      <cc:Work
         rdf:about="">
        <dc:format>image/svg+xml</dc:format>
        <dc:type
           rdf:resource="http://purl.org/dc/dcmitype/StillImage" />
        <dc:title></dc:title>
      </cc:Work>
    </rdf:RDF>
  </metadata>
  <g
     inkscape:label="Layer 1"
     inkscape:groupmode="layer"
     id="layer1">
    <path
       style="fill:#511d20;stroke-width:0.264583;fill-opacity:1"
       d="m 123.32729,131.07343 c -0.61778,-0.21636 -1.05815,-0.60865 -1.32292,-1.17849 -0.37889,-0.81546 -0.46546,-0.85443 -1.91031,-0.85989 -1.15523,-0.004 -1.8754,0.17729 -3.04271,0.76754 -1.86652,0.9438 -4.05882,1.34578 -6.68864,1.22644 -2.05267,-0.0932 -4.70983,-0.90175 -5.29997,-1.61283 -0.27626,-0.33287 -60.984543,-0.57838 -77.31204,-0.57838 -18.0481982,0 -18.9980182,-0.0237 -19.4144772,-0.48385 -0.399623,-0.44158 -0.437882,-2.29791 -0.437882,-21.24605 0,-16.243321 -0.07198,-66.991385 -0.330729,-67.270147 -0.264584,-0.285054 -0.264584,-0.318971 0,-0.169595 0.458127,0.258649 0.470864,-4.890207 0.01323,-5.347841 -0.643109,-0.643109 -0.779258,-0.270885 -0.633893,1.733021 0.280272,3.863621 0.33294,4.957662 0.22275,4.627092 -0.06067,-0.181999 -0.217833,-0.264454 -0.349258,-0.183227 -0.131425,0.08123 -0.160117,-0.05777 -0.06376,-0.308869 0.134932,-0.351626 0.07202,-0.41696 -0.273736,-0.284279 -0.363523,0.139496 -0.401516,0.08367 -0.199702,-0.293418 0.137076,-0.256129 0.278472,-1.771496 0.314213,-3.367484 0.06698,-2.990855 -0.189733,-4.037219 -1.19521,-4.871691 -0.227877,-0.189119 -0.414321,-0.471096 -0.414321,-0.62661 0,-0.155517 0.186706,-0.05164 0.414901,0.230833 0.400676,0.495983 0.41042,0.490913 0.284195,-0.147868 -0.07189,-0.363802 -0.214741,-1.361744 -0.317449,-2.217652 -0.116076,-0.967309 -0.373802,-1.743253 -0.681069,-2.050521 -0.896753,-0.896751 -0.467376,-3.404743 0.582904,-3.404743 0.355549,0 0.302441,0.245625 -0.15119,0.699256 -0.410634,0.410634 -0.516021,1.328225 -0.236276,2.057229 0.280904,0.732022 0.633151,0.451244 0.633151,-0.504689 0,-0.507762 0.226686,-1.519793 0.503747,-2.248958 0.550981,-1.450063 0.412614,-1.593389 -0.88501,-0.916723 -0.775321,0.404303 -0.77637,0.403818 -0.289722,-0.133922 0.268629,-0.296831 0.618791,-0.539973 0.778138,-0.540314 0.159347,-3.44e-4 0.696411,-0.348206 1.193475,-0.773034 l 0.903753,-0.772412 -0.46157,-1.208606 c -0.696346,-1.823354 -0.865376,-1.776251 -1.577415,0.439569 -0.168287,0.523698 -0.730363,0.642024 -0.628417,0.132291 0.03638,-0.181901 0.322673,-0.728597 0.636205,-1.214881 l 0.57006,-0.884152 -0.686479,-1.32316 c -0.578444,-1.114924 -0.688978,-1.683649 -0.702352,-3.613764 -0.01341,-1.935201 0.09091,-2.5182649 0.67234,-3.7578871 1.349792,-2.877788 3.749206,-4.729811 5.6626992,-4.370837 1.015496,0.190508 2.512631,1.318373 2.512631,1.892889 0,0.279143 0.393092,0.373355 1.557794,0.373355 1.198198,0 1.974164,-0.194843 3.36154,-0.844075 3.273737,-1.531966 8.075683,-1.500365 10.888448,0.07166 l 1.387988,0.775732 76.810525,0.255991 c 16.37232,0.05457 18.82852,0.115668 19.04703,0.461364 0.15313,0.242271 0.25243,9.5324371 0.2549,23.8482171 l 0.004,69.60299 0.66146,0.4334 0.66146,0.43341 -0.0116,-1.924331 c -0.006,-1.05838 -0.18318,-2.40058 -0.39288,-2.98266 -0.44656,-1.23955 -0.47795,-1.47272 -0.12466,-0.92605 0.21293,0.32949 0.25859,0.30703 0.26894,-0.13229 0.0116,-0.49386 0.0357,-0.49855 0.36094,-0.0703 0.19166,0.2524 0.41088,0.39651 0.48715,0.32024 0.0763,-0.0763 0.0399,0.37207 -0.0808,0.9963 -0.38756,2.00442 -0.28423,5.130541 0.20338,6.153081 0.24524,0.51426 0.53871,0.93501 0.65215,0.93501 0.11345,0 0.34902,0.2679 0.52348,0.59532 0.27845,0.52256 0.2677,0.55449 -0.0879,0.26131 -0.35911,-0.29609 -0.38983,-0.11589 -0.27063,1.5875 0.10529,1.50461 0.26989,2.08376 0.75866,2.6694 0.3433,0.41135 0.62419,1.06947 0.62419,1.46249 0,0.87762 -0.67272,1.89065 -1.25552,1.89065 -0.35113,0 -0.32363,-0.10074 0.1473,-0.53947 0.57024,-0.53126 0.73347,-1.39609 0.41845,-2.21701 -0.26601,-0.69323 -0.63315,-0.47182 -0.63315,0.38184 0,0.4402 -0.23812,1.47787 -0.52916,2.30593 -0.29105,0.82807 -0.52917,1.54107 -0.52917,1.58444 0,0.0434 0.42113,-0.0971 0.93584,-0.31215 0.51472,-0.21506 0.86376,-0.27438 0.77566,-0.13183 -0.0881,0.14255 -0.539,0.42063 -1.00199,0.61795 -0.46299,0.19732 -1.05921,0.71787 -1.45057,1.01955 l -0.60877,0.66079 0.59535,1.2254 c 0.32744,0.67396 0.68896,1.22539 0.80339,1.22539 0.11443,0 0.34296,-0.53578 0.50786,-1.19062 0.16489,-0.65485 0.40473,-1.19063 0.53297,-1.19063 0.4004,0 0.35785,0.89797 -0.30197,1.72946 l -0.53514,0.86588 0.52831,0.8954 c 0.68122,1.15456 1.08583,4.00246 0.79206,5.57492 -0.81885,4.38309 -4.1233,7.26036 -7.12925,6.20762 z m 2.29788,-0.47423 c 1.08428,-1.44569 2.63565,-2.18474 2.90276,-4.74026 0.18535,-1.77338 -0.3525,-4.77499 -0.75443,-4.21029 -0.20268,0.28476 -0.22688,0.25849 -0.10578,-0.11483 0.19471,-0.60028 -0.0775,-1.76492 -0.41245,-1.76492 -0.39041,0 -0.15381,3.56565 0.23921,3.60495 0.1819,0.0182 0.46348,0.048 0.62574,0.0662 0.19482,0.0219 0.16416,0.23525 -0.0903,0.62838 -0.2358,0.36433 -0.33903,0.98029 -0.26607,1.5875 0.0943,0.78492 0.0303,0.99219 -0.3066,0.99219 -0.29444,0 -0.42582,0.23907 -0.42582,0.77485 0,0.94888 -0.6105,1.6064 -1.49151,1.6064 -0.36297,0 -0.90513,0.13122 -1.20479,0.29159 -0.40702,0.21783 -0.70371,0.20658 -1.17284,-0.0445 -0.34539,-0.18485 -0.71325,-0.25083 -0.81746,-0.14661 -0.46219,0.46219 1.06413,1.73872 2.08968,1.74769 0.24519,0.002 0.92776,0.0722 1.19063,-0.2783 z m -12.7324,-1.12796 c 0,-0.84445 0.61331,-0.42121 -2.90489,-0.43133 -2.02516,-0.006 -3.63251,0.0361 -3.57188,0.0931 0.0606,0.057 0.64602,0.29674 1.30087,0.53274 1.4361,0.51754 5.1759,1.09557 5.1759,-0.19448 z m 2.7616,-0.0451 c 0.42398,-0.24236 0.51338,-0.38148 0.24901,-0.38749 -0.22685,-0.005 -0.64357,0.16543 -0.92604,0.37908 -0.65773,0.49748 -0.18869,0.50331 0.67703,0.008 z m -12.85018,-2.54012 c -0.56457,-0.83884 -0.90607,-1.66481 -0.90234,-2.18282 l 0.006,-0.83331 0.49173,1.05834 c 0.27045,0.58208 0.93195,1.56435 1.47001,2.18281 l 0.97829,1.12448 h 5.12549 5.1255 l 1.17282,-0.79153 c 1.29865,-0.87645 3.832,-2.11228 4.33824,-2.1163 0.17883,-0.001 0.86344,-0.80499 1.52135,-1.7857 1.03847,-1.548 1.1962,-1.96543 1.1962,-3.16579 0,-1.15903 0.12839,-1.52891 0.79375,-2.28672 0.93644,-1.06655 1.05123,-2.17199 0.25189,-2.4257 -0.79464,-0.2522 -1.37741,0.35233 -1.24029,1.2866 0.0994,0.67745 0.0705,0.72258 -0.21407,0.33348 -0.33927,-0.46399 -0.23979,-1.36583 0.21475,-1.94678 0.63638,-0.81336 2.04605,-0.0256 2.04605,1.14338 0,0.47435 0.14403,0.64256 0.55019,0.64256 0.46228,0 0.52484,-0.11626 0.39155,-0.7276 -0.24535,-1.12527 -0.39403,-2.37511 -0.58376,-4.90731 -0.15896,-2.12135 -0.12393,-2.39589 0.39526,-3.09814 0.59087,-0.79919 0.75133,-1.5857 0.3235,-1.5857 -0.1354,0 -0.28423,0.26667 -0.33073,0.59261 -0.049,0.34341 -0.30707,0.63396 -0.61372,0.69095 -0.29104,0.0541 -0.62438,0.26367 -0.74075,0.46572 -0.31022,0.53865 -0.65289,0.44901 -0.86742,-0.22691 -0.10374,-0.32686 -0.37965,-0.73557 -0.61314,-0.90823 -0.34001,-0.25144 -0.35868,-0.38068 -0.0938,-0.64925 0.47871,-0.48534 0.42907,-2.51637 -0.0662,-2.70641 -0.21828,-0.0838 -0.39687,-0.28212 -0.39687,-0.44079 0,-0.15868 0.1187,-0.21514 0.26378,-0.12548 0.17447,0.10783 0.17669,-0.0661 0.007,-0.51355 -0.2969,-0.78091 -0.0907,-0.88586 0.41969,-0.21356 0.31029,0.40877 0.35247,0.33347 0.3599,-0.64256 0.0103,-1.35306 0.5624,-1.68684 1.74422,-1.93712 h 0.90427 l -0.7137,-1.455211 c -0.80472,-1.64081 -1.2411,-1.86112 -0.98324,-0.59531 l 0.13616,0.85989 -0.43566,-0.99219 c -0.45627,-1.03914 -0.83182,-1.21446 -1.41686,-0.66145 -0.28872,0.27291 -0.29649,0.22692 -0.0444,-0.26306 0.27313,-0.53092 0.17778,-0.72146 -0.90064,-1.79989 -1.2015,-1.2015 -1.32578,-1.70737 -0.41945,-1.70737 0.36598,0 0.44746,-0.1538 0.35041,-0.66146 -0.13372,-0.69952 0.0773,-0.81553 0.729,-0.40075 0.30038,0.19119 0.43081,0.11457 0.53646,-0.31517 0.2127,-0.86512 0.64731,-0.83622 0.70904,0.0472 0.0668,0.95637 0.82549,2.18344 1.20496,1.94891 0.1829,-0.11304 0.22623,0.1999 0.12852,0.92832 -0.13832,1.03128 -0.1073,1.09883 0.50452,1.09883 0.39496,0 0.58305,0.11139 0.47722,0.28262 -0.0961,0.15544 -0.3374,0.22018 -0.53631,0.14385 -0.67229,-0.25798 -0.73244,0.35875 0.0868,1.59496 l 0.72524,1.28586 0.0683,-68.773518 c 0.0376,-12.442031 0.0115,-22.7707031 -0.0579,-22.9526041 -0.0992,-0.260179 -4.02922,-0.294609 -18.42297,-0.330729 l -76.311533,-0.191501 0.437904,0.595312 c 0.736582,1.001346 1.519026,2.8407861 1.411531,3.3183471 -0.07091,0.31501 -0.230375,0.156152 -0.526261,-0.524244 C 32.736181,10.132416 32.04465,9.1501499 31.432936,8.4865189 L 30.320729,7.2799709 H 25.33627 20.351812 l -1.650115,1.066521 c -0.907564,0.586586 -2.237254,1.2711952 -2.954868,1.5213542 -1.115517,0.3888659 -1.491055,0.7192849 -2.589288,2.2781959 -1.138653,1.616287 -1.266635,1.9353 -1.126923,2.809013 0.173071,1.082325 -0.126094,1.853408 -1.142304,2.944236 -0.426006,0.457286 -0.828581,0.650676 -1.1691172,0.561624 -0.49036,-0.128232 -0.509977,-0.03415 -0.351106,1.683805 0.09255,1.000794 0.275348,2.236345 0.406219,2.745667 0.13087,0.509323 0.2386102,1.556532 0.2394222,2.327131 0.0012,1.142875 -0.1204292,1.522993 -0.6599832,2.062548 -0.715576,0.715576 -0.907046,2.329976 -0.390753,3.294679 0.204838,0.382741 0.188744,0.474212 -0.06615,0.375925 -0.257532,-0.09931 -0.315533,0.291484 -0.24632,1.659599 0.102977,2.035503 0.334296,2.450952 1.3646772,2.450952 0.857668,0 1.313593,-0.473403 1.594167,-1.655276 l 0.20375,-0.858266 0.02708,0.801024 c 0.04088,1.209174 -0.622412,1.977101 -1.707712,1.977101 -0.5010712,0 -0.9110392,0.06349 -0.9110392,0.141087 0,0.282855 1.3363312,2.76933 1.4883492,2.76933 0.08608,0 0.08225,-0.327422 -0.0085,-0.727604 -0.156761,-0.691137 -0.144938,-0.701863 0.235901,-0.214014 0.220513,0.282475 0.400933,0.669428 0.400933,0.859896 0,0.440142 0.842951,0.450233 1.301118,0.01558 0.287987,-0.273209 0.29005,-0.233484 0.01186,0.228412 -0.293637,0.487545 -0.243796,0.681016 0.389248,1.51098 0.399301,0.52351 0.959826,1.026051 1.24561,1.116756 0.413958,0.131384 0.456391,0.241086 0.208696,0.539541 -0.171001,0.206042 -0.477194,0.374623 -0.68043,0.374623 -0.263944,0 -0.32115,0.192718 -0.200225,0.674521 0.155913,0.621205 0.114483,0.660765 -0.524126,0.500483 -0.515154,-0.129301 -0.69342,-0.07297 -0.69342,0.219118 0,0.216238 -0.178593,0.54138 -0.396875,0.722537 -0.336242,0.279056 -0.396875,0.219377 -0.396875,-0.390639 0,-0.840615 -0.738643,-2.519778 -1.108421,-2.519778 -0.139907,0 -0.215638,-0.381447 -0.16829,-0.847656 0.07245,-0.713385 -0.01869,-0.876853 -0.5753722,-1.031959 -0.622459,-0.173437 -0.577806,-0.249667 0.19548,-0.333717 0.1802752,-0.01961 0.3405592,-0.130921 0.3561872,-0.247393 0.03618,-0.269634 -1.4331012,-3.094048 -1.6100002,-3.094919 -0.07276,-2.64e-4 -0.101235,56.56898 -0.06328,69.302061 l 0.06901,23.15107 H 27.198098 l 76.514432,0.1915 z M 10.844789,33.125111 c -0.03125,-0.64648 -0.114781,-0.720439 -0.629269,-0.557146 -0.4804162,0.152477 -0.5396402,0.118129 -0.3114122,-0.180607 0.1550042,-0.202893 0.3045002,-0.752055 0.3322142,-1.220359 0.03845,-0.649677 -0.107214,-0.954728 -0.6146292,-1.287201 -0.658308,-0.431339 -0.910943,-1.168627 -0.400436,-1.168627 0.145521,0 0.264584,-0.297656 0.264584,-0.661459 0,-0.441698 0.146909,-0.661458 0.442187,-0.661458 0.2432032,0 0.6504462,-0.188471 0.9049852,-0.418825 0.425244,-0.384841 0.486969,-0.373663 0.760673,0.137758 0.163831,0.306123 0.226655,0.671825 0.139606,0.812671 -0.08705,0.140848 0.01447,0.189801 0.225586,0.108786 0.586163,-0.224931 0.780876,0.348117 0.33472,0.985094 -0.462226,0.659921 -0.305875,1.961501 0.32258,2.68538 0.379644,0.43729 0.371627,0.459291 -0.102463,0.281192 -0.41824,-0.157118 -0.460216,-0.122169 -0.224676,0.187052 0.159311,0.209148 0.367905,0.618392 0.463541,0.909434 0.157334,0.4788 0.12568,0.472445 -0.332564,-0.06676 -0.588202,-0.692123 -1.26292,-0.556199 -1.427465,0.287568 -0.08825,0.452514 -0.119304,0.416258 -0.147762,-0.172493 z M 10.597091,20.191587 c -0.174625,-0.174625 -0.3175,-0.495037 -0.3175,-0.712028 0,-0.308269 0.07613,-0.29041 0.348217,0.08169 0.592131,0.809787 1.351542,0.423023 1.52076,-0.774513 0.146611,-1.03755 0.152899,-1.042877 0.364309,-0.308657 0.42996,1.493235 -0.924559,2.704738 -1.915786,1.71351 z m 108.246519,107.079453 0.9118,-0.96453 -0.81122,0.46366 c -0.44618,0.25502 -1.10102,0.6864 -1.45521,0.95865 -0.60818,0.46746 -0.61377,0.49531 -0.10057,0.50087 0.29887,0.003 1.00312,-0.38547 1.4552,-0.95865 z m 3.84137,0.35372 c 0.53657,-0.46154 0.66514,-0.75252 0.52609,-1.19063 -0.10121,-0.3189 -0.27204,-0.57981 -0.37961,-0.57981 -0.10756,0 -0.77092,0.53578 -1.47411,1.19062 l -1.27853,1.19063 h 0.94802 c 0.60881,0 1.20211,-0.21856 1.65814,-0.61081 z m 1.73199,0.28008 c 0.0634,-0.66862 -0.0827,-1.134 -0.47743,-1.52135 -0.36104,-0.35427 -0.38575,-0.33442 -0.23024,0.1849 0.12047,0.40229 0.007,0.74921 -0.36848,1.12448 l -0.5427,0.5427 h 0.79375 c 0.44189,0 0.80765,-0.14661 0.8251,-0.33073 z m 2.04043,-0.7217 c 0.0846,-0.89077 0.0713,-0.90553 -0.41835,-0.46244 -0.27816,0.25173 -0.58538,0.37806 -0.68271,0.28073 -0.0973,-0.0973 -0.17697,0.14881 -0.17697,0.54699 0,0.59943 0.1024,0.70941 0.59531,0.63941 0.46586,-0.0662 0.61432,-0.28465 0.68272,-1.00469 z m -5.24678,-0.66736 c 0.34178,-0.3638 0.51136,-0.65772 0.37685,-0.65315 -0.22623,0.008 -1.31659,1.31461 -1.09678,1.31461 0.0542,0 0.37816,-0.29766 0.71993,-0.66146 z m 7.84815,-0.19844 c -0.0734,-0.1819 -0.13346,-0.0331 -0.13346,0.33073 0,0.3638 0.0601,0.51263 0.13346,0.33073 0.0734,-0.1819 0.0734,-0.47956 0,-0.66146 z m -3.91373,-1.38437 c -0.256,-0.70795 -0.40788,-0.84811 -0.67702,-0.62474 -0.25745,0.21366 -0.34915,0.19426 -0.3554,-0.0752 -0.006,-0.24302 -0.13689,-0.19326 -0.39687,0.15047 -0.49161,0.64996 -0.49283,0.94161 -0.004,0.94161 0.21148,0 0.59844,0.28582 0.85989,0.63516 0.65446,0.87443 1.02253,0.21489 0.57334,-1.02734 z m 4.17914,-1.24368 c -1.1943,0 -0.30426,-2.2921 -0.47208,-2.4474 -0.22704,-0.21009 -0.26023,-0.11306 -0.1297,0.3791 0.0965,0.3638 0.24903,1.46513 0.33896,2.44739 0.0899,0.98227 0.22342,1.78594 0.29664,1.78594 0.0732,0 1.1605,-2.16503 -0.0338,-2.16503 z m 0.85963,-0.0839 c -0.0287,-2.08712 -0.46866,-2.20742 -0.48387,-0.13229 -0.0101,1.37325 0.0644,1.86215 0.24193,1.5875 0.14107,-0.21828 0.24994,-0.87313 0.24194,-1.45521 z m -7.2043,0.87992 c 0.3368,-0.31641 0.61236,-0.71855 0.61236,-0.89364 0,-0.1751 0.18364,-0.47077 0.40809,-0.65704 0.27888,-0.23145 0.32216,-0.42461 0.1367,-0.61007 -0.33091,-0.33092 -0.30112,-0.3617 -1.3036,1.34698 -0.87451,1.49056 -0.83105,1.73208 0.14645,0.81377 z m 3.38541,-3.8836 c 0.18417,0.18417 -0.92096,0.69768 -0.92096,1.10227 0,0.13553 0.18131,0.0959 0.40293,-0.088 0.3369,-0.27961 0.37562,-0.26324 0.23627,0.0999 -0.0917,0.23886 -0.0686,0.64265 0.0513,0.89731 0.15981,0.33949 0.24237,0.15566 0.30945,-0.68899 0.0503,-0.63361 -0.17278,-1.41628 -0.079,-1.3225 z m -1.47302,0.35785 c 0,0.64788 0.81704,-0.85621 0.82069,-1.70422 0.003,-0.61607 0.0814,-0.8196 0.22776,-0.5887 0.17846,0.28152 0.25792,0.26376 0.39283,-0.0878 0.28379,-0.73955 0.19492,-0.92658 -0.44027,-0.92658 -0.52184,0 -0.69592,0.2687 -1.21184,1.87057 -0.34601,1.07434 -0.51942,2.05979 -0.40739,2.3151 0.1546,0.35231 0.23484,0.27986 0.38679,-0.34922 0.10544,-0.43656 0.23143,-0.67631 0.23143,-0.52916 z m -0.002,-2.91042 c 0.004,-0.14552 -0.28602,0.0695 -0.64522,0.47778 -0.42108,0.47863 -0.64527,1.0426 -0.63107,1.5875 0.0215,0.82566 0.0364,0.81465 0.64522,-0.47778 0.34276,-0.7276 0.62674,-1.44198 0.63107,-1.5875 z m 5.04231,2.57969 c -0.005,-0.10914 -0.17953,-0.49609 -0.3875,-0.8599 -0.27006,-0.47242 -0.38081,-0.53531 -0.3875,-0.22007 -0.0132,0.62145 0.26846,1.27841 0.5481,1.27841 0.12995,0 0.23205,-0.0893 0.2269,-0.19844 z m -1.23796,-0.59944 c -0.14912,-0.56979 -0.60487,-0.99354 -0.60487,-0.56229 0,0.45124 0.31329,1.09558 0.5327,1.09558 0.11633,0 0.14875,-0.23998 0.0721,-0.53329 z m -0.69605,-1.70425 c -0.0863,-0.22456 -0.28379,-0.40829 -0.43899,-0.40829 -0.19568,0 -0.19165,0.16919 0.0131,0.55183 0.32843,0.61367 0.67187,0.49788 0.42574,-0.14354 z m -1.58004,-3.36832 c -0.22734,0 -0.14716,-0.14837 -0.15985,0.15986 -0.0115,0.27891 0.051,0.43518 0.13896,0.34726 0.0879,-0.0879 0.22661,-0.50712 0.0209,-0.50712 z m 1.14615,-1.53789 c 0,-1.65273 0.0333,-1.85208 -0.26868,-1.85208 -0.15006,0 -0.26458,0.76729 -0.26458,1.77271 0,1.97655 0.53326,2.04628 0.53326,0.0794 z m 1.12695,-0.33073 c 0,0.52105 0.48517,-1.15754 0.59218,-1.52135 l 0.19458,-0.66146 -0.69432,0.64143 c -0.4816,0.44493 -0.69432,0.91101 -0.69432,1.52136 0,1.09891 0.60188,-1.17238 0.60188,0.02 z m -2.27323,-0.51263 c -0.22735,0 -0.14715,-0.14837 -0.15985,0.15986 -0.0115,0.27891 0.0511,0.43518 0.13897,0.34726 0.0879,-0.0879 0.22661,-0.50712 0.0209,-0.50712 z m 0.0159,-2.7055 c 0.74476,0 0.0312,-1.21364 -0.1339,-1.21364 -0.38625,0 -0.59188,0.66934 -0.59188,1.92664 0,1.47044 -0.93823,-0.713 0.72577,-0.713 z m 1.39089,0.58175 c 0,-0.76499 -0.0409,-0.80959 -0.4066,-0.44385 -0.23003,0.23003 -0.33263,0.59935 -0.23628,0.85045 0.28072,0.73152 0.64288,0.50247 0.64288,-0.4066 z m 0.94953,0.18958 c 0.18918,-0.75375 -0.01,-1.4558 -0.41207,-1.4558 -0.15008,0 -0.27288,0.47625 -0.27288,1.05833 0,1.17606 0.4273,1.42402 0.68495,0.39747 z m 0.79016,-1.65638 c -0.40644,0 -0.36985,0.0692 -0.19931,0.86204 l 0.17074,0.79375 0.0904,-0.75179 c 0.0497,-0.41349 0.0566,-0.904 -0.0618,-0.904 z m -2.00428,-0.49211 c 0,-0.21828 -0.11906,-0.32329 -0.26458,-0.23335 -0.14552,0.0899 -0.26458,0.34211 -0.26458,0.56039 0,0.21828 0.11906,0.3233 0.26458,0.23336 0.14552,-0.0899 0.26458,-0.34212 0.26458,-0.5604 z m 2.09029,-1.35783 c -0.0145,-0.69123 -0.10814,-1.55009 -0.20808,-1.90858 -0.18077,-0.64841 -0.18477,-0.64687 -0.76738,0.29581 -0.70393,1.13899 -0.75503,2.21543 -0.12264,2.58376 0.90855,0.52919 1.12556,0.3373 1.0981,-0.97099 z m -2.09434,0 c -0.002,-0.25466 -0.11947,-0.64162 -0.26053,-0.8599 -0.19463,-0.30116 -0.25746,-0.1895 -0.26053,0.46302 -0.002,0.47295 0.11501,0.8599 0.26053,0.8599 0.14552,0 0.26276,-0.20836 0.26053,-0.46302 z m -1.08642,-3.60874 0.0369,-2.74885 -0.69185,-0.17364 c -1.11439,-0.27969 -1.96531,0.44522 -1.92804,1.64254 0.0174,0.56028 0.0857,0.75758 0.15797,0.45692 0.2341,-0.97327 0.60509,-1.06696 0.60509,-0.15282 0,0.7514 0.0576,0.83123 0.39687,0.54969 0.25027,-0.2077 0.39688,-0.22544 0.39688,-0.048 0,0.15475 -0.11083,0.34986 -0.24629,0.43358 -0.38388,0.23725 -0.0445,1.53517 0.57375,2.19412 0.30719,0.32742 0.58177,0.59531 0.61019,0.59531 0.0284,0 0.0683,-1.23698 0.0885,-2.74884 z m 0.86131,1.0952 c -0.0859,-0.53694 -0.17643,-0.68019 -0.24113,-0.38142 -0.0985,0.45475 0.0814,1.24131 0.28387,1.24131 0.0521,0 0.0329,-0.38695 -0.0427,-0.85989 z m 1.57485,-1.20522 c -0.28992,-0.51638 -0.32483,-0.3064 -0.66408,1.27136 l -0.15794,0.92604 0.5369,-0.87448 c 0.38549,-0.62785 0.46589,-1.00095 0.28512,-1.32292 z m -0.58324,-0.61756 c 0.0353,-0.48905 -0.90132,-1.76272 -1.12938,-1.53578 -0.0813,0.0809 -0.0436,0.55719 0.0838,1.05833 0.12746,0.50114 0.29014,1.27773 0.43263,1.70491 l 0.20089,0.79375 0.19036,-0.79375 c 0.1047,-0.43656 0.20444,-0.98892 0.22166,-1.22746 z m -5.89426,-8.622751 c -0.18871,0.33025 -0.49087,0.13596 -0.2702,0.49302 0.1667,0.26972 0.22902,0.26993 0.31864,0.001 0.0613,-0.18383 0.0133,-0.60207 -0.0484,-0.49409 z m 1.16306,-0.58521 c 0,-0.13693 -0.11906,-0.32256 -0.26458,-0.41249 -0.14552,-0.0899 -0.26458,0.0221 -0.26458,0.24897 0,0.22686 0.11906,0.41249 0.26458,0.41249 0.14552,0 0.26458,-0.11204 0.26458,-0.24897 z M 12.047831,41.890728 c -0.08446,-0.211066 -0.147157,-0.148373 -0.159852,0.159853 -0.01149,0.278914 0.05105,0.435184 0.138964,0.347266 0.08792,-0.08792 0.09732,-0.316124 0.02089,-0.507119 z m 1.252388,-0.838562 c -0.170105,-0.443289 -0.639378,-0.607018 -0.639378,-0.223079 0,0.257406 0.590272,0.873755 0.716193,0.747835 0.04951,-0.04951 0.01494,-0.285647 -0.07681,-0.524756 z M 7.7649608,32.228999 c -0.148882,-1.156694 -0.249684,-1.40344 -0.410277,-1.004287 -0.322374,0.801265 -0.288955,2.104263 0.063,2.456215 0.490013,0.490013 0.559721,0.198575 0.34728,-1.451928 z m -0.697337,-1.533453 c 0.01267,-0.424905 -0.06425,-0.381498 -0.390414,0.220313 -0.226847,0.418563 -0.322911,0.944261 -0.217571,1.190625 0.156452,0.365903 0.223042,0.328324 0.390414,-0.220313 0.110985,-0.363802 0.208892,-0.899584 0.217571,-1.190625 z m 0.30155,-2.202524 c 0,-0.545132 -0.608251,-1.178806 -1.217317,-1.268198 -0.272438,-0.03998 -0.369229,0.27133 -0.36657,1.179028 0.002,0.678349 0.07677,1.506453 0.166173,1.84023 0.156978,0.586031 0.184112,0.575156 0.790137,-0.31669 0.345168,-0.507961 0.627577,-1.153428 0.627577,-1.43437 z m 0.439812,-0.377164 c -0.0734,-0.181901 -0.133452,-0.03307 -0.133452,0.330729 0,0.363803 0.06005,0.512631 0.133452,0.33073 0.0734,-0.181901 0.0734,-0.479558 0,-0.661459 z m 0.0055,-1.30638 c -0.08446,-0.211066 -0.147157,-0.148373 -0.159852,0.159853 -0.01149,0.278914 0.05104,0.435184 0.138964,0.347266 0.08792,-0.08792 0.09732,-0.316124 0.02089,-0.507119 z m 1.935927,-1.711189 c 0,-0.63229 -0.09007,-1.149618 -0.200163,-1.149618 -0.248698,0 -0.85817,1.905233 -0.85817,2.682674 0,0.55758 0.01544,0.560366 0.529166,0.09545 0.374498,-0.338916 0.529167,-0.814908 0.529167,-1.628506 z m -3.646019,0.714114 c -0.159461,-1.086552 -0.32272,-1.017623 -0.32272,0.136258 0,0.517912 0.09921,0.880341 0.220469,0.8054 0.121258,-0.07494 0.167276,-0.498689 0.102262,-0.941658 z m 1.000186,-0.424139 c 0,-0.736785 -0.102973,-1.142599 -0.264584,-1.042718 -0.455218,0.28134 -0.300896,2.248958 0.176389,2.248958 0.04851,0 0.08819,-0.542808 0.08819,-1.20624 z m 0.711551,-0.844281 c -0.06655,-0.254661 -0.121,-0.0463 -0.121,0.463021 0,0.509323 0.05445,0.717682 0.121,0.463021 0.06655,-0.254662 0.06655,-0.67138 0,-0.926042 z m -1.019268,-0.859896 c 0.250171,0 0.64327,-1.869318 0.436566,-2.076022 -0.185779,-0.18578 -1.176884,2.143907 -1.16459,2.737481 0.01002,0.483757 0.03149,0.478081 0.250247,-0.06615 0.131607,-0.327422 0.346607,-0.595313 0.477777,-0.595313 z m 2.263606,-0.410754 c 0.0898,-0.298675 0.01388,-0.747344 -0.1687,-0.997042 -0.284444,-0.389 -0.33197,-0.28474 -0.33197,0.728255 0,1.183601 0.194269,1.287895 0.50067,0.268787 z M 7.8208868,22.29811 c -0.06329,-0.329119 -0.117469,-0.122148 -0.120406,0.459936 -0.0029,0.582083 0.04884,0.851362 0.115066,0.598397 0.06622,-0.252965 0.06863,-0.729215 0.0053,-1.058333 z m 1.137073,-2.447097 c -0.154371,-0.406027 -0.334804,-0.684102 -0.400962,-0.617944 -0.06616,0.06616 0.02475,0.504543 0.202023,0.974188 0.177271,0.469644 0.357704,0.747719 0.400963,0.617943 0.04326,-0.129776 -0.04765,-0.56816 -0.202024,-0.974187 z m 0.928767,-1.925665 c 0.3825552,-0.276861 1.5151932,-3.977827 1.3160032,-4.300123 -0.270538,-0.43774 -0.716161,0.02042 -0.568619,0.584622 0.09441,0.361009 0.02719,0.478438 -0.219637,0.383721 -0.4412442,-0.169321 -0.6628252,0.373831 -0.6681022,1.63768 -0.0029,0.704359 -0.07178,0.863445 -0.250996,0.580042 -0.201312,-0.318344 -0.292608,-0.269451 -0.49405,0.264583 -0.355559,0.942608 0.122696,1.401457 0.885401,0.849475 z m -1.992438,-0.525115 c -0.0074,-0.362127 -0.493792,-0.979413 -0.649248,-0.823957 -0.208426,0.208426 0.123583,1.022395 0.417024,1.022395 0.129952,0 0.234453,-0.0893 0.232224,-0.198438 z m 3.6029232,-1.015989 c 0.429353,-1.027586 0.466075,-1.431407 0.130167,-1.431407 -0.188165,0 -1.083205,2.12876 -1.083205,2.57629 0,0.364936 0.646894,-0.412176 0.953038,-1.144883 z M 6.0221218,15.320261 c -0.166937,-0.420364 -0.356584,-0.622071 -0.421436,-0.448238 -0.127529,0.341836 0.412066,1.525431 0.606702,1.330795 0.06504,-0.06504 -0.01833,-0.462192 -0.185266,-0.882557 z m 1.347052,0.74148 c 0,-0.117708 -0.188313,-0.44513 -0.418474,-0.727605 -0.382935,-0.469973 -0.405405,-0.47243 -0.264583,-0.02893 0.08464,0.266564 0.15389,0.593985 0.15389,0.727604 0,0.133619 0.119063,0.242944 0.264584,0.242944 0.145521,0 0.264583,-0.09631 0.264583,-0.214013 z m 1.5875,-0.05057 c 0,-0.145521 -0.0525,-0.264584 -0.116677,-0.264584 -0.06417,0 -0.190261,0.119063 -0.280198,0.264584 -0.08994,0.145521 -0.03743,0.264583 0.116677,0.264583 0.154109,0 0.280198,-0.119062 0.280198,-0.264583 z m -1.127237,-2.109987 c -0.02801,-1.010442 -0.166677,-1.627966 -0.384331,-1.711487 -0.453306,-0.17395 -0.429943,-0.549217 0.065,-1.044166 0.331573,-0.331573 0.345951,-0.500907 0.07884,-0.928612 -0.246852,-0.3952739 -0.253994,-0.6725479 -0.02923,-1.1347331 0.163596,-0.336402 0.367647,-0.935626 0.453447,-1.331607 0.21645,-0.998961 0.954378,-1.309508 3.2230082,-1.35636 1.074301,-0.02219 1.953399,-0.129637 1.95355,-0.238777 6.36e-4,-0.457251 -1.11157,-1.259012 -1.785661,-1.287239 -1.9818612,-0.08299 -3.2071312,0.604118 -3.9265322,2.201922 -0.615008,1.365948 -0.749307,6.5670201 -0.17451,6.7583741 0.181901,0.06056 0.330729,0.457368 0.330729,0.881804 0,0.424435 0.05389,0.771701 0.119748,0.771701 0.06586,0 0.100031,-0.711369 0.07593,-1.58082 z m 2.1796872,-0.105223 c 0.0032,-0.126958 -0.1805182,-0.07614 -0.4083422,0.112942 -0.361264,0.299823 -0.40355,0.248313 -0.330729,-0.402871 0.04763,-0.425952 -0.05856,-0.796449 -0.247233,-0.862595 -0.232164,-0.08139 -0.330729,0.232319 -0.330729,1.05263 0,0.642717 0.08474,1.253315 0.188308,1.356884 0.192288,0.192289 1.118064,-0.83869 1.1287252,-1.25699 z m -3.3199332,0.04017 C 6.5866288,13.512993 6.4166648,12.352133 6.3114928,11.256449 L 6.1202718,9.2642961 6.0832618,11.01716 c -0.04239,2.007947 0.180564,3.406511 0.543062,3.406511 0.137191,0 0.165466,-0.264262 0.06286,-0.587535 z m -1.136041,-1.809102 -0.238781,-1.439822 -0.03093,1.235132 c -0.01701,0.679322 0.05045,1.447208 0.149918,1.706414 0.307376,0.801009 0.370483,0.0099 0.119793,-1.501724 z m 6.8222202,0.102566 c 0.864966,-1.596988 0.85544,-2.2844379 -0.01509,-1.089385 -0.287111,0.39414 -0.485767,0.768375 -0.441457,0.831634 0.04431,0.06326 -0.139459,0.358138 -0.408376,0.655288 -0.403101,0.445421 -0.429618,1.102784 -0.04449,1.102784 0.05324,0 0.462478,-0.675144 0.909413,-1.500321 z m -1.037446,-0.862756 c 0,0.214519 0.139065,0.157367 0.363315,-0.149313 0.324668,-0.444011 0.268379,-0.5864 -0.529166,-1.3385819 -0.644442,-0.6077872 -0.892482,-1.0720202 -0.892482,-1.6703742 0,-0.744338 -0.08077,-0.828654 -0.7937502,-0.828654 -0.754588,0 -0.79375,0.05424 -0.79375,1.09934 0,1.0482642 0.02248,1.0789962 0.483854,0.661459 0.680372,-0.615729 0.8390622,-0.550778 0.8390622,0.3434182 0,0.429715 0.13775,1.0836279 0.306111,1.4531399 0.237737,0.521777 0.385482,0.605968 0.661458,0.376928 0.266736,-0.221371 0.355348,-0.208245 0.355348,0.05264 z m 2.737577,-2.8068041 1.282368,-1.180119 h -0.84467 c -1.141511,0 -2.381525,0.764441 -2.381525,1.468157 0,0.5537592 0.207449,0.9229852 0.507118,0.9025872 0.08489,-0.0058 0.731406,-0.5415592 1.436709,-1.1906252 z m 0.33027,0.633465 c 0.501326,-0.564623 0.500836,-0.565991 -0.09128,-0.255274 -0.327422,0.171815 -0.595312,0.4272652 -0.595312,0.5676652 0,0.375878 0.12665,0.318254 0.686597,-0.3123912 z m -2.341258,-1.350558 c 0.383131,-0.428747 0.361146,-0.463021 -0.297011,-0.463021 -0.882186,0 -1.14724,0.606894 -0.663172,1.518466 l 0.365886,0.6890182 0.09027,-0.6407212 c 0.04965,-0.352397 0.276461,-0.849081 0.504027,-1.103742 z m 6.093551,-0.411281 c -0.442554,-0.08523 -2.3222,1.209406 -2.322216,1.59946 -4e-6,0.107795 0.624585,-0.188324 1.387975,-0.658043 0.948111,-0.583378 1.244185,-0.881728 0.934241,-0.941417 z m 2.340323,-1.298221 c -0.200197,-0.200197 -1.48132,0.248754 -1.343978,0.470977 0.07695,0.12451 0.433819,0.09247 0.79304,-0.0712 0.35922,-0.163671 0.607142,-0.34357 0.550938,-0.399774 z m 8.302232,0.439736 c -2.91e-4,-0.211639 -1.547467,-0.711134 -2.823184,-0.911441 -1.094931,-0.171921 -4.429816,0.534749 -4.208243,0.891737 0.125962,0.202944 7.0317,0.222297 7.031427,0.0197 z"
       id="path5527"
       sodipodi:nodetypes="cscscssssssssssssssssssssssssssssscsssscsssssssscsscccccsscsssssssssssssssssssscssssscssccsssssscsssssssscssscssssccsccsscsscccscssssscsssssssssssssssscssscsscsssssssscsssssscccscsssccccssssssssssssssscsssscsssssssssssssssssscscccssssssssssssssssssssssssssssscsscssssscsssssccsssssscsscsssscscscsssccsssssssscssssssssssccssssscsssssssscsssccsssccsscccscccsssssssssssscsssssscsssssssssssssssssccssscscsssssscscscccsccsssssscccssccsscsscscscsccssssssssssssssssssssssssssssssssssssssssssssssssssssssssssssssssssssssssssccsccssssssssscssssssssssssssssssssssssssssssssssssssssscssssscsscssssscsssssssssssssssssssssscsscssssssssscssssssssssssssss"
       inkscape:export-xdpi="102.35"
       inkscape:export-ydpi="102.35" />
  </g>
</svg>
