<?xml version="1.0" encoding="UTF-8" standalone="no"?>
<svg
   xmlns:dc="http://purl.org/dc/elements/1.1/"
   xmlns:cc="http://creativecommons.org/ns#"
   xmlns:rdf="http://www.w3.org/1999/02/22-rdf-syntax-ns#"
   xmlns:svg="http://www.w3.org/2000/svg"
   xmlns="http://www.w3.org/2000/svg"
   xmlns:sodipodi="http://sodipodi.sourceforge.net/DTD/sodipodi-0.dtd"
   xmlns:inkscape="http://www.inkscape.org/namespaces/inkscape"
   width="350"
   height="350"
   viewBox="0 0 92.604169 92.604169"
   version="1.1"
   id="svg4950"
   inkscape:version="1.0.1 (3bc2e813f5, 2020-09-07)"
   sodipodi:docname="border_nouveau_list_characters.svg">
  <defs
     id="defs4944" />
  <sodipodi:namedview
     id="base"
     pagecolor="#ffffff"
     bordercolor="#666666"
     borderopacity="1.0"
     inkscape:pageopacity="0.0"
     inkscape:pageshadow="2"
     inkscape:zoom="1.9539223"
     inkscape:cx="186.78282"
     inkscape:cy="428.24152"
     inkscape:document-units="mm"
     inkscape:current-layer="layer1"
     inkscape:document-rotation="0"
     showgrid="false"
     inkscape:snap-global="false"
     units="px"
     inkscape:window-width="1302"
     inkscape:window-height="1041"
     inkscape:window-x="602"
     inkscape:window-y="0"
     inkscape:window-maximized="0" />
  <metadata
     id="metadata4947">
    <rdf:RDF>
      <cc:Work
         rdf:about="">
        <dc:format>image/svg+xml</dc:format>
        <dc:type
           rdf:resource="http://purl.org/dc/dcmitype/StillImage" />
        <dc:title></dc:title>
      </cc:Work>
    </rdf:RDF>
  </metadata>
  <g
     inkscape:label="Layer 1"
     inkscape:groupmode="layer"
     id="layer1">
    <path
       style="color:#000000;font-style:normal;font-variant:normal;font-weight:normal;font-stretch:normal;font-size:medium;line-height:normal;font-family:sans-serif;font-variant-ligatures:normal;font-variant-position:normal;font-variant-caps:normal;font-variant-numeric:normal;font-variant-alternates:normal;font-variant-east-asian:normal;font-feature-settings:normal;font-variation-settings:normal;text-indent:0;text-align:start;text-decoration:none;text-decoration-line:none;text-decoration-style:solid;text-decoration-color:#000000;letter-spacing:normal;word-spacing:normal;text-transform:none;writing-mode:lr-tb;direction:ltr;text-orientation:mixed;dominant-baseline:auto;baseline-shift:baseline;text-anchor:start;white-space:normal;shape-padding:0;shape-margin:0;inline-size:0;clip-rule:nonzero;display:inline;overflow:visible;visibility:visible;opacity:1;isolation:auto;mix-blend-mode:normal;color-interpolation:sRGB;color-interpolation-filters:linearRGB;solid-color:#000000;solid-opacity:1;vector-effect:none;fill:#dfcaa2;fill-opacity:1;fill-rule:nonzero;stroke:none;stroke-width:0.8272;stroke-linecap:square;stroke-linejoin:miter;stroke-miterlimit:4;stroke-dasharray:none;stroke-dashoffset:0;stroke-opacity:1;paint-order:stroke markers fill;color-rendering:auto;image-rendering:auto;shape-rendering:auto;text-rendering:auto;enable-background:accumulate;stop-color:#000000;stop-opacity:1"
       d="m 10.264245,8.4233986 c -1.0115958,-1e-7 -1.8408465,0.8224198 -1.8408464,1.8316534 v 72.094063 c -1e-7,1.009233 0.8292505,1.831653 1.8408464,1.831653 h 72.075677 c 1.011596,0 1.840846,-0.82242 1.840846,-1.831653 V 10.255052 c 0,-1.0092337 -0.82925,-1.8316534 -1.840846,-1.8316534 z m 0,0.8273466 h 72.075677 c 0.570668,0 1.013499,0.4420883 1.013499,1.0043068 v 72.094063 c 0,0.562217 -0.442831,1.004306 -1.013499,1.004306 H 10.264245 c -0.5706695,0 -1.0135,-0.442089 -1.0134998,-1.004306 V 10.255052 c 0,-0.5622186 0.4428302,-1.004307 1.0134998,-1.0043068 z"
       id="path836" />
    <path
       id="path4646"
       style="fill:#dfcaa2;fill-opacity:1;stroke-width:0.0243305"
       d="m 25.957917,87.857598 c 0.28898,-0.0021 0.58142,-0.02118 0.73434,-0.0572 0.46227,-0.108851 0.78824,-0.279889 1.09238,-0.571886 0.31035,-0.297943 0.47123,-0.578571 0.60008,-1.050115 0.0474,-0.1737 0.0536,-0.257276 0.0539,-0.696214 2e-4,-0.430153 -0.007,-0.531524 -0.0539,-0.735165 -0.12646,-0.549235 -0.3751,-1.13555 -0.66803,-1.576416 -0.19756,-0.297327 -0.55263,-0.654177 -0.84043,-0.8454 -0.58699,-0.390034 -1.29143,-0.608944 -2.11101,-0.655596 -0.23013,-0.01308 -0.2735,-0.02075 -0.20638,-0.03647 -0.29377,-0.130196 -2.742844,0.384979 -2.85944,0.421284 -0.69124,0.218739 -1.89116,0.634193 -2.17731,0.754228 -0.094,0.03945 -1.22508,0.454413 -1.48442,0.544532 -0.97951,0.3404 -1.17759,0.406466 -1.65433,0.551168 -1.00868,0.306143 -1.90493,0.510366 -2.77655,0.633223 -0.35368,0.04983 -0.49018,0.0563 -1.21341,0.05551 -0.86347,-9.79e-4 -1.06748,-0.02092 -1.60542,-0.157476 -0.70827,-0.179818 -1.36506,-0.50327 -1.87397,-0.922476 l 0.58677,0.930826 c 1.00897,0.657678 2.46336,0.964576 4.00238,0.84374 0.86413,-0.06785 1.68071,-0.237155 2.94149,-0.608356 0.47676,-0.140364 1.23005,-0.404616 3.13874,-1.103164 1.69182,-0.619168 2.15502,-0.776058 2.84618,-0.96143 2.22566,-0.596937 3.81742,-0.448987 4.85606,0.450879 0.60174,0.521323 0.91138,1.298663 0.82552,2.073714 -0.0238,0.215329 -0.0996,0.542552 -0.1467,0.633215 -0.0109,0.02105 -0.0555,0.109446 -0.0986,0.196431 -0.1147,0.231568 -0.20325,0.355445 -0.39702,0.555314 -0.20424,0.210667 -0.37554,0.333239 -0.69373,0.494804 -0.43783,0.22232 -0.80677,0.301973 -1.29212,0.280143 -0.43823,-0.01971 -0.75684,-0.121144 -1.10233,-0.35059 -0.36906,-0.245093 -0.5781,-0.664063 -0.58018,-1.166153 -0.002,-0.411805 0.10936,-0.699763 0.36799,-0.957291 0.18467,-0.183882 0.348,-0.271287 0.63737,-0.338988 0.35214,-0.0824 0.70527,-0.03746 0.95646,0.121822 0.0638,0.04048 0.11138,0.07841 0.1061,0.08372 -0.005,0.0051 -0.0575,-0.0016 -0.11603,-0.01494 -0.32711,-0.07348 -0.64667,0.156341 -0.67632,0.486521 -0.0158,0.174211 0.0212,0.306963 0.11686,0.422699 0.2163,0.261862 0.63201,0.274398 0.85038,0.02568 0.11363,-0.129395 0.14551,-0.232165 0.14502,-0.466625 -7.2e-4,-0.380356 -0.10834,-0.675263 -0.32655,-0.893474 -0.38825,-0.388254 -1.16817,-0.491949 -1.65183,-0.219638 -0.17514,0.09861 -0.39602,0.315854 -0.49731,0.489837 -0.1869,0.321123 -0.25713,0.754756 -0.19228,1.186871 0.0891,0.593611 0.36669,1.154792 0.76749,1.550726 0.29631,0.292724 0.59232,0.463766 0.95563,0.551997 0.13951,0.03388 0.42546,0.04853 0.71445,0.04641 z m -12.2906,-1.541612 c 0.41679,-0.01529 0.84726,-0.06299 1.26893,-0.143386 1.52171,-0.290055 2.63409,-0.639466 5.64428,-1.772022 2.22044,-0.835416 3.00266,-1.072261 3.917,-1.183554 0.35495,-0.04315 0.95121,-0.03725 1.22666,0.01154 0.85724,0.15206 1.40581,0.593879 1.63196,1.316174 0.10481,0.334762 0.0891,0.860027 -0.0349,1.190186 -0.0305,0.08127 -0.0632,0.169667 -0.073,0.196428 -0.01,0.02675 0.0146,-2.74e-4 0.0539,-0.06049 0.21897,-0.336358 0.30843,-0.909545 0.213,-1.362584 -0.21618,-1.026387 -1.00993,-1.640131 -2.26269,-1.75047 h -7.15e-4 c -0.50028,-0.04386 -1.222759,0.01172 -1.878939,0.145033 -0.93334,0.189749 -1.93666,0.507542 -4.10598,1.301245 -2.55935,0.936411 -3.726151,1.291052 -5.084821,1.544095 -0.50847,0.09469 -1.36902,0.123707 -1.92204,0.06466 -0.58611,-0.06258 -1.15786,-0.195177 -1.670079,-0.387057 -0.797461,-0.298735 -1.477611,-0.688452 -1.886401,-1.080787 -0.20866,-0.200256 -0.42187,-0.365855 -0.42187,-0.32821 0,0.03968 0.13914,0.212917 0.33485,0.421038 l 0.945655,0.765001 c 0.24772,0.162435 0.66117,0.391328 0.94567,0.514698 0.64173,0.27825 1.23224,0.441471 1.97095,0.544534 0.36858,0.05143 0.77175,0.06914 1.18853,0.05387 z m -1.28467,-2.076196 c 0.67039,0.01409 1.38924,-0.06268 2.11516,-0.229583 0.26973,-0.06202 0.89741,-0.258782 1.04679,-0.328217 0.0268,-0.01256 0.11942,-0.05226 0.20638,-0.08787 0.58793,-0.240691 1.29676,-0.69795 1.64687,-1.062546 0.18423,-0.191856 0.36783,-0.470476 0.46662,-0.707813 0.41939,-1.007396 0.0339,-1.923816 -0.90921,-2.159916 v 7.9e-4 c -0.82524,-0.2066 -1.66441,0.3808 -1.66593,1.166154 -6.09e-4,0.32594 0.13992,0.581281 0.39949,0.72439 0.15909,0.08766 0.23535,0.08591 0.10527,-0.0024 -0.25313,-0.172011 -0.31428,-0.521754 -0.1409,-0.8023 0.0814,-0.131688 0.273,-0.2931 0.45169,-0.380429 0.15609,-0.07621 0.18692,-0.08289 0.40033,-0.08289 0.19815,0 0.25069,0.0087 0.36634,0.06299 0.30586,0.14347 0.43557,0.342405 0.43597,0.664717 4.76e-4,0.386682 -0.18454,0.801888 -0.53957,1.210078 -0.42909,0.493332 -1.64064,1.133071 -2.73262,1.443806 -0.80936,0.230308 -1.3741,0.312224 -2.16489,0.313293 -0.71896,9.79e-4 -1.04308,-0.04286 -1.60128,-0.217146 -0.22927,-0.0716 -0.28179,-0.07557 -0.15085,-0.01155 0.30035,0.146714 0.69425,0.273745 1.11976,0.362197 0.35774,0.07436 0.74236,0.115896 1.14458,0.124335 z m -2.58675,-0.66057 c 0.008,-0.0032 -0.0245,-0.03231 -0.0953,-0.0887 -0.39667,-0.315391 -0.76555,-0.83406 -0.93822,-1.317827 -0.1258,-0.352382 -0.14926,-0.480059 -0.15001,-0.827165 -0.002,-0.471621 0.0942,-0.774571 0.37297,-1.180243 0.1456,-0.21186 0.2341,-0.38614 0.27103,-0.53293 0.0375,-0.14874 -0.0187,-0.31231 -0.13178,-0.38126 -0.0951,-0.0579 -0.17039,-0.0582 -0.29672,-7.9e-4 -0.29779,0.13527 -0.58644,0.75264 -0.6448199,1.379988 -0.10571,1.135872 0.5261299,2.378606 1.4645299,2.880156 0.0911,0.04872 0.14004,0.07196 0.14835,0.0688 z m -0.4658,-0.883527 -0.0133,-0.07292 c -0.0617,-0.340223 -0.0699,-0.485388 -0.0406,-0.687922 0.0545,-0.37729 0.23098,-0.68893 0.52795,-0.931599 0.19191,-0.156782 0.25363,-0.244216 0.25363,-0.358877 0,-0.09544 -0.0924,-0.226632 -0.19561,-0.278486 -0.10801,-0.0543 -0.13194,-0.05344 -0.25941,0.0083 -0.21844,0.105744 -0.48803,0.502274 -0.54288,0.798156 -0.0363,0.195703 -0.029,0.613166 0.0142,0.821364 0.0397,0.192016 0.15294,0.523651 0.21797,0.636536 z"
       sodipodi:nodetypes="ccscccsssccscssccccssssscccsssscsssccccscsscsssccccsccscccccccsssssscccscccsccscccsccscscssssscsccccccscccscccccccsccsccc" />
    <path
       id="path844"
       style="fill:#dfcaa2;fill-opacity:1;stroke-width:0.0243305"
       d="m 66.805932,87.857598 c -0.28898,-0.0021 -0.58142,-0.02118 -0.73434,-0.0572 -0.46227,-0.108851 -0.78824,-0.279889 -1.09238,-0.571886 -0.31035,-0.297943 -0.47123,-0.578571 -0.60008,-1.050115 -0.0474,-0.1737 -0.0536,-0.257276 -0.0539,-0.696214 -2e-4,-0.430153 0.007,-0.531524 0.0539,-0.735165 0.12646,-0.549235 0.3751,-1.13555 0.66803,-1.576416 0.19756,-0.297327 0.55263,-0.654177 0.84043,-0.8454 0.58699,-0.390034 1.29143,-0.608944 2.11101,-0.655596 0.23013,-0.01308 0.2735,-0.02075 0.20638,-0.03647 0.29377,-0.130196 2.742844,0.384979 2.85944,0.421284 0.69124,0.218739 1.89116,0.634193 2.17731,0.754228 0.094,0.03945 1.22508,0.454413 1.48442,0.544532 0.97951,0.3404 1.17759,0.406466 1.65433,0.551168 1.00868,0.306143 1.90493,0.510366 2.77655,0.633223 0.35368,0.04983 0.49018,0.0563 1.21341,0.05551 0.86347,-9.79e-4 1.06748,-0.02092 1.60542,-0.157476 0.70827,-0.179818 1.36506,-0.50327 1.87397,-0.922476 l -0.58677,0.930826 c -1.00897,0.657678 -2.46336,0.964576 -4.00238,0.84374 -0.86413,-0.06785 -1.68071,-0.237155 -2.94149,-0.608356 -0.47676,-0.140364 -1.23005,-0.404616 -3.13874,-1.103164 -1.69182,-0.619168 -2.15502,-0.776058 -2.84618,-0.96143 -2.22566,-0.596937 -3.81742,-0.448987 -4.85606,0.450879 -0.60174,0.521323 -0.91138,1.298663 -0.82552,2.073714 0.0238,0.215329 0.0996,0.542552 0.1467,0.633215 0.0109,0.02105 0.0555,0.109446 0.0986,0.196431 0.1147,0.231568 0.20325,0.355445 0.39702,0.555314 0.20424,0.210667 0.37554,0.333239 0.69373,0.494804 0.43783,0.22232 0.80677,0.301973 1.29212,0.280143 0.43823,-0.01971 0.75684,-0.121144 1.10233,-0.35059 0.36906,-0.245093 0.5781,-0.664063 0.58018,-1.166153 0.002,-0.411805 -0.10936,-0.699763 -0.36799,-0.957291 -0.18467,-0.183882 -0.348,-0.271287 -0.63737,-0.338988 -0.35214,-0.0824 -0.70527,-0.03746 -0.95646,0.121822 -0.0638,0.04048 -0.11138,0.07841 -0.1061,0.08372 0.005,0.0051 0.0575,-0.0016 0.11603,-0.01494 0.32711,-0.07348 0.64667,0.156341 0.67632,0.486521 0.0158,0.174211 -0.0212,0.306963 -0.11686,0.422699 -0.2163,0.261862 -0.63201,0.274398 -0.85038,0.02568 -0.11363,-0.129395 -0.14551,-0.232165 -0.14502,-0.466625 7.2e-4,-0.380356 0.10834,-0.675263 0.32655,-0.893474 0.38825,-0.388254 1.16817,-0.491949 1.65183,-0.219638 0.17514,0.09861 0.39602,0.315854 0.49731,0.489837 0.1869,0.321123 0.25713,0.754756 0.19228,1.186871 -0.0891,0.593611 -0.36669,1.154792 -0.76749,1.550726 -0.29631,0.292724 -0.59232,0.463766 -0.95563,0.551997 -0.13951,0.03388 -0.42546,0.04853 -0.71445,0.04641 z m 12.2906,-1.541612 c -0.41679,-0.01529 -0.84726,-0.06299 -1.26893,-0.143386 -1.52171,-0.290055 -2.63409,-0.639466 -5.64428,-1.772022 -2.22044,-0.835416 -3.00266,-1.072261 -3.917,-1.183554 -0.35495,-0.04315 -0.95121,-0.03725 -1.22666,0.01154 -0.85724,0.15206 -1.40581,0.593879 -1.63196,1.316174 -0.10481,0.334762 -0.0891,0.860027 0.0349,1.190186 0.0305,0.08127 0.0632,0.169667 0.073,0.196428 0.01,0.02675 -0.0146,-2.74e-4 -0.0539,-0.06049 -0.21897,-0.336358 -0.30843,-0.909545 -0.213,-1.362584 0.21618,-1.026387 1.00993,-1.640131 2.26269,-1.75047 h 7.15e-4 c 0.50028,-0.04386 1.222759,0.01172 1.878939,0.145033 0.93334,0.189749 1.93666,0.507542 4.10598,1.301245 2.55935,0.936411 3.726151,1.291052 5.084821,1.544095 0.50847,0.09469 1.36902,0.123707 1.92204,0.06466 0.58611,-0.06258 1.15786,-0.195177 1.670079,-0.387057 0.797461,-0.298735 1.477611,-0.688452 1.886401,-1.080787 0.20866,-0.200256 0.42187,-0.365855 0.42187,-0.32821 0,0.03968 -0.13914,0.212917 -0.33485,0.421038 l -0.945655,0.765001 c -0.24772,0.162435 -0.66117,0.391328 -0.94567,0.514698 -0.64173,0.27825 -1.23224,0.441471 -1.97095,0.544534 -0.36858,0.05143 -0.77175,0.06914 -1.18853,0.05387 z m 1.28467,-2.076196 c -0.67039,0.01409 -1.38924,-0.06268 -2.11516,-0.229583 -0.26973,-0.06202 -0.89741,-0.258782 -1.04679,-0.328217 -0.0268,-0.01256 -0.11942,-0.05226 -0.20638,-0.08787 -0.58793,-0.240691 -1.29676,-0.69795 -1.64687,-1.062546 -0.18423,-0.191856 -0.36783,-0.470476 -0.46662,-0.707813 -0.41939,-1.007396 -0.0339,-1.923816 0.90921,-2.159916 v 7.9e-4 c 0.82524,-0.2066 1.66441,0.3808 1.66593,1.166154 6.09e-4,0.32594 -0.13992,0.581281 -0.39949,0.72439 -0.15909,0.08766 -0.23535,0.08591 -0.10527,-0.0024 0.25313,-0.172011 0.31428,-0.521754 0.1409,-0.8023 -0.0814,-0.131688 -0.273,-0.2931 -0.45169,-0.380429 -0.15609,-0.07621 -0.18692,-0.08289 -0.40033,-0.08289 -0.19815,0 -0.25069,0.0087 -0.36634,0.06299 -0.30586,0.14347 -0.43557,0.342405 -0.43597,0.664717 -4.76e-4,0.386682 0.18454,0.801888 0.53957,1.210078 0.42909,0.493332 1.64064,1.133071 2.73262,1.443806 0.80936,0.230308 1.3741,0.312224 2.16489,0.313293 0.71896,9.79e-4 1.04308,-0.04286 1.60128,-0.217146 0.22927,-0.0716 0.28179,-0.07557 0.15085,-0.01155 -0.30035,0.146714 -0.69425,0.273745 -1.11976,0.362197 -0.35774,0.07436 -0.74236,0.115896 -1.14458,0.124335 z m 2.58675,-0.66057 c -0.008,-0.0032 0.0245,-0.03231 0.0953,-0.0887 0.39667,-0.315391 0.76555,-0.83406 0.93822,-1.317827 0.1258,-0.352382 0.14926,-0.480059 0.15001,-0.827165 0.002,-0.471621 -0.0942,-0.774571 -0.37297,-1.180243 -0.1456,-0.21186 -0.2341,-0.38614 -0.27103,-0.53293 -0.0375,-0.14874 0.0187,-0.31231 0.13178,-0.38126 0.0951,-0.0579 0.17039,-0.0582 0.29672,-7.9e-4 0.29779,0.13527 0.58644,0.75264 0.64482,1.379988 0.10571,1.135872 -0.52613,2.378606 -1.46453,2.880156 -0.0911,0.04872 -0.14004,0.07196 -0.14835,0.0688 z m 0.4658,-0.883527 0.0133,-0.07292 c 0.0617,-0.340223 0.0699,-0.485388 0.0406,-0.687922 -0.0545,-0.37729 -0.23098,-0.68893 -0.52795,-0.931599 -0.19191,-0.156782 -0.25363,-0.244216 -0.25363,-0.358877 0,-0.09544 0.0924,-0.226632 0.19561,-0.278486 0.10801,-0.0543 0.13194,-0.05344 0.25941,0.0083 0.21844,0.105744 0.48803,0.502274 0.54288,0.798156 0.0363,0.195703 0.029,0.613166 -0.0142,0.821364 -0.0397,0.192016 -0.15294,0.523651 -0.21797,0.636536 z"
       sodipodi:nodetypes="ccscccsssccscssccccssssscccsssscsssccccscsscsssccccsccscccccccsssssscccscccsccscccsccscscssssscsccccccscccscccccccsccsccc" />
  </g>
</svg>
