<?xml version="1.0" encoding="UTF-8" standalone="no"?>
<svg
   xmlns:dc="http://purl.org/dc/elements/1.1/"
   xmlns:cc="http://creativecommons.org/ns#"
   xmlns:rdf="http://www.w3.org/1999/02/22-rdf-syntax-ns#"
   xmlns:svg="http://www.w3.org/2000/svg"
   xmlns="http://www.w3.org/2000/svg"
   xmlns:sodipodi="http://sodipodi.sourceforge.net/DTD/sodipodi-0.dtd"
   xmlns:inkscape="http://www.inkscape.org/namespaces/inkscape"
   width="512"
   height="512"
   viewBox="0 0 135.46667 135.46667"
   version="1.1"
   id="svg4950"
   inkscape:version="1.0.1 (3bc2e813f5, 2020-09-07)"
   sodipodi:docname="border_nouveau_party.svg">
  <defs
     id="defs4944" />
  <sodipodi:namedview
     id="base"
     pagecolor="#ffffff"
     bordercolor="#666666"
     borderopacity="1.0"
     inkscape:pageopacity="0.0"
     inkscape:pageshadow="2"
     inkscape:zoom="15.631378"
     inkscape:cx="471.48143"
     inkscape:cy="130.61866"
     inkscape:document-units="mm"
     inkscape:current-layer="layer1"
     inkscape:document-rotation="0"
     showgrid="false"
     inkscape:snap-global="false"
     units="px"
     inkscape:window-width="1102"
     inkscape:window-height="1041"
     inkscape:window-x="802"
     inkscape:window-y="0"
     inkscape:window-maximized="0" />
  <metadata
     id="metadata4947">
    <rdf:RDF>
      <cc:Work
         rdf:about="">
        <dc:format>image/svg+xml</dc:format>
        <dc:type
           rdf:resource="http://purl.org/dc/dcmitype/StillImage" />
        <dc:title />
      </cc:Work>
    </rdf:RDF>
  </metadata>
  <g
     inkscape:label="Layer 1"
     inkscape:groupmode="layer"
     id="layer1">
    <path
       style="color:#000000;font-style:normal;font-variant:normal;font-weight:normal;font-stretch:normal;font-size:medium;line-height:normal;font-family:sans-serif;font-variant-ligatures:normal;font-variant-position:normal;font-variant-caps:normal;font-variant-numeric:normal;font-variant-alternates:normal;font-variant-east-asian:normal;font-feature-settings:normal;font-variation-settings:normal;text-indent:0;text-align:start;text-decoration:none;text-decoration-line:none;text-decoration-style:solid;text-decoration-color:#000000;letter-spacing:normal;word-spacing:normal;text-transform:none;writing-mode:lr-tb;direction:ltr;text-orientation:mixed;dominant-baseline:auto;baseline-shift:baseline;text-anchor:start;white-space:normal;shape-padding:0;shape-margin:0;inline-size:0;clip-rule:nonzero;display:inline;overflow:visible;visibility:visible;isolation:auto;mix-blend-mode:normal;color-interpolation:sRGB;color-interpolation-filters:linearRGB;solid-color:#000000;solid-opacity:1;vector-effect:none;fill:#f9cc9d;fill-opacity:1;fill-rule:nonzero;stroke:none;stroke-width:0.753818;stroke-linecap:square;stroke-linejoin:miter;stroke-miterlimit:4;stroke-dasharray:none;stroke-dashoffset:0;stroke-opacity:1;paint-order:stroke markers fill;color-rendering:auto;image-rendering:auto;shape-rendering:auto;text-rendering:auto;enable-background:accumulate;stop-color:#000000;stop-opacity:1;opacity:1"
       d="M 10.382812 7.7324219 C 8.9228635 7.7324219 7.7324219 8.913068 7.7324219 10.367188 L 7.7324219 125.09961 C 7.7324219 126.55373 8.9228638 127.73242 10.382812 127.73242 L 125.08398 127.73242 C 126.54393 127.73242 127.73242 126.55373 127.73242 125.09961 L 127.73242 10.367188 C 127.73242 8.9130676 126.54393 7.7324219 125.08398 7.7324219 L 10.382812 7.7324219 z M 10.382812 8.4863281 L 125.08398 8.4863281 C 126.14212 8.4863281 126.98047 9.3204282 126.98047 10.367188 L 126.98047 125.09961 C 126.98047 126.14637 126.14212 126.98047 125.08398 126.98047 L 10.382812 126.98047 C 9.3246746 126.98047 8.4863281 126.14637 8.4863281 125.09961 L 8.4863281 10.367188 C 8.4863281 9.3204278 9.3246749 8.4863281 10.382812 8.4863281 z "
       id="path836" />
    <path
       style="fill:#f9cc9d;fill-opacity:1;stroke-width:0.0156082"
       d="m 8.0867669,113.08226 c 0,7.64165 0.003,13.89099 0.006,13.88741 0.004,-0.004 0.0275,-0.0873 0.0539,-0.186 0.0456,-0.1714 0.15618,-0.49283 0.27908,-0.8112 0.04,-0.10379 0.10648,-0.2224 0.22287,-0.39801 0.7125908,-1.07527 1.5579411,-2.50474 2.7074811,-4.5783 0.17282,-0.31174 0.37529,-0.80364 0.55379,-1.34542 0.0759,-0.23035 0.16686,-0.61953 0.21883,-0.9363 0.045,-0.27435 0.0473,-0.31 0.0463,-0.72577 -5.6e-4,-0.2405 -0.006,-0.42322 -0.0135,-0.40605 -0.007,0.0172 -0.0316,0.14963 -0.055,0.29435 -0.14501,0.89656 -0.43373,1.77613 -0.84865,2.58537 -0.62193,1.21299 -1.3355803,2.0516 -2.2184701,2.60694 l -0.173131,0.10889 h -0.25864 -0.25865 l 0.01,-0.0742 c 0.0205,-0.15313 0.0271,-2.84368 0.009,-3.70306 -0.0432,-2.06073 -0.039,-2.67904 0.0244,-3.55867 0.0508,-0.70666 0.15493,-1.37493 0.28775,-1.84791 0.0698,-0.24864 0.14878,-0.39084 0.350641,-0.63144 0.2737898,-0.32632 0.5797098,-0.56242 0.7899398,-0.60966 0.0604,-0.0136 0.2175403,-0.008 0.6541203,0.0211 0.0644,0.005 0.2505,0.0151 0.41361,0.0238 0.16311,0.009 0.33824,0.02 0.38918,0.0249 l 0.0926,0.009 -0.26175,-0.2537 c -0.57538,-0.55769 -1.04051,-1.20918 -1.5100403,-2.11506 -0.6971608,-1.34504 -1.1431008,-2.72989 -1.2302708,-3.82046 -0.0221,-0.27688 -0.0216,-3.90576 5.7e-4,-4.14563 0.0325,-0.35157 0.10472,-0.62062 0.22338,-0.83281 0.0607,-0.10863 0.20603,-0.25565 0.29907,-0.30266 0.205051,-0.10358 0.6323208,-0.15286 1.4664811,-0.16911 0.42571,-0.008 0.72804,-0.0337 0.7581,-0.0638 0.007,-0.007 0.0248,-0.0834 0.039,-0.16918 0.0411,-0.24945 0.018,-0.6699 -0.0644,-1.170474 -0.0464,-0.281371 -0.1046,-0.577812 -0.11604,-0.590376 -0.006,-0.0071 -0.0167,0.01399 -0.0226,0.04682 -0.0337,0.184472 -0.17184,0.697673 -0.20961,0.77841 -0.0547,0.11703 -0.12501,0.19844 -0.21869,0.25342 -0.0582,0.0342 -0.0914,0.0423 -0.17345,0.0423 -0.0936,0 -0.11601,-0.007 -0.28876,-0.0958 C 9.8652877,100.1237 9.5916577,99.967583 9.0934979,99.671812 8.6738969,99.422687 8.2126869,99.188143 8.1424069,99.188143 h -0.0556 z m 14.3985911,-0.60935 c -0.44988,0.26295 -1.14467,0.53218 -2.32753,0.90193 -1.161,0.36291 -1.82975,0.60957 -2.30812,0.85129 -0.54821,0.27703 -0.93967,0.56799 -1.22768,0.9125 -0.29444,0.35222 -0.44985,0.68856 -0.55952,1.21095 -0.21233,1.01145 -0.56843,1.96355 -1.08982,2.91382 -0.58376,1.06395 -1.34744,2.112 -2.2893,3.14177 -0.20658,0.22585 -0.25353,0.28697 -0.11424,0.14868 0.0562,-0.0558 2.14452,-2.16643 4.64072,-4.69028 2.49619,-2.52384 4.7324,-4.78373 4.96934,-5.02194 0.23694,-0.23822 0.42734,-0.43301 0.4231,-0.43286 -0.004,1.6e-4 -0.0569,0.029 -0.11695,0.0642 z m -0.31915,1.15729 c -0.4168,0.41441 -1.3443,1.33255 -2.06111,2.04032 -1.30478,1.28833 -3.28771,3.2473 -4.51847,4.4639 -0.36049,0.35634 -0.94697,0.93571 -1.30329,1.2875 -0.97473,0.96232 -1.44077,1.42919 -1.31899,1.32134 0.0601,-0.0533 0.21812,-0.19347 0.35118,-0.31166 1.18387,-1.05155 2.31727,-1.82122 3.30288,-2.2429 0.25893,-0.11079 0.2908,-0.12074 1.92587,-0.60115 0.73506,-0.21596 1.26365,-0.44205 1.58654,-0.67857 0.0674,-0.0493 0.20038,-0.16783 0.29547,-0.26323 0.54354,-0.54522 0.99363,-1.41226 1.32565,-2.55371 0.49912,-1.71594 0.86552,-2.70803 1.17447,-3.18018 0.0126,-0.0194 0.0173,-0.0351 0.0104,-0.0351 -0.007,0 -0.35369,0.33905 -0.77049,0.75345 z m -10.90317,-0.0879 c -0.24118,0.0275 -0.34678,0.0435 -0.46044,0.0696 -0.49026,0.11289 -0.9292203,0.33097 -1.3140403,0.65281 -0.3906798,0.32675 -0.6385908,0.73608 -0.7467008,1.23288 -0.0992,0.45578 -0.0722,0.83926 0.10166,1.44503 0.172581,0.60132 0.4673008,1.20946 0.7229508,1.49183 0.0751,0.083 0.24538,0.21433 0.2595,0.20021 0.004,-0.004 -0.004,-0.0558 -0.0162,-0.11575 -0.10264,-0.48964 -0.11454,-1.19732 -0.0275,-1.63869 0.17966,-0.91169 0.7719803,-1.38808 1.6940703,-1.3625 0.25927,0.007 0.356,0.0334 0.53618,0.14505 0.36438,0.22589 0.71431,0.79376 0.82716,1.34231 0.0356,0.17304 0.0464,0.49347 0.0247,0.72578 -0.0583,0.6206 -0.23564,1.29919 -0.59943,2.29441 -0.14573,0.39872 -0.49296,1.21066 -0.78429,1.83397 -0.18493,0.39568 -0.78863,1.59965 -0.92741,1.84958 -0.6476703,1.16632 -1.1006003,1.86941 -1.6112911,2.50121 -0.0677,0.0837 -0.1201,0.15218 -0.11655,0.15218 0.0218,0 0.8820108,-0.9756 1.2592011,-1.42815 1.82168,-2.18556 2.99168,-4.09337 3.55286,-5.79328 0.16997,-0.51488 0.25841,-0.88524 0.33666,-1.40992 0.0328,-0.22035 0.0361,-0.29481 0.0359,-0.83504 -2.1e-4,-0.63326 -0.0105,-0.76669 -0.0939,-1.21813 -0.15205,-0.82331 -0.50028,-1.43213 -1.01516,-1.7749 -0.29796,-0.19836 -0.61838,-0.30878 -1.0291,-0.3546 -0.13042,-0.0146 -0.50133,-0.0182 -0.60872,-0.006 z m 7.07834,7.89796 c -0.90842,0.0616 -1.49652,0.18185 -2.39587,0.48988 -1.81198,0.6206 -3.9128,1.91436 -5.80583,3.57547 -0.3735303,0.32777 -1.1632411,1.06928 -1.1632411,1.09225 0,0.006 0.114141,-0.0658 0.2536308,-0.161 2.4995203,-1.70526 4.4466803,-2.79324 5.8647903,-3.27694 0.3801,-0.12965 0.87553,-0.23135 1.12824,-0.23159 0.13406,-1.2e-4 0.2994,-0.0381 0.53649,-0.12317 0.21546,-0.0773 0.36485,-0.10633 0.60627,-0.11774 0.10301,-0.004 0.26455,-0.0194 0.35899,-0.0321 0.64875,-0.0878 0.86456,-0.0919 1.03227,-0.0192 0.24776,0.10734 0.46903,0.27101 0.7638,0.56496 0.2253,0.22466 0.33687,0.37172 0.39731,0.5237 0.0308,0.0773 0.0333,0.10581 0.0265,0.29624 -0.0113,0.31359 -0.075,0.50787 -0.24977,0.76152 -0.31988,0.46424 -1.05155,0.82115 -1.86365,0.90908 -0.25394,0.0275 -0.81523,0.0116 -0.98437,-0.0279 -0.0708,-0.0166 -0.12875,-0.0284 -0.12875,-0.0266 0,0.004 0.38761,0.25004 0.65553,0.41662 0.87423,0.54353 1.45982,0.73312 2.19296,0.71002 0.3808,-0.012 0.62704,-0.0879 0.91907,-0.28327 0.25724,-0.17209 0.47035,-0.4047 0.71608,-0.7816 0.38155,-0.58526 0.55291,-1.07014 0.6062,-1.71533 0.045,-0.54457 -0.0684,-1.0352 -0.32812,-1.42011 -0.32192,-0.47708 -0.93794,-0.84408 -1.70251,-1.01431 -0.39641,-0.0883 -1.03079,-0.13636 -1.43596,-0.10888 z m -1.61546,1.91984 c -0.90536,0.10776 -1.78135,0.38272 -2.8407,0.89164 -0.89447,0.42973 -1.87453,1.01202 -3.83392,2.27789 -0.1599803,0.10334 -0.3285403,0.20033 -0.3746003,0.21552 -0.18497,0.061 -1.2829208,0.50734 -1.3076808,0.53161 -0.004,0.004 6.2246911,0.006 13.8405911,0.006 h 13.8471 v -0.25553 -0.25554 l -0.0756,-0.11516 c -0.0416,-0.0634 -0.1557,-0.21427 -0.25363,-0.33542 -0.0979,-0.12112 -0.24592,-0.30415 -0.32886,-0.40671 -0.29839,-0.36895 -0.46498,-0.65103 -0.47812,-0.80961 -0.029,-0.34953 0.31744,-0.54987 1.05393,-0.60948 l 0.12845,-0.0103 -0.0816,-0.0494 c -0.0449,-0.0272 -0.11674,-0.0764 -0.15967,-0.10942 -0.15891,-0.12217 -0.12728,-0.11811 -0.92218,-0.11811 h -0.70888 l -10e-6,0.0585 c 0,0.39995 -0.14285,1.855 -0.19599,1.9971 -0.0352,0.0942 -0.18387,0.22551 -0.34796,0.30743 -0.24761,0.1236 -0.53393,0.20072 -1.01668,0.27386 -0.65214,0.0988 -0.98107,0.12027 -2.18533,0.14265 -1.18669,0.0221 -2.15,0.0125 -2.35685,-0.0233 -0.33388,-0.0579 -0.83343,-0.20641 -1.39693,-0.41536 -1.13983,-0.42264 -2.07858,-0.83598 -2.59097,-1.14083 -0.48625,-0.28929 -1.0315,-0.79847 -1.48157,-1.38357 -0.0678,-0.0881 -0.12481,-0.15831 -0.12681,-0.15608 -0.002,0.003 0.004,0.1375 0.0117,0.3006 0.0352,0.68088 -0.0335,1.42904 -0.15283,1.66532 -0.13315,0.26364 -0.39361,0.49202 -0.80972,0.71 -0.5373,0.28146 -0.94734,0.41359 -1.37403,0.44279 -0.15286,0.0104 -1.53154,0.0145 -3.97229,0.0115 l -3.73817,-0.004 -0.0773,-0.0356 c -0.0425,-0.0196 -0.11524,-0.0643 -0.16158,-0.0993 l -0.0842,-0.0636 0.006,-0.24412 c 0.006,-0.21902 0.011,-0.25522 0.0487,-0.35203 0.22925,-0.58791 1.26223,-1.37095 2.85884,-2.16713 0.61579,-0.30708 1.45403,-0.63618 1.56464,-0.61429 0.0254,0.005 0.0877,-0.007 0.15226,-0.029 l 0.10926,-0.0375 -0.0703,9e-4 c -0.0386,5.8e-4 -0.0913,0.004 -0.11706,0.007 z"
       id="path1893" />
    <path
       style="fill:#f9cc9d;fill-opacity:1;stroke-width:0.0214307"
       d="m 127.53912,32.958703 -0.63445,-4.112162 c -0.0697,0.970271 -0.51607,1.795017 -0.69843,2.444436 -0.0958,0.34139 -0.20429,0.536636 -0.48144,0.866989 -0.37593,0.44805 -0.79596,0.60296 -1.08462,0.667822 -0.0829,0.01867 -0.29868,0.01089 -0.89812,-0.02896 -0.0885,-0.0069 -0.34395,-0.02074 -0.5679,-0.03268 -0.22397,-0.01239 -0.46442,0.141794 -0.53436,0.135064 l -0.12708,0.190727 0.3594,0.34834 c 0.79003,0.765717 1.42866,1.660249 2.07333,2.904055 0.95724,1.846789 1.7846,4.070841 1.90429,5.568234 z M 107.57577,7.9974133 96.213948,8.4026789 c 1.629366,-0.030344 3.005792,0.359208 3.289806,0.4083626 0.458426,0.079499 1.144346,0.2834084 1.918046,0.5703045 1.06307,0.4622856 3.37505,4.222558 4.3785,3.670916 -0.0484,-0.934872 0.261,-1.290033 0.4249,-1.614454 0.18283,-0.361988 1.69645,-1.7509068 2.26778,-2.050201 0.73773,-0.3864549 2.95511,-0.8560367 3.54098,-0.8961293 z"
       id="path2619"
       sodipodi:nodetypes="ccsscccccsscccccccsscc" />
  </g>
</svg>
