<?xml version="1.0" encoding="UTF-8" standalone="no"?>
<svg
   xmlns:dc="http://purl.org/dc/elements/1.1/"
   xmlns:cc="http://creativecommons.org/ns#"
   xmlns:rdf="http://www.w3.org/1999/02/22-rdf-syntax-ns#"
   xmlns:svg="http://www.w3.org/2000/svg"
   xmlns="http://www.w3.org/2000/svg"
   xmlns:sodipodi="http://sodipodi.sourceforge.net/DTD/sodipodi-0.dtd"
   xmlns:inkscape="http://www.inkscape.org/namespaces/inkscape"
   width="100%"
   height="100%"
   viewBox="0 0 100 100"
   version="1.1"
   xml:space="preserve"
   style="fill-rule:evenodd;clip-rule:evenodd;stroke-linejoin:round;stroke-miterlimit:2;"
   id="svg16"
   sodipodi:docname="list_x.svg"
   inkscape:version="1.0.1 (3bc2e813f5, 2020-09-07)"><metadata
   id="metadata22"><rdf:RDF><cc:Work
       rdf:about=""><dc:format>image/svg+xml</dc:format><dc:type
         rdf:resource="http://purl.org/dc/dcmitype/StillImage" /><dc:title></dc:title></cc:Work></rdf:RDF></metadata><defs
   id="defs20" /><sodipodi:namedview
   pagecolor="#ffffff"
   bordercolor="#666666"
   borderopacity="1"
   objecttolerance="10"
   gridtolerance="10"
   guidetolerance="10"
   inkscape:pageopacity="0"
   inkscape:pageshadow="2"
   inkscape:window-width="1735"
   inkscape:window-height="844"
   id="namedview18"
   showgrid="false"
   inkscape:zoom="1.5568478"
   inkscape:cx="-49.953082"
   inkscape:cy="72.787735"
   inkscape:window-x="0"
   inkscape:window-y="0"
   inkscape:window-maximized="0"
   inkscape:current-layer="svg16"
   inkscape:document-rotation="0" />
    
<path
   id="path8630"
   style="color:#000000;font-style:normal;font-variant:normal;font-weight:normal;font-stretch:normal;font-size:medium;line-height:normal;font-family:sans-serif;font-variant-ligatures:normal;font-variant-position:normal;font-variant-caps:normal;font-variant-numeric:normal;font-variant-alternates:normal;font-variant-east-asian:normal;font-feature-settings:normal;font-variation-settings:normal;text-indent:0;text-align:start;text-decoration:none;text-decoration-line:none;text-decoration-style:solid;text-decoration-color:#000000;letter-spacing:normal;word-spacing:normal;text-transform:none;writing-mode:lr-tb;direction:ltr;text-orientation:mixed;dominant-baseline:auto;baseline-shift:baseline;text-anchor:start;white-space:normal;shape-padding:0;shape-margin:0;inline-size:0;clip-rule:nonzero;display:inline;overflow:visible;visibility:visible;isolation:auto;mix-blend-mode:normal;color-interpolation:sRGB;color-interpolation-filters:linearRGB;solid-color:#000000;solid-opacity:1;vector-effect:none;fill:#922610;fill-opacity:1;fill-rule:nonzero;stroke:none;stroke-width:8.05832;stroke-linecap:round;stroke-linejoin:round;stroke-miterlimit:4;stroke-dasharray:none;stroke-dashoffset:0;stroke-opacity:1;paint-order:fill markers stroke;color-rendering:auto;image-rendering:optimizeQuality;shape-rendering:geometricPrecision;text-rendering:geometricPrecision;enable-background:accumulate;stop-color:#000000"
   d="m 25.091442,14.312918 a 4.0295619,4.0295619 0 0 0 -3.536557,2.015785 l -3.424286,5.924881 a 4.0295619,4.0295619 0 0 0 -0.428672,2.964993 c 0.741592,3.05961 3.032473,3.968593 3.61821,4.34287 a 4.0295619,4.0295619 0 0 0 0.193922,0.117375 c 2.36986,1.329383 4.730842,2.356705 6.935326,3.347737 a 4.0295619,4.0295619 0 0 0 0.07655,0.03062 c 2.347496,0.998902 4.611133,2.151735 6.78733,3.465111 a 4.0295619,4.0295619 0 0 0 0.02041,0.01531 c 2.0041,1.191917 3.828224,2.922673 5.674821,4.96547 1.956732,2.271721 3.798955,4.772974 5.685027,7.353792 -0.448784,0.723229 -0.918467,1.4479 -1.362569,2.168884 -1.419657,2.243868 -2.816945,4.404573 -4.312252,6.384175 -1.422963,1.866246 -2.836984,3.62984 -4.337768,5.200218 a 4.0295619,4.0295619 0 0 0 -0.01021,0.0051 c -1.371144,1.443551 -2.713306,2.785057 -4.103019,3.929506 a 4.0295619,4.0295619 0 0 0 -0.02552,0.02041 c -1.224369,1.024954 -2.412147,1.986735 -3.602899,2.837409 -0.397148,0.260372 -0.793279,0.505506 -1.189058,0.729766 a 4.0295619,4.0295619 0 0 0 -1.505461,1.490152 l -3.424286,5.929984 a 4.0295619,4.0295619 0 0 0 -0.535841,2.015785 4.0295619,4.0295619 0 0 0 6.052461,3.480423 c 0.620554,-0.3609 1.193767,-0.73189 1.730006,-1.092098 a 4.0295619,4.0295619 0 0 0 0.137787,-0.09696 c 1.453645,-1.067286 2.813974,-2.173148 4.123431,-3.271187 1.792735,-1.478347 3.362185,-3.061447 4.82768,-4.608241 1.836715,-1.925921 3.435581,-3.939614 4.939952,-5.914675 a 4.0295619,4.0295619 0 0 0 0.01021,-0.01531 c 1.746804,-2.314796 3.270677,-4.6811 4.725613,-6.981254 a 4.0295619,4.0295619 0 0 0 0.02552,-0.04083 c 1.000589,-1.62444 2.007659,-3.2142 3.016025,-4.807268 0.573425,0.833249 1.172492,1.640732 1.740208,2.480184 a 4.0295619,4.0295619 0 0 0 0.0051,0.0051 c 2.342801,3.458786 4.65122,6.977075 7.006769,10.502502 a 4.0295619,4.0295619 0 0 0 0.0051,0.01021 c 2.407057,3.579273 4.958384,7.020072 7.58344,10.37492 a 4.0295619,4.0295619 0 0 0 0.01021,0.01531 c 1.246437,1.578924 2.509181,3.107439 3.750894,4.613344 a 4.0295619,4.0295619 0 0 0 6.598512,-0.55115 l 3.296704,-5.705442 A 4.0295619,4.0295619 0 0 0 81.482426,73.37801 c -1.241958,-1.496949 -2.466029,-2.972409 -3.638621,-4.45004 l -0.01021,-0.01531 c -2.53833,-3.23081 -4.974759,-6.502517 -7.231314,-9.864593 l -0.0051,-0.0051 C 68.267727,55.554304 65.95426,52.024513 63.580204,48.499632 h 0.0051 c -0.812558,-1.208114 -1.676761,-2.392142 -2.505701,-3.592692 1.227724,-1.18949 2.479692,-2.353796 3.776411,-3.475317 1.2513,-1.049205 2.591897,-2.082474 3.975436,-3.153812 a 4.0295619,4.0295619 0 0 0 1.020651,-1.17375 l 3.30691,-5.725853 a 4.0295619,4.0295619 0 0 0 -3.51104,-6.042256 4.0295619,4.0295619 0 0 0 -2.44446,0.842036 c -1.385972,1.073065 -2.821808,2.17742 -4.256115,3.378356 a 4.0295619,4.0295619 0 0 0 -0.04593,0.04083 c -2.546477,2.19687 -4.984724,4.524995 -7.292555,6.986358 a 4.0295619,4.0295619 0 0 0 -0.0051,0.01021 c -0.07492,0.08043 -0.149469,0.174184 -0.224542,0.255162 -1.560104,-2.131136 -3.167276,-4.28712 -4.975675,-6.394382 a 4.0295619,4.0295619 0 0 0 -0.05614,-0.06634 C 48.270434,28.071998 45.889859,25.684085 42.79464,23.840697 40.317216,22.342536 37.746941,21.031 35.093825,19.900984 l -0.08165,-0.03572 C 32.838158,18.883429 30.815665,17.96508 29.046467,16.91558 28.805273,16.731163 28.671541,16.599015 28.684135,16.614486 a 4.0295619,4.0295619 0 0 0 -3.592693,-2.301568 z" /></svg>
