<?xml version="1.0" encoding="UTF-8" standalone="no"?>
<svg
   xmlns:dc="http://purl.org/dc/elements/1.1/"
   xmlns:cc="http://creativecommons.org/ns#"
   xmlns:rdf="http://www.w3.org/1999/02/22-rdf-syntax-ns#"
   xmlns:svg="http://www.w3.org/2000/svg"
   xmlns="http://www.w3.org/2000/svg"
   xmlns:sodipodi="http://sodipodi.sourceforge.net/DTD/sodipodi-0.dtd"
   xmlns:inkscape="http://www.inkscape.org/namespaces/inkscape"
   width="600"
   height="65"
   viewBox="0 0 158.75 17.197917"
   version="1.1"
   id="svg1454"
   inkscape:version="1.0.1 (3bc2e813f5, 2020-09-07)"
   sodipodi:docname="divider_nouveau.svg">
  <defs
     id="defs1448" />
  <sodipodi:namedview
     id="base"
     pagecolor="#ffffff"
     bordercolor="#666666"
     borderopacity="1.0"
     inkscape:pageopacity="0.0"
     inkscape:pageshadow="2"
     inkscape:zoom="1.2157476"
     inkscape:cx="305.40336"
     inkscape:cy="229.98271"
     inkscape:document-units="mm"
     inkscape:current-layer="layer1"
     inkscape:document-rotation="0"
     showgrid="false"
     units="px"
     inkscape:window-width="1920"
     inkscape:window-height="1057"
     inkscape:window-x="-8"
     inkscape:window-y="-8"
     inkscape:window-maximized="1" />
  <metadata
     id="metadata1451">
    <rdf:RDF>
      <cc:Work
         rdf:about="">
        <dc:format>image/svg+xml</dc:format>
        <dc:type
           rdf:resource="http://purl.org/dc/dcmitype/StillImage" />
        <dc:title></dc:title>
      </cc:Work>
    </rdf:RDF>
  </metadata>
  <g
     inkscape:label="Layer 1"
     inkscape:groupmode="layer"
     id="layer1">
    <path
       id="path2602"
       style="fill:#511d20;fill-opacity:1;stroke-width:0.0428678"
       d="m 42.426979,0.57431066 c -0.509152,0.0037 -1.0244,0.037317 -1.293829,0.1007803 -0.814469,0.1917839 -1.388795,0.49313484 -1.924656,1.00760254 -0.546806,0.524944 -0.830257,1.0193808 -1.057277,1.8501912 -0.08351,0.306041 -0.09444,0.4532931 -0.09497,1.2266553 -3.53e-4,0.757884 0.01233,0.936489 0.09497,1.295283 0.222809,0.967694 0.660886,2.000719 1.176998,2.777478 0.348078,0.523858 0.973675,1.15259 1.480748,1.489505 1.034214,0.687199 2.275361,1.072895 3.719374,1.155091 0.405465,0.02304 0.481878,0.03656 0.36362,0.06426 -0.23766,0.05578 -2.261125,0.05272 -3.085603,-0.0041 C 39.8864,11.404042 38.270442,11.1409 36.42514,10.659309 34.229961,10.086405 32.315769,9.369111 27.723251,7.398477 22.971194,5.3593768 20.488167,4.5025836 17.606318,3.905439 l -0.771033,-0.1606143 0.179608,-0.092024 c 0.223433,-0.1146817 0.830941,-0.2923881 1.207667,-0.3533954 0.421096,-0.068238 1.381174,-0.087513 1.870637,-0.037986 1.511666,0.1531086 3.35072,0.7468281 5.750647,1.8560426 0.326958,0.1511353 0.699772,0.3229448 0.829447,0.3825908 0.360286,0.165723 0.831018,0.384524 1.344933,0.626469 0.2561,0.120584 0.470452,0.219065 0.477517,0.219065 0.0072,0 0.20312,0.08989 0.435165,0.198603 0.232049,0.108709 0.700788,0.322511 1.042654,0.474592 0.341869,0.152087 0.679864,0.302368 0.750593,0.334413 0.226874,0.102807 1.53425,0.649411 1.822442,0.762273 1.313386,0.514383 2.167288,0.822447 3.065167,1.103984 0.306501,0.09611 0.602497,0.194146 0.658596,0.217599 0.05603,0.02333 0.112937,0.03171 0.125623,0.01885 0.03048,-0.03039 0.02784,-0.03212 -0.270171,-0.148951 -0.601579,-0.235948 -1.78335,-0.74831 -2.872396,-1.245698 C 32.542227,7.736429 29.802848,6.350069 28.34536,5.577284 27.473559,5.1150462 25.164528,3.9676003 24.722365,3.7767414 24.486578,3.6749392 24.216476,3.558034 24.122179,3.5168127 23.401551,3.2017209 22.290134,2.8239093 21.537458,2.6377159 20.679506,2.425501 20.33256,2.384907 19.32219,2.3836208 18.456221,2.3824897 18.278999,2.3952493 17.866272,2.4814235 17.051586,2.6518868 16.348301,2.9571171 15.817476,3.372207 L 15.572145,3.56351 15.2392,3.5197093 C 14.262353,3.3908267 12.687322,3.3518008 11.754936,3.4320903 8.774858,3.6886978 6.8998786,4.8990168 6.1868259,7.027339 c -0.7491679,2.236113 -0.09405,4.613865 1.5785796,5.725826 0.8587084,0.570838 2.0782615,0.799689 3.0038305,0.563669 1.28854,-0.328579 2.24763,-1.208832 2.472284,-2.269293 0.07652,-0.361197 0.05217,-0.721677 -0.0774,-1.165324 C 13.009003,9.351136 12.792375,9.073911 12.358043,8.849789 12.15555,8.745186 12.076188,8.729628 11.757856,8.730069 c -0.254518,1.92e-4 -0.419877,0.02275 -0.538848,0.07446 -1.3241457,0.578034 -1.191038,2.39607 0.201505,2.758497 0.250716,0.06538 0.319255,0.06729 0.556374,0.01885 0.148986,-0.03034 0.333706,-0.09116 0.410344,-0.135825 0.169353,-0.09865 0.173599,-0.07965 0.02482,0.115351 -0.281348,0.368856 -0.955451,0.756061 -1.543532,0.887863 C 9.8073863,12.687055 8.6446085,12.299715 8.00342,11.494223 7.4390801,10.785253 7.1786721,9.811646 7.2937132,8.840865 7.3535122,8.336282 7.5619898,7.641532 7.7726894,7.246224 8.4730828,5.932153 9.9624541,5.1272684 12.058666,4.9301971 c 0.563693,-0.052857 2.537642,-0.044171 2.593487,0.011628 0.01764,0.017637 -0.0086,0.1821798 -0.05842,0.3650732 -0.345835,1.2734817 -0.183677,2.6278957 0.43809,3.6697247 1.091403,1.828744 3.759218,2.329842 5.137318,0.965257 0.366358,-0.362749 0.50708,-0.656119 0.535933,-1.115667 0.03927,-0.625449 -0.244253,-1.161956 -0.762273,-1.447147 -0.264566,-0.145779 -0.29825,-0.154818 -0.684883,-0.154818 -0.462113,0 -0.72392,0.08912 -0.979853,0.334411 -0.410666,0.393574 -0.448821,1.045986 -0.08327,1.420866 L 18.365646,9.153335 18.22547,8.950364 C 18.122134,8.800268 18.080413,8.687084 18.0663,8.51665 18.01617,7.912234 18.382312,7.510653 19.021335,7.469618 c 0.546069,-0.03503 0.942821,0.171045 1.168243,0.606029 0.09567,0.184452 0.114488,0.277098 0.115351,0.563668 9.32e-4,0.300199 -0.01498,0.371353 -0.125588,0.572443 -0.204226,0.371524 -0.562509,0.636372 -1.122964,0.826524 -0.229444,0.07784 -0.387502,0.09808 -0.741833,0.09928 -0.525881,0.0017 -0.883965,-0.09063 -1.436923,-0.373839 -0.457087,-0.234082 -1.049118,-0.816821 -1.273385,-1.25293 -0.455837,-0.886464 -0.529188,-1.958249 -0.204408,-2.98485 0.06977,-0.2205911 0.141974,-0.4242044 0.160615,-0.4526942 0.02632,-0.040171 0.12934,-0.038533 0.461454,0.010043 0.87366,0.1282659 1.365029,0.2187673 2.532155,0.4672932 1.782859,0.379655 4.559796,1.226372 6.790375,2.070701 0.247573,0.09368 0.711215,0.268872 1.029508,0.388447 0.318297,0.119562 0.935032,0.353887 1.371219,0.521321 2.181663,0.837481 3.497162,1.318968 4.868638,1.780102 2.591764,0.871448 5.320867,1.446037 7.584778,1.597566 0.610373,0.04086 3.418233,0.04084 4.02896,0 1.776218,-0.118805 3.840612,-0.520679 5.702458,-1.10983 1.21789,-0.385395 3.332022,-1.117381 3.836186,-1.32887 0.165618,-0.06951 2.158465,-0.800627 2.615392,-0.959407 1.725797,-0.599749 2.074787,-0.71615 2.914758,-0.9711 1.777186,-0.539391 3.356281,-0.899211 4.891983,-1.115672 0.623149,-0.08779 0.863646,-0.09919 2.137902,-0.0978 1.521343,0.0017 1.880787,0.03686 2.82858,0.277456 1.247898,0.31682 2.405089,0.886708 3.301735,1.625304 1.571592,1.29461 2.615248,3.059031 2.61393,4.418861 -4.25e-4,0.431165 -0.04881,0.672578 -0.224871,1.118582 -0.156985,0.397922 -0.178832,0.593344 -0.09779,0.871803 0.09638,0.331557 0.194159,0.482813 0.698008,1.07185 0.243316,0.28443 0.485046,0.607441 0.537393,0.718472 0.118928,0.251942 0.179204,0.262172 0.140247,0.02333 -0.01586,-0.100217 -0.06448,-0.442516 -0.108004,-0.760818 -0.316454,-2.309436 -0.386984,-2.848218 -0.386984,-2.974616 0,-0.07888 -0.02821,-0.307248 -0.0629,-0.506728 -0.05162,-0.296483 -0.126856,-0.490547 -0.411807,-1.066013 C 74.083145,8.981721 72.924488,7.567769 71.422687,6.588857 69.644989,5.430098 67.082508,4.8893764 64.370916,5.1022767 62.848412,5.2218212 61.409683,5.520119 59.188324,6.174138 58.348321,6.421442 57.021104,6.887026 53.658193,8.117794 50.677387,9.208704 49.86128,9.485128 48.643529,9.811733 44.72215,10.863473 41.917638,10.602801 40.087666,9.017332 39.027462,8.098816 38.481909,6.729226 38.633185,5.3636677 38.675115,4.9842809 38.80867,4.4077486 38.891655,4.24801 c 0.0192,-0.037088 0.09779,-0.1928322 0.173723,-0.3460906 0.202089,-0.4079983 0.358105,-0.6262564 0.699507,-0.9784044 0.359849,-0.3711728 0.661662,-0.5871316 1.222279,-0.8717921 0.771412,-0.3917042 1.421445,-0.5320444 2.276578,-0.4935822 0.772117,0.034727 1.333474,0.2134429 1.942191,0.6177024 0.650243,0.4318279 1.018551,1.1700085 1.022214,2.0546378 0.0035,0.7255568 -0.192681,1.2329081 -0.648358,1.6866461 -0.325369,0.32398 -0.613141,0.477978 -1.12298,0.59726 -0.620432,0.145181 -1.242611,0.066 -1.68518,-0.214637 C 42.659221,6.22843 42.57539,6.1616 42.584693,6.152244 c 0.0088,-0.009 0.101308,0.0028 0.20443,0.02632 0.576333,0.129464 1.139364,-0.275456 1.191604,-0.8571988 0.02785,-0.3069373 -0.03734,-0.5408322 -0.205885,-0.7447468 -0.381097,-0.4613731 -1.113536,-0.4834602 -1.498281,-0.045245 -0.200204,0.2279802 -0.256371,0.4090501 -0.255508,0.8221438 0.0013,0.6701472 0.190884,1.1897422 0.575346,1.5742062 0.684054,0.684063 2.05819,0.866762 2.91035,0.386979 0.308576,-0.17374 0.697743,-0.556501 0.876207,-0.863041 0.329297,-0.565784 0.453036,-1.3297998 0.338776,-2.0911407 C 46.564747,3.3146393 46.075663,2.325898 45.369497,1.6283043 44.847431,1.1125556 44.325892,0.81119766 43.685779,0.65574406 43.439977,0.59605106 42.936163,0.57023926 42.426992,0.57397456 Z M 35.442373,2.5530146 c -0.225645,0 -0.291065,0.052434 -0.441002,0.35777 -0.10818,0.2200535 -0.119632,0.2937641 -0.132847,0.8031647 -0.01057,0.3959575 0.0053,0.6709645 0.0555,0.9389679 0.298535,1.5932988 1.422448,3.2170298 3.014055,4.3560648 0.158922,0.113765 0.302889,0.206471 0.321263,0.207369 0.01832,8.87e-4 -0.134608,-0.187624 -0.341719,-0.419108 -0.855081,-0.955838 -1.467305,-2.132 -1.743606,-3.351387 -0.07048,-0.3105903 -0.13038,-0.8648029 -0.19712,-1.8136868 -0.06131,-0.871681 -0.164209,-1.0791599 -0.534469,-1.0791599 z M 64.081714,3.2904675 C 63.347374,3.3174065 62.588933,3.4014492 61.845997,3.5430984 59.164902,4.0541446 57.205006,4.6697697 51.901371,6.665213 47.989192,8.137128 46.611004,8.554424 45.000033,8.75051 44.374647,8.82654 43.3241,8.81614 42.838787,8.73018 41.328421,8.462266 40.3619,7.683828 39.963446,6.411221 39.778782,5.821406 39.806461,4.8959443 40.024936,4.3142391 40.078676,4.17105 40.136288,4.0153039 40.153555,3.9681538 c 0.01762,-0.047131 -0.02572,4.845e-4 -0.09497,0.106577 -0.385801,0.5926271 -0.543422,1.6025222 -0.375283,2.4007282 0.380886,1.808386 1.77939,2.889737 3.98662,3.084143 h 0.0013 c 0.88144,0.07728 2.154374,-0.02065 3.310493,-0.255533 1.644446,-0.334317 3.41219,-0.894235 7.234304,-2.292656 4.509301,-1.6498565 6.565078,-2.2746963 8.95891,-2.7205313 0.895872,-0.1668337 2.412068,-0.2179586 3.386434,-0.1139241 1.032664,0.1102594 2.040025,0.3438812 2.942503,0.6819535 1.405038,0.5263389 2.603394,1.2129799 3.323637,1.9042319 0.367638,0.35283 0.74329,0.644598 0.74329,0.578271 0,-0.06991 -0.245148,-0.375137 -0.589969,-0.741824 L 71.314633,5.2517374 C 70.878173,4.9655442 70.149721,4.562259 69.64846,4.3448941 68.517802,3.8546471 67.477386,3.567069 66.175855,3.3854829 65.526455,3.2948687 64.816114,3.2636655 64.081792,3.2905697 Z m 2.263454,3.6580375 c -1.181156,-0.02482 -2.447693,0.110435 -3.726689,0.404501 -0.475234,0.109272 -1.581138,0.455946 -1.844333,0.578283 -0.04722,0.02213 -0.210404,0.09208 -0.36362,0.154818 -1.03587,0.424072 -2.284754,1.229714 -2.901611,1.872093 -0.324591,0.33803 -0.648075,0.828929 -0.822133,1.247092 -0.738922,1.774925 -0.05973,3.389551 1.60193,3.805541 v -0.0014 c 1.453987,0.364011 2.932518,-0.670918 2.935192,-2.054632 9.34e-4,-0.57427 -0.246522,-1.024154 -0.703857,-1.276299 -0.280301,-0.154447 -0.41466,-0.151364 -0.185473,0.0042 0.445987,0.303067 0.553728,0.919277 0.248248,1.413567 -0.143419,0.232022 -0.480998,0.516413 -0.795829,0.670278 -0.275015,0.134274 -0.329333,0.146043 -0.705339,0.146043 -0.349117,0 -0.441689,-0.01533 -0.64545,-0.110982 -0.538895,-0.252779 -0.76743,-0.603281 -0.768133,-1.171161 -9.32e-4,-0.681292 0.325138,-1.412841 0.950665,-2.132029 0.756008,-0.869199 2.890632,-1.996351 4.814585,-2.543833 1.426007,-0.405778 2.421019,-0.550106 3.814307,-0.551989 1.266731,-0.0017 1.837796,0.07552 2.821284,0.382588 0.403949,0.126152 0.496482,0.133147 0.265782,0.02035 C 69.805509,7.54704 69.111502,7.323224 68.361797,7.167381 67.731495,7.036367 67.053837,6.963185 66.345168,6.948316 Z m 4.557578,1.163854 c -0.01409,0.0056 0.04317,0.05693 0.167908,0.15628 0.698893,0.555686 1.348818,1.469525 1.653045,2.321872 0.221644,0.620859 0.26298,0.845813 0.264303,1.457377 0.0037,0.830946 -0.16597,1.364712 -0.657139,2.079465 -0.256526,0.373264 -0.412456,0.680343 -0.477523,0.938966 -0.06607,0.262053 0.03297,0.550252 0.232185,0.671736 0.167556,0.102102 0.300207,0.102577 0.522787,0.0014 0.524673,-0.238331 1.033243,-1.326077 1.136103,-2.431398 C 73.930668,11.306771 72.817431,9.117205 71.16407,8.233527 71.003561,8.147687 70.917336,8.106741 70.902693,8.112309 Z m 0.820688,1.556681 0.02345,0.128477 c 0.108709,0.599437 0.123156,0.855203 0.07153,1.212046 -0.09602,0.664745 -0.406959,1.213822 -0.93019,1.641379 -0.338127,0.276233 -0.446869,0.430282 -0.446869,0.632303 0,0.168155 0.162799,0.399302 0.344642,0.490661 0.190304,0.09567 0.232464,0.09416 0.457055,-0.01462 0.384868,-0.186308 0.859855,-0.884951 0.956497,-1.406264 0.06396,-0.344808 0.0511,-1.080334 -0.02504,-1.447156 -0.06995,-0.338312 -0.269464,-0.922618 -0.384038,-1.121509 z" />
    <path
       id="path1436"
       style="fill:#511d20;fill-opacity:1;stroke-width:0.0428678"
       d="m 116.32301,0.57435796 c 0.50915,0.0037 1.0244,0.037317 1.29383,0.1007803 0.81447,0.1917839 1.38879,0.49313484 1.92466,1.00760244 0.5468,0.524944 0.83025,1.0193808 1.05727,1.8501912 0.0835,0.306041 0.0944,0.4532931 0.095,1.2266553 3.5e-4,0.757884 -0.0123,0.936489 -0.095,1.295283 -0.22281,0.967694 -0.66088,2.000719 -1.177,2.777478 -0.34808,0.523858 -0.97367,1.15259 -1.48074,1.4895048 -1.03422,0.687199 -2.27536,1.072895 -3.71938,1.155091 -0.40546,0.02304 -0.48188,0.03656 -0.36362,0.06426 0.23766,0.05578 2.26113,0.05272 3.08561,-0.0041 1.91995,-0.133059 3.53591,-0.396201 5.38121,-0.877792 2.19518,-0.572904 4.10937,-1.2901978 8.70189,-3.2608318 4.75205,-2.0391002 7.23507,-2.8958934 10.11693,-3.493038 l 0.77103,-0.1606143 -0.17959,-0.092024 c -0.22345,-0.1146817 -0.83095,-0.2923881 -1.20768,-0.3533954 -0.42109,-0.068238 -1.38116,-0.087513 -1.87064,-0.037986 -1.51167,0.1531086 -3.35071,0.7468281 -5.75064,1.8560426 -0.32697,0.1511353 -0.69977,0.3229441 -0.82945,0.3825901 -0.36029,0.165723 -0.83101,0.384524 -1.34494,0.626469 -0.25609,0.120584 -0.47044,0.219065 -0.47751,0.219065 -0.007,0 -0.20313,0.08989 -0.43517,0.198603 -0.23204,0.108709 -0.70079,0.322511 -1.04265,0.474592 -0.34186,0.152087 -0.67986,0.302368 -0.75059,0.334413 -0.22688,0.102807 -1.53425,0.649411 -1.82245,0.762273 -1.31338,0.514383 -2.16729,0.822447 -3.06516,1.103984 -0.3065,0.09611 -0.6025,0.194146 -0.6586,0.217599 -0.056,0.02333 -0.11294,0.03171 -0.12562,0.01885 -0.0305,-0.03039 -0.0278,-0.03212 0.27017,-0.148951 0.60158,-0.235947 1.78335,-0.748311 2.87239,-1.245699 0.71119,-0.324823 3.45057,-1.711183 4.90806,-2.483966 0.8718,-0.4622396 3.18083,-1.6096855 3.623,-1.8005444 0.23578,-0.1018022 0.50589,-0.2187074 0.60019,-0.2599287 0.72061,-0.3150918 1.83203,-0.6929034 2.58471,-0.8790968 0.85796,-0.2122149 1.20489,-0.2528089 2.21527,-0.2540951 0.86597,-0.00113 1.0432,0.011628 1.45592,0.097803 0.81469,0.1704633 1.51796,0.4756936 2.04879,0.8907835 l 0.24534,0.191303 0.33295,-0.043801 c 0.97684,-0.1288826 2.55187,-0.1679085 3.48426,-0.087619 2.98007,0.2566075 4.85506,1.4669265 5.56812,3.5952485 0.74915,2.236115 0.0941,4.6138668 -1.57859,5.7258278 -0.85871,0.570838 -2.07826,0.799688 -3.00383,0.563669 -1.28855,-0.328581 -2.24764,-1.208834 -2.47229,-2.269295 -0.0765,-0.361197 -0.0522,-0.721677 0.0773,-1.1653238 0.15505,-0.531081 0.37174,-0.808304 0.80609,-1.032428 0.20249,-0.104603 0.28185,-0.120161 0.60019,-0.11972 0.2545,1.92e-4 0.41987,0.02275 0.53884,0.07446 1.32415,0.578034 1.19104,2.3960718 -0.20151,2.7584988 -0.25072,0.06538 -0.31926,0.06729 -0.55637,0.01885 -0.14906,-0.03034 -0.33371,-0.09116 -0.41035,-0.135824 -0.16932,-0.09865 -0.17354,-0.07966 -0.0248,0.115351 0.28136,0.368854 0.95546,0.756059 1.54354,0.887861 1.06114,0.23779 2.22392,-0.14955 2.86511,-0.955042 0.56433,-0.70897 0.82474,-1.6825768 0.70969,-2.6533578 -0.0597,-0.504587 -0.26827,-1.199337 -0.47897,-1.594644 -0.70039,-1.314072 -2.18977,-2.1189559 -4.28599,-2.3160273 -0.56368,-0.052857 -2.53764,-0.044171 -2.59349,0.011629 -0.0176,0.017637 0.009,0.1821799 0.0585,0.3650733 0.34584,1.273481 0.18367,2.627895 -0.43808,3.669724 -1.09141,1.8287438 -3.75923,2.3298428 -5.13733,0.965257 -0.36635,-0.362749 -0.50707,-0.656118 -0.53593,-1.115666 -0.0393,-0.62545 0.24425,-1.161957 0.76228,-1.447148 0.26457,-0.145779 0.29825,-0.154817 0.68488,-0.154817 0.46211,0 0.72391,0.08912 0.97985,0.334411 0.41068,0.393573 0.44882,1.045985 0.0833,1.420865 l -0.1709,0.173811 0.14025,-0.202972 c 0.10342,-0.150096 0.145,-0.26328 0.1591,-0.433713 0.05,-0.604416 -0.31602,-1.005998 -0.95504,-1.047032 -0.54606,-0.03503 -0.94282,0.171045 -1.16824,0.606028 -0.0957,0.184453 -0.11452,0.277098 -0.1154,0.563669 -9.4e-4,0.300198 0.0159,0.371352 0.12562,0.572443 0.20424,0.371523 0.56252,0.636371 1.12298,0.8265228 0.22943,0.07784 0.38749,0.09808 0.74182,0.09928 0.52588,0.0017 0.88396,-0.09063 1.43692,-0.3738398 0.45709,-0.23408 1.04912,-0.816821 1.27339,-1.252931 0.45584,-0.886461 0.52918,-1.958248 0.2044,-2.984847 -0.0698,-0.2205914 -0.14201,-0.4242047 -0.16069,-0.4526945 -0.0263,-0.040171 -0.12932,-0.038533 -0.46144,0.010043 -0.87367,0.1282658 -1.36503,0.2187673 -2.53216,0.4672935 -1.78286,0.379654 -4.5598,1.226371 -6.79037,2.070701 -0.24758,0.09368 -0.71123,0.268872 -1.02951,0.388446 -0.31831,0.119562 -0.93504,0.353887 -1.37121,0.521322 -2.18167,0.837481 -3.49717,1.318968 -4.86865,1.7801008 -2.59176,0.871449 -5.32086,1.446038 -7.58477,1.597566 -0.61038,0.04086 -3.41824,0.04084 -4.02897,0 -1.77622,-0.118805 -3.84061,-0.520678 -5.70246,-1.109829 -1.21789,-0.385395 -3.33202,-1.1173808 -3.83618,-1.3288698 -0.16562,-0.06951 -2.15847,-0.800628 -2.6154,-0.959408 -1.72579,-0.599749 -2.07478,-0.71615 -2.914752,-0.971099 -1.777185,-0.539392 -3.356283,-0.899211 -4.891983,-1.115672 -0.62315,-0.08779 -0.863647,-0.09919 -2.137902,-0.0978 -1.521344,0.0017 -1.880786,0.03686 -2.828581,0.277454 -1.247899,0.316822 -2.40509,0.886709 -3.301735,1.625307 -1.571592,1.29461 -2.615248,3.0590298 -2.613928,4.4188578 4.22e-4,0.431168 0.0488,0.672581 0.224868,1.118585 0.156985,0.397922 0.178833,0.593344 0.09779,0.871802 -0.09638,0.331557 -0.194159,0.482814 -0.698007,1.071849 -0.243317,0.284431 -0.485047,0.607443 -0.537393,0.718474 -0.118928,0.251942 -0.179204,0.262171 -0.140247,0.02333 0.01586,-0.100216 0.06449,-0.442515 0.108004,-0.760818 0.316454,-2.309436 0.386986,-2.848217 0.386986,-2.974616 0,-0.07888 0.02821,-0.307248 0.0629,-0.506728 0.05162,-0.296482 0.126856,-0.490546 0.411809,-1.066012 1.070601,-2.1618058 2.229256,-3.5757568 3.731057,-4.5546688 1.777699,-1.158759 4.340181,-1.6994809 7.051772,-1.4865807 1.522503,0.1195445 2.961232,0.4178417 5.182591,1.0718607 0.840001,0.247305 2.167211,0.712889 5.530131,1.943656 2.9808,1.09091 3.79691,1.367334 5.01466,1.69394 3.92138,1.0517398 6.72589,0.7910668 8.55586,-0.794401 1.0602,-0.918516 1.60575,-2.288107 1.45448,-3.6536664 -0.0419,-0.3793851 -0.17549,-0.9559173 -0.25847,-1.1156559 -0.0192,-0.037088 -0.0978,-0.1928323 -0.17372,-0.3460906 -0.20209,-0.4079983 -0.35811,-0.6262564 -0.69951,-0.9784044 -0.35985,-0.3711728 -0.66166,-0.5871317 -1.22228,-0.8717921 -0.77141,-0.3917059 -1.42144,-0.5320461 -2.27658,-0.4935839 -0.77212,0.034727 -1.33348,0.2134428 -1.94219,0.6177023 -0.65025,0.4318279 -1.01855,1.1700085 -1.02222,2.0546378 -0.004,0.7255568 0.19268,1.2329082 0.64836,1.6866452 0.32537,0.323981 0.61314,0.477979 1.12298,0.597263 0.62043,0.14518 1.24261,0.066 1.68519,-0.214639 0.11241,-0.07132 0.19624,-0.13815 0.18693,-0.147506 -0.009,-0.009 -0.10131,0.0028 -0.20443,0.02632 -0.57634,0.129464 -1.13937,-0.275457 -1.19161,-0.8571989 -0.0278,-0.3069396 0.0373,-0.5408345 0.20589,-0.7447491 0.3811,-0.4613731 1.11355,-0.4834602 1.49829,-0.045245 0.2002,0.2279803 0.25637,0.4090501 0.25551,0.8221438 -0.001,0.6701462 -0.19088,1.1897432 -0.57535,1.5742062 -0.68406,0.684062 -2.05819,0.866762 -2.91035,0.386979 -0.30858,-0.173741 -0.69775,-0.556501 -0.87621,-0.863039 -0.3293,-0.565787 -0.45303,-1.3298018 -0.33878,-2.0911427 0.15699,-1.0458796 0.64607,-2.0346209 1.35224,-2.7322146 0.52207,-0.5157486 1.04361,-0.81710654 1.68372,-0.97256024 0.2458,-0.059693 0.74962,-0.085505 1.25879,-0.08177 z m 6.9846,1.97870384 c 0.22565,0 0.29107,0.052434 0.44101,0.35777 0.10818,0.2200535 0.11963,0.2937641 0.13284,0.8031647 0.0106,0.3959575 -0.005,0.6709645 -0.0555,0.9389679 -0.29853,1.5932988 -1.42244,3.2170298 -3.01405,4.3560648 -0.15892,0.113765 -0.30289,0.206471 -0.32126,0.207369 -0.0183,8.87e-4 0.1346,-0.187624 0.34171,-0.419108 0.85509,-0.955838 1.46731,-2.132 1.74361,-3.351387 0.0705,-0.3105903 0.13038,-0.8648029 0.19712,-1.8136868 0.0613,-0.871681 0.16421,-1.0791599 0.53447,-1.0791599 z M 94.668274,3.2905147 c 0.734341,0.026939 1.492782,0.1109817 2.235718,0.2526309 2.681094,0.5110462 4.640988,1.1266713 9.944628,3.1221146 3.91218,1.471915 5.29036,1.889211 6.90134,2.085297 0.62538,0.07603 1.67593,0.06563 2.16124,-0.02033 1.51037,-0.267914 2.47689,-1.046352 2.87534,-2.318959 0.18467,-0.589815 0.15699,-1.5152767 -0.0615,-2.0969819 -0.0537,-0.1431891 -0.11135,-0.2989352 -0.12862,-0.3460853 -0.0176,-0.047131 0.0257,4.845e-4 0.095,0.106577 0.3858,0.5926271 0.54342,1.6025222 0.37528,2.4007282 -0.38088,1.808386 -1.77939,2.889737 -3.98662,3.084143 h -10e-4 c -0.88143,0.07728 -2.15437,-0.02065 -3.31049,-0.255533 -1.64445,-0.334317 -3.41219,-0.894235 -7.2343,-2.292656 C 100.02457,5.3616017 97.968791,4.7367619 95.574953,4.2909269 94.679086,4.1240932 93.16289,4.0729683 92.188524,4.1770028 91.15586,4.2872622 90.148499,4.520884 89.246022,4.8589563 87.840984,5.3852952 86.64263,6.0719362 85.922385,6.7631882 c -0.367639,0.35283 -0.74329,0.644598 -0.74329,0.578271 0,-0.06991 0.245148,-0.375137 0.589968,-0.741824 l 1.666153,-1.3478506 c 0.43646,-0.2861932 1.164911,-0.6894784 1.666174,-0.9068433 1.130656,-0.490247 2.171073,-0.7778251 3.472605,-0.9594112 0.649399,-0.090614 1.35974,-0.1218174 2.094062,-0.094913 z m -2.263455,3.6580375 c 1.181158,-0.02482 2.447694,0.110435 3.72669,0.404501 0.475236,0.109272 1.58114,0.455946 1.844333,0.578283 0.04722,0.02213 0.210405,0.09208 0.36362,0.154818 1.035872,0.424072 2.284758,1.229714 2.901608,1.872093 0.3246,0.3380298 0.64808,0.8289288 0.82214,1.2470918 0.73892,1.774925 0.0597,3.389551 -1.60193,3.805541 v -0.0014 c -1.45399,0.364011 -2.93252,-0.670918 -2.935197,-2.054632 -9.32e-4,-0.57427 0.246525,-1.024154 0.703858,-1.276299 0.280301,-0.154447 0.414661,-0.151364 0.185474,0.0042 -0.445988,0.303067 -0.553728,0.919277 -0.248249,1.413567 0.143418,0.232022 0.480997,0.516413 0.795828,0.670278 0.275016,0.134274 0.329334,0.146043 0.705341,0.146043 0.349115,0 0.441685,-0.01533 0.645455,-0.110982 0.53889,-0.252779 0.76742,-0.603281 0.76813,-1.171161 9.3e-4,-0.681292 -0.32514,-1.412841 -0.95067,-2.132029 -0.756004,-0.8691988 -2.890629,-1.9963508 -4.814584,-2.5438328 -1.426006,-0.405778 -2.421018,-0.550106 -3.814305,-0.551989 -1.266731,-0.0017 -1.837796,0.07552 -2.821285,0.382588 -0.403948,0.126152 -0.496483,0.133147 -0.26578,0.02035 0.529183,-0.258494 1.223191,-0.48231 1.972897,-0.638153 0.6303,-0.131014 1.307959,-0.204196 2.016626,-0.219065 z m -4.557577,1.163854 c 0.0141,0.0056 -0.04317,0.05693 -0.167909,0.15628 -0.698892,0.555686 -1.348819,1.469525 -1.653046,2.3218718 -0.221642,0.620859 -0.262978,0.845813 -0.264301,1.457377 -0.0037,0.830946 0.16597,1.364712 0.657137,2.079465 0.256528,0.373264 0.412456,0.680343 0.477524,0.938966 0.06607,0.262053 -0.03297,0.550252 -0.232184,0.671736 -0.167556,0.102102 -0.300207,0.102577 -0.522789,0.0014 -0.524673,-0.238331 -1.033242,-1.326077 -1.136103,-2.431398 -0.186252,-2.001286 0.926985,-4.1908518 2.580347,-5.0745298 0.160508,-0.08584 0.246734,-0.126786 0.261375,-0.121218 z m -0.820694,1.556681 -0.02345,0.128477 c -0.108709,0.5994368 -0.123156,0.8552028 -0.07153,1.2120458 0.09602,0.664745 0.406959,1.213822 0.930191,1.641379 0.338125,0.276233 0.446869,0.430282 0.446869,0.632303 0,0.168155 -0.162799,0.399302 -0.344643,0.490661 -0.190304,0.09567 -0.232464,0.09416 -0.457054,-0.01462 -0.384868,-0.186308 -0.859856,-0.884951 -0.956497,-1.406264 -0.06396,-0.344808 -0.0511,-1.080334 0.02504,-1.447156 0.06995,-0.338312 0.269464,-0.9226178 0.384038,-1.1215088 z" />
  </g>
</svg>
