<?xml version="1.0" encoding="UTF-8" standalone="no"?>
<!DOCTYPE svg PUBLIC "-//W3C//DTD SVG 1.1//EN" "http://www.w3.org/Graphics/SVG/1.1/DTD/svg11.dtd">
<svg width="100%" height="100%" viewBox="0 0 100 100" version="1.1" xmlns="http://www.w3.org/2000/svg" xmlns:xlink="http://www.w3.org/1999/xlink" xml:space="preserve" xmlns:serif="http://www.serif.com/" style="fill-rule:evenodd;clip-rule:evenodd;stroke-linejoin:round;stroke-miterlimit:2;">
    <g transform="matrix(1,0,0,1,0,-12.5)">
        <g transform="matrix(1,0,0,1,-0.327124,14.1228)">
            <g>
                <path d="M63.744,50.469C65.842,50.469 67.542,47.61 67.542,44.082C67.542,40.554 64.117,36.464 63.744,32.992C63.065,26.678 59.945,40.554 59.945,44.082C59.945,47.61 61.646,50.469 63.744,50.469Z" style="fill-rule:nonzero;"/>
                <path d="M87.626,69.652L54.407,69.652C53.581,69.652 52.909,68.944 52.909,68.071C52.909,67.426 53.278,66.873 53.804,66.627L87.626,66.627C87.968,66.627 88.296,66.572 88.614,66.492C90.358,66.047 91.657,64.478 91.657,62.596C91.657,60.368 89.852,58.562 87.626,58.562L51.091,58.562C50.265,58.562 49.595,57.818 49.595,56.897C49.595,55.978 50.265,55.232 51.091,55.232L77.327,55.232C79.556,55.232 81.362,53.427 81.362,51.2C81.362,48.973 79.555,47.167 77.327,47.167L68.811,47.167C67.901,50.336 65.977,52.526 63.745,52.526C61.511,52.526 59.587,50.336 58.677,47.167L35.604,47.167L45.883,38.47C47.832,36.822 47.873,33.667 45.975,31.423C44.077,29.179 40.957,28.697 39.006,30.347L16.15,49.689C12.06,52.427 9.357,57.13 9.357,62.479L9.357,71.743C9.357,80.199 16.101,87.055 24.423,87.055L77.327,87.055C79.556,87.055 81.362,85.635 81.362,83.883C81.362,82.13 79.555,80.708 77.327,80.708L54.407,80.708C53.581,80.708 52.909,80.039 52.909,79.213C52.909,78.388 53.581,77.717 54.407,77.717L87.626,77.717C89.853,77.717 91.657,75.912 91.657,73.686C91.657,71.458 89.853,69.652 87.626,69.652Z" style="fill-rule:nonzero;"/>
                <path d="M76.728,38.367C79.082,38.367 80.992,35.5 80.992,31.961C80.992,28.424 77.146,24.321 76.728,20.84C75.966,14.507 72.464,28.424 72.464,31.961C72.464,35.5 74.372,38.367 76.728,38.367Z" style="fill-rule:nonzero;"/>
                <path d="M56.677,29.367C59.031,29.367 60.941,26.5 60.941,22.961C60.941,19.424 57.095,15.321 56.677,11.84C55.915,5.507 52.413,19.424 52.413,22.961C52.413,26.5 54.321,29.367 56.677,29.367Z" style="fill-rule:nonzero;"/>
            </g>
        </g>
    </g>
</svg>
