<?xml version="1.0" encoding="UTF-8" standalone="no"?>
<!DOCTYPE svg PUBLIC "-//W3C//DTD SVG 1.1//EN" "http://www.w3.org/Graphics/SVG/1.1/DTD/svg11.dtd">
<svg width="100%" height="100%" viewBox="0 0 100 100" version="1.1" xmlns="http://www.w3.org/2000/svg" xmlns:xlink="http://www.w3.org/1999/xlink" xml:space="preserve" xmlns:serif="http://www.serif.com/" style="fill-rule:evenodd;clip-rule:evenodd;stroke-linejoin:round;stroke-miterlimit:2;">
    <g transform="matrix(1,0,0,1,22.1138,19.9321)">
        <g>
            <path d="M32.376,23.544C37.565,24.107 42.794,24.187 48.004,24.508C51.841,24.745 51.987,31.223 48.442,32.308C47.308,32.655 44.889,33.001 43.755,33.348C45.195,33.667 47.92,33.986 49.36,34.305C52.826,35.072 52.821,40.914 49.296,41.574C47.827,41.85 45.073,42.125 43.604,42.4C44.771,42.707 47.222,43.014 48.388,43.321C51.935,44.253 51.926,50.692 48.297,51.217C47.022,51.401 44.461,51.586 43.185,51.771C43.819,51.958 45.739,52.145 46.373,52.332C50.204,53.463 49.801,58.6 46.076,59.017C38.639,59.851 31.779,60.623 24.305,60.623C16.723,60.623 11.686,52.853 0.464,52.831C0.427,46.034 0.39,39.237 0.354,32.44C10.401,32.44 13.007,25.409 17.809,22.637C23.489,19.357 26.974,22.959 32.376,23.544L32.376,23.544Z"/>
            <path d="M40.295,63.193L40.295,67.177C40.295,68.762 38.99,70.068 37.404,70.068L28.419,70.068C26.834,70.068 25.527,68.769 25.527,67.177L25.527,64.157C28.714,64.107 34.773,63.877 40.295,63.193Z"/>
            <path d="M28.419,-9.932L37.404,-9.932C38.996,-9.932 40.295,-8.63 40.295,-7.041L40.295,20.332C37.088,20.189 36.942,20.526 32.142,19.831C29.244,19.411 27.649,18.975 25.527,18.083L25.527,-7.041C25.527,-8.633 26.826,-9.932 28.419,-9.932Z"/>
            <path d="M11.198,6.827C17.56,4.105 17.283,-1.793 17.979,-5.113C22.557,-5.113 51.949,-4.787 55.418,-4.787L55.418,12.326C50.743,12.326 19.771,12.302 14.09,12.302C12.497,12.302 11.198,11.003 11.198,9.411L11.198,6.827Z"/>
        </g>
    </g>
</svg>
