<?xml version="1.0" encoding="UTF-8" standalone="no"?>
<!DOCTYPE svg PUBLIC "-//W3C//DTD SVG 1.1//EN" "http://www.w3.org/Graphics/SVG/1.1/DTD/svg11.dtd">
<svg width="100%" height="100%" viewBox="0 0 100 100" version="1.1" xmlns="http://www.w3.org/2000/svg" xmlns:xlink="http://www.w3.org/1999/xlink" xml:space="preserve" xmlns:serif="http://www.serif.com/" style="fill-rule:evenodd;clip-rule:evenodd;stroke-linejoin:round;stroke-miterlimit:2;">
    <path d="M79.5,54.73C79.268,53.856 78.471,53.242 77.567,53.242C77.392,53.242 77.219,53.265 77.05,53.31L71.26,54.87C70.017,55.126 68.723,54.953 67.59,54.38L61.73,51C61.307,50.851 61.022,50.449 61.022,50C61.022,49.551 61.307,49.149 61.73,49L67.59,45.62C68.723,45.047 70.017,44.874 71.26,45.13L77.05,46.69C77.219,46.735 77.392,46.758 77.567,46.758C78.471,46.758 79.268,46.144 79.5,45.27L81.06,39.48C81.11,39.303 81.136,39.12 81.136,38.935C81.136,38.028 80.518,37.229 79.64,37L76.64,36.2C75.766,35.968 75.152,35.171 75.152,34.267C75.152,34.092 75.175,33.919 75.22,33.75L76.02,30.75C76.065,30.581 76.088,30.408 76.088,30.233C76.088,29.329 75.474,28.532 74.6,28.3L68.81,26.74C68.641,26.695 68.468,26.672 68.293,26.672C67.389,26.672 66.592,27.286 66.36,28.16L64.84,34C64.465,35.232 63.668,36.295 62.59,37L56.73,40.38C55.78,40.93 55,40.48 55,39.38L55,32.57C55.07,31.307 55.567,30.104 56.41,29.16L60.66,24.91C61.43,24.135 61.43,22.865 60.66,22.09L56.41,17.84C55.635,17.07 54.365,17.07 53.59,17.84L51.41,20C50.635,20.77 49.365,20.77 48.59,20L46.41,17.83C45.635,17.06 44.365,17.06 43.59,17.83L39.34,22.08C38.57,22.855 38.57,24.125 39.34,24.9L43.59,29.15C44.435,30.096 44.933,31.303 45,32.57L45,39.34C45,40.44 44.22,40.89 43.27,40.34L37.41,37C36.332,36.295 35.535,35.232 35.16,34L33.6,28.23C33.368,27.356 32.571,26.742 31.667,26.742C31.492,26.742 31.319,26.765 31.15,26.81L25.36,28.37C24.486,28.602 23.872,29.399 23.872,30.303C23.872,30.478 23.895,30.651 23.94,30.82L24.74,33.82C24.785,33.989 24.808,34.162 24.808,34.337C24.808,35.241 24.194,36.038 23.32,36.27L20.32,37.07C19.446,37.302 18.832,38.099 18.832,39.003C18.832,39.178 18.855,39.351 18.9,39.52L20.46,45.31C20.696,46.178 21.49,46.785 22.39,46.785C22.597,46.785 22.803,46.753 23,46.69L28.79,45.13C30.033,44.874 31.327,45.047 32.46,45.62L38.27,49C38.693,49.149 38.978,49.551 38.978,50C38.978,50.449 38.693,50.851 38.27,51L32.41,54.38C31.277,54.953 29.983,55.126 28.74,54.87L23,53.31C22.831,53.265 22.658,53.242 22.483,53.242C21.579,53.242 20.782,53.856 20.55,54.73L18.99,60.52C18.937,60.701 18.911,60.889 18.911,61.077C18.911,61.967 19.505,62.755 20.36,63L23.36,63.8C24.234,64.032 24.848,64.829 24.848,65.733C24.848,65.908 24.825,66.081 24.78,66.25L23.98,69.25C23.935,69.419 23.912,69.592 23.912,69.767C23.912,70.671 24.526,71.468 25.4,71.7L31.19,73.26C31.359,73.305 31.532,73.328 31.707,73.328C32.611,73.328 33.408,72.714 33.64,71.84L35.16,66C35.535,64.768 36.332,63.705 37.41,63L43.27,59.62C44.22,59.07 45,59.52 45,60.62L45,67.39C44.93,68.653 44.433,69.856 43.59,70.8L39.34,75.05C38.57,75.825 38.57,77.095 39.34,77.87L43.59,82.12C44.365,82.89 45.635,82.89 46.41,82.12L48.59,80C49.365,79.23 50.635,79.23 51.41,80L53.59,82.17C54.365,82.94 55.635,82.94 56.41,82.17L60.66,77.92C61.43,77.145 61.43,75.875 60.66,75.1L56.41,70.85C55.565,69.904 55.067,68.697 55,67.43L55,60.66C55,59.56 55.78,59.11 56.73,59.66L62.59,63C63.668,63.705 64.465,64.768 64.84,66L66.4,71.79C66.632,72.664 67.429,73.278 68.333,73.278C68.508,73.278 68.681,73.255 68.85,73.21L74.64,71.65C75.514,71.418 76.128,70.621 76.128,69.717C76.128,69.542 76.105,69.369 76.06,69.2L75.26,66.2C75.215,66.031 75.192,65.858 75.192,65.683C75.192,64.779 75.806,63.982 76.68,63.75L79.68,62.95C80.554,62.718 81.168,61.921 81.168,61.017C81.168,60.842 81.145,60.669 81.1,60.5L79.5,54.73Z" style="fill-rule:nonzero;"/>
</svg>
