<?xml version="1.0" encoding="UTF-8" standalone="no"?>
<svg
   xmlns:dc="http://purl.org/dc/elements/1.1/"
   xmlns:cc="http://creativecommons.org/ns#"
   xmlns:rdf="http://www.w3.org/1999/02/22-rdf-syntax-ns#"
   xmlns:svg="http://www.w3.org/2000/svg"
   xmlns="http://www.w3.org/2000/svg"
   xmlns:sodipodi="http://sodipodi.sourceforge.net/DTD/sodipodi-0.dtd"
   xmlns:inkscape="http://www.inkscape.org/namespaces/inkscape"
   width="100%"
   height="100%"
   viewBox="0 0 100 100"
   version="1.1"
   xml:space="preserve"
   style="fill-rule:evenodd;clip-rule:evenodd;stroke-linejoin:round;stroke-miterlimit:2;"
   id="svg16"
   sodipodi:docname="flower.svg"
   inkscape:version="1.0.1 (3bc2e813f5, 2020-09-07)"><metadata
   id="metadata22"><rdf:RDF><cc:Work
       rdf:about=""><dc:format>image/svg+xml</dc:format><dc:type
         rdf:resource="http://purl.org/dc/dcmitype/StillImage" /><dc:title></dc:title></cc:Work></rdf:RDF></metadata><defs
   id="defs20" /><sodipodi:namedview
   pagecolor="#ffffff"
   bordercolor="#666666"
   borderopacity="1"
   objecttolerance="10"
   gridtolerance="10"
   guidetolerance="10"
   inkscape:pageopacity="0"
   inkscape:pageshadow="2"
   inkscape:window-width="1735"
   inkscape:window-height="844"
   id="namedview18"
   showgrid="false"
   inkscape:zoom="7.7099999"
   inkscape:cx="40.411532"
   inkscape:cy="66.93782"
   inkscape:window-x="0"
   inkscape:window-y="0"
   inkscape:window-maximized="1"
   inkscape:current-layer="svg16"
   inkscape:document-rotation="0" />
    
<g
   id="g5773"
   transform="matrix(-10.605406,0.08104886,0.08104886,10.605406,659.22628,-95.677959)"><path
     id="path5767"
     style="fill:#f5bdc1;fill-opacity:1;stroke:none;stroke-width:3.14344;stroke-linecap:round;stroke-linejoin:round;stroke-miterlimit:4;stroke-dasharray:none;stroke-opacity:1;paint-order:fill markers stroke"
     d="m 57.168059,9.2630005 c -0.173498,-0.00859 -0.318447,0.048213 -0.423746,0.1116211 -0.286229,0.1720998 -0.48731,0.5216665 -0.48731,0.8495604 0,0.315215 0.117981,0.934938 0.342617,1.511019 l 0.05064,0.121439 c 0.150363,0.106884 0.295376,0.219179 0.429432,0.336931 0.139491,-0.05615 0.28965,-0.08682 0.449067,-0.08682 0.313404,0 0.597813,0.119315 0.813388,0.316777 0.44746,-0.66666 0.690398,-1.750079 0.690398,-2.199349 0,-0.3206499 -0.20288,-0.6663476 -0.494543,-0.8402587 -0.170289,-0.1014532 -0.442362,-0.1901812 -0.757576,-0.021704 -0.08515,0.045284 -0.18668,0.045284 -0.27182,0 -0.12228,-0.065205 -0.236448,-0.094064 -0.340548,-0.099219 z m 3.092318,2.3461095 c -0.09307,0.0029 -0.184799,0.01727 -0.271301,0.04444 -0.202896,0.0634 -0.502079,0.208495 -0.797367,0.382406 -0.137679,0.335141 -0.309989,0.653819 -0.514697,0.907438 0.03804,0.115942 0.05839,0.241381 0.05839,0.370003 0,0.346013 -0.1469,0.657487 -0.382405,0.878499 0.757237,0.222822 1.960255,0.146772 2.500106,-0.0217 0.342387,-0.106884 0.631888,-0.411595 0.70435,-0.73949 0.05435,-0.248187 -0.01984,-0.46531 -0.222726,-0.65009 -0.07609,-0.06703 -0.110363,-0.172178 -0.09043,-0.271818 0.0616,-0.307968 -0.0817,-0.51425 -0.21394,-0.632002 -0.199728,-0.179343 -0.49077,-0.276345 -0.769979,-0.267685 z m -5.463749,0.0016 c -0.279464,-0.0087 -0.569736,0.08834 -0.769462,0.267684 -0.132246,0.119563 -0.275539,0.324553 -0.213939,0.63252 0.01992,0.09964 -0.01434,0.202461 -0.09043,0.271301 -0.43512,0.529435 -0.14134,1.179927 0.481637,1.388029 0.195652,0.05978 0.510808,0.112357 0.842328,0.139526 h 0.0021 c 0.380431,-0.306156 0.838498,-0.6087 1.291394,-0.798917 -0.0109,-0.0634 -0.01603,-0.130374 -0.01603,-0.197404 0,-0.289852 0.103336,-0.558029 0.275437,-0.766362 -0.54891,-0.452892 -1.21415,-0.791778 -1.531173,-0.891418 -0.08696,-0.02717 -0.178666,-0.04207 -0.27182,-0.04496 z m 2.732132,1.075904 c -0.346009,0 -0.626835,0.280824 -0.626835,0.626835 0,0.346012 0.280826,0.626835 0.626835,0.626835 0.346012,0 0.626838,-0.280823 0.626838,-0.626835 -3e-6,-0.346011 -0.280826,-0.626835 -0.626838,-0.626835 z m -0.960146,1.356506 c -0.717386,0.302532 -1.51986,0.973231 -1.809711,1.355473 -0.197455,0.260868 -0.244893,0.653482 -0.116271,0.956014 0.07427,0.175724 0.237403,0.393445 0.590661,0.435115 0.09782,0.01268 0.183391,0.07246 0.226862,0.161231 0.150357,0.306161 0.405358,0.393234 0.593762,0.411344 0.353256,0.03442 0.746387,-0.138046 0.95653,-0.417028 0.123184,-0.164854 0.273671,-0.439797 0.404108,-0.744141 -0.219196,-0.567023 -0.380425,-1.22645 -0.329694,-1.7663 -0.206521,-0.08152 -0.383998,-0.217797 -0.516247,-0.391708 z m 1.090371,0.474907 c -0.05797,0.775354 0.456809,1.992463 0.786517,2.427242 0.211952,0.278982 0.605086,0.451438 0.956529,0.417028 0.188405,-0.01812 0.443918,-0.103376 0.594281,-0.411344 0.04348,-0.08877 0.128521,-0.15037 0.226343,-0.161231 0.353256,-0.04167 0.51639,-0.259391 0.590661,-0.435115 0.128622,-0.302532 0.08119,-0.695146 -0.116274,-0.956014 v -5.29e-4 c -0.108693,-0.143114 -0.295235,-0.331199 -0.516247,-0.521416 -0.224634,0.0217 -0.46007,0.03411 -0.688329,0.03411 -0.03804,0 -0.07617,-0.0016 -0.114205,-0.0016 -0.525357,-0.0091 -1.237395,-0.08685 -1.719276,-0.39119 z"
     sodipodi:nodetypes="sscccscscccsssccsccccscsssscccccsccssscsscccccccccccccccccccsccccc" /><path
     style="fill:#f8767d;fill-opacity:1;stroke:none;stroke-width:3.14344;stroke-linecap:round;stroke-linejoin:round;stroke-miterlimit:4;stroke-dasharray:none;stroke-opacity:1;paint-order:fill markers stroke"
     d="m 57.545464,12.669869 c -0.346008,0 -0.626834,0.280824 -0.626834,0.626835 0,0.346012 0.280826,0.626836 0.626834,0.626836 0.346012,0 0.626838,-0.280824 0.626838,-0.626836 -3e-6,-0.346011 -0.280826,-0.626835 -0.626838,-0.626835 z"
     id="path5769" /><path
     d="m 61.852727,12.439923 c 0.0308,-0.387678 -0.114124,-0.744558 -0.416663,-1.016294 -0.416662,-0.374997 -1.061582,-0.514489 -1.601433,-0.346012 -0.108695,0.03441 -0.230069,0.08151 -0.362315,0.143115 0.105068,-0.407604 0.157607,-0.778978 0.157607,-1.021729 0,-0.5307915 -0.304345,-1.0561493 -0.775354,-1.3387546 -0.373185,-0.2228238 -0.800716,-0.2572439 -1.192017,-0.099637 -0.398547,-0.1630417 -0.82789,-0.130433 -1.199263,0.09239 -0.467387,0.2807953 -0.768108,0.8097741 -0.768108,1.3460006 0,0.333331 0.08333,0.762673 0.193839,1.152162 -0.237317,-0.124995 -0.456518,-0.219201 -0.630429,-0.273548 -0.541661,-0.168477 -1.184771,-0.0308 -1.601433,0.346012 -0.302533,0.273547 -0.447459,0.628616 -0.416662,1.016294 -0.27536,0.306155 -0.376808,0.688399 -0.289852,1.09057 0.115938,0.53079 0.557965,0.999987 1.097815,1.168464 0.124994,0.03804 0.280793,0.07427 0.454706,0.103254 -0.07427,0.07971 -0.139493,0.153984 -0.190216,0.222824 -0.32065,0.425721 -0.394924,1.041656 -0.186592,1.534404 0.166664,0.393111 0.492748,0.663037 0.903975,0.757239 0.217389,0.34782 0.561589,0.559777 0.983687,0.599631 0.0471,0.0054 0.09601,0.0073 0.144925,0.0073 0.507241,0 1.027163,-0.249997 1.329697,-0.650355 0.08152,-0.108696 0.168477,-0.248186 0.255432,-0.407605 0.08877,0.164853 0.175723,0.304345 0.255432,0.407605 0.302534,0.400358 0.822455,0.650355 1.329696,0.650355 0.04891,0 0.09601,-0.0017 0.144927,-0.0073 0.422097,-0.04167 0.766297,-0.251809 0.983686,-0.599631 0.411227,-0.0942 0.737311,-0.364128 0.903976,-0.757239 0.210142,-0.492748 0.135868,-1.108683 -0.186592,-1.534404 -0.06703,-0.08877 -0.153984,-0.186592 -0.255432,-0.289852 0.04347,-0.01086 0.08333,-0.02174 0.12138,-0.03441 0.541662,-0.168476 0.981875,-0.639486 1.097814,-1.168464 0.09238,-0.403983 -0.01086,-0.784414 -0.286227,-1.092382 z m -5.235454,-0.728255 c -0.224635,-0.576081 -0.342388,-1.195639 -0.342388,-1.510854 0,-0.3278945 0.201085,-0.6775294 0.487314,-0.8496292 0.168476,-0.1014524 0.438402,-0.186592 0.764485,-0.012711 0.08514,0.045284 0.186592,0.045284 0.271737,0 0.315214,-0.1684771 0.586949,-0.079711 0.757237,0.021742 0.291665,0.1739111 0.494561,0.5199217 0.494561,0.8405722 0,0.44927 -0.242751,1.532593 -0.690211,2.199253 -0.215576,-0.197462 -0.499994,-0.317027 -0.813396,-0.317027 -0.159419,0 -0.30978,0.0308 -0.449271,0.08695 -0.134057,-0.117752 -0.278983,-0.23007 -0.429345,-0.336954 z m 0.929339,0.951078 c 0.346011,0 0.626804,0.280794 0.626804,0.626805 0,0.346012 -0.280793,0.626806 -0.626804,0.626806 -0.346011,0 -0.626805,-0.280794 -0.626805,-0.626806 0,-0.346011 0.280794,-0.626805 0.626805,-0.626805 z m -4.028945,0.744558 c -0.05434,-0.248186 0.02174,-0.465575 0.222823,-0.648543 0.07608,-0.06884 0.11051,-0.172101 0.09058,-0.271739 -0.0616,-0.307967 0.08152,-0.512675 0.213766,-0.632238 0.266303,-0.239129 0.693835,-0.331519 1.041657,-0.222825 0.317025,0.09964 0.981874,0.438403 1.530782,0.891295 -0.172101,0.208332 -0.275361,0.476445 -0.275361,0.766297 0,0.06703 0.0054,0.134057 0.0163,0.197461 -0.452894,0.190217 -0.911223,0.492749 -1.291654,0.798906 0,0 -0.0017,0 -0.0017,0 -0.331519,-0.02717 -0.646732,-0.07971 -0.842383,-0.139491 -0.344198,-0.106881 -0.634051,-0.411228 -0.704702,-0.739123 z m 3.510834,3.514456 c -0.210143,0.278982 -0.603254,0.451082 -0.956512,0.416662 -0.188403,-0.01811 -0.443837,-0.105067 -0.594197,-0.411228 -0.04347,-0.08877 -0.128623,-0.148549 -0.226446,-0.16123 -0.353258,-0.04167 -0.516301,-0.259055 -0.590575,-0.434779 -0.128623,-0.302531 -0.08152,-0.695643 0.115938,-0.956511 0.289851,-0.382242 1.092379,-1.052525 1.809764,-1.355057 0.132251,0.173911 0.309778,0.309778 0.516298,0.3913 -0.05073,0.53985 0.110509,1.199263 0.329707,1.766285 -0.130437,0.304344 -0.280795,0.579705 -0.403981,0.744558 z m 3.686556,-1.547086 c 0.197462,0.260868 0.244563,0.65398 0.115939,0.956511 -0.07427,0.175724 -0.237317,0.393113 -0.590574,0.434779 -0.09782,0.01086 -0.182969,0.07246 -0.226447,0.16123 -0.150361,0.307968 -0.405793,0.393112 -0.594198,0.411228 -0.351445,0.03441 -0.744556,-0.13768 -0.95651,-0.416662 -0.329707,-0.434778 -0.844195,-1.652157 -0.786225,-2.427511 0.481879,0.304344 1.193829,0.382242 1.719185,0.391301 0.03804,0 0.07608,0.0017 0.114124,0.0017 0.228259,0 0.463764,-0.01271 0.688399,-0.03441 0.221012,0.190216 0.407604,0.378619 0.516299,0.521733 z m 0.860498,-1.96737 c -0.07246,0.327895 -0.362315,0.63224 -0.704703,0.739123 -0.539849,0.168476 -1.742735,0.244562 -2.499974,0.02174 0.235505,-0.221012 0.382242,-0.532603 0.382242,-0.878616 0,-0.128622 -0.01993,-0.253619 -0.05797,-0.369561 0.204708,-0.253619 0.376808,-0.572457 0.514488,-0.907598 0.295287,-0.173911 0.594197,-0.318838 0.797093,-0.382242 0.346011,-0.108696 0.775354,-0.0163 1.041657,0.222823 0.132238,0.117752 0.275358,0.324272 0.213765,0.63224 -0.01993,0.09964 0.01449,0.204707 0.09058,0.271736 0.202895,0.18478 0.277171,0.402169 0.222823,0.650356 z"
     id="path5771"
     style="fill:#b8434a;fill-opacity:1;stroke:#b8434a;stroke-width:0.1;stroke-miterlimit:4;stroke-dasharray:none;stroke-opacity:1" /></g></svg>
