<?xml version="1.0" encoding="UTF-8" standalone="no"?>
<!DOCTYPE svg PUBLIC "-//W3C//DTD SVG 1.1//EN" "http://www.w3.org/Graphics/SVG/1.1/DTD/svg11.dtd">
<svg width="100%" height="100%" viewBox="0 0 100 100" version="1.1" xmlns="http://www.w3.org/2000/svg" xmlns:xlink="http://www.w3.org/1999/xlink" xml:space="preserve" xmlns:serif="http://www.serif.com/" style="fill-rule:evenodd;clip-rule:evenodd;stroke-linejoin:round;stroke-miterlimit:2;">
    <g transform="matrix(1,0,0,1,14.2363,19.932)">
        <g>
            <g transform="matrix(1,0,0,1,-22.1138,-19.9321)">
                <path d="M62.409,87.109C62.409,88.694 61.104,90 59.518,90L50.533,90C48.948,90 47.641,88.701 47.641,87.109L47.641,12.891C47.641,11.299 48.94,10 50.533,10L59.518,10C61.11,10 62.409,11.302 62.409,12.891L62.409,87.109Z"/>
            </g>
            <g transform="matrix(1,0,0,-1,0,9.58391)">
                <path d="M1.302,9.458C7.664,6.736 17.283,-1.793 17.979,-5.113C21.873,-4.349 52.772,-1.819 54.172,-8.58C54.303,-9.211 64.329,-8.787 64.329,-8.787L64.329,16.326C64.329,16.326 54.356,16.615 54.314,16.178C53.489,7.556 19.569,11.21 14.09,12.302C12.528,12.613 1.302,13.634 1.302,12.042L1.302,9.458Z"/>
            </g>
        </g>
    </g>
</svg>
