<?xml version="1.0" encoding="UTF-8" standalone="no"?>
<!DOCTYPE svg PUBLIC "-//W3C//DTD SVG 1.1//EN" "http://www.w3.org/Graphics/SVG/1.1/DTD/svg11.dtd">
<svg width="100%" height="100%" viewBox="0 0 100 100" version="1.1" xmlns="http://www.w3.org/2000/svg" xmlns:xlink="http://www.w3.org/1999/xlink" xml:space="preserve" xmlns:serif="http://www.serif.com/" style="fill-rule:evenodd;clip-rule:evenodd;stroke-linejoin:round;stroke-miterlimit:2;">
    <g transform="matrix(1,0,0,1,-0.0323513,0)">
        <path d="M40.6,94C35.7,91.1 32.2,86 32,80C31.7,68.8 39.5,63.3 44.1,55.8C50.7,45 48.9,38.3 48.9,38.3C48.9,38.3 54.4,41.4 57.6,52.9C58.6,56.3 58.8,59.7 58.5,62.9C58,71 54.5,78.3 54.5,78.3C54.5,78.3 60.6,77 62.3,65.9C65.1,68.8 67.7,73 68,77.4C68.5,85 64,92 57.2,95C69,92.3 77.4,82.3 80.3,75C84,65.8 83,57.6 82.4,50.5C81.6,40.8 85,33.6 85,33.6C85,33.6 78.5,35.5 73.7,43.4C71.5,47 70.6,52.3 70.6,52.3C70.6,52.3 71.1,47.6 68,39C64.9,30.6 62.1,27.6 60.4,21.4C58.2,13.1 63.1,5 63.1,5C63.1,5 43.7,8.6 34.9,25.5C27.1,40.5 30.3,49.5 30.3,49.5C30.3,49.5 27,46.4 25.3,42.1C23.6,37.8 24,33.9 24,33.9C24,33.9 10.2,49.1 16.9,68.2C21.4,81.6 30.1,90.4 40.6,94Z" style="fill-rule:nonzero;"/>
    </g>
</svg>
