<?xml version="1.0" encoding="UTF-8" standalone="no"?>
<!DOCTYPE svg PUBLIC "-//W3C//DTD SVG 1.1//EN" "http://www.w3.org/Graphics/SVG/1.1/DTD/svg11.dtd">
<svg width="100%" height="100%" viewBox="0 0 100 100" version="1.1" xmlns="http://www.w3.org/2000/svg" xmlns:xlink="http://www.w3.org/1999/xlink" xml:space="preserve" xmlns:serif="http://www.serif.com/" style="fill-rule:evenodd;clip-rule:evenodd;stroke-linejoin:round;stroke-miterlimit:2;">
    <g transform="matrix(0.859538,0,0,0.859538,6.95803,7.29169)">
        <path d="M50,4.1C29.9,4.1 6.9,24.1 13.6,46.6C15.6,53.3 17.4,62.7 19.9,68.2C10.5,81.8 27.7,82.4 27.7,82.4L27.4,91.6C27.4,92.5 39.2,95 43.2,95.2C46.7,95.3 53.6,95.3 57.1,95.2C61.1,95 72.9,92.5 72.9,91.6L72.6,82.4C72.6,82.4 88.6,83.4 80.4,68.2C82.9,62.6 84.8,53 86.7,46.6C92.9,24.1 70.1,4.1 50,4.1ZM37.1,67.7C30.4,69.5 23.9,66.9 22.6,61.9C21.3,56.9 19.3,48.7 32.3,49.6C39.2,50.1 45.5,50.4 46.8,55.4C48.2,60.4 43.8,65.9 37.1,67.7ZM55.5,78.6C53.3,79.7 50.7,77.7 50.7,77.7C50.7,77.7 46.8,79.4 45.5,78.5C42.6,76.6 46.7,62.9 50.7,63C54.6,63 59,76.7 55.5,78.6ZM78.4,61.9C77.1,66.9 70.6,69.5 63.9,67.7C57.2,65.9 52.9,60.4 54.2,55.4C55.5,50.4 61.8,50.1 68.7,49.6C81.7,48.7 79.7,56.9 78.4,61.9Z" style="fill-rule:nonzero;"/>
    </g>
</svg>
