<?xml version="1.0" encoding="UTF-8" standalone="no"?>
<!DOCTYPE svg PUBLIC "-//W3C//DTD SVG 1.1//EN" "http://www.w3.org/Graphics/SVG/1.1/DTD/svg11.dtd">
<svg width="100%" height="100%" viewBox="0 0 100 100" version="1.1" xmlns="http://www.w3.org/2000/svg" xmlns:xlink="http://www.w3.org/1999/xlink" xml:space="preserve" xmlns:serif="http://www.serif.com/" style="fill-rule:evenodd;clip-rule:evenodd;stroke-linejoin:round;stroke-miterlimit:2;">
    <g transform="matrix(0.897815,0,0,0.897815,5.10459,16.332)">
        <g transform="matrix(1,0,0,1,0,-12.5)">
            <path d="M46.5,5C29.79,4.967 13.841,13.472 13.719,34.656C13.657,45.445 20.703,51.827 25.531,59.438C30.389,67.096 31.161,74.686 28.25,86.438C35.276,92.562 48.934,91.567 60.781,95C61.263,89.004 60.385,82.693 62.563,80.5C65.725,77.315 71.766,84.678 75.656,79.719C79.098,75.331 73.615,74.311 78.688,68.719C79.91,67.372 76.352,66.919 76.313,65.688C76.278,64.618 79.011,66.084 79.656,64.781C80.332,63.417 78.231,60.975 79.406,59.5C80.851,57.687 84.71,61.24 86.125,57.844C87.31,54.999 81.891,49.206 79.25,43.75C77.885,40.93 80.321,37.984 80.406,34.719C80.872,16.909 66.538,6.273 49.844,5.125C48.727,5.048 47.614,5.002 46.5,5ZM48,17.25C55.585,17.144 62.972,21.137 69.156,30.219C54.983,46.039 37.17,48.347 24.281,30.219C31.616,22.118 39.926,17.363 48,17.25Z" style="fill-rule:nonzero;"/>
        </g>
        <g transform="matrix(1,0,0,1,0,-12.5)">
            <path d="M46.719,20.219C41.224,20.219 36.75,24.664 36.75,30.156C36.75,35.651 41.223,40.125 46.719,40.125C52.213,40.125 56.656,35.652 56.656,30.156C56.656,24.662 52.211,20.219 46.719,20.219ZM49.688,27.156C51.732,27.156 53.375,28.799 53.375,30.844C53.375,32.889 51.732,34.563 49.688,34.563C47.643,34.563 46,32.889 46,30.844C46,28.799 47.643,27.156 49.688,27.156Z" style="fill-rule:nonzero;"/>
        </g>
    </g>
</svg>
