<?xml version="1.0" encoding="UTF-8" standalone="no"?>
<!DOCTYPE svg PUBLIC "-//W3C//DTD SVG 1.1//EN" "http://www.w3.org/Graphics/SVG/1.1/DTD/svg11.dtd">
<svg width="100%" height="100%" viewBox="0 0 100 100" version="1.1" xmlns="http://www.w3.org/2000/svg" xmlns:xlink="http://www.w3.org/1999/xlink" xml:space="preserve" xmlns:serif="http://www.serif.com/" style="fill-rule:evenodd;clip-rule:evenodd;stroke-linejoin:round;stroke-miterlimit:2;">
    <g transform="matrix(0.307249,0,0,0.307249,8.21409,8.21409)">
        <path d="M122,0C151,26 131,39 147,51C156,26 170,39 165,2C184,36 162,42 172,59C189,37 198,54 205,18C213,56 189,55 195,74C217,59 220,77 238,45C234,84 212,75 211,95C237,88 235,106 262,81C245,116 227,102 220,120C247,121 239,138 272,122C246,151 233,131 221,147C247,156 233,170 270,165C236,184 230,162 214,172C235,189 218,198 255,205C217,213 218,189 199,195C214,217 195,220 227,238C189,234 197,212 178,211C185,237 166,235 191,262C156,245 171,227 153,220C151,247 134,239 150,272C122,246 141,233 126,221C116,247 103,233 107,270C88,236 111,230 100,214C83,235 74,218 67,255C60,217 83,218 78,199C55,214 52,195 34,227C39,189 61,197 62,178C35,185 38,166 11,191C27,156 46,171 52,153C25,151 33,134 0,150C26,122 39,141 51,126C26,116 39,103 2,107C36,88 42,111 59,100C37,83 54,74 18,67C56,60 55,83 74,78C59,55 77,52 45,34C84,39 75,61 95,62C88,35 106,38 81,11C116,27 102,46 120,52C121,25 138,33 122,0ZM136,67C174,67 205,98 205,136C205,174 174,205 136,205C98,205 67,174 67,136C67,98 98,67 136,67Z"/>
    </g>
</svg>
