<?xml version="1.0" encoding="UTF-8" standalone="no"?>
<!DOCTYPE svg PUBLIC "-//W3C//DTD SVG 1.1//EN" "http://www.w3.org/Graphics/SVG/1.1/DTD/svg11.dtd">
<svg width="100%" height="100%" viewBox="0 0 100 100" version="1.1" xmlns="http://www.w3.org/2000/svg" xmlns:xlink="http://www.w3.org/1999/xlink" xml:space="preserve" xmlns:serif="http://www.serif.com/" style="fill-rule:evenodd;clip-rule:evenodd;stroke-linejoin:round;stroke-miterlimit:2;">
    <g transform="matrix(1,0,0,1,0.0375,-0.0523934)">
        <path d="M57.3,18.2C57,30.5 46.8,43.9 38.7,52.7C35.9,50.7 33.2,48.7 31.4,46.4C30.3,45 28.4,44.8 27,45.9C25.7,47 25.4,48.9 26.5,50.3C28.7,53.1 31.5,55.3 34.3,57.3C34.5,57.4 34.6,57.5 34.8,57.7L23,69.5C22.2,68.4 21.5,67.4 20.9,66.4C20,64.9 18.1,64.5 16.6,65.4C15.1,66.3 14.7,68.2 15.6,69.7C16,70.3 16.7,71.4 17.7,72.8C16.4,73 15.1,73.6 14.1,74.6C11.6,77.1 11.6,81 14.1,83.5C16.6,86 20.5,86 23,83.5C23.7,82.8 24.1,82.1 24.4,81.2C24.7,81.6 25.1,81.9 25.4,82.3C28.4,85.3 31.8,87.8 34.9,88.4C40,89 45.9,87 49.7,83C53.3,79.3 54.7,74.4 53.6,69.3C52.7,65.1 50.4,62 47.5,59.3C86,37.4 87.7,11.6 87.7,11.6C76.1,23.2 57.3,18.2 57.3,18.2ZM47.6,70.6C48.4,74.5 46.8,77.1 45.3,78.7C42.9,81.2 39.1,82.5 36.1,82C33.9,81.6 30.6,78.6 27.5,75L40.8,61.7C41.1,61.9 41.4,62.2 41.7,62.4C44.6,64.8 46.9,67.4 47.6,70.6Z" style="fill-rule:nonzero;"/>
    </g>
</svg>
