<?xml version="1.0" encoding="UTF-8" standalone="no"?>
<!DOCTYPE svg PUBLIC "-//W3C//DTD SVG 1.1//EN" "http://www.w3.org/Graphics/SVG/1.1/DTD/svg11.dtd">
<svg width="100%" height="100%" viewBox="0 0 100 100" version="1.1" xmlns="http://www.w3.org/2000/svg" xmlns:xlink="http://www.w3.org/1999/xlink" xml:space="preserve" xmlns:serif="http://www.serif.com/" style="fill-rule:evenodd;clip-rule:evenodd;stroke-linejoin:round;stroke-miterlimit:2;">
    <g transform="matrix(2.80618,0,0,2.80618,5.1011,5.1011)">
        <path d="M4,20C3.451,20 3,19.549 3,19L3,13C3,12.451 3.451,12 4,12C4.549,12 5,12.451 5,13L5,19C5,19.549 4.549,20 4,20Z" style="fill-rule:nonzero;"/>
        <path d="M8,23C7.451,23 7,22.549 7,22L7,10C7,9.451 7.451,9 8,9C8.549,9 9,9.451 9,10L9,22C9,22.549 8.549,23 8,23Z" style="fill-rule:nonzero;"/>
        <path d="M12,20C11.451,20 11,19.549 11,19L11,13C11,12.451 11.451,12 12,12C12.549,12 13,12.451 13,13L13,19C13,19.549 12.549,20 12,20Z" style="fill-rule:nonzero;"/>
        <path d="M16,24C15.451,24 15,23.549 15,23L15,9C15,8.451 15.451,8 16,8C16.549,8 17,8.451 17,9L17,23C17,23.549 16.549,24 16,24Z" style="fill-rule:nonzero;"/>
        <path d="M20,27C19.451,27 19,26.549 19,26L19,6C19,5.451 19.451,5 20,5C20.549,5 21,5.451 21,6L21,26C21,26.549 20.549,27 20,27Z" style="fill-rule:nonzero;"/>
        <path d="M24,23C23.451,23 23,22.549 23,22L23,10C23,9.451 23.451,9 24,9C24.549,9 25,9.451 25,10L25,22C25,22.549 24.549,23 24,23Z" style="fill-rule:nonzero;"/>
        <path d="M28,19C27.451,19 27,18.549 27,18L27,14C27,13.451 27.451,13 28,13C28.549,13 29,13.451 29,14L29,18C29,18.549 28.549,19 28,19Z" style="fill-rule:nonzero;"/>
    </g>
</svg>
