<?xml version="1.0" encoding="UTF-8" standalone="no"?>
<!DOCTYPE svg PUBLIC "-//W3C//DTD SVG 1.1//EN" "http://www.w3.org/Graphics/SVG/1.1/DTD/svg11.dtd">
<svg width="100%" height="100%" viewBox="0 0 512 512" version="1.1" xmlns="http://www.w3.org/2000/svg" xmlns:xlink="http://www.w3.org/1999/xlink" xml:space="preserve" xmlns:serif="http://www.serif.com/" style="fill-rule:evenodd;clip-rule:evenodd;stroke-linejoin:round;stroke-miterlimit:2;">
    <path d="M441.304,276.424C452.577,265.151 452.577,246.848 441.305,235.576L276.424,70.695C265.151,59.423 246.849,59.423 235.576,70.696L70.695,235.577C59.423,246.849 59.423,265.151 70.695,276.424L235.576,441.305C246.848,452.577 265.151,452.577 276.423,441.305L441.304,276.424ZM161.101,211.18C185.868,211.18 205.975,231.287 205.975,256.054C205.975,280.821 185.868,300.928 161.101,300.928C136.334,300.928 116.227,280.821 116.227,256.054C116.227,231.287 136.334,211.18 161.101,211.18ZM351.189,211.18C375.956,211.18 396.063,231.287 396.063,256.054C396.063,280.821 375.956,300.928 351.189,300.928C326.422,300.928 306.315,280.821 306.315,256.054C306.315,231.287 326.422,211.18 351.189,211.18Z" style="fill:white;"/>
    <path d="M86.66,442.984L101.446,498.166C104.025,507.788 113.93,513.507 123.552,510.929L228.738,482.745L226.427,480.434L86.66,442.984ZM480.435,285.572L442.985,425.338L498.166,410.552C507.788,407.974 513.507,398.068 510.928,388.446L482.745,283.262L480.435,285.572ZM69.016,86.659L13.832,101.446C4.21,104.024 -1.509,113.929 1.069,123.552L29.254,228.739L31.565,226.428L69.016,86.659ZM285.574,31.566L425.338,69.016L410.551,13.832C407.973,4.209 398.068,-1.51 388.446,1.069L283.26,29.253L285.574,31.566Z" style="fill:white;"/>
    <path d="M441.13,324.876L295.765,470.241L378.877,492.511C387.804,494.903 396.993,489.597 399.385,480.67L441.13,324.876ZM41.76,295.767L19.49,378.878C17.098,387.805 22.404,396.994 31.331,399.386L187.124,441.131L41.76,295.767ZM324.88,70.873L470.241,216.233L492.51,133.124C494.901,124.198 489.596,115.008 480.668,112.616L324.88,70.873ZM70.87,187.123L216.232,41.761L133.123,19.492C124.195,17.1 115.006,22.406 112.614,31.332L70.87,187.123Z" style="fill:white;"/>
</svg>
