<?xml version="1.0" encoding="UTF-8" standalone="no"?>
<!DOCTYPE svg PUBLIC "-//W3C//DTD SVG 1.1//EN" "http://www.w3.org/Graphics/SVG/1.1/DTD/svg11.dtd">
<svg width="100%" height="100%" viewBox="0 0 350 350" version="1.1" xmlns="http://www.w3.org/2000/svg" xmlns:xlink="http://www.w3.org/1999/xlink" xml:space="preserve" xmlns:serif="http://www.serif.com/" style="fill-rule:evenodd;clip-rule:evenodd;stroke-linejoin:round;stroke-miterlimit:2;">
    <g id="Layer-1" serif:id="Layer 1" transform="matrix(1.10658,0,0,1.10658,-18.6845,-19.393)">
        <path id="path836" d="M38.794,31.836C34.971,31.836 31.836,34.945 31.836,38.759L31.836,311.241C31.836,315.055 34.971,318.164 38.794,318.164L311.206,318.164C315.029,318.164 318.164,315.055 318.164,311.241L318.164,38.759C318.164,34.945 315.029,31.836 311.206,31.836L38.794,31.836ZM38.794,34.963L311.206,34.963C313.363,34.963 315.037,36.634 315.037,38.759L315.037,311.241C315.037,313.366 313.363,315.037 311.206,315.037L38.794,315.037C36.637,315.037 34.963,313.366 34.963,311.241L34.963,38.759C34.963,36.634 36.637,34.963 38.794,34.963Z" style="fill:rgb(223,202,162);fill-rule:nonzero;"/>
        <path id="path4646" d="M98.109,332.06C99.201,332.052 100.306,331.98 100.884,331.844C102.631,331.433 103.863,330.786 105.013,329.683C106.186,328.556 106.794,327.496 107.281,325.714C107.46,325.057 107.483,324.741 107.485,323.082C107.485,321.456 107.458,321.073 107.281,320.304C106.803,318.228 105.863,316.012 104.756,314.346C104.009,313.222 102.667,311.873 101.58,311.15C99.361,309.676 96.699,308.849 93.601,308.673C92.731,308.623 92.567,308.594 92.821,308.535C91.711,308.043 82.454,309.99 82.014,310.127C79.401,310.954 74.866,312.524 73.784,312.978C73.429,313.127 69.154,314.695 68.174,315.036C64.472,316.322 63.723,316.572 61.921,317.119C58.109,318.276 54.722,319.048 51.427,319.512C50.091,319.7 49.575,319.725 46.841,319.722C43.578,319.718 42.807,319.643 40.773,319.127C38.097,318.447 35.614,317.225 33.691,315.64L35.908,319.158C39.722,321.644 45.219,322.804 51.036,322.347C54.302,322.091 57.388,321.451 62.153,320.048C63.955,319.517 66.802,318.519 74.016,315.878C80.41,313.538 82.161,312.945 84.773,312.245C93.185,309.989 99.201,310.548 103.127,313.949C105.401,315.919 106.571,318.857 106.247,321.786C106.157,322.6 105.87,323.837 105.692,324.18C105.651,324.259 105.483,324.593 105.32,324.922C104.886,325.797 104.552,326.266 103.819,327.021C103.047,327.817 102.4,328.28 101.197,328.891C99.542,329.731 98.148,330.032 96.314,329.95C94.657,329.875 93.453,329.492 92.147,328.625C90.752,327.698 89.962,326.115 89.955,324.217C89.947,322.661 90.368,321.573 91.345,320.599C92.043,319.904 92.661,319.574 93.754,319.318C95.085,319.007 96.42,319.176 97.369,319.778C97.61,319.931 97.79,320.075 97.77,320.095C97.751,320.114 97.553,320.089 97.332,320.038C96.095,319.761 94.888,320.629 94.776,321.877C94.716,322.536 94.856,323.037 95.217,323.475C96.035,324.465 97.606,324.512 98.431,323.572C98.861,323.083 98.981,322.694 98.979,321.808C98.977,320.371 98.57,319.256 97.745,318.431C96.278,316.964 93.33,316.572 91.502,317.601C90.84,317.974 90.005,318.795 89.622,319.453C88.916,320.666 88.651,322.305 88.896,323.938C89.233,326.182 90.282,328.303 91.797,329.799C92.916,330.906 94.035,331.552 95.408,331.886C95.936,332.014 97.016,332.069 98.109,332.061L98.109,332.06ZM51.656,326.234C53.231,326.176 54.858,325.996 56.452,325.692C62.203,324.595 66.408,323.275 77.785,318.994C86.177,315.837 89.133,314.942 92.589,314.521C93.931,314.358 96.184,314.38 97.225,314.565C100.465,315.139 102.539,316.809 103.393,319.539C103.789,320.804 103.73,322.79 103.261,324.037C103.146,324.345 103.023,324.679 102.985,324.78C102.948,324.881 103.041,324.779 103.189,324.551C104.017,323.28 104.355,321.114 103.994,319.401C103.177,315.522 100.177,313.202 95.442,312.785L95.44,312.785C93.549,312.62 90.818,312.83 88.338,313.334C84.811,314.051 81.018,315.252 72.819,318.252C63.146,321.791 58.736,323.131 53.601,324.088C51.679,324.445 48.427,324.555 46.337,324.332C44.122,324.095 41.961,323.594 40.025,322.869C37.011,321.74 34.44,320.267 32.895,318.784C32.106,318.027 31.301,317.401 31.301,317.544C31.301,317.694 31.826,318.348 32.566,319.135L36.14,322.026C37.077,322.64 38.639,323.505 39.714,323.972C42.14,325.023 44.372,325.64 47.164,326.03C48.557,326.224 50.081,326.291 51.656,326.233L51.656,326.234ZM46.801,318.387C49.334,318.44 52.051,318.15 54.795,317.519C55.814,317.284 58.187,316.541 58.751,316.278C58.853,316.231 59.203,316.081 59.531,315.946C61.753,315.037 64.432,313.308 65.756,311.93C66.452,311.205 67.146,310.152 67.519,309.255C69.104,305.448 67.647,301.984 64.083,301.092L64.083,301.095C60.964,300.314 57.792,302.534 57.786,305.502C57.784,306.734 58.315,307.699 59.296,308.24C59.898,308.571 60.186,308.565 59.694,308.231C58.737,307.581 58.506,306.259 59.162,305.199C59.469,304.701 60.193,304.091 60.869,303.761C61.459,303.473 61.575,303.448 62.382,303.448C63.131,303.448 63.329,303.48 63.766,303.686C64.922,304.228 65.413,304.98 65.414,306.198C65.416,307.659 64.717,309.229 63.375,310.771C61.753,312.636 57.174,315.054 53.047,316.228C49.988,317.099 47.853,317.408 44.865,317.412C42.147,317.416 40.922,317.25 38.813,316.592C37.946,316.321 37.748,316.306 38.242,316.548C39.378,317.103 40.866,317.583 42.475,317.917C43.827,318.198 45.28,318.355 46.801,318.387L46.801,318.387ZM37.024,315.89C37.054,315.878 36.931,315.768 36.664,315.555C35.164,314.363 33.77,312.402 33.118,310.574C32.642,309.242 32.554,308.76 32.551,307.448C32.543,305.665 32.907,304.52 33.96,302.987C34.511,302.186 34.845,301.527 34.985,300.973C35.126,300.411 34.914,299.792 34.487,299.532C34.127,299.313 33.843,299.312 33.365,299.529C32.24,300.04 31.149,302.373 30.928,304.744C30.529,309.037 32.917,313.734 36.463,315.63C36.808,315.814 36.993,315.902 37.024,315.89L37.024,315.89ZM35.263,312.551L35.213,312.275C34.98,310.989 34.949,310.441 35.06,309.675C35.266,308.249 35.933,307.071 37.055,306.154C37.78,305.561 38.014,305.231 38.014,304.798C38.014,304.437 37.664,303.941 37.274,303.745C36.866,303.54 36.776,303.543 36.294,303.776C35.468,304.176 34.449,305.675 34.242,306.793C34.105,307.533 34.132,309.111 34.296,309.897C34.446,310.623 34.874,311.877 35.12,312.303L35.263,312.551Z" style="fill:rgb(223,202,162);fill-rule:nonzero;"/>
        <path id="path844" d="M252.495,332.06C251.403,332.052 250.297,331.98 249.719,331.844C247.972,331.433 246.74,330.786 245.591,329.683C244.418,328.556 243.81,327.496 243.323,325.714C243.144,325.057 243.12,324.741 243.119,323.082C243.118,321.456 243.145,321.073 243.323,320.304C243.801,318.228 244.74,316.012 245.848,314.346C246.594,313.222 247.936,311.873 249.024,311.15C251.243,309.676 253.905,308.849 257.003,308.673C257.872,308.623 258.036,308.594 257.783,308.535C258.893,308.043 268.149,309.99 268.59,310.127C271.202,310.954 275.738,312.524 276.819,312.978C277.174,313.127 281.449,314.695 282.43,315.036C286.132,316.322 286.88,316.572 288.682,317.119C292.494,318.276 295.882,319.048 299.176,319.512C300.513,319.7 301.029,319.725 303.762,319.722C307.026,319.718 307.797,319.643 309.83,319.127C312.507,318.447 314.989,317.225 316.913,315.64L314.695,319.158C310.882,321.644 305.385,322.804 299.568,322.347C296.302,322.091 293.216,321.451 288.45,320.048C286.649,319.517 283.801,318.519 276.588,315.878C270.193,313.538 268.443,312.945 265.83,312.245C257.418,309.989 251.402,310.548 247.477,313.949C245.202,315.919 244.032,318.857 244.357,321.786C244.447,322.6 244.733,323.837 244.911,324.18C244.952,324.259 245.121,324.593 245.284,324.922C245.717,325.797 246.052,326.266 246.784,327.021C247.556,327.817 248.204,328.28 249.406,328.891C251.061,329.731 252.455,330.032 254.29,329.95C255.946,329.875 257.15,329.492 258.456,328.625C259.851,327.698 260.641,326.115 260.649,324.217C260.657,322.661 260.236,321.573 259.258,320.599C258.56,319.904 257.943,319.574 256.849,319.318C255.518,319.007 254.184,319.176 253.234,319.778C252.993,319.931 252.813,320.075 252.833,320.095C252.852,320.114 253.051,320.089 253.272,320.038C254.508,319.761 255.716,320.629 255.828,321.877C255.888,322.536 255.748,323.037 255.386,323.475C254.569,324.465 252.998,324.512 252.172,323.572C251.743,323.083 251.622,322.694 251.624,321.808C251.627,320.371 252.034,319.256 252.858,318.431C254.326,316.964 257.273,316.572 259.101,317.601C259.763,317.974 260.598,318.795 260.981,319.453C261.687,320.666 261.953,322.305 261.708,323.938C261.371,326.182 260.322,328.303 258.807,329.799C257.687,330.906 256.568,331.552 255.195,331.886C254.668,332.014 253.587,332.069 252.495,332.061L252.495,332.06ZM298.948,326.234C297.372,326.176 295.745,325.996 294.152,325.692C288.4,324.595 284.196,323.275 272.819,318.994C264.427,315.837 261.47,314.942 258.014,314.521C256.673,314.358 254.419,314.38 253.378,314.565C250.138,315.139 248.065,316.809 247.21,319.539C246.814,320.804 246.873,322.79 247.342,324.037C247.457,324.345 247.581,324.679 247.618,324.78C247.656,324.881 247.563,324.779 247.414,324.551C246.587,323.28 246.249,321.114 246.609,319.401C247.426,315.522 250.426,313.202 255.161,312.785L255.164,312.785C257.055,312.62 259.785,312.83 262.265,313.334C265.793,314.051 269.585,315.252 277.784,318.252C287.457,321.791 291.867,323.131 297.002,324.088C298.924,324.445 302.176,324.555 304.267,324.332C306.482,324.095 308.643,323.594 310.579,322.869C313.593,321.74 316.163,320.267 317.708,318.784C318.497,318.027 319.303,317.401 319.303,317.544C319.303,317.694 318.777,318.348 318.037,319.135L314.463,322.026C313.527,322.64 311.964,323.505 310.889,323.972C308.464,325.023 306.232,325.64 303.44,326.03C302.047,326.224 300.523,326.291 298.948,326.233L298.948,326.234ZM303.803,318.387C301.269,318.44 298.552,318.15 295.809,317.519C294.789,317.284 292.417,316.541 291.852,316.278C291.751,316.231 291.401,316.081 291.072,315.946C288.85,315.037 286.171,313.308 284.848,311.93C284.152,311.205 283.458,310.152 283.084,309.255C281.499,305.448 282.956,301.984 286.521,301.092L286.521,301.095C289.64,300.314 292.811,302.534 292.817,305.502C292.819,306.734 292.288,307.699 291.307,308.24C290.706,308.571 290.418,308.565 290.909,308.231C291.866,307.581 292.097,306.259 291.442,305.199C291.134,304.701 290.41,304.091 289.735,303.761C289.145,303.473 289.028,303.448 288.222,303.448C287.473,303.448 287.274,303.48 286.837,303.686C285.681,304.228 285.191,304.98 285.189,306.198C285.187,307.659 285.887,309.229 287.229,310.771C288.85,312.636 293.429,315.054 297.557,316.228C300.616,317.099 302.75,317.408 305.739,317.412C308.456,317.416 309.681,317.25 311.791,316.592C312.657,316.321 312.856,316.306 312.361,316.548C311.226,317.103 309.737,317.583 308.129,317.917C306.777,318.198 305.323,318.355 303.803,318.387L303.803,318.387ZM313.58,315.89C313.549,315.878 313.672,315.768 313.94,315.555C315.439,314.363 316.833,312.402 317.486,310.574C317.961,309.242 318.05,308.76 318.053,307.448C318.06,305.665 317.697,304.52 316.643,302.987C316.093,302.186 315.758,301.527 315.619,300.973C315.477,300.411 315.689,299.792 316.117,299.532C316.476,299.313 316.761,299.312 317.238,299.529C318.364,300.04 319.455,302.373 319.675,304.744C320.075,309.037 317.687,313.734 314.14,315.63C313.796,315.814 313.611,315.902 313.58,315.89L313.58,315.89ZM315.34,312.551L315.39,312.275C315.624,310.989 315.655,310.441 315.544,309.675C315.338,308.249 314.671,307.071 313.548,306.154C312.823,305.561 312.59,305.231 312.59,304.798C312.59,304.437 312.939,303.941 313.329,303.745C313.737,303.54 313.828,303.543 314.31,303.776C315.135,304.176 316.154,305.675 316.361,306.793C316.499,307.533 316.471,309.111 316.308,309.897C316.158,310.623 315.73,311.877 315.484,312.303L315.34,312.551Z" style="fill:rgb(223,202,162);fill-rule:nonzero;"/>
    </g>
</svg>
