<?xml version="1.0" encoding="UTF-8" standalone="no"?>
<!DOCTYPE svg PUBLIC "-//W3C//DTD SVG 1.1//EN" "http://www.w3.org/Graphics/SVG/1.1/DTD/svg11.dtd">
<svg width="100%" height="100%" viewBox="0 0 512 512" version="1.1" xmlns="http://www.w3.org/2000/svg" xmlns:xlink="http://www.w3.org/1999/xlink" xml:space="preserve" xmlns:serif="http://www.serif.com/" style="fill-rule:evenodd;clip-rule:evenodd;stroke-linejoin:round;stroke-miterlimit:2;">
    <g id="Layer-1" serif:id="Layer 1" transform="matrix(1.06443,0,0,1.06443,-16.4938,-16.4938)">
        <path id="path836" d="M39.242,29.225C33.724,29.225 29.225,33.687 29.225,39.183L29.225,472.817C29.225,478.313 33.724,482.768 39.242,482.768L472.758,482.768C478.276,482.768 482.768,478.313 482.768,472.817L482.768,39.183C482.768,33.687 478.276,29.225 472.758,29.225L39.242,29.225ZM39.242,32.074L472.758,32.074C476.758,32.074 479.926,35.227 479.926,39.183L479.926,472.817C479.926,476.774 476.758,479.926 472.758,479.926L39.242,479.926C35.243,479.926 32.074,476.774 32.074,472.817L32.074,39.183C32.074,35.227 35.243,32.074 39.242,32.074Z" style="fill:rgb(249,204,157);fill-rule:nonzero;"/>
        <path id="path1893" d="M30.564,427.398C30.564,456.279 30.575,479.899 30.587,479.885C30.602,479.87 30.691,479.555 30.791,479.182C30.963,478.535 31.381,477.32 31.845,476.116C31.997,475.724 32.248,475.276 32.688,474.612C35.381,470.548 38.576,465.145 42.921,457.308C43.574,456.13 44.339,454.271 45.014,452.223C45.301,451.353 45.644,449.882 45.841,448.684C46.011,447.648 46.02,447.513 46.016,445.941C46.014,445.032 45.993,444.342 45.965,444.407C45.938,444.472 45.845,444.972 45.757,445.519C45.209,448.908 44.118,452.232 42.549,455.291C40.199,459.875 37.502,463.045 34.165,465.144L33.51,465.555L31.555,465.555L31.593,465.275C31.67,464.696 31.695,454.527 31.627,451.279C31.464,443.49 31.48,441.154 31.719,437.829C31.911,435.158 32.305,432.632 32.807,430.845C33.071,429.905 33.369,429.368 34.132,428.458C35.167,427.225 36.323,426.332 37.118,426.154C37.346,426.103 37.94,426.124 39.59,426.234C39.833,426.253 40.537,426.291 41.153,426.324C41.77,426.358 42.432,426.399 42.624,426.418L42.974,426.452L41.985,425.493C39.81,423.385 38.052,420.923 36.278,417.499C33.643,412.415 31.957,407.181 31.628,403.059C31.544,402.013 31.546,388.298 31.63,387.391C31.753,386.062 32.026,385.045 32.474,384.243C32.704,383.833 33.253,383.277 33.604,383.099C34.379,382.708 35.994,382.522 39.147,382.46C40.756,382.43 41.899,382.333 42.012,382.219C42.039,382.193 42.106,381.904 42.16,381.58C42.315,380.637 42.228,379.048 41.916,377.156C41.741,376.092 41.521,374.972 41.478,374.924C41.455,374.898 41.415,374.977 41.392,375.101C41.265,375.799 40.743,377.738 40.6,378.043C40.393,378.486 40.128,378.793 39.774,379.001C39.554,379.131 39.428,379.161 39.118,379.161C38.764,379.161 38.68,379.135 38.027,378.799C37.286,378.42 36.252,377.83 34.369,376.712C32.783,375.771 31.04,374.884 30.774,374.884L30.564,374.884L30.564,427.398ZM84.984,425.094C83.284,426.088 80.658,427.106 76.187,428.503C71.799,429.875 69.271,430.807 67.463,431.721C65.391,432.768 63.912,433.868 62.823,435.17C61.711,436.501 61.123,437.772 60.709,439.746C59.906,443.569 58.56,447.168 56.59,450.759C54.383,454.781 51.497,458.742 47.937,462.634C47.156,463.487 46.979,463.718 47.505,463.196C47.718,462.985 55.611,455.008 65.045,445.469C74.48,435.93 82.931,427.388 83.827,426.488C84.722,425.588 85.442,424.851 85.426,424.852C85.411,424.853 85.211,424.962 84.984,425.095L84.984,425.094ZM83.778,429.468C82.202,431.035 78.697,434.505 75.988,437.18C71.056,442.049 63.562,449.453 58.91,454.051C57.548,455.398 55.331,457.588 53.984,458.917C50.3,462.555 48.539,464.319 48.999,463.912C49.226,463.71 49.823,463.18 50.326,462.734C54.801,458.759 59.085,455.85 62.81,454.256C63.788,453.838 63.909,453.8 70.089,451.984C72.867,451.168 74.865,450.314 76.085,449.42C76.34,449.233 76.842,448.785 77.202,448.425C79.256,446.364 80.957,443.087 82.212,438.773C84.098,432.288 85.483,428.538 86.651,426.753C86.699,426.68 86.716,426.621 86.69,426.621C86.664,426.621 85.354,427.902 83.778,429.468L83.778,429.468ZM42.569,429.136C41.657,429.24 41.258,429.301 40.829,429.399C38.976,429.826 37.317,430.65 35.862,431.867C34.386,433.102 33.449,434.649 33.04,436.526C32.665,438.249 32.767,439.698 33.424,441.988C34.077,444.261 35.19,446.559 36.157,447.626C36.441,447.94 37.084,448.436 37.138,448.383C37.153,448.368 37.122,448.172 37.076,447.945C36.688,446.095 36.643,443.42 36.972,441.752C37.651,438.306 39.89,436.506 43.375,436.602C44.355,436.629 44.721,436.729 45.402,437.151C46.779,438.004 48.101,440.151 48.528,442.224C48.662,442.878 48.703,444.089 48.621,444.967C48.401,447.313 47.731,449.877 46.356,453.639C45.805,455.146 44.493,458.215 43.391,460.57C42.693,462.066 40.411,466.616 39.886,467.561C37.438,471.969 35.727,474.626 33.796,477.014C33.54,477.331 33.342,477.589 33.356,477.589C33.438,477.589 36.689,473.902 38.115,472.192C45,463.931 49.422,456.721 51.543,450.296C52.186,448.35 52.52,446.95 52.816,444.967C52.94,444.134 52.952,443.853 52.951,441.811C52.95,439.418 52.912,438.913 52.596,437.207C52.022,434.095 50.706,431.794 48.76,430.499C47.633,429.749 46.422,429.332 44.87,429.159C44.377,429.103 42.975,429.09 42.569,429.136L42.569,429.136ZM69.322,458.987C65.888,459.22 63.666,459.674 60.266,460.838C53.418,463.184 45.478,468.074 38.323,474.352C36.911,475.591 33.927,478.393 33.927,478.48C33.927,478.503 34.358,478.231 34.885,477.872C44.332,471.427 51.692,467.314 57.051,465.486C58.488,464.996 60.361,464.612 61.316,464.611C61.822,464.611 62.447,464.467 63.343,464.145C64.158,463.853 64.722,463.744 65.635,463.7C66.024,463.685 66.635,463.627 66.992,463.579C69.444,463.247 70.259,463.232 70.893,463.507C71.829,463.912 72.666,464.531 73.78,465.642C74.631,466.491 75.053,467.047 75.281,467.621C75.398,467.913 75.407,468.021 75.382,468.741C75.339,469.926 75.098,470.66 74.438,471.619C73.229,473.374 70.463,474.723 67.394,475.055C66.434,475.159 64.313,475.099 63.673,474.949C63.406,474.887 63.187,474.842 63.187,474.849C63.187,474.864 64.652,475.794 65.664,476.424C68.969,478.478 71.182,479.194 73.953,479.107C75.392,479.062 76.323,478.775 77.426,478.036C78.399,477.386 79.204,476.507 80.133,475.082C81.575,472.87 82.223,471.038 82.424,468.599C82.594,466.541 82.166,464.687 81.184,463.232C79.967,461.429 77.639,460.042 74.749,459.398C73.251,459.065 70.853,458.883 69.322,458.987L69.322,458.987ZM63.216,466.243C59.794,466.65 56.483,467.689 52.48,469.613C49.099,471.237 45.395,473.438 37.989,478.222C37.385,478.613 36.747,478.979 36.573,479.037C35.874,479.267 31.725,480.954 31.631,481.046C31.616,481.061 55.157,481.069 83.942,481.069L136.277,481.069L136.277,479.137L135.992,478.702C135.834,478.462 135.403,477.892 135.033,477.434C134.663,476.976 134.104,476.285 133.79,475.897C132.662,474.502 132.033,473.436 131.983,472.837C131.873,471.516 133.183,470.759 135.966,470.533L136.452,470.495L136.143,470.308C135.974,470.205 135.702,470.019 135.54,469.894C134.939,469.433 135.059,469.448 132.055,469.448L129.375,469.448L129.375,469.669C129.375,471.181 128.835,476.68 128.635,477.217C128.501,477.573 127.94,478.069 127.319,478.379C126.384,478.846 125.301,479.138 123.477,479.414C121.012,479.787 119.769,479.869 115.217,479.953C110.732,480.037 107.091,480 106.31,479.865C105.048,479.646 103.16,479.085 101.03,478.295C96.722,476.698 93.174,475.136 91.237,473.983C89.399,472.89 87.339,470.966 85.638,468.754C85.381,468.421 85.166,468.156 85.158,468.164C85.151,468.176 85.173,468.684 85.202,469.3C85.335,471.874 85.076,474.702 84.625,475.595C84.122,476.591 83.137,477.454 81.564,478.278C79.534,479.342 77.984,479.841 76.371,479.952C75.794,479.991 70.583,480.006 61.358,479.995L47.229,479.98L46.937,479.845C46.777,479.771 46.502,479.602 46.327,479.47L46.008,479.23L46.031,478.307C46.054,477.479 46.073,477.342 46.215,476.977C47.081,474.754 50.986,471.795 57.02,468.786C59.347,467.625 62.516,466.381 62.934,466.464C63.03,466.483 63.265,466.438 63.509,466.354L63.922,466.213L63.656,466.216C63.511,466.218 63.311,466.231 63.214,466.243L63.216,466.243Z" style="fill:rgb(249,204,157);fill-rule:nonzero;"/>
        <path id="path2619" d="M406.586,30.226L363.643,31.758C369.801,31.643 375.004,33.116 376.077,33.302C377.81,33.602 380.402,34.373 383.326,35.457C387.344,37.204 396.083,51.416 399.875,49.331C399.692,45.798 400.862,44.456 401.481,43.23C402.172,41.861 407.893,36.612 410.052,35.481C412.84,34.02 421.221,32.245 423.435,32.094L406.586,30.226Z" style="fill:rgb(249,204,157);fill-rule:nonzero;"/>
    </g>
</svg>
