<?xml version="1.0" encoding="UTF-8" standalone="no"?>
<!DOCTYPE svg PUBLIC "-//W3C//DTD SVG 1.1//EN" "http://www.w3.org/Graphics/SVG/1.1/DTD/svg11.dtd">
<svg width="100%" height="100%" viewBox="0 0 150 150" version="1.1" xmlns="http://www.w3.org/2000/svg" xmlns:xlink="http://www.w3.org/1999/xlink" xml:space="preserve" xmlns:serif="http://www.serif.com/" style="fill-rule:evenodd;clip-rule:evenodd;stroke-linejoin:round;stroke-miterlimit:2;">
    <g id="Layer-1" serif:id="Layer 1">
        <g id="path3396" transform="matrix(1.57468,-0.316708,0.316708,1.57468,-36.8314,-23.7521)">
            <path d="M26.33,20.9L26.358,21.309C26.361,21.354 26.376,21.841 26.386,22.392L26.405,23.394L26.691,23.606C27.56,24.253 28.144,25.203 28.374,26.35C28.467,26.815 28.492,27.078 28.492,27.598C28.491,28.096 28.471,28.355 28.387,28.917C28.355,29.125 28.336,29.301 28.343,29.309C28.351,29.317 28.366,29.276 28.375,29.218C28.813,29.489 29.062,29.306 29.355,31.206C29.339,31.223 29.427,31.842 29.496,32.195C29.742,33.45 30.238,34.932 30.912,36.423C31.028,36.678 31.129,36.91 31.137,36.937C31.15,36.982 31.133,36.984 30.895,36.967C30.565,36.945 29.655,36.997 29.167,37.067C28.25,37.199 27.433,37.444 26.684,37.813C26.224,38.04 25.593,38.434 25.365,38.638L25.246,38.744L25.168,39.208C24.979,40.337 24.911,41.3 24.931,42.576C24.953,43.914 25.057,44.828 25.36,46.337C25.655,47.809 25.73,48.387 25.707,49.025C25.691,49.457 25.64,49.714 25.52,49.954C25.268,50.456 24.731,50.789 24.173,50.789C23.75,50.788 23.295,50.603 23.006,50.314C22.392,49.701 22.419,48.635 23.06,48.194C23.592,47.828 24.425,47.979 24.654,48.482C24.803,48.812 24.631,49.291 24.36,49.299L24.255,49.301L24.265,49.108C24.273,48.93 24.268,48.908 24.198,48.825C24.103,48.712 23.981,48.66 23.817,48.66C23.57,48.66 23.421,48.832 23.42,49.12C23.418,49.547 23.811,49.827 24.306,49.748C24.517,49.714 24.696,49.619 24.834,49.469C25.06,49.224 25.149,48.937 25.149,48.441C25.15,48.026 25.15,48.025 24.65,45.521C24.412,44.328 24.187,43.174 24.149,42.957C24.029,42.257 23.965,41.589 23.946,40.842L23.928,40.133L23.734,40.42C22.959,41.565 22.38,43.049 22.129,44.536C22.092,44.759 22.052,45.072 22.042,45.232C22.031,45.392 22.015,45.529 22.005,45.535C21.981,45.549 21.655,44.677 21.526,44.253C21.331,43.61 21.203,42.995 21.113,42.275C21.045,41.72 21.045,40.406 21.114,39.846C21.269,38.593 21.576,37.422 22.084,36.152C22.319,35.564 22.532,35.093 23.028,34.062C24.028,31.982 24.599,30.487 25.033,28.815L25.167,28.295L24.807,27.925C23.969,27.064 23.417,26.142 23.245,25.312C23.182,25.006 23.187,24.528 23.257,24.258C23.446,23.526 24.039,22.995 24.729,22.94C24.968,22.922 25.392,22.979 25.646,23.063C25.769,23.104 25.815,23.109 25.832,23.084C25.862,23.041 25.835,20.841 25.798,20.35L26.33,20.9ZM22.85,39.464C22.85,39.488 22.916,39.385 22.995,39.235C23.283,38.689 23.594,38.262 24.043,37.8L24.323,37.511L24.433,37.131C24.805,35.858 25.184,34.944 26.086,33.136C26.617,32.071 26.855,31.522 27.034,30.95C27.144,30.597 27.297,30.01 27.298,29.939C27.298,29.91 27.146,29.79 26.894,29.618C26.673,29.467 26.364,29.247 26.206,29.129C26.049,29.011 25.917,28.916 25.914,28.918C25.911,28.92 25.858,29.173 25.797,29.481C25.464,31.145 24.962,32.833 24.296,34.528C23.68,36.094 23.368,37.05 23.108,38.157C22.993,38.648 22.849,39.376 22.85,39.464L22.85,39.464ZM24.741,25.413C24.733,25.871 24.955,26.45 25.299,26.832C25.429,26.976 25.434,26.979 25.449,26.914C25.504,26.688 25.692,25.283 25.719,24.897L25.728,24.776L25.577,24.728C25.495,24.702 25.351,24.68 25.258,24.679C25.105,24.678 25.079,24.687 24.991,24.764C24.865,24.875 24.799,25.006 24.759,25.225C24.748,25.285 24.743,25.347 24.741,25.413L24.741,25.413ZM25.887,36.537C25.89,36.539 26.07,36.483 26.288,36.41C26.964,36.183 27.565,36.075 28.347,36.04C28.777,36.021 29.473,36.058 29.871,36.122C29.994,36.143 30.097,36.156 30.1,36.153C30.104,36.151 29.979,35.896 29.823,35.59C29.386,34.734 29.1,34.024 28.822,33.109C28.552,32.223 28.391,31.509 28.345,30.994C28.335,30.874 28.323,30.757 28.319,30.735C28.315,30.712 28.309,30.658 28.308,30.613C28.307,30.554 28.286,30.518 28.232,30.486C28.191,30.461 28.146,30.443 28.133,30.446C28.119,30.447 28.054,30.653 27.989,30.9C27.644,32.196 27.295,33.152 26.263,35.618C26.053,36.121 25.884,36.534 25.887,36.537L25.887,36.537ZM26.108,27.629L26.259,27.76C26.462,27.934 27.181,28.499 27.339,28.607C27.408,28.655 27.474,28.686 27.484,28.675C27.494,28.664 27.502,28.403 27.501,28.093C27.5,27.633 27.487,27.464 27.436,27.176C27.299,26.398 27.044,25.854 26.592,25.38C26.481,25.264 26.38,25.169 26.368,25.169C26.357,25.169 26.34,25.252 26.331,25.353L26.331,25.354C26.323,25.455 26.295,25.78 26.271,26.077C26.247,26.373 26.201,26.844 26.168,27.122L26.108,27.629Z" style="fill:rgb(249,204,157);fill-rule:nonzero;"/>
        </g>
        <g id="path33961" serif:id="path3396" transform="matrix(-1.57468,-0.316708,-0.316708,1.57468,187.059,-23.7521)">
            <path d="M26.33,20.9L26.358,21.309C26.361,21.354 26.376,21.841 26.386,22.392L26.405,23.394L26.691,23.606C27.56,24.253 28.144,25.203 28.374,26.35C28.467,26.815 28.492,27.078 28.492,27.598C28.491,28.096 28.471,28.355 28.387,28.917C28.355,29.125 28.336,29.301 28.343,29.309C28.351,29.317 28.366,29.276 28.375,29.218C28.813,29.489 29.062,29.306 29.355,31.206C29.339,31.223 29.427,31.842 29.496,32.195C29.742,33.45 30.238,34.932 30.912,36.423C31.028,36.678 31.129,36.91 31.137,36.937C31.15,36.982 31.133,36.984 30.895,36.967C30.565,36.945 29.655,36.997 29.167,37.067C28.25,37.199 27.433,37.444 26.684,37.813C26.224,38.04 25.593,38.434 25.365,38.638L25.246,38.744L25.168,39.208C24.979,40.337 24.911,41.3 24.931,42.576C24.953,43.914 25.057,44.828 25.36,46.337C25.655,47.809 25.73,48.387 25.707,49.025C25.691,49.457 25.64,49.714 25.52,49.954C25.268,50.456 24.731,50.789 24.173,50.789C23.75,50.788 23.295,50.603 23.006,50.314C22.392,49.701 22.419,48.635 23.06,48.194C23.592,47.828 24.425,47.979 24.654,48.482C24.803,48.812 24.631,49.291 24.36,49.299L24.255,49.301L24.265,49.108C24.273,48.93 24.268,48.908 24.198,48.825C24.103,48.712 23.981,48.66 23.817,48.66C23.57,48.66 23.421,48.832 23.42,49.12C23.418,49.547 23.811,49.827 24.306,49.748C24.517,49.714 24.696,49.619 24.834,49.469C25.06,49.224 25.149,48.937 25.149,48.441C25.15,48.026 25.15,48.025 24.65,45.521C24.412,44.328 24.187,43.174 24.149,42.957C24.029,42.257 23.965,41.589 23.946,40.842L23.928,40.133L23.734,40.42C22.959,41.565 22.38,43.049 22.129,44.536C22.092,44.759 22.052,45.072 22.042,45.232C22.031,45.392 22.015,45.529 22.005,45.535C21.981,45.549 21.655,44.677 21.526,44.253C21.331,43.61 21.203,42.995 21.113,42.275C21.045,41.72 21.045,40.406 21.114,39.846C21.269,38.593 21.576,37.422 22.084,36.152C22.319,35.564 22.532,35.093 23.028,34.062C24.028,31.982 24.599,30.487 25.033,28.815L25.167,28.295L24.807,27.925C23.969,27.064 23.417,26.142 23.245,25.312C23.182,25.006 23.187,24.528 23.257,24.258C23.446,23.526 24.039,22.995 24.729,22.94C24.968,22.922 25.392,22.979 25.646,23.063C25.769,23.104 25.815,23.109 25.832,23.084C25.862,23.041 25.835,20.841 25.798,20.35L26.33,20.9ZM22.85,39.464C22.85,39.488 22.916,39.385 22.995,39.235C23.283,38.689 23.594,38.262 24.043,37.8L24.323,37.511L24.433,37.131C24.805,35.858 25.184,34.944 26.086,33.136C26.617,32.071 26.855,31.522 27.034,30.95C27.144,30.597 27.297,30.01 27.298,29.939C27.298,29.91 27.146,29.79 26.894,29.618C26.673,29.467 26.364,29.247 26.206,29.129C26.049,29.011 25.917,28.916 25.914,28.918C25.911,28.92 25.858,29.173 25.797,29.481C25.464,31.145 24.962,32.833 24.296,34.528C23.68,36.094 23.368,37.05 23.108,38.157C22.993,38.648 22.849,39.376 22.85,39.464L22.85,39.464ZM24.741,25.413C24.733,25.871 24.955,26.45 25.299,26.832C25.429,26.976 25.434,26.979 25.449,26.914C25.504,26.688 25.692,25.283 25.719,24.897L25.728,24.776L25.577,24.728C25.495,24.702 25.351,24.68 25.258,24.679C25.105,24.678 25.079,24.687 24.991,24.764C24.865,24.875 24.799,25.006 24.759,25.225C24.748,25.285 24.743,25.347 24.741,25.413L24.741,25.413ZM25.887,36.537C25.89,36.539 26.07,36.483 26.288,36.41C26.964,36.183 27.565,36.075 28.347,36.04C28.777,36.021 29.473,36.058 29.871,36.122C29.994,36.143 30.097,36.156 30.1,36.153C30.104,36.151 29.979,35.896 29.823,35.59C29.386,34.734 29.1,34.024 28.822,33.109C28.552,32.223 28.391,31.509 28.345,30.994C28.335,30.874 28.323,30.757 28.319,30.735C28.315,30.712 28.309,30.658 28.308,30.613C28.307,30.554 28.286,30.518 28.232,30.486C28.191,30.461 28.146,30.443 28.133,30.446C28.119,30.447 28.054,30.653 27.989,30.9C27.644,32.196 27.295,33.152 26.263,35.618C26.053,36.121 25.884,36.534 25.887,36.537L25.887,36.537ZM26.108,27.629L26.259,27.76C26.462,27.934 27.181,28.499 27.339,28.607C27.408,28.655 27.474,28.686 27.484,28.675C27.494,28.664 27.502,28.403 27.501,28.093C27.5,27.633 27.487,27.464 27.436,27.176C27.299,26.398 27.044,25.854 26.592,25.38C26.481,25.264 26.38,25.169 26.368,25.169C26.357,25.169 26.34,25.252 26.331,25.353L26.331,25.354C26.323,25.455 26.295,25.78 26.271,26.077C26.247,26.373 26.201,26.844 26.168,27.122L26.108,27.629Z" style="fill:rgb(249,204,157);fill-rule:nonzero;"/>
        </g>
        <g id="path33962" serif:id="path3396" transform="matrix(1.57468,0.316708,0.316708,-1.57468,-36.8314,173.855)">
            <path d="M26.33,20.9L26.358,21.309C26.361,21.354 26.376,21.841 26.386,22.392L26.405,23.394L26.691,23.606C27.56,24.253 28.144,25.203 28.374,26.35C28.467,26.815 28.492,27.078 28.492,27.598C28.491,28.096 28.471,28.355 28.387,28.917C28.355,29.125 28.336,29.301 28.343,29.309C28.351,29.317 28.366,29.276 28.375,29.218C28.813,29.489 29.062,29.306 29.355,31.206C29.339,31.223 29.427,31.842 29.496,32.195C29.742,33.45 30.238,34.932 30.912,36.423C31.028,36.678 31.129,36.91 31.137,36.937C31.15,36.982 31.133,36.984 30.895,36.967C30.565,36.945 29.655,36.997 29.167,37.067C28.25,37.199 27.433,37.444 26.684,37.813C26.224,38.04 25.593,38.434 25.365,38.638L25.246,38.744L25.168,39.208C24.979,40.337 24.911,41.3 24.931,42.576C24.953,43.914 25.057,44.828 25.36,46.337C25.655,47.809 25.73,48.387 25.707,49.025C25.691,49.457 25.64,49.714 25.52,49.954C25.268,50.456 24.731,50.789 24.173,50.789C23.75,50.788 23.295,50.603 23.006,50.314C22.392,49.701 22.419,48.635 23.06,48.194C23.592,47.828 24.425,47.979 24.654,48.482C24.803,48.812 24.631,49.291 24.36,49.299L24.255,49.301L24.265,49.108C24.273,48.93 24.268,48.908 24.198,48.825C24.103,48.712 23.981,48.66 23.817,48.66C23.57,48.66 23.421,48.832 23.42,49.12C23.418,49.547 23.811,49.827 24.306,49.748C24.517,49.714 24.696,49.619 24.834,49.469C25.06,49.224 25.149,48.937 25.149,48.441C25.15,48.026 25.15,48.025 24.65,45.521C24.412,44.328 24.187,43.174 24.149,42.957C24.029,42.257 23.965,41.589 23.946,40.842L23.928,40.133L23.734,40.42C22.959,41.565 22.38,43.049 22.129,44.536C22.092,44.759 22.052,45.072 22.042,45.232C22.031,45.392 22.015,45.529 22.005,45.535C21.981,45.549 21.655,44.677 21.526,44.253C21.331,43.61 21.203,42.995 21.113,42.275C21.045,41.72 21.045,40.406 21.114,39.846C21.269,38.593 21.576,37.422 22.084,36.152C22.319,35.564 22.532,35.093 23.028,34.062C24.028,31.982 24.599,30.487 25.033,28.815L25.167,28.295L24.807,27.925C23.969,27.064 23.417,26.142 23.245,25.312C23.182,25.006 23.187,24.528 23.257,24.258C23.446,23.526 24.039,22.995 24.729,22.94C24.968,22.922 25.392,22.979 25.646,23.063C25.769,23.104 25.815,23.109 25.832,23.084C25.862,23.041 25.835,20.841 25.798,20.35L26.33,20.9ZM22.85,39.464C22.85,39.488 22.916,39.385 22.995,39.235C23.283,38.689 23.594,38.262 24.043,37.8L24.323,37.511L24.433,37.131C24.805,35.858 25.184,34.944 26.086,33.136C26.617,32.071 26.855,31.522 27.034,30.95C27.144,30.597 27.297,30.01 27.298,29.939C27.298,29.91 27.146,29.79 26.894,29.618C26.673,29.467 26.364,29.247 26.206,29.129C26.049,29.011 25.917,28.916 25.914,28.918C25.911,28.92 25.858,29.173 25.797,29.481C25.464,31.145 24.962,32.833 24.296,34.528C23.68,36.094 23.368,37.05 23.108,38.157C22.993,38.648 22.849,39.376 22.85,39.464L22.85,39.464ZM24.741,25.413C24.733,25.871 24.955,26.45 25.299,26.832C25.429,26.976 25.434,26.979 25.449,26.914C25.504,26.688 25.692,25.283 25.719,24.897L25.728,24.776L25.577,24.728C25.495,24.702 25.351,24.68 25.258,24.679C25.105,24.678 25.079,24.687 24.991,24.764C24.865,24.875 24.799,25.006 24.759,25.225C24.748,25.285 24.743,25.347 24.741,25.413L24.741,25.413ZM25.887,36.537C25.89,36.539 26.07,36.483 26.288,36.41C26.964,36.183 27.565,36.075 28.347,36.04C28.777,36.021 29.473,36.058 29.871,36.122C29.994,36.143 30.097,36.156 30.1,36.153C30.104,36.151 29.979,35.896 29.823,35.59C29.386,34.734 29.1,34.024 28.822,33.109C28.552,32.223 28.391,31.509 28.345,30.994C28.335,30.874 28.323,30.757 28.319,30.735C28.315,30.712 28.309,30.658 28.308,30.613C28.307,30.554 28.286,30.518 28.232,30.486C28.191,30.461 28.146,30.443 28.133,30.446C28.119,30.447 28.054,30.653 27.989,30.9C27.644,32.196 27.295,33.152 26.263,35.618C26.053,36.121 25.884,36.534 25.887,36.537L25.887,36.537ZM26.108,27.629L26.259,27.76C26.462,27.934 27.181,28.499 27.339,28.607C27.408,28.655 27.474,28.686 27.484,28.675C27.494,28.664 27.502,28.403 27.501,28.093C27.5,27.633 27.487,27.464 27.436,27.176C27.299,26.398 27.044,25.854 26.592,25.38C26.481,25.264 26.38,25.169 26.368,25.169C26.357,25.169 26.34,25.252 26.331,25.353L26.331,25.354C26.323,25.455 26.295,25.78 26.271,26.077C26.247,26.373 26.201,26.844 26.168,27.122L26.108,27.629Z" style="fill:rgb(249,204,157);fill-rule:nonzero;"/>
        </g>
        <g id="path33963" serif:id="path3396" transform="matrix(-1.57468,0.316708,-0.316708,-1.57468,187.17,173.855)">
            <path d="M26.33,20.9L26.358,21.309C26.361,21.354 26.376,21.841 26.386,22.392L26.405,23.394L26.691,23.606C27.56,24.253 28.144,25.203 28.374,26.35C28.467,26.815 28.492,27.078 28.492,27.598C28.491,28.096 28.471,28.355 28.387,28.917C28.355,29.125 28.336,29.301 28.343,29.309C28.351,29.317 28.366,29.276 28.375,29.218C28.813,29.489 29.062,29.306 29.355,31.206C29.339,31.223 29.427,31.842 29.496,32.195C29.742,33.45 30.238,34.932 30.912,36.423C31.028,36.678 31.129,36.91 31.137,36.937C31.15,36.982 31.133,36.984 30.895,36.967C30.565,36.945 29.655,36.997 29.167,37.067C28.25,37.199 27.433,37.444 26.684,37.813C26.224,38.04 25.593,38.434 25.365,38.638L25.246,38.744L25.168,39.208C24.979,40.337 24.911,41.3 24.931,42.576C24.953,43.914 25.057,44.828 25.36,46.337C25.655,47.809 25.73,48.387 25.707,49.025C25.691,49.457 25.64,49.714 25.52,49.954C25.268,50.456 24.731,50.789 24.173,50.789C23.75,50.788 23.295,50.603 23.006,50.314C22.392,49.701 22.419,48.635 23.06,48.194C23.592,47.828 24.425,47.979 24.654,48.482C24.803,48.812 24.631,49.291 24.36,49.299L24.255,49.301L24.265,49.108C24.273,48.93 24.268,48.908 24.198,48.825C24.103,48.712 23.981,48.66 23.817,48.66C23.57,48.66 23.421,48.832 23.42,49.12C23.418,49.547 23.811,49.827 24.306,49.748C24.517,49.714 24.696,49.619 24.834,49.469C25.06,49.224 25.149,48.937 25.149,48.441C25.15,48.026 25.15,48.025 24.65,45.521C24.412,44.328 24.187,43.174 24.149,42.957C24.029,42.257 23.965,41.589 23.946,40.842L23.928,40.133L23.734,40.42C22.959,41.565 22.38,43.049 22.129,44.536C22.092,44.759 22.052,45.072 22.042,45.232C22.031,45.392 22.015,45.529 22.005,45.535C21.981,45.549 21.655,44.677 21.526,44.253C21.331,43.61 21.203,42.995 21.113,42.275C21.045,41.72 21.045,40.406 21.114,39.846C21.269,38.593 21.576,37.422 22.084,36.152C22.319,35.564 22.532,35.093 23.028,34.062C24.028,31.982 24.599,30.487 25.033,28.815L25.167,28.295L24.807,27.925C23.969,27.064 23.417,26.142 23.245,25.312C23.182,25.006 23.187,24.528 23.257,24.258C23.446,23.526 24.039,22.995 24.729,22.94C24.968,22.922 25.392,22.979 25.646,23.063C25.769,23.104 25.815,23.109 25.832,23.084C25.862,23.041 25.835,20.841 25.798,20.35L26.33,20.9ZM22.85,39.464C22.85,39.488 22.916,39.385 22.995,39.235C23.283,38.689 23.594,38.262 24.043,37.8L24.323,37.511L24.433,37.131C24.805,35.858 25.184,34.944 26.086,33.136C26.617,32.071 26.855,31.522 27.034,30.95C27.144,30.597 27.297,30.01 27.298,29.939C27.298,29.91 27.146,29.79 26.894,29.618C26.673,29.467 26.364,29.247 26.206,29.129C26.049,29.011 25.917,28.916 25.914,28.918C25.911,28.92 25.858,29.173 25.797,29.481C25.464,31.145 24.962,32.833 24.296,34.528C23.68,36.094 23.368,37.05 23.108,38.157C22.993,38.648 22.849,39.376 22.85,39.464L22.85,39.464ZM24.741,25.413C24.733,25.871 24.955,26.45 25.299,26.832C25.429,26.976 25.434,26.979 25.449,26.914C25.504,26.688 25.692,25.283 25.719,24.897L25.728,24.776L25.577,24.728C25.495,24.702 25.351,24.68 25.258,24.679C25.105,24.678 25.079,24.687 24.991,24.764C24.865,24.875 24.799,25.006 24.759,25.225C24.748,25.285 24.743,25.347 24.741,25.413L24.741,25.413ZM25.887,36.537C25.89,36.539 26.07,36.483 26.288,36.41C26.964,36.183 27.565,36.075 28.347,36.04C28.777,36.021 29.473,36.058 29.871,36.122C29.994,36.143 30.097,36.156 30.1,36.153C30.104,36.151 29.979,35.896 29.823,35.59C29.386,34.734 29.1,34.024 28.822,33.109C28.552,32.223 28.391,31.509 28.345,30.994C28.335,30.874 28.323,30.757 28.319,30.735C28.315,30.712 28.309,30.658 28.308,30.613C28.307,30.554 28.286,30.518 28.232,30.486C28.191,30.461 28.146,30.443 28.133,30.446C28.119,30.447 28.054,30.653 27.989,30.9C27.644,32.196 27.295,33.152 26.263,35.618C26.053,36.121 25.884,36.534 25.887,36.537L25.887,36.537ZM26.108,27.629L26.259,27.76C26.462,27.934 27.181,28.499 27.339,28.607C27.408,28.655 27.474,28.686 27.484,28.675C27.494,28.664 27.502,28.403 27.501,28.093C27.5,27.633 27.487,27.464 27.436,27.176C27.299,26.398 27.044,25.854 26.592,25.38C26.481,25.264 26.38,25.169 26.368,25.169C26.357,25.169 26.34,25.252 26.331,25.353L26.331,25.354C26.323,25.455 26.295,25.78 26.271,26.077C26.247,26.373 26.201,26.844 26.168,27.122L26.108,27.629Z" style="fill:rgb(249,204,157);fill-rule:nonzero;"/>
        </g>
        <path d="M133.715,137.946L133.715,139.659L16.279,139.659L16.279,137.946L133.715,137.946ZM12.058,114.692L10.346,114.692L10.346,31.097L12.058,31.097L12.058,114.692ZM139.654,35.766L139.654,113.269L137.942,113.269L137.942,35.766L139.654,35.766ZM133.833,12.063L16.211,12.063L16.211,10.35L133.833,10.35L133.833,12.063Z" style="fill:rgb(249,204,157);"/>
    </g>
</svg>
