<?xml version="1.0" encoding="UTF-8" standalone="no"?>
<!DOCTYPE svg PUBLIC "-//W3C//DTD SVG 1.1//EN" "http://www.w3.org/Graphics/SVG/1.1/DTD/svg11.dtd">
<svg width="100%" height="100%" viewBox="0 0 1080 1080" version="1.1" xmlns="http://www.w3.org/2000/svg" xmlns:xlink="http://www.w3.org/1999/xlink" xml:space="preserve" xmlns:serif="http://www.serif.com/" style="fill-rule:evenodd;clip-rule:evenodd;stroke-linejoin:round;stroke-miterlimit:2;">
    <g transform="matrix(0.229294,0,0,0.229294,416.182,416.178)">
        <g>
            <g>
                <path d="M911.43,538.1L732.16,218.95C730.49,215.98 727.35,214.14 723.94,214.14L348.03,214.14C340.81,214.14 336.28,221.92 339.83,228.2L513.68,535.7C515.33,538.62 515.3,542.2 513.61,545.1L334.06,851.67C330.38,857.95 334.91,865.85 342.19,865.85L718.28,865.85C721.62,865.85 724.7,864.09 726.4,861.21L911.33,547.5C913.04,544.61 913.07,541.03 911.43,538.1Z" style="fill-rule:nonzero;"/>
                <path d="M298.99,305.86L168.58,536.53C166.93,539.45 166.96,543.03 168.65,545.93L299.06,768.61C303.92,776.9 316.61,773.46 316.61,763.85L316.61,310.5C316.62,300.81 303.76,297.43 298.99,305.86Z" style="fill-rule:nonzero;"/>
            </g>
        </g>
    </g>
</svg>
