<?xml version="1.0" encoding="UTF-8" standalone="no"?>
<!DOCTYPE svg PUBLIC "-//W3C//DTD SVG 1.1//EN" "http://www.w3.org/Graphics/SVG/1.1/DTD/svg11.dtd">
<svg width="100%" height="100%" viewBox="0 0 1080 1080" version="1.1" xmlns="http://www.w3.org/2000/svg" xmlns:xlink="http://www.w3.org/1999/xlink" xml:space="preserve" xmlns:serif="http://www.serif.com/" style="fill-rule:evenodd;clip-rule:evenodd;stroke-linejoin:round;stroke-miterlimit:2;">
    <g>
        <g>
            <g>
                <path d="M231.72,375.75C231.72,375.75 273.55,447.2 314.22,457.99L493.78,505.61C500.27,507.33 506.19,501.37 504.45,494.87L456.22,315.01C455.85,313.64 455.46,312.28 455.05,310.94C442.25,269.09 402.57,241.11 358.59,241.11L171.34,241.11C164.39,241.11 159.88,248.41 163.03,254.57C194.48,316.01 231.72,375.75 231.72,375.75Z" style="fill:rgb(239,226,190);fill-rule:nonzero;"/>
                <path d="M440.8,216.06C469.08,237.24 489.81,267.52 499.43,303.37L531.32,422.29C532.51,426.71 536.28,428.82 540,428.72C543.72,428.82 547.5,426.72 548.68,422.29L580.57,303.37C590.18,267.52 610.92,237.24 639.2,216.06C642.44,213.64 643.46,209.17 641.45,205.66C641.44,205.64 641.43,205.62 641.41,205.6C620.48,169.02 582.87,147.13 540.81,147.04C540.54,147.04 540.27,147.05 540,147.07C539.73,147.06 539.46,147.04 539.19,147.04C497.13,147.13 459.52,169.02 438.59,205.6C438.58,205.62 438.57,205.64 438.55,205.66C436.54,209.17 437.57,213.64 440.8,216.06Z" style="fill:rgb(239,226,190);fill-rule:nonzero;"/>
                <path d="M205.41,640.61C205.44,640.61 205.44,640.64 205.46,640.64C209,642.65 213.43,641.62 215.86,638.38C236.97,610.02 267.17,589.26 302.92,579.61L421.51,547.63C424.43,546.86 426.35,544.98 427.3,542.69L428,542.69C428,542.1 427.95,541.51 427.82,540.94C427.9,540.63 427.9,540.32 427.92,540.01L427.87,540.01C427.84,539.86 427.87,539.7 427.84,539.55C427.94,538.98 428,538.39 428,537.8L427.3,537.8C426.34,535.54 424.4,533.66 421.51,532.89L302.79,501.4C266.97,491.91 236.71,471.24 215.47,442.97C213.04,439.75 208.59,438.72 205.1,440.76C205.07,440.76 205.05,440.79 205.02,440.79C169.64,461.35 148.14,497.66 147.08,538.41L147.03,538.41C147.03,538.95 147.03,539.49 147.06,540.03L147.03,540.03C147.03,540.52 147.03,541.03 147.06,541.52C147.03,542.11 147.03,542.68 147.03,543.27L147.11,543.27C147.68,563.06 153.11,581.79 162.58,598.13C172.59,615.44 187.18,630.11 205.41,640.61Z" style="fill:rgb(239,226,190);fill-rule:nonzero;"/>
                <path d="M457.12,765.33L504.61,585.28C506.33,578.77 500.38,572.84 493.9,574.58L314.54,622.93C274.08,633.84 232.51,705.04 232.51,705.04C232.51,705.04 196.12,764.23 165.07,825.46C161.95,831.62 166.46,838.89 173.4,838.89L360.42,838.89C404.1,838.89 443.47,810.99 456,769.35C456.39,768.02 456.77,766.68 457.12,765.33Z" style="fill:rgb(239,226,190);fill-rule:nonzero;"/>
                <path d="M623.79,315.02L575.56,494.88C573.82,501.38 579.74,507.34 586.23,505.62L765.79,458C806.45,447.22 848.29,375.76 848.29,375.76C848.29,375.76 885.52,316.02 916.97,254.58C920.12,248.42 915.61,241.12 908.66,241.12L721.41,241.12C677.44,241.12 637.75,269.1 624.95,310.95C624.54,312.29 624.15,313.65 623.79,315.02Z" style="fill:rgb(239,226,190);fill-rule:nonzero;"/>
                <path d="M932.94,540C932.97,539.46 932.97,538.92 932.97,538.38L932.92,538.38C931.86,497.62 910.37,461.32 874.98,440.76C874.95,440.76 874.93,440.73 874.9,440.73C871.41,438.7 866.96,439.73 864.53,442.94C843.3,471.22 813.03,491.88 777.21,501.37L658.5,532.87C655.6,533.64 653.66,535.52 652.71,537.78L652,537.78C652,538.37 652.05,538.96 652.16,539.53C652.13,539.68 652.16,539.84 652.13,539.99L652.08,539.99C652.11,540.3 652.11,540.61 652.18,540.92C652.05,541.49 652,542.08 652,542.67L652.7,542.67C653.66,544.96 655.57,546.84 658.49,547.61L777.08,579.59C812.82,589.24 843.03,610 864.14,638.36C866.57,641.6 870.99,642.63 874.54,640.62C874.57,640.62 874.57,640.59 874.59,640.59C892.82,630.09 907.41,615.43 917.42,598.08C926.89,581.74 932.32,563.01 932.89,543.22L932.97,543.22C932.97,542.63 932.97,542.06 932.94,541.47C932.97,540.98 932.97,540.47 932.97,539.98L932.94,539.98L932.94,540Z" style="fill:rgb(239,226,190);fill-rule:nonzero;"/>
                <path d="M637.88,864.35C609.69,843.06 589.08,812.69 579.61,776.81L548.21,657.76C547.16,653.77 544,651.64 540.66,651.31L540.66,651.27C540.44,651.26 540.22,651.28 540,651.29C539.78,651.28 539.56,651.26 539.34,651.27L539.34,651.31C536,651.63 532.84,653.77 531.79,657.76L500.39,776.81C490.93,812.7 470.32,843.06 442.12,864.35C438.89,866.79 437.89,871.26 439.91,874.76C439.92,874.78 439.93,874.8 439.95,874.82C460.79,910.89 497.87,932.51 539.34,932.92L539.34,932.96C539.56,932.96 539.78,932.94 540,932.94C540.22,932.94 540.44,932.96 540.66,932.96L540.66,932.92C582.13,932.51 619.21,910.89 640.05,874.82C640.06,874.8 640.07,874.78 640.09,874.76C642.11,871.25 641.1,866.78 637.88,864.35Z" style="fill:rgb(239,226,190);fill-rule:nonzero;"/>
                <path d="M847.49,705.04C847.49,705.04 805.92,633.84 765.46,622.93L586.1,574.58C579.62,572.83 573.67,578.77 575.39,585.28L622.88,765.33C623.24,766.68 623.62,768.03 624.02,769.36C636.54,810.99 675.92,838.9 719.6,838.9L906.62,838.9C913.55,838.9 918.07,831.63 914.95,825.47C883.89,764.24 847.49,705.04 847.49,705.04Z" style="fill:rgb(239,226,190);fill-rule:nonzero;"/>
            </g>
        </g>
    </g>
</svg>
