<?xml version="1.0" encoding="UTF-8" standalone="no"?>
<!DOCTYPE svg PUBLIC "-//W3C//DTD SVG 1.1//EN" "http://www.w3.org/Graphics/SVG/1.1/DTD/svg11.dtd">
<svg width="100%" height="100%" viewBox="0 0 100 100" version="1.1" xmlns="http://www.w3.org/2000/svg" xmlns:xlink="http://www.w3.org/1999/xlink" xml:space="preserve" xmlns:serif="http://www.serif.com/" style="fill-rule:evenodd;clip-rule:evenodd;stroke-linecap:round;stroke-miterlimit:2;">
    <g transform="matrix(0.67803,0,0,0.67803,15.46,15.2989)">
        <path d="M96.909,11.114C96.909,7.857 94.264,5.212 91.007,5.212L10.876,5.212C7.619,5.212 4.975,7.857 4.975,11.114L4.975,91.245C4.975,94.502 7.619,97.146 10.876,97.146L91.007,97.146C94.264,97.146 96.909,94.502 96.909,91.245L96.909,11.114Z" style="fill:rgb(235,235,235);fill-opacity:0;stroke:black;stroke-width:5.16px;"/>
    </g>
    <g transform="matrix(0.87792,0,0,0.86695,5.08122,16.8295)">
        <g>
            <g transform="matrix(41,0,0,41,27.8322,53.5161)">
                <path d="M0.431,-0.048C0.419,-0.039 0.407,-0.031 0.394,-0.024C0.38,-0.016 0.366,-0.01 0.352,-0.005C0.337,-0 0.323,0.004 0.308,0.007C0.293,0.009 0.279,0.011 0.265,0.011C0.236,0.011 0.208,0.004 0.183,-0.01C0.157,-0.023 0.135,-0.042 0.116,-0.065C0.097,-0.088 0.082,-0.115 0.071,-0.146C0.06,-0.177 0.054,-0.209 0.054,-0.243C0.054,-0.277 0.061,-0.31 0.075,-0.342C0.089,-0.374 0.108,-0.402 0.131,-0.427C0.155,-0.452 0.183,-0.472 0.215,-0.487C0.246,-0.502 0.28,-0.509 0.316,-0.509C0.341,-0.509 0.362,-0.505 0.38,-0.497C0.398,-0.488 0.415,-0.477 0.431,-0.463L0.431,-0.727L0.5,-0.755L0.529,-0.755L0.529,-0L0.431,-0L0.431,-0.048ZM0.431,-0.341C0.431,-0.36 0.427,-0.378 0.42,-0.394C0.412,-0.41 0.403,-0.424 0.391,-0.436C0.379,-0.447 0.366,-0.456 0.351,-0.463C0.337,-0.469 0.322,-0.472 0.307,-0.472C0.287,-0.472 0.268,-0.467 0.251,-0.458C0.234,-0.448 0.219,-0.434 0.206,-0.416C0.193,-0.399 0.183,-0.377 0.175,-0.353C0.168,-0.328 0.164,-0.301 0.164,-0.271C0.164,-0.24 0.168,-0.21 0.176,-0.182C0.184,-0.154 0.196,-0.13 0.21,-0.11C0.224,-0.089 0.24,-0.073 0.26,-0.061C0.279,-0.049 0.299,-0.043 0.321,-0.043C0.331,-0.043 0.342,-0.044 0.352,-0.047C0.363,-0.05 0.373,-0.054 0.382,-0.058C0.392,-0.063 0.401,-0.069 0.409,-0.075C0.417,-0.081 0.424,-0.087 0.431,-0.094L0.431,-0.341Z" style="fill-rule:nonzero;"/>
            </g>
            <g transform="matrix(41,0,0,41,53.0969,53.5161)">
                <path d="M0.005,-0.5L0.122,-0.5L0.468,-0L0.351,-0L0.005,-0.5ZM0.059,-0L0.005,-0L0.413,-0.5L0.468,-0.5L0.059,-0Z" style="fill-rule:nonzero;"/>
            </g>
        </g>
    </g>
</svg>
