<?xml version="1.0" encoding="UTF-8" standalone="no"?>
<!DOCTYPE svg PUBLIC "-//W3C//DTD SVG 1.1//EN" "http://www.w3.org/Graphics/SVG/1.1/DTD/svg11.dtd">
<svg width="100%" height="100%" viewBox="0 0 32 32" version="1.1" xmlns="http://www.w3.org/2000/svg" xmlns:xlink="http://www.w3.org/1999/xlink" xml:space="preserve" xmlns:serif="http://www.serif.com/" style="fill-rule:evenodd;clip-rule:evenodd;stroke-linejoin:round;stroke-miterlimit:2;">
    <g transform="matrix(1,0,0,1,-333.73,-334)">
        <g transform="matrix(0.0601786,0,0,0.0601786,328.651,333.114)">
            <path d="M463.68,63.281L409.918,63.281L409.918,24.082C409.918,18.48 405.438,14.563 400.399,14.563L300.159,14.559C294.557,14.559 290.639,19.039 290.639,24.078L290.639,63.277L236.877,63.277C211.678,63.277 191.518,83.437 191.518,108.636L191.518,500.636C191.518,525.835 211.678,545.995 236.877,545.995L463.677,545.995C488.876,545.995 509.036,525.835 509.036,500.636L509.036,108.636C509.036,83.441 488.876,63.281 463.677,63.281L463.68,63.281ZM466.481,500.641C466.481,502.321 465.36,503.442 463.68,503.442L236.32,503.442C234.64,503.442 233.519,502.321 233.519,500.641L233.519,108.641C233.519,106.961 234.64,105.84 236.32,105.84L463.12,105.84C464.8,105.84 465.921,106.961 465.921,108.641L465.921,500.641L466.481,500.641Z" style="fill-rule:nonzero;"/>
        </g>
        <g transform="matrix(0.0601786,0,0,0.0601786,328.65,333.114)">
            <path d="M435.68,410.48L264.32,410.48C261.519,410.48 259.281,412.718 259.281,415.519L259.281,473.199C259.281,476 261.519,478.238 264.32,478.238L436.24,478.238C439.041,478.238 441.279,476 441.279,473.199L441.279,415.519C440.717,412.718 438.478,410.48 435.678,410.48L435.68,410.48Z" style="fill-rule:nonzero;"/>
        </g>
        <g transform="matrix(0.0601786,0,0,0.0601786,328.65,327.602)">
            <path d="M435.68,410.48L264.32,410.48C261.519,410.48 259.281,412.718 259.281,415.519L259.281,473.199C259.281,476 261.519,478.238 264.32,478.238L436.24,478.238C439.041,478.238 441.279,476 441.279,473.199L441.279,415.519C440.717,412.718 438.478,410.48 435.678,410.48L435.68,410.48Z" style="fill-rule:nonzero;"/>
        </g>
        <g transform="matrix(0.0601786,0,0,0.0601786,328.65,322.013)">
            <path d="M435.68,410.48L264.32,410.48C261.519,410.48 259.281,412.718 259.281,415.519L259.281,473.199C259.281,476 261.519,478.238 264.32,478.238L436.24,478.238C439.041,478.238 441.279,476 441.279,473.199L441.279,415.519C440.717,412.718 438.478,410.48 435.678,410.48L435.68,410.48Z" style="fill-rule:nonzero;"/>
        </g>
        <g transform="matrix(0.0601786,0,0,0.0601786,328.65,316.324)">
            <path d="M435.68,410.48L264.32,410.48C261.519,410.48 259.281,412.718 259.281,415.519L259.281,473.199C259.281,476 261.519,478.238 264.32,478.238L436.24,478.238C439.041,478.238 441.279,476 441.279,473.199L441.279,415.519C440.717,412.718 438.478,410.48 435.678,410.48L435.68,410.48Z" style="fill-rule:nonzero;"/>
        </g>
    </g>
</svg>
