<?xml version="1.0" encoding="UTF-8" standalone="no"?>
<!DOCTYPE svg PUBLIC "-//W3C//DTD SVG 1.1//EN" "http://www.w3.org/Graphics/SVG/1.1/DTD/svg11.dtd">
<svg width="100%" height="100%" viewBox="0 0 32 32" version="1.1" xmlns="http://www.w3.org/2000/svg" xmlns:xlink="http://www.w3.org/1999/xlink" xml:space="preserve" xmlns:serif="http://www.serif.com/" style="fill-rule:evenodd;clip-rule:evenodd;stroke-linejoin:round;stroke-miterlimit:2;">
    <g transform="matrix(0.808122,1.95823,-1.95823,0.808122,-0.951324,-72.7936)">
        <path d="M41.798,1.04L43.853,3.389C43.874,3.413 43.901,3.432 43.93,3.444C43.96,3.456 43.992,3.462 44.024,3.459L47.138,3.252L46.931,6.367C46.929,6.399 46.934,6.43 46.946,6.46C46.959,6.49 46.977,6.516 47.001,6.537L49.351,8.593L47.001,10.648C46.977,10.669 46.959,10.696 46.946,10.725C46.934,10.755 46.929,10.787 46.931,10.819L47.138,13.933L44.024,13.726C43.992,13.724 43.96,13.729 43.93,13.741C43.901,13.753 43.874,13.772 43.853,13.796L41.798,16.145L39.742,13.796C39.721,13.772 39.695,13.753 39.665,13.741C39.636,13.729 39.604,13.724 39.572,13.726L36.457,13.933L36.665,10.819C36.667,10.787 36.661,10.755 36.649,10.725C36.637,10.696 36.618,10.669 36.594,10.648L34.245,8.593L36.594,6.537C36.618,6.516 36.637,6.49 36.649,6.46C36.661,6.43 36.667,6.399 36.665,6.367L36.457,3.252L39.572,3.459C39.604,3.462 39.636,3.456 39.665,3.444C39.695,3.432 39.721,3.413 39.742,3.389L41.798,1.04Z" style="fill:white;fill-opacity:0;"/>
        <path d="M41.798,1.04L43.853,3.389C43.874,3.413 43.901,3.432 43.93,3.444C43.96,3.456 43.992,3.462 44.024,3.459L47.138,3.252L46.931,6.367C46.929,6.399 46.934,6.43 46.946,6.46C46.959,6.49 46.977,6.516 47.001,6.537L49.351,8.593L47.001,10.648C46.977,10.669 46.959,10.696 46.946,10.725C46.934,10.755 46.929,10.787 46.931,10.819L47.138,13.933L44.024,13.726C43.992,13.724 43.96,13.729 43.93,13.741C43.901,13.753 43.874,13.772 43.853,13.796L41.798,16.145L39.742,13.796C39.721,13.772 39.695,13.753 39.665,13.741C39.636,13.729 39.604,13.724 39.572,13.726L36.457,13.933L36.665,10.819C36.667,10.787 36.661,10.755 36.649,10.725C36.637,10.696 36.618,10.669 36.594,10.648L34.245,8.593L36.594,6.537C36.618,6.516 36.637,6.49 36.649,6.46C36.661,6.43 36.667,6.399 36.665,6.367L36.457,3.252L39.572,3.459C39.604,3.462 39.636,3.456 39.665,3.444C39.695,3.432 39.721,3.413 39.742,3.389L41.798,1.04ZM41.798,3.549L42.61,4.477C42.798,4.692 43.034,4.861 43.298,4.97C43.562,5.08 43.848,5.127 44.133,5.108C44.133,5.108 45.364,5.026 45.364,5.026C45.364,5.026 45.282,6.257 45.282,6.257C45.263,6.542 45.31,6.828 45.42,7.092C45.529,7.356 45.698,7.592 45.913,7.78C45.913,7.78 46.842,8.593 46.842,8.593C46.842,8.593 45.913,9.405 45.913,9.405C45.698,9.593 45.529,9.829 45.42,10.093C45.31,10.357 45.263,10.643 45.282,10.928C45.282,10.928 45.364,12.159 45.364,12.159C45.364,12.159 44.133,12.077 44.133,12.077C43.848,12.058 43.562,12.105 43.298,12.215C43.034,12.324 42.798,12.493 42.61,12.708C42.61,12.708 41.798,13.637 41.798,13.637C41.798,13.637 40.985,12.708 40.985,12.708C40.797,12.493 40.562,12.324 40.297,12.215C40.033,12.105 39.747,12.058 39.462,12.077C39.462,12.077 38.231,12.159 38.231,12.159C38.231,12.159 38.313,10.928 38.313,10.928C38.332,10.643 38.285,10.357 38.176,10.093C38.066,9.829 37.897,9.593 37.682,9.405C37.682,9.405 36.754,8.593 36.754,8.593C36.754,8.593 37.682,7.78 37.682,7.78C37.897,7.592 38.066,7.356 38.176,7.092C38.285,6.828 38.332,6.542 38.313,6.257C38.313,6.257 38.231,5.026 38.231,5.026C38.231,5.026 39.462,5.108 39.462,5.108C39.747,5.127 40.033,5.08 40.297,4.97C40.562,4.861 40.797,4.692 40.985,4.477L41.798,3.549Z"/>
    </g>
</svg>
