<?xml version="1.0" encoding="UTF-8" standalone="no"?>
<!DOCTYPE svg PUBLIC "-//W3C//DTD SVG 1.1//EN" "http://www.w3.org/Graphics/SVG/1.1/DTD/svg11.dtd">
<svg width="100%" height="100%" viewBox="0 0 32 32" version="1.1" xmlns="http://www.w3.org/2000/svg" xmlns:xlink="http://www.w3.org/1999/xlink" xml:space="preserve" xmlns:serif="http://www.serif.com/" style="fill-rule:evenodd;clip-rule:evenodd;stroke-linejoin:round;stroke-miterlimit:2;">
    <g transform="matrix(0.757615,1.83584,-1.83584,0.757615,0.108134,-67.244)">
        <path d="M41.798,1.04L43.853,3.389C43.874,3.413 43.901,3.432 43.93,3.444C43.96,3.456 43.992,3.462 44.024,3.459L47.138,3.252L46.931,6.367C46.929,6.399 46.934,6.43 46.946,6.46C46.959,6.49 46.977,6.516 47.001,6.537L49.351,8.593L47.001,10.648C46.977,10.669 46.959,10.696 46.946,10.725C46.934,10.755 46.929,10.787 46.931,10.819L47.138,13.933L44.024,13.726C43.992,13.724 43.96,13.729 43.93,13.741C43.901,13.753 43.874,13.772 43.853,13.796L41.798,16.145L39.742,13.796C39.721,13.772 39.695,13.753 39.665,13.741C39.636,13.729 39.604,13.724 39.572,13.726L36.457,13.933L36.665,10.819C36.667,10.787 36.661,10.755 36.649,10.725C36.637,10.696 36.618,10.669 36.594,10.648L34.245,8.593L36.594,6.537C36.618,6.516 36.637,6.49 36.649,6.46C36.661,6.43 36.667,6.399 36.665,6.367L36.457,3.252L39.572,3.459C39.604,3.462 39.636,3.456 39.665,3.444C39.695,3.432 39.721,3.413 39.742,3.389L41.798,1.04Z" style="fill:white;fill-opacity:0;"/>
        <path d="M41.798,1.04L43.853,3.389C43.874,3.413 43.901,3.432 43.93,3.444C43.96,3.456 43.992,3.462 44.024,3.459L47.138,3.252L46.931,6.367C46.929,6.399 46.934,6.43 46.946,6.46C46.959,6.49 46.977,6.516 47.001,6.537L49.351,8.593L47.001,10.648C46.977,10.669 46.959,10.696 46.946,10.725C46.934,10.755 46.929,10.787 46.931,10.819L47.138,13.933L44.024,13.726C43.992,13.724 43.96,13.729 43.93,13.741C43.901,13.753 43.874,13.772 43.853,13.796L41.798,16.145L39.742,13.796C39.721,13.772 39.695,13.753 39.665,13.741C39.636,13.729 39.604,13.724 39.572,13.726L36.457,13.933L36.665,10.819C36.667,10.787 36.661,10.755 36.649,10.725C36.637,10.696 36.618,10.669 36.594,10.648L34.245,8.593L36.594,6.537C36.618,6.516 36.637,6.49 36.649,6.46C36.661,6.43 36.667,6.399 36.665,6.367L36.457,3.252L39.572,3.459C39.604,3.462 39.636,3.456 39.665,3.444C39.695,3.432 39.721,3.413 39.742,3.389L41.798,1.04ZM41.798,3.716L42.527,4.55C42.727,4.777 42.976,4.956 43.256,5.072C43.536,5.188 43.839,5.238 44.141,5.218C44.141,5.218 45.246,5.144 45.246,5.144C45.246,5.144 45.173,6.25 45.173,6.25C45.152,6.552 45.202,6.855 45.318,7.134C45.434,7.414 45.613,7.664 45.841,7.863C45.841,7.863 46.674,8.593 46.674,8.593C46.674,8.593 45.841,9.322 45.841,9.322C45.613,9.522 45.434,9.771 45.318,10.051C45.202,10.331 45.152,10.633 45.173,10.936C45.173,10.936 45.246,12.041 45.246,12.041C45.246,12.041 44.141,11.967 44.141,11.967C43.839,11.947 43.536,11.997 43.256,12.113C42.976,12.229 42.727,12.408 42.527,12.636C42.527,12.636 41.798,13.469 41.798,13.469C41.798,13.469 41.068,12.636 41.068,12.636C40.869,12.408 40.619,12.229 40.34,12.113C40.06,11.997 39.757,11.947 39.455,11.967L38.349,12.041C38.349,12.041 38.423,10.936 38.423,10.936C38.443,10.633 38.393,10.331 38.277,10.051C38.161,9.771 37.983,9.522 37.755,9.322C37.755,9.322 36.921,8.593 36.921,8.593C36.921,8.593 37.755,7.863 37.755,7.863C37.983,7.664 38.161,7.414 38.277,7.134C38.393,6.855 38.443,6.552 38.423,6.25C38.423,6.25 38.349,5.144 38.349,5.144C38.349,5.144 39.455,5.218 39.455,5.218C39.757,5.238 40.06,5.188 40.34,5.072C40.619,4.956 40.869,4.777 41.068,4.55L41.798,3.716Z"/>
    </g>
</svg>
