<?xml version="1.0" encoding="UTF-8" standalone="no"?>
<!DOCTYPE svg PUBLIC "-//W3C//DTD SVG 1.1//EN" "http://www.w3.org/Graphics/SVG/1.1/DTD/svg11.dtd">
<svg width="100%" height="100%" viewBox="0 0 32 32" version="1.1" xmlns="http://www.w3.org/2000/svg" xmlns:xlink="http://www.w3.org/1999/xlink" xml:space="preserve" xmlns:serif="http://www.serif.com/" style="fill-rule:evenodd;clip-rule:evenodd;stroke-linejoin:round;stroke-miterlimit:2;">
    <path d="M26.749,7.591C19.956,1.487 12.788,1.233 5.204,7.462L5.997,22.57C12.752,31.797 19.048,31.216 26.22,22.122L26.749,7.591Z" style="fill:white;"/>
    <g transform="matrix(1.40607,0,0,1.40607,-0.872856,-0.872856)">
        <path d="M21,11C21,16.55 17.16,21.74 12,23C6.84,21.74 3,16.55 3,11L3,5L12,1L21,5L21,11M12,21C15.75,20 19,15.54 19,11.22L19,6.3L12,3.18L5,6.3L5,11.22C5,15.54 8.25,20 12,21Z" style="fill:rgb(75,111,170);fill-rule:nonzero;"/>
    </g>
</svg>
