<?xml version="1.0" encoding="UTF-8" standalone="no"?>
<!DOCTYPE svg PUBLIC "-//W3C//DTD SVG 1.1//EN" "http://www.w3.org/Graphics/SVG/1.1/DTD/svg11.dtd">
<svg width="100%" height="100%" viewBox="0 0 32 32" version="1.1" xmlns="http://www.w3.org/2000/svg" xmlns:xlink="http://www.w3.org/1999/xlink" xml:space="preserve" xmlns:serif="http://www.serif.com/" style="fill-rule:evenodd;clip-rule:evenodd;stroke-linejoin:round;stroke-miterlimit:2;">
    <g transform="matrix(0.0853907,0,0,-0.0853907,-5.86003,37.8601)">
        <path d="M426.5,256C426.5,233 421.917,210.917 412.75,189.75C403.583,168.583 391.5,150.5 376.5,135.5C361.5,120.5 343.417,108.417 322.25,99.25C301.083,90.083 279,85.5 256,85.5C233,85.5 210.917,90.083 189.75,99.25C168.583,108.417 150.5,120.5 135.5,135.5C120.5,150.5 108.417,168.583 99.25,189.75C90.083,210.917 85.5,233 85.5,256C85.5,279 90.083,301.083 99.25,322.25C108.417,343.417 120.5,361.5 135.5,376.5C150.5,391.5 168.583,403.583 189.75,412.75C210.917,421.917 233,426.5 256,426.5C279,426.5 301.083,421.917 322.25,412.75C343.417,403.583 361.5,391.5 376.5,376.5C391.5,361.5 403.583,343.417 412.75,322.25C421.917,301.083 426.5,279 426.5,256ZM352.5,352.5C339.833,365.5 325.417,375.417 309.25,382.25C293.083,389.083 275.333,392.5 256,392.5C236.667,392.5 218.917,389.083 202.75,382.25C186.583,375.417 172.167,365.5 159.5,352.5C146.5,339.833 136.583,325.417 129.75,309.25C122.917,293.083 119.5,275.333 119.5,256C119.5,236.667 122.917,218.917 129.75,202.75C136.583,186.583 146.5,172.167 159.5,159.5C172.167,146.5 186.583,136.583 202.75,129.75C218.917,122.917 236.667,119.5 256,119.5C275.333,119.5 293.083,122.917 309.25,129.75C325.417,136.583 339.833,146.5 352.5,159.5C365.5,172.167 375.417,186.583 382.25,202.75C389.083,218.917 392.5,236.667 392.5,256C392.5,275.333 389.083,293.083 382.25,309.25C375.417,325.417 365.5,339.833 352.5,352.5ZM307,256C307,247 304.75,238.5 300.25,230.5C295.75,222.5 289.5,216.167 281.5,211.5L307,167.5C323,176.5 335.583,188.917 344.75,204.75C353.917,220.583 358.5,237.667 358.5,256L307,256ZM153.5,256C153.5,237.667 158.083,220.583 167.25,204.75C176.417,188.917 189,176.5 205,167.5L230.5,211.5C222.5,216.167 216.25,222.5 211.75,230.5C207.25,238.5 205,247 205,256L153.5,256ZM253.5,358.5C245.167,358.167 236.833,356.833 228.5,354.5C220.167,352.167 212.333,348.833 205,344.5L230.5,300.5C234.5,302.5 238.583,304.083 242.75,305.25C246.917,306.417 251.333,307 256,307C260.333,307 264.75,306.417 269.25,305.25C273.75,304.083 277.833,302.5 281.5,300.5L307,344.5C299,349.167 290.417,352.667 281.25,355C272.083,357.333 262.833,358.5 253.5,358.5ZM273,256C273,251.333 271.333,247.333 268,244C264.667,240.667 260.667,239 256,239C251.333,239 247.333,240.667 244,244C240.667,247.333 239,251.333 239,256C239,260.667 240.667,264.667 244,268C247.333,271.333 251.333,273 256,273C260.667,273 264.667,271.333 268,268C271.333,264.667 273,260.667 273,256ZM289,256C289,252 288.083,247.75 286.25,243.25C284.417,238.75 282.167,235.167 279.5,232.5C276.833,229.833 273.25,227.583 268.75,225.75C264.25,223.917 260,223 256,223C252,223 247.75,223.917 243.25,225.75C238.75,227.583 235.167,229.833 232.5,232.5C229.833,235.167 227.583,238.75 225.75,243.25C223.917,247.75 223,252 223,256C223,260 223.917,264.25 225.75,268.75C227.583,273.25 229.833,276.833 232.5,279.5C235.167,282.167 238.75,284.417 243.25,286.25C247.75,288.083 252,289 256,289C260,289 264.25,288.083 268.75,286.25C273.25,284.417 276.833,282.167 279.5,279.5C282.167,276.833 284.417,273.25 286.25,268.75C288.083,264.25 289,260 289,256ZM257,256.5L256.5,256.5L256.5,257L255.5,257L255.5,256.5L255,256.5L255,255.5L255.5,255.5L255.5,255L256.5,255L256.5,255.5L257,255.5L257,256.5Z" style="fill-rule:nonzero;"/>
    </g>
</svg>
