<?xml version="1.0" encoding="UTF-8" standalone="no"?>
<!DOCTYPE svg PUBLIC "-//W3C//DTD SVG 1.1//EN" "http://www.w3.org/Graphics/SVG/1.1/DTD/svg11.dtd">
<svg width="100%" height="100%" viewBox="0 0 64 64" version="1.1" xmlns="http://www.w3.org/2000/svg" xmlns:xlink="http://www.w3.org/1999/xlink" xml:space="preserve" xmlns:serif="http://www.serif.com/" style="fill-rule:evenodd;clip-rule:evenodd;stroke-linejoin:round;stroke-miterlimit:2;">
    <g transform="matrix(0.128378,0,0,-0.128378,-0.860797,64.8663)">
        <path d="M253.5,426.5C233.5,426.167 213.75,422.667 194.25,416C174.75,409.333 156.667,399.5 140,386.5C127.333,376.5 116.167,365.167 106.5,352.5C97.167,340.167 89.5,326.833 83.5,312.5C77.5,298.167 73.167,283.333 70.5,268C68.167,252.667 67.667,237.333 69,222L103.5,222C100.5,248 104,273.25 114,297.75C124,322.25 139.833,343 161.5,360C174.833,370.667 189.5,378.667 205.5,384C221.5,389.333 237.667,392.167 254,392.5C270.333,392.833 286.5,390.5 302.5,385.5C318.5,380.167 333.5,372.333 347.5,362C358.833,353.667 368.667,344.333 377,334C385.333,323.333 392.083,311.917 397.25,299.75C402.417,287.583 406,274.833 408,261.5C410,248.5 410.167,235.333 408.5,222L443,222C444.333,238 443.667,253.833 441,269.5C438.333,285.167 433.833,300.25 427.5,314.75C421.167,329.25 413,342.833 403,355.5C393,368.5 381.333,379.833 368,389.5C351,402.167 332.667,411.583 313,417.75C293.333,423.917 273.5,426.833 253.5,426.5ZM255,358.5C242.333,358.167 229.75,355.917 217.25,351.75C204.75,347.583 193.167,341.333 182.5,333C165.167,319.667 152.667,303 145,283C137.333,263 135,242.667 138,222L172.5,222C169.167,237.667 170.25,253.083 175.75,268.25C181.25,283.417 190.5,296 203.5,306C218.833,318 236.167,324.083 255.5,324.25C274.833,324.417 292.167,318.667 307.5,307C320.833,297 330.333,284.25 336,268.75C341.667,253.25 342.833,237.667 339.5,222L374,222C377,243 374.5,263.583 366.5,283.75C358.5,303.917 345.833,320.667 328.5,334C317.5,342.333 305.75,348.5 293.25,352.5C280.75,356.5 268,358.5 255,358.5ZM256,290C242,290 230,285 220,275C210,265 205,253 205,239C205,227.667 208.25,217.5 214.75,208.5C221.25,199.5 230,193.333 241,190L241,136.5L205,102.5L205,85.5L307,85.5L307,102.5L271,136.5L271,190C282,193.333 290.75,199.5 297.25,208.5C303.75,217.5 307,227.667 307,239C307,253 302,265 292,275C282,285 270,290 256,290Z" style="fill-rule:nonzero;"/>
    </g>
</svg>
