<?xml version="1.0" encoding="UTF-8" standalone="no"?>
<!DOCTYPE svg PUBLIC "-//W3C//DTD SVG 1.1//EN" "http://www.w3.org/Graphics/SVG/1.1/DTD/svg11.dtd">
<svg width="100%" height="100%" viewBox="0 0 32 32" version="1.1" xmlns="http://www.w3.org/2000/svg" xmlns:xlink="http://www.w3.org/1999/xlink" xml:space="preserve" xmlns:serif="http://www.serif.com/" style="fill-rule:evenodd;clip-rule:evenodd;stroke-linejoin:round;stroke-miterlimit:2;">
    <g transform="matrix(0.0702525,0,0,-0.0702525,-1.98463,32.5971)">
        <path d="M453.5,122L256,8.5L58.5,122L58.5,350L256,464L453.5,350L453.5,122ZM256,447L73.5,341.5L73.5,130.5L256,25L439,130.5L439,341.5L256,447ZM134,280.5C134.333,278.167 134.833,276.25 135.5,274.75C136.167,273.25 136.833,271.833 137.5,270.5C139.167,268.833 141.417,267.5 144.25,266.5C147.083,265.5 150.5,265 154.5,265C156.833,265 158.917,265.083 160.75,265.25C162.583,265.417 164.167,265.833 165.5,266.5C168.5,267.5 170.667,268.917 172,270.75C173.333,272.583 174,274.833 174,277.5C174,278.833 173.667,280.167 173,281.5C172.333,282.833 171.333,283.833 170,284.5C168.667,285.5 166.917,286.333 164.75,287C162.583,287.667 160,288.333 157,289L147,291.5C142,292.5 137.75,293.583 134.25,294.75C130.75,295.917 128.167,297.167 126.5,298.5C123.167,300.833 120.75,303.667 119.25,307C117.75,310.333 117,314.333 117,319C117,323.333 117.75,327.25 119.25,330.75C120.75,334.25 123,337.333 126,340C129,343 132.833,345.167 137.5,346.5C142.167,347.833 147.5,348.5 153.5,348.5C158.5,348.5 163.083,347.833 167.25,346.5C171.417,345.167 175.333,343.167 179,340.5C182.333,337.833 184.917,334.583 186.75,330.75C188.583,326.917 189.667,322.5 190,317.5L171,317.5C170.667,320.5 169.917,323 168.75,325C167.583,327 165.833,328.667 163.5,330C161.833,330.667 160.083,331.167 158.25,331.5C156.417,331.833 154.333,332 152,332C149.333,332 147,331.75 145,331.25C143,330.75 141.167,330 139.5,329C138.167,328 137.083,326.833 136.25,325.5C135.417,324.167 135,322.5 135,320.5C135,318.833 135.417,317.333 136.25,316C137.083,314.667 138.167,313.667 139.5,313C140.5,312.333 142.083,311.667 144.25,311C146.417,310.333 149,309.667 152,309L168.5,305C171.833,304.333 174.917,303.417 177.75,302.25C180.583,301.083 182.833,299.667 184.5,298C187.5,296 189.667,293.333 191,290C192.333,286.667 193,283 193,279C193,274.667 192.167,270.667 190.5,267C188.833,263.333 186.333,260.167 183,257.5C179.667,254.5 175.667,252.25 171,250.75C166.333,249.25 161,248.5 155,248.5C149,248.5 143.5,249.25 138.5,250.75C133.5,252.25 129.333,254.333 126,257C122.333,260 119.667,263.417 118,267.25C116.333,271.083 115.5,275.5 115.5,280.5L134,280.5ZM206,346L226,346L226,251L206,251L206,346ZM237.5,268L286.5,329L239,329L239,346L311,346L311,330L261.5,268L311.5,268L311.5,251L237.5,251L237.5,268ZM394.5,329L344.5,329L344.5,309L390.5,309L390.5,292.5L344.5,292.5L344.5,268L397,268L397,251L325.5,251L325.5,346L394.5,346L394.5,329ZM174,184L174,196C176.667,196.333 179,196.583 181,196.75C183,196.917 184.667,197.167 186,197.5C187.667,197.833 189.25,198.417 190.75,199.25C192.25,200.083 193.667,201.167 195,202.5C195.667,203.167 196.333,204.083 197,205.25C197.667,206.417 198.167,207.667 198.5,209C198.833,209.667 199,210.333 199,211L199,212.5L214.5,212.5L214.5,119.5L195.5,119.5L195.5,184L174,184ZM267.5,217L282.5,217L246,119.5L230.5,119.5L267.5,217ZM278.5,119.5C278.5,122.833 278.917,126 279.75,129C280.583,132 281.667,135 283,138C284.333,141 286.5,144.167 289.5,147.5C292.5,150.833 296.5,154.167 301.5,157.5C305.5,160.5 308.917,163.083 311.75,165.25C314.583,167.417 316.667,169.167 318,170.5C319.667,172.5 321,174.667 322,177C323,179.333 323.5,181.667 323.5,184C323.5,186 323.25,187.833 322.75,189.5C322.25,191.167 321.333,192.5 320,193.5C319,194.833 317.75,195.833 316.25,196.5C314.75,197.167 313,197.5 311,197.5C308,197.5 305.583,197 303.75,196C301.917,195 300.5,193.5 299.5,191.5C298.833,190.167 298.333,188.583 298,186.75C297.667,184.917 297.5,182.667 297.5,180L279.5,180C279.833,184 280.333,187.583 281,190.75C281.667,193.917 282.667,196.667 284,199C286.333,203.667 289.667,207.167 294,209.5C298.333,211.833 303.667,213 310,213C315,213 319.417,212.333 323.25,211C327.083,209.667 330.5,207.667 333.5,205C336.5,202.333 338.667,199.167 340,195.5C341.333,191.833 342,187.667 342,183C342,179.667 341.5,176.5 340.5,173.5C339.5,170.5 338,167.667 336,165C334.667,163 332.917,161 330.75,159C328.583,157 325.833,155 322.5,153L315.5,148C313.167,146.333 311.167,144.917 309.5,143.75C307.833,142.583 306.667,141.5 306,140.5C305,139.833 304.167,139.083 303.5,138.25C302.833,137.417 302.167,136.5 301.5,135.5L342.5,135.5L342.5,119.5L278.5,119.5Z" style="fill-rule:nonzero;"/>
    </g>
</svg>
