<?xml version="1.0" encoding="UTF-8" standalone="no"?>
<!DOCTYPE svg PUBLIC "-//W3C//DTD SVG 1.1//EN" "http://www.w3.org/Graphics/SVG/1.1/DTD/svg11.dtd">
<svg width="100%" height="100%" viewBox="0 0 32 32" version="1.1" xmlns="http://www.w3.org/2000/svg" xmlns:xlink="http://www.w3.org/1999/xlink" xml:space="preserve" xmlns:serif="http://www.serif.com/" style="fill-rule:evenodd;clip-rule:evenodd;stroke-linejoin:round;stroke-miterlimit:2;">
    <g transform="matrix(0.0728929,0,0,-0.0728929,-2.73349,33.2027)">
        <path d="M365,205.5L366.5,204.5L366.5,79.5L258,16.5L149.5,79.5L149.5,205L41,267.5L41,393L149.5,455.5L257,393.5L364.5,455.5L473,393L473,267.5L365,205.5ZM116,274C116,269 116.917,264.583 118.75,260.75C120.583,256.917 123.333,253.5 127,250.5C130.333,247.833 134.417,245.75 139.25,244.25C144.083,242.75 149.667,242 156,242C162,242 167.333,242.75 172,244.25C176.667,245.75 180.667,248 184,251C187.333,253.667 189.833,256.833 191.5,260.5C193.167,264.167 194,268.167 194,272.5C194,276.5 193.25,280.167 191.75,283.5C190.25,286.833 188.167,289.5 185.5,291.5C183.5,293.167 181.167,294.583 178.5,295.75C175.833,296.917 172.667,297.833 169,298.5L153,302.5C149.667,303.167 147,303.833 145,304.5C143,305.167 141.5,305.833 140.5,306.5C139.167,307.167 138.083,308.167 137.25,309.5C136.417,310.833 136,312.333 136,314C136,316 136.417,317.667 137.25,319C138.083,320.333 139.167,321.5 140.5,322.5C142.167,323.5 144,324.25 146,324.75C148,325.25 150.333,325.5 153,325.5C155,325.5 157,325.333 159,325C161,324.667 162.833,324.167 164.5,323.5C166.833,322.167 168.583,320.5 169.75,318.5C170.917,316.5 171.667,314 172,311L191,311C190.667,316.333 189.583,320.917 187.75,324.75C185.917,328.583 183.167,331.667 179.5,334C176.167,336.667 172.333,338.667 168,340C163.667,341.333 159,342 154,342C148,342 142.75,341.333 138.25,340C133.75,338.667 130,336.667 127,334C124,331 121.667,327.75 120,324.25C118.333,320.75 117.5,316.833 117.5,312.5C117.5,307.833 118.333,303.833 120,300.5C121.667,297.167 124.167,294.333 127.5,292C129.167,290.667 131.75,289.417 135.25,288.25C138.75,287.083 142.833,286 147.5,285L158,282.5C160.667,281.833 163.083,281.167 165.25,280.5C167.417,279.833 169.167,279 170.5,278C171.833,277.333 172.917,276.333 173.75,275C174.583,273.667 175,272.333 175,271C175,268.333 174.25,266.083 172.75,264.25C171.25,262.417 169.167,261 166.5,260C165.167,259.333 163.5,258.917 161.5,258.75C159.5,258.583 157.333,258.5 155,258.5C151.333,258.5 148.083,259 145.25,260C142.417,261 140.167,262.333 138.5,264C137.833,265.333 137.167,266.75 136.5,268.25C135.833,269.75 135.333,271.667 135,274L116,274ZM207,244.5L226.5,244.5L226.5,339.5L207,339.5L207,244.5ZM238.5,244.5L312,244.5L312,261.5L262.5,261.5L312,323.5L312,339.5L239.5,339.5L239.5,322.5L287.5,322.5L238.5,261.5L238.5,244.5ZM395.5,339.5L326,339.5L326,244.5L398,244.5L398,261.5L345.5,261.5L345.5,286L391.5,286L391.5,302.5L345.5,302.5L345.5,322.5L395.5,322.5L395.5,339.5ZM288.5,113L288.5,129L247.5,129C248.167,130 248.833,130.917 249.5,131.75C250.167,132.583 251,133.333 252,134C252.667,135 253.833,136.083 255.5,137.25C257.167,138.417 259.167,139.833 261.5,141.5L268.5,146.5C271.833,148.833 274.583,150.917 276.75,152.75C278.917,154.583 280.667,156.5 282,158.5C284,161.167 285.5,164 286.5,167C287.5,170 288,173.333 288,177C288,181.333 287.333,185.333 286,189C284.667,192.667 282.5,195.833 279.5,198.5C276.5,201.167 273.083,203.167 269.25,204.5C265.417,205.833 261,206.5 256,206.5C249.667,206.5 244.333,205.333 240,203C235.667,200.667 232.333,197.167 230,192.5C228.667,190.167 227.667,187.417 227,184.25C226.333,181.083 225.833,177.5 225.5,173.5L243.5,173.5C243.5,176.167 243.667,178.417 244,180.25C244.333,182.083 244.833,183.667 245.5,185C246.5,187 247.917,188.5 249.75,189.5C251.583,190.5 254,191 257,191C259,191 260.75,190.667 262.25,190C263.75,189.333 265,188.5 266,187.5C267.333,186.167 268.25,184.667 268.75,183C269.25,181.333 269.5,179.5 269.5,177.5C269.5,175.167 269,172.833 268,170.5C267,168.167 265.5,166 263.5,164C262.5,162.667 260.583,160.917 257.75,158.75C254.917,156.583 251.5,154 247.5,151C242.5,147.667 238.5,144.333 235.5,141C232.5,137.667 230.333,134.5 229,131.5C227.667,128.5 226.583,125.5 225.75,122.5C224.917,119.5 224.5,116.333 224.5,113L288.5,113Z" style="fill-rule:nonzero;"/>
    </g>
</svg>
