<?xml version="1.0" encoding="UTF-8" standalone="no"?>
<!DOCTYPE svg PUBLIC "-//W3C//DTD SVG 1.1//EN" "http://www.w3.org/Graphics/SVG/1.1/DTD/svg11.dtd">
<svg width="100%" height="100%" viewBox="0 0 32 32" version="1.1" xmlns="http://www.w3.org/2000/svg" xmlns:xlink="http://www.w3.org/1999/xlink" xml:space="preserve" xmlns:serif="http://www.serif.com/" style="fill-rule:evenodd;clip-rule:evenodd;stroke-linejoin:round;stroke-miterlimit:2;">
    <g transform="matrix(0.0728929,1.00628e-33,0,-0.0728929,-3.20729,33.1945)">
        <path d="M263.5,455.5L453.5,346L453.5,126.5L263.5,16.5L73.5,126.5L73.5,346L263.5,455.5ZM245,244.5L318.5,244.5L318.5,261.5L269,261.5L318.5,323.5L318.5,339.5L246,339.5L246,322.5L293.5,322.5L245,261.5L245,244.5ZM402,339.5L332.5,339.5L332.5,244.5L404.5,244.5L404.5,261.5L352,261.5L352,286L398,286L398,302.5L352,302.5L352,322.5L402,322.5L402,339.5ZM213.5,244.5L233,244.5L233,339.5L213.5,339.5L213.5,244.5ZM122.5,274C122.5,269 123.417,264.583 125.25,260.75C127.083,256.917 129.667,253.5 133,250.5C136.667,247.833 140.917,245.75 145.75,244.25C150.583,242.75 156.167,242 162.5,242C168.5,242 173.833,242.75 178.5,244.25C183.167,245.75 187.167,248 190.5,251C193.833,253.667 196.333,256.833 198,260.5C199.667,264.167 200.5,268.167 200.5,272.5C200.5,276.5 199.75,280.167 198.25,283.5C196.75,286.833 194.667,289.5 192,291.5C190,293.167 187.667,294.583 185,295.75C182.333,296.917 179.167,297.833 175.5,298.5L159,302.5C156,303.167 153.5,303.833 151.5,304.5C149.5,305.167 148,305.833 147,306.5C145.333,307.167 144.167,308.167 143.5,309.5C142.833,310.833 142.5,312.333 142.5,314C142.5,316 142.833,317.667 143.5,319C144.167,320.333 145.333,321.5 147,322.5C148.333,323.5 150.083,324.25 152.25,324.75C154.417,325.25 156.667,325.5 159,325.5C161.333,325.5 163.5,325.333 165.5,325C167.5,324.667 169.167,324.167 170.5,323.5C172.833,322.167 174.667,320.5 176,318.5C177.333,316.5 178,314 178,311L197,311C197,316.333 196.083,320.917 194.25,324.75C192.417,328.583 189.667,331.667 186,334C182.667,336.667 178.833,338.667 174.5,340C170.167,341.333 165.5,342 160.5,342C154.5,342 149.25,341.333 144.75,340C140.25,338.667 136.5,336.667 133.5,334C130.167,331 127.75,327.75 126.25,324.25C124.75,320.75 124,316.833 124,312.5C124,307.833 124.833,303.833 126.5,300.5C128.167,297.167 130.5,294.333 133.5,292C135.5,290.667 138.167,289.417 141.5,288.25C144.833,287.083 149,286 154,285L164,282.5C167,281.833 169.583,281.167 171.75,280.5C173.917,279.833 175.667,279 177,278C178.333,277.333 179.333,276.333 180,275C180.667,273.667 181,272.333 181,271C181,268.333 180.333,266.083 179,264.25C177.667,262.417 175.667,261 173,260C171.333,259.333 169.583,258.917 167.75,258.75C165.917,258.583 163.833,258.5 161.5,258.5C157.5,258.5 154.167,259 151.5,260C148.833,261 146.667,262.333 145,264C144,265.333 143.25,266.75 142.75,268.25C142.25,269.75 141.833,271.667 141.5,274L122.5,274ZM258,177.5L258,113L276.5,113L276.5,206L261.5,206C261.5,205.667 261.417,205.167 261.25,204.5C261.083,203.833 260.833,203.167 260.5,202.5C260.167,201.167 259.667,199.917 259,198.75C258.333,197.583 257.667,196.667 257,196C256,194.667 254.75,193.583 253.25,192.75C251.75,191.917 250,191.333 248,191C247,190.667 245.417,190.417 243.25,190.25C241.083,190.083 238.667,190 236,190L236,177.5L258,177.5Z" style="fill-rule:nonzero;"/>
    </g>
</svg>
