<?xml version="1.0" encoding="UTF-8" standalone="no"?>
<!DOCTYPE svg PUBLIC "-//W3C//DTD SVG 1.1//EN" "http://www.w3.org/Graphics/SVG/1.1/DTD/svg11.dtd">
<svg width="100%" height="100%" viewBox="0 0 32 32" version="1.1" xmlns="http://www.w3.org/2000/svg" xmlns:xlink="http://www.w3.org/1999/xlink" xml:space="preserve" xmlns:serif="http://www.serif.com/" style="fill-rule:evenodd;clip-rule:evenodd;stroke-linejoin:round;stroke-miterlimit:2;">
    <g transform="matrix(0.0728929,0,0,-0.0728929,-3.11617,33.2027)">
        <path d="M346.5,382L431.5,382L473.5,309L431.5,235.5L473.5,162L431.5,88.5L348,88.5L306.5,16.5L222,16.5L180,89.5L179,88L94.5,88L52,161.5L94,234.5L93,234.5L51,307.5L93,381L178,381L177,382.5L219.5,455.5L304,455.5L346.5,382ZM121.5,274C121.5,269 122.333,264.583 124,260.75C125.667,256.917 128.333,253.5 132,250.5C135.667,247.833 139.917,245.75 144.75,244.25C149.583,242.75 155,242 161,242C167,242 172.417,242.75 177.25,244.25C182.083,245.75 186,248 189,251C192.333,253.667 194.833,256.833 196.5,260.5C198.167,264.167 199,268.167 199,272.5C199,276.5 198.333,280.167 197,283.5C195.667,286.833 193.5,289.5 190.5,291.5C188.833,293.167 186.667,294.583 184,295.75C181.333,296.917 178.167,297.833 174.5,298.5L158,302.5C155,303.167 152.417,303.833 150.25,304.5C148.083,305.167 146.667,305.833 146,306.5C144.333,307.167 143.167,308.167 142.5,309.5C141.833,310.833 141.5,312.333 141.5,314C141.5,316 141.833,317.667 142.5,319C143.167,320.333 144.333,321.5 146,322.5C147.333,323.5 149.083,324.25 151.25,324.75C153.417,325.25 155.667,325.5 158,325.5C160.333,325.5 162.5,325.333 164.5,325C166.5,324.667 168.167,324.167 169.5,323.5C171.833,322.167 173.667,320.5 175,318.5C176.333,316.5 177,314 177,311L196,311C196,316.333 195.083,320.917 193.25,324.75C191.417,328.583 188.667,331.667 185,334C181.333,336.667 177.417,338.667 173.25,340C169.083,341.333 164.5,342 159.5,342C153.5,342 148.25,341.333 143.75,340C139.25,338.667 135.333,336.667 132,334C129,331 126.75,327.75 125.25,324.25C123.75,320.75 123,316.833 123,312.5C123,307.833 123.833,303.833 125.5,300.5C127.167,297.167 129.5,294.333 132.5,292C134.5,290.667 137.167,289.417 140.5,288.25C143.833,287.083 148,286 153,285L163,282.5C166,281.833 168.583,281.167 170.75,280.5C172.917,279.833 174.667,279 176,278C177.333,277.333 178.333,276.333 179,275C179.667,273.667 180,272.333 180,271C180,268.333 179.333,266.083 178,264.25C176.667,262.417 174.667,261 172,260C170.333,259.333 168.583,258.917 166.75,258.75C164.917,258.583 162.833,258.5 160.5,258.5C156.5,258.5 153.167,259 150.5,260C147.833,261 145.667,262.333 144,264C143,265.333 142.25,266.75 141.75,268.25C141.25,269.75 140.833,271.667 140.5,274L121.5,274ZM212.5,244.5L232,244.5L232,339.5L212.5,339.5L212.5,244.5ZM243.5,244.5L317.5,244.5L317.5,261.5L267.5,261.5L317.5,323.5L317.5,339.5L245,339.5L245,322.5L292.5,322.5L243.5,261.5L243.5,244.5ZM401,339.5L331.5,339.5L331.5,244.5L403,244.5L403,261.5L350.5,261.5L350.5,286L397,286L397,302.5L350.5,302.5L350.5,322.5L401,322.5L401,339.5ZM229,141.5C229.333,137.833 229.833,134.5 230.5,131.5C231.167,128.5 232.167,125.833 233.5,123.5C236.167,119.167 239.833,115.917 244.5,113.75C249.167,111.583 254.667,110.5 261,110.5C266.333,110.5 271.083,111.25 275.25,112.75C279.417,114.25 282.833,116.5 285.5,119.5C288.167,122.5 290.167,125.75 291.5,129.25C292.833,132.75 293.5,136.5 293.5,140.5C293.5,144.167 292.917,147.5 291.75,150.5C290.583,153.5 288.833,156 286.5,158C285.167,159.667 283.833,160.833 282.5,161.5C281.167,162.167 280.167,162.5 279.5,162.5C280.5,162.833 281.583,163.417 282.75,164.25C283.917,165.083 285,166.167 286,167.5C287.667,169.167 288.833,171.167 289.5,173.5C290.167,175.833 290.5,178.333 290.5,181C290.5,185 289.833,188.583 288.5,191.75C287.167,194.917 285.167,197.667 282.5,200C279.833,202 276.667,203.583 273,204.75C269.333,205.917 265.333,206.5 261,206.5C258.667,206.5 256.5,206.417 254.5,206.25C252.5,206.083 250.667,205.667 249,205C247.333,204.333 245.75,203.583 244.25,202.75C242.75,201.917 241.5,201 240.5,200C238.833,198.333 237.417,196.667 236.25,195C235.083,193.333 234,191.667 233,190C232.333,187.667 231.833,185.417 231.5,183.25C231.167,181.083 231,178.833 231,176.5L248,176.5C248,178.833 248.25,180.917 248.75,182.75C249.25,184.583 250,186.167 251,187.5C252,188.833 253.25,189.917 254.75,190.75C256.25,191.583 258.167,192 260.5,192C262.167,192 263.75,191.667 265.25,191C266.75,190.333 268,189.5 269,188.5C270,187.167 270.833,185.833 271.5,184.5C272.167,183.167 272.5,181.5 272.5,179.5C272.5,176.833 271.917,174.583 270.75,172.75C269.583,170.917 268,169.667 266,169C265,168.333 263.417,167.833 261.25,167.5C259.083,167.167 256.5,167 253.5,167L253.5,154C256.833,154 259.583,153.833 261.75,153.5C263.917,153.167 265.667,152.667 267,152C269.667,151 271.583,149.5 272.75,147.5C273.917,145.5 274.5,143 274.5,140C274.5,137.667 274.167,135.583 273.5,133.75C272.833,131.917 271.833,130.5 270.5,129.5C269.167,128.167 267.75,127.167 266.25,126.5C264.75,125.833 263,125.5 261,125.5C258,125.5 255.5,126.083 253.5,127.25C251.5,128.417 250,130.167 249,132.5C248.333,133.5 247.833,134.833 247.5,136.5C247.167,138.167 247,139.833 247,141.5L229,141.5Z" style="fill-rule:nonzero;"/>
    </g>
</svg>
