<?xml version="1.0" encoding="UTF-8" standalone="no"?>
<!DOCTYPE svg PUBLIC "-//W3C//DTD SVG 1.1//EN" "http://www.w3.org/Graphics/SVG/1.1/DTD/svg11.dtd">
<svg width="100%" height="100%" viewBox="0 0 32 32" version="1.1" xmlns="http://www.w3.org/2000/svg" xmlns:xlink="http://www.w3.org/1999/xlink" xml:space="preserve" xmlns:serif="http://www.serif.com/" style="fill-rule:evenodd;clip-rule:evenodd;stroke-linejoin:round;stroke-miterlimit:2;">
    <g transform="matrix(0.0728929,1.4514e-33,-1.4514e-33,-0.0728929,-2.66059,34.1139)">
        <path d="M311,424L365,455.5L420.5,424L420.5,360L475.5,328L475.5,264.5L421,233L422,232.5L422,169L366.5,137L366.5,73.5L311.5,41.5L257.5,73L203,41.5L148,73.5L148,137L93,168.5L93,232L92,231.5L36.5,263L36.5,327L91.5,358.5L91,359L91,422.5L146,454.5L201,422.5L201,424L256.5,455.5L311,424ZM115,274C115,269 115.917,264.583 117.75,260.75C119.583,256.917 122.333,253.5 126,250.5C129.333,247.833 133.417,245.75 138.25,244.25C143.083,242.75 148.667,242 155,242C161,242 166.333,242.75 171,244.25C175.667,245.75 179.667,248 183,251C186.333,253.667 188.833,256.833 190.5,260.5C192.167,264.167 193,268.167 193,272.5C193,276.5 192.25,280.167 190.75,283.5C189.25,286.833 187.167,289.5 184.5,291.5C182.5,293.167 180.167,294.583 177.5,295.75C174.833,296.917 171.833,297.833 168.5,298.5L152,302.5C148.667,303.167 146,303.833 144,304.5C142,305.167 140.5,305.833 139.5,306.5C138.167,307.167 137.083,308.167 136.25,309.5C135.417,310.833 135,312.333 135,314C135,316 135.417,317.667 136.25,319C137.083,320.333 138.167,321.5 139.5,322.5C141.167,323.5 143,324.25 145,324.75C147,325.25 149.333,325.5 152,325.5C154.333,325.5 156.417,325.333 158.25,325C160.083,324.667 161.833,324.167 163.5,323.5C165.833,322.167 167.583,320.5 168.75,318.5C169.917,316.5 170.667,314 171,311L190,311C189.667,316.333 188.583,320.917 186.75,324.75C184.917,328.583 182.333,331.667 179,334C175.333,336.667 171.333,338.667 167,340C162.667,341.333 158,342 153,342C147.333,342 142.167,341.333 137.5,340C132.833,338.667 129,336.667 126,334C123,331 120.75,327.75 119.25,324.25C117.75,320.75 117,316.833 117,312.5C117,307.833 117.75,303.833 119.25,300.5C120.75,297.167 123.167,294.333 126.5,292C128.167,290.667 130.75,289.417 134.25,288.25C137.75,287.083 142,286 147,285L157,282.5C159.667,281.833 162.083,281.167 164.25,280.5C166.417,279.833 168.167,279 169.5,278C171.167,277.333 172.333,276.333 173,275C173.667,273.667 174,272.333 174,271C174,268.333 173.25,266.083 171.75,264.25C170.25,262.417 168.167,261 165.5,260C164.167,259.333 162.5,258.917 160.5,258.75C158.5,258.583 156.333,258.5 154,258.5C150.333,258.5 147.083,259 144.25,260C141.417,261 139.167,262.333 137.5,264C136.833,265.333 136.167,266.75 135.5,268.25C134.833,269.75 134.333,271.667 134,274L115,274ZM206,244.5L225.5,244.5L225.5,339.5L206,339.5L206,244.5ZM237.5,244.5L311,244.5L311,261.5L261.5,261.5L311,323.5L311,339.5L238.5,339.5L238.5,322.5L286.5,322.5L237.5,261.5L237.5,244.5ZM394.5,339.5L325,339.5L325,244.5L397,244.5L397,261.5L344.5,261.5L344.5,286L390.5,286L390.5,302.5L344.5,302.5L344.5,322.5L394.5,322.5L394.5,339.5ZM288.5,147.5L278,147.5L278,205.5L257,205.5L223,149L223,133L260,133L260,113L278,113L278,133L288.5,133L288.5,147.5ZM236.5,147.5L260,187.5L260,147.5L236.5,147.5Z" style="fill-rule:nonzero;"/>
    </g>
</svg>
