<?xml version="1.0" encoding="UTF-8" standalone="no"?>
<!DOCTYPE svg PUBLIC "-//W3C//DTD SVG 1.1//EN" "http://www.w3.org/Graphics/SVG/1.1/DTD/svg11.dtd">
<svg width="100%" height="100%" viewBox="0 0 100 100" version="1.1" xmlns="http://www.w3.org/2000/svg" xmlns:xlink="http://www.w3.org/1999/xlink" xml:space="preserve" xmlns:serif="http://www.serif.com/" style="fill-rule:evenodd;clip-rule:evenodd;stroke-linejoin:round;stroke-miterlimit:2;">
    <g transform="matrix(1,0,0,1,-2.5,0.85)">
        <path d="M77.7,8.1L76.5,8L30.8,8C22.9,8 16.4,14.2 16,22L16,90.3L42,68.6L68,90.3L68,48L89,48L89,20.5C89,14 84,8.6 77.7,8.1ZM64,20.5L64,81.7L42,63.4L20,81.7L20,22.8C20,16.8 24.8,12 30.8,12L67.4,12C65.3,14.2 64,17.2 64,20.5ZM85,44L68,44L68,20.5C68,15.8 71.8,12 76.5,12C81.2,12 85,15.8 85,20.5L85,44Z" style="fill-rule:nonzero;"/>
    </g>
</svg>
