<?xml version="1.0" encoding="UTF-8" standalone="no"?>
<!DOCTYPE svg PUBLIC "-//W3C//DTD SVG 1.1//EN" "http://www.w3.org/Graphics/SVG/1.1/DTD/svg11.dtd">
<svg width="100%" height="100%" viewBox="0 0 100 100" version="1.1" xmlns="http://www.w3.org/2000/svg" xmlns:xlink="http://www.w3.org/1999/xlink" xml:space="preserve" xmlns:serif="http://www.serif.com/" style="fill-rule:evenodd;clip-rule:evenodd;stroke-linejoin:round;stroke-miterlimit:2;">
    <g transform="matrix(1,0,0,1,0.05,-0.3375)">
        <path d="M91.9,74.7C92,74.6 92,74.5 92,74.5L92,26.5C92,26.4 91.9,26.4 91.9,26.3L91.9,26.2C91.9,26.1 91.8,26.1 91.8,26.1L91.8,26L91.7,25.9C91.7,25.9 91.6,25.8 91.5,25.8L91.4,25.8L50.9,2.3C50.3,2 49.6,2 49.1,2.3L8.8,25.6C8.7,25.6 8.7,25.7 8.6,25.7L8.5,25.7L8,26.2L8,26.3C8,26.3 8,26.4 7.9,26.4L7.9,74C7.9,74.1 8,74.2 8,74.3C8,74.4 8.1,74.5 8.2,74.6L8.2,74.7C8.2,74.9 8.3,75 8.4,75C8.5,75.1 8.5,75.1 8.6,75.2L8.8,75.2L49.1,98.5C49.1,98.5 49.2,98.5 49.2,98.6L50.7,98.6C50.7,98.6 50.8,98.6 50.8,98.5L91.1,75.2L91.3,75.2C91.3,75.2 91.4,75.2 91.4,75.1L91.5,75C91.5,75 91.6,75 91.6,74.9L91.7,74.8C91.7,74.8 91.7,74.7 91.8,74.7C91.8,74.8 91.8,74.7 91.9,74.7ZM11.9,37.6L23.1,65.4C23.2,65.7 23.1,66.1 22.7,66.3L12.4,70.6C12,70.8 11.5,70.5 11.5,70L11.5,37.7C11.5,37.5 11.8,37.4 11.9,37.6ZM51.8,22.8L51.8,8.2C51.8,7.7 52.4,7.4 52.8,7.6L82,24.5C82.2,24.6 82.1,24.9 81.9,24.9L52.4,23.4C52.1,23.4 51.8,23.1 51.8,22.8ZM47.5,23.4L18,24.9C17.8,24.9 17.7,24.6 17.9,24.5L47.2,7.7C47.6,7.4 48.2,7.8 48.2,8.3L48.2,22.8C48.2,23.1 47.9,23.4 47.5,23.4ZM25.5,69.7L41.6,89.6C41.7,89.8 41.5,90 41.3,89.9L15,74.7C14.5,74.4 14.6,73.7 15.1,73.5L24.8,69.5C25,69.4 25.3,69.5 25.5,69.7ZM75.2,69.5L84.9,73.5C85.4,73.7 85.5,74.4 85,74.7L58.6,89.9C58.4,90 58.2,89.8 58.3,89.6L74.4,69.7C74.7,69.5 75,69.4 75.2,69.5ZM87.6,70.6L77.3,66.3C77,66.2 76.8,65.8 76.9,65.4L88.1,37.6C88.2,37.4 88.5,37.5 88.5,37.7L88.5,70C88.5,70.5 88,70.8 87.6,70.6Z" style="fill-rule:nonzero;"/>
    </g>
</svg>
