<?xml version="1.0" encoding="UTF-8" standalone="no"?>
<!DOCTYPE svg PUBLIC "-//W3C//DTD SVG 1.1//EN" "http://www.w3.org/Graphics/SVG/1.1/DTD/svg11.dtd">
<svg width="100%" height="100%" viewBox="0 0 32 32" version="1.1" xmlns="http://www.w3.org/2000/svg" xmlns:xlink="http://www.w3.org/1999/xlink" xml:space="preserve" xmlns:serif="http://www.serif.com/" style="fill-rule:evenodd;clip-rule:evenodd;stroke-linejoin:round;stroke-miterlimit:2;">
    <g transform="matrix(1,0,0,1,-334,-334)">
        <g transform="matrix(4.4827e-18,-0.073208,-0.073208,-4.4827e-18,386.525,375.635)">
            <path d="M291.99,277.14L408.35,277.14L409.28,277.328L410.065,277.851L410.592,278.644L410.776,279.566L410.776,280.781L410.592,281.706L410.065,282.495L409.28,283.023L408.35,283.206L291.99,283.206L291.06,283.023L290.279,282.495L289.752,281.706L289.568,280.781L289.568,279.566L289.752,278.644L290.279,277.851L291.06,277.328L291.99,277.14" style="fill:rgb(206,122,103);"/>
        </g>
        <g transform="matrix(4.4827e-18,-0.073208,-0.073208,-4.4827e-18,354.505,375.635)">
            <path d="M334.98,204.41L365.355,204.41L366.285,204.598L367.07,205.121L368.285,206.332L368.808,207.121L368.996,208.051L368.808,208.976L368.285,209.765L367.499,210.293L366.57,210.476L333.769,210.476L332.839,210.293L332.058,209.765L331.531,208.976L331.347,208.051L331.531,207.121L332.058,206.332L333.265,205.121L334.058,204.598L334.98,204.41" style="fill:rgb(206,122,103);"/>
        </g>
        <g transform="matrix(4.4827e-18,-0.073208,-0.073208,-4.4827e-18,354.505,375.635)">
            <path d="M300.77,240.78L399.582,240.78L400.383,240.913L401.094,241.311L401.637,241.925L402.402,243.182L402.723,244.147L402.621,245.155L402.117,246.034L401.301,246.628L400.312,246.839L300.032,246.839L299.048,246.628L298.228,246.034L297.724,245.155L297.626,244.147L297.943,243.182L298.712,241.925L299.247,241.311L299.966,240.913L300.767,240.78" style="fill:rgb(206,122,103);"/>
        </g>
        <g transform="matrix(4.4827e-18,-0.073208,-0.073208,-4.4827e-18,354.505,375.635)">
            <path d="M291.99,277.14L408.35,277.14L409.28,277.328L410.065,277.851L410.592,278.644L410.776,279.566L410.776,280.781L410.592,281.706L410.065,282.495L409.28,283.023L408.35,283.206L291.99,283.206L291.06,283.023L290.279,282.495L289.752,281.706L289.568,280.781L289.568,279.566L289.752,278.644L290.279,277.851L291.06,277.328L291.99,277.14" style="fill:rgb(206,122,103);"/>
        </g>
        <g transform="matrix(4.4827e-18,-0.073208,-0.073208,-4.4827e-18,386.525,375.635)">
            <path d="M300.03,313.5L400.31,313.5L401.298,313.715L402.115,314.309L402.619,315.188L402.72,316.195L402.4,317.152L401.634,318.418L401.091,319.027L400.38,319.426L399.58,319.559L300.768,319.559L299.967,319.426L299.248,319.027L298.713,318.418L297.943,317.152L297.627,316.195L297.725,315.188L298.228,314.309L299.049,313.715L300.033,313.5" style="fill:rgb(206,122,103);"/>
        </g>
        <g transform="matrix(4.4827e-18,-0.073208,-0.073208,-4.4827e-18,386.525,375.635)">
            <path d="M366.57,349.87L367.5,350.054L368.285,350.581L368.808,351.37L368.996,352.292L368.808,353.222L368.285,354.007L367.07,355.222L366.285,355.749L365.355,355.932L334.98,355.932L334.058,355.749L333.265,355.222L332.058,354.007L331.531,353.222L331.347,352.292L331.531,351.37L332.058,350.581L332.84,350.054L333.769,349.87L366.57,349.87" style="fill:rgb(206,122,103);"/>
        </g>
        <g transform="matrix(4.4827e-18,0.073208,-0.073208,4.4827e-18,370.51,324.364)">
            <path d="M334.98,204.41L365.355,204.41L366.285,204.598L367.07,205.121L368.285,206.332L368.808,207.121L368.996,208.051L368.808,208.976L368.285,209.765L367.499,210.293L366.57,210.476L333.769,210.476L332.839,210.293L332.058,209.765L331.531,208.976L331.347,208.051L331.531,207.121L332.058,206.332L333.265,205.121L334.058,204.598L334.98,204.41" style="fill:rgb(206,122,103);"/>
        </g>
        <g transform="matrix(4.4827e-18,0.073208,-0.073208,4.4827e-18,370.51,324.364)">
            <path d="M300.77,240.78L399.582,240.78L400.383,240.913L401.094,241.311L401.637,241.925L402.402,243.182L402.723,244.147L402.621,245.155L402.117,246.034L401.301,246.628L400.312,246.839L300.032,246.839L299.048,246.628L298.228,246.034L297.724,245.155L297.626,244.147L297.943,243.182L298.712,241.925L299.247,241.311L299.966,240.913L300.767,240.78" style="fill:rgb(206,122,103);"/>
        </g>
        <g transform="matrix(4.4827e-18,0.073208,-0.073208,4.4827e-18,370.51,324.364)">
            <path d="M291.99,277.14L408.35,277.14L409.28,277.328L410.065,277.851L410.592,278.644L410.776,279.566L410.776,280.781L410.592,281.706L410.065,282.495L409.28,283.023L408.35,283.206L291.99,283.206L291.06,283.023L290.279,282.495L289.752,281.706L289.568,280.781L289.568,279.566L289.752,278.644L290.279,277.851L291.06,277.328L291.99,277.14" style="fill:rgb(206,122,103);"/>
        </g>
        <g transform="matrix(4.4827e-18,0.073208,-0.073208,4.4827e-18,370.51,324.364)">
            <path d="M300.03,313.5L400.31,313.5L401.298,313.715L402.115,314.309L402.619,315.188L402.72,316.195L402.4,317.152L401.634,318.418L401.091,319.027L400.38,319.426L399.58,319.559L300.768,319.559L299.967,319.426L299.248,319.027L298.713,318.418L297.943,317.152L297.627,316.195L297.725,315.188L298.228,314.309L299.049,313.715L300.033,313.5" style="fill:rgb(206,122,103);"/>
        </g>
        <g transform="matrix(4.4827e-18,0.073208,-0.073208,4.4827e-18,370.51,324.364)">
            <path d="M366.57,349.87L367.5,350.054L368.285,350.581L368.808,351.37L368.996,352.292L368.808,353.222L368.285,354.007L367.07,355.222L366.285,355.749L365.355,355.932L334.98,355.932L334.058,355.749L333.265,355.222L332.058,354.007L331.531,353.222L331.347,352.292L331.531,351.37L332.058,350.581L332.84,350.054L333.769,349.87L366.57,349.87" style="fill:rgb(206,122,103);"/>
        </g>
        <g transform="matrix(1,0,0,-1,334,365.999)">
            <path d="M19.908,19.451L27.438,11.921L27.739,11.641L28.06,11.383L28.398,11.148L28.752,10.938L29.12,10.754L29.5,10.595L29.891,10.466L30.29,10.364L30.695,10.291L31.104,10.247L31.516,10.232L34.191,10.232L34.306,10.247L34.413,10.292L34.505,10.362L34.575,10.454L34.62,10.561L34.635,10.676L34.62,10.79L34.575,10.897L34.505,10.989L34.413,11.06L34.306,11.104L34.191,11.119L31.516,11.119L31.154,11.133L30.794,11.173L30.437,11.24L30.086,11.334L29.744,11.453L29.411,11.597L29.09,11.766L28.815,11.935L28.552,12.123L28.302,12.328L28.066,12.549L24.615,16L23.986,16.627L20.535,20.079L20.234,20.359L19.913,20.617L19.575,20.852L19.22,21.062L18.852,21.247L18.472,21.404L18.082,21.534L17.683,21.636L17.278,21.709L16.868,21.753L16.457,21.767L15.543,21.767L15.132,21.753L14.722,21.709L14.317,21.636L13.919,21.534L13.528,21.404L13.148,21.247L12.78,21.062L12.425,20.852L12.087,20.617L11.766,20.359L11.465,20.079L8.014,16.627L7.387,16L3.936,12.548L3.699,12.327L3.449,12.123L3.186,11.935L2.912,11.765L2.59,11.597L2.257,11.452L1.915,11.333L1.564,11.239L1.207,11.172L0.847,11.132L0.484,11.119L-2.191,11.119L-2.306,11.104L-2.413,11.059L-2.505,10.989L-2.576,10.897L-2.62,10.79L-2.635,10.675L-2.62,10.561L-2.576,10.454L-2.505,10.362L-2.413,10.291L-2.306,10.247L-2.191,10.232L0.484,10.232L0.895,10.247L1.305,10.29L1.71,10.363L2.109,10.465L2.499,10.595L2.88,10.752L3.248,10.937L3.602,11.147L3.94,11.382L4.261,11.64L4.562,11.921L4.562,11.922L12.093,19.451L12.374,19.711L12.674,19.948L12.993,20.161L13.328,20.348L13.676,20.509L14.035,20.641L14.404,20.745L14.78,20.82L15.16,20.865L15.543,20.88L16.457,20.88L16.84,20.865L17.22,20.82L17.596,20.745L17.965,20.641L18.324,20.509L18.672,20.348L19.007,20.161L19.326,19.948L19.626,19.711L19.908,19.451Z" style="fill:rgb(206,122,103);"/>
        </g>
    </g>
</svg>
