<?xml version="1.0" encoding="UTF-8" standalone="no"?>
<!DOCTYPE svg PUBLIC "-//W3C//DTD SVG 1.1//EN" "http://www.w3.org/Graphics/SVG/1.1/DTD/svg11.dtd">
<svg width="100%" height="100%" viewBox="0 0 64 64" version="1.1" xmlns="http://www.w3.org/2000/svg" xmlns:xlink="http://www.w3.org/1999/xlink" xml:space="preserve" xmlns:serif="http://www.serif.com/" style="fill-rule:evenodd;clip-rule:evenodd;stroke-linejoin:round;stroke-miterlimit:2;">
    <g transform="matrix(1,0,0,1,11.7986,20.9045)">
        <g transform="matrix(0.704795,0,0,0.704795,-14.8006,-24.1434)">
            <path d="M86.625,52.402C84.703,50.496 82.031,47.949 79.75,46.371C80,45.261 80.313,42.761 79,40.261C77.797,37.98 75.578,36.308 72.375,35.293C71.938,33.543 71.203,31.996 70.109,30.636C70.109,30.636 68.234,24.793 64.109,20.011C60.125,15.418 59.922,5.464 59.922,5.355C59.957,4.629 58.883,4.297 58.5,4.934C52.812,13.465 56.156,20.465 58.719,23.934C51.617,22.031 44.496,13.77 41.024,9.207C40.711,8.796 40.071,9.078 40.137,9.589C41.203,17.421 45.711,25.691 52.856,29.237C58.653,32.112 60.212,38.573 56.391,42.901C57.223,43.925 59.11,44.979 58.391,46.448C57.985,47.698 55.11,57.932 69.829,68.948C70.298,69.292 70.782,69.636 71.282,69.995C73.017,68.929 73.896,66.78 74.36,65.011C74.505,64.437 73.907,63.878 73.345,64.089C73.314,64.104 70.735,64.948 69.314,63.636C66.204,60.761 63.892,58.183 64.532,53.339C64.841,51.058 66.325,50.382 68.579,50.854C71.501,51.511 75.282,53.026 76.704,56.526C76.736,57.12 76.751,59.839 75.736,61.698C75.611,61.948 75.611,62.245 75.751,62.479C75.892,62.714 76.173,62.854 76.439,62.854C77.908,62.839 80.814,61.792 81.783,58.089L82.876,58.183C83.158,59.229 83.642,61.745 82.236,62.698C81.97,62.886 81.845,63.245 81.939,63.558C82.033,63.886 82.329,64.12 82.658,64.12C85.947,64.339 91.365,57.206 86.626,52.401L86.625,52.402ZM73.437,45.246C72.882,45.91 71.894,46 71.234,45.449L68.343,43.074C67.671,42.511 67.578,41.527 68.125,40.871C68.671,40.199 69.656,40.105 70.328,40.652L73.218,43.043C73.89,43.59 73.984,44.574 73.437,45.246L73.437,45.246Z" style="fill-rule:nonzero;"/>
        </g>
        <g transform="matrix(0.704795,0,0,0.704795,-14.8006,-24.1434)">
            <path d="M56.312,61.949C53.566,62.648 50.046,61.832 47.687,60.996C47.968,62.746 48.515,64.418 49.234,66.058C51.015,66.355 53.171,66.543 55.062,66.465C56.421,66.402 57.64,66.215 58.5,65.84C57.335,64.441 56.785,63.402 56.312,61.949L56.312,61.949Z" style="fill-rule:nonzero;"/>
        </g>
        <g transform="matrix(0.704795,0,0,0.704795,-14.8006,-24.1434)">
            <path d="M69.188,87.48C66.141,88.031 62.063,87.734 59.516,87.168C60.051,89.789 60.051,92.66 59.532,95.402L72.079,95.402C72.758,92.531 72.797,89.504 72.219,86.73C71.219,87.074 70.204,87.308 69.188,87.48L69.188,87.48Z" style="fill-rule:nonzero;"/>
        </g>
        <g transform="matrix(0.704795,0,0,0.704795,-14.8006,-24.1434)">
            <path d="M37.75,35.074C38.141,35.433 38.313,35.949 38.281,36.621C38.273,37.215 37.195,37.937 36.547,38.246C38.145,39.363 40.309,40.918 41.594,41.902C44.785,38.633 47.93,36.953 51.719,35.871C45.129,25.797 37.235,26.98 32.297,33.558C32.297,33.558 37.078,34.449 37.75,35.074L37.75,35.074Z" style="fill-rule:nonzero;"/>
        </g>
        <g transform="matrix(0.704795,0,0,0.704795,-14.8006,-24.1434)">
            <path d="M24.203,50.559C26.797,51.778 25.484,58.043 24.422,61.012C25.797,59.356 27.266,57.996 28.656,56.934C32.57,54.039 34.68,53.305 35.5,53.168C36.5,49.528 37.953,46.637 39.609,44.309C38.535,43.512 35.371,41.289 33.359,39.907C32.285,39.168 30.977,38.852 29.687,39.059C23.633,40.043 14.859,43.09 10.843,52.336C10.562,52.992 20.999,49.039 24.202,50.555L24.203,50.559Z" style="fill-rule:nonzero;"/>
        </g>
        <g transform="matrix(0.704795,0,0,0.704795,-14.8006,-24.1434)">
            <path d="M36.703,69.637C36.516,69.7 34.031,70.606 32.453,74.559C31.828,76.211 31.43,77.883 31.25,80.325C32.375,79.418 33.734,78.746 35.109,78.95C35.672,79.028 36.328,79.262 36.969,79.825C36.969,79.825 39.313,75.09 39.531,74.95C38.477,73.281 37.551,71.368 36.703,69.637L36.703,69.637Z" style="fill-rule:nonzero;"/>
        </g>
        <g transform="matrix(0.704795,0,0,0.704795,-14.8006,-24.1434)">
            <path d="M35.641,66.699C34.704,63.652 34.297,60.355 34.75,56.746C29.5,58.976 23.238,65.594 21.969,72.949C21.594,74.621 21.36,76.465 21.329,78.465C23.048,76.074 26.094,72.98 27.876,73.121C28.376,73.168 28.829,73.558 29.235,74.293C29.657,73.058 30.157,72.027 30.688,71.152C32.626,67.964 35.016,66.918 35.641,66.699L35.641,66.699Z" style="fill-rule:nonzero;"/>
        </g>
        <g transform="matrix(0.704795,0,0,0.704795,-14.8006,-24.1434)">
            <path d="M54.969,47.527C50.489,48.222 47.414,52.308 47.469,57.574C49.481,58.402 53.207,59.531 55.672,58.902C55.641,57.98 55.828,57.324 56.063,56.887C55.594,55.652 55.297,54.496 55.094,53.418C54.656,50.98 54.75,48.949 54.969,47.527L54.969,47.527Z" style="fill-rule:nonzero;"/>
        </g>
        <g transform="matrix(0.704795,0,0,0.704795,-14.8006,-24.1434)">
            <path d="M50.938,69.449C51.954,71.25 53.079,73.113 54.188,74.918C56.813,75.23 60.016,75.183 62.063,74.59C63.715,74.14 63.899,73.621 64.438,72.543C63.133,71.008 61.864,69.656 60.594,68.23C57.852,69.867 54,69.726 50.938,69.449L50.938,69.449Z" style="fill-rule:nonzero;"/>
        </g>
        <g transform="matrix(0.704795,0,0,0.704795,-14.8006,-24.1434)">
            <path d="M68.328,84.449C69.359,84.308 70.391,84.074 71.406,83.73C70.297,80.574 68.531,77.746 66.578,75.199C64.66,77.914 60.758,78.203 57.625,78.262C57.094,78.262 56.562,78.246 56.078,78.23C57.047,80.012 57.922,81.84 58.578,83.762C60.172,84.168 64.172,85.043 68.328,84.449Z" style="fill-rule:nonzero;"/>
        </g>
        <g transform="matrix(0.704795,0,0,0.704795,-14.8006,-24.1434)">
            <path d="M55.812,85.277C52.765,76.074 44.472,68.808 44.328,58.574C44.035,51.586 47.68,45.969 53.672,44.605L53.078,43.996C52.441,43.371 52.516,42.214 53.234,41.683C53.25,41.667 54.906,40.308 55.281,38.308C51.516,38.699 41.922,41.074 38.406,54.417C35.844,64.152 40.766,71.386 45.531,78.386C48.656,82.996 49.141,87.402 49.906,92.277C50.062,93.293 50.125,94.34 50.078,95.402L56.344,95.402C57.121,91.992 56.84,88.461 55.812,85.277L55.812,85.277Z" style="fill-rule:nonzero;"/>
        </g>
    </g>
</svg>
