<?xml version="1.0" encoding="UTF-8" standalone="no"?>
<!DOCTYPE svg PUBLIC "-//W3C//DTD SVG 1.1//EN" "http://www.w3.org/Graphics/SVG/1.1/DTD/svg11.dtd">
<svg width="100%" height="100%" viewBox="0 0 32 32" version="1.1" xmlns="http://www.w3.org/2000/svg" xmlns:xlink="http://www.w3.org/1999/xlink" xml:space="preserve" xmlns:serif="http://www.serif.com/" style="fill-rule:evenodd;clip-rule:evenodd;stroke-linejoin:round;stroke-miterlimit:2;">
    <g transform="matrix(1,0,0,1,0.000703222,-0.000703222)">
        <path d="M28.27,3.73C27.486,2.944 26.42,2.501 25.31,2.501C24.2,2.501 23.134,2.944 22.35,3.73L11.49,14.58C11.259,14.817 11.112,15.122 11.07,15.45L10.51,19.81C10.502,19.873 10.498,19.936 10.498,20C10.498,20.823 11.175,21.5 11.998,21.5L12.19,21.5L16.55,20.94C16.878,20.898 17.183,20.751 17.42,20.52L28.27,9.65C29.056,8.866 29.499,7.8 29.499,6.69C29.499,5.58 29.056,4.514 28.27,3.73ZM15.66,18L13.73,18.25L14,16.34L21.11,9.23L22.79,10.91L15.66,18ZM26.15,7.53L24.89,8.79L23.21,7.11L24.47,5.85C24.936,5.401 25.684,5.401 26.15,5.85C26.375,6.072 26.501,6.374 26.501,6.69C26.501,7.006 26.375,7.308 26.15,7.53ZM27.5,17L27.5,26C27.5,27.92 25.92,29.5 24,29.5L6,29.5C4.08,29.5 2.5,27.92 2.5,26L2.5,8C2.5,6.08 4.08,4.5 6,4.5L15,4.5C15.823,4.5 16.5,5.177 16.5,6C16.5,6.823 15.823,7.5 15,7.5L6,7.5C5.726,7.5 5.5,7.726 5.5,8L5.5,26C5.5,26.274 5.726,26.5 6,26.5L24,26.5C24.274,26.5 24.5,26.274 24.5,26L24.5,17C24.5,16.177 25.177,15.5 26,15.5C26.823,15.5 27.5,16.177 27.5,17Z" style="fill-rule:nonzero;"/>
    </g>
</svg>
