<?xml version="1.0" encoding="UTF-8" standalone="no"?>
<!DOCTYPE svg PUBLIC "-//W3C//DTD SVG 1.1//EN" "http://www.w3.org/Graphics/SVG/1.1/DTD/svg11.dtd">
<svg width="100%" height="100%" viewBox="0 0 32 32" version="1.1" xmlns="http://www.w3.org/2000/svg" xmlns:xlink="http://www.w3.org/1999/xlink" xml:space="preserve" xmlns:serif="http://www.serif.com/" style="fill-rule:evenodd;clip-rule:evenodd;stroke-linejoin:round;stroke-miterlimit:2;">
    <g transform="matrix(0.0823195,0,0,0.0823195,-12.8089,-6.9148)">
        <path d="M359.69,88.129L447.327,176.629C457.866,187.191 442.058,203.031 431.522,192.469L365.163,125.977C362.921,123.731 361.183,124.481 361.183,127.555L361.183,330.165C361.183,336.357 356.175,341.368 350.003,341.368C343.827,341.368 338.827,336.356 338.827,330.165L338.827,127.555C338.827,124.469 337.041,123.774 334.842,125.977L268.487,192.469C257.944,203.031 242.139,187.192 252.678,176.629L339.955,88.129C345.377,82.633 354.228,82.613 359.689,88.129L359.69,88.129ZM294.002,226.329C300.19,226.329 305.201,231.345 305.201,237.528C305.201,243.716 300.189,248.727 294.002,248.727L254.803,248.727C251.705,248.727 249.201,251.235 249.201,254.364L249.201,444.694C249.201,447.815 251.713,450.33 254.838,450.33L445.168,450.33C448.289,450.33 450.805,447.819 450.805,444.694L450.805,254.364C450.805,251.258 448.274,248.727 445.203,248.727L406.004,248.727C399.817,248.727 394.805,243.715 394.805,237.528C394.805,231.344 399.817,226.329 406.004,226.329L445.203,226.329C460.648,226.329 473.203,238.891 473.203,254.364L473.203,444.694C473.203,460.194 460.656,472.729 445.168,472.729L254.838,472.729C239.338,472.729 226.803,460.182 226.803,444.694L226.803,254.364C226.803,238.872 239.33,226.329 254.803,226.329L294.002,226.329Z"/>
    </g>
</svg>
