<?xml version="1.0" encoding="UTF-8" standalone="no"?>
<!DOCTYPE svg PUBLIC "-//W3C//DTD SVG 1.1//EN" "http://www.w3.org/Graphics/SVG/1.1/DTD/svg11.dtd">
<svg width="100%" height="100%" viewBox="0 0 505 505" version="1.1" xmlns="http://www.w3.org/2000/svg" xmlns:xlink="http://www.w3.org/1999/xlink" xml:space="preserve" xmlns:serif="http://www.serif.com/" style="fill-rule:evenodd;clip-rule:evenodd;stroke-linejoin:round;stroke-miterlimit:2;">
    <g transform="matrix(1,0,0,1,-97.9975,-27.9988)">
        <path d="M315.279,532L384.721,532C392.561,532 400.401,527.52 404.323,520.801L430.643,473.762L482.163,488.321C490.003,490.559 498.401,488.321 504.003,482.719L552.722,434C558.324,428.399 560.562,420 558.324,412.16L543.765,360.64L590.804,333.761C598.085,329.84 602.003,322.562 602.003,314.159L601.999,245.28C601.999,237.441 597.518,229.6 590.8,225.678L543.761,199.358L558.32,147.838C560.558,139.999 558.32,131.6 552.718,125.998L503.999,77.279C498.397,71.678 489.999,69.44 482.159,71.678L430.639,86.237L403.76,39.198C399.838,31.917 392.561,27.999 384.158,27.999L315.279,27.999C307.439,27.999 299.599,32.479 295.677,39.198L269.357,86.237L217.837,71.678C209.997,69.44 201.599,71.678 195.997,77.279L147.278,125.998C141.676,131.6 139.438,139.998 141.676,147.838L156.235,199.358L109.196,225.678C101.915,229.6 97.997,236.877 97.997,245.28L97.997,314.159C97.997,321.999 102.478,329.839 109.196,333.761L156.235,360.081L141.676,411.601C139.438,419.441 141.676,427.839 147.278,433.441L195.997,482.16C201.599,487.762 209.997,490 217.837,487.762L269.357,473.203L296.236,520.805C300.158,527.52 307.439,532 315.279,532ZM349.999,392C288.397,392 237.999,341.602 237.999,280C237.999,218.398 288.397,168 349.999,168C411.601,168 461.999,218.398 461.999,280C461.999,341.602 411.601,392 349.999,392ZM349.999,212.8C313.038,212.8 282.8,243.038 282.8,279.999C282.8,316.96 313.038,347.198 349.999,347.198C386.96,347.198 417.198,316.96 417.198,279.999C417.198,243.038 386.96,212.8 349.999,212.8Z" style="fill-rule:nonzero;"/>
    </g>
</svg>
