<?xml version="1.0" encoding="UTF-8" standalone="no"?>
<!DOCTYPE svg PUBLIC "-//W3C//DTD SVG 1.1//EN" "http://www.w3.org/Graphics/SVG/1.1/DTD/svg11.dtd">
<svg width="100%" height="100%" viewBox="0 0 32 32" version="1.1" xmlns="http://www.w3.org/2000/svg" xmlns:xlink="http://www.w3.org/1999/xlink" xml:space="preserve" xmlns:serif="http://www.serif.com/" style="fill-rule:evenodd;clip-rule:evenodd;stroke-linecap:round;stroke-linejoin:round;stroke-miterlimit:1.5;">
    <g transform="matrix(1.08159,0,0,1.08159,-1.26812,-3.23285)">
        <g transform="matrix(1,0,0,1,-0.432409,0)">
            <circle cx="6.083" cy="8.329" r="2.867"/>
        </g>
        <g transform="matrix(1,0,0,1,-0.432409,9.45286)">
            <circle cx="6.083" cy="8.329" r="2.867"/>
        </g>
        <g transform="matrix(1,0,0,1,-0.432409,18.9057)">
            <circle cx="6.083" cy="8.329" r="2.867"/>
        </g>
        <g transform="matrix(1,0,0,1,0,0.110105)">
            <path d="M11.95,8.219L28.302,8.219" style="fill:none;stroke:black;stroke-width:3.24px;"/>
        </g>
        <g transform="matrix(1,0,0,1,0,9.56296)">
            <path d="M11.95,8.219L28.302,8.219" style="fill:none;stroke:black;stroke-width:3.24px;"/>
        </g>
        <g transform="matrix(1,0,0,1,0,19.0158)">
            <path d="M11.95,8.219L28.302,8.219" style="fill:none;stroke:black;stroke-width:3.24px;"/>
        </g>
    </g>
</svg>
