<?xml version="1.0" encoding="UTF-8" standalone="no"?>
<svg
   xmlns:dc="http://purl.org/dc/elements/1.1/"
   xmlns:cc="http://creativecommons.org/ns#"
   xmlns:rdf="http://www.w3.org/1999/02/22-rdf-syntax-ns#"
   xmlns:svg="http://www.w3.org/2000/svg"
   xmlns="http://www.w3.org/2000/svg"
   xmlns:sodipodi="http://sodipodi.sourceforge.net/DTD/sodipodi-0.dtd"
   xmlns:inkscape="http://www.inkscape.org/namespaces/inkscape"
   width="100%"
   height="100%"
   viewBox="0 0 100 100"
   version="1.1"
   xml:space="preserve"
   style="fill-rule:evenodd;clip-rule:evenodd;stroke-linejoin:round;stroke-miterlimit:2;"
   id="svg16"
   sodipodi:docname="list_dot.svg"
   inkscape:version="1.0.1 (3bc2e813f5, 2020-09-07)"><metadata
   id="metadata22"><rdf:RDF><cc:Work
       rdf:about=""><dc:format>image/svg+xml</dc:format><dc:type
         rdf:resource="http://purl.org/dc/dcmitype/StillImage" /><dc:title /></cc:Work></rdf:RDF></metadata><defs
   id="defs20" /><sodipodi:namedview
   pagecolor="#ffffff"
   bordercolor="#666666"
   borderopacity="1"
   objecttolerance="10"
   gridtolerance="10"
   guidetolerance="10"
   inkscape:pageopacity="0"
   inkscape:pageshadow="2"
   inkscape:window-width="1735"
   inkscape:window-height="844"
   id="namedview18"
   showgrid="false"
   inkscape:zoom="1.500773"
   inkscape:cx="-47.360783"
   inkscape:cy="93.809661"
   inkscape:window-x="0"
   inkscape:window-y="0"
   inkscape:window-maximized="0"
   inkscape:current-layer="g8"
   inkscape:document-rotation="0" />
    
<g
   id="g8"
   transform="matrix(0.00124806,0,0,0.00124806,6.3976322,8.7320414)"
   style="image-rendering:optimizeQuality;shape-rendering:geometricPrecision;text-rendering:geometricPrecision"><path
     style="color:#000000;font-style:normal;font-variant:normal;font-weight:normal;font-stretch:normal;font-size:medium;line-height:normal;font-family:sans-serif;font-variant-ligatures:normal;font-variant-position:normal;font-variant-caps:normal;font-variant-numeric:normal;font-variant-alternates:normal;font-variant-east-asian:normal;font-feature-settings:normal;font-variation-settings:normal;text-indent:0;text-align:start;text-decoration:none;text-decoration-line:none;text-decoration-style:solid;text-decoration-color:#000000;letter-spacing:normal;word-spacing:normal;text-transform:none;writing-mode:lr-tb;direction:ltr;text-orientation:mixed;dominant-baseline:auto;baseline-shift:baseline;text-anchor:start;white-space:normal;shape-padding:0;shape-margin:0;inline-size:0;clip-rule:nonzero;display:inline;overflow:visible;visibility:visible;opacity:1;isolation:auto;mix-blend-mode:normal;color-interpolation:sRGB;color-interpolation-filters:linearRGB;solid-color:#000000;solid-opacity:1;vector-effect:none;fill:#922610;fill-opacity:1;fill-rule:nonzero;stroke:none;stroke-width:8997.63;stroke-linecap:round;stroke-linejoin:round;stroke-miterlimit:4;stroke-dasharray:none;stroke-dashoffset:0;stroke-opacity:1;paint-order:fill markers stroke;color-rendering:auto;image-rendering:auto;shape-rendering:auto;text-rendering:auto;enable-background:accumulate;stop-color:#000000;stop-opacity:1"
     d="m 38065.25,22642.079 a 4499.265,4499.265 0 0 0 -1137.64,147.027 l 0.298,-0.387 c -804.707,210.984 -1409.38,458.301 -1846.507,627.045 a 4499.265,4499.265 0 0 0 -337.845,146.575 c -466.086,225.31 -907.193,472.801 -1324.478,739.902 -361.376,161.888 -585.687,338.85 -733.947,508.195 -2658.969,1986.977 -4215.576,4834.256 -4924.609,7808.062 -156.997,176.572 -295.536,344.69 -428.073,518.938 34.79,-34.855 99.758,-96.621 205.672,-193.691 -74.954,90.923 -197.008,201.72 -230.126,225.868 -26.598,35.308 -53.053,70.812 -79.378,106.852 -116.384,159.338 -176.49,162.026 -488.646,797.613 -78.039,158.896 -188.408,325.68 -334.646,916.45 -73.119,295.386 -197.643,694.043 -107.921,1552.692 82.948,793.839 660.009,2360.146 1967.211,3265.626 314.255,712.089 985.768,2147.095 2849.616,3125.286 a 4499.265,4499.265 0 0 0 472.391,214.154 c 1840.368,709.485 3707.961,153.572 4535.469,-243.165 a 4499.265,4499.265 0 0 0 341.346,-182.097 c 33.258,-19.625 66.157,-39.528 98.839,-59.587 719.01,-80.348 1316.886,-252.042 1615.117,-498.405 972.794,-803.596 1005.07,-1157.973 1132.674,-1405.132 127.601,-247.157 176.938,-382.405 217.525,-491.098 162.35,-434.773 153.818,-492.423 176.941,-595.15 2.917,-12.964 4.995,-23.297 7.738,-35.706 -80.707,444.008 -18.406,21.68 274.665,-699.543 615.671,-741.552 1390.066,-1706.227 2118.73,-2832.504 673.669,-1041.276 1469.179,-2355.086 1499.937,-4408.886 17.77,-1186.609 -442.288,-2475.461 -1148.329,-3566.287 a 4499.265,4499.265 0 0 0 110.411,-990.278 v -0.786 A 4499.265,4499.265 0 0 0 38065.25,22642.079 Z m 1766.843,16482.401 c -4.723,7.289 -9.56,12.962 -14.42,17.259 4.819,-5.769 9.575,-11.459 14.42,-17.259 z"
     id="path8010" /></g></svg>
