<?xml version="1.0" encoding="UTF-8" standalone="no"?>
<!DOCTYPE svg PUBLIC "-//W3C//DTD SVG 1.1//EN" "http://www.w3.org/Graphics/SVG/1.1/DTD/svg11.dtd">
<svg width="100%" height="100%" viewBox="0 0 32 32" version="1.1" xmlns="http://www.w3.org/2000/svg" xmlns:xlink="http://www.w3.org/1999/xlink" xml:space="preserve" xmlns:serif="http://www.serif.com/" style="fill-rule:evenodd;clip-rule:evenodd;stroke-linejoin:round;stroke-miterlimit:2;">
    <g transform="matrix(0.607551,0,0,1,1.33818,0.387332)">
        <path d="M16.303,3.735C16.303,2.817 15.077,2.073 13.568,2.073C13.568,2.073 4.497,2.073 4.497,2.073C2.988,2.073 1.762,2.817 1.762,3.735L1.762,27.491C1.762,28.407 2.987,29.152 4.497,29.152C4.497,29.152 13.568,29.152 13.568,29.152C15.078,29.152 16.303,28.407 16.303,27.491C16.303,27.491 16.303,3.735 16.303,3.735ZM5.058,4.075L5.058,27.15L13.007,27.15L13.007,4.075L5.058,4.075Z"/>
    </g>
    <g transform="matrix(2.23027,0,0,1,-4.195,0.387332)">
        <path d="M2.963,25.73L2.961,25.727C2.961,27.617 3.649,29.151 4.497,29.151L4.549,29.151C4.796,29.151 4.997,28.703 4.997,28.151C4.997,27.599 4.796,27.151 4.549,27.151C4.539,27.151 4.53,27.152 4.521,27.153C4.513,27.152 4.505,27.151 4.497,27.151C4.144,27.151 3.858,26.513 3.858,25.727L3.857,25.73L3.858,25.651C3.858,25.099 3.657,24.651 3.41,24.651C3.162,24.651 2.961,25.099 2.961,25.651L2.963,25.73ZM8.136,29.151L9.929,29.151C10.177,29.151 10.378,28.703 10.378,28.151C10.378,27.599 10.177,27.151 9.929,27.151L8.136,27.151C7.888,27.151 7.687,27.599 7.687,28.151C7.687,28.703 7.888,29.151 8.136,29.151ZM13.516,29.151L13.568,29.151L13.608,29.15C14.437,29.103 15.103,27.587 15.103,25.727L15.102,25.73L15.103,25.651C15.103,25.099 14.902,24.651 14.655,24.651C14.408,24.651 14.207,25.099 14.207,25.651L14.208,25.73L14.207,25.727C14.207,26.513 13.921,27.151 13.568,27.151L13.568,27.157C13.552,27.153 13.535,27.151 13.516,27.151C13.269,27.151 13.068,27.599 13.068,28.151C13.068,28.703 13.269,29.151 13.516,29.151ZM2.961,13.651L2.961,17.651C2.961,18.203 3.162,18.651 3.41,18.651C3.657,18.651 3.858,18.203 3.858,17.651L3.858,13.651C3.858,13.099 3.657,12.651 3.41,12.651C3.162,12.651 2.961,13.099 2.961,13.651ZM15.103,17.651L15.103,13.651C15.103,13.099 14.902,12.651 14.655,12.651C14.408,12.651 14.207,13.099 14.207,13.651L14.207,17.651C14.207,18.203 14.408,18.651 14.655,18.651C14.902,18.651 15.103,18.203 15.103,17.651ZM4.497,2.075L4.497,2.074C3.649,2.074 2.961,3.608 2.961,5.498L3.41,6.498L2.961,5.5L2.961,5.651C2.961,6.203 3.162,6.651 3.41,6.651C3.657,6.651 3.858,6.203 3.858,5.651L3.858,5.498C3.858,4.712 4.144,4.074 4.497,4.074L4.514,4.074C4.762,4.074 4.963,3.626 4.963,3.074C4.963,2.522 4.762,2.074 4.514,2.074L4.497,2.075ZM13.568,2.092C13.543,2.08 13.514,2.074 13.482,2.074C13.234,2.074 13.033,2.522 13.033,3.074C13.033,3.626 13.234,4.074 13.482,4.074L13.568,4.074C13.921,4.074 14.207,4.712 14.207,5.498L14.207,5.651C14.207,6.203 14.408,6.651 14.655,6.651C14.902,6.651 15.103,6.203 15.103,5.651L15.103,5.498C15.103,3.608 14.416,2.074 13.568,2.074L13.568,2.092ZM9.895,2.074L8.101,2.074C7.854,2.074 7.653,2.522 7.653,3.074C7.653,3.626 7.854,4.074 8.101,4.074L9.895,4.074C10.142,4.074 10.343,3.626 10.343,3.074C10.343,2.522 10.142,2.074 9.895,2.074Z"/>
    </g>
    <g transform="matrix(0.983387,0,0,1,-3.74808,0.0612119)">
        <path d="M18.489,12.499L21.986,15.939L18.489,19.378C17.893,19.964 17.893,20.914 18.489,21.499C19.084,22.085 20.051,22.085 20.646,21.499L26.301,15.939L20.646,10.378C20.051,9.793 19.084,9.793 18.489,10.378C17.893,10.964 17.893,11.914 18.489,12.499Z"/>
    </g>
    <g transform="matrix(1.04769,0,0,1,-5.39858,0.0612119)">
        <path d="M16.234,17.439L24.143,17.439C24.985,17.439 25.669,16.767 25.669,15.939C25.669,15.111 24.985,14.439 24.143,14.439L16.234,14.439C15.393,14.439 14.709,15.111 14.709,15.939C14.709,16.767 15.393,17.439 16.234,17.439Z"/>
    </g>
</svg>
