<?xml version="1.0" encoding="UTF-8" standalone="no"?>
<!DOCTYPE svg PUBLIC "-//W3C//DTD SVG 1.1//EN" "http://www.w3.org/Graphics/SVG/1.1/DTD/svg11.dtd">
<svg width="100%" height="100%" viewBox="0 0 32 32" version="1.1" xmlns="http://www.w3.org/2000/svg" xmlns:xlink="http://www.w3.org/1999/xlink" xml:space="preserve" xmlns:serif="http://www.serif.com/" style="fill-rule:evenodd;clip-rule:evenodd;stroke-linejoin:round;stroke-miterlimit:2;">
    <path d="M9.678,2.462L26.076,2.462C27.965,2.462 29.499,3.996 29.499,5.885L29.499,26.115C29.499,28.004 27.965,29.538 26.076,29.538L9.678,29.538L9.678,27.538L26.076,27.538C26.861,27.538 27.499,26.9 27.499,26.115L27.499,5.885C27.499,5.1 26.861,4.462 26.076,4.462L9.678,4.462L9.678,2.462Z"/>
    <g transform="matrix(2.21829,0,0,0.994629,-20.5007,0.471191)">
        <path d="M10.318,25.73L10.316,25.727C10.316,27.617 11.004,29.151 11.852,29.151L11.904,29.151C12.151,29.151 12.352,28.703 12.352,28.151C12.352,27.599 12.151,27.151 11.904,27.151C11.894,27.151 11.885,27.152 11.876,27.153C11.868,27.152 11.86,27.151 11.852,27.151C11.499,27.151 11.213,26.513 11.213,25.727L11.212,25.73L11.213,25.651C11.213,25.099 11.012,24.651 10.765,24.651C10.517,24.651 10.316,25.099 10.316,25.651L10.318,25.73ZM13.516,29.151L13.568,29.151L13.608,29.15C14.437,29.103 15.103,27.587 15.103,25.727L15.102,25.73L15.103,25.651C15.103,25.099 14.902,24.651 14.655,24.651C14.408,24.651 14.207,25.099 14.207,25.651L14.208,25.73L14.207,25.727C14.207,26.513 13.921,27.151 13.568,27.151L13.568,27.157C13.552,27.153 13.535,27.151 13.516,27.151C13.269,27.151 13.068,27.599 13.068,28.151C13.068,28.703 13.269,29.151 13.516,29.151ZM10.316,13.651L10.316,17.651C10.316,18.203 10.517,18.651 10.765,18.651C11.012,18.651 11.213,18.203 11.213,17.651L11.213,13.651C11.213,13.099 11.012,12.651 10.765,12.651C10.517,12.651 10.316,13.099 10.316,13.651ZM15.103,17.651L15.103,13.651C15.103,13.099 14.902,12.651 14.655,12.651C14.408,12.651 14.207,13.099 14.207,13.651L14.207,17.651C14.207,18.203 14.408,18.651 14.655,18.651C14.902,18.651 15.103,18.203 15.103,17.651ZM11.852,2.075L11.852,2.074C11.004,2.074 10.316,3.608 10.316,5.498L10.765,6.498L10.316,5.5L10.316,5.651C10.316,6.203 10.517,6.651 10.765,6.651C11.012,6.651 11.213,6.203 11.213,5.651L11.213,5.498L11.213,5.498C11.213,4.712 11.499,4.074 11.852,4.074L11.869,4.074C12.117,4.074 12.318,3.626 12.318,3.074C12.318,2.522 12.117,2.074 11.869,2.074L11.852,2.075ZM13.568,2.092C13.543,2.08 13.514,2.074 13.482,2.074C13.234,2.074 13.033,2.522 13.033,3.074C13.033,3.626 13.234,4.074 13.482,4.074L13.568,4.074C13.921,4.074 14.207,4.712 14.207,5.498L14.207,5.5L14.207,5.5C14.207,5.5 14.207,5.561 14.207,5.651C14.207,6.203 14.408,6.651 14.655,6.651C14.902,6.651 15.103,6.203 15.103,5.651L15.103,5.498C15.103,3.608 14.416,2.074 13.568,2.074L13.568,2.092Z"/>
    </g>
    <g transform="matrix(-0.983387,0,0,1,42.936,0.0612119)">
        <path d="M18.489,12.499L21.986,15.939C21.986,15.939 18.489,19.378 18.489,19.378C17.893,19.964 17.893,20.914 18.489,21.499C19.084,22.085 20.051,22.085 20.646,21.499L26.301,15.939L20.646,10.378C20.051,9.793 19.084,9.793 18.489,10.378C17.893,10.964 17.893,11.914 18.489,12.499Z"/>
    </g>
    <g transform="matrix(-1.04769,0,0,1,44.5865,0.0612119)">
        <path d="M16.234,17.439L24.143,17.439C24.985,17.439 25.669,16.767 25.669,15.939C25.669,15.111 24.985,14.439 24.143,14.439L16.234,14.439C15.393,14.439 14.709,15.111 14.709,15.939C14.709,16.767 15.393,17.439 16.234,17.439Z"/>
    </g>
</svg>
