<?xml version="1.0" encoding="UTF-8" standalone="no"?>
<!DOCTYPE svg PUBLIC "-//W3C//DTD SVG 1.1//EN" "http://www.w3.org/Graphics/SVG/1.1/DTD/svg11.dtd">
<svg width="100%" height="100%" viewBox="0 0 28 28" version="1.1" xmlns="http://www.w3.org/2000/svg" xmlns:xlink="http://www.w3.org/1999/xlink" xml:space="preserve" xmlns:serif="http://www.serif.com/" style="fill-rule:evenodd;clip-rule:evenodd;stroke-linejoin:round;stroke-miterlimit:2;">
    <g transform="matrix(1,0,0,1,-0.48698,4.16707)">
        <g transform="matrix(16,0,0,16,-0.30502,15.4969)">
            <path d="M0.564,0L0.564,-0.615L0.561,-0.615L0.387,0L0.322,0L0.149,-0.615L0.146,-0.615L0.146,0L0.081,0L0.081,-0.708L0.185,-0.708L0.354,-0.11L0.358,-0.11L0.525,-0.708L0.633,-0.708L0.633,0L0.564,0Z" style="fill-rule:nonzero;"/>
        </g>
        <g transform="matrix(16,0,0,16,11.119,15.4969)">
            <rect x="0.081" y="-0.708" width="0.07" height="0.708" style="fill-rule:nonzero;"/>
        </g>
        <g transform="matrix(16,0,0,16,14.831,15.4969)">
            <path d="M0.388,-0.181C0.388,-0.15 0.383,-0.122 0.374,-0.098C0.365,-0.073 0.352,-0.053 0.336,-0.036C0.319,-0.019 0.3,-0.006 0.278,0.004C0.256,0.013 0.233,0.017 0.208,0.017C0.172,0.017 0.139,0.009 0.109,-0.006C0.078,-0.021 0.054,-0.042 0.035,-0.067L0.078,-0.116C0.093,-0.094 0.113,-0.077 0.136,-0.065C0.159,-0.053 0.183,-0.047 0.207,-0.047C0.239,-0.047 0.266,-0.058 0.288,-0.081C0.309,-0.104 0.32,-0.136 0.32,-0.178C0.32,-0.198 0.317,-0.216 0.31,-0.231C0.303,-0.246 0.294,-0.26 0.283,-0.272C0.272,-0.284 0.259,-0.295 0.245,-0.304C0.23,-0.313 0.215,-0.322 0.199,-0.33C0.18,-0.339 0.161,-0.35 0.144,-0.362C0.127,-0.373 0.112,-0.387 0.099,-0.402C0.086,-0.417 0.075,-0.436 0.067,-0.457C0.059,-0.478 0.055,-0.502 0.055,-0.53C0.055,-0.563 0.06,-0.591 0.07,-0.616C0.08,-0.64 0.094,-0.66 0.111,-0.677C0.128,-0.693 0.147,-0.705 0.168,-0.713C0.189,-0.721 0.212,-0.725 0.235,-0.725C0.267,-0.725 0.296,-0.72 0.322,-0.709C0.347,-0.698 0.369,-0.68 0.386,-0.657L0.343,-0.608C0.33,-0.627 0.314,-0.641 0.296,-0.65C0.278,-0.658 0.258,-0.662 0.237,-0.662C0.223,-0.662 0.209,-0.66 0.196,-0.655C0.182,-0.65 0.17,-0.642 0.159,-0.631C0.148,-0.62 0.14,-0.607 0.133,-0.59C0.126,-0.573 0.123,-0.554 0.123,-0.531C0.123,-0.511 0.126,-0.494 0.132,-0.479C0.138,-0.464 0.146,-0.451 0.157,-0.44C0.167,-0.429 0.179,-0.419 0.193,-0.41C0.206,-0.401 0.22,-0.393 0.235,-0.386C0.254,-0.377 0.272,-0.366 0.291,-0.354C0.309,-0.342 0.325,-0.328 0.34,-0.312C0.355,-0.296 0.366,-0.277 0.375,-0.256C0.384,-0.235 0.388,-0.21 0.388,-0.181Z" style="fill-rule:nonzero;"/>
        </g>
        <g transform="matrix(16,0,0,16,21.775,15.4969)">
            <path d="M0.388,-0.181C0.388,-0.15 0.383,-0.122 0.374,-0.098C0.365,-0.073 0.352,-0.053 0.336,-0.036C0.319,-0.019 0.3,-0.006 0.278,0.004C0.256,0.013 0.233,0.017 0.208,0.017C0.172,0.017 0.139,0.009 0.109,-0.006C0.078,-0.021 0.054,-0.042 0.035,-0.067L0.078,-0.116C0.093,-0.094 0.113,-0.077 0.136,-0.065C0.159,-0.053 0.183,-0.047 0.207,-0.047C0.239,-0.047 0.266,-0.058 0.288,-0.081C0.309,-0.104 0.32,-0.136 0.32,-0.178C0.32,-0.198 0.317,-0.216 0.31,-0.231C0.303,-0.246 0.294,-0.26 0.283,-0.272C0.272,-0.284 0.259,-0.295 0.245,-0.304C0.23,-0.313 0.215,-0.322 0.199,-0.33C0.18,-0.339 0.161,-0.35 0.144,-0.362C0.127,-0.373 0.112,-0.387 0.099,-0.402C0.086,-0.417 0.075,-0.436 0.067,-0.457C0.059,-0.478 0.055,-0.502 0.055,-0.53C0.055,-0.563 0.06,-0.591 0.07,-0.616C0.08,-0.64 0.094,-0.66 0.111,-0.677C0.128,-0.693 0.147,-0.705 0.168,-0.713C0.189,-0.721 0.212,-0.725 0.235,-0.725C0.267,-0.725 0.296,-0.72 0.322,-0.709C0.347,-0.698 0.369,-0.68 0.386,-0.657L0.343,-0.608C0.33,-0.627 0.314,-0.641 0.296,-0.65C0.278,-0.658 0.258,-0.662 0.237,-0.662C0.223,-0.662 0.209,-0.66 0.196,-0.655C0.182,-0.65 0.17,-0.642 0.159,-0.631C0.148,-0.62 0.14,-0.607 0.133,-0.59C0.126,-0.573 0.123,-0.554 0.123,-0.531C0.123,-0.511 0.126,-0.494 0.132,-0.479C0.138,-0.464 0.146,-0.451 0.157,-0.44C0.167,-0.429 0.179,-0.419 0.193,-0.41C0.206,-0.401 0.22,-0.393 0.235,-0.386C0.254,-0.377 0.272,-0.366 0.291,-0.354C0.309,-0.342 0.325,-0.328 0.34,-0.312C0.355,-0.296 0.366,-0.277 0.375,-0.256C0.384,-0.235 0.388,-0.21 0.388,-0.181Z" style="fill-rule:nonzero;"/>
        </g>
    </g>
</svg>
