<?xml version="1.0" encoding="UTF-8" standalone="no"?>
<!DOCTYPE svg PUBLIC "-//W3C//DTD SVG 1.1//EN" "http://www.w3.org/Graphics/SVG/1.1/DTD/svg11.dtd">
<svg width="100%" height="100%" viewBox="0 0 100 100" version="1.1" xmlns="http://www.w3.org/2000/svg" xmlns:xlink="http://www.w3.org/1999/xlink" xml:space="preserve" xmlns:serif="http://www.serif.com/" style="fill-rule:evenodd;clip-rule:evenodd;stroke-linejoin:round;stroke-miterlimit:2;">
    <g transform="matrix(1,0,0,1,-1,0.95)">
        <g transform="matrix(1,0,0,1,-0.05,0)">
            <path d="M65.1,17.8L65.1,6.5L35.8,6.5L35.8,17.8L11.4,17.8L11.4,23.9L18.7,23.9L23.9,91.6L77.2,91.6L82.4,23.9L90.7,23.9L90.7,17.8L65.1,17.8ZM59.1,12.5L59.1,17.7L41.9,17.7L41.9,12.5L59.1,12.5ZM29.4,85.4L24.7,23.8L76.2,23.8L71.4,85.4L29.4,85.4Z" style="fill-rule:nonzero;"/>
        </g>
        <rect x="47.4" y="32.6" width="6.1" height="44.3"/>
        <g transform="matrix(-0.9985,-0.0542137,0.0542137,-0.9985,122.65,112.779)">
            <rect x="59.8" y="32.5" width="6.1" height="44.4"/>
        </g>
        <g transform="matrix(-0.05409,-0.9985,0.9985,-0.05409,-14.5815,95.6577)">
            <rect x="15.8" y="51.7" width="44.4" height="6.1"/>
        </g>
    </g>
</svg>
