<?xml version="1.0" encoding="UTF-8" standalone="no"?>
<!DOCTYPE svg PUBLIC "-//W3C//DTD SVG 1.1//EN" "http://www.w3.org/Graphics/SVG/1.1/DTD/svg11.dtd">
<svg width="100%" height="100%" viewBox="0 0 100 100" version="1.1" xmlns="http://www.w3.org/2000/svg" xmlns:xlink="http://www.w3.org/1999/xlink" xml:space="preserve" xmlns:serif="http://www.serif.com/" style="fill-rule:evenodd;clip-rule:evenodd;stroke-linejoin:round;stroke-miterlimit:2;">
    <g transform="matrix(1.11694,0,0,1.11694,-5.84713,-5.84713)">
        <g id="a">
            <path d="M82.1,22.1C82.701,21.53 83.001,20.83 83,20C83.001,19.17 82.701,18.454 82.1,17.85C81.53,17.282 80.83,16.999 80,17C79.17,16.999 78.454,17.282 77.85,17.85L50,45.75L22.1,17.85C21.53,17.282 20.83,16.999 20,17C19.17,16.999 18.454,17.282 17.85,17.85C17.282,18.454 16.999,19.17 17,20C16.999,20.83 17.282,21.53 17.85,22.1L45.75,50L17.85,77.85C17.282,78.454 16.999,79.17 17,80C16.999,80.83 17.282,81.53 17.85,82.1C18.454,82.701 19.17,83.001 20,83C20.83,83.001 21.53,82.701 22.1,82.1L50,54.25L77.85,82.1C78.454,82.701 79.17,83.001 80,83C80.83,83.001 81.53,82.701 82.1,82.1C82.701,81.53 83.001,80.83 83,80C83.001,79.17 82.701,78.454 82.1,77.85L54.25,50L82.1,22.1Z" style="fill-rule:nonzero;"/>
        </g>
    </g>
</svg>
