<?xml version="1.0" encoding="UTF-8" standalone="no"?>
<!DOCTYPE svg PUBLIC "-//W3C//DTD SVG 1.1//EN" "http://www.w3.org/Graphics/SVG/1.1/DTD/svg11.dtd">
<svg width="100%" height="100%" viewBox="0 0 100 100" version="1.1" xmlns="http://www.w3.org/2000/svg" xmlns:xlink="http://www.w3.org/1999/xlink" xml:space="preserve" xmlns:serif="http://www.serif.com/" style="fill-rule:evenodd;clip-rule:evenodd;stroke-linejoin:round;stroke-miterlimit:2;">
    <g transform="matrix(1.11694,0,0,1.11694,-5.84713,-5.84713)">
        <g id="a">
            <path d="M83.891,22.1C84.492,21.53 84.792,20.83 84.791,20C84.792,19.17 84.492,16.663 83.891,16.059C83.321,15.491 80.83,15.208 80,15.209C79.17,15.208 78.454,15.491 77.85,16.059L50,43.064L22.1,16.059C21.53,15.491 20.83,15.208 20,15.209C19.17,15.208 16.663,15.491 16.059,16.059C15.491,16.663 15.208,19.17 15.209,20C15.208,20.83 15.491,21.53 16.059,22.1L43.064,50L16.059,77.85C15.491,78.454 15.208,79.17 15.209,80C15.208,80.83 15.491,83.321 16.059,83.891C16.663,84.492 19.17,84.792 20,84.791C20.83,84.792 21.53,84.492 22.1,83.891L50,56.936L77.85,83.891C78.454,84.492 79.17,84.792 80,84.791C80.83,84.792 83.321,84.492 83.891,83.891C84.492,83.321 84.792,80.83 84.791,80C84.792,79.17 84.492,78.454 83.891,77.85L56.936,50L83.891,22.1Z" style="fill-rule:nonzero;"/>
        </g>
    </g>
</svg>
