<?xml version="1.0" encoding="UTF-8" standalone="no"?>
<svg
   xmlns:dc="http://purl.org/dc/elements/1.1/"
   xmlns:cc="http://creativecommons.org/ns#"
   xmlns:rdf="http://www.w3.org/1999/02/22-rdf-syntax-ns#"
   xmlns:svg="http://www.w3.org/2000/svg"
   xmlns="http://www.w3.org/2000/svg"
   xmlns:sodipodi="http://sodipodi.sourceforge.net/DTD/sodipodi-0.dtd"
   xmlns:inkscape="http://www.inkscape.org/namespaces/inkscape"
   width="100%"
   height="100%"
   viewBox="0 0 100 100"
   version="1.1"
   xml:space="preserve"
   style="fill-rule:evenodd;clip-rule:evenodd;stroke-linejoin:round;stroke-miterlimit:2;"
   id="svg16"
   sodipodi:docname="drafting.svg"
   inkscape:version="1.0.1 (3bc2e813f5, 2020-09-07)"><metadata
   id="metadata22"><rdf:RDF><cc:Work
       rdf:about=""><dc:format>image/svg+xml</dc:format><dc:type
         rdf:resource="http://purl.org/dc/dcmitype/StillImage" /><dc:title></dc:title></cc:Work></rdf:RDF></metadata><defs
   id="defs20" /><sodipodi:namedview
   pagecolor="#ffffff"
   bordercolor="#666666"
   borderopacity="1"
   objecttolerance="10"
   gridtolerance="10"
   guidetolerance="10"
   inkscape:pageopacity="0"
   inkscape:pageshadow="2"
   inkscape:window-width="1735"
   inkscape:window-height="844"
   id="namedview18"
   showgrid="false"
   inkscape:zoom="2.7258966"
   inkscape:cx="-12.659642"
   inkscape:cy="12.268386"
   inkscape:window-x="0"
   inkscape:window-y="0"
   inkscape:window-maximized="0"
   inkscape:current-layer="svg16" />
    
<g
   data-name="Group"
   id="g6"
   transform="matrix(0.81853321,0,0,0.81853321,9.0733397,9.0733397)"><path
     data-name="Compound Path"
     d="M 73.8,9 51.8,30.9 27.1,6.2 6.1,27.2 30.9,51.8 15.8,66.9 8.9,91.1 33.1,84.2 48.2,69.1 72.9,93.8 93.9,72.8 69.1,48.2 91,26.2 Z M 85.4,26.2 78.3,33.3 66.6,21.7 73.7,14.6 Z M 20.4,68 63.8,24.5 75.5,36.2 32,79.6 Z m -8.6,-40.9 15.3,-15.3 5.1,5.1 -7.3,7.3 2.8,2.8 7.3,-7.3 9.2,9.2 -4.5,4.5 2.8,2.8 4.5,-4.5 2,2 L 33.7,49 Z m 6.7,44.7 9.7,9.7 -13.5,3.8 z m 49.8,-18.9 -7.3,7.4 2.8,2.8 7.3,-7.3 9.2,9.2 -4.5,4.5 2.8,2.8 4.5,-4.5 5.1,5.1 L 72.9,88.2 51,66.3 66.3,51 Z"
     id="path4" /></g></svg>
