<?xml version="1.0" encoding="UTF-8" standalone="no"?>
<svg
   xmlns:dc="http://purl.org/dc/elements/1.1/"
   xmlns:cc="http://creativecommons.org/ns#"
   xmlns:rdf="http://www.w3.org/1999/02/22-rdf-syntax-ns#"
   xmlns:svg="http://www.w3.org/2000/svg"
   xmlns="http://www.w3.org/2000/svg"
   xmlns:sodipodi="http://sodipodi.sourceforge.net/DTD/sodipodi-0.dtd"
   xmlns:inkscape="http://www.inkscape.org/namespaces/inkscape"
   width="100%"
   height="100%"
   viewBox="0 0 100 100"
   version="1.1"
   xml:space="preserve"
   style="fill-rule:evenodd;clip-rule:evenodd;stroke-linejoin:round;stroke-miterlimit:2;"
   id="svg16"
   sodipodi:docname="metal.svg"
   inkscape:version="1.0.1 (3bc2e813f5, 2020-09-07)"><metadata
   id="metadata22"><rdf:RDF><cc:Work
       rdf:about=""><dc:format>image/svg+xml</dc:format><dc:type
         rdf:resource="http://purl.org/dc/dcmitype/StillImage" /><dc:title></dc:title></cc:Work></rdf:RDF></metadata><defs
   id="defs20" /><sodipodi:namedview
   pagecolor="#ffffff"
   bordercolor="#666666"
   borderopacity="1"
   objecttolerance="10"
   gridtolerance="10"
   guidetolerance="10"
   inkscape:pageopacity="0"
   inkscape:pageshadow="2"
   inkscape:window-width="1735"
   inkscape:window-height="844"
   id="namedview18"
   showgrid="false"
   inkscape:zoom="2.7258966"
   inkscape:cx="-12.659642"
   inkscape:cy="12.268386"
   inkscape:window-x="0"
   inkscape:window-y="0"
   inkscape:window-maximized="0"
   inkscape:current-layer="svg16" />
    
<g
   id="g6"
   transform="matrix(1.0504681,0,0,1.0504681,-4.335635,-1.5815945)"><path
     d="M 87.8,26.1 H 37.7 c -1,0 -1.8,0.8 -1.8,1.8 v 20.3 c 0,1 0.8,1.8 1.8,1.8 l 13.7,1.5 c -1,3 -4.6,11.4 -13,11.4 h -0.1 c -1.4,0 -2.5,1.1 -2.5,2.5 v 5.9 c 0,1.4 1.1,2.5 2.5,2.5 h 41.1 c 1.4,0 2.5,-1.1 2.5,-2.5 v -5.9 c 0,-1.4 -1.1,-2.5 -2.5,-2.5 H 79.3 C 71.2,62.9 68.1,56 67.1,53.1 l 12.8,1.4 c 1.1,0 1.9,-0.9 1.8,-2 -0.5,-8.7 2,-16.5 7.5,-23.6 1,-1 0.2,-2.8 -1.4,-2.8 z"
     id="path2" /><path
     d="M 31.2,27.6 H 12.3 c -1.5,0 -2.5,1.7 -1.7,3 4.3,6.8 11.1,11.2 20.2,13.3 1.2,0.3 2.3,-0.7 2.3,-1.9 V 29.5 c 0.1,-1.1 -0.8,-1.9 -1.9,-1.9 z"
     id="path4" /></g></svg>
