<?xml version="1.0" encoding="UTF-8" standalone="no"?>
<!DOCTYPE svg PUBLIC "-//W3C//DTD SVG 1.1//EN" "http://www.w3.org/Graphics/SVG/1.1/DTD/svg11.dtd">
<svg width="100%" height="100%" viewBox="0 0 100 100" version="1.1" xmlns="http://www.w3.org/2000/svg" xmlns:xlink="http://www.w3.org/1999/xlink" xml:space="preserve" xmlns:serif="http://www.serif.com/" style="fill-rule:evenodd;clip-rule:evenodd;stroke-linejoin:round;stroke-miterlimit:2;">
    <g transform="matrix(1,0,0,1,0.489067,-0.0130012)">
        <path d="M92.85,47.33L84.26,26.33C84.125,25.993 83.9,25.699 83.61,25.48L60.72,8.33C60.284,8.025 59.744,7.906 59.22,8L27.73,12.72C27.275,12.791 26.858,13.017 26.55,13.36L17,23.85C16.84,24.031 16.712,24.237 16.62,24.46L6.14,51.18C5.981,51.619 5.981,52.101 6.14,52.54L9.48,62.54C9.57,62.793 9.705,63.027 9.88,63.23L30.88,87.08C31.016,87.233 31.174,87.365 31.35,87.47L38.5,91.76C38.802,91.943 39.147,92.043 39.5,92.05C39.623,92.06 39.747,92.06 39.87,92.05L65.63,87.28C65.828,87.237 66.019,87.17 66.2,87.08L82.4,78.48C82.864,78.243 83.222,77.839 83.4,77.35L92.9,48.72C93.05,48.266 93.032,47.772 92.85,47.33ZM80,27.79L56.47,47L25.39,35.07L29.65,16.48L59,12L80,27.79ZM20.22,26.27L27.09,18.72L23.26,35.37L12.14,58L10.14,51.94L20.22,26.27ZM13.11,60.91L13,60.72L24.71,37L55.76,48.82L60.3,76.94L33.8,84.33L33.62,84.22L13.11,60.91ZM64.58,83.39L39.86,88L36.16,85.78L61.61,78.69L76.21,77.27L64.58,83.39ZM80,74.86L62.3,76.63L57.73,48.5L81.19,29.39L88.87,48.16L80,74.86Z" style="fill-rule:nonzero;"/>
    </g>
</svg>
